<?xml version="1.0" encoding="utf-8"?>
<!-- Generator: Adobe Illustrator 16.0.0, SVG Export Plug-In . SVG Version: 6.00 Build 0)  -->
<!DOCTYPE svg PUBLIC "-//W3C//DTD SVG 1.1//EN" "http://www.w3.org/Graphics/SVG/1.1/DTD/svg11.dtd">
<svg version="1.1" id="Layer_1" xmlns="http://www.w3.org/2000/svg" xmlns:xlink="http://www.w3.org/1999/xlink" x="0px" y="0px"
	 width="488.902px" height="183.817px" viewBox="0 0 488.902 183.817" enable-background="new 0 0 488.902 183.817"
	 xml:space="preserve">
<g>
	<path d="M57.081,55.208v73.374H42.19V98.154H14.891v30.429H0V55.208h14.891v29.997H42.19V55.208H57.081z"/>
	<path d="M68.193,112.181c0-5.61,1.492-9.657,4.478-12.139c2.984-2.482,7.786-3.938,14.405-4.37l11.545-0.863v-3.345
		c0-2.158-0.485-3.669-1.457-4.532s-2.608-1.295-4.91-1.295c-2.374,0-5.648,0.091-9.819,0.27c-4.173,0.181-7.661,0.378-10.467,0.594
		l-0.432-10.035c7.769-2.086,15.106-3.129,22.012-3.129s11.886,1.439,14.945,4.315c3.057,2.879,4.585,7.482,4.585,13.812v22.443
		c0.144,1.799,0.449,3.021,0.917,3.669c0.467,0.647,1.349,1.116,2.644,1.402l-0.432,10.898c-3.741,0-6.708-0.253-8.902-0.756
		c-2.195-0.504-4.37-1.51-6.528-3.021c-5.252,2.517-10.539,3.776-15.862,3.776C73.767,129.877,68.193,123.98,68.193,112.181z
		 M97.003,116.821l1.618-0.432v-11.545l-9.819,0.863c-4.03,0.36-6.042,2.519-6.042,6.474c0,3.957,1.762,5.935,5.287,5.935
		C90.78,118.116,93.766,117.684,97.003,116.821z"/>
	<path d="M129.534,123.133c-3.49-4.495-5.233-11.67-5.233-21.526c0-9.998,1.797-17.211,5.396-21.635
		c3.596-4.424,9.458-6.636,17.588-6.636c2.086,0,4.387,0.181,6.906,0.539c2.518,0.361,5.898,0.972,10.143,1.835l-0.432,11.438
		c-6.115-0.575-10.359-0.863-12.732-0.863c-3.31,0-5.827,0.45-7.553,1.349c-1.727,0.9-2.932,2.428-3.615,4.586
		c-0.685,2.158-1.025,5.252-1.025,9.279c0,4.101,0.341,7.229,1.025,9.388c0.683,2.158,1.905,3.706,3.668,4.64
		c1.762,0.937,4.333,1.403,7.715,1.403l12.517-0.863l0.432,11.546c-7.625,1.51-13.596,2.266-17.912,2.266
		C138.652,129.877,133.022,127.63,129.534,123.133z"/>
	<path d="M175.016,53.05h14.459v42.945l5.503-0.971l10.683-20.394h16.185l-14.027,25.572l14.783,28.379h-16.293l-10.898-21.041
		l-5.935,0.971v20.07h-14.459V53.05z"/>
	<path d="M227.024,112.181c0-5.61,1.492-9.657,4.479-12.139c2.984-2.482,7.785-3.938,14.404-4.37l11.546-0.863v-3.345
		c0-2.158-0.485-3.669-1.456-4.532c-0.972-0.863-2.608-1.295-4.91-1.295c-2.374,0-5.647,0.091-9.819,0.27
		c-4.173,0.181-7.661,0.378-10.466,0.594l-0.432-10.035c7.769-2.086,15.106-3.129,22.012-3.129c6.906,0,11.886,1.439,14.944,4.315
		c3.057,2.879,4.586,7.482,4.586,13.812v22.443c0.144,1.799,0.448,3.021,0.917,3.669c0.468,0.647,1.35,1.116,2.644,1.402
		l-0.432,10.898c-3.74,0-6.708-0.253-8.901-0.756c-2.195-0.504-4.37-1.51-6.528-3.021c-5.252,2.517-10.539,3.776-15.861,3.776
		C232.599,129.877,227.024,123.98,227.024,112.181z M255.835,116.821l1.618-0.432v-11.545l-9.819,0.863
		c-4.029,0.36-6.042,2.519-6.042,6.474c0,3.957,1.762,5.935,5.287,5.935C249.611,118.116,252.598,117.684,255.835,116.821z"/>
	<path d="M294.355,127.935c-2.303-1.295-3.957-3.416-4.964-6.366c-1.008-2.949-1.511-7.014-1.511-12.193V86.932h-6.366V74.631h6.366
		V59.632h14.459v14.999h13.272v12.301H302.34v22.12c0,2.806,0.252,4.839,0.756,6.097c0.502,1.259,1.762,1.853,3.776,1.78
		l8.201-0.216l0.646,11.546c-2.878,0.646-5.125,1.078-6.743,1.294c-1.619,0.216-3.256,0.324-4.91,0.324
		C299.894,129.877,296.657,129.23,294.355,127.935z"/>
	<path d="M325,53.05h14.459v24.171c2.732-1.366,5.16-2.355,7.283-2.968c2.121-0.61,4.405-0.917,6.852-0.917
		c6.617,0,11.312,2.104,14.081,6.312c2.769,4.208,4.154,10.773,4.154,19.692v29.241H357.37V99.665c0-4.891-0.576-8.344-1.727-10.358
		c-1.151-2.014-3.382-3.021-6.689-3.021c-2.59,0-5.287,0.432-8.093,1.295l-1.402,0.432v40.571H325V53.05z"/>
	<path d="M388.176,122.486c-4.209-4.927-6.312-11.923-6.312-20.987c0-8.991,2.104-15.933,6.312-20.825
		c4.208-4.891,10.375-7.337,18.505-7.337c8.128,0,14.297,2.446,18.506,7.337c4.208,4.893,6.312,11.834,6.312,20.825
		c0,9.064-2.104,16.061-6.312,20.987c-4.209,4.929-10.378,7.392-18.506,7.392C398.551,129.877,392.384,127.415,388.176,122.486z
		 M414.342,113.8c1.654-2.518,2.481-6.618,2.481-12.302c0-5.682-0.827-9.746-2.481-12.192c-1.655-2.445-4.208-3.669-7.661-3.669
		s-6.007,1.224-7.661,3.669c-1.655,2.446-2.481,6.511-2.481,12.192c0,5.684,0.826,9.784,2.481,12.302
		c1.654,2.519,4.208,3.776,7.661,3.776S412.687,116.319,414.342,113.8z"/>
	<path d="M442.073,74.631h14.351v3.021c2.733-1.581,5.161-2.697,7.283-3.345c2.121-0.647,4.406-0.971,6.853-0.971
		c6.617,0,11.329,2.122,14.135,6.366c2.806,4.245,4.208,10.79,4.208,19.639v29.241h-14.459V99.772c0-4.963-0.593-8.451-1.78-10.466
		c-1.187-2.014-3.436-3.021-6.744-3.021c-2.373,0-5.071,0.504-8.093,1.511l-1.294,0.432v40.355h-14.459V74.631z"/>
</g>
<g>
	<path d="M126.292,182.223c-1.535-1.063-2.592-2.61-3.17-4.643c-0.58-2.032-0.867-4.716-0.867-8.054c0-3.445,0.295-6.19,0.887-8.236
		c0.592-2.045,1.635-3.579,3.129-4.602c1.494-1.022,3.613-1.534,6.359-1.534c2.232,0,4.816,0.323,7.75,0.969l-0.121,3.189
		c-2.557-0.457-4.844-0.686-6.863-0.686c-2.018,0-3.539,0.357-4.561,1.07c-1.023,0.713-1.711,1.864-2.059,3.451
		c-0.352,1.588-0.512,3.89-0.484,6.903c0,2.611,0.166,4.623,0.504,6.036c0.336,1.413,1.021,2.476,2.059,3.189
		c1.035,0.713,2.617,1.07,4.744,1.07c1.775,0,3.996-0.228,6.66-0.686l0.121,3.27c-2.961,0.591-5.449,0.888-7.469,0.888
		C130.032,183.817,127.825,183.286,126.292,182.223z"/>
	<path d="M145.548,181.294c-1.373-1.682-2.059-4.326-2.059-7.933c0-3.687,0.699-6.378,2.099-8.074
		c1.399-1.695,3.646-2.543,6.742-2.543c3.121,0,5.375,0.854,6.762,2.563c1.386,1.709,2.079,4.394,2.079,8.054
		c0,3.58-0.687,6.217-2.059,7.913c-1.373,1.695-3.634,2.543-6.782,2.543C149.181,183.817,146.92,182.976,145.548,181.294z
		 M155.338,179.861c0.712-0.458,1.217-1.197,1.514-2.22c0.296-1.022,0.443-2.449,0.443-4.279c0-1.911-0.154-3.391-0.464-4.441
		c-0.31-1.049-0.821-1.796-1.534-2.24c-0.713-0.444-1.702-0.666-2.967-0.666c-1.266,0-2.261,0.222-2.987,0.666
		c-0.727,0.444-1.245,1.198-1.555,2.261c-0.31,1.063-0.464,2.537-0.464,4.42c0,1.803,0.147,3.223,0.444,4.259
		c0.295,1.037,0.807,1.783,1.533,2.241c0.727,0.458,1.736,0.687,3.028,0.687S154.624,180.319,155.338,179.861z"/>
	<path d="M166.015,154.63h3.755v28.743h-3.755V154.63z"/>
	<path d="M176.471,181.294c-1.373-1.682-2.059-4.326-2.059-7.933c0-3.687,0.699-6.378,2.099-8.074
		c1.399-1.695,3.646-2.543,6.742-2.543c3.121,0,5.375,0.854,6.762,2.563c1.386,1.709,2.079,4.394,2.079,8.054
		c0,3.58-0.687,6.217-2.059,7.913c-1.373,1.695-3.634,2.543-6.782,2.543C180.104,183.817,177.843,182.976,176.471,181.294z
		 M186.261,179.861c0.712-0.458,1.217-1.197,1.514-2.22c0.296-1.022,0.443-2.449,0.443-4.279c0-1.911-0.154-3.391-0.464-4.441
		c-0.31-1.049-0.821-1.796-1.534-2.24c-0.713-0.444-1.702-0.666-2.967-0.666c-1.266,0-2.261,0.222-2.987,0.666
		c-0.727,0.444-1.245,1.198-1.555,2.261c-0.31,1.063-0.464,2.537-0.464,4.42c0,1.803,0.147,3.223,0.444,4.259
		c0.295,1.037,0.807,1.783,1.533,2.241c0.727,0.458,1.736,0.687,3.028,0.687S185.547,180.319,186.261,179.861z"/>
	<path d="M196.695,163.188h3.715v1.333c1.022-0.592,1.991-1.036,2.906-1.333c0.915-0.296,1.857-0.444,2.826-0.444
		c1.049,0,2.019,0.168,2.906,0.504c0.889,0.337,1.588,0.842,2.1,1.514c1.076-0.592,2.254-1.076,3.532-1.454
		c1.277-0.376,2.576-0.565,3.896-0.565c1.668,0,2.974,0.337,3.916,1.009c0.941,0.673,1.614,1.723,2.019,3.149
		c0.403,1.427,0.605,3.337,0.605,5.732v10.738h-3.755v-10.658c0-1.695-0.101-3.007-0.303-3.936c-0.201-0.929-0.564-1.601-1.09-2.019
		c-0.524-0.417-1.299-0.625-2.321-0.625c-0.754,0-1.534,0.087-2.341,0.262c-0.808,0.175-1.521,0.397-2.14,0.666l-0.727,0.323
		c0.295,1.157,0.443,2.987,0.443,5.49v10.496h-3.795v-10.416c0-1.803-0.094-3.182-0.282-4.138c-0.188-0.955-0.545-1.642-1.069-2.059
		c-0.525-0.417-1.299-0.625-2.321-0.625c-0.754,0-1.528,0.094-2.321,0.282c-0.795,0.189-1.461,0.404-1.999,0.646l-0.646,0.323
		v15.986h-3.755V163.188z"/>
	<path d="M231.736,183.454l-1.252-0.121V154.63h3.755v9.446c1.022-0.457,1.971-0.793,2.846-1.009
		c0.875-0.215,1.823-0.323,2.847-0.323c1.776,0,3.195,0.35,4.259,1.049c1.062,0.7,1.843,1.811,2.342,3.331
		c0.497,1.521,0.746,3.546,0.746,6.076c0,2.719-0.303,4.838-0.908,6.358c-0.605,1.521-1.602,2.604-2.987,3.25
		c-1.387,0.646-3.317,0.969-5.793,0.969C235.76,183.777,233.809,183.669,231.736,183.454z M241.243,179.72
		c0.821-0.471,1.393-1.225,1.716-2.261c0.323-1.036,0.484-2.469,0.484-4.299c0-1.776-0.142-3.169-0.424-4.179
		s-0.74-1.736-1.372-2.18c-0.633-0.444-1.501-0.666-2.604-0.666c-1.346,0-2.947,0.323-4.804,0.969v13.12
		c1.749,0.135,2.906,0.202,3.472,0.202C239.245,180.426,240.422,180.191,241.243,179.72z"/>
	<path d="M253.092,181.294c-1.373-1.682-2.059-4.326-2.059-7.933c0-3.687,0.699-6.378,2.099-8.074
		c1.399-1.695,3.646-2.543,6.742-2.543c3.121,0,5.375,0.854,6.762,2.563c1.386,1.709,2.079,4.394,2.079,8.054
		c0,3.58-0.687,6.217-2.059,7.913c-1.373,1.695-3.634,2.543-6.782,2.543C256.725,183.817,254.464,182.976,253.092,181.294z
		 M262.882,179.861c0.712-0.458,1.217-1.197,1.514-2.22c0.296-1.022,0.443-2.449,0.443-4.279c0-1.911-0.154-3.391-0.464-4.441
		c-0.31-1.049-0.821-1.796-1.534-2.24c-0.713-0.444-1.702-0.666-2.967-0.666c-1.266,0-2.261,0.222-2.987,0.666
		c-0.727,0.444-1.245,1.198-1.555,2.261c-0.31,1.063-0.464,2.537-0.464,4.42c0,1.803,0.147,3.223,0.444,4.259
		c0.295,1.037,0.807,1.783,1.533,2.241c0.727,0.458,1.736,0.687,3.028,0.687S262.168,180.319,262.882,179.861z"/>
	<path d="M282.036,178.65l5.692-5.773c1.479-1.534,2.583-2.731,3.311-3.593c0.727-0.861,1.258-1.655,1.594-2.382
		c0.337-0.727,0.505-1.507,0.505-2.342c0-1.211-0.316-2.079-0.948-2.604c-0.633-0.525-1.582-0.788-2.847-0.788
		c-1.776,0-3.741,0.162-5.894,0.484l-0.969,0.121l-0.283-4.319c2.638-0.808,5.369-1.211,8.195-1.211c5.652,0,8.478,2.543,8.478,7.63
		c0,1.346-0.182,2.537-0.545,3.573s-0.969,2.086-1.816,3.149c-0.848,1.063-2.053,2.308-3.613,3.734l-4.643,4.199h11.062v4.844
		h-17.278V178.65z"/>
	<path d="M305.531,180.487c-1.695-2.193-2.543-5.699-2.543-10.517c0-4.817,0.848-8.322,2.543-10.517
		c1.696-2.193,4.293-3.29,7.792-3.29c3.498,0,6.096,1.097,7.791,3.29c1.695,2.194,2.544,5.699,2.544,10.517
		c0,4.818-0.849,8.323-2.544,10.517c-1.695,2.194-4.293,3.29-7.791,3.29C309.824,183.777,307.228,182.681,305.531,180.487z
		 M315.987,178.064c0.673-0.579,1.164-1.52,1.474-2.826c0.31-1.305,0.464-3.061,0.464-5.268c0-2.207-0.154-3.962-0.464-5.268
		c-0.31-1.305-0.801-2.247-1.474-2.826c-0.673-0.578-1.561-0.868-2.664-0.868s-1.992,0.29-2.664,0.868
		c-0.674,0.579-1.165,1.521-1.474,2.826c-0.311,1.306-0.465,3.062-0.465,5.268c0,2.207,0.154,3.963,0.465,5.268
		c0.309,1.306,0.8,2.248,1.474,2.826c0.672,0.579,1.561,0.868,2.664,0.868S315.314,178.644,315.987,178.064z"/>
	<path d="M335.93,163.026l-5.773,3.714l-2.543-4.158l8.801-5.854h5.087v26.644h-5.571V163.026z"/>
	<path d="M352.4,182.404l9.084-19.418v-1.292h-11.466v-4.965h17.036v6.297l-9.486,20.831L352.4,182.404z"/>
</g>
<g>
	<path d="M170.354,7.518h11.042c1.53,0,2.89,0.171,4.121,0.426c1.274,0.339,2.293,0.849,3.186,1.358
		c0.847,0.595,1.528,1.274,1.995,2.124c0.51,0.765,0.766,1.699,0.766,2.633c0,1.275-0.298,2.293-0.851,3.143
		c-0.595,0.935-1.613,1.784-3.101,2.634c1.531,0.51,2.76,1.274,3.738,2.378s1.445,2.378,1.445,3.823c0,1.062-0.212,1.996-0.68,2.845
		c-0.426,0.85-1.105,1.7-1.953,2.294c-0.852,0.637-1.871,1.147-3.058,1.487c-1.191,0.425-2.55,0.595-3.994,0.595h-12.699V7.476
		L170.354,7.518z M176.727,18.646h4.162c1.273,0,2.379-0.424,3.101-1.188c0.721-0.765,1.103-1.784,1.103-2.974
		c0-1.359-0.424-2.462-1.443-3.313c-0.977-0.85-2.548-1.274-4.587-1.274h-2.379v8.708L176.727,18.646z M176.727,30.625h3.396
		c2.125,0,3.609-0.425,4.587-1.274c0.936-0.851,1.401-1.871,1.401-3.145c0-0.722-0.084-1.359-0.298-1.996
		c-0.21-0.638-0.549-1.147-1.017-1.615c-0.51-0.424-1.105-0.848-1.911-1.061c-0.768-0.255-1.699-0.425-2.848-0.425h-3.269v9.516
		H176.727z M211.682,33.3h-5.861v-1.698l-0.934,0.848l-1.064,0.595l-1.272,0.425c-0.51,0.084-1.063,0.127-1.699,0.127
		c-0.933,0-1.699-0.127-2.465-0.425c-0.722-0.212-1.274-0.552-1.824-1.02c-0.511-0.424-0.85-0.977-1.148-1.571
		c-0.254-0.638-0.426-1.275-0.426-1.996c0-1.147,0.341-2.124,0.936-2.975c0.597-0.763,1.402-1.443,2.338-1.996
		c0.977-0.593,2.122-1.103,3.27-1.529c1.189-0.423,2.378-0.848,3.567-1.188l0.681-0.171v-1.869c0-1.273-0.257-2.125-0.722-2.634
		c-0.427-0.508-1.105-0.763-1.913-0.763c-0.934,0-1.569,0.255-1.911,0.679c-0.34,0.425-0.51,0.977-0.51,1.613
		c0,0.426,0,0.765-0.126,1.105c-0.085,0.339-0.213,0.637-0.427,0.85c-0.21,0.297-0.508,0.51-0.848,0.637
		c-0.34,0.169-0.764,0.255-1.275,0.255c-0.848,0-1.526-0.212-2.039-0.68c-0.508-0.425-0.763-1.062-0.763-1.784
		c0-0.638,0.213-1.275,0.679-1.869c0.424-0.552,1.062-1.062,1.828-1.486c0.85-0.425,1.697-0.764,2.716-0.977
		c1.021-0.255,2.125-0.34,3.23-0.34c2.802,0,4.799,0.424,6.074,1.402c1.274,0.977,1.868,2.251,1.868,3.823V33.3H211.682z
		 M205.821,23.105l-1.7,0.851c-0.595,0.339-1.147,0.679-1.615,1.062c-0.423,0.424-0.847,0.764-1.146,1.189
		c-0.296,0.425-0.424,0.85-0.424,1.359c0,0.723,0.169,1.402,0.551,1.911c0.34,0.553,0.765,0.851,1.275,0.851
		c0.424,0,0.935-0.171,1.442-0.426l1.616-1.146v-5.564V23.105z M221.961,33.3h-5.82V5.989l5.82-1.572V33.3z M231.771,33.3h-5.819
		V5.989l5.819-1.572V33.3z M244.642,33.725c-1.4,0-2.676-0.297-3.907-0.848c-1.188-0.426-2.251-1.147-3.144-2.039
		c-0.934-0.85-1.611-1.869-2.123-2.974c-0.552-1.19-0.85-2.421-0.85-3.696c0-1.529,0.298-2.973,0.766-4.247
		c0.51-1.275,1.188-2.463,2.038-3.398c0.85-0.977,1.953-1.699,3.185-2.251c1.275-0.552,2.635-0.85,4.164-0.85
		c1.357,0,2.548,0.254,3.736,0.68c1.104,0.425,2.124,1.02,2.889,1.699c0.767,0.678,1.402,1.698,1.868,2.675
		c0.423,1.061,0.639,2.124,0.639,3.313H240.48c0,1.062,0.168,2.124,0.425,3.059c0.297,0.976,0.679,1.825,1.103,2.547
		c0.426,0.766,1.02,1.36,1.614,1.827c0.68,0.424,1.359,0.637,2.124,0.637c0.637,0,1.274-0.084,1.912-0.297
		c0.636-0.211,1.188-0.51,1.699-0.85c0.507-0.424,0.978-0.85,1.401-1.402c0.423-0.509,0.637-1.062,0.849-1.7l2.974,0.51
		c-0.255,1.021-0.723,1.998-1.401,2.974c-0.679,0.849-1.443,1.699-2.338,2.379c-0.847,0.679-1.91,1.274-2.972,1.699
		c-1.059,0.339-2.124,0.551-3.143,0.551H244.642z M247.189,19.708c-0.169-1.147-0.551-2.123-1.188-2.761
		c-0.638-0.723-1.445-1.061-2.379-1.061c-0.721,0-1.4,0.338-2.038,1.019c-0.597,0.722-0.978,1.7-1.104,2.846h6.665L247.189,19.708z
		 M263.075,33.3h-5.861V13.762h5.861v1.443c0.639-0.678,1.36-1.188,2.125-1.613c0.85-0.426,1.7-0.595,2.549-0.595
		c0.424,0,0.978,0,1.443,0.212c0.424,0.084,0.85,0.255,1.272,0.51c0.3,0.255,0.553,0.509,0.765,0.849
		c0.171,0.298,0.299,0.637,0.299,1.019c0,0.68-0.299,1.274-0.85,1.7c-0.426,0.424-1.017,0.637-1.699,0.637
		c-0.51,0-0.849,0-1.188-0.212l-0.852-0.424c-0.21-0.212-0.423-0.425-0.722-0.51c-0.254-0.169-0.594-0.255-0.977-0.255
		c-0.382,0-0.72,0.298-1.146,0.849c-0.424,0.511-0.72,1.146-1.063,1.826v14.018L263.075,33.3z M273.014,7.689
		c0-0.851,0.339-1.487,0.936-2.039c0.636-0.638,1.359-0.851,2.251-0.851c0.851,0,1.573,0.213,2.208,0.851
		c0.597,0.509,0.85,1.188,0.85,1.996c0,0.764-0.253,1.444-0.85,1.996c-0.635,0.553-1.401,0.85-2.25,0.85
		c-0.935,0-1.698-0.297-2.294-0.85c-0.593-0.551-0.935-1.274-0.935-1.996L273.014,7.689z M273.312,14.909l5.861-1.699V33.3h-5.901
		V14.824L273.312,14.909z M295.1,19.963c0-1.02-0.212-1.784-0.593-2.293c-0.426-0.51-0.852-0.765-1.36-0.765
		c-0.508,0-1.146,0.17-1.909,0.552c-0.765,0.425-1.489,0.935-2.124,1.571V33.3h-5.947V13.762h5.947v1.529
		c0.849-0.68,1.782-1.147,2.845-1.486c1.021-0.297,2.04-0.426,3.102-0.426c0.764,0,1.528,0.128,2.25,0.426
		c0.723,0.339,1.362,0.764,1.867,1.274c0.556,0.552,0.979,1.145,1.275,1.868c0.34,0.765,0.51,1.529,0.51,2.336V33.3H295.1V19.921
		V19.963z M320.074,33.3h-5.943v-1.698l-0.936,0.848c-0.296,0.213-0.637,0.426-1.019,0.595l-1.277,0.425
		c-0.423,0.084-1.061,0.127-1.695,0.127c-0.85,0-1.701-0.127-2.464-0.425c-0.721-0.212-1.275-0.552-1.828-1.02
		c-0.423-0.424-0.847-0.977-1.147-1.571c-0.254-0.638-0.424-1.275-0.424-1.996c0-1.147,0.341-2.124,0.937-2.975
		c0.635-0.763,1.441-1.443,2.42-1.996c0.977-0.593,2.037-1.103,3.227-1.529l3.569-1.188l0.678-0.171v-1.869
		c0-1.273-0.252-2.125-0.722-2.634c-0.426-0.508-1.103-0.763-1.91-0.763c-0.851,0-1.528,0.255-1.87,0.679
		c-0.339,0.425-0.507,0.977-0.507,1.613c0,0.426,0,0.765-0.129,1.105c0,0.339-0.172,0.637-0.424,0.85
		c-0.172,0.297-0.425,0.51-0.768,0.637c-0.424,0.169-0.848,0.255-1.357,0.255c-0.85,0-1.484-0.212-1.995-0.68
		c-0.509-0.425-0.766-1.062-0.766-1.784c0-0.638,0.213-1.275,0.68-1.869c0.509-0.552,1.103-1.062,1.869-1.486
		c0.847-0.425,1.699-0.764,2.719-0.977c1.02-0.255,2.125-0.34,3.226-0.34c2.805,0,4.843,0.424,6.074,1.402
		c1.274,0.977,1.914,2.251,1.914,3.823V33.3H320.074z M314.131,23.192l-1.701,0.85c-0.552,0.338-1.061,0.678-1.53,1.062
		c-0.423,0.424-0.847,0.764-1.146,1.189c-0.338,0.425-0.509,0.85-0.509,1.359c0,0.723,0.171,1.401,0.553,1.912
		c0.426,0.552,0.849,0.85,1.272,0.85c0.511,0,0.979-0.169,1.488-0.425l1.612-1.147v-5.648H314.131z"/>
</g>
</svg>
