<?xml version="1.0" encoding="utf-8"?>
<!-- Generator: Adobe Illustrator 16.0.0, SVG Export Plug-In . SVG Version: 6.00 Build 0)  -->
<!DOCTYPE svg PUBLIC "-//W3C//DTD SVG 1.1//EN" "http://www.w3.org/Graphics/SVG/1.1/DTD/svg11.dtd">
<svg version="1.1" id="Layer_1" xmlns="http://www.w3.org/2000/svg" xmlns:xlink="http://www.w3.org/1999/xlink" x="0px" y="0px"
	 width="353.6px" height="102.3px" viewBox="0 0 353.6 102.3" enable-background="new 0 0 353.6 102.3" xml:space="preserve">
<g>
	<path fill="#FFFFFF" d="M0.7,7.3h26c3.6,0,6.8,0.4,9.7,1c3,0.8,5.4,2,7.5,3.2c2,1.4,3.6,3,4.7,5c1.2,1.8,1.8,4,1.8,6.2
		c0,3-0.7,5.4-2,7.4c-1.4,2.2-3.8,4.2-7.3,6.2c3.6,1.2,6.5,3,8.8,5.6c2.3,2.6,3.4,5.6,3.4,9c0,2.5-0.5,4.7-1.6,6.7
		c-1,2-2.6,4-4.6,5.399c-2,1.5-4.4,2.701-7.2,3.5c-2.8,1-6,1.4-9.4,1.4H0.6V7.2L0.7,7.3z M15.7,33.5h9.8c3,0,5.6-1,7.3-2.8
		c1.7-1.8,2.6-4.2,2.6-7c0-3.2-1-5.8-3.4-7.8c-2.3-2-6-3-10.8-3h-5.6v20.5L15.7,33.5z M15.7,61.701h8c5,0,8.5-1,10.8-3
		c2.2-2,3.3-4.4,3.3-7.401c0-1.7-0.2-3.2-0.7-4.7s-1.3-2.7-2.4-3.8c-1.2-1-2.6-2-4.5-2.5c-1.8-0.6-4-1-6.7-1h-7.7v22.401H15.7z
		 M98,68H84.2v-4L82,66l-2.5,1.4l-3,1c-1.2,0.2-2.5,0.301-4,0.301c-2.2,0-4-0.301-5.8-1c-1.7-0.5-3-1.301-4.3-2.4
		c-1.2-1-2-2.301-2.7-3.7c-0.6-1.5-1-3-1-4.7c0-2.699,0.8-5,2.2-7c1.4-1.8,3.3-3.4,5.5-4.7c2.3-1.4,5-2.6,7.7-3.6
		c2.8-1,5.6-2,8.4-2.8l1.6-0.4V34c0-3-0.6-5-1.7-6.2c-1-1.2-2.6-1.8-4.5-1.8c-2.2,0-3.7,0.6-4.5,1.6c-0.8,1-1.2,2.3-1.2,3.8
		c0,1,0,1.8-0.3,2.6c-0.2,0.8-0.5,1.5-1,2c-0.5,0.7-1.2,1.2-2,1.5c-0.8,0.4-1.8,0.6-3,0.6c-2,0-3.6-0.5-4.8-1.6
		c-1.2-1-1.8-2.5-1.8-4.2c0-1.5,0.5-3,1.6-4.4c1-1.3,2.5-2.5,4.3-3.5c2-1,4-1.8,6.4-2.3c2.4-0.6,5-0.8,7.6-0.8
		c6.6,0,11.3,1,14.3,3.3c3,2.3,4.4,5.3,4.4,9V68H98z M84.2,44l-4,2c-1.4,0.8-2.7,1.6-3.8,2.5c-1,1-2,1.8-2.7,2.8c-0.7,1-1,2-1,3.2
		c0,1.701,0.4,3.301,1.3,4.5c0.8,1.301,1.8,2,3,2c1,0,2.2-0.399,3.4-1l3.8-2.699V44.2V44z M122.2,68h-13.7V3.7L122.2,0V68z
		 M145.3,68h-13.7V3.7L145.3,0V68z M175.6,69c-3.3,0-6.3-0.699-9.2-2c-2.8-1-5.3-2.699-7.4-4.799c-2.2-2-3.8-4.4-5-7
		c-1.3-2.801-2-5.701-2-8.701c0-3.6,0.7-7,1.8-10c1.2-3,2.8-5.8,4.8-8c2-2.3,4.6-4,7.5-5.3c3-1.3,6.2-2,9.8-2c3.201,0,6,0.6,8.8,1.6
		c2.6,1,5,2.4,6.8,4c1.8,1.6,3.3,4,4.399,6.3c1,2.5,1.5,5,1.5,7.8h-31.6c0,2.5,0.4,5,1,7.2c0.7,2.3,1.6,4.3,2.6,6
		c1,1.8,2.4,3.2,3.8,4.3c1.6,1,3.2,1.5,5,1.5c1.5,0,3-0.199,4.5-0.699s2.8-1.201,4-2c1.199-1,2.3-2,3.3-3.301c1-1.199,1.5-2.5,2-4
		l7,1.2c-0.601,2.399-1.7,4.7-3.3,7c-1.6,2-3.4,4-5.5,5.601c-2,1.6-4.5,3-7,4c-2.5,0.799-5,1.299-7.4,1.299H175.6z M181.601,36
		c-0.4-2.7-1.301-5-2.801-6.5c-1.5-1.7-3.4-2.5-5.6-2.5c-1.7,0-3.3,0.8-4.8,2.4c-1.4,1.7-2.3,4-2.6,6.7h15.7L181.601,36z M219,68
		h-13.8V22H219v3.4c1.5-1.6,3.2-2.8,5-3.8c2-1,4-1.4,6-1.4c1,0,2.3,0,3.399,0.5c1,0.2,2,0.6,3,1.2c0.701,0.6,1.301,1.2,1.801,2
		c0.4,0.7,0.699,1.5,0.699,2.4c0,1.6-0.699,3-2,4c-1,1-2.399,1.5-4,1.5c-1.199,0-2,0-2.799-0.5l-2-1c-0.5-0.5-1-1-1.701-1.2
		c-0.6-0.4-1.399-0.6-2.299-0.6c-0.9,0-1.701,0.7-2.701,2c-1,1.2-1.699,2.7-2.5,4.3v33L219,68z M242.399,7.7
		c0-2,0.801-3.5,2.201-4.8c1.5-1.5,3.199-2,5.299-2c2,0,3.701,0.5,5.201,2c1.399,1.2,2,2.8,2,4.7c0,1.8-0.601,3.4-2,4.7
		c-1.5,1.3-3.301,2-5.301,2c-2.199,0-4-0.7-5.4-2C243,11,242.2,9.3,242.2,7.6L242.399,7.7z M243.101,24.7l13.799-4V68H243V24.5
		L243.101,24.7z M294.399,36.6c0-2.4-0.5-4.2-1.399-5.4c-1-1.2-2-1.8-3.2-1.8c-1.199,0-2.699,0.4-4.5,1.3c-1.8,1-3.5,2.2-5,3.7V68
		h-14V22h14v3.6c2-1.6,4.2-2.7,6.7-3.5c2.399-0.7,4.8-1,7.3-1c1.801,0,3.6,0.3,5.301,1c1.699,0.8,3.199,1.8,4.399,3
		c1.3,1.3,2.3,2.7,3,4.4c0.8,1.8,1.2,3.6,1.2,5.5v33h-13.801V36.5V36.6z M353.2,68h-14v-4l-2.2,2c-0.7,0.5-1.5,1-2.4,1.4l-3,1
		c-1,0.2-2.5,0.301-4,0.301c-2,0-4-0.301-5.8-1c-1.7-0.5-3-1.301-4.3-2.4c-1-1-2-2.301-2.7-3.7c-0.6-1.5-1-3-1-4.7
		c0-2.699,0.8-5,2.2-7c1.5-1.8,3.4-3.4,5.7-4.7c2.3-1.4,4.8-2.6,7.6-3.6l8.4-2.8l1.6-0.4V34c0-3-0.6-5-1.7-6.2
		c-1-1.2-2.6-1.8-4.5-1.8c-2,0-3.6,0.6-4.399,1.6s-1.2,2.3-1.2,3.8c0,1,0,1.8-0.3,2.6c0,0.8-0.4,1.5-1,2c-0.4,0.7-1,1.2-1.8,1.5
		c-1,0.4-2,0.6-3.2,0.6c-2,0-3.5-0.5-4.7-1.6c-1.2-1-1.8-2.5-1.8-4.2c0-1.5,0.5-3,1.6-4.4c1.2-1.3,2.601-2.5,4.4-3.5
		c2-1,4-1.8,6.399-2.3c2.4-0.6,5-0.8,7.601-0.8c6.6,0,11.399,1,14.3,3.3c3,2.3,4.5,5.3,4.5,9V68H353.2z M339.2,44.2l-4,2
		c-1.3,0.8-2.5,1.6-3.601,2.5c-1,1-2,1.8-2.699,2.8c-0.801,1-1.2,2-1.2,3.201c0,1.699,0.399,3.299,1.3,4.5c1,1.299,2,2,3,2
		c1.2,0,2.3-0.4,3.5-1l3.8-2.701V44.2H339.2z"/>
</g>
<g>
	<path fill="#FFFFFF" d="M0,102.201V88.5h9V90H1.8V94.6H8V96H1.6v6.201H0z M11.8,102.201V88.5h1.7v12.201h7.7v1.5H11.8z M33,100.701
		v1.5h-9.5V88.5h9.2V90h-7.4v4.5h6.4V96h-6.4v4.701H33z M36,88.5l4.3,5.701l4-5.701h2l-5,7l5,6.701h-2l-4-5.5l-4,5.5h-2l5-6.701
		l-5.2-7h2H36z M48.5,102.201V88.5h1.8v13.701H48.5z M64.6,98.701c0,0.5,0,1-0.3,1.399c-0.2,0.601-0.5,1-1,1.3
		c-0.3,0.301-0.7,0.5-1.2,0.7c-0.4,0.2-1,0.2-1.4,0.2H54V88.5h7c0.4,0,0.8,0,1.2,0.301l1,0.8l0.6,1L64,92c0,0.701-0.2,1.301-0.5,2
		c-0.3,0.5-0.8,1-1.5,1.201c0.8,0.199,1.4,0.699,2,1.299C64.4,97.1,64.6,97.8,64.6,98.701z M55.8,90V94.6h4.4c0.3,0,0.6,0,0.8-0.2
		c0.3,0,0.5-0.3,0.7-0.5l0.4-0.8c0.2-0.3,0.3-0.601,0.3-1c0-0.2,0-0.5-0.2-0.8c0-0.301,0-0.5-0.3-0.7l-0.6-0.5l-0.7-0.2h-4.5
		L55.8,90z M62.8,98.4v-1l-0.6-0.699l-0.6-0.5L60.6,96H56v4.701h4.8c0.3,0,0.6,0,1-0.201l0.6-0.5l0.5-0.699v-1L62.8,98.4z
		 M67.5,102.201V88.5h1.8v12.201H77v1.5H67.5z M88.6,100.701v1.5h-9.3V88.5h9V90H81v4.5h6.5V96H81v4.701H88.6z M113,102.201V88.5
		h5.7c0.6,0,1.2,0,1.7,0.4c0.5,0,1,0.5,1.3,1l1,1.301l0.2,1.6c0,0.5-0.2,1-0.4,1.5c-0.2,0.6-0.5,1-0.8,1.4l-1.3,1
		c-0.5,0.199-1,0.299-1.7,0.299h-4v5H113V102.201z M114.7,95.8h4c0.4,0,0.7,0,1-0.301c0.3,0,0.6-0.299,0.8-0.6l0.4-1v-1v-1.199
		l-0.6-1l-0.8-0.5c-0.3-0.201-0.6-0.301-1-0.301h-4v5.801L114.7,95.8z M131,102.3c-1,0-1.8-0.2-2.5-0.6c-0.8-0.4-1.5-1-2-1.5
		c-0.7-0.701-1-1.4-1.4-2.301c-0.2-1-0.4-1.8-0.4-2.6c0-1,0.2-1.801,0.5-2.7l1.5-2.2c0.6-0.6,1.3-1,2-1.5c0.8-0.4,1.7-0.6,2.6-0.6
		c1,0,2,0.199,2.8,0.6c0.8,0.4,1.4,1,2,1.6c0.6,0.701,1,1.4,1.3,2.201c0.4,1,0.6,1.699,0.6,2.6c0,1-0.2,1.8-0.5,2.6
		c-0.2,1-0.7,1.6-1.3,2.2c-0.5,0.7-1.2,1.2-2,1.601c-0.8,0.299-1.7,0.5-2.6,0.5L131,102.3z M126.4,95.3c0,0.8,0,1.4,0.3,2
		c0.3,0.699,0.6,1.3,1,1.8c0.4,0.601,1,1,1.5,1.3c0.6,0.301,1.2,0.5,2,0.5c0.7,0,1.3-0.199,2-0.5c0.5-0.3,1-0.699,1.4-1.199l1-1.701
		l0.2-2c0-0.6,0-1.299-0.3-2c-0.2-0.6-0.6-1.199-1-1.699s-1-1-1.5-1.2s-1.2-0.399-2-0.399c-0.6,0-1.3,0-2,0.5
		c-0.4,0.299-1,0.699-1.3,1.199c-0.3,0.5-0.8,1-1,1.7c-0.2,0.601-0.3,1.3-0.3,2V95.3z M145,88.6h1.6l1.8,4.8l2-4.8h1.5l-2.4,6
		l2.3,5.601l4.6-11.701h2l-6,13.701H151l-2.7-6.4l-2.8,6.4H144L138.3,88.5h2l4.5,11.701l2.4-5.601l-2.4-6H145z M170,100.701v1.5
		h-9.3V88.5h9.2V90h-7.5v4.5h6.4V96h-6.5v4.701h7.6H170z M173,102.201V88.5h5.8c0.6,0,1.2,0,1.7,0.4c0.5,0,1,0.5,1.3,1l0.801,1.301
		c0,0,0.399,1,0.399,1.6c0,0.4,0,0.8-0.2,1.3l-0.6,1.2l-1,1l-1,0.5l3.199,5.199h-2l-3-5H174.7v5H173V102.201z M174.7,95.8h4
		c0.5,0,0.8,0,1-0.301c0.4,0,0.6-0.299,0.8-0.6l0.5-1l0.2-1c0-0.5,0-1-0.2-1.199c0-0.301-0.3-0.601-0.5-1l-0.8-0.5
		c-0.301-0.201-0.7-0.301-1-0.301h-4v5.801V95.8z M186,102.201V88.5h9.2V90H188V94.6h6V96h-6v6.201H186z M203.5,100.8
		c0.8,0,1.5-0.2,2-0.5c0.5-0.301,1-0.7,1.3-1.2c0.301-0.399,0.5-1,0.6-1.601l0.201-2v-7h1.799v7c0,1,0,2-0.299,2.701
		c-0.301,0.699-0.5,1.6-1,2.299c-0.4,0.601-1,1-1.801,1.5c-0.699,0.301-1.6,0.5-2.699,0.5c-1,0-2-0.199-2.701-0.5
		c-0.699-0.299-1.399-1-1.799-1.6c-0.4-0.6-0.801-1.4-1-2.199C197.899,97.4,197.8,96.5,197.8,95.6v-7h1.7v7c0,0.7,0,1.399,0.2,2
		l0.699,1.7c0.301,0.6,0.701,1,1.301,1.3s1,0.5,2,0.5L203.5,100.8z M213,102.201V88.5h1.7v12.201h7.699v1.5H213z M256.2,98.701
		c0,0.5,0,1-0.301,1.399c-0.299,0.399-0.6,1-1,1.3c-0.299,0.301-0.799,0.5-1.299,0.7c-0.4,0.2-1,0.2-1.5,0.2h-6.5V88.5h6.799
		c0.5,0,1,0,1.301,0.301l1,0.8c0.3,0.3,0.5,0.7,0.6,1c0.2,0.601,0.2,1,0.2,1.399c0,0.701,0,1.301-0.5,2c-0.2,0.5-0.7,1-1.3,1.201
		c0.699,0.199,1.4,0.699,1.8,1.299C256,97.1,256.2,97.8,256.2,98.701z M247.399,90V94.6h4.4c0.301,0,0.6,0,0.801-0.2
		c0.299,0,0.5-0.3,0.699-0.5l0.4-0.8c0.199-0.3,0.199-0.601,0.199-1c0-0.2,0-0.5-0.199-0.8c0-0.301-0.301-0.5-0.5-0.7
		c0-0.2-0.301-0.399-0.6-0.5l-0.801-0.2h-4.6L247.399,90z M254.399,98.4v-1l-0.6-0.699c0-0.201-0.4-0.4-0.6-0.5l-1-0.201h-4.801
		v4.701h4.801c0.3,0,0.6,0,1-0.201c0.199,0,0.4-0.299,0.6-0.5l0.5-0.699l0.2-1L254.399,98.4z M268.5,100.701v1.5H259V88.5h9.3V90
		H261v4.5h6.3V96H261v4.701H268.5z M275.5,88.5h1.5l5.601,13.701h-2l-1.5-4h-5.701l-1.6,4H270L275.5,88.5z M278.7,96.9l-2.5-6.5
		l-2.5,6.4h5V96.9z M290,100.8c0.8,0,1.5-0.2,2-0.5c0.5-0.301,1-0.7,1.3-1.2c0.301-0.399,0.5-1,0.6-1.601v-9h2v7
		c0,1-0.299,2-0.5,2.701c-0.199,0.699-0.5,1.6-1,2.299c-0.399,0.601-1,1-1.799,1.5c-0.701,0.301-1.601,0.5-2.701,0.5
		c-1,0-2-0.199-2.799-0.5c-0.801-0.299-1.301-1-1.801-1.6s-0.8-1.4-1-2.199C284.101,97.4,284,96.5,284,95.6v-7h2v9
		c0.2,0.7,0.5,1.2,0.8,1.7c0.301,0.6,0.7,1,1.2,1.3s1.2,0.5,2,0.5V100.8z M309.3,90h-4.699v12.201H303V90h-5v-1.5h11.3V90z
		 M311.8,102.201V88.5h1.7v13.701H311.8z M317.3,102.201V88.5h9V90H319V94.6h6.2V96H319v6.201H317.3z M334.7,100.8
		c0.8,0,1.5-0.2,2-0.5c0.5-0.301,1-0.7,1.3-1.2c0.3-0.399,0.5-1,0.6-1.601l0.2-2v-7h1.8v7c0,1,0,2-0.3,2.701
		c-0.3,0.699-0.6,1.6-1,2.299c-0.5,0.601-1,1-2,1.5c-0.6,0.301-1.5,0.5-2.6,0.5c-1,0-2-0.199-2.7-0.5c-0.7-0.299-1.4-1-1.8-1.6
		c-0.4-0.6-0.8-1.4-1-2.199c-0.2-0.801-0.3-1.701-0.3-2.601v-7h1.6v7c0,0.7,0,1.399,0.2,2c0,0.7,0.399,1.2,0.7,1.7
		c0.3,0.6,0.699,1,1.199,1.3s1.2,0.5,2,0.5L334.7,100.8z M344.2,102.201V88.5h1.7v12.201h7.6v1.5h-9.4H344.2z M99.4,95
		c0,0.701-0.6,1.301-1.3,1.301c-0.7,0-1.3-0.6-1.3-1.301c0-0.699,0.6-1.299,1.4-1.299c0.8,0,1.4,0.6,1.4,1.299H99.4z M233.8,95
		c0,0.701-0.6,1.301-1.3,1.301c-0.8,0-1.399-0.6-1.399-1.301c0-0.699,0.699-1.299,1.5-1.299c0.699,0,1.299,0.6,1.299,1.299H233.8z"
		/>
</g>
</svg>
