<?xml version="1.0" encoding="utf-8"?>
<!-- Generator: Adobe Illustrator 16.0.0, SVG Export Plug-In . SVG Version: 6.00 Build 0)  -->
<!DOCTYPE svg PUBLIC "-//W3C//DTD SVG 1.1//EN" "http://www.w3.org/Graphics/SVG/1.1/DTD/svg11.dtd">
<svg version="1.1" id="Layer_1" xmlns="http://www.w3.org/2000/svg" xmlns:xlink="http://www.w3.org/1999/xlink" x="0px" y="0px"
	 width="614.285px" height="287.741px" viewBox="0 0 614.285 287.741" enable-background="new 0 0 614.285 287.741"
	 xml:space="preserve">
<g>
	<path d="M76.385,99.725v90.721H57.973v-37.621H24.22v37.624H5.808V99.725H24.22v37.088h33.753V99.725H76.385z"/>
	<path d="M90.124,170.166c0-6.936,1.845-11.94,5.536-15.007c3.69-3.07,9.625-4.869,17.811-5.404l14.275-1.067v-4.135
		c0-2.669-0.599-4.537-1.803-5.604c-1.202-1.066-3.224-1.604-6.071-1.604c-2.936,0-6.982,0.113-12.14,0.337
		c-5.159,0.223-9.472,0.468-12.943,0.733l-0.534-12.406c9.607-2.581,18.678-3.87,27.217-3.87c8.537,0,14.698,1.779,18.478,5.335
		c3.78,3.561,5.669,9.252,5.669,17.078v27.749c0.179,2.224,0.556,3.732,1.135,4.538c0.576,0.799,1.667,1.377,3.27,1.731
		l-0.534,13.475c-4.627,0-8.295-0.313-11.006-0.935c-2.715-0.624-5.404-1.869-8.073-3.734c-6.495,3.11-13.032,4.669-19.612,4.669
		C97.016,192.046,90.124,184.754,90.124,170.166z M125.744,175.905l2.001-0.534v-14.274l-12.141,1.067
		c-4.982,0.445-7.471,3.114-7.471,8.003c0,4.894,2.179,7.338,6.536,7.338C118.051,177.504,121.743,176.968,125.744,175.905z"/>
	<path d="M165.967,183.71c-4.316-5.559-6.471-14.43-6.471-26.617c0-12.362,2.224-21.28,6.672-26.748
		c4.448-5.471,11.695-8.205,21.748-8.205c2.578,0,5.422,0.223,8.537,0.665c3.114,0.446,7.292,1.203,12.542,2.27l-0.535,14.143
		c-7.561-0.711-12.809-1.066-15.742-1.066c-4.092,0-7.206,0.555-9.339,1.666c-2.133,1.113-3.625,3.002-4.469,5.67
		c-0.846,2.669-1.267,6.494-1.267,11.475c0,5.068,0.42,8.938,1.267,11.604c0.845,2.67,2.354,4.582,4.534,5.736
		c2.18,1.16,5.358,1.735,9.541,1.735l15.477-1.065l0.535,14.275c-9.428,1.867-16.812,2.803-22.146,2.803
		C177.239,192.046,170.279,189.268,165.967,183.71z"/>
	<path d="M222.202,97.056h17.879v53.099l6.803-1.201l13.209-25.215h20.012l-17.344,31.618l18.278,35.086h-20.146l-13.474-26.014
		l-7.339,1.202v24.812h-17.879V97.056L222.202,97.056z"/>
	<path d="M286.507,170.166c0-6.936,1.845-11.94,5.535-15.007c3.69-3.07,9.626-4.869,17.812-5.404l14.274-1.067v-4.135
		c0-2.669-0.597-4.537-1.798-5.604c-1.203-1.066-3.227-1.604-6.071-1.604c-2.936,0-6.98,0.113-12.142,0.337
		c-5.158,0.223-9.471,0.468-12.938,0.733l-0.536-12.406c9.605-2.581,18.68-3.87,27.217-3.87c8.538,0,14.698,1.779,18.479,5.335
		c3.779,3.561,5.67,9.252,5.67,17.078v27.749c0.179,2.224,0.554,3.732,1.131,4.538c0.582,0.799,1.67,1.377,3.273,1.731
		l-0.535,13.475c-4.625,0-8.295-0.313-11.007-0.935c-2.714-0.624-5.403-1.869-8.068-3.734c-6.496,3.11-13.033,4.669-19.616,4.669
		C293.398,192.046,286.507,184.754,286.507,170.166z M322.128,175.905l2-0.534v-14.274l-12.139,1.067
		c-4.98,0.445-7.472,3.114-7.472,8.003c0,4.894,2.178,7.338,6.537,7.338C314.435,177.504,318.128,176.968,322.128,175.905z"/>
	<path d="M369.756,189.646c-2.847-1.602-4.89-4.225-6.136-7.872c-1.249-3.645-1.87-8.672-1.87-15.073v-27.751h-7.869v-15.21h7.869
		v-18.544h17.875v18.544h16.411v15.21h-16.408v27.35c0,3.469,0.31,5.98,0.936,7.538c0.618,1.558,2.178,2.291,4.665,2.2l10.142-0.268
		l0.8,14.277c-3.559,0.8-6.338,1.333-8.337,1.598c-2.001,0.268-4.026,0.401-6.072,0.401
		C376.603,192.046,372.599,191.248,369.756,189.646z"/>
	<path d="M407.644,97.056h17.876v29.886c3.382-1.69,6.383-2.91,9.008-3.668c2.622-0.757,5.446-1.134,8.472-1.134
		c8.181,0,13.985,2.602,17.41,7.804c3.421,5.203,5.133,13.318,5.133,24.349v36.15h-17.875v-35.75c0-6.045-0.714-10.318-2.136-12.807
		c-1.42-2.491-4.182-3.735-8.269-3.735c-3.204,0-6.538,0.533-10.008,1.601l-1.735,0.535v50.162h-17.876V97.056z"/>
	<path d="M485.758,182.908c-5.205-6.092-7.807-14.741-7.807-25.947c0-11.116,2.602-19.702,7.807-25.749s12.828-9.072,22.881-9.072
		c10.048,0,17.679,3.025,22.877,9.072c5.205,6.049,7.809,14.633,7.809,25.749c0,11.206-2.604,19.858-7.809,25.947
		c-5.198,6.093-12.829,9.142-22.877,9.142C498.586,192.046,490.963,189.001,485.758,182.908z M518.111,172.171
		c2.044-3.115,3.066-8.187,3.066-15.21c0-7.028-1.022-12.055-3.066-15.077c-2.049-3.022-5.202-4.538-9.473-4.538
		c-4.27,0-7.428,1.516-9.474,4.538s-3.069,8.052-3.069,15.077c0,7.023,1.023,12.095,3.069,15.21
		c2.046,3.113,5.204,4.669,9.474,4.669C512.909,176.84,516.062,175.284,518.111,172.171z"/>
	<path d="M552.398,123.74h17.742v3.735c3.379-1.954,6.382-3.335,9.004-4.136s5.446-1.199,8.471-1.199
		c8.186,0,14.01,2.623,17.479,7.869c3.469,5.25,5.202,13.342,5.202,24.283v36.153h-17.876v-35.621c0-6.137-0.733-10.45-2.201-12.94
		c-1.468-2.489-4.248-3.733-8.337-3.733c-2.932,0-6.272,0.623-10.007,1.868l-1.603,0.532v49.897h-17.875V123.74L552.398,123.74z"/>
</g>
<g>
	<path d="M312.576,243.805c-1.896-1.314-3.205-3.228-3.92-5.74c-0.718-2.515-1.072-5.833-1.072-9.959
		c0-4.258,0.363-7.653,1.099-10.183c0.73-2.527,2.023-4.428,3.871-5.691c1.844-1.265,4.464-1.896,7.859-1.896
		c2.762,0,5.957,0.398,9.585,1.198l-0.149,3.941c-3.163-0.562-5.99-0.847-8.487-0.847c-2.496,0-4.375,0.439-5.641,1.322
		c-1.263,0.885-2.114,2.306-2.544,4.267c-0.438,1.963-0.636,4.81-0.601,8.537c0,3.227,0.205,5.716,0.623,7.463
		c0.415,1.746,1.265,3.06,2.545,3.939c1.284,0.885,3.238,1.323,5.867,1.323c2.193,0,4.941-0.279,8.237-0.846l0.149,4.044
		c-3.663,0.73-6.738,1.094-9.237,1.094C317.203,245.772,314.471,245.12,312.576,243.805z"/>
	<path d="M336.385,242.656c-1.697-2.082-2.545-5.348-2.545-9.812c0-4.556,0.867-7.884,2.597-9.979
		c1.728-2.1,4.509-3.146,8.335-3.146c3.858,0,6.647,1.056,8.362,3.168c1.716,2.111,2.57,5.435,2.57,9.956
		c0,4.427-0.847,7.688-2.546,9.787c-1.699,2.094-4.494,3.141-8.387,3.141S338.084,244.737,336.385,242.656z M348.493,240.882
		c0.88-0.564,1.505-1.478,1.868-2.745c0.368-1.262,0.551-3.027,0.551-5.29c0-2.361-0.191-4.192-0.576-5.49
		c-0.382-1.295-1.015-2.22-1.896-2.77c-0.883-0.548-2.104-0.823-3.669-0.823c-1.563,0-2.795,0.275-3.691,0.823
		c-0.9,0.55-1.54,1.48-1.925,2.794c-0.383,1.317-0.573,3.139-0.573,5.466c0,2.233,0.185,3.987,0.548,5.266
		c0.367,1.283,0.999,2.205,1.896,2.772c0.901,0.563,2.147,0.847,3.746,0.847C346.371,241.732,347.61,241.448,348.493,240.882z"/>
	<path d="M361.692,209.688h4.642v35.536h-4.642V209.688z"/>
	<path d="M374.619,242.656c-1.696-2.082-2.547-5.348-2.547-9.812c0-4.556,0.865-7.884,2.595-9.979c1.73-2.1,4.51-3.146,8.337-3.146
		c3.859,0,6.646,1.056,8.364,3.168c1.711,2.111,2.565,5.435,2.565,9.956c0,4.427-0.848,7.688-2.545,9.787
		c-1.697,2.094-4.495,3.141-8.385,3.141C379.112,245.772,376.313,244.737,374.619,242.656z M386.722,240.882
		c0.881-0.564,1.505-1.478,1.871-2.745c0.37-1.262,0.552-3.027,0.552-5.29c0-2.361-0.193-4.192-0.575-5.49
		c-0.385-1.295-1.015-2.22-1.897-2.77c-0.883-0.548-2.105-0.823-3.669-0.823c-1.566,0-2.795,0.275-3.692,0.823
		c-0.901,0.55-1.539,1.48-1.921,2.794c-0.386,1.317-0.575,3.139-0.575,5.466c0,2.233,0.184,3.987,0.546,5.266
		c0.366,1.283,0.999,2.205,1.898,2.772c0.898,0.563,2.146,0.847,3.744,0.847C384.599,241.732,385.84,241.448,386.722,240.882z"/>
	<path d="M399.621,220.271h4.596v1.644c1.266-0.729,2.462-1.279,3.592-1.644c1.137-0.368,2.297-0.551,3.496-0.551
		c1.298,0,2.496,0.209,3.591,0.624c1.101,0.418,1.963,1.041,2.595,1.87c1.334-0.73,2.792-1.329,4.374-1.798
		c1.577-0.465,3.183-0.696,4.813-0.696c2.063,0,3.678,0.414,4.844,1.247c1.16,0.833,1.996,2.127,2.497,3.893
		c0.498,1.764,0.746,4.126,0.746,7.084v13.28h-4.643v-13.18c0-2.095-0.125-3.717-0.376-4.867c-0.247-1.146-0.697-1.977-1.345-2.493
		c-0.647-0.518-1.607-0.774-2.872-0.774c-0.931,0-1.894,0.107-2.893,0.323c-1,0.219-1.883,0.491-2.646,0.825l-0.897,0.398
		c0.361,1.43,0.542,3.692,0.542,6.787v12.978h-4.688v-12.879c0-2.228-0.119-3.932-0.349-5.113c-0.236-1.184-0.674-2.028-1.321-2.545
		c-0.65-0.518-1.605-0.774-2.87-0.774c-0.933,0-1.891,0.117-2.866,0.35c-0.99,0.23-1.811,0.496-2.476,0.796l-0.799,0.401v19.762
		h-4.645V220.271L399.621,220.271z"/>
	<path d="M442.948,245.326l-1.545-0.15v-35.488h4.642v11.68c1.264-0.567,2.437-0.98,3.517-1.25c1.082-0.266,2.255-0.397,3.525-0.397
		c2.192,0,3.949,0.432,5.262,1.295c1.312,0.868,2.278,2.24,2.896,4.122c0.615,1.879,0.922,4.383,0.922,7.511
		c0,3.358-0.375,5.983-1.121,7.86c-0.748,1.882-1.979,3.221-3.692,4.021c-1.715,0.798-4.104,1.195-7.164,1.195
		C447.927,245.724,445.513,245.591,442.948,245.326z M454.7,240.707c1.021-0.58,1.726-1.516,2.127-2.792
		c0.396-1.283,0.598-3.058,0.598-5.317c0-2.195-0.177-3.917-0.525-5.167c-0.349-1.251-0.913-2.144-1.694-2.695
		c-0.785-0.55-1.855-0.822-3.225-0.822c-1.664,0-3.643,0.397-5.936,1.198v16.221c2.16,0.165,3.594,0.25,4.292,0.25
		C452.234,241.582,453.689,241.291,454.7,240.707z"/>
	<path d="M469.351,242.656c-1.696-2.082-2.544-5.348-2.544-9.812c0-4.556,0.868-7.884,2.596-9.979
		c1.732-2.1,4.509-3.146,8.336-3.146c3.86,0,6.648,1.056,8.361,3.168c1.712,2.111,2.571,5.435,2.571,9.956
		c0,4.427-0.851,7.688-2.544,9.787c-1.701,2.094-4.493,3.141-8.389,3.141C473.847,245.772,471.05,244.737,469.351,242.656z
		 M481.46,240.882c0.88-0.564,1.503-1.478,1.873-2.745c0.363-1.262,0.548-3.027,0.548-5.29c0-2.361-0.193-4.192-0.575-5.49
		c-0.382-1.295-1.018-2.22-1.9-2.77c-0.88-0.548-2.1-0.823-3.666-0.823c-1.562,0-2.798,0.275-3.692,0.823
		c-0.897,0.55-1.536,1.48-1.924,2.794c-0.382,1.317-0.575,3.139-0.575,5.466c0,2.233,0.185,3.987,0.554,5.266
		c0.362,1.283,0.994,2.205,1.896,2.772c0.897,0.563,2.142,0.847,3.739,0.847C479.335,241.732,480.576,241.448,481.46,240.882z"/>
	<path d="M505.141,239.388l7.037-7.139c1.828-1.898,3.194-3.379,4.092-4.442c0.904-1.064,1.558-2.047,1.976-2.947
		c0.414-0.898,0.623-1.864,0.623-2.895c0-1.497-0.391-2.572-1.173-3.218c-0.781-0.65-1.956-0.977-3.52-0.977
		c-2.198,0-4.626,0.2-7.29,0.599l-1.195,0.149l-0.353-5.341c3.264-0.996,6.64-1.496,10.133-1.496c6.988,0,10.481,3.147,10.481,9.435
		c0,1.664-0.221,3.138-0.675,4.419c-0.443,1.276-1.195,2.579-2.245,3.89c-1.044,1.318-2.535,2.854-4.463,4.619l-5.744,5.191h13.682
		v5.988h-21.363v-5.836H505.141z"/>
	<path d="M534.191,241.656c-2.097-2.709-3.145-7.046-3.145-13.002c0-5.957,1.048-10.291,3.145-13.003
		c2.097-2.711,5.31-4.068,9.635-4.068c4.327,0,7.54,1.357,9.631,4.068c2.094,2.712,3.146,7.046,3.146,13.003
		c0,5.956-1.053,10.29-3.146,13.002c-2.091,2.712-5.304,4.067-9.631,4.067C539.501,245.724,536.288,244.368,534.191,241.656z
		 M547.119,238.662c0.829-0.716,1.438-1.879,1.822-3.495c0.385-1.614,0.576-3.784,0.576-6.513c0-2.731-0.191-4.9-0.576-6.515
		c-0.385-1.612-0.993-2.778-1.822-3.491c-0.833-0.718-1.93-1.076-3.293-1.076c-1.367,0-2.464,0.358-3.293,1.076
		c-0.833,0.713-1.444,1.879-1.823,3.491c-0.385,1.614-0.575,3.786-0.575,6.515s0.19,4.898,0.575,6.513
		c0.379,1.616,0.99,2.779,1.823,3.495c0.829,0.715,1.926,1.071,3.293,1.071C545.189,239.734,546.286,239.38,547.119,238.662z"/>
	<path d="M571.777,220.068l-7.138,4.593l-3.146-5.14l10.884-7.239h6.29v32.942h-6.888v-25.156H571.777z"/>
	<path d="M592.14,244.025l11.233-24.006v-1.601h-14.177v-6.135h21.063v7.784l-11.729,25.759L592.14,244.025z"/>
</g>
<g>
	<path d="M5.862,48.961h13.652c1.891,0,3.575,0.212,5.096,0.528c1.576,0.42,2.835,1.049,3.938,1.678
		c1.047,0.735,1.891,1.577,2.467,2.627c0.631,0.945,0.947,2.1,0.947,3.254c0,1.577-0.369,2.836-1.052,3.888
		c-0.736,1.155-1.994,2.205-3.834,3.255c1.891,0.631,3.412,1.576,4.622,2.942c1.209,1.363,1.787,2.938,1.787,4.725
		c0,1.313-0.262,2.469-0.839,3.518c-0.529,1.05-1.369,2.103-2.416,2.835c-1.054,0.787-2.314,1.419-3.78,1.839
		c-1.472,0.526-3.155,0.736-4.938,0.736H5.808V48.91L5.862,48.961z M13.741,62.72h5.146c1.573,0,2.942-0.524,3.833-1.468
		c0.891-0.947,1.362-2.205,1.362-3.678c0-1.68-0.522-3.044-1.782-4.094c-1.209-1.053-3.151-1.578-5.672-1.578h-2.941V62.67
		L13.741,62.72z M13.741,77.532h4.198c2.628,0,4.463-0.525,5.67-1.575c1.158-1.053,1.734-2.315,1.734-3.89
		c0-0.893-0.105-1.68-0.367-2.467c-0.26-0.789-0.679-1.418-1.258-1.998c-0.631-0.524-1.367-1.048-2.363-1.311
		c-0.95-0.316-2.101-0.528-3.522-0.528h-4.041v11.769H13.741z M56.96,80.839h-7.248V78.74l-1.153,1.049l-1.315,0.735l-1.575,0.526
		c-0.63,0.103-1.314,0.156-2.1,0.156c-1.154,0-2.101-0.156-3.047-0.526c-0.894-0.262-1.575-0.682-2.256-1.261
		c-0.63-0.525-1.052-1.208-1.42-1.942c-0.314-0.788-0.525-1.577-0.525-2.468c0-1.418,0.421-2.627,1.155-3.679
		c0.74-0.944,1.734-1.783,2.893-2.466c1.208-0.736,2.625-1.366,4.042-1.893c1.472-0.522,2.942-1.048,4.412-1.47l0.84-0.21v-2.312
		c0-1.572-0.316-2.627-0.89-3.256c-0.531-0.627-1.369-0.942-2.367-0.942c-1.156,0-1.941,0.315-2.363,0.838
		c-0.419,0.526-0.631,1.21-0.631,1.996c0,0.527,0,0.946-0.155,1.365c-0.104,0.42-0.264,0.788-0.529,1.052
		c-0.259,0.367-0.628,0.631-1.046,0.787c-0.422,0.209-0.944,0.316-1.578,0.316c-1.049,0-1.886-0.262-2.52-0.84
		c-0.629-0.527-0.943-1.315-0.943-2.207c0-0.789,0.262-1.577,0.838-2.311c0.525-0.682,1.312-1.312,2.259-1.836
		c1.053-0.529,2.1-0.946,3.361-1.208c1.26-0.316,2.626-0.422,3.992-0.422c3.464,0,5.932,0.524,7.51,1.733
		c1.575,1.208,2.311,2.785,2.311,4.726v18.068H56.96z M49.713,68.233l-2.101,1.054c-0.736,0.419-1.418,0.837-1.998,1.312
		c-0.523,0.523-1.046,0.945-1.417,1.472c-0.365,0.524-0.525,1.049-0.525,1.678c0,0.895,0.21,1.734,0.682,2.363
		c0.421,0.684,0.947,1.052,1.577,1.052c0.525,0,1.155-0.21,1.783-0.526l1.997-1.416v-6.881v-0.108H49.713z M69.669,80.839h-7.194
		V47.072l7.194-1.943V80.839z M81.798,80.839h-7.195V47.072l7.195-1.943V80.839z M97.713,81.364c-1.732,0-3.309-0.366-4.831-1.048
		c-1.471-0.526-2.783-1.418-3.888-2.521c-1.154-1.051-1.991-2.311-2.626-3.677c-0.681-1.472-1.05-2.995-1.05-4.57
		c0-1.891,0.369-3.675,0.948-5.251c0.631-1.577,1.469-3.045,2.52-4.2c1.051-1.209,2.416-2.102,3.938-2.785
		c1.577-0.682,3.258-1.049,5.149-1.049c1.678,0,3.15,0.313,4.619,0.838c1.367,0.527,2.627,1.263,3.571,2.101
		c0.949,0.838,1.734,2.101,2.311,3.308c0.522,1.312,0.791,2.625,0.791,4.096H92.567c0,1.314,0.208,2.627,0.525,3.782
		c0.368,1.208,0.838,2.258,1.363,3.149c0.527,0.948,1.261,1.682,1.998,2.26c0.839,0.524,1.68,0.787,2.625,0.787
		c0.787,0,1.576-0.104,2.364-0.366c0.787-0.261,1.469-0.631,2.102-1.05c0.625-0.525,1.208-1.053,1.731-1.735
		c0.524-0.629,0.788-1.313,1.05-2.102l3.677,0.632c-0.316,1.261-0.894,2.468-1.731,3.676c-0.841,1.05-1.785,2.1-2.891,2.94
		c-1.048,0.841-2.361,1.577-3.675,2.102c-1.309,0.419-2.626,0.681-3.885,0.681h-0.105V81.364z M100.862,64.034
		c-0.209-1.418-0.681-2.625-1.469-3.413c-0.79-0.896-1.785-1.315-2.94-1.315c-0.894,0-1.732,0.419-2.523,1.261
		c-0.737,0.895-1.207,2.102-1.363,3.52h8.241L100.862,64.034z M120.504,80.839h-7.248V56.681h7.248v1.786
		c0.79-0.838,1.682-1.471,2.627-1.995c1.049-0.525,2.102-0.735,3.152-0.735c0.523,0,1.209,0,1.784,0.263
		c0.525,0.103,1.052,0.315,1.572,0.631c0.372,0.316,0.686,0.629,0.948,1.049c0.211,0.37,0.369,0.788,0.369,1.262
		c0,0.839-0.369,1.574-1.05,2.101c-0.527,0.524-1.257,0.788-2.102,0.788c-0.63,0-1.049,0-1.47-0.262l-1.051-0.525
		c-0.26-0.263-0.523-0.526-0.894-0.632c-0.314-0.208-0.736-0.312-1.209-0.312c-0.472,0-0.888,0.366-1.416,1.049
		c-0.524,0.632-0.892,1.417-1.315,2.257v17.331L120.504,80.839z M132.792,49.174c0-1.053,0.42-1.837,1.158-2.522
		c0.785-0.787,1.68-1.05,2.781-1.05c1.054,0,1.945,0.263,2.732,1.05c0.736,0.632,1.05,1.469,1.05,2.468
		c0,0.945-0.314,1.786-1.05,2.469c-0.787,0.682-1.733,1.051-2.783,1.051c-1.156,0-2.1-0.369-2.836-1.051
		c-0.734-0.681-1.156-1.575-1.156-2.469L132.792,49.174z M133.16,58.101L140.407,56v24.839h-7.296V57.995L133.16,58.101z
		 M160.101,64.35c0-1.262-0.262-2.207-0.735-2.836c-0.526-0.629-1.054-0.946-1.68-0.946c-0.629,0-1.417,0.211-2.361,0.683
		c-0.945,0.525-1.842,1.157-2.626,1.941v17.647h-7.354V56.681h7.354v1.892c1.048-0.842,2.204-1.419,3.517-1.837
		c1.263-0.369,2.524-0.527,3.835-0.527c0.945,0,1.889,0.158,2.782,0.527c0.895,0.418,1.683,0.943,2.31,1.576
		c0.687,0.682,1.21,1.415,1.577,2.31c0.418,0.946,0.63,1.889,0.63,2.887v17.331h-7.249V64.297V64.35z M190.978,80.839h-7.345V78.74
		l-1.159,1.049c-0.367,0.262-0.788,0.526-1.26,0.735l-1.579,0.526c-0.524,0.103-1.312,0.156-2.096,0.156
		c-1.051,0-2.101-0.156-3.047-0.526c-0.89-0.262-1.577-0.682-2.259-1.261c-0.525-0.525-1.047-1.208-1.417-1.942
		c-0.314-0.788-0.526-1.577-0.526-2.468c0-1.418,0.423-2.627,1.159-3.679c0.786-0.944,1.78-1.783,2.994-2.466
		c1.207-0.736,2.52-1.366,3.99-1.893l4.411-1.47l0.84-0.21v-2.312c0-1.572-0.313-2.627-0.894-3.256
		c-0.528-0.627-1.365-0.942-2.363-0.942c-1.05,0-1.887,0.315-2.311,0.838c-0.417,0.526-0.626,1.21-0.626,1.996
		c0,0.527,0,0.946-0.161,1.365c0,0.42-0.211,0.788-0.523,1.052c-0.212,0.367-0.524,0.631-0.949,0.787
		c-0.523,0.209-1.048,0.316-1.677,0.316c-1.05,0-1.835-0.262-2.468-0.84c-0.628-0.527-0.945-1.315-0.945-2.207
		c0-0.789,0.263-1.577,0.838-2.311c0.631-0.682,1.363-1.312,2.312-1.836c1.045-0.529,2.101-0.946,3.362-1.208
		c1.261-0.316,2.625-0.422,3.989-0.422c3.467,0,5.989,0.524,7.511,1.733c1.574,1.208,2.367,2.785,2.367,4.726v18.068H190.978z
		 M183.633,68.341l-2.104,1.052c-0.683,0.417-1.313,0.838-1.894,1.312c-0.521,0.525-1.046,0.946-1.416,1.472
		c-0.418,0.526-0.629,1.05-0.629,1.679c0,0.895,0.211,1.733,0.684,2.364c0.526,0.684,1.048,1.051,1.573,1.051
		c0.63,0,1.21-0.208,1.839-0.524l1.994-1.419v-6.985h-0.047V68.341z"/>
</g>
<circle fill-rule="evenodd" clip-rule="evenodd" cx="244.509" cy="247.802" r="8.776"/>
<line stroke="#000000" stroke-width="4.3335" stroke-miterlimit="10" x1="244.509" y1="247.802" x2="279.901" y2="200.341"/>
<path fill-rule="evenodd" clip-rule="evenodd" d="M379.4,66.216c0,4.847-3.924,8.774-8.772,8.774c-4.848,0-8.778-3.927-8.778-8.774
	c0-4.847,3.931-8.777,8.778-8.777C375.476,57.439,379.4,61.369,379.4,66.216z"/>
<line stroke="#000000" stroke-width="4.3335" stroke-miterlimit="10" x1="334.735" y1="113.676" x2="370.129" y2="66.216"/>
<circle fill-rule="evenodd" clip-rule="evenodd" cx="494.763" cy="68.511" r="8.776"/>
<line stroke="#000000" stroke-width="4.3335" stroke-miterlimit="10" x1="370.628" y1="66.216" x2="494.761" y2="68.511"/>
<circle fill-rule="evenodd" clip-rule="evenodd" cx="550.615" cy="10.728" r="8.776"/>
<path fill-rule="evenodd" clip-rule="evenodd" d="M131.281,227.124c0,4.848-3.929,8.777-8.776,8.777s-8.775-3.93-8.775-8.777
	c0-4.845,3.929-8.772,8.775-8.772S131.281,222.28,131.281,227.124z"/>
<circle fill-rule="evenodd" clip-rule="evenodd" cx="60.627" cy="274.569" r="8.776"/>
<line stroke="#000000" stroke-width="4.3335" stroke-miterlimit="10" x1="59.934" y1="275.833" x2="121.234" y2="227.157"/>
<line stroke="#000000" stroke-width="4.753" stroke-miterlimit="10" x1="122.309" y1="227.126" x2="246.181" y2="248.346"/>
<line stroke="#000000" stroke-width="4.3335" stroke-miterlimit="10" x1="494.858" y1="69.187" x2="547.205" y2="12.766"/>
</svg>
