<?xml version="1.0" encoding="utf-8"?>
<!-- Generator: Adobe Illustrator 16.0.0, SVG Export Plug-In . SVG Version: 6.00 Build 0)  -->
<!DOCTYPE svg PUBLIC "-//W3C//DTD SVG 1.1//EN" "http://www.w3.org/Graphics/SVG/1.1/DTD/svg11.dtd">
<svg version="1.1" id="Layer_1" xmlns="http://www.w3.org/2000/svg" xmlns:xlink="http://www.w3.org/1999/xlink" x="0px" y="0px"
	 width="235.905px" height="46.12px" viewBox="0 0 235.905 46.12" enable-background="new 0 0 235.905 46.12" xml:space="preserve">
<g>
	<g>
		<g>
			<path fill="#010101" d="M0,4.898h17.434c2.332,0,4.469,0.243,6.414,0.729c1.943,0.486,3.615,1.186,5.014,2.099
				c1.398,0.914,2.486,2.002,3.266,3.265c0.777,1.264,1.166,2.673,1.166,4.227c0,1.944-0.447,3.596-1.342,4.957
				c-0.895,1.361-2.508,2.721-4.84,4.081c2.371,0.778,4.324,2.021,5.861,3.731c1.535,1.711,2.303,3.732,2.303,6.064
				c0,1.595-0.361,3.082-1.078,4.461c-0.721,1.379-1.75,2.585-3.092,3.615c-1.34,1.03-2.955,1.836-4.838,2.418
				c-1.887,0.584-3.977,0.875-6.27,0.875H0V4.898z M9.969,22.448h6.59c2.1,0,3.732-0.621,4.896-1.866
				c1.166-1.243,1.75-2.837,1.75-4.782c0-2.099-0.758-3.809-2.273-5.131c-1.518-1.321-3.928-1.982-7.23-1.982H9.969V22.448z
				 M9.969,41.281h5.482c3.227,0,5.598-0.659,7.113-1.981s2.273-2.975,2.273-4.957c0-1.127-0.174-2.176-0.523-3.148
				c-0.35-0.971-0.904-1.816-1.662-2.537c-0.758-0.719-1.76-1.281-3.002-1.689c-1.246-0.409-2.762-0.613-4.549-0.613H9.971v14.927
				H9.969z"/>
			<path fill="#010101" d="M65.127,45.42h-9.27v-2.449c-0.506,0.43-1.012,0.828-1.518,1.195c-0.504,0.371-1.049,0.691-1.631,0.963
				c-0.584,0.273-1.254,0.486-2.012,0.642c-0.758,0.154-1.662,0.233-2.713,0.233c-1.398,0-2.672-0.203-3.818-0.612
				c-1.146-0.407-2.109-0.962-2.887-1.661s-1.379-1.535-1.807-2.508c-0.428-0.971-0.641-2.021-0.641-3.148
				c0-1.748,0.486-3.254,1.457-4.518c0.971-1.263,2.225-2.352,3.76-3.266c1.535-0.913,3.246-1.701,5.133-2.361
				c1.885-0.66,3.76-1.283,5.627-1.865l1.049-0.234v-3.032c0-1.982-0.379-3.372-1.137-4.169c-0.758-0.796-1.76-1.195-3.004-1.195
				c-1.479,0-2.488,0.35-3.031,1.05c-0.545,0.699-0.816,1.555-0.816,2.565c0,0.583-0.059,1.147-0.176,1.691
				c-0.115,0.545-0.34,1.02-0.67,1.428c-0.33,0.408-0.768,0.73-1.311,0.963c-0.547,0.234-1.246,0.35-2.1,0.35
				c-1.283,0-2.332-0.369-3.148-1.107c-0.816-0.739-1.225-1.671-1.225-2.799c0-1.05,0.359-2.031,1.078-2.945
				c0.719-0.913,1.691-1.7,2.914-2.361c1.225-0.661,2.645-1.176,4.258-1.545c1.611-0.369,3.312-0.554,5.102-0.554
				c4.393,0,7.58,0.749,9.562,2.245c1.982,1.497,2.973,3.527,2.973,6.093V45.42L65.127,45.42z M55.857,29.62
				c-0.895,0.389-1.799,0.836-2.711,1.342c-0.914,0.504-1.74,1.049-2.479,1.631c-0.738,0.584-1.34,1.217-1.807,1.896
				c-0.467,0.681-0.699,1.39-0.699,2.128c0,1.166,0.281,2.178,0.844,3.033c0.564,0.854,1.215,1.283,1.955,1.283
				c0.777,0,1.553-0.234,2.332-0.701c0.777-0.467,1.631-1.049,2.564-1.748V29.62L55.857,29.62z"/>
			<path fill="#010101" d="M81.336,45.42h-9.211V2.566L81.336,0V45.42z"/>
			<path fill="#010101" d="M96.787,45.42h-9.211V2.566L96.787,0V45.42z"/>
			<path fill="#010101" d="M117.02,46.12c-2.178,0-4.219-0.398-6.123-1.193c-1.904-0.797-3.566-1.886-4.984-3.266
				c-1.42-1.38-2.537-2.974-3.354-4.781c-0.816-1.809-1.225-3.723-1.225-5.744c0-2.41,0.379-4.645,1.139-6.705
				c0.758-2.06,1.826-3.848,3.207-5.365c1.379-1.516,3.041-2.7,4.984-3.556c1.943-0.855,4.119-1.283,6.531-1.283
				c2.137,0,4.092,0.34,5.859,1.02c1.768,0.681,3.283,1.603,4.547,2.77c1.264,1.166,2.244,2.546,2.945,4.14
				c0.699,1.594,1.049,3.304,1.049,5.131H110.43c0.039,1.71,0.271,3.333,0.699,4.868s1,2.887,1.721,4.053
				c0.719,1.166,1.564,2.1,2.537,2.799c0.971,0.699,2.039,1.049,3.207,1.049c1.049,0,2.068-0.174,3.061-0.524
				c0.99-0.349,1.895-0.835,2.711-1.458c0.816-0.621,1.535-1.33,2.156-2.127c0.623-0.797,1.07-1.662,1.342-2.596l4.783,0.7
				c-0.467,1.672-1.225,3.235-2.275,4.693c-1.049,1.458-2.283,2.731-3.701,3.819c-1.42,1.089-2.965,1.953-4.637,2.596
				C120.361,45.799,118.689,46.12,117.02,46.12z M120.984,24.139c-0.195-1.827-0.797-3.294-1.809-4.402
				c-1.01-1.107-2.254-1.661-3.73-1.661c-1.166,0-2.236,0.544-3.207,1.632c-0.973,1.089-1.557,2.566-1.75,4.431H120.984
				L120.984,24.139z"/>
			<path fill="#010101" d="M146.113,45.42h-9.271V14.868h9.271v2.273c1.01-1.049,2.137-1.895,3.383-2.536
				c1.242-0.642,2.545-0.963,3.906-0.963c0.816,0,1.594,0.108,2.332,0.321c0.738,0.214,1.379,0.516,1.924,0.904
				c0.543,0.39,0.971,0.826,1.283,1.312c0.311,0.487,0.465,1.02,0.465,1.604c0,1.088-0.389,1.974-1.166,2.652
				c-0.777,0.681-1.73,1.021-2.857,1.021c-0.738,0-1.34-0.116-1.807-0.349c-0.467-0.234-0.895-0.486-1.283-0.758
				c-0.389-0.271-0.787-0.524-1.195-0.757c-0.406-0.234-0.904-0.35-1.486-0.35c-0.584,0-1.186,0.428-1.809,1.283
				c-0.621,0.855-1.184,1.827-1.689,2.915V45.42L146.113,45.42z"/>
			<path fill="#010101" d="M161.797,5.131c0-1.243,0.486-2.312,1.459-3.207c0.971-0.894,2.137-1.341,3.498-1.341
				c1.4,0,2.584,0.447,3.557,1.341c0.971,0.895,1.457,1.963,1.457,3.207c0,1.244-0.486,2.304-1.457,3.179
				c-0.973,0.874-2.158,1.311-3.557,1.311c-1.361,0-2.527-0.438-3.498-1.311C162.283,7.435,161.797,6.375,161.797,5.131z
				 M162.205,16.5l9.213-2.566V45.42h-9.213V16.5L162.205,16.5z"/>
			<path fill="#010101" d="M196.549,24.489c0-1.593-0.312-2.799-0.934-3.615c-0.623-0.816-1.322-1.225-2.1-1.225
				c-0.816,0-1.826,0.311-3.031,0.933c-1.205,0.623-2.354,1.438-3.441,2.45v22.39h-9.328V14.868h9.328v2.39
				c1.4-1.05,2.916-1.817,4.549-2.303s3.266-0.729,4.896-0.729c1.244,0,2.43,0.243,3.557,0.729c1.127,0.487,2.119,1.147,2.975,1.982
				c0.854,0.837,1.535,1.828,2.041,2.974c0.504,1.146,0.758,2.361,0.758,3.644V45.42h-9.271V24.489H196.549z"/>
			<path fill="#010101" d="M235.905,45.42h-9.271v-2.449c-0.506,0.43-1.012,0.828-1.516,1.195c-0.506,0.371-1.049,0.691-1.633,0.963
				c-0.582,0.273-1.254,0.486-2.012,0.642c-0.758,0.154-1.66,0.233-2.711,0.233c-1.401,0-2.674-0.203-3.819-0.612
				c-1.148-0.407-2.109-0.962-2.887-1.661c-0.779-0.699-1.381-1.535-1.809-2.508c-0.428-0.971-0.641-2.021-0.641-3.148
				c0-1.748,0.486-3.254,1.457-4.518c0.971-1.263,2.225-2.352,3.762-3.266c1.535-0.913,3.246-1.701,5.131-2.361
				c1.885-0.66,3.76-1.283,5.627-1.865l1.049-0.234v-3.032c0-1.982-0.379-3.372-1.137-4.169c-0.758-0.796-1.76-1.195-3.002-1.195
				c-1.479,0-2.488,0.35-3.033,1.05c-0.545,0.699-0.816,1.555-0.816,2.565c0,0.583-0.059,1.147-0.176,1.691
				c-0.115,0.545-0.34,1.02-0.67,1.428c-0.33,0.408-0.768,0.73-1.311,0.963c-0.545,0.234-1.246,0.35-2.1,0.35
				c-1.283,0-2.332-0.369-3.148-1.107c-0.816-0.739-1.225-1.671-1.225-2.799c0-1.05,0.359-2.031,1.078-2.945
				c0.719-0.913,1.691-1.7,2.914-2.361c1.225-0.661,2.645-1.176,4.258-1.545c1.611-0.369,3.312-0.554,5.102-0.554
				c4.391,0,7.578,0.749,9.562,2.245c1.982,1.497,2.973,3.527,2.973,6.093V45.42H235.905z M226.633,29.62
				c-0.895,0.389-1.799,0.836-2.711,1.342c-0.914,0.504-1.74,1.049-2.479,1.631c-0.738,0.584-1.34,1.217-1.807,1.896
				c-0.467,0.681-0.699,1.39-0.699,2.128c0,1.166,0.281,2.178,0.846,3.033c0.562,0.854,1.213,1.283,1.953,1.283
				c0.777,0,1.555-0.234,2.332-0.701s1.631-1.049,2.564-1.748V29.62z"/>
		</g>
	</g>
</g>
</svg>
