<?xml version="1.0" encoding="utf-8"?>
<!-- Generator: Adobe Illustrator 16.0.0, SVG Export Plug-In . SVG Version: 6.00 Build 0)  -->
<!DOCTYPE svg PUBLIC "-//W3C//DTD SVG 1.1//EN" "http://www.w3.org/Graphics/SVG/1.1/DTD/svg11.dtd">
<svg version="1.1" id="Capa_1" xmlns="http://www.w3.org/2000/svg" xmlns:xlink="http://www.w3.org/1999/xlink" x="0px" y="0px"
	 width="595.279px" height="841.891px" viewBox="0 0 595.279 841.891" enable-background="new 0 0 595.279 841.891"
	 xml:space="preserve">
<g>
	<g>
		<path fill="#606060" d="M557.278,123.305H38.044C17.059,123.305,0,140.321,0,161.307v519.318
			c0,20.943,17.059,38.002,38.044,38.002h519.276c20.985,0,38.002-17.059,38.002-38.002V161.349
			C595.28,140.321,578.221,123.305,557.278,123.305z M473.293,528.702l-67.896,67.854c-3.294,3.293-8.529,3.293-11.823,0
			l-95.934-95.934l-95.934,95.976c-3.294,3.251-8.529,3.251-11.823,0l-67.896-67.896c-3.251-3.294-3.251-8.529,0-11.823
			l95.892-95.934l-95.934-95.934c-3.252-3.293-3.252-8.529,0-11.823l67.896-67.897c3.294-3.293,8.529-3.293,11.823,0l95.934,95.934
			l95.934-95.934c3.294-3.293,8.529-3.293,11.823,0l67.854,67.897c3.293,3.293,3.293,8.529,0,11.823l-95.85,95.934l95.934,95.934
			C476.545,520.173,476.545,525.408,473.293,528.702z"/>
	</g>
</g>
</svg>
