<?xml version="1.0" encoding="utf-8"?>
<!-- Generator: Adobe Illustrator 16.0.0, SVG Export Plug-In . SVG Version: 6.00 Build 0)  -->
<!DOCTYPE svg PUBLIC "-//W3C//DTD SVG 1.1//EN" "http://www.w3.org/Graphics/SVG/1.1/DTD/svg11.dtd">
<svg version="1.1" id="Layer_1" xmlns="http://www.w3.org/2000/svg" xmlns:xlink="http://www.w3.org/1999/xlink" x="0px" y="0px"
	 width="379.426px" height="185px" viewBox="0 -78.265 379.426 185" enable-background="new 0 -78.265 379.426 185"
	 xml:space="preserve">
<g>
	<path d="M47.541-14.36v55.386H36.301V18.058H15.694v22.97H4.453V-14.36h11.241V8.283h20.607V-14.36H47.541z"/>
	<path d="M55.929,28.646c0-4.235,1.126-7.289,3.379-9.162c2.253-1.874,5.876-2.973,10.874-3.3l8.715-0.651v-2.524
		c0-1.63-0.366-2.771-1.101-3.421c-0.733-0.651-1.967-0.979-3.706-0.979c-1.792,0-4.263,0.069-7.412,0.206
		C63.53,8.951,60.896,9.1,58.778,9.262l-0.326-7.574c5.866-1.577,11.403-2.363,16.616-2.363c5.212,0,8.974,1.086,11.281,3.257
		c2.308,2.173,3.461,5.648,3.461,10.427V29.95c0.11,1.358,0.34,2.279,0.693,2.771c0.351,0.487,1.018,0.841,1.996,1.057l-0.326,8.228
		c-2.826,0-5.064-0.192-6.719-0.571c-1.657-0.382-3.299-1.142-4.929-2.28c-3.965,1.898-7.956,2.851-11.974,2.851
		C60.136,42.005,55.929,37.552,55.929,28.646z M77.676,32.15l1.222-0.326v-8.716l-7.412,0.653c-3.042,0.271-4.561,1.901-4.561,4.885
		c0,2.988,1.33,4.48,3.99,4.48C72.978,33.126,75.233,32.799,77.676,32.15z"/>
	<path d="M102.232,36.914c-2.635-3.394-3.951-8.81-3.951-16.25c0-7.547,1.357-12.991,4.074-16.329
		c2.715-3.34,7.139-5.01,13.277-5.01c1.574,0,3.311,0.136,5.212,0.406c1.901,0.272,4.452,0.734,7.657,1.386l-0.326,8.634
		c-4.617-0.434-7.821-0.651-9.612-0.651c-2.498,0-4.399,0.339-5.701,1.018c-1.303,0.68-2.212,1.833-2.729,3.461
		c-0.517,1.63-0.774,3.965-0.774,7.005c0,3.094,0.257,5.458,0.774,7.085c0.516,1.63,1.437,2.798,2.768,3.502
		c1.332,0.708,3.271,1.059,5.825,1.059l9.449-0.65l0.326,8.715c-5.756,1.14-10.264,1.71-13.521,1.71
		C109.114,42.005,104.864,40.307,102.232,36.914z"/>
	<path d="M136.564-15.989h10.916v32.417l4.153-0.733l8.064-15.394h12.216l-10.588,19.303l11.159,21.42h-12.298l-8.226-15.881
		l-4.481,0.735v15.146h-10.916V-15.989L136.564-15.989z"/>
	<path d="M175.823,28.646c0-4.235,1.126-7.289,3.379-9.162c2.253-1.874,5.877-2.973,10.875-3.3l8.715-0.651v-2.524
		c0-1.63-0.365-2.771-1.099-3.421c-0.734-0.651-1.969-0.979-3.707-0.979c-1.792,0-4.261,0.069-7.413,0.206
		c-3.148,0.136-5.782,0.285-7.899,0.448l-0.327-7.574c5.864-1.577,11.404-2.363,16.616-2.363c5.213,0,8.974,1.086,11.282,3.257
		c2.307,2.173,3.461,5.648,3.461,10.427V29.95c0.109,1.358,0.338,2.279,0.691,2.771c0.355,0.487,1.019,0.841,1.999,1.057
		l-0.327,8.228c-2.823,0-5.064-0.192-6.719-0.571c-1.657-0.382-3.299-1.142-4.926-2.28c-3.967,1.898-7.958,2.851-11.976,2.851
		C180.03,42.005,175.823,37.552,175.823,28.646z M197.57,32.15l1.222-0.326v-8.716l-7.411,0.653
		c-3.042,0.271-4.562,1.901-4.562,4.885c0,2.988,1.329,4.48,3.991,4.48C192.873,33.126,195.128,32.799,197.57,32.15z"/>
	<path d="M226.647,40.538c-1.737-0.978-2.985-2.579-3.745-4.806c-0.764-2.224-1.142-5.295-1.142-9.203V9.588h-4.805V0.302h4.805
		v-11.321h10.912V0.302h10.02v9.286h-10.018v16.697c0,2.118,0.188,3.651,0.571,4.603c0.378,0.95,1.329,1.398,2.848,1.343
		l6.192-0.163l0.487,8.716c-2.172,0.488-3.868,0.813-5.089,0.975c-1.223,0.164-2.459,0.247-3.708,0.247
		C230.828,42.005,228.383,41.518,226.647,40.538z"/>
	<path d="M249.779-15.989h10.914V2.257c2.063-1.032,3.897-1.776,5.498-2.239c1.603-0.462,3.324-0.692,5.174-0.692
		c4.993,0,8.538,1.588,10.628,4.764c2.088,3.177,3.134,8.131,3.134,14.866v22.069h-10.914V19.199c0-3.691-0.436-6.299-1.303-7.819
		c-0.867-1.521-2.552-2.28-5.048-2.28c-1.957,0-3.992,0.326-6.11,0.977l-1.059,0.327v30.625h-10.914V-15.989z"/>
	<path d="M297.468,36.425c-3.178-3.719-4.767-9-4.767-15.841c0-6.786,1.589-12.028,4.767-15.72
		c3.178-3.691,7.831-5.539,13.969-5.539c6.134,0,10.792,1.847,13.967,5.539c3.179,3.693,4.767,8.935,4.767,15.72
		c0,6.842-1.588,12.125-4.767,15.841c-3.175,3.72-7.833,5.581-13.967,5.581C305.299,42.005,300.646,40.145,297.468,36.425z
		 M317.22,29.87c1.248-1.902,1.872-4.998,1.872-9.287c0-4.291-0.624-7.359-1.872-9.205c-1.251-1.845-3.177-2.771-5.783-2.771
		c-2.607,0-4.535,0.925-5.783,2.771c-1.249,1.846-1.875,4.917-1.875,9.205c0,4.289,0.626,7.385,1.875,9.287
		c1.248,1.901,3.176,2.85,5.783,2.85C314.043,32.72,315.969,31.771,317.22,29.87z"/>
	<path d="M338.153,0.302h10.831v2.28c2.064-1.193,3.896-2.036,5.498-2.524c1.6-0.489,3.325-0.733,5.171-0.733
		c4.999,0,8.554,1.602,10.671,4.805c2.118,3.205,3.177,8.145,3.177,14.825v22.071h-10.914V19.28c0-3.747-0.448-6.38-1.344-7.9
		c-0.896-1.52-2.593-2.279-5.089-2.279c-1.79,0-3.829,0.38-6.11,1.141l-0.979,0.325v30.463h-10.912V0.302L338.153,0.302z"/>
</g>
<g>
	<path d="M191.739,73.602c-1.157-0.801-1.957-1.97-2.393-3.503c-0.439-1.535-0.656-3.561-0.656-6.081c0-2.6,0.223-4.672,0.671-6.217
		c0.446-1.542,1.235-2.703,2.364-3.475c1.125-0.771,2.724-1.158,4.798-1.158c1.687,0,3.637,0.244,5.852,0.732l-0.091,2.406
		c-1.932-0.342-3.657-0.516-5.182-0.516c-1.523,0-2.67,0.268-3.443,0.808c-0.771,0.541-1.292,1.406-1.554,2.603
		c-0.267,1.2-0.388,2.938-0.366,5.213c0,1.97,0.125,3.49,0.38,4.556c0.254,1.067,0.772,1.868,1.554,2.405
		c0.785,0.541,1.978,0.808,3.582,0.808c1.339,0,3.017-0.17,5.029-0.517l0.091,2.469c-2.236,0.447-4.114,0.669-5.64,0.669
		C194.563,74.805,192.895,74.406,191.739,73.602z"/>
	<path d="M206.274,72.903c-1.037-1.271-1.554-3.266-1.554-5.992c0-2.78,0.53-4.812,1.585-6.091c1.055-1.282,2.753-1.92,5.089-1.92
		c2.355,0,4.058,0.644,5.105,1.935c1.048,1.288,1.569,3.316,1.569,6.077c0,2.704-0.517,4.695-1.555,5.975
		c-1.037,1.279-2.744,1.919-5.12,1.919S207.311,74.172,206.274,72.903z M213.666,71.82c0.538-0.344,0.919-0.903,1.141-1.677
		c0.224-0.771,0.335-1.848,0.335-3.229c0-1.442-0.116-2.56-0.352-3.353c-0.232-0.789-0.619-1.355-1.157-1.69
		c-0.54-0.334-1.285-0.502-2.24-0.502c-0.954,0-1.707,0.168-2.254,0.502c-0.55,0.335-0.94,0.904-1.175,1.706
		c-0.234,0.805-0.35,1.917-0.35,3.337c0,1.362,0.113,2.434,0.334,3.215c0.224,0.782,0.609,1.347,1.157,1.691
		c0.55,0.345,1.311,0.518,2.287,0.518S213.127,72.165,213.666,71.82z"/>
	<path d="M221.724,52.775h2.834v21.695h-2.834V52.775z"/>
	<path d="M229.616,72.903c-1.036-1.271-1.556-3.266-1.556-5.992c0-2.78,0.528-4.812,1.584-6.091c1.057-1.282,2.754-1.92,5.091-1.92
		c2.355,0,4.057,0.644,5.105,1.935c1.046,1.288,1.566,3.316,1.566,6.077c0,2.704-0.517,4.695-1.553,5.975
		c-1.036,1.279-2.745,1.919-5.119,1.919C232.36,74.805,230.651,74.172,229.616,72.903z M237.005,71.82
		c0.538-0.344,0.919-0.903,1.143-1.677c0.226-0.771,0.337-1.848,0.337-3.229c0-1.442-0.118-2.56-0.352-3.353
		c-0.234-0.789-0.619-1.355-1.158-1.69c-0.538-0.334-1.285-0.502-2.239-0.502c-0.957,0-1.707,0.168-2.254,0.502
		c-0.551,0.335-0.94,0.904-1.174,1.706c-0.234,0.805-0.351,1.917-0.351,3.337c0,1.362,0.111,2.434,0.333,3.215
		c0.224,0.782,0.609,1.347,1.159,1.691c0.548,0.345,1.311,0.518,2.286,0.518C235.709,72.338,236.466,72.165,237.005,71.82z"/>
	<path d="M244.88,59.236h2.806v1.002c0.773-0.445,1.502-0.781,2.192-1.002c0.694-0.225,1.401-0.336,2.135-0.336
		c0.792,0,1.524,0.127,2.193,0.382c0.671,0.254,1.197,0.635,1.582,1.14c0.815-0.445,1.705-0.811,2.671-1.097
		c0.963-0.284,1.943-0.425,2.939-0.425c1.26,0,2.246,0.253,2.956,0.761c0.709,0.509,1.219,1.298,1.525,2.377
		c0.305,1.076,0.456,2.517,0.456,4.325v8.107h-2.835v-8.046c0-1.281-0.076-2.271-0.229-2.972c-0.151-0.698-0.426-1.207-0.82-1.521
		c-0.395-0.316-0.982-0.473-1.754-0.473c-0.569,0-1.157,0.065-1.766,0.197c-0.611,0.133-1.15,0.3-1.617,0.503l-0.547,0.243
		c0.221,0.874,0.331,2.255,0.331,4.144v7.922h-2.861v-7.862c0-1.36-0.074-2.4-0.214-3.122c-0.145-0.722-0.411-1.238-0.807-1.552
		c-0.396-0.316-0.98-0.473-1.752-0.473c-0.569,0-1.154,0.071-1.751,0.212c-0.604,0.141-1.104,0.304-1.51,0.487l-0.489,0.244v12.065
		h-2.835V59.236L244.88,59.236z"/>
	<path d="M271.332,74.532l-0.944-0.092V52.775h2.835v7.13c0.771-0.347,1.487-0.598,2.146-0.763c0.661-0.162,1.378-0.243,2.153-0.243
		c1.338,0,2.411,0.262,3.213,0.79c0.801,0.529,1.391,1.368,1.768,2.516c0.375,1.148,0.562,2.678,0.562,4.586
		c0,2.05-0.229,3.653-0.685,4.799c-0.457,1.147-1.209,1.966-2.255,2.454c-1.046,0.488-2.505,0.73-4.373,0.73
		C274.371,74.775,272.898,74.694,271.332,74.532z M278.507,71.712c0.622-0.354,1.054-0.924,1.297-1.704
		c0.243-0.785,0.365-1.866,0.365-3.247c0-1.34-0.107-2.391-0.32-3.154c-0.212-0.764-0.558-1.309-1.035-1.646
		c-0.479-0.336-1.133-0.503-1.968-0.503c-1.015,0-2.224,0.244-3.623,0.733v9.903c1.318,0.099,2.193,0.152,2.619,0.152
		C277.001,72.247,277.89,72.068,278.507,71.712z"/>
	<path d="M287.451,72.903c-1.036-1.271-1.553-3.266-1.553-5.992c0-2.78,0.529-4.812,1.584-6.091c1.058-1.282,2.754-1.92,5.09-1.92
		c2.357,0,4.059,0.644,5.104,1.935c1.045,1.288,1.569,3.316,1.569,6.077c0,2.704-0.519,4.695-1.552,5.975
		c-1.039,1.279-2.744,1.919-5.122,1.919C290.197,74.805,288.489,74.172,287.451,72.903z M294.843,71.82
		c0.537-0.344,0.918-0.903,1.144-1.677c0.222-0.771,0.336-1.848,0.336-3.229c0-1.442-0.118-2.56-0.353-3.353
		c-0.232-0.789-0.621-1.355-1.159-1.69c-0.538-0.334-1.282-0.502-2.238-0.502c-0.954,0-1.71,0.168-2.255,0.502
		c-0.549,0.335-0.938,0.904-1.174,1.706c-0.233,0.805-0.352,1.917-0.352,3.337c0,1.362,0.113,2.434,0.338,3.215
		c0.221,0.782,0.607,1.347,1.157,1.691c0.548,0.345,1.308,0.518,2.283,0.518S294.304,72.165,294.843,71.82z"/>
	<path d="M309.302,70.907l4.297-4.36c1.113-1.158,1.949-2.063,2.497-2.711c0.553-0.651,0.951-1.25,1.206-1.799
		c0.253-0.549,0.38-1.14,0.38-1.768c0-0.914-0.238-1.57-0.716-1.965c-0.477-0.397-1.194-0.595-2.148-0.595
		c-1.342,0-2.824,0.121-4.45,0.365l-0.73,0.091l-0.215-3.261c1.993-0.608,4.054-0.913,6.186-0.913c4.268,0,6.4,1.922,6.4,5.76
		c0,1.017-0.135,1.916-0.413,2.698c-0.271,0.78-0.729,1.574-1.371,2.375c-0.636,0.804-1.547,1.742-2.724,2.819l-3.507,3.17h8.353
		v3.656h-13.042v-3.562H309.302z"/>
	<path d="M327.037,72.291c-1.281-1.653-1.92-4.301-1.92-7.937c0-3.638,0.639-6.284,1.92-7.938c1.279-1.656,3.241-2.484,5.881-2.484
		c2.643,0,4.604,0.829,5.881,2.484c1.278,1.654,1.921,4.3,1.921,7.938c0,3.636-0.643,6.281-1.921,7.937
		c-1.277,1.657-3.238,2.484-5.881,2.484C330.279,74.775,328.317,73.948,327.037,72.291z M334.93,70.463
		c0.506-0.436,0.877-1.147,1.111-2.134c0.236-0.985,0.353-2.309,0.353-3.976c0-1.667-0.116-2.991-0.353-3.978
		c-0.234-0.984-0.605-1.696-1.111-2.132c-0.509-0.436-1.178-0.656-2.012-0.656c-0.833,0-1.504,0.22-2.01,0.656
		c-0.508,0.436-0.882,1.148-1.113,2.132c-0.235,0.986-0.351,2.312-0.351,3.978c0,1.667,0.115,2.991,0.351,3.976
		c0.231,0.987,0.605,1.698,1.113,2.134c0.506,0.438,1.177,0.655,2.01,0.655C333.752,71.118,334.421,70.901,334.93,70.463z"/>
	<path d="M349.983,59.111l-4.356,2.805l-1.921-3.14l6.645-4.417h3.84v20.111h-4.205V59.111H349.983z"/>
	<path d="M362.414,73.738l6.859-14.656v-0.977h-8.654v-3.746h12.858v4.752l-7.159,15.727L362.414,73.738z"/>
</g>
<g>
	<path d="M4.486-45.351h8.334c1.155,0,2.183,0.13,3.112,0.322c0.961,0.256,1.73,0.641,2.403,1.025
		c0.64,0.449,1.155,0.963,1.507,1.603c0.385,0.578,0.578,1.283,0.578,1.988c0,0.962-0.225,1.731-0.642,2.374
		c-0.45,0.705-1.217,1.346-2.34,1.987c1.154,0.385,2.083,0.962,2.821,1.796c0.738,0.832,1.091,1.793,1.091,2.884
		c0,0.802-0.16,1.508-0.512,2.148c-0.323,0.642-0.835,1.285-1.475,1.731c-0.644,0.481-1.413,0.867-2.308,1.124
		c-0.899,0.321-1.927,0.45-3.015,0.45H4.453v-19.462L4.486-45.351z M9.297-36.951h3.141c0.961,0,1.796-0.321,2.341-0.896
		c0.544-0.578,0.831-1.346,0.831-2.245c0-1.025-0.318-1.859-1.087-2.5c-0.738-0.644-1.923-0.963-3.463-0.963H9.264v6.573
		L9.297-36.951z M9.297-27.908h2.563c1.604,0,2.725-0.32,3.461-0.961c0.707-0.643,1.059-1.414,1.059-2.375
		c0-0.544-0.064-1.026-0.224-1.506c-0.159-0.481-0.414-0.866-0.768-1.219c-0.385-0.32-0.834-0.64-1.443-0.801
		c-0.58-0.192-1.283-0.323-2.151-0.323H9.328v7.185H9.297z M35.682-25.889h-4.425v-1.281l-0.703,0.641l-0.803,0.449l-0.961,0.321
		c-0.385,0.063-0.802,0.096-1.282,0.096c-0.705,0-1.282-0.096-1.86-0.321c-0.545-0.16-0.961-0.417-1.377-0.77
		c-0.384-0.32-0.642-0.738-0.867-1.186c-0.191-0.481-0.32-0.963-0.32-1.507c0-0.866,0.257-1.604,0.705-2.246
		c0.452-0.577,1.059-1.088,1.766-1.505c0.737-0.45,1.603-0.834,2.468-1.156c0.899-0.319,1.796-0.64,2.693-0.897l0.513-0.128v-1.411
		c0-0.96-0.193-1.604-0.543-1.988c-0.324-0.383-0.835-0.575-1.444-0.575c-0.706,0-1.186,0.192-1.443,0.512
		c-0.256,0.321-0.384,0.738-0.384,1.218c0,0.321,0,0.578-0.096,0.833c-0.064,0.256-0.161,0.481-0.323,0.642
		c-0.159,0.224-0.384,0.385-0.639,0.481c-0.257,0.127-0.577,0.193-0.963,0.193c-0.64,0-1.151-0.161-1.538-0.514
		c-0.385-0.321-0.576-0.802-0.576-1.347c0-0.481,0.159-0.963,0.512-1.41c0.32-0.417,0.801-0.801,1.379-1.122
		c0.643-0.323,1.282-0.577,2.052-0.737c0.77-0.193,1.603-0.257,2.437-0.257c2.114,0,3.622,0.32,4.585,1.058
		c0.961,0.738,1.41,1.701,1.41,2.886v11.03H35.682z M31.257-33.585l-1.282,0.643c-0.45,0.256-0.866,0.512-1.22,0.801
		c-0.319,0.319-0.639,0.577-0.865,0.898c-0.223,0.32-0.321,0.641-0.321,1.025c0,0.546,0.129,1.059,0.417,1.442
		c0.257,0.417,0.579,0.642,0.963,0.642c0.32,0,0.705-0.128,1.088-0.321l1.219-0.864v-4.201V-33.585L31.257-33.585z M43.44-25.889
		h-4.392v-20.615l4.392-1.187V-25.889z M50.846-25.889h-4.393v-20.615l4.393-1.187V-25.889z M60.562-25.569
		c-1.058,0-2.021-0.223-2.95-0.64c-0.898-0.321-1.699-0.865-2.374-1.538c-0.704-0.642-1.215-1.411-1.603-2.246
		c-0.416-0.898-0.642-1.827-0.642-2.789c0-1.155,0.226-2.244,0.579-3.207c0.386-0.962,0.897-1.859,1.539-2.564
		c0.642-0.738,1.475-1.283,2.405-1.7c0.962-0.417,1.988-0.64,3.143-0.64c1.024,0,1.923,0.19,2.819,0.512
		c0.834,0.322,1.604,0.771,2.18,1.283c0.579,0.512,1.06,1.283,1.411,2.02c0.319,0.801,0.483,1.603,0.483,2.5H57.42
		c0,0.802,0.127,1.604,0.321,2.309c0.225,0.738,0.511,1.379,0.832,1.923c0.322,0.579,0.771,1.026,1.22,1.379
		c0.512,0.321,1.025,0.48,1.602,0.48c0.48,0,0.961-0.063,1.443-0.224c0.48-0.159,0.897-0.385,1.283-0.641
		c0.381-0.321,0.737-0.643,1.057-1.06c0.32-0.384,0.481-0.801,0.642-1.282l2.245,0.385c-0.193,0.77-0.546,1.507-1.057,2.245
		c-0.513,0.642-1.09,1.282-1.766,1.794c-0.64,0.514-1.441,0.963-2.243,1.283c-0.799,0.256-1.603,0.416-2.372,0.416h-0.064V-25.569z
		 M62.485-36.149c-0.128-0.866-0.416-1.603-0.897-2.083c-0.481-0.547-1.089-0.803-1.794-0.803c-0.546,0-1.058,0.256-1.541,0.77
		c-0.449,0.546-0.736,1.283-0.833,2.148h5.032L62.485-36.149z M74.476-25.889h-4.424v-14.749h4.424v1.09
		c0.482-0.512,1.027-0.897,1.604-1.218c0.64-0.321,1.283-0.449,1.924-0.449c0.32,0,0.739,0,1.089,0.161
		c0.32,0.063,0.642,0.192,0.96,0.384c0.227,0.194,0.418,0.385,0.578,0.642c0.129,0.226,0.225,0.48,0.225,0.77
		c0,0.512-0.225,0.961-0.64,1.283c-0.322,0.32-0.768,0.48-1.283,0.48c-0.385,0-0.641,0-0.897-0.16l-0.643-0.321
		c-0.158-0.161-0.318-0.321-0.545-0.386c-0.192-0.127-0.45-0.191-0.738-0.191s-0.542,0.224-0.865,0.641
		c-0.32,0.386-0.544,0.865-0.803,1.378v10.581L74.476-25.889z M81.979-45.221c0-0.643,0.256-1.122,0.706-1.54
		c0.479-0.481,1.026-0.641,1.698-0.641c0.643,0,1.188,0.16,1.668,0.641c0.449,0.386,0.641,0.897,0.641,1.507
		c0,0.576-0.191,1.089-0.641,1.507c-0.48,0.416-1.058,0.641-1.699,0.641c-0.705,0-1.281-0.225-1.731-0.641
		c-0.448-0.416-0.705-0.961-0.705-1.507L81.979-45.221z M82.203-39.771l4.424-1.283v15.165h-4.454v-13.946L82.203-39.771z
		 M98.65-35.956c0-0.77-0.16-1.348-0.449-1.731c-0.321-0.384-0.643-0.577-1.025-0.577c-0.385,0-0.866,0.128-1.442,0.417
		c-0.577,0.32-1.125,0.707-1.603,1.185v10.774h-4.49v-14.749h4.49v1.155c0.64-0.514,1.346-0.866,2.147-1.122
		c0.771-0.225,1.541-0.322,2.342-0.322c0.577,0,1.153,0.097,1.698,0.322c0.547,0.255,1.028,0.576,1.411,0.962
		c0.419,0.417,0.738,0.864,0.963,1.411c0.255,0.577,0.384,1.153,0.384,1.762v10.581H98.65v-10.099V-35.956z M117.501-25.889h-4.484
		v-1.281l-0.708,0.641c-0.224,0.16-0.48,0.321-0.769,0.449l-0.963,0.321c-0.321,0.063-0.801,0.096-1.28,0.096
		c-0.642,0-1.283-0.096-1.86-0.321c-0.543-0.16-0.963-0.417-1.379-0.77c-0.32-0.32-0.639-0.738-0.866-1.186
		c-0.191-0.481-0.321-0.963-0.321-1.507c0-0.866,0.257-1.604,0.707-2.246c0.48-0.577,1.087-1.088,1.828-1.505
		c0.737-0.45,1.538-0.834,2.436-1.156l2.693-0.897l0.513-0.128v-1.411c0-0.96-0.192-1.604-0.546-1.988
		c-0.323-0.383-0.833-0.575-1.443-0.575c-0.641,0-1.152,0.192-1.411,0.512c-0.254,0.321-0.382,0.738-0.382,1.218
		c0,0.321,0,0.578-0.098,0.833c0,0.256-0.129,0.481-0.32,0.642c-0.129,0.224-0.32,0.385-0.579,0.481
		c-0.319,0.127-0.64,0.193-1.024,0.193c-0.642,0-1.121-0.161-1.507-0.514c-0.383-0.321-0.577-0.802-0.577-1.347
		c0-0.481,0.161-0.963,0.512-1.41c0.385-0.417,0.832-0.801,1.412-1.122c0.637-0.323,1.282-0.577,2.052-0.737
		c0.77-0.193,1.603-0.257,2.435-0.257c2.117,0,3.657,0.32,4.586,1.058c0.96,0.738,1.445,1.701,1.445,2.886v11.03H117.501z
		 M113.017-33.52l-1.285,0.643c-0.417,0.254-0.802,0.511-1.156,0.8c-0.319,0.321-0.639,0.578-0.865,0.899
		c-0.255,0.321-0.384,0.641-0.384,1.024c0,0.546,0.129,1.059,0.418,1.443c0.32,0.417,0.639,0.642,0.959,0.642
		c0.385,0,0.739-0.126,1.123-0.319l1.217-0.866v-4.265h-0.028V-33.52z"/>
</g>
<circle fill-rule="evenodd" clip-rule="evenodd" cx="150.182" cy="76.043" r="5.358"/>
<line stroke="#000000" stroke-width="2.6457" stroke-miterlimit="10" x1="150.182" y1="76.043" x2="171.789" y2="47.067"/>
<circle fill-rule="evenodd" clip-rule="evenodd" cx="227.178" cy="-34.817" r="5.357"/>
<line stroke="#000000" stroke-width="2.6457" stroke-miterlimit="10" x1="205.267" y1="-5.842" x2="226.875" y2="-34.817"/>
<circle fill-rule="evenodd" clip-rule="evenodd" cx="302.966" cy="-33.415" r="5.358"/>
<line stroke="#000000" stroke-width="2.6457" stroke-miterlimit="10" x1="227.179" y1="-34.817" x2="302.965" y2="-33.415"/>
<circle fill-rule="evenodd" clip-rule="evenodd" cx="337.063" cy="-68.693" r="5.359"/>
<circle fill-rule="evenodd" clip-rule="evenodd" cx="75.698" cy="63.42" r="5.357"/>
<circle fill-rule="evenodd" clip-rule="evenodd" cx="37.92" cy="92.384" r="5.358"/>
<line stroke="#000000" stroke-width="2.6457" stroke-miterlimit="10" x1="37.497" y1="93.156" x2="74.922" y2="63.44"/>
<line stroke="#000000" stroke-width="2.9017" stroke-miterlimit="10" x1="75.578" y1="63.421" x2="151.203" y2="76.375"/>
<line stroke="#000000" stroke-width="2.6457" stroke-miterlimit="10" x1="303.023" y1="-33.003" x2="334.983" y2="-67.448"/>
</svg>
