<?xml version="1.0" encoding="utf-8"?>
<!-- Generator: Adobe Illustrator 16.0.0, SVG Export Plug-In . SVG Version: 6.00 Build 0)  -->
<!DOCTYPE svg PUBLIC "-//W3C//DTD SVG 1.1//EN" "http://www.w3.org/Graphics/SVG/1.1/DTD/svg11.dtd">
<svg version="1.1" id="Layer_1" xmlns="http://www.w3.org/2000/svg" xmlns:xlink="http://www.w3.org/1999/xlink" x="0px" y="0px"
	 width="431.852px" height="150.469px" viewBox="0 0 431.852 150.469" enable-background="new 0 0 431.852 150.469"
	 xml:space="preserve">
<g>
	<path d="M56.877,43.604v62.804H44.131V80.363H20.764v26.047H8.018V43.604h12.746V69.28h23.367V43.604H56.877z"/>
	<path d="M66.388,92.37c0-4.803,1.277-8.266,3.833-10.39c2.554-2.126,6.664-3.371,12.33-3.741l9.882-0.738v-2.862
		c0-1.848-0.414-3.142-1.247-3.879c-0.832-0.739-2.231-1.109-4.203-1.109c-2.032,0-4.834,0.078-8.403,0.231
		c-3.572,0.154-6.558,0.324-8.96,0.509l-0.37-8.589c6.649-1.786,12.93-2.68,18.842-2.68c5.91,0,10.175,1.231,12.792,3.693
		c2.617,2.465,3.924,6.404,3.924,11.823v19.21c0.125,1.54,0.385,2.585,0.786,3.141c0.399,0.554,1.155,0.954,2.264,1.199l-0.37,9.329
		c-3.202,0-5.741-0.218-7.618-0.646c-1.88-0.432-3.741-1.295-5.589-2.587c-4.495,2.155-9.021,3.232-13.577,3.232
		C71.159,107.517,66.388,102.47,66.388,92.37z M91.048,96.342l1.385-0.369v-9.882l-8.404,0.738
		c-3.448,0.309-5.172,2.156-5.172,5.541c0,3.387,1.51,5.08,4.525,5.08C85.722,97.45,88.278,97.079,91.048,96.342z"/>
	<path d="M118.893,101.745c-2.988-3.848-4.479-9.988-4.479-18.426c0-8.558,1.539-14.732,4.619-18.52
		c3.077-3.786,8.096-5.68,15.055-5.68c1.786,0,3.754,0.154,5.911,0.461c2.154,0.309,5.048,0.832,8.682,1.571l-0.371,9.79
		c-5.232-0.492-8.866-0.738-10.897-0.738c-2.832,0-4.988,0.384-6.465,1.154c-1.478,0.771-2.51,2.078-3.094,3.926
		c-0.586,1.847-0.877,4.496-0.877,7.943c0,3.51,0.291,6.188,0.877,8.035c0.584,1.847,1.63,3.172,3.14,3.971
		c1.509,0.803,3.709,1.201,6.604,1.201l10.713-0.738l0.371,9.883c-6.527,1.293-11.637,1.939-15.332,1.939
		C126.697,107.517,121.878,105.594,118.893,101.745z"/>
	<path d="M157.824,41.757H170.2v36.761l4.71-0.832l9.144-17.457h13.854l-12.008,21.889l12.653,24.29h-13.946l-9.328-18.01
		l-5.08,0.831v17.179h-12.377v-64.65H157.824z"/>
	<path d="M202.339,92.37c0-4.803,1.278-8.266,3.833-10.39c2.555-2.126,6.664-3.371,12.331-3.741l9.883-0.738v-2.862
		c0-1.848-0.415-3.142-1.247-3.879c-0.832-0.738-2.231-1.109-4.202-1.109c-2.032,0-4.833,0.078-8.403,0.231
		c-3.571,0.154-6.558,0.324-8.958,0.509l-0.371-8.589c6.649-1.786,12.931-2.68,18.841-2.68s10.174,1.231,12.791,3.693
		c2.617,2.465,3.926,6.404,3.926,11.823v19.21c0.123,1.54,0.383,2.585,0.784,3.141c0.4,0.554,1.156,0.954,2.265,1.199l-0.371,9.329
		c-3.201,0-5.741-0.218-7.619-0.646c-1.878-0.432-3.738-1.295-5.586-2.587c-4.496,2.155-9.021,3.232-13.576,3.232
		C207.111,107.517,202.339,102.47,202.339,92.37z M227,96.342l1.386-0.369v-9.882l-8.405,0.738
		c-3.447,0.309-5.172,2.156-5.172,5.541c0,3.387,1.509,5.08,4.525,5.08C221.673,97.45,224.23,97.079,227,96.342z"/>
	<path d="M259.971,105.854c-1.971-1.107-3.386-2.924-4.249-5.449c-0.863-2.523-1.295-6.004-1.295-10.436V70.758h-5.447V60.229h5.447
		V47.391h12.377V60.23h11.361V70.76h-11.359v18.933c0,2.402,0.215,4.142,0.647,5.219c0.429,1.078,1.508,1.587,3.23,1.524
		l7.021-0.187l0.554,9.883c-2.464,0.556-4.388,0.925-5.771,1.107c-1.386,0.186-2.788,0.277-4.204,0.277
		C264.712,107.517,261.941,106.964,259.971,105.854z"/>
	<path d="M286.203,41.757h12.375v20.689c2.338-1.169,4.417-2.015,6.234-2.54c1.814-0.523,3.771-0.785,5.865-0.785
		c5.664,0,9.682,1.801,12.053,5.402c2.369,3.602,3.556,9.221,3.556,16.854v25.028h-12.377v-24.75c0-4.187-0.492-7.143-1.478-8.866
		c-0.986-1.724-2.895-2.585-5.727-2.585c-2.218,0-4.525,0.37-6.927,1.108l-1.201,0.37v34.728h-12.375L286.203,41.757L286.203,41.757
		z"/>
	<path d="M340.279,101.19c-3.604-4.217-5.403-10.205-5.403-17.963c0-7.696,1.801-13.64,5.403-17.826
		c3.603-4.188,8.88-6.28,15.839-6.28c6.957,0,12.237,2.094,15.84,6.28c3.602,4.188,5.401,10.129,5.401,17.826
		c0,7.758-1.801,13.747-5.401,17.963c-3.603,4.219-8.883,6.328-15.84,6.328C349.158,107.517,343.881,105.409,340.279,101.19z
		 M362.676,93.757c1.414-2.155,2.123-5.666,2.123-10.529c0-4.864-0.709-8.343-2.123-10.437c-1.418-2.093-3.604-3.141-6.559-3.141
		c-2.957,0-5.144,1.048-6.56,3.141c-1.416,2.094-2.123,5.573-2.123,10.437s0.707,8.374,2.123,10.529s3.603,3.231,6.56,3.231
		C359.072,96.988,361.258,95.912,362.676,93.757z"/>
	<path d="M386.41,60.229h12.284v2.585c2.338-1.354,4.418-2.31,6.232-2.863c1.813-0.554,3.771-0.831,5.864-0.831
		c5.664,0,9.697,1.816,12.101,5.449c2.402,3.634,3.602,9.236,3.602,16.81v25.028h-12.375V81.749c0-4.248-0.508-7.233-1.524-8.958
		c-1.017-1.724-2.939-2.585-5.771-2.585c-2.028,0-4.34,0.432-6.928,1.293l-1.107,0.369v34.543h-12.374V60.229H386.41z"/>
</g>
<g>
	<path d="M220.387,143.348c-1.312-0.91-2.219-2.233-2.713-3.975c-0.496-1.74-0.742-4.037-0.742-6.896
		c0-2.947,0.252-5.297,0.759-7.048s1.4-3.064,2.681-3.939c1.277-0.875,3.091-1.312,5.44-1.312c1.912,0,4.123,0.275,6.635,0.828
		l-0.104,2.729c-2.189-0.39-4.146-0.586-5.875-0.586s-3.029,0.305-3.904,0.916s-1.465,1.596-1.762,2.953
		c-0.303,1.358-0.438,3.33-0.415,5.909c0,2.234,0.142,3.958,0.431,5.167c0.288,1.209,0.876,2.118,1.764,2.729
		c0.888,0.611,2.24,0.916,4.062,0.916c1.52,0,3.42-0.194,5.701-0.586l0.104,2.799c-2.534,0.506-4.663,0.758-6.395,0.758
		C223.589,144.71,221.699,144.258,220.387,143.348z"/>
	<path d="M236.869,142.554c-1.177-1.441-1.763-3.703-1.763-6.793c0-3.154,0.601-5.459,1.798-6.908
		c1.196-1.453,3.12-2.179,5.771-2.179c2.672,0,4.601,0.73,5.788,2.193c1.187,1.463,1.779,3.761,1.779,6.894
		c0,3.063-0.587,5.321-1.763,6.774c-1.176,1.449-3.109,2.174-5.806,2.174C239.98,144.71,238.044,143.993,236.869,142.554z
		 M245.25,141.324c0.608-0.39,1.043-1.021,1.296-1.899c0.253-0.873,0.38-2.096,0.38-3.661c0-1.637-0.133-2.902-0.398-3.803
		c-0.265-0.896-0.702-1.537-1.312-1.917c-0.611-0.38-1.457-0.569-2.54-0.569s-1.935,0.189-2.556,0.569
		c-0.622,0.38-1.065,1.025-1.331,1.937c-0.267,0.911-0.397,2.172-0.397,3.783c0,1.545,0.127,2.76,0.38,3.645
		c0.253,0.889,0.69,1.527,1.312,1.919c0.622,0.393,1.484,0.587,2.592,0.587S244.639,141.719,245.25,141.324z"/>
	<path d="M254.388,119.729h3.215v24.602h-3.215V119.729z"/>
	<path d="M263.339,142.554c-1.176-1.441-1.764-3.703-1.764-6.793c0-3.154,0.599-5.459,1.797-6.908
		c1.196-1.453,3.121-2.179,5.771-2.179c2.672,0,4.602,0.73,5.789,2.193s1.778,3.761,1.778,6.894c0,3.063-0.588,5.321-1.763,6.774
		c-1.176,1.449-3.11,2.174-5.806,2.174C266.448,144.71,264.511,143.993,263.339,142.554z M271.718,141.324
		c0.609-0.39,1.041-1.021,1.295-1.899c0.256-0.873,0.38-2.096,0.38-3.661c0-1.637-0.132-2.902-0.396-3.803
		c-0.267-0.896-0.701-1.537-1.312-1.917s-1.457-0.569-2.54-0.569s-1.935,0.189-2.556,0.569c-0.623,0.38-1.066,1.025-1.331,1.937
		c-0.266,0.91-0.397,2.172-0.397,3.783c0,1.545,0.127,2.76,0.379,3.645c0.255,0.889,0.691,1.527,1.313,1.919
		c0.622,0.393,1.485,0.587,2.592,0.587C270.251,141.914,271.106,141.719,271.718,141.324z"/>
	<path d="M280.648,127.055h3.183v1.14c0.875-0.506,1.703-0.887,2.485-1.14c0.785-0.254,1.59-0.381,2.42-0.381
		c0.897,0,1.729,0.145,2.486,0.432c0.761,0.289,1.359,0.722,1.797,1.296c0.922-0.507,1.933-0.921,3.025-1.244
		c1.092-0.322,2.203-0.482,3.334-0.482c1.428,0,2.545,0.287,3.352,0.862c0.806,0.576,1.381,1.475,1.729,2.695
		c0.344,1.222,0.518,2.855,0.518,4.905v9.192h-3.215v-9.125c0-1.449-0.086-2.572-0.26-3.369c-0.17-0.794-0.482-1.369-0.933-1.728
		c-0.448-0.356-1.112-0.534-1.987-0.534c-0.646,0-1.312,0.074-2.004,0.224c-0.69,0.15-1.303,0.341-1.831,0.571l-0.621,0.275
		c0.25,0.99,0.377,2.557,0.377,4.699v8.983h-3.247v-8.916c0-1.543-0.081-2.724-0.241-3.542c-0.162-0.816-0.467-1.404-0.915-1.762
		c-0.45-0.356-1.111-0.534-1.987-0.534c-0.646,0-1.309,0.079-1.983,0.241c-0.685,0.16-1.253,0.345-1.713,0.552l-0.555,0.276v13.683
		h-3.214V127.055L280.648,127.055z"/>
	<path d="M310.643,144.4l-1.07-0.104v-24.567h3.214v8.085c0.875-0.393,1.688-0.679,2.436-0.864c0.75-0.184,1.562-0.275,2.438-0.275
		c1.52,0,2.733,0.3,3.645,0.896c0.91,0.602,1.578,1.551,2.004,2.853c0.426,1.303,0.642,3.034,0.642,5.2
		c0,2.326-0.261,4.143-0.779,5.441c-0.517,1.303-1.369,2.229-2.555,2.783c-1.188,0.552-2.841,0.827-4.962,0.827
		C314.088,144.677,312.416,144.584,310.643,144.4z M318.779,141.204c0.703-0.401,1.193-1.049,1.472-1.934
		c0.274-0.888,0.414-2.115,0.414-3.681c0-1.521-0.123-2.713-0.363-3.577c-0.242-0.865-0.635-1.485-1.174-1.865
		c-0.543-0.382-1.287-0.57-2.23-0.57c-1.151,0-2.521,0.275-4.11,0.829v11.229c1.495,0.115,2.485,0.174,2.971,0.174
		C317.07,141.809,318.078,141.607,318.779,141.204z"/>
	<path d="M328.922,142.554c-1.176-1.441-1.762-3.703-1.762-6.793c0-3.154,0.6-5.459,1.797-6.908c1.196-1.453,3.119-2.179,5.77-2.179
		c2.674,0,4.603,0.73,5.789,2.193s1.779,3.761,1.779,6.894c0,3.063-0.588,5.321-1.762,6.774c-1.177,1.449-3.111,2.174-5.808,2.174
		C332.033,144.71,330.096,143.993,328.922,142.554z M337.301,141.324c0.611-0.39,1.043-1.021,1.297-1.899
		c0.254-0.873,0.381-2.096,0.381-3.661c0-1.637-0.133-2.902-0.399-3.803c-0.265-0.896-0.701-1.537-1.312-1.917
		c-0.608-0.38-1.455-0.569-2.539-0.569c-1.082,0-1.936,0.189-2.555,0.569c-0.623,0.38-1.066,1.025-1.332,1.937
		s-0.398,2.172-0.398,3.783c0,1.545,0.127,2.76,0.382,3.645c0.254,0.889,0.69,1.527,1.312,1.919
		c0.623,0.393,1.484,0.587,2.592,0.587C335.832,141.913,336.691,141.719,337.301,141.324z"/>
	<path d="M353.697,140.289l4.871-4.939c1.269-1.314,2.213-2.341,2.834-3.076c0.623-0.737,1.078-1.416,1.365-2.04
		c0.289-0.622,0.433-1.29,0.433-2.004c0-1.036-0.271-1.78-0.812-2.229c-0.543-0.447-1.354-0.675-2.438-0.675
		c-1.521,0-3.201,0.139-5.046,0.414l-0.827,0.104l-0.244-3.696c2.258-0.69,4.598-1.035,7.016-1.035c4.838,0,7.256,2.177,7.256,6.53
		c0,1.151-0.153,2.173-0.467,3.059c-0.309,0.886-0.828,1.786-1.555,2.694c-0.726,0.911-1.756,1.977-3.09,3.196l-3.978,3.595h9.469
		v4.146h-14.786v-4.042H353.697z"/>
	<path d="M373.809,141.86c-1.453-1.876-2.178-4.877-2.178-9c0-4.125,0.725-7.125,2.178-9.002c1.451-1.878,3.674-2.816,6.668-2.816
		s5.219,0.938,6.67,2.816c1.449,1.877,2.176,4.877,2.176,9.002c0,4.123-0.727,7.123-2.176,9c-1.451,1.879-3.676,2.815-6.67,2.815
		S375.26,143.739,373.809,141.86z M382.758,139.787c0.574-0.495,0.994-1.301,1.262-2.419c0.267-1.117,0.398-2.62,0.398-4.508
		c0-1.891-0.133-3.394-0.398-4.51c-0.268-1.118-0.688-1.925-1.262-2.419c-0.576-0.495-1.336-0.743-2.281-0.743
		c-0.942,0-1.705,0.248-2.279,0.743c-0.577,0.495-0.997,1.301-1.262,2.419c-0.268,1.116-0.397,2.62-0.397,4.51
		c0,1.888,0.131,3.391,0.397,4.508c0.265,1.118,0.685,1.924,1.262,2.419c0.574,0.495,1.337,0.743,2.279,0.743
		C381.422,140.53,382.182,140.284,382.758,139.787z"/>
	<path d="M399.827,126.915l-4.94,3.181l-2.178-3.56l7.532-5.012h4.355v22.807h-4.769L399.827,126.915L399.827,126.915
		L399.827,126.915z"/>
	<path d="M413.924,143.501l7.774-16.619v-1.106h-9.812v-4.249h14.582v5.39l-8.119,17.831L413.924,143.501z"/>
</g>
<g>
	<path d="M8.055,8.462h9.451c1.309,0,2.474,0.146,3.528,0.364c1.09,0.291,1.962,0.729,2.727,1.163
		c0.725,0.508,1.308,1.091,1.708,1.818c0.437,0.653,0.656,1.454,0.656,2.253c0,1.092-0.256,1.963-0.729,2.69
		c-0.509,0.801-1.38,1.526-2.653,2.254c1.309,0.438,2.361,1.091,3.198,2.036s1.237,2.036,1.237,3.272
		c0,0.909-0.182,1.708-0.582,2.435c-0.365,0.728-0.947,1.455-1.671,1.963c-0.73,0.544-1.604,0.982-2.618,1.273
		c-1.019,0.364-2.184,0.509-3.418,0.509H8.018V8.427L8.055,8.462z M13.51,17.987h3.562c1.09,0,2.036-0.363,2.654-1.017
		c0.617-0.655,0.943-1.527,0.943-2.547c0-1.162-0.362-2.106-1.234-2.835c-0.837-0.729-2.181-1.092-3.927-1.092h-2.036v7.454
		L13.51,17.987z M13.51,28.241h2.906c1.818,0,3.089-0.364,3.926-1.091c0.802-0.729,1.201-1.603,1.201-2.692
		c0-0.619-0.073-1.164-0.255-1.708c-0.181-0.546-0.471-0.981-0.871-1.383c-0.438-0.362-0.946-0.725-1.637-0.908
		c-0.657-0.218-1.453-0.363-2.438-0.363h-2.798v8.146H13.51z M43.43,30.53h-5.017v-1.454l-0.8,0.728l-0.909,0.509l-1.091,0.364
		c-0.437,0.071-0.908,0.108-1.453,0.108c-0.8,0-1.454-0.108-2.11-0.364c-0.618-0.182-1.09-0.473-1.562-0.874
		c-0.436-0.361-0.728-0.836-0.982-1.344c-0.217-0.546-0.364-1.092-0.364-1.708c0-0.981,0.292-1.817,0.8-2.547
		c0.513-0.653,1.2-1.234,2.002-1.707c0.836-0.509,1.817-0.945,2.799-1.31c1.019-0.362,2.035-0.727,3.054-1.019l0.582-0.146v-1.601
		c0-1.089-0.219-1.818-0.616-2.254c-0.367-0.435-0.947-0.652-1.638-0.652c-0.8,0-1.345,0.218-1.637,0.58
		c-0.291,0.364-0.437,0.838-0.437,1.382c0,0.363,0,0.653-0.108,0.944c-0.071,0.291-0.183,0.545-0.365,0.729
		c-0.181,0.254-0.436,0.436-0.726,0.545c-0.292,0.145-0.654,0.218-1.092,0.218c-0.726,0-1.306-0.182-1.745-0.582
		c-0.436-0.364-0.653-0.91-0.653-1.527c0-0.546,0.183-1.091,0.581-1.6c0.363-0.472,0.909-0.908,1.564-1.271
		c0.729-0.365,1.454-0.654,2.327-0.836c0.873-0.219,1.817-0.292,2.764-0.292c2.398,0,4.106,0.362,5.199,1.2
		c1.09,0.836,1.6,1.928,1.6,3.271V30.53H43.43z M38.413,21.803l-1.455,0.729c-0.509,0.29-0.981,0.58-1.383,0.908
		c-0.362,0.363-0.725,0.654-0.981,1.018c-0.253,0.364-0.363,0.729-0.363,1.163c0,0.62,0.146,1.2,0.473,1.636
		c0.291,0.475,0.654,0.729,1.092,0.729c0.363,0,0.8-0.146,1.233-0.365l1.384-0.979v-4.764L38.413,21.803L38.413,21.803z
		 M52.228,30.53h-4.979V7.154l4.979-1.346V30.53z M60.625,30.53h-4.98V7.154l4.98-1.346V30.53z M71.642,30.894
		c-1.199,0-2.291-0.254-3.344-0.727c-1.019-0.363-1.927-0.98-2.692-1.745c-0.799-0.728-1.377-1.6-1.816-2.545
		c-0.473-1.019-0.728-2.072-0.728-3.164c0-1.309,0.255-2.545,0.656-3.635c0.437-1.091,1.017-2.107,1.745-2.908
		c0.728-0.836,1.672-1.454,2.726-1.927c1.091-0.472,2.255-0.727,3.564-0.727c1.162,0,2.181,0.217,3.198,0.582
		c0.945,0.363,1.817,0.874,2.472,1.455c0.657,0.579,1.201,1.453,1.6,2.29c0.362,0.907,0.547,1.817,0.547,2.836H68.08
		c0,0.908,0.144,1.817,0.362,2.618c0.255,0.835,0.581,1.562,0.944,2.181c0.365,0.656,0.873,1.164,1.382,1.563
		c0.581,0.363,1.163,0.545,1.817,0.545c0.545,0,1.091-0.071,1.637-0.254c0.544-0.18,1.018-0.436,1.455-0.727
		c0.434-0.364,0.836-0.729,1.199-1.201c0.363-0.436,0.546-0.909,0.727-1.456l2.545,0.438c-0.218,0.873-0.619,1.71-1.198,2.545
		c-0.582,0.727-1.235,1.455-2.001,2.036c-0.726,0.58-1.635,1.091-2.545,1.454c-0.905,0.29-1.817,0.472-2.688,0.472L71.642,30.894
		L71.642,30.894L71.642,30.894z M73.822,18.896c-0.145-0.982-0.472-1.817-1.017-2.363c-0.547-0.62-1.236-0.909-2.036-0.909
		c-0.618,0-1.199,0.29-1.746,0.873c-0.51,0.618-0.835,1.455-0.943,2.437h5.705L73.822,18.896z M87.419,30.53h-5.018V13.806h5.018
		v1.235c0.547-0.581,1.165-1.018,1.817-1.381c0.728-0.365,1.456-0.509,2.183-0.509c0.363,0,0.837,0,1.234,0.182
		c0.363,0.072,0.729,0.219,1.089,0.437c0.257,0.219,0.474,0.436,0.655,0.727c0.146,0.256,0.255,0.546,0.255,0.873
		c0,0.582-0.255,1.09-0.728,1.455c-0.364,0.363-0.87,0.545-1.455,0.545c-0.436,0-0.727,0-1.017-0.182l-0.729-0.363
		c-0.18-0.181-0.361-0.364-0.618-0.437c-0.217-0.146-0.509-0.219-0.836-0.219s-0.615,0.254-0.979,0.728
		c-0.363,0.438-0.617,0.979-0.91,1.562v11.998L87.419,30.53z M95.927,8.608c0-0.729,0.291-1.272,0.802-1.746
		c0.543-0.546,1.163-0.729,1.925-0.729c0.729,0,1.348,0.183,1.892,0.729c0.51,0.437,0.728,1.018,0.728,1.709
		c0,0.654-0.217,1.236-0.728,1.708c-0.544,0.473-1.2,0.728-1.927,0.728c-0.801,0-1.453-0.254-1.964-0.728
		c-0.508-0.471-0.8-1.09-0.8-1.708L95.927,8.608z M96.182,14.789l5.016-1.455V30.53h-5.05V14.716L96.182,14.789z M114.832,19.115
		c0-0.874-0.183-1.528-0.51-1.963c-0.363-0.437-0.729-0.654-1.162-0.654c-0.437,0-0.981,0.146-1.635,0.473
		c-0.654,0.363-1.274,0.8-1.817,1.344V30.53h-5.091V13.806h5.091v1.31c0.726-0.583,1.524-0.982,2.434-1.271
		c0.875-0.255,1.748-0.365,2.656-0.365c0.654,0,1.308,0.109,1.926,0.365c0.619,0.289,1.165,0.652,1.599,1.091
		c0.477,0.472,0.839,0.979,1.092,1.599c0.29,0.654,0.436,1.308,0.436,1.999V30.53h-5.018V19.078V19.115z M136.208,30.53h-5.085
		v-1.454l-0.803,0.728c-0.254,0.183-0.545,0.364-0.873,0.509l-1.093,0.364c-0.361,0.071-0.907,0.108-1.451,0.108
		c-0.728,0-1.456-0.108-2.108-0.364c-0.617-0.182-1.092-0.473-1.565-0.874c-0.362-0.361-0.724-0.836-0.98-1.344
		c-0.218-0.546-0.364-1.092-0.364-1.708c0-0.981,0.292-1.817,0.803-2.547c0.543-0.653,1.232-1.234,2.072-1.707
		c0.835-0.509,1.744-0.945,2.763-1.31l3.054-1.019l0.582-0.146v-1.601c0-1.089-0.217-1.818-0.619-2.254
		c-0.365-0.435-0.944-0.652-1.636-0.652c-0.728,0-1.307,0.218-1.6,0.58c-0.29,0.364-0.435,0.838-0.435,1.382
		c0,0.363,0,0.653-0.11,0.944c0,0.291-0.147,0.545-0.363,0.729c-0.146,0.254-0.362,0.436-0.657,0.545
		c-0.361,0.145-0.726,0.218-1.16,0.218c-0.729,0-1.271-0.182-1.708-0.582c-0.438-0.364-0.656-0.91-0.656-1.527
		c0-0.546,0.182-1.091,0.581-1.6c0.437-0.472,0.943-0.908,1.601-1.271c0.725-0.365,1.454-0.654,2.327-0.836
		c0.874-0.219,1.819-0.292,2.762-0.292c2.4,0,4.146,0.362,5.199,1.2c1.09,0.836,1.639,1.928,1.639,3.271V30.53H136.208z
		 M131.122,21.878l-1.457,0.729c-0.473,0.29-0.909,0.581-1.311,0.909c-0.36,0.362-0.725,0.654-0.979,1.019
		c-0.29,0.364-0.438,0.728-0.438,1.163c0,0.619,0.147,1.199,0.475,1.636c0.363,0.475,0.726,0.729,1.088,0.729
		c0.437,0,0.838-0.146,1.273-0.363l1.379-0.982v-4.835h-0.032v-0.004H131.122z"/>
</g>
</svg>
