<?xml version="1.0" encoding="utf-8"?>
<!-- Generator: Adobe Illustrator 16.0.0, SVG Export Plug-In . SVG Version: 6.00 Build 0)  -->
<!DOCTYPE svg PUBLIC "-//W3C//DTD SVG 1.1//EN" "http://www.w3.org/Graphics/SVG/1.1/DTD/svg11.dtd">
<svg version="1.1" id="Layer_1" xmlns="http://www.w3.org/2000/svg" xmlns:xlink="http://www.w3.org/1999/xlink" x="0px" y="0px"
	 width="232.445px" height="45.448px" viewBox="0 0 232.445 45.448" enable-background="new 0 0 232.445 45.448"
	 xml:space="preserve">
<g>
	<path fill="#FFFFFF" d="M0.065,4.804h17.126c2.371,0,4.479,0.264,6.389,0.659c1.977,0.526,3.557,1.317,4.94,2.107
		c1.317,0.922,2.371,1.976,3.096,3.293c0.79,1.187,1.186,2.635,1.186,4.085c0,1.976-0.461,3.557-1.317,4.874
		c-0.923,1.449-2.503,2.766-4.809,4.084c2.372,0.789,4.281,1.976,5.797,3.688c1.515,1.713,2.239,3.689,2.239,5.929
		c0,1.646-0.33,3.095-1.054,4.413c-0.658,1.317-1.713,2.635-3.03,3.557c-1.317,0.988-2.898,1.779-4.742,2.305
		c-1.845,0.659-3.952,0.922-6.191,0.922H0V4.738L0.065,4.804z M9.945,22.061H16.4c1.977,0,3.688-0.658,4.809-1.844
		c1.119-1.186,1.712-2.767,1.712-4.61c0-2.108-0.658-3.821-2.239-5.138c-1.515-1.317-3.951-1.976-7.113-1.976H9.88v13.503
		L9.945,22.061z M9.945,40.636h5.27c3.294,0,5.6-0.658,7.113-1.977c1.45-1.316,2.174-2.898,2.174-4.874
		c0-1.12-0.131-2.108-0.461-3.097c-0.329-0.987-0.856-1.777-1.581-2.502c-0.79-0.658-1.712-1.317-2.964-1.646
		c-1.186-0.396-2.634-0.659-4.413-0.659h-5.071v14.755H9.945z M64.154,44.785h-9.089V42.15l-1.45,1.317l-1.646,0.923l-1.976,0.658
		c-0.79,0.133-1.647,0.198-2.636,0.198c-1.448,0-2.634-0.198-3.819-0.659c-1.12-0.328-1.977-0.855-2.832-1.58
		c-0.791-0.659-1.317-1.516-1.778-2.438c-0.396-0.988-0.659-1.975-0.659-3.096c0-1.777,0.527-3.293,1.449-4.61
		c0.922-1.185,2.174-2.239,3.622-3.097c1.516-0.922,3.294-1.711,5.072-2.371c1.844-0.658,3.689-1.316,5.532-1.844l1.055-0.264V22.39
		c0-1.976-0.396-3.293-1.12-4.083c-0.658-0.791-1.712-1.186-2.964-1.186c-1.448,0-2.437,0.395-2.964,1.054s-0.79,1.515-0.79,2.503
		c0,0.658,0,1.186-0.198,1.712c-0.131,0.528-0.329,0.988-0.659,1.317c-0.329,0.463-0.789,0.792-1.316,0.988
		c-0.527,0.264-1.186,0.396-1.977,0.396c-1.317,0-2.371-0.33-3.161-1.055c-0.791-0.659-1.187-1.647-1.187-2.766
		c0-0.988,0.33-1.976,1.055-2.898c0.658-0.856,1.646-1.647,2.832-2.305c1.317-0.659,2.635-1.186,4.216-1.515
		c1.58-0.396,3.293-0.527,5.006-0.527c4.348,0,7.442,0.659,9.419,2.174c1.976,1.515,2.898,3.491,2.898,5.928v22.658H64.154z
		 M55.065,28.976l-2.635,1.318c-0.923,0.527-1.779,1.055-2.504,1.646c-0.658,0.658-1.317,1.186-1.777,1.845
		c-0.462,0.659-0.659,1.317-0.659,2.107c0,1.12,0.264,2.174,0.855,2.964c0.528,0.857,1.187,1.317,1.977,1.317
		c0.658,0,1.449-0.263,2.239-0.659l2.504-1.777v-8.629V28.976z M80.095,44.785H71.07V2.433l9.024-2.438V44.785z M95.31,44.785
		h-9.023V2.433l9.023-2.438V44.785z M115.268,45.443c-2.174,0-4.149-0.46-6.061-1.316c-1.844-0.659-3.49-1.778-4.874-3.161
		c-1.448-1.317-2.502-2.898-3.293-4.61c-0.855-1.846-1.317-3.756-1.317-5.732c0-2.37,0.462-4.609,1.186-6.586
		c0.79-1.976,1.845-3.82,3.162-5.27c1.317-1.514,3.03-2.634,4.939-3.49c1.977-0.857,4.084-1.317,6.455-1.317
		c2.108,0,3.952,0.395,5.797,1.054c1.713,0.658,3.293,1.581,4.479,2.634c1.186,1.054,2.174,2.634,2.898,4.149
		c0.658,1.647,0.987,3.294,0.987,5.138h-20.814c0,1.646,0.264,3.293,0.658,4.742c0.462,1.516,1.055,2.832,1.713,3.953
		c0.659,1.186,1.581,2.107,2.503,2.832c1.054,0.658,2.108,0.988,3.294,0.988c0.987,0,1.976-0.133,2.964-0.461
		c0.988-0.33,1.845-0.791,2.635-1.318c0.789-0.658,1.516-1.316,2.174-2.174c0.658-0.789,0.988-1.646,1.317-2.635l4.61,0.791
		c-0.396,1.58-1.12,3.096-2.174,4.611c-1.054,1.316-2.239,2.635-3.623,3.688c-1.317,1.054-2.964,1.976-4.61,2.634
		c-1.646,0.527-3.293,0.855-4.875,0.855H115.268z M119.22,23.707c-0.263-1.777-0.856-3.292-1.845-4.28
		c-0.988-1.12-2.239-1.647-3.688-1.647c-1.121,0-2.175,0.527-3.162,1.581c-0.923,1.12-1.516,2.635-1.713,4.413h10.341L119.22,23.707
		z M143.854,44.785h-9.088V14.486h9.088v2.24c0.988-1.054,2.107-1.844,3.294-2.503c1.317-0.658,2.635-0.922,3.952-0.922
		c0.658,0,1.514,0,2.238,0.33c0.658,0.131,1.318,0.395,1.977,0.79c0.461,0.396,0.856,0.791,1.186,1.318
		c0.264,0.461,0.461,0.988,0.461,1.581c0,1.054-0.461,1.976-1.317,2.634c-0.659,0.659-1.579,0.988-2.635,0.988
		c-0.79,0-1.317,0-1.843-0.329l-1.318-0.659c-0.329-0.329-0.658-0.658-1.12-0.791c-0.396-0.263-0.921-0.396-1.515-0.396
		c-0.593,0-1.12,0.462-1.779,1.317c-0.658,0.792-1.119,1.779-1.646,2.833v21.736L143.854,44.785z M159.266,5.067
		c0-1.317,0.528-2.305,1.45-3.162c0.988-0.987,2.107-1.317,3.491-1.317c1.316,0,2.438,0.33,3.425,1.317
		c0.921,0.791,1.317,1.845,1.317,3.096c0,1.186-0.396,2.239-1.317,3.097c-0.987,0.855-2.174,1.317-3.491,1.317
		c-1.448,0-2.635-0.461-3.557-1.317c-0.922-0.857-1.449-1.977-1.449-3.097L159.266,5.067z M159.729,16.266l9.088-2.635v31.154
		h-9.154V16.133L159.729,16.266z M193.518,24.103c0-1.581-0.33-2.767-0.922-3.556c-0.658-0.792-1.316-1.187-2.107-1.187
		s-1.779,0.264-2.965,0.856c-1.185,0.659-2.305,1.449-3.293,2.437v22.131h-9.222V14.486h9.222v2.372
		c1.316-1.054,2.767-1.778,4.414-2.305c1.579-0.461,3.16-0.659,4.807-0.659c1.187,0,2.371,0.197,3.492,0.659
		c1.119,0.527,2.107,1.186,2.898,1.976c0.855,0.856,1.514,1.778,1.977,2.898c0.525,1.186,0.789,2.371,0.789,3.623v21.736h-9.09
		V24.037V24.103z M232.248,44.785h-9.222V42.15l-1.448,1.317c-0.463,0.329-0.988,0.659-1.582,0.923l-1.975,0.658
		c-0.66,0.133-1.647,0.198-2.636,0.198c-1.317,0-2.634-0.198-3.821-0.659c-1.118-0.328-1.976-0.855-2.83-1.58
		c-0.66-0.659-1.318-1.516-1.779-2.438c-0.396-0.988-0.659-1.975-0.659-3.096c0-1.777,0.527-3.293,1.45-4.61
		c0.988-1.185,2.239-2.239,3.754-3.097c1.516-0.922,3.162-1.711,5.005-2.371l5.534-1.844l1.053-0.264V22.39
		c0-1.976-0.395-3.293-1.119-4.083c-0.658-0.791-1.713-1.186-2.965-1.186c-1.316,0-2.37,0.395-2.896,1.054s-0.791,1.515-0.791,2.503
		c0,0.658,0,1.186-0.197,1.712c0,0.528-0.264,0.988-0.658,1.317c-0.264,0.463-0.658,0.792-1.186,0.988
		c-0.659,0.264-1.318,0.396-2.107,0.396c-1.318,0-2.306-0.33-3.098-1.055c-0.789-0.659-1.184-1.647-1.184-2.766
		c0-0.988,0.328-1.976,1.053-2.898c0.791-0.856,1.714-1.647,2.898-2.305c1.318-0.659,2.635-1.186,4.215-1.515
		c1.581-0.396,3.293-0.527,5.007-0.527c4.347,0,7.508,0.659,9.419,2.174c1.975,1.515,2.963,3.491,2.963,5.928v22.658H232.248z
		 M223.026,29.109l-2.635,1.318c-0.855,0.525-1.646,1.053-2.372,1.646c-0.659,0.658-1.317,1.184-1.777,1.844
		c-0.528,0.658-0.791,1.316-0.791,2.107c0,1.119,0.263,2.174,0.857,2.965c0.658,0.855,1.317,1.316,1.976,1.316
		c0.79,0,1.515-0.264,2.306-0.658l2.502-1.779v-8.76H223.026z"/>
</g>
</svg>
