<svg xmlns="http://www.w3.org/2000/svg" width="353.6" height="102.3">
  <g fill="#252525">
    <path d="M.7 7.3h26c3.6 0 6.8.4 9.7 1 3 .8 5.4 2 7.5 3.2 2 1.4 3.6 3 4.7 5 1.2 1.8 1.8 4 1.8 6.2 0 3-.7 5.4-2 7.4-1.4 2.2-3.8 4.2-7.3 6.2 3.6 1.2 6.5 3 8.8 5.6 2.3 2.6 3.4 5.6 3.4 9 0 2.5-.5 4.7-1.6 6.7-1 2-2.6 4-4.6 5.4-2 1.5-4.4 2.7-7.2 3.5-2.8 1-6 1.4-9.4 1.4H.6V7.2zm15 26.2h9.8c3 0 5.6-1 7.3-2.8 1.7-1.8 2.6-4.2 2.6-7 0-3.2-1-5.8-3.4-7.8-2.3-2-6-3-10.8-3h-5.6v20.5zm0 28.2h8c5 0 8.5-1 10.8-3 2.2-2 3.3-4.4 3.3-7.4 0-1.7-.2-3.2-.7-4.7-.5-1.5-1.3-2.7-2.4-3.8-1.2-1-2.6-2-4.5-2.5-1.8-.6-4-1-6.7-1h-7.7v22.4zM98 68H84.2V64L82 66l-2.5 1.4-3 1c-1.2.2-2.5.3-4 .3-2.2 0-4-.3-5.8-1-1.7-.5-3-1.3-4.3-2.4-1.2-1-2-2.3-2.7-3.7-.6-1.5-1-3-1-4.7 0-2.7.8-5 2.2-7 1.4-1.8 3.3-3.4 5.5-4.7 2.3-1.4 5-2.6 7.7-3.6 2.8-1 5.6-2 8.4-2.8l1.6-.4V34c0-3-.6-5-1.7-6.2-1-1.2-2.6-1.8-4.5-1.8-2.2 0-3.7.6-4.5 1.6-.8 1-1.2 2.3-1.2 3.8 0 1 0 1.8-.3 2.6-.2.8-.5 1.5-1 2-.5.7-1.2 1.2-2 1.5-.8.4-1.8.6-3 .6-2 0-3.6-.5-4.8-1.6-1.2-1-1.8-2.5-1.8-4.2 0-1.5.5-3 1.6-4.4 1-1.3 2.5-2.5 4.3-3.5 2-1 4-1.8 6.4-2.3 2.4-.6 5-.8 7.6-.8 6.6 0 11.3 1 14.3 3.3s4.4 5.3 4.4 9V68zM84.2 44l-4 2c-1.4.8-2.7 1.6-3.8 2.5-1 1-2 1.8-2.7 2.8-.7 1-1 2-1 3.2 0 1.7.4 3.3 1.3 4.5.8 1.3 1.8 2 3 2 1 0 2.2-.4 3.4-1l3.8-2.7V44.2zM122.2 68h-13.7V3.7L122.2 0v68zM145.3 68h-13.7V3.7L145.3 0v68zM175.6 69c-3.3 0-6.3-.7-9.2-2-2.8-1-5.3-2.7-7.4-4.8-2.2-2-3.8-4.4-5-7-1.3-2.8-2-5.7-2-8.7 0-3.6.7-7 1.8-10 1.2-3 2.8-5.8 4.8-8 2-2.3 4.6-4 7.5-5.3 3-1.3 6.2-2 9.8-2 3.2 0 6 .6 8.8 1.6 2.6 1 5 2.4 6.8 4s3.3 4 4.4 6.3c1 2.5 1.5 5 1.5 7.8h-31.6c0 2.5.4 5 1 7.2.7 2.3 1.6 4.3 2.6 6 1 1.8 2.4 3.2 3.8 4.3 1.6 1 3.2 1.5 5 1.5 1.5 0 3-.2 4.5-.7 1.5-.5 2.8-1.2 4-2 1.2-1 2.3-2 3.3-3.3 1-1.2 1.5-2.5 2-4l7 1.2c-.6 2.4-1.7 4.7-3.3 7-1.6 2-3.4 4-5.5 5.6-2 1.6-4.5 3-7 4-2.5.8-5 1.3-7.4 1.3zm6-33c-.4-2.7-1.3-5-2.8-6.5-1.5-1.7-3.4-2.5-5.6-2.5-1.7 0-3.3.8-4.8 2.4-1.4 1.7-2.3 4-2.6 6.7h15.7zM219 68h-13.8V22H219v3.4c1.5-1.6 3.2-2.8 5-3.8 2-1 4-1.4 6-1.4 1 0 2.3 0 3.4.5 1 .2 2 .6 3 1.2.7.6 1.3 1.2 1.8 2 .4.7.7 1.5.7 2.4 0 1.6-.7 3-2 4-1 1-2.4 1.5-4 1.5-1.2 0-2 0-2.8-.5l-2-1c-.5-.5-1-1-1.7-1.2-.6-.4-1.4-.6-2.3-.6s-1.7.7-2.7 2c-1 1.2-1.7 2.7-2.5 4.3v33zM242.4 7.7c0-2 .8-3.5 2.2-4.8 1.5-1.5 3.2-2 5.3-2 2 0 3.7.5 5.2 2 1.4 1.2 2 2.8 2 4.7 0 1.8-.6 3.4-2 4.7-1.5 1.3-3.3 2-5.3 2-2.2 0-4-.7-5.4-2-1.4-1.3-2.2-3-2.2-4.7zm.7 17l13.8-4V68H243V24.5zM294.4 36.6c0-2.4-.5-4.2-1.4-5.4-1-1.2-2-1.8-3.2-1.8-1.2 0-2.7.4-4.5 1.3-1.8 1-3.5 2.2-5 3.7V68h-14V22h14v3.6c2-1.6 4.2-2.7 6.7-3.5 2.4-.7 4.8-1 7.3-1 1.8 0 3.6.3 5.3 1 1.7.8 3.2 1.8 4.4 3 1.3 1.3 2.3 2.7 3 4.4.8 1.8 1.2 3.6 1.2 5.5V68h-13.8V36.5zM353.2 68h-14V64L337 66c-.7.5-1.5 1-2.4 1.4l-3 1c-1 .2-2.5.3-4 .3-2 0-4-.3-5.8-1-1.7-.5-3-1.3-4.3-2.4-1-1-2-2.3-2.7-3.7-.6-1.5-1-3-1-4.7 0-2.7.8-5 2.2-7 1.5-1.8 3.4-3.4 5.7-4.7 2.3-1.4 4.8-2.6 7.6-3.6l8.4-2.8 1.6-.4V34c0-3-.6-5-1.7-6.2-1-1.2-2.6-1.8-4.5-1.8-2 0-3.6.6-4.4 1.6-.8 1-1.2 2.3-1.2 3.8 0 1 0 1.8-.3 2.6 0 .8-.4 1.5-1 2-.4.7-1 1.2-1.8 1.5-1 .4-2 .6-3.2.6-2 0-3.5-.5-4.7-1.6-1.2-1-1.8-2.5-1.8-4.2 0-1.5.5-3 1.6-4.4 1.2-1.3 2.6-2.5 4.4-3.5 2-1 4-1.8 6.4-2.3 2.4-.6 5-.8 7.6-.8 6.6 0 11.4 1 14.3 3.3 3 2.3 4.5 5.3 4.5 9V68zm-14-23.8l-4 2c-1.3.8-2.5 1.6-3.6 2.5-1 1-2 1.8-2.7 2.8-.8 1-1.2 2-1.2 3.2 0 1.7.4 3.3 1.3 4.5 1 1.3 2 2 3 2 1.2 0 2.3-.4 3.5-1l3.8-2.7V44.2z"/>
  </g>
  <g fill="#5F5F5F">
    <path d="M0 102.2V88.5h9V90H1.8v4.6H8V96H1.6v6.2H0zM11.8 102.2V88.5h1.7v12.2h7.7v1.5h-9.4zM33 100.7v1.5h-9.5V88.5h9.2V90h-7.4v4.5h6.4V96h-6.4v4.7H33zM36 88.5l4.3 5.7 4-5.7h2l-5 7 5 6.7h-2l-4-5.5-4 5.5h-2l5-6.7-5.2-7h2zM48.5 102.2V88.5h1.8v13.7h-1.8zM64.6 98.7c0 .5 0 1-.3 1.4-.2.6-.5 1-1 1.3-.3.3-.7.5-1.2.7-.4.2-1 .2-1.4.2H54V88.5h7c.4 0 .8 0 1.2.3l1 .8.6 1L64 92c0 .7-.2 1.3-.5 2-.3.5-.8 1-1.5 1.2.8.2 1.4.7 2 1.3.4.6.6 1.3.6 2.2zM55.8 90v4.6h4.4c.3 0 .6 0 .8-.2.3 0 .5-.3.7-.5l.4-.8c.2-.3.3-.6.3-1 0-.2 0-.5-.2-.8 0-.3 0-.5-.3-.7l-.6-.5-.7-.2h-4.5zm7 8.4v-1l-.6-.7-.6-.5-1-.2H56v4.7h4.8c.3 0 .6 0 1-.2l.6-.5.5-.7v-1zM67.5 102.2V88.5h1.8v12.2H77v1.5h-9.5zM88.6 100.7v1.5h-9.3V88.5h9V90H81v4.5h6.5V96H81v4.7h7.6zM113 102.2V88.5h5.7c.6 0 1.2 0 1.7.4.5 0 1 .5 1.3 1l1 1.3.2 1.6c0 .5-.2 1-.4 1.5-.2.6-.5 1-.8 1.4l-1.3 1c-.5.2-1 .3-1.7.3h-4v5H113zm1.7-6.4h4c.4 0 .7 0 1-.3.3 0 .6-.3.8-.6l.4-1v-1-1.2l-.6-1-.8-.5c-.3-.2-.6-.3-1-.3h-4v5.8zM131 102.3c-1 0-1.8-.2-2.5-.6-.8-.4-1.5-1-2-1.5-.7-.7-1-1.4-1.4-2.3-.2-1-.4-1.8-.4-2.6 0-1 .2-1.8.5-2.7l1.5-2.2c.6-.6 1.3-1 2-1.5.8-.4 1.7-.6 2.6-.6 1 0 2 .2 2.8.6.8.4 1.4 1 2 1.6.6.7 1 1.4 1.3 2.2.4 1 .6 1.7.6 2.6 0 1-.2 1.8-.5 2.6-.2 1-.7 1.6-1.3 2.2-.5.7-1.2 1.2-2 1.6-.8.3-1.7.5-2.6.5zm-4.6-7c0 .8 0 1.4.3 2 .3.7.6 1.3 1 1.8.4.6 1 1 1.5 1.3.6.3 1.2.5 2 .5.7 0 1.3-.2 2-.5.5-.3 1-.7 1.4-1.2l1-1.7.2-2c0-.6 0-1.3-.3-2-.2-.6-.6-1.2-1-1.7s-1-1-1.5-1.2-1.2-.4-2-.4c-.6 0-1.3 0-2 .5-.4.3-1 .7-1.3 1.2s-.8 1-1 1.7c-.2.6-.3 1.3-.3 2zM145 88.6h1.6l1.8 4.8 2-4.8h1.5l-2.4 6 2.3 5.6 4.6-11.7h2l-6 13.7h-1.4l-2.7-6.4-2.8 6.4h-1.5l-5.7-13.7h2l4.5 11.7 2.4-5.6-2.4-6zM170 100.7v1.5h-9.3V88.5h9.2V90h-7.5v4.5h6.4V96h-6.5v4.7h7.6zM173 102.2V88.5h5.8c.6 0 1.2 0 1.7.4.5 0 1 .5 1.3 1l.8 1.3s.4 1 .4 1.6c0 .4 0 .8-.2 1.3l-.6 1.2-1 1-1 .5 3.2 5.2h-2l-3-5h-3.7v5H173zm1.7-6.4h4c.5 0 .8 0 1-.3.4 0 .6-.3.8-.6l.5-1 .2-1c0-.5 0-1-.2-1.2 0-.3-.3-.6-.5-1l-.8-.5c-.3-.2-.7-.3-1-.3h-4v5.8zM186 102.2V88.5h9.2V90H188v4.6h6V96h-6v6.2h-2zM203.5 100.8c.8 0 1.5-.2 2-.5s1-.7 1.3-1.2c.3-.4.5-1 .6-1.6l.2-2v-7h1.8v7c0 1 0 2-.3 2.7s-.5 1.6-1 2.3c-.4.6-1 1-1.8 1.5-.7.3-1.6.5-2.7.5-1 0-2-.2-2.7-.5s-1.4-1-1.8-1.6-.8-1.4-1-2.2c-.2-.8-.3-1.7-.3-2.6v-7h1.7v7c0 .7 0 1.4.2 2l.7 1.7c.3.6.7 1 1.3 1.3s1 .5 2 .5zM213 102.2V88.5h1.7v12.2h7.7v1.5H213zM256.2 98.7c0 .5 0 1-.3 1.4s-.6 1-1 1.3c-.3.3-.8.5-1.3.7-.4.2-1 .2-1.5.2h-6.5V88.5h6.8c.5 0 1 0 1.3.3l1 .8c.3.3.5.7.6 1 .2.6.2 1 .2 1.4 0 .7 0 1.3-.5 2-.2.5-.7 1-1.3 1.2.7.2 1.4.7 1.8 1.3.5.6.7 1.3.7 2.2zm-8.8-8.7v4.6h4.4c.3 0 .6 0 .8-.2.3 0 .5-.3.7-.5l.4-.8c.2-.3.2-.6.2-1 0-.2 0-.5-.2-.8 0-.3-.3-.5-.5-.7 0-.2-.3-.4-.6-.5l-.8-.2h-4.6zm7 8.4v-1l-.6-.7c0-.2-.4-.4-.6-.5l-1-.2h-4.8v4.7h4.8c.3 0 .6 0 1-.2.2 0 .4-.3.6-.5l.5-.7.2-1zM268.5 100.7v1.5H259V88.5h9.3V90H261v4.5h6.3V96H261v4.7h7.5zM275.5 88.5h1.5l5.6 13.7h-2l-1.5-4h-5.7l-1.6 4H270l5.5-13.7zm3.2 8.4l-2.5-6.5-2.5 6.4h5zM290 100.8c.8 0 1.5-.2 2-.5s1-.7 1.3-1.2c.3-.4.5-1 .6-1.6v-9h2v7c0 1-.3 2-.5 2.7s-.5 1.6-1 2.3c-.4.6-1 1-1.8 1.5-.7.3-1.6.5-2.7.5-1 0-2-.2-2.8-.5s-1.3-1-1.8-1.6-.8-1.4-1-2.2c-.2-.8-.3-1.7-.3-2.6v-7h2v9c.2.7.5 1.2.8 1.7.3.6.7 1 1.2 1.3s1.2.5 2 .5zM309.3 90h-4.7v12.2H303V90h-5v-1.5h11.3V90zM311.8 102.2V88.5h1.7v13.7h-1.7zM317.3 102.2V88.5h9V90H319v4.6h6.2V96H319v6.2h-1.7zM334.7 100.8c.8 0 1.5-.2 2-.5s1-.7 1.3-1.2c.3-.4.5-1 .6-1.6l.2-2v-7h1.8v7c0 1 0 2-.3 2.7s-.6 1.6-1 2.3c-.5.6-1 1-2 1.5-.6.3-1.5.5-2.6.5-1 0-2-.2-2.7-.5s-1.4-1-1.8-1.6-.8-1.4-1-2.2c-.2-.8-.3-1.7-.3-2.6v-7h1.6v7c0 .7 0 1.4.2 2 0 .7.4 1.2.7 1.7.3.6.7 1 1.2 1.3s1.2.5 2 .5zM344.2 102.2V88.5h1.7v12.2h7.6v1.5h-9.4zM99.4 95c0 .7-.6 1.3-1.3 1.3-.7 0-1.3-.6-1.3-1.3 0-.7.6-1.3 1.4-1.3.8 0 1.4.6 1.4 1.3zM233.8 95c0 .7-.6 1.3-1.3 1.3-.8 0-1.4-.6-1.4-1.3s.7-1.3 1.5-1.3c.7 0 1.3.6 1.3 1.3z"/>
  </g>
</svg>
