<?xml version="1.0" encoding="utf-8"?>
<!-- Generator: Adobe Illustrator 16.0.0, SVG Export Plug-In . SVG Version: 6.00 Build 0)  -->
<!DOCTYPE svg PUBLIC "-//W3C//DTD SVG 1.1//EN" "http://www.w3.org/Graphics/SVG/1.1/DTD/svg11.dtd">
<svg version="1.1" id="Layer_1" xmlns="http://www.w3.org/2000/svg" xmlns:xlink="http://www.w3.org/1999/xlink" x="0px" y="0px"
	 width="452.03px" height="301.758px" viewBox="0 0 452.03 301.758" enable-background="new 0 0 452.03 301.758"
	 xml:space="preserve">
<g opacity="0.2">
	<g opacity="0.36">
		<g>
			<path fill="#A7A9AC" d="M21.781,277.032l4.446-28.969l0.127-0.033l22.455-5.454L21.781,277.032z M26.579,248.395l-4.157,27.17
				l25.341-32.315L26.579,248.395z"/>
		</g>
		<g>
			<polygon fill="#A7A9AC" points="376.817,34.177 345.205,43.504 332.626,17.919 376.805,32.351 376.803,31.922 331.836,17.234 
				344.99,43.997 376.82,34.591 			"/>
		</g>
		<g>
			<polygon fill="#A7A9AC" points="376.935,51.847 373.443,52.728 376.879,43.469 376.871,42.317 372.795,53.312 376.938,52.267 			
				"/>
		</g>
		<g>
			<polygon fill="#A7A9AC" points="376.955,55.104 373.639,53.1 376.938,52.267 376.935,51.847 372.598,52.939 376.959,55.587 			
				"/>
		</g>
		<g>
			<path fill="#A7A9AC" d="M344.652,43.397l28.664,9.475l0.004,0.135l1.656,41.999l-0.381,0.114L344.652,43.397z M372.922,53.167
				l-27.38-9.055l28.997,50.087L372.922,53.167z"/>
		</g>
		<g>
			<path fill="#A7A9AC" d="M21.761,276.411l0.18-0.238l26.382-33.64l25.487,48.259L21.761,276.411z M48.257,243.278l-25.806,32.906
				l50.56,13.961L48.257,243.278z"/>
		</g>
		<g>
			<polygon fill="#A7A9AC" points="377.229,96.421 375.229,95.076 377.217,94.396 377.213,93.966 374.32,94.954 377.232,96.913 			
				"/>
		</g>
		<g>
			<polygon fill="#A7A9AC" points="377.213,93.966 374.968,94.736 373.335,53.388 376.959,55.587 376.955,55.104 372.902,52.644 
				374.572,95.023 374.582,95.294 377.217,94.396 			"/>
		</g>
		<g>
			<polygon fill="#A7A9AC" points="303.056,-8.56 302.627,-8.557 283.805,46.483 269.25,-8.336 268.828,-8.333 283.583,47.239 
				283.758,47.89 			"/>
		</g>
		<g>
			<polygon fill="#A7A9AC" points="376.871,42.317 372.994,52.762 345.777,43.763 376.82,34.591 376.817,34.177 344.416,43.739 
				373.24,53.276 376.879,43.469 			"/>
		</g>
		<g>
			<polygon fill="#A7A9AC" points="318.211,37.917 310.738,-8.61 310.324,-8.608 317.752,37.626 284.098,46.895 303.056,-8.56 
				302.627,-8.557 283.59,47.12 283.465,47.486 			"/>
		</g>
		<g>
			<path fill="#A7A9AC" d="M317.754,37.515l27.603,6.083l-0.067,0.215l-20.782,65.854l-0.397-0.037L317.754,37.515z M344.834,43.904
				l-26.627-5.876l6.221,70.552L344.834,43.904z"/>
		</g>
		<g>
			<path fill="#A7A9AC" d="M47.656,242.584l79.55,15.387l-33.533,29.32L47.656,242.584z M126.309,258.215l-77.386-14.973
				l44.761,43.495L126.309,258.215z"/>
		</g>
		<g>
			<path fill="#A7A9AC" d="M317.639,37.905l0.177-0.247l14.444-20.481l13.207,26.865L317.639,37.905z M332.197,17.97l-13.874,19.676
				l26.405,5.813L332.197,17.97z"/>
		</g>
		<g>
			<polygon fill="#A7A9AC" points="316.717,-8.65 331.988,17.566 318.103,37.251 310.738,-8.61 310.324,-8.608 317.858,38.301 
				332.395,17.699 332.473,17.587 317.186,-8.653 			"/>
		</g>
		<g>
			<polygon fill="#A7A9AC" points="378.755,326.723 366.014,319.477 378.719,321.092 378.715,320.678 365.045,318.952 
				364.916,319.327 378.759,327.192 			"/>
		</g>
		<g>
			<polygon fill="#A7A9AC" points="378.715,320.678 365.633,319.02 378.653,311.325 378.65,310.856 364.404,319.282 
				378.719,321.092 			"/>
		</g>
		<g>
			<path fill="#A7A9AC" d="M324.025,109.479l51.195-14.809l-32.65,53.487L324.025,109.479z M374.328,95.36l-49.729,14.385
				l18.013,37.571L374.328,95.36z"/>
		</g>
		<g>
			<path fill="#A7A9AC" d="M377.958,206.326l-35.538-59.27l-2.533,55.838l-0.006,0.19l38.08,3.766L377.958,206.326z
				 M340.303,202.725l2.464-54.305l34.764,57.981L340.303,202.725z"/>
		</g>
		<g>
			<path fill="#A7A9AC" d="M235.368,80.541l46.23,18.943l-27.386,23.37L235.368,80.541z M280.828,99.601l-44.676-18.295
				l18.211,40.881L280.828,99.601z"/>
		</g>
		<g>
			<path fill="#A7A9AC" d="M270.461,259.516l45.625,35.482l-0.156,0.357l-32.67-5.207l-0.045-0.094L270.461,259.516z
				 M315.211,294.831l-43.777-34.051l12.113,29.002L315.211,294.831z"/>
		</g>
		<g>
			<polygon fill="#A7A9AC" points="378.65,310.856 365.124,318.848 336.275,242.053 378.367,268.053 378.363,267.569 
				335.479,241.074 364.828,319.223 364.913,319.452 378.653,311.325 			"/>
		</g>
		<g>
			<path fill="#A7A9AC" d="M283.459,47.065l0.27-0.073l34.432-9.48l6.354,72.083l-0.372,0.122L283.459,47.065z M317.798,38.031
				l-33.694,9.277l39.938,61.504L317.798,38.031z"/>
		</g>
		<g>
			<polygon fill="#A7A9AC" points="378.363,267.569 336.225,241.546 377.835,206.979 377.965,207.279 377.958,206.342 
				335.529,241.591 378.367,268.053 			"/>
		</g>
		<g>
			<path fill="#A7A9AC" d="M228.688,128.345l6.973-48.141l18.912,42.457L228.688,128.345z M235.859,81.649l-6.686,46.176
				l24.825-5.445L235.859,81.649z"/>
		</g>
		<g>
			<path fill="#A7A9AC" d="M377.959,206.445l-38.049-3.757l-4.289,39.354l42.34-35.176L377.959,206.445z M340.27,203.13
				l37.139,3.668l-41.273,34.287L340.27,203.13z"/>
		</g>
		<g>
			<polygon fill="#A7A9AC" points="269.25,-8.336 268.828,-8.333 283.498,46.913 253.904,40.456 261.924,-8.287 261.512,-8.285 
				253.438,40.776 284.065,47.459 			"/>
		</g>
		<g>
			<path fill="#A7A9AC" d="M180.434,173.613l39.946,11.998l-30.344,38.526L180.434,173.613z M219.691,185.83l-38.729-11.633
				l9.306,48.986L219.691,185.83z"/>
		</g>
		<g>
			<path fill="#A7A9AC" d="M47.555,242.974l73.226-28.033l0.033,0.245l6.187,43.167l-0.279-0.061L47.555,242.974z M120.451,215.498
				l-71.427,27.347l77.489,15.005L120.451,215.498z"/>
		</g>
		<g>
			<path fill="#A7A9AC" d="M315.568,294.731l49.982,24.455l-34.961,11.787L315.568,294.731z M364.486,319.122l-48.131-23.545
				l14.467,34.885L364.486,319.122z"/>
		</g>
		<g>
			<path fill="#A7A9AC" d="M315.705,295.254l0.066-0.174l20.104-54.096l29.511,78.577L315.705,295.254z M335.879,242.145
				l-19.662,52.909l48.43,23.688L335.879,242.145z"/>
		</g>
		<g>
			<path fill="#A7A9AC" d="M189.524,224.133l30.556-38.79l10.513,22.42L189.524,224.133z M219.99,186.106l-29.21,37.09
				l39.263-15.651L219.99,186.106z"/>
		</g>
		<g>
			<path fill="#A7A9AC" d="M286.491,200.294l53.823,2.423l-0.021,0.206l-4.256,39.038L286.491,200.294z M339.865,203.101
				l-52.195-2.355l48.047,40.423L339.865,203.101z"/>
		</g>
		<g>
			<path fill="#A7A9AC" d="M286.855,200.712l0.022-0.215l5.062-54.211l48.612,56.842L286.855,200.712z M292.256,147.277
				l-4.953,53.043l52.33,2.361L292.256,147.277z"/>
		</g>
		<g>
			<polygon fill="#A7A9AC" points="261.924,-8.287 261.512,-8.285 253.545,40.132 217.154,-5.759 222.719,-8.027 221.627,-8.02 
				216.752,-6.026 216.498,-5.929 253.514,40.744 253.797,41.107 			"/>
		</g>
		<g>
			<path fill="#A7A9AC" d="M235.275,81.509l18.279-41.122l0.158,0.039l30.564,6.658L235.275,81.509z M253.792,40.853l-17.547,39.483
				l47.04-33.047L253.792,40.853z"/>
		</g>
		<g>
			<path fill="#A7A9AC" d="M235.339,80.969l48.666-34.185l-2.603,53.058l-0.268-0.108L235.339,80.969z M283.558,47.597
				l-47.377,33.288l44.845,18.365L283.558,47.597z"/>
		</g>
		<g>
			<polygon fill="#A7A9AC" points="218.621,-8 218.12,-7.997 216.854,-6.227 215.938,-7.982 215.479,-7.979 216.799,-5.455 			"/>
		</g>
		<g>
			<path fill="#A7A9AC" d="M201.631,73.664l34.359,7.103l-0.031,0.182l-6.918,47.807L201.631,73.664z M235.531,81.087l-33.162-6.855
				l26.457,53.184L235.531,81.087z"/>
		</g>
		<g>
			<path fill="#A7A9AC" d="M230.027,206.949l41.256,53.301l-33.506,11.379L230.027,206.949z M270.611,260.047l-40.004-51.689
				l7.516,62.722L270.611,260.047z"/>
		</g>
		<g>
			<path fill="#A7A9AC" d="M270.508,260.055l65.699-18.796l-20.15,54.232L270.508,260.055z M335.549,241.869l-64.158,18.364
				l44.48,34.594L335.549,241.869z"/>
		</g>
		<g>
			<path fill="#A7A9AC" d="M270.657,260.436l16.31-60.273l0.243,0.205l49.091,41.288l-0.369,0.098L270.657,260.436z
				 M287.189,200.876l-15.953,58.976l64.217-18.38L287.189,200.876z"/>
		</g>
		<g>
			<path fill="#A7A9AC" d="M219.53,186.219l34.683-63.983l38.281,24.555L219.53,186.219z M254.362,122.807l-33.821,62.406
				l71.154-38.448L254.362,122.807z"/>
		</g>
		<g>
			<path fill="#A7A9AC" d="M219.676,185.433l67.447,14.889l-0.018,0.396l-56.91,7.159L219.676,185.433z M285.885,200.464
				l-65.49-14.457l10.045,21.425L285.885,200.464z"/>
		</g>
		<g>
			<path fill="#A7A9AC" d="M201.716,74.378l0.084-0.469l14.91-80.221l37.259,46.981l-0.186,0.12L201.716,74.378z M216.947-5.36
				l-14.662,78.877l51.088-32.946L216.947-5.36z"/>
		</g>
		<g>
			<path fill="#A7A9AC" d="M201.471,74.046l52.666-33.973l-18.26,41.082L201.471,74.046z M253.211,41.159l-50.682,32.689
				l33.11,6.849L253.211,41.159z"/>
		</g>
		<g>
			<path fill="#A7A9AC" d="M219.46,185.807l72.873-39.38L292.3,146.8l-5.039,53.965L219.46,185.807z M291.857,147.146
				l-71.243,38.495l66.281,14.634L291.857,147.146z"/>
		</g>
		<g>
			<path fill="#A7A9AC" d="M229.939,207.498l57.414-7.219l-0.078,0.295l-16.24,60.018L229.939,207.498z M286.805,200.76
				l-56.107,7.05l40.162,51.896L286.805,200.76z"/>
		</g>
		<g>
			<path fill="#A7A9AC" d="M237.396,270.901l46.25,18.943l-0.047,0.176l-9.066,34.732L237.396,270.901z M283.162,290.086
				l-44.656-18.287l35.859,51.994L283.162,290.086z"/>
		</g>
		<g>
			<path fill="#A7A9AC" d="M210.886,285.038l27.132-13.951l36.6,53.068l-0.271,0.289L210.886,285.038z M237.885,271.612
				l-26.173,13.461l62.021,38.51L237.885,271.612z"/>
		</g>
		<g>
			<path fill="#A7A9AC" d="M219.837,185.693l8.916-57.778l25.925-5.683l-0.213,0.382l-34.25,63.204L219.837,185.693z
				 M229.113,128.255l-8.696,56.34l33.478-61.777L229.113,128.255z"/>
		</g>
		<g>
			<path fill="#A7A9AC" d="M237.371,271.331l33.691-11.438l0.072,0.174l12.646,30.277L237.371,271.331z M270.832,260.405
				l-32.301,10.965l44.494,18.225L270.832,260.405z"/>
		</g>
		<g>
			<path fill="#A7A9AC" d="M170.565,30.128L217.127-6.33l-15.015,80.785L170.565,30.128z M216.531-5.342l-45.41,35.546
				l30.767,43.235L216.531-5.342z"/>
		</g>
		<g>
			<path fill="#A7A9AC" d="M145.347,187.704l0.19-0.073l35.524-14.085l-19.858,50.847L145.347,187.704z M180.343,174.266
				l-34.455,13.664l15.3,35.39L180.343,174.266z"/>
		</g>
		<g>
			<path fill="#A7A9AC" d="M189.962,223.726l0.332-0.209l47.999,47.886l-27.111,13.943l-0.072-0.223L189.962,223.726z
				 M237.609,271.297l-46.979-46.871l20.786,60.337L237.609,271.297z"/>
		</g>
		<g>
			<path fill="#A7A9AC" d="M47.765,243.331l33.546-50.129l39.781,22.053L47.765,243.331z M81.441,193.742l-32.626,48.747
				l71.316-27.308L81.441,193.742z"/>
		</g>
		<g>
			<path fill="#A7A9AC" d="M189.791,223.592l0.286-0.121l40.414-16.104l7.729,64.545L189.791,223.592z M230.149,207.94
				l-39.635,15.797l47.163,47.058L230.149,207.94z"/>
		</g>
		<g>
			<path fill="#A7A9AC" d="M133.726,61.614l37.156-31.742l0.127,0.173l31.447,44.193L133.726,61.614z M170.814,30.468
				l-36.168,30.894l66.897,12.295L170.814,30.468z"/>
		</g>
		<g>
			<path fill="#A7A9AC" d="M180.31,174.003l48.914-46.472l-9.024,58.454L180.31,174.003z M228.639,128.646l-47.544,45.169
				l38.776,11.64L228.639,128.646z"/>
		</g>
		<g>
			<path fill="#A7A9AC" d="M173.811,237.254l16.439-13.937l21.242,61.669l-0.355,0.191L173.811,237.254z M190.055,224.011
				l-15.68,13.303l36.332,46.662L190.055,224.011z"/>
		</g>
		<g>
			<path fill="#A7A9AC" d="M165.802,254.428l8.245-17.526l37.414,48.028l-0.277,0.297L165.802,254.428z M174.14,237.664
				l-7.832,16.62l44.039,29.885L174.14,237.664z"/>
		</g>
		<g>
			<path fill="#A7A9AC" d="M162.676,310.04l3.201-56.057l45.818,31.098L162.676,310.04z M166.24,254.727l-3.125,54.633
				l47.787-24.322L166.24,254.727z"/>
		</g>
		<g>
			<path fill="#A7A9AC" d="M42.014,185.682l7.018-57.894l42.675,9.057L42.014,185.682z M49.384,128.277l-6.821,56.304l48.318-47.493
				L49.384,128.277z"/>
		</g>
		<g>
			<path fill="#A7A9AC" d="M86.262,88.326l31.545,23.012L91.13,137.412L86.262,88.326z M117.181,111.39L86.752,89.196l4.697,47.332
				L117.181,111.39z"/>
		</g>
		<g>
			<path fill="#A7A9AC" d="M147.738,159.202l54.285-85.667l27.188,54.662l-0.206,0.082L147.738,159.202z M201.978,74.36
				l-53.235,84.024l79.908-30.404L201.978,74.36z"/>
		</g>
		<g>
			<path fill="#A7A9AC" d="M147.712,158.772l0.459-0.177l80.689-30.696l0.213,0.332l-48.335,45.922L147.712,158.772z
				 M228.059,128.635l-79.298,30.18l31.897,14.854L228.059,128.635z"/>
		</g>
		<g>
			<path fill="#A7A9AC" d="M160.898,224.061l19.867-50.878l9.631,50.683L160.898,224.061z M180.632,174.645L161.5,223.644
				l28.41-0.181L180.632,174.645z"/>
		</g>
		<g>
			<path fill="#A7A9AC" d="M145.381,188.125l2.678-29.642l33.156,15.443L145.381,188.125z M148.414,159.102l-2.567,28.401
				l34.335-13.609L148.414,159.102z"/>
		</g>
		<g>
			<polygon fill="#A7A9AC" points="119.015,-7.341 118.601,-7.338 121.884,14.719 98.55,-7.205 97.963,-7.201 122.456,15.817 			"/>
		</g>
		<g>
			<polygon fill="#A7A9AC" points="122.302,15.422 122.476,15.271 98.55,-7.205 97.963,-7.201 121.873,15.266 92.852,41.355 
				88.83,-7.141 88.426,-7.138 92.473,41.795 92.508,42.208 			"/>
		</g>
		<g>
			<path fill="#A7A9AC" d="M48.111,243.001l0.317-0.239l45.687,44.385L73.3,290.7L48.111,243.001z M93.256,286.881l-44.186-42.933
				l24.449,46.296L93.256,286.881z"/>
		</g>
		<g>
			<path fill="#A7A9AC" d="M117.16,111.739l16.89-50.484l0.168,0.03l68.468,12.578L117.16,111.739z M134.322,61.722l-16.485,49.267
				l83.479-36.957L134.322,61.722z"/>
		</g>
		<g>
			<path fill="#A7A9AC" d="M117.188,111.271l0.222-0.097l85.122-37.683l-54.293,85.676L117.188,111.271z M201.469,74.404
				l-83.676,37.045l30.441,46.971L201.469,74.404z"/>
		</g>
		<g>
			<path fill="#A7A9AC" d="M126.562,258.024l9.865-26.194l17.372,1.822l-26.902,24.59L126.562,258.024z M136.699,232.266
				l-9.45,25.11l25.599-23.416L136.699,232.266z"/>
		</g>
		<g>
			<path fill="#A7A9AC" d="M126.167,258.36l27.201-24.87l13.038,21.03L126.167,258.36z M153.278,234.117l-25.938,23.719
				l38.373-3.654L153.278,234.117z"/>
		</g>
		<g>
			<path fill="#A7A9AC" d="M86.13,88.74l48.419-27.696l-16.946,50.646L86.13,88.74z M133.825,61.932L86.876,88.783l30.516,22.256
				L133.825,61.932z"/>
		</g>
		<g>
			<path fill="#A7A9AC" d="M86.261,89.137l6.251-47.659l42.111,19.987L86.261,89.137z M92.841,42.087l-6.078,46.299l46.979-26.884
				L92.841,42.087z"/>
		</g>
		<g>
			<path fill="#A7A9AC" d="M126.387,257.93l39.889-3.807l-3.209,56.176L126.387,257.93z M165.834,254.579l-38.715,3.688
				l35.612,50.836L165.834,254.579z"/>
		</g>
		<g>
			<path fill="#A7A9AC" d="M81.1,193.84l0.07-0.397l9.917-56.507l0.406,0.021l4.32,49.178L81.1,193.84z M91.225,138.53
				l-9.582,54.575l13.739-7.207L91.225,138.53z"/>
		</g>
		<g>
			<path fill="#A7A9AC" d="M90.921,137.048l26.606-26.01l0.137,0.213l31.083,47.952L90.921,137.048z M117.46,111.682l-25.802,25.21
				l56.066,21.484L117.46,111.682z"/>
		</g>
		<g>
			<path fill="#A7A9AC" d="M91.053,136.666l57.675,22.1l-0.396,0.21l-52.916,27.368l-0.018-0.303L91.053,136.666z M147.744,158.821
				l-56.225-21.548l4.252,48.425L147.744,158.821z"/>
		</g>
		<g>
			<path fill="#A7A9AC" d="M94.812,186.195l53.659-27.761l-2.67,29.592l-0.198-0.006L94.812,186.195z M148,159.137l-51.618,26.708
				l49.042,1.755L148,159.137z"/>
		</g>
		<g>
			<path fill="#A7A9AC" d="M41.875,185.253L91.6,136.385l-10.063,57.324L41.875,185.253z M90.98,137.564l-48.28,47.444l38.515,8.227
				L90.98,137.564z"/>
		</g>
		<g>
			<path fill="#A7A9AC" d="M80.947,193.468l14.696-7.697l25.123,29.312l-0.252,0.312L80.947,193.468z M95.544,186.278l-13.74,7.198
				l37.926,21.01L95.544,186.278z"/>
		</g>
		<g>
			<path fill="#A7A9AC" d="M55.526,67.477l37.414-26.129l-6.267,47.77l-0.279-0.188L55.526,67.477z M92.413,42.209L56.241,67.48
				L86.35,88.405L92.413,42.209z"/>
		</g>
		<g>
			<path fill="#A7A9AC" d="M48.811,128.154L86.667,88.3l4.851,48.927L48.811,128.154z M86.356,89.223l-36.752,38.688l41.458,8.803
				L86.356,89.223z"/>
		</g>
		<g>
			<path fill="#A7A9AC" d="M48.942,128.615l6.779-61.498l31.1,21.61L48.942,128.615z M56.052,67.838l-6.578,59.622l36.719-38.673
				L56.052,67.838z"/>
		</g>
	</g>
	<g>
		<path fill="#E6E7E8" d="M371.803,53.381c-0.484-1.759,2.148-2.476,2.632-0.723C374.915,54.41,372.285,55.134,371.803,53.381z"/>
		<path fill="#E6E7E8" d="M373.459,95.381c-0.484-1.76,2.147-2.483,2.631-0.732C376.57,96.409,373.943,97.125,373.459,95.381z"/>
		<path fill="#E6E7E8" d="M343.779,44.116c-0.48-1.76,2.146-2.476,2.633-0.73C346.895,45.145,344.264,45.869,343.779,44.116z"/>
		<path fill="#E6E7E8" d="M330.914,17.939c-0.483-1.752,2.148-2.477,2.633-0.725C334.03,18.976,331.399,19.691,330.914,17.939z"/>
		<path fill="#E6E7E8" d="M377.951,205.278c-0.814-0.003-1.643,0.679-1.354,1.725c0.203,0.744,0.797,1.042,1.372,1.007
			L377.951,205.278z"/>
		<path fill="#E6E7E8" d="M316.667,38.134c-0.485-1.751,2.147-2.477,2.628-0.725C319.778,39.161,317.147,39.894,316.667,38.134z"/>
		<path fill="#E6E7E8" d="M341.275,148.104c-0.48-1.761,2.148-2.485,2.632-0.732C344.391,149.132,341.759,149.855,341.275,148.104z"
			/>
		<path fill="#E6E7E8" d="M323,109.979c-0.484-1.761,2.146-2.485,2.627-0.733C326.111,111.007,323.48,111.723,323,109.979z"/>
		<path fill="#E6E7E8" d="M338.773,203.267c-0.479-1.761,2.152-2.477,2.633-0.725C341.89,204.294,339.259,205.026,338.773,203.267z"
			/>
		<path fill="#E6E7E8" d="M363.703,319.508c-0.48-1.744,2.146-2.477,2.631-0.717C366.814,320.543,364.188,321.268,363.703,319.508z"
			/>
		<path fill="#E6E7E8" d="M282.466,47.549c-0.485-1.752,2.147-2.477,2.632-0.725C285.58,48.585,282.95,49.301,282.466,47.549z"/>
		<path fill="#E6E7E8" d="M334.562,241.921c-0.483-1.752,2.148-2.475,2.629-0.716C337.676,242.957,335.043,243.682,334.562,241.921z
			"/>
		<path fill="#E6E7E8" d="M296.598,127.148c-0.486-1.76,2.146-2.476,2.631-0.725C299.709,128.176,297.081,128.899,296.598,127.148z"
			/>
		<path fill="#E6E7E8" d="M279.897,99.908c-0.479-1.76,2.147-2.477,2.633-0.732C283.014,100.937,280.383,101.66,279.897,99.908z"/>
		<path fill="#E6E7E8" d="M290.781,147.144c-0.484-1.752,2.147-2.483,2.627-0.724C293.894,148.18,291.265,148.896,290.781,147.144z"
			/>
		<path fill="#E6E7E8" d="M252.355,40.982c-0.48-1.752,2.148-2.484,2.632-0.726C255.472,42.01,252.84,42.733,252.355,40.982z"/>
		<path fill="#E6E7E8" d="M329.389,331.084c-0.48-1.752,2.147-2.484,2.631-0.725C332.504,332.112,329.872,332.836,329.389,331.084z"
			/>
		<path fill="#E6E7E8" d="M314.647,295.516c-0.485-1.752,2.147-2.475,2.628-0.717C317.76,296.551,315.131,297.276,314.647,295.516z"
			/>
		<path fill="#E6E7E8" d="M285.764,200.886c-0.482-1.759,2.148-2.483,2.628-0.732C288.877,201.913,286.244,202.637,285.764,200.886z
			"/>
		<path fill="#E6E7E8" d="M252.969,122.879c-0.48-1.744,2.148-2.476,2.633-0.716C256.085,123.914,253.453,124.639,252.969,122.879z"
			/>
		<path fill="#E6E7E8" d="M215.513-5.478c-0.483-1.76,2.147-2.476,2.628-0.725C218.625-4.449,215.992-3.719,215.513-5.478z"/>
		<path fill="#E6E7E8" d="M304.312,327.366c-0.483-1.744,2.148-2.475,2.632-0.715C307.428,328.403,304.796,329.125,304.312,327.366z
			"/>
		<path fill="#E6E7E8" d="M234.445,81.292c-0.484-1.76,2.146-2.484,2.631-0.731C237.561,82.32,234.928,83.036,234.445,81.292z"/>
		<path fill="#E6E7E8" d="M282.088,290.331c-0.483-1.75,2.148-2.477,2.633-0.723C285.2,291.36,282.572,292.092,282.088,290.331z"/>
		<path fill="#E6E7E8" d="M269.635,260.506c-0.484-1.752,2.146-2.475,2.626-0.725C272.744,261.534,270.113,262.266,269.635,260.506z
			"/>
		<path fill="#E6E7E8" d="M227.617,128.447c-0.484-1.752,2.147-2.477,2.633-0.725C230.729,129.475,228.102,130.208,227.617,128.447z
			"/>
		<path fill="#E6E7E8" d="M273.135,324.635c-0.482-1.76,2.148-2.477,2.633-0.725C276.248,325.663,273.619,326.395,273.135,324.635z"
			/>
		<path fill="#E6E7E8" d="M200.686,74.306c-0.483-1.753,2.148-2.477,2.629-0.717C203.799,75.341,201.166,76.065,200.686,74.306z"/>
		<path fill="#E6E7E8" d="M229.002,208.012c-0.48-1.752,2.148-2.476,2.633-0.717C232.118,209.048,229.486,209.772,229.002,208.012z"
			/>
		<path fill="#E6E7E8" d="M218.72,186.083c-0.48-1.752,2.147-2.478,2.632-0.717C221.836,187.109,219.203,187.843,218.72,186.083z"/>
		<path fill="#E6E7E8" d="M236.635,271.715c-0.484-1.76,2.148-2.475,2.633-0.723C239.748,272.743,237.119,273.467,236.635,271.715z"
			/>
		<path fill="#E6E7E8" d="M169.528,30.531c-0.48-1.76,2.151-2.476,2.631-0.731C172.648,31.559,170.016,32.283,169.528,30.531z"/>
		<path fill="#E6E7E8" d="M230.293,346.336c-0.486-1.752,2.146-2.484,2.627-0.723C233.403,347.364,230.772,348.088,230.293,346.336z
			"/>
		<path fill="#E6E7E8" d="M209.982,285.424c-0.484-1.76,2.147-2.484,2.633-0.73C213.1,286.454,210.467,287.168,209.982,285.424z"/>
		<path fill="#E6E7E8" d="M179.39,174.272c-0.488-1.76,2.145-2.477,2.632-0.726C182.494,175.3,179.871,176.031,179.39,174.272z"/>
		<path fill="#E6E7E8" d="M188.836,224.025c-0.487-1.751,2.148-2.483,2.632-0.723C191.953,225.062,189.32,225.777,188.836,224.025z"
			/>
		<path fill="#E6E7E8" d="M120.858,15.631c-0.488-1.752,2.143-2.484,2.632-0.725C123.962,16.658,121.339,17.382,120.858,15.631z"/>
		<path fill="#E6E7E8" d="M132.871,61.842c-0.489-1.743,2.143-2.477,2.631-0.717C135.991,62.878,133.358,63.603,132.871,61.842z"/>
		<path fill="#E6E7E8" d="M172.774,237.641c-0.48-1.752,2.151-2.476,2.63-0.716C175.894,238.677,173.262,239.401,172.774,237.641z"
			/>
		<path fill="#E6E7E8" d="M146.92,159.15c-0.48-1.751,2.152-2.475,2.632-0.723C150.041,160.187,147.408,160.904,146.92,159.15z"/>
		<path fill="#E6E7E8" d="M159.884,224.21c-0.489-1.752,2.144-2.476,2.63-0.716C162.995,225.246,160.363,225.971,159.884,224.21z"/>
		<path fill="#E6E7E8" d="M161.219,231.635c-0.489-1.761,2.143-2.483,2.631-0.731C164.33,232.662,161.699,233.387,161.219,231.635z"
			/>
		<path fill="#E6E7E8" d="M164.74,254.721c-0.48-1.76,2.144-2.484,2.631-0.732C167.859,255.749,165.227,256.465,164.74,254.721z"/>
		<path fill="#E6E7E8" d="M144.302,188.18c-0.489-1.76,2.143-2.477,2.631-0.733C147.414,189.206,144.782,189.932,144.302,188.18z"/>
		<path fill="#E6E7E8" d="M152.008,234.165c-0.488-1.752,2.144-2.483,2.631-0.724C155.119,235.201,152.496,235.917,152.008,234.165z
			"/>
		<path fill="#E6E7E8" d="M116.175,111.723c-0.481-1.752,2.151-2.478,2.632-0.726C119.294,112.759,116.663,113.474,116.175,111.723z
			"/>
		<path fill="#E6E7E8" d="M140.347,209.782c-0.489-1.751,2.143-2.477,2.631-0.724C143.458,210.818,140.827,211.534,140.347,209.782z
			"/>
		<path fill="#E6E7E8" d="M91.364,42.144c-0.487-1.751,2.145-2.484,2.632-0.724C94.477,43.172,91.844,43.896,91.364,42.144z"/>
		<path fill="#E6E7E8" d="M161.58,310.063c-0.48-1.752,2.151-2.477,2.631-0.723C164.7,311.09,162.068,311.823,161.58,310.063z"/>
		<path fill="#E6E7E8" d="M135.255,232.41c-0.488-1.761,2.144-2.477,2.632-0.725C138.367,233.438,135.735,234.17,135.255,232.41z"/>
		<path fill="#E6E7E8" d="M124.536,206.354c-0.48-1.759,2.152-2.477,2.632-0.731C127.656,207.381,125.023,208.105,124.536,206.354z"
			/>
		<path fill="#E6E7E8" d="M85.196,89.127c-0.489-1.76,2.144-2.484,2.631-0.731C88.307,90.154,85.675,90.879,85.196,89.127z"/>
		<path fill="#E6E7E8" d="M119.293,215.577c-0.48-1.753,2.15-2.484,2.631-0.725C122.413,216.611,119.78,217.329,119.293,215.577z"/>
		<path fill="#E6E7E8" d="M125.438,258.459c-0.472-1.76,2.152-2.475,2.632-0.723C128.557,259.487,125.925,260.211,125.438,258.459z"
			/>
		<path fill="#E6E7E8" d="M89.978,137.333c-0.488-1.76,2.145-2.477,2.631-0.726C93.09,138.359,90.458,139.092,89.978,137.333z"/>
		<path fill="#E6E7E8" d="M94.281,186.383c-0.48-1.761,2.145-2.477,2.625-0.725C97.394,187.41,94.762,188.135,94.281,186.383z"/>
		<path fill="#E6E7E8" d="M54.575,67.841c-0.487-1.76,2.144-2.477,2.633-0.733C57.679,68.868,55.056,69.593,54.575,67.841z"/>
		<path fill="#E6E7E8" d="M80.06,193.831c-0.488-1.752,2.144-2.478,2.632-0.716C83.172,194.857,80.54,195.59,80.06,193.831z"/>
		<path fill="#E6E7E8" d="M92.37,287.379c-0.489-1.76,2.143-2.484,2.631-0.732C95.481,288.407,92.851,289.131,92.37,287.379z"/>
		<path fill="#E6E7E8" d="M47.892,128.399c-0.48-1.761,2.152-2.477,2.632-0.725C51.012,129.427,48.38,130.158,47.892,128.399z"/>
		<path fill="#E6E7E8" d="M72.094,290.833c-0.488-1.758,2.144-2.475,2.632-0.725C75.206,291.862,72.583,292.592,72.094,290.833z"/>
		<path fill="#E6E7E8" d="M40.973,185.497c-0.481-1.76,2.151-2.484,2.624-0.733C44.084,186.524,41.452,187.241,40.973,185.497z"/>
		<path fill="#E6E7E8" d="M46.969,243.271c-0.48-1.761,2.152-2.477,2.632-0.724C50.09,244.299,47.458,245.023,46.969,243.271z"/>
		<path fill="#E6E7E8" d="M25.086,248.586c-0.479-1.752,2.144-2.476,2.632-0.725C28.207,249.622,25.575,250.338,25.086,248.586z"/>
		<path fill="#E6E7E8" d="M20.793,276.657c-0.488-1.76,2.144-2.477,2.625-0.725C23.897,277.684,21.266,278.417,20.793,276.657z"/>
	</g>
</g>
</svg>
