<?xml version="1.0" encoding="utf-8"?>
<!-- Generator: Adobe Illustrator 16.0.0, SVG Export Plug-In . SVG Version: 6.00 Build 0)  -->
<!DOCTYPE svg PUBLIC "-//W3C//DTD SVG 1.1//EN" "http://www.w3.org/Graphics/SVG/1.1/DTD/svg11.dtd">
<svg version="1.1" id="Layer_1" xmlns="http://www.w3.org/2000/svg" xmlns:xlink="http://www.w3.org/1999/xlink" x="0px" y="0px"
	 width="30px" height="30px" viewBox="0 0 30 30" enable-background="new 0 0 30 30" xml:space="preserve">
<g id="XMLID_2_">
	<path id="XMLID_7_" fill="#333333" d="M15,4.844C9.375,4.844,4.844,9.375,4.844,15S9.375,25.156,15,25.156S25.156,20.625,25.156,15
		S20.625,4.844,15,4.844z M15,6.719c4.594,0,8.281,3.719,8.281,8.281c0,4.594-3.719,8.281-8.281,8.281
		c-4.594,0-8.281-3.719-8.281-8.281C6.719,10.406,10.406,6.719,15,6.719z M13.906,8.375L13.594,15l5.094,5.125l0.906-0.75
		l-4.156-4.969l-0.281-6.031H13.906z"/>
</g>
</svg>
