<svg xmlns="http://www.w3.org/2000/svg" width="512" height="512">
  <path d="M403 512H123c-1-.3-1.8-.8-2.7-1-39.4-6.2-67.6-39-67.6-79V80c0-38 25.7-70 62.7-78l7.6-2h209c1 .3 1.8.8 2.8 1 13 3 24.5 8.7 34.2 18.4 28.7 29 57.7 57.7 86.5 86.7 11.7 12 17.8 26.4 17.8 43.2v283.4c0 36.3-24.5 68-59.7 77L403 512zM327.2 40h-7c-47 0-94-.2-141 0-16.2 0-32.4-.4-48.5 0-20.8.6-38 18.3-38 39 0 118 0 236 .2 354 0 5.5 1.3 11.4 3.7 16.3 8 16.2 21.7 23 39.4 23 57-.2 114 0 171-.2 29.3 0 58.5.3 87.6-.2 5.7 0 11.7-1.7 16.8-4.2 16.6-8.3 22.5-23 22.4-40.8v-273c0-2.2-.3-4.3-.4-6.5-.2-3.5-1.8-4.8-5.4-4.7-14.4.2-28.7 0-43 0-32.2 0-57.8-25.8-57.8-57.8v-45z"/>
  <path fill-rule="evenodd" d="M262.7 296.3h-104c-15 0-25-10-25-24 .2-12.8 10.4-22.8 24-23H367c15.4 0 25.8 10.2 25.3 24.8-.4 11.2-9 20.7-20.2 22-2.2.2-4.5.3-7 .3H262.8zM262.5 398.3H159c-9.5 0-17.2-3.3-22.2-11.7-9-15.2 1.5-34 19.5-35.2h210.9c15.3 0 25.6 10.3 25 24.8-.3 11-9 20.4-19.8 21.7-2.4.3-5 .3-7.4.3H262.5zM218.3 194.3h-60.5c-17.3-.3-28.5-16-22.7-31.7 3.4-9 12-15.2 22-15.2 41-.2 81.7-.2 122.5 0 13.3 0 23.5 10.6 23.4 23.5 0 13-10 23-23.7 23.2-20.4.2-40.7 0-61 0z" clip-rule="evenodd"/>
</svg>
