<?xml version="1.0" encoding="utf-8"?>
<!-- Generator: Adobe Illustrator 16.0.0, SVG Export Plug-In . SVG Version: 6.00 Build 0)  -->
<!DOCTYPE svg PUBLIC "-//W3C//DTD SVG 1.1//EN" "http://www.w3.org/Graphics/SVG/1.1/DTD/svg11.dtd">
<svg version="1.1" id="Layer_1" xmlns="http://www.w3.org/2000/svg" xmlns:xlink="http://www.w3.org/1999/xlink" x="0px" y="0px"
	 width="512px" height="512px" viewBox="0 0 512 512" enable-background="new 0 0 512 512" xml:space="preserve">
<g>
	<path d="M403.045,512.029c-93.344,0-186.688,0-280.032,0c-0.907-0.337-1.789-0.836-2.725-0.984
		c-39.347-6.248-67.546-39.164-67.548-78.914c-0.006-117.419-0.005-234.838,0-352.257C52.741,41.96,78.352,10.1,115.381,1.89
		c2.56-0.568,5.088-1.276,7.632-1.919c69.675,0,139.348,0,209.023,0c0.904,0.348,1.781,0.812,2.716,1.024
		c13.096,2.985,24.592,8.665,34.21,18.384c28.71,29.014,57.751,57.699,86.494,86.682c11.758,11.856,17.828,26.379,17.838,43.146
		c0.055,94.465,0.033,188.929,0.023,283.394c-0.004,36.264-24.566,67.864-59.728,76.878
		C410.087,510.376,406.561,511.181,403.045,512.029z M327.152,39.859c-2.739,0-4.864,0-6.988,0
		c-47.001,0-94.003-0.011-141.005,0.006c-16.167,0.006-32.342-0.235-48.498,0.202c-20.806,0.564-37.933,18.226-37.943,38.916
		c-0.06,118.005-0.08,236.011,0.134,354.015c0.01,5.461,1.445,11.381,3.847,16.29c7.922,16.202,21.687,22.935,39.44,22.896
		c57.002-0.12,114.005-0.032,171.008-0.05c29.167-0.009,58.337,0.148,87.498-0.303c5.621-0.087,11.67-1.723,16.721-4.248
		c16.629-8.314,22.484-22.879,22.463-40.785c-0.105-91.005-0.046-182.008-0.065-273.013c-0.001-2.155-0.291-4.311-0.389-6.468
		c-0.159-3.481-1.753-4.782-5.401-4.732c-14.331,0.196-28.668,0.121-43.001,0.07c-32.136-0.112-57.81-25.822-57.819-57.853
		C327.148,70.144,327.152,55.485,327.152,39.859z"/>
	<path fill-rule="evenodd" clip-rule="evenodd" d="M262.681,296.271c-34.647-0.001-69.295,0.051-103.943-0.024
		c-14.976-0.032-25.124-9.858-24.987-23.881c0.125-12.911,10.369-22.878,23.938-23.014c13.658-0.136,27.318-0.031,40.977-0.031
		c56.136,0,112.272-0.014,168.408,0.009c15.365,0.007,25.709,10.203,25.228,24.732c-0.369,11.124-9.07,20.611-20.194,21.907
		c-2.307,0.269-4.652,0.29-6.98,0.291C330.978,296.278,296.829,296.272,262.681,296.271z"/>
	<path fill-rule="evenodd" clip-rule="evenodd" d="M262.521,398.283c-34.481-0.001-68.962-0.05-103.444,0.03
		c-9.579,0.022-17.289-3.351-22.25-11.706c-9.048-15.241,1.491-34.155,19.521-35.253c0.831-0.051,1.666-0.021,2.499-0.021
		c69.463-0.001,138.924-0.016,208.387,0.011c15.255,0.006,25.612,10.361,25.064,24.89c-0.41,10.896-8.971,20.319-19.855,21.711
		c-2.466,0.315-4.983,0.323-7.479,0.325C330.817,398.29,296.669,398.283,262.521,398.283z"/>
	<path fill-rule="evenodd" clip-rule="evenodd" d="M218.296,194.252c-20.153,0.003-40.308,0.17-60.458-0.048
		c-17.369-0.188-28.584-15.953-22.776-31.567c3.332-8.959,11.959-15.245,22.004-15.274c40.804-0.117,81.61-0.159,122.415,0.015
		c13.329,0.057,23.482,10.629,23.436,23.556c-0.048,12.983-10.032,23.092-23.663,23.253
		C258.938,194.429,238.616,194.25,218.296,194.252z"/>
</g>
</svg>
