<svg xmlns="http://www.w3.org/2000/svg" width="500" height="485.7">
  <path fill="none" stroke="#000" stroke-width=".5" stroke-miterlimit="10" d="M20 70.8h460V469H20z"/>
  <path fill="#FFF" stroke="#000" stroke-width=".5" stroke-miterlimit="10" d="M10 9.3h482v21H10z"/>
  <path fill="#939598" d="M441.8 22.2v-3h.7V23H435v-7.6h3.7v.7H435.8v6.2h6zm-.4-5.5l-1-.8.4-.6 1.7 1.6-1.4 1.6-.3-.5.6-.7c-1.8.2-3 1-4 2.2 0 .3-.3.6-.4 1-.2.2-.3.5-.3.7v.3h-.6v-.3l.3-.6c0-.3 0-.6.3-1l.5-.8 1-1 1.5-.7 2-.3zM455.8 22.2v-3h.7V23H449v-7.6h3.7v.7H449.8v6.2h6zm.7-6.8v.6h-.3s-.4 0-.7.2c-.4 0-.7.3-1 .5-1.2.8-2 2-2 4l.7-.7.4.4-1.6 1.4-1.5-1.7.4-.3.8 1c0-.7.2-1.4.4-2s.4-1 .7-1.3l.8-1 1-.5c.3-.3.6-.4.8-.4l.7-.2h.2zM465.2 15.4h3v1h1.7v1h-6.7v-1h2v-1zm-1.4 2.7h5.7v5h-5.7v-5zm1.3.7v3.6h1v-3.6h-1zm2.3 0v3.6h1v-3.6h-1zM481 21.2l-4-3.6.7-.6 3.2 3 3-3 .7.7-3.8 3.5z"/>
  <path fill="#939598" stroke="#000" stroke-width=".3" stroke-miterlimit="10" d="M431.3 15.3v8M445.6 15.7v8M459.8 15.3v8M473.5 15.3v8"/>
  <path d="M9.8 9.3h18v21H10z"/>
  <path fill="#FFF" d="M22 16.7l-.3.5h-1l-.5 2.7-1 2.7c-.4 1-1 1.5-1.4 2l-1 .3c-.4 0-.6 0-.7-.3v-.4-.3h.7V24.6h.7c0-.2.3-.3.5-.6l.3-1 .5-1.6 1-4.2h-1v-.5h.8l.4-.3.4-.8.7-1 1-1 1-.2c.4 0 .6 0 .8.2.2.2.3.3.3.5v.5h-.7s-.2 0-.2-.2l.2-.3v-.2s0-.2-.2-.2c-.3 0-.5 0-.7.3-.3 0-.5.4-.7 1-.2.2-.4.8-.7 1.7h1z"/>
  <path d="M35.3 49.8c1-1 2.3-1.6 3.8-1.6s2.8.5 3.8 1.6c1 1 1.6 2.3 1.6 3.7 0 1.5-.5 2.7-1.6 3.8s-2.3 1.5-3.7 1.5-2.6-.5-3.7-1.5-1.5-2.3-1.5-3.8c0-1.4.5-2.7 1.5-3.7zm2 5.8v-.4c-.3 0-.4-.2-.4-.4v-.3-.4c0-.2-.2-.4-.4-.5.2 0 .3-.3.3-.5v-.4-.4c0-.2 0-.3.2-.3h.2v-.5h-.2c-.5 0-.8.2-.8.7v.8c0 .2 0 .4-.2.4v.3c.2 0 .3 0 .3.3v.8c0 .5.2.8.7.8h.2zm2-.6l1-3h-.5l-.5 1.5-.2 1c0-.3 0-.6-.2-1l-.5-1.4h-.5l1 3h.5zm2.7-1.3v-.3c-.2 0-.4-.2-.4-.4v-.4-.4c0-.5 0-.7-.7-.7h-.2v.4c.4 0 .5 0 .5.2v.8c0 .2 0 .4.2.5-.2 0-.3.3-.3.6v.8c0 .2 0 .4-.3.4h-.2v.4h.2c.5 0 .7-.3.7-.8v-.4-.4c0-.2 0-.3.3-.3z"/>
  <path fill="#AEADAE" d="M46 49.6h7.5V57H46z"/>
  <path fill="#FFF" d="M52 53v.5h-2v2h-.5v-2h-2V53h2v-2h.5v2h2z"/>
  <path fill="#EFEFEF" d="M55.2 48.2H66V59H55z"/>
  <path fill="#8D8D8D" d="M58.6 53.3l3-3 .4.4-2.5 2.6L62 56l-.5.4-3-3z"/>
  <path fill="none" stroke="#000" stroke-width=".5" stroke-miterlimit="10" d="M10 30.3h482v450H10z"/>
  <g>
    <path fill="#FFF" stroke="#000" stroke-width=".5" stroke-miterlimit="10" d="M20 71h460v21H20z"/>
    <path fill="#939598" d="M430 83.8v-3h.6v3.7H423V77h4v.7h-3.2v6h6zm-.5-5.5l-1-1 .5-.3 1.6 1.6-1.4 1.5-.4-.3.7-.8c-2 0-3.2.8-4 2l-.5 1v.8l-.2.3h-.6V83l.2-.6.3-1c0-.2.3-.5.6-.8.2-.4.5-.7 1-1 .3-.2.7-.5 1.3-.7l2-.4zM444 83.8v-3h.6v3.7H437V77h4v.7h-3.2v6h6zm.6-6.8v.6h-.3l-.7.2c-.4 0-.7.3-1 .5-1.2.8-2 2-2 4l.7-.8.4.5-1.6 1.4-1.4-1.7.4-.4 1 1c0-.7 0-1.4.3-2l.7-1.3 1-1 1-.6.8-.3h.8zM453.3 77h3v1h1.8v1h-6.6v-1h2v-1zm-1.4 2.6h5.6v5H452v-5zm1.2.7v3.5h1v-3.5h-1zm2.2 0v3.5h1v-3.5h-1zM469 82.8l-3.7-3.6.5-.6 3.2 3 3.3-3 .5.6-3.8 3.6z"/>
    <path fill="#939598" stroke="#000" stroke-width=".3" stroke-miterlimit="10" d="M433.8 76.7V85M448 76.3v8.2M461.6 76.8V85"/>
    <path d="M20 71h18v20.8H20z"/>
    <path fill="#FFF" d="M32 78.3v.4h-1l-.7 2.7c-.3 1.2-.6 2.2-1 2.8-.4 1-.8 1.6-1.3 2l-1.2.3c-.2 0-.4 0-.6-.2L26 86c0-.2 0-.3.2-.4l.4-.2h.2l.2.4-.2.2v.2h.7l.5-.6.5-1L29 83l1-4.3h-1v-.4h.7l.4-.3.6-.8c.2-.5.4-1 .7-1 .3-.5.6-.8 1-1 .3-.2.6-.2 1-.2.2 0 .5 0 .6.2l.2.5v.4c-.2.2-.3.2-.5.2h-.3v-.3-.4-.2c0-.2 0-.2-.2-.2-.3 0-.5 0-.7.3-.3.2-.6.5-.8 1l-.6 1.8h1z"/>
    <path d="M45.5 111.3c1-1 2.3-1.5 3.7-1.5s2.7.5 3.8 1.5c1 1 1.5 2.3 1.5 3.8 0 1.6-.5 2.8-1.5 3.8s-2.3 1.6-3.8 1.6-2.7-.5-3.7-1.6-1.6-2.2-1.6-3.7c0-1.4.4-2.6 1.5-3.7zm2 5.8v-.2c-.4 0-.5-.2-.5-.4v-.4-.4c0-.2 0-.4-.2-.5.2 0 .3-.2.3-.5v-.3-.4c0-.2 0-.4.4-.4v-.3c-.6 0-.8.3-.8.8v.8c0 .2 0 .3-.3.3v.3c.2 0 .4 0 .4.3v.8c0 .5 0 .7.6.7h.2zm2-.5l1-3H50l-.5 1.6-.3 1c0-.2 0-.5-.3-1l-.5-1.4H48l1 3h.4zm2.7-1.2v-.4c-.3 0-.4-.2-.4-.4v-.4-.4c0-.5-.2-.7-.7-.7v.4c.3 0 .4.2.4.4v.8c0 .3 0 .5.2.6l-.2.6v.8c0 .2 0 .4-.3.4v.3c.6 0 1 0 1-.6l-.2-.4v-.4c0-.2 0-.3.3-.3h.2z"/>
    <path fill="#AEADAE" d="M56.2 111.2h7.4v7.4h-7.4z"/>
    <path fill="#FFF" d="M62.2 114.6v.5h-2v2.2h-.6v-2h-2v-.6h2v-2h.5v2h2.2z"/>
    <path fill="#EFEFEF" d="M65.3 109.8H76v10.7H65.3z"/>
    <path fill="#8D8D8D" d="M68.8 115l3-3.2.4.5-2.6 2.6 2.5 2.5-.4.5-2.8-3z"/>
  </g>
  <g>
    <path fill="#FFF" stroke="#000" stroke-miterlimit="10" d="M200.7 140.2h158.5V179H200.7z"/>
    <text transform="translate(219.823 162.956)" font-family="'MyriadPro-Regular'" font-size="18">
      ResourceWorker
    </text>
    <path fill="#FFF" stroke="#000" stroke-width=".5" stroke-miterlimit="10" d="M200.7 239.7H361v38.6H200.6z"/>
    <path fill="none" stroke="#000" stroke-miterlimit="10" d="M281 178.8v62"/>
    <path d="M235.2 252.2h1.6v5.5c.3-.5.7-1 1-1.2.6-.2 1.2-.4 1.8-.4 1 0 3 .8 3 3.8v5.2H241v-5c0-1.4-.5-2.6-2-2.6-1 0-1.8.7-2 1.6-.2.2-.2.4-.2.7v5.3h-1.6v-12.8zM247 253.8v2.5h2.3v1.2H247v4.7c0 1 .3 1.7 1.2 1.7l1-.2v1.2l-1.4.2c-.7 0-1.3-.3-1.7-.7-.4-.5-.5-1.2-.5-2.3v-4.7H244v-1.2h1.5v-2l1.5-.5zM253 253.8v2.5h2.2v1.2H253v4.7c0 1 .3 1.7 1.2 1.7l1-.2v1.2l-1.4.2c-.8 0-1.4-.3-1.8-.7-.4-.5-.6-1.2-.6-2.3v-4.7H250v-1.2h1.4v-2l1.6-.5zM257 259v-2.7h1.4v1.5c.7-1 1.8-1.7 3.2-1.7 2 0 3.7 2 3.7 4.5 0 3-2 4.7-4 4.7-1 0-2-.5-2.7-1.4v4.8H257V259zm1.6 2.5v.6c.4 1.2 1.3 2 2.4 2 1.7 0 2.7-1.4 2.7-3.4 0-1.8-1-3.3-2.6-3.3-1 0-2 .8-2.3 2v2.2zM267 257.7c0-.6.3-1 1-1s1 .4 1 1c0 .7-.4 1-1 1-.7 0-1-.3-1-1zm0 6.4c0-.6.3-1 1-1s1 .4 1 1c0 .7-.4 1.2-1 1.2-.7 0-1-.5-1-1zM277.2 264.7c-.4.2-1.3.5-2.5.5-2.6 0-4.3-1.8-4.3-4.5s1.8-4.6 4.6-4.6c1 0 1.8.3 2.2.6l-.3 1.2c-.5-.2-1-.4-2-.4-2 0-3 1.4-3 3.3 0 2 1.3 3.2 3 3.2 1 0 1.5-.3 2-.5l.2 1.2zM286.8 260.6c0 3.2-2.2 4.6-4.3 4.6-2.4 0-4.2-1.7-4.2-4.5 0-3 2-4.6 4.3-4.6 2.5 0 4.2 2 4.2 4.6zm-7 0c0 2 1.2 3.4 2.8 3.4 1.5 0 2.6-1.4 2.6-3.4 0-1.5-.7-3.3-2.6-3.3-2 0-2.7 1.7-2.7 3.4zM288.8 258.6v-2.3h1.4v1.4c.5-.8 1.5-1.6 3-1.6 1.2 0 3 .8 3 3.8v5.2h-1.5v-5c0-1.4-.6-2.6-2-2.6-1 0-2 .7-2.2 1.6v6h-1.7v-6.4zM299.2 256.3l1.7 5 .6 2 .8-2 1.7-5h1.8l-3.5 8.7h-1.5l-3.3-8.7h1.7zM308 261c0 2 1.4 3 3 3 1 0 1.8-.2 2.3-.5l.3 1c-.5.4-1.5.7-3 .7-2.6 0-4.2-1.8-4.2-4.4s1.6-4.7 4-4.7c3 0 3.7 2.6 3.7 4.2v.7h-6zm4.6-1.2c0-1-.4-2.6-2.2-2.6-1.6 0-2.3 1.5-2.4 2.6h4.6zM316 259v-2.7h1.4v1.7c.5-1.2 1.5-2 2.5-2h.4v1.6h-.6c-1 0-2 .8-2 2V265H316v-6zM320.6 264c0-.6.5-1 1-1s1.2.4 1.2 1c0 .7-.4 1.2-1 1.2-.7 0-1.2-.5-1.2-1zM324.4 264c0-.6.4-1 1-1s1 .4 1 1c0 .7-.3 1.2-1 1.2-.6 0-1-.5-1-1z"/>
    <path fill="#FFF" stroke="#000" stroke-width=".5" stroke-miterlimit="10" d="M200.8 300H361v38.5H200.8z"/>
    <path fill="none" stroke="#000" stroke-miterlimit="10" d="M281.3 279.4V300"/>
    <g>
      <path d="M263 312.2l3-.2c1.6 0 2.7.3 3.4 1 .6.5 1 1.3 1 2.3 0 1.6-1 2.6-2.3 3 1 .4 1.6 1.3 2 2.6.3 1.6.5 2.7.8 3.2h-1.6c-.2-.4-.5-1.4-.8-3-.4-1.6-1-2.2-2.5-2.3h-1.5v5.2H263v-12zm1.5 5.5h1.6c1.7 0 2.8-1 2.8-2.3 0-1.5-1-2.2-2.8-2.2h-1.5v4.5zM273.5 320c0 2.3 1.4 3 3 3 1 0 1.8 0 2.4-.3l.2 1c-.6.4-1.6.7-3 .7-2.6 0-4.2-1.8-4.2-4.4s1.5-4.7 4-4.7c3 0 3.7 2.5 3.7 4v.8h-6.2zm4.6-1c0-1-.3-2.6-2-2.6s-2.4 1.5-2.5 2.6h4.6zM281.6 318.3v-2.8h1.4v1.5c.7-1 1.7-1.7 3.2-1.7 2 0 3.7 1.8 3.7 4.4 0 3-2 4.7-4 4.7-1.3 0-2.3-.5-2.8-1.4v4.8h-1.6v-9.5zm1.6 2.3v.7c.3 1 1.3 1.8 2.4 1.8 1.7 0 2.7-1.2 2.7-3.2 0-1.8-1-3.3-2.6-3.3-1 0-2 .8-2.4 2v2.2zM292 311.4h1.4v12.8H292v-12.8zM296.7 315.5l2 5c0 .7.3 1.4.4 2h.2c0-.6.3-1.3.5-2l1.8-5h1.6l-2.2 6.2c-1.2 3-2 4.5-3 5.4-.8.8-1.6 1-2 1.2l-.4-1.4c.4 0 1-.3 1.4-.7.5-.3 1-1 1.4-1.7v-.4-.5l-3.2-8h1.7z"/>
    </g>
    <path fill="#FFF" stroke="#000" stroke-miterlimit="10" d="M200.7 400.2h158.5V439H200.7z"/>
    <g>
      <text transform="translate(219.823 422.956)" font-family="'MyriadPro-Regular'" font-size="18">
        ResourceWorker
      </text>
    </g>
    <path fill="none" stroke="#000" stroke-miterlimit="10" d="M281 338.5v62"/>
    <g>
      <path d="M66.2 178.3c-.6.3-1.7.5-3.2.5-3.4 0-6-2-6-6s2.6-6.5 6.3-6.5c1.5 0 2.5.4 3 .6l-.5 1.2c-.6-.3-1.4-.6-2.4-.6-3 0-4.8 2-4.8 5s1.7 5 4.7 5c1 0 2-.3 2.6-.6l.2 1.3zM68 166h1.7v12.7H68V166zM74 167.5c0 .5-.3 1-1 1-.5 0-1-.5-1-1 0-.6.6-1 1-1 .7 0 1 .4 1 1zm-1.7 11.2V170H74v8.7h-1.7zM77.4 174.6c0 2 1.4 3 3 3 1.2 0 1.8-.2 2.4-.4l.3 1c-.5.4-1.4.7-2.8.7-2.7-.2-4.3-2-4.3-4.5s1.5-4.7 4-4.7c3 0 3.6 2.5 3.6 4v.8h-6.2zm4.7-1c0-1-.3-2.7-2-2.7s-2.4 1.4-2.6 2.5H82zM85.6 172.3V170h1.3v1.4c.5-.8 1.5-1.6 3-1.6 1 0 3 .7 3 3.7v5.2h-1.6v-5c0-1.5-.5-2.6-2-2.6-1 0-2 .8-2 1.7-.2.2-.3.5-.3.7v5.3h-1.4v-6.4zM97.4 167.5v2.5h2.3v1.2h-2.3v4.7c0 1 .3 1.6 1.2 1.6.4 0 .7 0 1-.2v1.2c-.3.2-.8.2-1.4.2-.8 0-1.4-.2-1.7-.6-.5-.5-.7-1.3-.7-2.3V171h-1.3V170h1.3v-2l1.6-.5z"/>
    </g>
    <path fill="none" stroke="#000" stroke-width=".99999" stroke-miterlimit="10" d="M34.2 175.7l46-46.2 46.3 46.2-46.2 46z"/>
    <g>
      <path d="M66 402.8c-.6.2-1.7.5-3.2.5-3.4 0-6-2-6-6s2.6-6.5 6.3-6.5c1.7 0 2.6.3 3 .6l-.4 1.2c-.5-.2-1.4-.5-2.4-.5-2.8 0-4.7 2-4.7 5s1.7 5 4.6 5c1 0 2-.2 2.7-.5l.3 1.3zM68 390.4h1.5v12.8H68v-12.8zM74 392c0 .5-.5 1-1 1-.6 0-1-.5-1-1 0-.6.4-1 1-1 .5 0 1 .4 1 1zM72 403.2v-8.8h1.5v8.8h-1.5zM77.3 399c0 2.2 1.4 3 3 3 1 0 1.8 0 2.4-.3l.2 1c-.6.4-1.6.6-3 .6-2.7 0-4.3-1.7-4.3-4.4s1.6-4.8 4-4.8c3 0 3.7 2.5 3.7 4.2v.7h-6zm4.6-1c0-1-.5-2.6-2.3-2.6-1.6 0-2.3 1.5-2.4 2.6H82zM85.4 396.8v-2.4h1.3v1.5c.6-1 1.6-1.8 3-1.8 1.2 0 3 .8 3 3.8v5.2h-1.5v-5c0-1.5-.5-2.6-2-2.6-1 0-1.8.7-2 1.6-.2.2-.2.4-.2.7v5.2h-1.6v-6.4zM97.2 392v2.4h2.3v1.2h-2.3v4.7c0 1 .3 1.7 1.2 1.7h1v1c-.3.2-.8.3-1.4.3-.7 0-1.3-.2-1.7-.6-.5-.5-.6-1.3-.6-2.3v-4.8h-1.4v-1.2h1.4v-2l1.5-.5z"/>
    </g>
    <path fill="none" stroke="#000" stroke-width=".99999" stroke-miterlimit="10" d="M34 400l46.2-46 46.2 46-46.2 46.3z"/>
    <path fill="none" stroke="#000" stroke-width="1.5" stroke-miterlimit="10" d="M80.4 221.8V354"/>
    <g>
      <path fill="none" stroke="#000" stroke-width="1.5" stroke-miterlimit="10" d="M190.2 259H80.4"/>
      <path d="M188 251.8l12.7 7.2-12.7 7.3"/>
    </g>
    <g>
      <path fill="none" stroke="#000" stroke-width="1.5" stroke-miterlimit="10" d="M91 319.2h109.7"/>
      <path d="M93 326.5l-12.6-7.3L93 312"/>
    </g>
  </g>
</svg>
