<?xml version="1.0" encoding="utf-8"?>
<!-- Generator: Adobe Illustrator 16.0.0, SVG Export Plug-In . SVG Version: 6.00 Build 0)  -->
<!DOCTYPE svg PUBLIC "-//W3C//DTD SVG 1.1//EN" "http://www.w3.org/Graphics/SVG/1.1/DTD/svg11.dtd">
<svg version="1.1" xmlns="http://www.w3.org/2000/svg" xmlns:xlink="http://www.w3.org/1999/xlink" x="0px" y="0px" width="500px"
	 height="485.667px" viewBox="0 0 500 485.667" enable-background="new 0 0 500 485.667" xml:space="preserve">
<g id="Layer_1">
	
		<rect x="19.981" y="70.782" fill="none" stroke="#000000" stroke-width="0.4823" stroke-miterlimit="10" width="459.972" height="398.235"/>
	
		<rect x="9.86" y="9.346" fill="#FFFFFF" stroke="#000000" stroke-width="0.536" stroke-miterlimit="10" width="482.054" height="20.988"/>
	<g>
		<path fill="#939598" d="M441.812,22.225l-0.015-2.915h0.721v3.65h-7.536v-7.536c0.628,0,1.879,0,3.754,0v0.721
			c-0.167,0-0.386,0-0.655,0c-0.271,0-0.68-0.002-1.229-0.007s-0.937-0.007-1.163-0.007l0.016,6.094H441.812z M441.37,16.735
			l-0.942-0.869l0.412-0.441l1.678,1.56l-1.428,1.575l-0.427-0.412l0.677-0.81c-1.854,0.187-3.174,0.893-3.959,2.12
			c-0.196,0.294-0.352,0.611-0.464,0.949c-0.113,0.338-0.174,0.601-0.184,0.788l-0.029,0.28h-0.589c0-0.059,0.005-0.14,0.015-0.243
			s0.051-0.307,0.125-0.611c0.073-0.304,0.174-0.596,0.302-0.875c0.127-0.28,0.323-0.594,0.589-0.942
			c0.265-0.348,0.574-0.657,0.927-0.927c0.354-0.27,0.817-0.513,1.392-0.729S440.673,16.793,441.37,16.735z"/>
	</g>
	<g>
		<g>
			<path fill="#939598" d="M455.811,22.225l-0.015-2.915l0.721-0.015v3.665h-7.536v-7.536c0.628,0,1.879,0,3.754,0v0.707
				c-0.167,0-0.386,0-0.655,0c-0.271,0-0.68,0-1.229,0s-0.937,0-1.163,0l0.016,6.094H455.811z M456.517,15.425v0.589
				c-0.078,0-0.182,0.007-0.309,0.022c-0.128,0.015-0.371,0.079-0.729,0.191c-0.358,0.113-0.689,0.268-0.994,0.463
				c-1.227,0.785-1.928,2.105-2.104,3.959l0.81-0.677l0.412,0.427l-1.59,1.428l-1.546-1.678l0.427-0.413l0.884,0.942
				c0.059-0.697,0.193-1.332,0.404-1.906s0.457-1.038,0.736-1.391c0.279-0.353,0.584-0.662,0.912-0.927
				c0.329-0.265,0.65-0.461,0.965-0.589c0.313-0.127,0.599-0.228,0.854-0.302s0.461-0.115,0.618-0.125L456.517,15.425z"/>
		</g>
	</g>
	<g>
		<g>
			<path fill="#939598" d="M465.198,15.425h2.855v0.913h1.87v0.971h-6.609v-0.971h1.884V15.425z M463.785,18.06h5.682v4.901h-5.682
				V18.06z M465.066,18.678v3.591h0.868v-3.591H465.066z M467.318,18.678v3.591h0.868v-3.591H467.318z"/>
		</g>
	</g>
	<g>
		<g>
			<path fill="#939598" d="M480.902,21.23l-3.754-3.65l0.56-0.574l3.194,3.106l3.238-3.062l0.544,0.604L480.902,21.23z"/>
		</g>
	</g>
	
		<line fill="#939598" stroke="#000000" stroke-width="0.25" stroke-miterlimit="10" x1="431.315" y1="15.256" x2="431.315" y2="23.423"/>
	
		<line fill="#939598" stroke="#000000" stroke-width="0.25" stroke-miterlimit="10" x1="445.648" y1="15.674" x2="445.648" y2="23.84"/>
	
		<line fill="#939598" stroke="#000000" stroke-width="0.25" stroke-miterlimit="10" x1="459.815" y1="15.256" x2="459.815" y2="23.423"/>
	
		<line fill="#939598" stroke="#000000" stroke-width="0.25" stroke-miterlimit="10" x1="473.481" y1="15.256" x2="473.481" y2="23.423"/>
	<rect x="9.819" y="9.346" width="18.083" height="20.899"/>
	<g>
		<path fill="#FFFFFF" d="M21.858,16.747l-0.113,0.407H20.84l-0.679,2.716c-0.317,1.192-0.626,2.12-0.928,2.784
			c-0.438,0.92-0.905,1.554-1.403,1.9c-0.377,0.271-0.755,0.407-1.132,0.407c-0.257,0-0.468-0.075-0.634-0.226
			c-0.136-0.106-0.204-0.242-0.204-0.407c0-0.136,0.053-0.249,0.158-0.34s0.234-0.136,0.385-0.136c0.121,0,0.219,0.034,0.294,0.102
			c0.075,0.068,0.113,0.147,0.113,0.238c0,0.09-0.045,0.173-0.136,0.248c-0.061,0.061-0.091,0.105-0.091,0.137
			c0,0.029,0.015,0.06,0.045,0.09s0.083,0.046,0.158,0.046c0.181,0,0.37-0.057,0.566-0.17c0.196-0.113,0.37-0.279,0.521-0.498
			s0.294-0.539,0.43-0.962c0.06-0.181,0.219-0.754,0.475-1.72l1.086-4.21H18.78l0.091-0.407c0.347,0,0.588-0.026,0.724-0.079
			s0.26-0.147,0.374-0.283s0.26-0.385,0.441-0.747c0.241-0.498,0.475-0.883,0.701-1.154c0.302-0.377,0.623-0.656,0.962-0.837
			c0.34-0.182,0.66-0.271,0.962-0.271c0.317,0,0.569,0.079,0.758,0.237c0.188,0.158,0.283,0.336,0.283,0.532
			c0,0.136-0.049,0.252-0.147,0.351c-0.098,0.098-0.215,0.146-0.351,0.146s-0.246-0.037-0.328-0.112
			c-0.083-0.076-0.125-0.159-0.125-0.249c0-0.076,0.03-0.162,0.09-0.261c0.06-0.098,0.091-0.162,0.091-0.192
			c0-0.06-0.023-0.105-0.068-0.136c-0.06-0.03-0.136-0.045-0.226-0.045c-0.271,0-0.506,0.083-0.702,0.249
			c-0.287,0.211-0.536,0.551-0.747,1.019c-0.121,0.241-0.333,0.853-0.634,1.833H21.858z"/>
	</g>
	<g>
		<path d="M35.321,49.766c1.037-1.037,2.287-1.555,3.752-1.555s2.716,0.518,3.753,1.555c1.037,1.037,1.555,2.288,1.555,3.752
			c0,1.465-0.519,2.716-1.555,3.753s-2.288,1.555-3.753,1.555s-2.716-0.519-3.752-1.555s-1.555-2.288-1.555-3.753
			C33.766,52.054,34.285,50.803,35.321,49.766z M37.353,55.551v-0.374h-0.145c-0.235,0-0.353-0.131-0.353-0.394
			c0-0.055,0.014-0.166,0.042-0.332c0.027-0.125,0.042-0.255,0.042-0.394c0-0.276-0.097-0.456-0.291-0.539
			c0.193-0.096,0.291-0.283,0.291-0.56c0-0.125-0.014-0.249-0.042-0.374c-0.028-0.124-0.042-0.242-0.042-0.352
			c0-0.249,0.117-0.374,0.353-0.374h0.145v-0.373h-0.166c-0.511,0-0.767,0.235-0.767,0.705c0,0.042,0.014,0.173,0.042,0.394v0.021
			c0.027,0.18,0.042,0.318,0.042,0.415c0,0.221-0.118,0.332-0.353,0.332h-0.042v0.332h0.042c0.235,0,0.353,0.111,0.353,0.332
			c0,0.083-0.014,0.215-0.042,0.394c-0.028,0.249-0.042,0.387-0.042,0.415c0,0.484,0.256,0.726,0.767,0.726H37.353z M39.26,54.97
			l1.037-2.903H39.82l-0.498,1.431c-0.125,0.359-0.214,0.657-0.27,0.892c-0.056-0.208-0.145-0.504-0.27-0.892l-0.456-1.431h-0.477
			l0.954,2.903H39.26z M42.039,53.685v-0.332h-0.041c-0.235,0-0.353-0.111-0.353-0.332c0-0.097,0.014-0.235,0.042-0.415v-0.021
			c0.027-0.221,0.042-0.352,0.042-0.394c0-0.47-0.263-0.705-0.788-0.705h-0.145v0.373h0.145c0.235,0,0.353,0.125,0.353,0.374
			c0,0.083-0.007,0.173-0.021,0.27l-0.021,0.083c-0.028,0.208-0.042,0.332-0.042,0.374c0,0.276,0.097,0.463,0.29,0.56
			c-0.193,0.083-0.29,0.263-0.29,0.539c0,0.083,0.014,0.214,0.042,0.394c0.014,0.042,0.021,0.069,0.021,0.083
			c0.014,0.083,0.021,0.166,0.021,0.249c0,0.263-0.118,0.394-0.353,0.394h-0.145v0.374h0.166c0.511,0,0.768-0.242,0.768-0.726
			c0-0.083-0.014-0.221-0.042-0.415c-0.028-0.179-0.042-0.311-0.042-0.394c0-0.221,0.117-0.332,0.353-0.332H42.039z"/>
	</g>
	<rect x="46.099" y="49.633" fill="#AEADAE" width="7.373" height="7.373"/>
	<g>
		<path fill="#FFFFFF" d="M52.069,53.039v0.495H49.97v2.1h-0.495v-2.1h-2.099v-0.495h2.099v-2.1h0.495v2.1H52.069z"/>
	</g>
	<rect x="55.184" y="48.172" fill="#EFEFEF" width="10.667" height="10.667"/>
	<g>
		<path fill="#8D8D8D" d="M58.601,53.311l2.956-3.04l0.465,0.453l-2.527,2.587l2.492,2.623l-0.489,0.441L58.601,53.311z"/>
	</g>
	
		<rect x="9.874" y="30.348" fill="none" stroke="#000000" stroke-width="0.5" stroke-miterlimit="10" width="482.028" height="450.018"/>
</g>
<g id="Layer_5">
	
		<rect x="19.997" y="70.923" fill="#FFFFFF" stroke="#000000" stroke-width="0.5236" stroke-miterlimit="10" width="459.948" height="20.988"/>
	<g>
		<path fill="#939598" d="M429.939,83.803l-0.015-2.915h0.721v3.65h-7.536v-7.536c0.628,0,1.879,0,3.754,0v0.721
			c-0.167,0-0.386,0-0.655,0c-0.271,0-0.68-0.002-1.229-0.007s-0.937-0.007-1.163-0.007l0.016,6.094H429.939z M429.498,78.312
			l-0.942-0.869l0.412-0.441l1.678,1.56l-1.428,1.575l-0.427-0.412l0.677-0.81c-1.854,0.187-3.174,0.893-3.959,2.12
			c-0.196,0.294-0.352,0.611-0.464,0.949c-0.113,0.338-0.174,0.601-0.184,0.788l-0.029,0.28h-0.589c0-0.059,0.005-0.14,0.015-0.243
			s0.051-0.307,0.125-0.611c0.073-0.304,0.174-0.596,0.302-0.875c0.127-0.28,0.323-0.594,0.589-0.942
			c0.265-0.348,0.574-0.657,0.927-0.927c0.354-0.27,0.817-0.513,1.392-0.729S428.801,78.371,429.498,78.312z"/>
	</g>
	<g>
		<g>
			<path fill="#939598" d="M443.938,83.803l-0.015-2.915l0.721-0.015v3.665h-7.536v-7.536c0.628,0,1.879,0,3.754,0v0.707
				c-0.167,0-0.386,0-0.655,0c-0.271,0-0.68,0-1.229,0s-0.937,0-1.163,0l0.016,6.094H443.938z M444.645,77.002v0.589
				c-0.078,0-0.182,0.007-0.309,0.022c-0.128,0.015-0.371,0.079-0.729,0.191c-0.358,0.113-0.689,0.268-0.994,0.463
				c-1.227,0.785-1.928,2.105-2.104,3.959l0.81-0.677l0.412,0.427l-1.59,1.428l-1.546-1.678l0.427-0.413l0.884,0.942
				c0.059-0.697,0.193-1.332,0.404-1.906s0.457-1.038,0.736-1.391c0.279-0.353,0.584-0.662,0.912-0.927
				c0.329-0.265,0.65-0.461,0.965-0.589c0.313-0.127,0.599-0.228,0.854-0.302s0.461-0.115,0.618-0.125L444.645,77.002z"/>
		</g>
	</g>
	<g>
		<g>
			<path fill="#939598" d="M453.326,77.002h2.855v0.913h1.87v0.971h-6.609v-0.971h1.884V77.002z M451.913,79.637h5.682v4.901h-5.682
				V79.637z M453.194,80.255v3.591h0.868v-3.591H453.194z M455.446,80.255v3.591h0.868v-3.591H455.446z"/>
		</g>
	</g>
	<g>
		<g>
			<path fill="#939598" d="M469.03,82.808l-3.754-3.65l0.56-0.574l3.194,3.106l3.238-3.062l0.544,0.604L469.03,82.808z"/>
		</g>
	</g>
	
		<line fill="#939598" stroke="#000000" stroke-width="0.25" stroke-miterlimit="10" x1="433.786" y1="76.711" x2="433.786" y2="84.877"/>
	
		<line fill="#939598" stroke="#000000" stroke-width="0.25" stroke-miterlimit="10" x1="447.953" y1="76.293" x2="447.953" y2="84.46"/>
	
		<line fill="#939598" stroke="#000000" stroke-width="0.25" stroke-miterlimit="10" x1="461.609" y1="76.834" x2="461.609" y2="85"/>
	<rect x="19.969" y="70.923" width="18.083" height="20.899"/>
	<g>
		<path fill="#FFFFFF" d="M32.008,78.325l-0.113,0.407h-0.905l-0.679,2.716c-0.317,1.192-0.626,2.12-0.928,2.784
			c-0.438,0.92-0.905,1.554-1.403,1.9c-0.377,0.271-0.755,0.407-1.132,0.407c-0.257,0-0.468-0.075-0.634-0.226
			c-0.136-0.106-0.204-0.242-0.204-0.407c0-0.136,0.053-0.249,0.158-0.34s0.234-0.136,0.385-0.136c0.121,0,0.219,0.034,0.294,0.102
			c0.075,0.068,0.113,0.147,0.113,0.238c0,0.09-0.045,0.173-0.136,0.248c-0.061,0.061-0.091,0.105-0.091,0.137
			c0,0.029,0.015,0.06,0.045,0.09s0.083,0.046,0.158,0.046c0.181,0,0.37-0.057,0.566-0.17c0.196-0.113,0.37-0.279,0.521-0.498
			s0.294-0.539,0.43-0.962c0.06-0.181,0.219-0.754,0.475-1.72l1.086-4.21H28.93l0.091-0.407c0.347,0,0.588-0.026,0.724-0.079
			s0.26-0.147,0.374-0.283s0.26-0.385,0.441-0.747c0.241-0.498,0.475-0.883,0.701-1.154c0.302-0.377,0.623-0.656,0.962-0.837
			c0.34-0.182,0.66-0.271,0.962-0.271c0.317,0,0.569,0.079,0.758,0.237c0.188,0.158,0.283,0.336,0.283,0.532
			c0,0.136-0.049,0.252-0.147,0.351c-0.098,0.098-0.215,0.146-0.351,0.146s-0.246-0.037-0.328-0.112
			c-0.083-0.076-0.125-0.159-0.125-0.249c0-0.076,0.03-0.162,0.09-0.261c0.06-0.098,0.091-0.162,0.091-0.192
			c0-0.06-0.023-0.105-0.068-0.136c-0.06-0.03-0.136-0.045-0.226-0.045c-0.271,0-0.506,0.083-0.702,0.249
			c-0.287,0.211-0.536,0.551-0.747,1.019c-0.121,0.241-0.333,0.853-0.634,1.833H32.008z"/>
	</g>
	<g>
		<path d="M45.471,111.344c1.037-1.037,2.287-1.555,3.752-1.555s2.716,0.518,3.753,1.555c1.037,1.037,1.555,2.288,1.555,3.752
			c0,1.465-0.519,2.716-1.555,3.753s-2.288,1.555-3.753,1.555s-2.716-0.519-3.752-1.555s-1.555-2.288-1.555-3.753
			C43.916,113.631,44.434,112.38,45.471,111.344z M47.502,117.128v-0.374h-0.145c-0.235,0-0.353-0.131-0.353-0.394
			c0-0.055,0.014-0.166,0.042-0.332c0.027-0.125,0.042-0.255,0.042-0.394c0-0.276-0.097-0.456-0.291-0.539
			c0.193-0.096,0.291-0.283,0.291-0.56c0-0.125-0.014-0.249-0.042-0.374c-0.028-0.124-0.042-0.242-0.042-0.352
			c0-0.249,0.117-0.374,0.353-0.374h0.145v-0.373h-0.166c-0.511,0-0.767,0.235-0.767,0.705c0,0.042,0.014,0.173,0.042,0.394v0.021
			c0.027,0.18,0.042,0.318,0.042,0.415c0,0.221-0.118,0.332-0.353,0.332h-0.042v0.332H46.3c0.235,0,0.353,0.111,0.353,0.332
			c0,0.083-0.014,0.215-0.042,0.394c-0.028,0.249-0.042,0.387-0.042,0.415c0,0.484,0.256,0.726,0.767,0.726H47.502z M49.41,116.548
			l1.037-2.903H49.97l-0.498,1.431c-0.125,0.359-0.214,0.657-0.27,0.892c-0.056-0.208-0.145-0.504-0.27-0.892l-0.456-1.431H48
			l0.954,2.903H49.41z M52.188,115.262v-0.332h-0.041c-0.235,0-0.353-0.111-0.353-0.332c0-0.097,0.014-0.235,0.042-0.415v-0.021
			c0.027-0.221,0.042-0.352,0.042-0.394c0-0.47-0.263-0.705-0.788-0.705h-0.145v0.373h0.145c0.235,0,0.353,0.125,0.353,0.374
			c0,0.083-0.007,0.173-0.021,0.27l-0.021,0.083c-0.028,0.208-0.042,0.332-0.042,0.374c0,0.276,0.097,0.463,0.29,0.56
			c-0.193,0.083-0.29,0.263-0.29,0.539c0,0.083,0.014,0.214,0.042,0.394c0.014,0.042,0.021,0.069,0.021,0.083
			c0.014,0.083,0.021,0.166,0.021,0.249c0,0.263-0.118,0.394-0.353,0.394h-0.145v0.374h0.166c0.511,0,0.768-0.242,0.768-0.726
			c0-0.083-0.014-0.221-0.042-0.415c-0.028-0.179-0.042-0.311-0.042-0.394c0-0.221,0.117-0.332,0.353-0.332H52.188z"/>
	</g>
	<rect x="56.249" y="111.21" fill="#AEADAE" width="7.373" height="7.373"/>
	<g>
		<path fill="#FFFFFF" d="M62.219,114.616v0.495H60.12v2.1h-0.495v-2.1h-2.099v-0.495h2.099v-2.1h0.495v2.1H62.219z"/>
	</g>
	<rect x="65.333" y="109.75" fill="#EFEFEF" width="10.667" height="10.667"/>
	<g>
		<path fill="#8D8D8D" d="M68.75,114.888l2.956-3.04l0.465,0.453l-2.527,2.587l2.492,2.623l-0.489,0.441L68.75,114.888z"/>
	</g>
</g>
<g id="Layer_4">
</g>
<g id="Layer_6">
	<rect x="200.664" y="140.155" fill="#FFFFFF" stroke="#000000" stroke-miterlimit="10" width="158.496" height="38.668"/>
	<g>
		<text transform="matrix(1 0 0 1 219.8232 162.9556)" font-family="'MyriadPro-Regular'" font-size="18">ResourceWorker</text>
	</g>
	
		<rect x="200.667" y="239.748" fill="#FFFFFF" stroke="#000000" stroke-width="0.5" stroke-miterlimit="10" width="160.154" height="38.601"/>
	<line fill="none" stroke="#000000" stroke-miterlimit="10" x1="281.109" y1="178.823" x2="281.109" y2="240.749"/>
	<g>
		<path d="M235.193,252.214h1.584v5.438h0.036c0.252-0.45,0.648-0.846,1.135-1.116c0.468-0.27,1.026-0.45,1.62-0.45
			c1.171,0,3.043,0.72,3.043,3.727v5.186h-1.584v-5.005c0-1.404-0.522-2.593-2.017-2.593c-1.026,0-1.837,0.72-2.125,1.584
			c-0.09,0.216-0.108,0.45-0.108,0.756v5.257h-1.584V252.214z"/>
		<path d="M247.02,253.78v2.503h2.269v1.206h-2.269v4.699c0,1.081,0.307,1.693,1.188,1.693c0.414,0,0.721-0.054,0.919-0.108
			l0.071,1.188c-0.306,0.126-0.792,0.216-1.404,0.216c-0.738,0-1.332-0.234-1.71-0.667c-0.45-0.468-0.612-1.242-0.612-2.269v-4.753
			h-1.351v-1.206h1.351v-2.089L247.02,253.78z"/>
		<path d="M252.978,253.78v2.503h2.269v1.206h-2.269v4.699c0,1.081,0.307,1.693,1.188,1.693c0.414,0,0.721-0.054,0.918-0.108
			l0.072,1.188c-0.306,0.126-0.792,0.216-1.404,0.216c-0.738,0-1.332-0.234-1.71-0.667c-0.45-0.468-0.612-1.242-0.612-2.269v-4.753
			h-1.351v-1.206h1.351v-2.089L252.978,253.78z"/>
		<path d="M257.027,259.128c0-1.116-0.036-2.017-0.072-2.845h1.423l0.071,1.494h0.036c0.648-1.062,1.675-1.692,3.098-1.692
			c2.106,0,3.69,1.782,3.69,4.429c0,3.133-1.908,4.682-3.961,4.682c-1.152,0-2.16-0.504-2.683-1.369h-0.036v4.735h-1.566V259.128z
			 M258.594,261.451c0,0.234,0.036,0.45,0.072,0.648c0.288,1.099,1.242,1.854,2.377,1.854c1.674,0,2.646-1.368,2.646-3.367
			c0-1.747-0.918-3.241-2.593-3.241c-1.08,0-2.089,0.774-2.395,1.962c-0.055,0.198-0.108,0.433-0.108,0.648V261.451z"/>
		<path d="M266.891,257.724c0-0.667,0.45-1.135,1.08-1.135s1.044,0.468,1.062,1.135c0,0.63-0.414,1.116-1.08,1.116
			C267.322,258.84,266.891,258.354,266.891,257.724z M266.891,264.079c0-0.666,0.45-1.134,1.08-1.134s1.044,0.468,1.062,1.134
			c0,0.63-0.414,1.117-1.08,1.117C267.322,265.196,266.891,264.709,266.891,264.079z"/>
		<path d="M277.206,264.673c-0.414,0.216-1.333,0.504-2.503,0.504c-2.629,0-4.339-1.783-4.339-4.447
			c0-2.683,1.836-4.627,4.681-4.627c0.937,0,1.765,0.234,2.197,0.45l-0.36,1.224c-0.378-0.216-0.973-0.414-1.837-0.414
			c-1.998,0-3.078,1.477-3.078,3.295c0,2.017,1.296,3.259,3.024,3.259c0.9,0,1.494-0.234,1.944-0.432L277.206,264.673z"/>
		<path d="M286.837,260.568c0,3.223-2.233,4.627-4.34,4.627c-2.358,0-4.177-1.729-4.177-4.483c0-2.917,1.908-4.627,4.321-4.627
			C285.144,256.085,286.837,257.903,286.837,260.568z M279.923,260.658c0,1.909,1.098,3.349,2.646,3.349
			c1.513,0,2.646-1.422,2.646-3.385c0-1.476-0.738-3.349-2.61-3.349C280.732,257.273,279.923,259.002,279.923,260.658z"/>
		<path d="M288.832,258.642c0-0.9-0.018-1.639-0.072-2.358h1.404l0.09,1.44h0.036c0.433-0.829,1.44-1.639,2.881-1.639
			c1.207,0,3.079,0.72,3.079,3.709v5.204h-1.584v-5.023c0-1.404-0.522-2.575-2.017-2.575c-1.045,0-1.854,0.738-2.125,1.62
			c-0.072,0.198-0.108,0.468-0.108,0.738v5.24h-1.584V258.642z"/>
		<path d="M299.201,256.283l1.71,4.897c0.288,0.792,0.522,1.512,0.702,2.232h0.055c0.198-0.72,0.45-1.44,0.738-2.232l1.692-4.897
			h1.656l-3.421,8.714h-1.513l-3.312-8.714H299.201z"/>
		<path d="M307.948,260.928c0.036,2.143,1.405,3.025,2.989,3.025c1.135,0,1.818-0.198,2.413-0.45l0.27,1.135
			c-0.558,0.252-1.513,0.54-2.898,0.54c-2.683,0-4.285-1.765-4.285-4.394s1.548-4.699,4.087-4.699c2.845,0,3.601,2.503,3.601,4.105
			c0,0.324-0.035,0.576-0.054,0.738H307.948z M312.594,259.794c0.019-1.008-0.414-2.575-2.196-2.575
			c-1.603,0-2.305,1.477-2.431,2.575H312.594z"/>
		<path d="M316.084,259.002c0-1.026-0.018-1.909-0.072-2.719h1.387l0.054,1.71h0.072c0.396-1.17,1.351-1.909,2.413-1.909
			c0.18,0,0.306,0.018,0.449,0.054v1.495c-0.161-0.036-0.323-0.054-0.54-0.054c-1.116,0-1.908,0.847-2.124,2.035
			c-0.036,0.216-0.072,0.468-0.072,0.738v4.646h-1.566V259.002z"/>
		<path d="M320.639,264.062c0-0.667,0.45-1.135,1.08-1.135s1.062,0.468,1.062,1.135c0,0.648-0.414,1.134-1.08,1.134
			C321.07,265.196,320.639,264.709,320.639,264.062z"/>
		<path d="M324.364,264.062c0-0.667,0.45-1.135,1.08-1.135s1.062,0.468,1.062,1.135c0,0.648-0.414,1.134-1.08,1.134
			C324.796,265.196,324.364,264.709,324.364,264.062z"/>
	</g>
	
		<rect x="200.836" y="299.941" fill="#FFFFFF" stroke="#000000" stroke-width="0.5" stroke-miterlimit="10" width="160.154" height="38.601"/>
	<line fill="none" stroke="#000000" stroke-miterlimit="10" x1="281.279" y1="279.35" x2="281.279" y2="299.86"/>
	<g>
		<path d="M262.896,312.216c0.792-0.162,1.927-0.252,3.007-0.252c1.675,0,2.755,0.306,3.512,0.99
			c0.611,0.54,0.954,1.369,0.954,2.305c0,1.603-1.009,2.665-2.287,3.097v0.054c0.937,0.324,1.495,1.188,1.783,2.449
			c0.396,1.692,0.684,2.863,0.936,3.331h-1.62c-0.198-0.342-0.468-1.386-0.811-2.899c-0.359-1.674-1.008-2.305-2.431-2.358h-1.477
			v5.257h-1.566V312.216z M264.462,317.744h1.603c1.675,0,2.737-0.918,2.737-2.305c0-1.566-1.135-2.251-2.791-2.269
			c-0.756,0-1.297,0.072-1.549,0.144V317.744z"/>
		<path d="M273.479,320.121c0.036,2.143,1.405,3.025,2.989,3.025c1.135,0,1.818-0.198,2.413-0.45l0.27,1.135
			c-0.558,0.252-1.513,0.54-2.898,0.54c-2.683,0-4.285-1.765-4.285-4.394s1.548-4.699,4.087-4.699c2.845,0,3.601,2.503,3.601,4.105
			c0,0.324-0.035,0.576-0.054,0.738H273.479z M278.125,318.986c0.019-1.008-0.414-2.575-2.196-2.575
			c-1.603,0-2.305,1.477-2.431,2.575H278.125z"/>
		<path d="M281.615,318.32c0-1.116-0.036-2.017-0.072-2.845h1.423l0.071,1.494h0.036c0.648-1.062,1.675-1.692,3.098-1.692
			c2.106,0,3.69,1.782,3.69,4.429c0,3.133-1.908,4.682-3.961,4.682c-1.152,0-2.16-0.504-2.683-1.369h-0.036v4.735h-1.566V318.32z
			 M283.182,320.643c0,0.234,0.036,0.45,0.072,0.648c0.288,1.099,1.242,1.854,2.377,1.854c1.674,0,2.646-1.368,2.646-3.367
			c0-1.747-0.918-3.241-2.593-3.241c-1.08,0-2.089,0.774-2.395,1.962c-0.055,0.198-0.108,0.433-0.108,0.648V320.643z"/>
		<path d="M291.857,311.406h1.584v12.784h-1.584V311.406z"/>
		<path d="M296.682,315.476l1.908,5.149c0.198,0.576,0.414,1.26,0.559,1.782h0.036c0.162-0.522,0.342-1.188,0.558-1.818l1.729-5.113
			h1.675l-2.377,6.211c-1.134,2.989-1.908,4.52-2.988,5.456c-0.774,0.685-1.549,0.955-1.945,1.026l-0.396-1.332
			c0.396-0.126,0.918-0.378,1.386-0.774c0.433-0.342,0.973-0.954,1.333-1.765c0.072-0.162,0.126-0.288,0.126-0.378
			s-0.036-0.216-0.108-0.414l-3.223-8.03H296.682z"/>
	</g>
	<rect x="200.664" y="400.155" fill="#FFFFFF" stroke="#000000" stroke-miterlimit="10" width="158.496" height="38.668"/>
	<g>
		<text transform="matrix(1 0 0 1 219.8232 422.9556)" font-family="'MyriadPro-Regular'" font-size="18">ResourceWorker</text>
	</g>
	<line fill="none" stroke="#000000" stroke-miterlimit="10" x1="280.913" y1="338.542" x2="280.913" y2="400.467"/>
	<g>
		<path d="M66.183,178.273c-0.576,0.288-1.729,0.576-3.205,0.576c-3.421,0-5.996-2.161-5.996-6.14c0-3.799,2.575-6.374,6.338-6.374
			c1.513,0,2.467,0.324,2.881,0.54l-0.378,1.278c-0.594-0.288-1.44-0.504-2.449-0.504c-2.845,0-4.735,1.818-4.735,5.005
			c0,2.971,1.71,4.879,4.664,4.879c0.954,0,1.926-0.198,2.557-0.504L66.183,178.273z"/>
		<path d="M68.088,165.886h1.584v12.784h-1.584V165.886z"/>
		<path d="M74.1,167.506c0.018,0.541-0.378,0.973-1.008,0.973c-0.559,0-0.955-0.432-0.955-0.973c0-0.558,0.414-0.99,0.99-0.99
			C73.722,166.516,74.1,166.948,74.1,167.506z M72.335,178.669v-8.714h1.584v8.714H72.335z"/>
		<path d="M77.43,174.6c0.036,2.143,1.404,3.025,2.989,3.025c1.134,0,1.818-0.198,2.413-0.45l0.27,1.135
			c-0.558,0.252-1.512,0.54-2.899,0.54c-2.683,0-4.285-1.765-4.285-4.394s1.549-4.699,4.087-4.699c2.845,0,3.601,2.503,3.601,4.105
			c0,0.324-0.036,0.576-0.054,0.738H77.43z M82.075,173.466c0.018-1.008-0.415-2.575-2.197-2.575c-1.603,0-2.305,1.477-2.431,2.575
			H82.075z"/>
		<path d="M85.565,172.313c0-0.9-0.018-1.639-0.072-2.358h1.405l0.09,1.44h0.036c0.432-0.829,1.44-1.639,2.881-1.639
			c1.206,0,3.079,0.72,3.079,3.709v5.204h-1.584v-5.023c0-1.404-0.522-2.575-2.017-2.575c-1.044,0-1.854,0.738-2.125,1.62
			c-0.072,0.198-0.108,0.468-0.108,0.738v5.24h-1.584V172.313z"/>
		<path d="M97.392,167.452v2.503h2.269v1.206h-2.269v4.699c0,1.081,0.306,1.693,1.188,1.693c0.414,0,0.72-0.054,0.918-0.108
			l0.072,1.188c-0.306,0.126-0.792,0.216-1.404,0.216c-0.738,0-1.332-0.234-1.71-0.667c-0.45-0.468-0.612-1.242-0.612-2.269v-4.753
			h-1.35v-1.206h1.35v-2.089L97.392,167.452z"/>
	</g>
	
		<rect x="47.741" y="143.038" transform="matrix(0.7071 -0.7071 0.7071 0.7071 -100.6756 108.2816)" fill="none" stroke="#000000" stroke-miterlimit="10" width="65.258" height="65.258"/>
	<g>
		<path d="M66.005,402.762c-0.576,0.288-1.729,0.576-3.205,0.576c-3.421,0-5.996-2.161-5.996-6.14c0-3.799,2.575-6.374,6.338-6.374
			c1.513,0,2.467,0.324,2.881,0.54l-0.378,1.278c-0.594-0.288-1.44-0.504-2.449-0.504c-2.845,0-4.735,1.818-4.735,5.005
			c0,2.971,1.71,4.879,4.664,4.879c0.954,0,1.926-0.198,2.557-0.504L66.005,402.762z"/>
		<path d="M67.911,390.374h1.584v12.784h-1.584V390.374z"/>
		<path d="M73.923,391.994c0.018,0.541-0.378,0.973-1.008,0.973c-0.559,0-0.955-0.432-0.955-0.973c0-0.558,0.414-0.99,0.99-0.99
			C73.544,391.004,73.923,391.436,73.923,391.994z M72.158,403.158v-8.714h1.584v8.714H72.158z"/>
		<path d="M77.252,399.088c0.036,2.143,1.404,3.025,2.989,3.025c1.134,0,1.818-0.198,2.413-0.45l0.27,1.135
			c-0.558,0.252-1.512,0.54-2.899,0.54c-2.683,0-4.285-1.765-4.285-4.394s1.549-4.699,4.087-4.699c2.845,0,3.601,2.503,3.601,4.105
			c0,0.324-0.036,0.576-0.054,0.738H77.252z M81.898,397.954c0.018-1.008-0.415-2.575-2.197-2.575c-1.603,0-2.305,1.477-2.431,2.575
			H81.898z"/>
		<path d="M85.388,396.802c0-0.9-0.018-1.639-0.072-2.358h1.405l0.09,1.44h0.036c0.432-0.829,1.44-1.639,2.881-1.639
			c1.206,0,3.079,0.72,3.079,3.709v5.204h-1.584v-5.023c0-1.404-0.522-2.575-2.017-2.575c-1.044,0-1.854,0.738-2.125,1.62
			c-0.072,0.198-0.108,0.468-0.108,0.738v5.24h-1.584V396.802z"/>
		<path d="M97.215,391.94v2.503h2.269v1.206h-2.269v4.699c0,1.081,0.306,1.693,1.188,1.693c0.414,0,0.72-0.054,0.918-0.108
			l0.072,1.188c-0.306,0.126-0.792,0.216-1.404,0.216c-0.738,0-1.332-0.234-1.71-0.667c-0.45-0.468-0.612-1.242-0.612-2.269v-4.753
			h-1.35v-1.206h1.35v-2.089L97.215,391.94z"/>
	</g>
	
		<rect x="47.563" y="367.527" transform="matrix(0.7071 -0.7071 0.7071 0.7071 -259.4648 173.907)" fill="none" stroke="#000000" stroke-miterlimit="10" width="65.258" height="65.258"/>
	
		<line fill="none" stroke="#000000" stroke-width="1.4611" stroke-miterlimit="10" x1="80.37" y1="221.811" x2="80.37" y2="354.011"/>
	<g>
		<g>
			
				<line fill="none" stroke="#000000" stroke-width="1.461" stroke-miterlimit="10" x1="190.18" y1="259.048" x2="80.37" y2="259.048"/>
			<g>
				<polygon points="188.048,251.763 200.664,259.048 188.048,266.333 				"/>
			</g>
		</g>
	</g>
	<g>
		<g>
			
				<line fill="none" stroke="#000000" stroke-width="1.461" stroke-miterlimit="10" x1="90.854" y1="319.241" x2="200.664" y2="319.241"/>
			<g>
				<polygon points="92.986,326.526 80.37,319.241 92.986,311.956 				"/>
			</g>
		</g>
	</g>
</g>
<g id="hello_1_" display="none">
	
		<rect x="138.565" y="-816.585" display="inline" fill="none" stroke="#000000" stroke-width="0.5" stroke-miterlimit="10" width="419.437" height="291.427"/>
	
		<rect x="138.569" y="-837.577" display="inline" fill="#FFFFFF" stroke="#000000" stroke-width="0.5" stroke-miterlimit="10" width="419.389" height="20.988"/>
	<g display="inline">
		<path fill="#939598" d="M508.497-824.697l-0.015-2.915h0.721v3.65h-7.536v-7.536c0.628,0,1.879,0,3.754,0v0.721
			c-0.167,0-0.386,0-0.655,0c-0.271,0-0.68-0.002-1.229-0.007s-0.937-0.007-1.163-0.007l0.016,6.094H508.497z M508.056-830.188
			l-0.942-0.869l0.412-0.441l1.678,1.56l-1.428,1.575l-0.427-0.412l0.677-0.81c-1.854,0.187-3.174,0.893-3.959,2.12
			c-0.196,0.294-0.352,0.611-0.464,0.949c-0.113,0.338-0.174,0.601-0.184,0.788l-0.029,0.28h-0.589c0-0.059,0.005-0.14,0.015-0.243
			s0.051-0.307,0.125-0.611c0.073-0.304,0.174-0.596,0.302-0.875c0.127-0.28,0.323-0.594,0.589-0.942
			c0.265-0.348,0.574-0.657,0.927-0.927c0.354-0.27,0.817-0.513,1.392-0.729S507.358-830.129,508.056-830.188z"/>
	</g>
	<g display="inline">
		<g>
			<path fill="#939598" d="M522.496-824.697l-0.015-2.915l0.721-0.015v3.665h-7.536v-7.536c0.628,0,1.879,0,3.754,0v0.707
				c-0.167,0-0.386,0-0.655,0c-0.271,0-0.68,0-1.229,0s-0.937,0-1.163,0l0.016,6.094H522.496z M523.202-831.498v0.589
				c-0.078,0-0.182,0.007-0.309,0.022c-0.128,0.015-0.371,0.079-0.729,0.191c-0.358,0.113-0.689,0.268-0.994,0.463
				c-1.227,0.785-1.928,2.105-2.104,3.959l0.81-0.677l0.412,0.427l-1.59,1.428l-1.546-1.678l0.427-0.413l0.884,0.942
				c0.059-0.697,0.193-1.332,0.404-1.906s0.457-1.038,0.736-1.391c0.279-0.353,0.584-0.662,0.912-0.927
				c0.329-0.265,0.65-0.461,0.965-0.589c0.313-0.127,0.599-0.228,0.854-0.302s0.461-0.115,0.618-0.125L523.202-831.498z"/>
		</g>
	</g>
	<g display="inline">
		<g>
			<path fill="#939598" d="M531.884-831.498h2.855v0.913h1.87v0.971H530v-0.971h1.884V-831.498z M530.471-828.863h5.682v4.901
				h-5.682V-828.863z M531.752-828.245v3.591h0.868v-3.591H531.752z M534.004-828.245v3.591h0.868v-3.591H534.004z"/>
		</g>
	</g>
	<g display="inline">
		<g>
			<path fill="#939598" d="M547.588-825.692l-3.754-3.65l0.56-0.574l3.194,3.106l3.238-3.062l0.544,0.604L547.588-825.692z"/>
		</g>
	</g>
	
		<line display="inline" fill="#939598" stroke="#000000" stroke-width="0.25" stroke-miterlimit="10" x1="498.001" y1="-831.666" x2="498.001" y2="-823.5"/>
	
		<line display="inline" fill="#939598" stroke="#000000" stroke-width="0.25" stroke-miterlimit="10" x1="512.334" y1="-831.249" x2="512.334" y2="-823.082"/>
	
		<line display="inline" fill="#939598" stroke="#000000" stroke-width="0.25" stroke-miterlimit="10" x1="526.501" y1="-831.666" x2="526.501" y2="-823.5"/>
	
		<line display="inline" fill="#939598" stroke="#000000" stroke-width="0.25" stroke-miterlimit="10" x1="540.167" y1="-831.666" x2="540.167" y2="-823.5"/>
	<rect x="138.565" y="-837.577" display="inline" width="18.083" height="20.899"/>
	<g display="inline">
		<path fill="#FFFFFF" d="M150.604-830.175l-0.113,0.407h-0.905l-0.679,2.716c-0.317,1.192-0.626,2.12-0.928,2.784
			c-0.438,0.92-0.905,1.554-1.403,1.9c-0.377,0.271-0.755,0.407-1.132,0.407c-0.257,0-0.468-0.075-0.634-0.226
			c-0.136-0.106-0.204-0.242-0.204-0.407c0-0.136,0.053-0.249,0.158-0.34s0.234-0.136,0.385-0.136c0.121,0,0.219,0.034,0.294,0.102
			c0.075,0.068,0.113,0.147,0.113,0.238c0,0.09-0.045,0.173-0.136,0.248c-0.061,0.061-0.091,0.105-0.091,0.137
			c0,0.029,0.015,0.06,0.045,0.09s0.083,0.046,0.158,0.046c0.181,0,0.37-0.057,0.566-0.17c0.196-0.113,0.37-0.279,0.521-0.498
			s0.294-0.539,0.43-0.962c0.06-0.181,0.219-0.754,0.475-1.72l1.086-4.21h-1.086l0.091-0.407c0.347,0,0.588-0.026,0.724-0.079
			s0.26-0.147,0.374-0.283s0.26-0.385,0.441-0.747c0.241-0.498,0.475-0.883,0.701-1.154c0.302-0.377,0.623-0.656,0.962-0.837
			c0.34-0.182,0.66-0.271,0.962-0.271c0.317,0,0.569,0.079,0.758,0.237c0.188,0.158,0.283,0.336,0.283,0.532
			c0,0.136-0.049,0.252-0.147,0.351c-0.098,0.098-0.215,0.146-0.351,0.146s-0.246-0.037-0.328-0.112
			c-0.083-0.076-0.125-0.159-0.125-0.249c0-0.076,0.03-0.162,0.09-0.261c0.06-0.098,0.091-0.162,0.091-0.192
			c0-0.06-0.023-0.105-0.068-0.136c-0.06-0.03-0.136-0.045-0.226-0.045c-0.271,0-0.506,0.083-0.702,0.249
			c-0.287,0.211-0.536,0.551-0.747,1.019c-0.121,0.241-0.333,0.853-0.634,1.833H150.604z"/>
	</g>
	<g display="inline">
		<path d="M164.067-797.156c1.037-1.037,2.287-1.555,3.752-1.555s2.716,0.518,3.753,1.555c1.037,1.037,1.555,2.288,1.555,3.752
			c0,1.465-0.519,2.716-1.555,3.753s-2.288,1.555-3.753,1.555s-2.716-0.519-3.752-1.555s-1.555-2.288-1.555-3.753
			C162.512-794.869,163.031-796.12,164.067-797.156z M166.099-791.372v-0.374h-0.145c-0.235,0-0.353-0.131-0.353-0.394
			c0-0.055,0.014-0.166,0.042-0.332c0.027-0.125,0.042-0.255,0.042-0.394c0-0.276-0.097-0.456-0.291-0.539
			c0.193-0.096,0.291-0.283,0.291-0.56c0-0.125-0.014-0.249-0.042-0.374c-0.028-0.124-0.042-0.242-0.042-0.352
			c0-0.249,0.117-0.374,0.353-0.374h0.145v-0.373h-0.166c-0.511,0-0.767,0.235-0.767,0.705c0,0.042,0.014,0.173,0.042,0.394v0.021
			c0.027,0.18,0.042,0.318,0.042,0.415c0,0.221-0.118,0.332-0.353,0.332h-0.042v0.332h0.042c0.235,0,0.353,0.111,0.353,0.332
			c0,0.083-0.014,0.215-0.042,0.394c-0.028,0.249-0.042,0.387-0.042,0.415c0,0.484,0.256,0.726,0.767,0.726H166.099z
			 M168.006-791.952l1.037-2.903h-0.477l-0.498,1.431c-0.125,0.359-0.214,0.657-0.27,0.892c-0.056-0.208-0.145-0.504-0.27-0.892
			l-0.456-1.431h-0.477l0.954,2.903H168.006z M170.785-793.238v-0.332h-0.041c-0.235,0-0.353-0.111-0.353-0.332
			c0-0.097,0.014-0.235,0.042-0.415v-0.021c0.027-0.221,0.042-0.352,0.042-0.394c0-0.47-0.263-0.705-0.788-0.705h-0.145v0.373h0.145
			c0.235,0,0.353,0.125,0.353,0.374c0,0.083-0.007,0.173-0.021,0.27l-0.021,0.083c-0.028,0.208-0.042,0.332-0.042,0.374
			c0,0.276,0.097,0.463,0.29,0.56c-0.193,0.083-0.29,0.263-0.29,0.539c0,0.083,0.014,0.214,0.042,0.394
			c0.014,0.042,0.021,0.069,0.021,0.083c0.014,0.083,0.021,0.166,0.021,0.249c0,0.263-0.118,0.394-0.353,0.394h-0.145v0.374h0.166
			c0.511,0,0.768-0.242,0.768-0.726c0-0.083-0.014-0.221-0.042-0.415c-0.028-0.179-0.042-0.311-0.042-0.394
			c0-0.221,0.117-0.332,0.353-0.332H170.785z"/>
	</g>
	<rect x="174.845" y="-797.29" display="inline" fill="#AEADAE" width="7.373" height="7.373"/>
	<g display="inline">
		<path fill="#FFFFFF" d="M180.815-793.884v0.495h-2.099v2.1h-0.495v-2.1h-2.099v-0.495h2.099v-2.1h0.495v2.1H180.815z"/>
	</g>
	<rect x="183.93" y="-798.75" display="inline" fill="#EFEFEF" width="10.667" height="10.667"/>
	<g display="inline">
		<path fill="#8D8D8D" d="M187.347-793.612l2.956-3.04l0.465,0.453l-2.527,2.587l2.492,2.623l-0.489,0.441L187.347-793.612z"/>
	</g>
</g>
<g id="hello" display="none">
	
		<rect x="-209.168" y="251.847" display="inline" fill="#FFFFFF" stroke="#000000" stroke-width="1.9558" stroke-miterlimit="10" width="159.455" height="37.884"/>
	<g display="inline">
		<path d="M-179.793,266.882h5.716v1.15h-4.346v3.527h4.015v1.134h-4.015v4.803h-1.37V266.882z"/>
		<path d="M-166.341,275.417c0,0.787,0.016,1.48,0.062,2.079h-1.228l-0.079-1.244h-0.032c-0.362,0.614-1.165,1.417-2.52,1.417
			c-1.197,0-2.629-0.662-2.629-3.338v-4.457h1.386v4.22c0,1.449,0.44,2.425,1.7,2.425c0.929,0,1.575-0.646,1.827-1.26
			c0.079-0.205,0.126-0.457,0.126-0.709v-4.677h1.386V275.417z"/>
		<path d="M-164.039,271.938c0-0.788-0.016-1.433-0.063-2.063h1.229l0.079,1.26h0.031c0.378-0.725,1.26-1.433,2.52-1.433
			c1.055,0,2.693,0.63,2.693,3.244v4.551h-1.386v-4.394c0-1.228-0.457-2.251-1.764-2.251c-0.913,0-1.622,0.646-1.858,1.417
			c-0.063,0.173-0.095,0.409-0.095,0.646v4.583h-1.386V271.938z"/>
		<path d="M-149.863,277.212c-0.362,0.189-1.165,0.441-2.188,0.441c-2.299,0-3.795-1.559-3.795-3.89
			c0-2.347,1.606-4.047,4.094-4.047c0.819,0,1.543,0.205,1.921,0.394l-0.315,1.071c-0.331-0.189-0.851-0.362-1.606-0.362
			c-1.748,0-2.692,1.292-2.692,2.882c0,1.764,1.134,2.85,2.646,2.85c0.787,0,1.307-0.205,1.701-0.378L-149.863,277.212z"/>
		<path d="M-146.363,267.686v2.189h1.984v1.055h-1.984v4.11c0,0.945,0.268,1.48,1.039,1.48c0.362,0,0.63-0.047,0.803-0.095
			l0.063,1.039c-0.268,0.11-0.693,0.189-1.228,0.189c-0.646,0-1.166-0.205-1.496-0.583c-0.394-0.409-0.536-1.086-0.536-1.984v-4.157
			h-1.181v-1.055h1.181v-1.827L-146.363,267.686z"/>
		<path d="M-141.275,267.733c0.016,0.473-0.331,0.851-0.882,0.851c-0.488,0-0.835-0.378-0.835-0.851
			c0-0.488,0.362-0.866,0.866-0.866C-141.606,266.867-141.275,267.245-141.275,267.733z M-142.818,277.496v-7.622h1.386v7.622
			H-142.818z"/>
		<path d="M-132.234,273.623c0,2.818-1.953,4.047-3.795,4.047c-2.062,0-3.653-1.512-3.653-3.921c0-2.551,1.669-4.047,3.779-4.047
			C-133.715,269.701-132.234,271.292-132.234,273.623z M-138.281,273.701c0,1.669,0.96,2.929,2.315,2.929
			c1.322,0,2.314-1.244,2.314-2.96c0-1.291-0.646-2.929-2.283-2.929S-138.281,272.252-138.281,273.701z"/>
		<path d="M-130.483,271.938c0-0.788-0.016-1.433-0.063-2.063h1.229l0.079,1.26h0.031c0.378-0.725,1.26-1.433,2.52-1.433
			c1.055,0,2.693,0.63,2.693,3.244v4.551h-1.386v-4.394c0-1.228-0.457-2.251-1.764-2.251c-0.913,0-1.622,0.646-1.858,1.417
			c-0.063,0.173-0.095,0.409-0.095,0.646v4.583h-1.386V271.938z"/>
		<path d="M-119.959,277.496l-2.693-10.614h1.449l1.26,5.37c0.315,1.323,0.598,2.646,0.787,3.669h0.032
			c0.173-1.055,0.504-2.315,0.866-3.685l1.417-5.354h1.433l1.291,5.386c0.299,1.26,0.583,2.52,0.74,3.638h0.031
			c0.221-1.166,0.52-2.347,0.851-3.669l1.401-5.354h1.401l-3.007,10.614h-1.433l-1.338-5.527c-0.331-1.354-0.551-2.394-0.693-3.464
			h-0.032c-0.189,1.055-0.425,2.095-0.819,3.464l-1.512,5.527H-119.959z"/>
		<path d="M-102.034,273.623c0,2.818-1.953,4.047-3.795,4.047c-2.063,0-3.653-1.512-3.653-3.921c0-2.551,1.669-4.047,3.779-4.047
			C-103.514,269.701-102.034,271.292-102.034,273.623z M-108.081,273.701c0,1.669,0.96,2.929,2.314,2.929
			c1.323,0,2.315-1.244,2.315-2.96c0-1.291-0.646-2.929-2.283-2.929S-108.081,272.252-108.081,273.701z"/>
		<path d="M-100.282,272.252c0-0.897-0.016-1.669-0.063-2.378h1.213l0.047,1.496h0.063c0.347-1.023,1.181-1.669,2.11-1.669
			c0.157,0,0.268,0.016,0.394,0.047v1.307c-0.142-0.032-0.284-0.047-0.472-0.047c-0.977,0-1.669,0.74-1.858,1.779
			c-0.031,0.189-0.063,0.41-0.063,0.646v4.063h-1.37V272.252z"/>
		<path d="M-93.698,273.371h0.031c0.189-0.268,0.457-0.599,0.677-0.866l2.236-2.63h1.669l-2.945,3.134l3.354,4.488h-1.685
			l-2.63-3.653l-0.708,0.788v2.866h-1.37v-11.18h1.37V273.371z"/>
		<path d="M-86.908,273.937c0.032,1.874,1.229,2.646,2.614,2.646c0.992,0,1.59-0.173,2.11-0.394l0.236,0.992
			c-0.488,0.221-1.323,0.473-2.535,0.473c-2.346,0-3.748-1.543-3.748-3.843c0-2.299,1.354-4.11,3.574-4.11
			c2.488,0,3.149,2.189,3.149,3.59c0,0.284-0.031,0.504-0.047,0.646H-86.908z M-82.845,272.945c0.016-0.882-0.362-2.252-1.921-2.252
			c-1.401,0-2.016,1.292-2.125,2.252H-82.845z"/>
		<path d="M-79.786,272.252c0-0.897-0.016-1.669-0.063-2.378h1.213l0.047,1.496h0.063c0.347-1.023,1.181-1.669,2.11-1.669
			c0.157,0,0.268,0.016,0.394,0.047v1.307c-0.142-0.032-0.284-0.047-0.472-0.047c-0.977,0-1.669,0.74-1.858,1.779
			c-0.031,0.189-0.063,0.41-0.063,0.646v4.063h-1.37V272.252z"/>
	</g>
	
		<rect x="-208.064" y="331.152" display="inline" fill="#FFFFFF" stroke="#000000" stroke-width="0.9923" stroke-miterlimit="10" width="158.336" height="39.876"/>
	<g display="inline">
		<path d="M-170.534,354.116c0.41,0.268,1.134,0.551,1.827,0.551c1.008,0,1.48-0.504,1.48-1.134c0-0.661-0.394-1.023-1.417-1.401
			c-1.37-0.488-2.016-1.244-2.016-2.157c0-1.229,0.992-2.236,2.63-2.236c0.771,0,1.449,0.221,1.874,0.473l-0.347,1.008
			c-0.299-0.189-0.85-0.441-1.559-0.441c-0.818,0-1.275,0.472-1.275,1.039c0,0.63,0.457,0.914,1.449,1.292
			c1.323,0.504,2,1.165,2,2.299c0,1.338-1.04,2.284-2.85,2.284c-0.835,0-1.606-0.205-2.142-0.52L-170.534,354.116z"/>
		<path d="M-163.602,347.912l1.669,4.504c0.173,0.504,0.362,1.102,0.488,1.559h0.031c0.142-0.457,0.299-1.039,0.488-1.59
			l1.512-4.472h1.464l-2.079,5.433c-0.992,2.614-1.669,3.953-2.614,4.771c-0.677,0.599-1.354,0.834-1.7,0.897l-0.347-1.165
			c0.347-0.11,0.803-0.331,1.212-0.677c0.378-0.299,0.851-0.834,1.166-1.543c0.063-0.142,0.11-0.252,0.11-0.331
			s-0.032-0.189-0.095-0.362l-2.819-7.023H-163.602z"/>
		<path d="M-156.969,354.116c0.41,0.268,1.134,0.551,1.827,0.551c1.008,0,1.48-0.504,1.48-1.134c0-0.661-0.394-1.023-1.417-1.401
			c-1.37-0.488-2.016-1.244-2.016-2.157c0-1.229,0.992-2.236,2.63-2.236c0.771,0,1.449,0.221,1.874,0.473l-0.347,1.008
			c-0.299-0.189-0.85-0.441-1.559-0.441c-0.818,0-1.275,0.472-1.275,1.039c0,0.63,0.457,0.914,1.449,1.292
			c1.323,0.504,2,1.165,2,2.299c0,1.338-1.04,2.284-2.85,2.284c-0.835,0-1.606-0.205-2.142-0.52L-156.969,354.116z"/>
		<path d="M-148.873,345.723v2.189h1.984v1.055h-1.984v4.11c0,0.945,0.268,1.48,1.039,1.48c0.362,0,0.63-0.047,0.803-0.095
			l0.063,1.039c-0.268,0.11-0.693,0.189-1.228,0.189c-0.646,0-1.166-0.205-1.496-0.583c-0.394-0.409-0.536-1.086-0.536-1.984v-4.157
			h-1.181v-1.055h1.181v-1.827L-148.873,345.723z"/>
		<path d="M-144.65,351.975c0.032,1.874,1.229,2.646,2.614,2.646c0.992,0,1.59-0.173,2.11-0.394l0.236,0.992
			c-0.488,0.221-1.323,0.473-2.535,0.473c-2.346,0-3.748-1.543-3.748-3.843c0-2.299,1.354-4.11,3.574-4.11
			c2.488,0,3.149,2.189,3.149,3.59c0,0.284-0.031,0.504-0.047,0.646H-144.65z M-140.587,350.983
			c0.016-0.882-0.362-2.252-1.921-2.252c-1.401,0-2.016,1.292-2.125,2.252H-140.587z"/>
		<path d="M-137.529,349.975c0-0.788-0.016-1.433-0.063-2.063h1.212l0.063,1.229h0.047c0.425-0.725,1.134-1.402,2.394-1.402
			c1.04,0,1.827,0.63,2.157,1.528h0.032c0.236-0.425,0.536-0.756,0.85-0.992c0.457-0.347,0.961-0.536,1.685-0.536
			c1.008,0,2.504,0.662,2.504,3.307v4.488h-1.354v-4.315c0-1.464-0.536-2.346-1.654-2.346c-0.787,0-1.401,0.583-1.638,1.26
			c-0.063,0.189-0.11,0.441-0.11,0.693v4.708h-1.354v-4.567c0-1.212-0.535-2.094-1.59-2.094c-0.866,0-1.496,0.693-1.716,1.386
			c-0.079,0.205-0.11,0.441-0.11,0.677v4.598h-1.354V349.975z"/>
		<path d="M-124.721,349.172c0-0.583,0.394-0.992,0.945-0.992s0.914,0.41,0.929,0.992c0,0.551-0.362,0.977-0.945,0.977
			C-124.343,350.148-124.721,349.723-124.721,349.172z M-124.721,354.73c0-0.583,0.394-0.992,0.945-0.992s0.914,0.41,0.929,0.992
			c0,0.551-0.362,0.977-0.945,0.977C-124.343,355.707-124.721,355.282-124.721,354.73z"/>
		<path d="M-121.129,350.4c0-0.977-0.031-1.764-0.063-2.488h1.244l0.063,1.307h0.032c0.566-0.929,1.464-1.48,2.708-1.48
			c1.843,0,3.229,1.559,3.229,3.874c0,2.74-1.669,4.094-3.464,4.094c-1.008,0-1.89-0.441-2.346-1.197h-0.032v4.141h-1.37V350.4z
			 M-119.759,352.432c0,0.205,0.032,0.394,0.063,0.567c0.252,0.96,1.086,1.622,2.079,1.622c1.464,0,2.315-1.196,2.315-2.944
			c0-1.527-0.803-2.834-2.268-2.834c-0.945,0-1.827,0.677-2.095,1.716c-0.047,0.173-0.094,0.378-0.094,0.567V352.432z"/>
		<path d="M-112.165,350.29c0-0.897-0.016-1.669-0.063-2.378h1.212l0.047,1.496h0.063c0.347-1.023,1.181-1.669,2.11-1.669
			c0.157,0,0.268,0.016,0.394,0.047v1.307c-0.142-0.032-0.283-0.047-0.473-0.047c-0.976,0-1.669,0.74-1.858,1.779
			c-0.032,0.189-0.063,0.41-0.063,0.646v4.063h-1.37V350.29z"/>
		<path d="M-105.407,345.771c0.016,0.473-0.331,0.851-0.882,0.851c-0.488,0-0.835-0.378-0.835-0.851
			c0-0.488,0.362-0.866,0.866-0.866C-105.738,344.904-105.407,345.282-105.407,345.771z M-106.951,355.534v-7.622h1.386v7.622
			H-106.951z"/>
		<path d="M-103.264,349.975c0-0.788-0.016-1.433-0.063-2.063h1.229l0.079,1.26h0.032c0.378-0.725,1.26-1.433,2.52-1.433
			c1.055,0,2.692,0.63,2.692,3.244v4.551h-1.386v-4.394c0-1.228-0.457-2.251-1.764-2.251c-0.913,0-1.622,0.646-1.858,1.417
			c-0.063,0.173-0.095,0.409-0.095,0.646v4.583h-1.386V349.975z"/>
		<path d="M-94.852,354.715c0-0.583,0.394-0.992,0.945-0.992s0.929,0.41,0.929,0.992c0,0.567-0.362,0.992-0.945,0.992
			C-94.474,355.707-94.852,355.282-94.852,354.715z"/>
		<path d="M-91.59,354.715c0-0.583,0.394-0.992,0.945-0.992s0.929,0.41,0.929,0.992c0,0.567-0.362,0.992-0.945,0.992
			C-91.212,355.707-91.59,355.282-91.59,354.715z"/>
		<path d="M-88.33,354.715c0-0.583,0.394-0.992,0.945-0.992s0.929,0.41,0.929,0.992c0,0.567-0.362,0.992-0.945,0.992
			C-87.952,355.707-88.33,355.282-88.33,354.715z"/>
	</g>
	
		<rect x="-207.899" y="430.981" display="inline" fill="#FFFFFF" stroke="#000000" stroke-width="0.9715" stroke-miterlimit="10" width="159.912" height="38.043"/>
	<g display="inline">
		<path d="M-179.921,445.848h5.716v1.15h-4.346v3.527h4.015v1.134h-4.015v4.803h-1.37V445.848z"/>
		<path d="M-166.469,454.383c0,0.787,0.016,1.48,0.062,2.079h-1.228l-0.079-1.244h-0.032c-0.362,0.614-1.165,1.417-2.52,1.417
			c-1.197,0-2.629-0.662-2.629-3.338v-4.457h1.386v4.22c0,1.449,0.44,2.425,1.7,2.425c0.929,0,1.575-0.646,1.827-1.26
			c0.079-0.205,0.126-0.457,0.126-0.709v-4.677h1.386V454.383z"/>
		<path d="M-164.167,450.903c0-0.788-0.016-1.433-0.063-2.063h1.229l0.079,1.26h0.031c0.378-0.725,1.26-1.433,2.52-1.433
			c1.055,0,2.693,0.63,2.693,3.244v4.551h-1.386v-4.394c0-1.228-0.457-2.251-1.764-2.251c-0.913,0-1.622,0.646-1.858,1.417
			c-0.063,0.173-0.095,0.409-0.095,0.646v4.583h-1.386V450.903z"/>
		<path d="M-149.991,456.178c-0.362,0.189-1.165,0.441-2.188,0.441c-2.299,0-3.795-1.559-3.795-3.89
			c0-2.347,1.606-4.047,4.094-4.047c0.819,0,1.543,0.205,1.921,0.394l-0.315,1.071c-0.331-0.189-0.851-0.362-1.606-0.362
			c-1.748,0-2.692,1.292-2.692,2.882c0,1.764,1.134,2.85,2.646,2.85c0.787,0,1.307-0.205,1.701-0.378L-149.991,456.178z"/>
		<path d="M-146.491,446.651v2.189h1.984v1.055h-1.984v4.11c0,0.945,0.268,1.48,1.039,1.48c0.362,0,0.63-0.047,0.803-0.095
			l0.063,1.039c-0.268,0.11-0.693,0.189-1.228,0.189c-0.646,0-1.166-0.205-1.496-0.583c-0.394-0.409-0.536-1.086-0.536-1.984v-4.157
			h-1.181v-1.055h1.181v-1.827L-146.491,446.651z"/>
		<path d="M-141.403,446.698c0.016,0.473-0.331,0.851-0.882,0.851c-0.488,0-0.835-0.378-0.835-0.851
			c0-0.488,0.362-0.866,0.866-0.866C-141.734,445.832-141.403,446.21-141.403,446.698z M-142.946,456.461v-7.622h1.386v7.622
			H-142.946z"/>
		<path d="M-132.362,452.588c0,2.818-1.953,4.047-3.795,4.047c-2.062,0-3.653-1.512-3.653-3.921c0-2.551,1.669-4.047,3.779-4.047
			C-133.843,448.667-132.362,450.257-132.362,452.588z M-138.409,452.667c0,1.669,0.96,2.929,2.315,2.929
			c1.322,0,2.314-1.244,2.314-2.96c0-1.291-0.646-2.929-2.283-2.929S-138.409,451.218-138.409,452.667z"/>
		<path d="M-130.611,450.903c0-0.788-0.016-1.433-0.063-2.063h1.229l0.079,1.26h0.031c0.378-0.725,1.26-1.433,2.52-1.433
			c1.055,0,2.693,0.63,2.693,3.244v4.551h-1.386v-4.394c0-1.228-0.457-2.251-1.764-2.251c-0.913,0-1.622,0.646-1.858,1.417
			c-0.063,0.173-0.095,0.409-0.095,0.646v4.583h-1.386V450.903z"/>
		<path d="M-120.087,456.461l-2.693-10.614h1.449l1.26,5.37c0.315,1.323,0.598,2.646,0.787,3.669h0.032
			c0.173-1.055,0.504-2.315,0.866-3.685l1.417-5.354h1.433l1.291,5.386c0.299,1.26,0.583,2.52,0.74,3.638h0.031
			c0.221-1.166,0.52-2.347,0.851-3.669l1.401-5.354h1.401l-3.007,10.614h-1.433l-1.338-5.527c-0.331-1.354-0.551-2.394-0.693-3.464
			h-0.032c-0.189,1.055-0.425,2.095-0.819,3.464l-1.512,5.527H-120.087z"/>
		<path d="M-102.162,452.588c0,2.818-1.953,4.047-3.795,4.047c-2.063,0-3.653-1.512-3.653-3.921c0-2.551,1.669-4.047,3.779-4.047
			C-103.642,448.667-102.162,450.257-102.162,452.588z M-108.208,452.667c0,1.669,0.96,2.929,2.314,2.929
			c1.323,0,2.315-1.244,2.315-2.96c0-1.291-0.646-2.929-2.283-2.929S-108.208,451.218-108.208,452.667z"/>
		<path d="M-100.41,451.218c0-0.897-0.016-1.669-0.063-2.378h1.213l0.047,1.496h0.063c0.347-1.023,1.181-1.669,2.11-1.669
			c0.157,0,0.268,0.016,0.394,0.047v1.307c-0.142-0.032-0.284-0.047-0.472-0.047c-0.977,0-1.669,0.74-1.858,1.779
			c-0.031,0.189-0.063,0.41-0.063,0.646v4.063h-1.37V451.218z"/>
		<path d="M-93.826,452.336h0.031c0.189-0.268,0.457-0.599,0.677-0.866l2.236-2.63h1.669l-2.945,3.134l3.354,4.488h-1.685
			l-2.63-3.653l-0.708,0.788v2.866h-1.37v-11.18h1.37V452.336z"/>
		<path d="M-87.036,452.902c0.032,1.874,1.229,2.646,2.614,2.646c0.992,0,1.59-0.173,2.11-0.394l0.236,0.992
			c-0.488,0.221-1.323,0.473-2.535,0.473c-2.346,0-3.748-1.543-3.748-3.843c0-2.299,1.354-4.11,3.574-4.11
			c2.488,0,3.149,2.189,3.149,3.59c0,0.284-0.031,0.504-0.047,0.646H-87.036z M-82.973,451.911c0.016-0.882-0.362-2.252-1.921-2.252
			c-1.401,0-2.016,1.292-2.125,2.252H-82.973z"/>
		<path d="M-79.914,451.218c0-0.897-0.016-1.669-0.063-2.378h1.213l0.047,1.496h0.063c0.347-1.023,1.181-1.669,2.11-1.669
			c0.157,0,0.268,0.016,0.394,0.047v1.307c-0.142-0.032-0.284-0.047-0.472-0.047c-0.977,0-1.669,0.74-1.858,1.779
			c-0.031,0.189-0.063,0.41-0.063,0.646v4.063h-1.37V451.218z"/>
	</g>
	
		<line display="inline" fill="none" stroke="#000000" stroke-width="2" stroke-miterlimit="10" x1="-129.445" y1="289.731" x2="-129.445" y2="331.152"/>
	
		<line display="inline" fill="none" stroke="#000000" stroke-width="2" stroke-miterlimit="10" x1="-128.837" y1="371.029" x2="-128.837" y2="430.981"/>
</g>
</svg>
