<?xml version="1.0" encoding="utf-8"?>
<!-- Generator: Adobe Illustrator 16.0.0, SVG Export Plug-In . SVG Version: 6.00 Build 0)  -->
<!DOCTYPE svg PUBLIC "-//W3C//DTD SVG 1.1//EN" "http://www.w3.org/Graphics/SVG/1.1/DTD/svg11.dtd">
<svg version="1.1" id="Layer_1" xmlns="http://www.w3.org/2000/svg" xmlns:xlink="http://www.w3.org/1999/xlink" x="0px" y="0px"
	 width="512px" height="512px" viewBox="0 0 512 512" enable-background="new 0 0 512 512" xml:space="preserve">
<g>
	<path fill-rule="evenodd" clip-rule="evenodd" d="M168.137,297.398c50.573-15.43,100.886-30.196,150.762-46.316
		c17.762-5.74,32.872-16.671,41.688-34.266c3.509-7.002,4.296-11.708-4.774-16.621c-31.493-17.054-45.61-50.805-36.517-83.64
		c9.146-33.039,39.207-55.031,73.854-54.032c33.482,0.966,62.427,24.98,69.676,57.81c7.323,33.17-8.842,65.119-40.993,82.002
		c-3.751,1.97-8.248,5.784-9.11,9.505c-11.056,47.729-43.227,75.298-87.384,90.106c-29.449,9.876-60.01,16.41-89.773,25.43
		c-15.848,4.799-31.495,10.799-46.366,18.037c-7.247,3.528-12.509,11.137-19.817,17.973c27.226,14.411,44.083,33.146,47.184,62.086
		c3.767,35.158-18.749,68.808-52.827,78.326c-35.479,9.907-72.646-7.283-87.731-40.583c-14.628-32.289-4.366-72.638,26.19-90.351
		c14.329-8.309,17.023-17.507,16.85-32.15c-0.674-57.128-0.43-114.269-0.11-171.402c0.049-8.732-1.826-13.898-10.394-18.4
		c-30.597-16.069-45.235-50.23-36.726-82.421c8.849-33.471,38.127-55.842,72.69-55.538c32.777,0.288,62.37,23.465,70.472,55.193
		c8.421,32.979-6.897,66.748-37.442,83.804c-3.87,2.163-8.949,6.868-8.998,10.456C167.926,207.631,168.137,252.868,168.137,297.398z
		 M415.562,136.437c0.147-13.522-11.452-25.26-24.993-25.299c-13.71-0.036-24.789,11.35-24.649,25.333
		c0.136,13.675,10.38,24.038,24.028,24.313C403.968,161.065,415.413,150.187,415.562,136.437z M143.885,111.336
		c14.099-0.245,24.482-11.239,24.089-25.511c-0.369-13.445-11.113-23.935-24.522-23.94c-13.703-0.008-25.302,11.559-25.097,25.024
		C118.568,100.693,129.945,111.578,143.885,111.336z M167.98,433.568c0.333-14.261-10.105-25.213-24.211-25.396
		c-13.927-0.185-25.284,10.784-25.415,24.548c-0.126,13.017,10.612,24.17,23.912,24.836
		C156.169,458.256,167.649,447.542,167.98,433.568z"/>
</g>
</svg>
