<svg xmlns="http://www.w3.org/2000/svg" width="512" height="512">
  <path fill-rule="evenodd" d="M168 297.4c50.7-15.4 101-30.2 151-46.3 17.7-5.7 32.8-16.6 41.6-34.2 3.5-7 4.3-11.7-4.8-16.6-31.5-17-45.6-50.8-36.5-83.6 9-33 39.2-55 73.8-54 33.6 1 62.6 25 69.8 57.7 7.3 33.2-8.8 65.2-41 82-3.7 2-8.2 5.8-9 9.5-11 47.8-43.3 75.3-87.5 90-29.4 10-60 16.6-89.7 25.6-16 4.8-31.5 10.8-46.4 18-7.2 3.5-12.5 11.2-19.8 18 27.2 14.4 44 33 47.2 62 3.7 35.2-18.8 69-53 78.4-35.3 10-72.5-7.3-87.6-40.6-14.6-32.3-4.4-72.6 26.2-90.3 14.3-8.4 17-17.6 16.8-32.3-.6-57-.4-114.3 0-171.4 0-8.7-2-14-10.5-18.4-30.6-16.2-45.2-50.3-36.7-82.5 9-33.5 38-56 72.7-55.5 32.8.2 62.4 23.4 70.5 55 8.4 33-7 67-37.5 84-3.8 2-9 6.8-9 10.4-.6 45.2-.4 90.5-.4 135zm247.6-161c0-13.5-11.5-25.2-25-25.3-13.7 0-24.8 11.5-24.7 25.5 0 13.6 10.3 24 24 24.3 14 .3 25.4-10.6 25.6-24.4zm-271.7-25c14-.3 24.4-11.3 24-25.6-.4-13.4-11-24-24.5-24-13.8 0-25.4 11.6-25 25 0 14 11.4 24.8 25.4 24.5zm24 322.2c.3-14.3-10-25.2-24.2-25.4-14-.2-25.3 10.8-25.4 24.5-.2 13 10.6 24.2 24 25 13.8.6 25.2-10.2 25.6-24z" clip-rule="evenodd"/>
</svg>
