<?xml version="1.0" encoding="utf-8"?>
<!-- Generator: Adobe Illustrator 16.0.0, SVG Export Plug-In . SVG Version: 6.00 Build 0)  -->
<!DOCTYPE svg PUBLIC "-//W3C//DTD SVG 1.1//EN" "http://www.w3.org/Graphics/SVG/1.1/DTD/svg11.dtd">
<svg version="1.1" id="Layer_1" xmlns="http://www.w3.org/2000/svg" xmlns:xlink="http://www.w3.org/1999/xlink" x="0px" y="0px"
	 width="217.426px" height="150.468px" viewBox="0 0 217.426 150.468" enable-background="new 0 0 217.426 150.468"
	 xml:space="preserve">
<g>
	<path fill="none" stroke="#FFFFFF" stroke-width="2" stroke-miterlimit="10" d="M30.891,49.987h12.123v33.976
		c0,15.314-7.338,20.658-19.143,20.658c-2.791,0-6.459-0.479-8.852-1.277l1.355-9.809c1.674,0.557,3.828,0.957,6.221,0.957
		c5.104,0,8.295-2.314,8.295-10.688V49.987z"/>
	<path fill="none" stroke="#FFFFFF" stroke-width="2" stroke-miterlimit="10" d="M89.512,91.221c0,5.105,0.16,9.252,0.318,12.523
		H79.303l-0.559-5.504h-0.238c-1.516,2.393-5.186,6.381-12.203,6.381c-7.896,0-13.719-4.945-13.719-16.988v-22.89h12.203v20.976
		c0,5.662,1.834,9.092,6.061,9.092c3.35,0,5.266-2.312,6.062-4.227c0.318-0.719,0.398-1.676,0.398-2.633V64.743h12.203V91.221z"/>
	<path fill="none" stroke="#FFFFFF" stroke-width="2" stroke-miterlimit="10" d="M99.243,47.116h12.123v56.628H99.243V47.116z"/>
	<path fill="none" stroke="#FFFFFF" stroke-width="2" stroke-miterlimit="10" d="M130.268,64.743l5.822,19.14
		c0.637,2.314,1.436,5.186,1.914,7.26h0.238c0.559-2.074,1.197-5.025,1.756-7.26l4.785-19.14h13l-9.092,25.681
		c-5.584,15.473-9.332,21.693-13.719,25.602c-4.227,3.67-8.693,4.945-11.725,5.344l-2.553-10.287c1.516-0.24,3.43-0.957,5.264-2.074
		c1.836-0.957,3.83-2.871,5.025-4.865c0.398-0.559,0.639-1.197,0.639-1.756c0-0.398-0.08-1.035-0.559-1.992l-14.277-35.652H130.268z
		"/>
	<path fill="none" stroke="#FFFFFF" stroke-width="2" stroke-miterlimit="10" d="M192.956,62.669h-0.16l-9.889,4.705l-1.994-9.092
		l13.719-6.381h10.049v51.843h-11.725V62.669z"/>
</g>
</svg>
