<?xml version="1.0" encoding="utf-8"?>
<!-- Generator: Adobe Illustrator 16.0.0, SVG Export Plug-In . SVG Version: 6.00 Build 0)  -->
<!DOCTYPE svg PUBLIC "-//W3C//DTD SVG 1.1//EN" "http://www.w3.org/Graphics/SVG/1.1/DTD/svg11.dtd">
<svg version="1.1" id="Layer_1" xmlns="http://www.w3.org/2000/svg" xmlns:xlink="http://www.w3.org/1999/xlink" x="0px" y="0px"
	 width="317.426px" height="150.469px" viewBox="0 0 317.426 150.469" enable-background="new 0 0 317.426 150.469"
	 xml:space="preserve">
<g>
	<path fill="#FFFFFF" d="M39.324,52.165V98.56h-9.416V79.321H12.646v19.242H3.23V52.165h9.416v18.968h17.262V52.165H39.324z"/>
	<path fill="#FFFFFF" d="M46.35,88.189c0-3.547,0.943-6.105,2.831-7.673c1.887-1.571,4.922-2.491,9.108-2.766l7.301-0.545v-2.114
		c0-1.366-0.308-2.321-0.922-2.866c-0.614-0.545-1.647-0.821-3.104-0.821c-1.501,0-3.571,0.058-6.208,0.173
		c-2.638,0.114-4.844,0.239-6.619,0.375l-0.272-6.345c4.914-1.321,9.552-1.979,13.919-1.979c4.366,0,7.517,0.91,9.449,2.729
		c1.933,1.82,2.899,4.73,2.899,8.734v14.19c0.092,1.139,0.285,1.909,0.581,2.321c0.294,0.408,0.853,0.704,1.672,0.886L76.71,99.38
		c-2.367,0-4.243-0.159-5.629-0.478c-1.388-0.32-2.763-0.957-4.128-1.91c-3.321,1.59-6.664,2.388-10.03,2.388
		C49.874,99.38,46.35,95.65,46.35,88.189z M64.567,91.125l1.023-0.271v-7.303l-6.208,0.547c-2.548,0.228-3.821,1.593-3.821,4.092
		c0,2.503,1.115,3.753,3.343,3.753C60.632,91.942,62.521,91.669,64.567,91.125z"/>
	<path fill="#FFFFFF" d="M85.137,95.116c-2.208-2.843-3.31-7.379-3.31-13.612c0-6.322,1.137-10.882,3.413-13.678
		c2.274-2.798,5.98-4.196,11.122-4.196c1.318,0,2.773,0.113,4.366,0.339c1.593,0.229,3.729,0.616,6.414,1.162l-0.273,7.232
		c-3.867-0.363-6.551-0.545-8.052-0.545c-2.092,0-3.685,0.284-4.775,0.853s-1.854,1.535-2.286,2.899
		c-0.433,1.365-0.648,3.321-0.648,5.869c0,2.591,0.215,4.572,0.648,5.934c0.432,1.366,1.204,2.345,2.318,2.935
		c1.115,0.593,2.741,0.887,4.879,0.887l7.915-0.545l0.273,7.301c-4.821,0.955-8.598,1.434-11.326,1.434
		C90.901,99.38,87.341,97.958,85.137,95.116z"/>
	<path fill="#FFFFFF" d="M113.895,50.801h9.145v27.155l3.479-0.614l6.755-12.896h10.233l-8.869,16.169l9.347,17.943h-10.302
		l-6.891-13.303l-3.753,0.615v12.688h-9.145V50.801L113.895,50.801z"/>
	<path fill="#FFFFFF" d="M146.781,88.189c0-3.547,0.944-6.105,2.831-7.673c1.887-1.571,4.923-2.491,9.109-2.766l7.301-0.545v-2.114
		c0-1.366-0.306-2.321-0.92-2.866c-0.615-0.545-1.65-0.821-3.104-0.821c-1.501,0-3.569,0.058-6.21,0.173
		c-2.637,0.114-4.843,0.239-6.616,0.375l-0.274-6.345c4.913-1.321,9.553-1.979,13.919-1.979s7.517,0.91,9.45,2.729
		c1.933,1.82,2.9,4.73,2.9,8.734v14.19c0.091,1.139,0.283,1.909,0.579,2.321c0.298,0.408,0.854,0.704,1.674,0.886l-0.274,6.891
		c-2.365,0-4.242-0.159-5.628-0.478c-1.389-0.32-2.764-0.957-4.126-1.91c-3.323,1.59-6.667,2.388-10.033,2.388
		C150.306,99.38,146.781,95.65,146.781,88.189z M164.998,91.125l1.023-0.271v-7.303l-6.208,0.547
		c-2.548,0.228-3.821,1.593-3.821,4.092c0,2.503,1.113,3.753,3.343,3.753C161.064,91.942,162.953,91.669,164.998,91.125z"/>
	<path fill="#FFFFFF" d="M189.355,98.152c-1.456-0.818-2.501-2.16-3.137-4.025c-0.639-1.864-0.956-4.437-0.956-7.71V72.226h-4.024
		v-7.779h4.024v-9.484h9.14v9.484h8.393v7.779h-8.391v13.987c0,1.772,0.158,3.058,0.479,3.854c0.317,0.797,1.114,1.172,2.386,1.125
		l5.187-0.136l0.409,7.301c-1.82,0.409-3.241,0.681-4.263,0.816c-1.025,0.138-2.06,0.206-3.107,0.206
		C192.858,99.38,190.81,98.972,189.355,98.152z"/>
	<path fill="#FFFFFF" d="M208.733,50.801h9.143v15.284c1.729-0.864,3.265-1.488,4.604-1.875c1.344-0.388,2.786-0.58,4.334-0.58
		c4.184,0,7.152,1.33,8.903,3.99c1.749,2.662,2.626,6.812,2.626,12.454v18.485h-9.144V80.277c0-3.093-0.364-5.278-1.091-6.55
		c-0.727-1.274-2.138-1.91-4.229-1.91c-1.64,0-3.345,0.273-5.118,0.819l-0.887,0.274v25.654h-9.143V50.801z"/>
	<path fill="#FFFFFF" d="M248.682,94.706c-2.662-3.115-3.994-7.538-3.994-13.269c0-5.686,1.332-10.077,3.994-13.169
		c2.661-3.092,6.558-4.639,11.7-4.639c5.139,0,9.041,1.547,11.698,4.639c2.664,3.093,3.993,7.483,3.993,13.169
		c0,5.73-1.329,10.156-3.993,13.269c-2.657,3.116-6.56,4.676-11.698,4.676C255.24,99.38,251.343,97.822,248.682,94.706z
		 M265.227,89.217c1.046-1.594,1.566-4.188,1.566-7.779c0-3.596-0.521-6.166-1.566-7.711c-1.048-1.545-2.662-2.321-4.845-2.321
		c-2.185,0-3.799,0.775-4.845,2.321c-1.046,1.546-1.57,4.118-1.57,7.711c0,3.592,0.524,6.186,1.57,7.779
		c1.046,1.592,2.66,2.387,4.845,2.387C262.565,91.603,264.179,90.808,265.227,89.217z"/>
	<path fill="#FFFFFF" d="M282.761,64.447h9.071v1.911c1.73-1,3.265-1.707,4.607-2.115c1.34-0.41,2.785-0.613,4.33-0.613
		c4.189,0,7.167,1.342,8.938,4.023c1.774,2.685,2.662,6.824,2.662,12.42V98.56h-9.142V80.344c0-3.139-0.376-5.345-1.126-6.619
		c-0.752-1.273-2.171-1.909-4.264-1.909c-1.5,0-3.206,0.319-5.118,0.956l-0.818,0.272v25.518h-9.142V64.447L282.761,64.447z"/>
</g>
<g>
	<path fill="#FFFFFF" d="M160.114,125.848c-0.969-0.671-1.639-1.649-2.004-2.935c-0.368-1.284-0.549-2.982-0.549-5.094
		c0-2.178,0.187-3.913,0.562-5.208c0.374-1.291,1.035-2.265,1.98-2.91c0.942-0.646,2.283-0.97,4.019-0.97
		c1.413,0,3.046,0.204,4.903,0.613l-0.078,2.016c-1.617-0.287-3.063-0.433-4.34-0.433c-1.276,0-2.238,0.225-2.885,0.676
		c-0.646,0.453-1.081,1.179-1.302,2.181c-0.223,1.006-0.324,2.462-0.307,4.367c0,1.65,0.105,2.924,0.318,3.817
		c0.213,0.893,0.647,1.563,1.302,2.014c0.657,0.453,1.657,0.677,3,0.677c1.122,0,2.528-0.142,4.212-0.433l0.078,2.068
		c-1.874,0.374-3.448,0.56-4.725,0.56C162.48,126.855,161.082,126.522,160.114,125.848z"/>
	<path fill="#FFFFFF" d="M172.29,125.262c-0.869-1.065-1.301-2.735-1.301-5.02c0-2.328,0.443-4.031,1.327-5.102
		c0.884-1.075,2.306-1.609,4.263-1.609c1.973,0,3.398,0.54,4.276,1.621c0.877,1.079,1.314,2.778,1.314,5.09
		c0,2.266-0.432,3.934-1.302,5.006c-0.869,1.07-2.299,1.606-4.289,1.606C174.589,126.855,173.158,126.326,172.29,125.262z
		 M178.482,124.356c0.45-0.289,0.769-0.758,0.956-1.405c0.188-0.646,0.282-1.548,0.282-2.705c0-1.209-0.098-2.145-0.295-2.809
		c-0.194-0.66-0.519-1.136-0.969-1.416c-0.453-0.279-1.076-0.422-1.876-0.422c-0.8,0-1.429,0.143-1.888,0.422
		c-0.461,0.28-0.788,0.758-0.984,1.429c-0.196,0.675-0.293,1.605-0.293,2.796c0,1.141,0.095,2.039,0.28,2.693
		c0.188,0.654,0.511,1.128,0.97,1.418c0.461,0.287,1.098,0.432,1.916,0.432C177.396,124.789,178.031,124.644,178.482,124.356z"/>
	<path fill="#FFFFFF" d="M185.232,108.402h2.375v18.172h-2.375V108.402z"/>
	<path fill="#FFFFFF" d="M191.843,125.262c-0.868-1.065-1.303-2.735-1.303-5.02c0-2.328,0.442-4.031,1.327-5.102
		c0.885-1.075,2.307-1.609,4.264-1.609c1.973,0,3.398,0.54,4.276,1.621c0.877,1.079,1.313,2.778,1.313,5.09
		c0,2.266-0.432,3.934-1.3,5.006c-0.868,1.07-2.3,1.606-4.289,1.606C194.141,126.855,192.709,126.326,191.843,125.262z
		 M198.032,124.356c0.451-0.289,0.77-0.758,0.958-1.405c0.189-0.646,0.281-1.548,0.281-2.705c0-1.209-0.099-2.145-0.294-2.809
		c-0.196-0.66-0.518-1.136-0.97-1.416c-0.45-0.279-1.076-0.422-1.875-0.422c-0.802,0-1.43,0.143-1.888,0.422
		c-0.462,0.28-0.788,0.758-0.983,1.429c-0.197,0.675-0.294,1.605-0.294,2.796c0,1.141,0.093,2.039,0.279,2.693
		c0.188,0.654,0.511,1.128,0.971,1.418c0.458,0.287,1.098,0.432,1.915,0.432C196.947,124.789,197.581,124.644,198.032,124.356z"/>
	<path fill="#FFFFFF" d="M204.629,113.814h2.35v0.84c0.648-0.372,1.258-0.653,1.837-0.84c0.582-0.188,1.173-0.282,1.789-0.282
		c0.663,0,1.276,0.106,1.836,0.319c0.563,0.214,1.003,0.533,1.325,0.956c0.682-0.374,1.429-0.68,2.237-0.918
		c0.809-0.238,1.629-0.357,2.464-0.357c1.055,0,1.881,0.212,2.475,0.639c0.595,0.426,1.021,1.087,1.278,1.99
		c0.257,0.901,0.382,2.109,0.382,3.622v6.791h-2.376v-6.737c0-1.074-0.062-1.903-0.189-2.491c-0.128-0.585-0.358-1.012-0.688-1.274
		c-0.331-0.266-0.823-0.396-1.469-0.396c-0.479,0-0.971,0.055-1.48,0.165c-0.512,0.112-0.962,0.252-1.354,0.422l-0.458,0.203
		c0.185,0.732,0.278,1.891,0.278,3.472v6.637h-2.397v-6.587c0-1.139-0.062-2.009-0.179-2.614c-0.122-0.604-0.345-1.038-0.675-1.301
		c-0.333-0.266-0.821-0.396-1.467-0.396c-0.478,0-0.968,0.06-1.468,0.179c-0.504,0.118-0.924,0.254-1.264,0.407l-0.41,0.204v10.106
		h-2.375V113.814L204.629,113.814z"/>
	<path fill="#FFFFFF" d="M226.787,126.628l-0.79-0.076v-18.149h2.372v5.973c0.647-0.291,1.248-0.501,1.799-0.639
		c0.554-0.137,1.154-0.204,1.804-0.204c1.121,0,2.021,0.221,2.691,0.662c0.67,0.443,1.164,1.146,1.48,2.107
		c0.313,0.963,0.472,2.243,0.472,3.841c0,1.72-0.192,3.062-0.574,4.021c-0.383,0.963-1.013,1.647-1.888,2.057
		c-0.877,0.408-2.1,0.612-3.665,0.612C229.332,126.832,228.098,126.762,226.787,126.628z M232.797,124.264
		c0.521-0.296,0.882-0.773,1.087-1.427c0.204-0.657,0.306-1.562,0.306-2.72c0-1.123-0.091-2.003-0.27-2.643
		c-0.177-0.641-0.466-1.096-0.865-1.378c-0.401-0.281-0.95-0.422-1.648-0.422c-0.85,0-1.863,0.204-3.037,0.615v8.295
		c1.106,0.083,1.838,0.128,2.195,0.128C231.537,124.714,232.28,124.564,232.797,124.264z"/>
	<path fill="#FFFFFF" d="M240.291,125.262c-0.869-1.065-1.303-2.735-1.303-5.02c0-2.328,0.443-4.031,1.328-5.102
		c0.885-1.075,2.306-1.609,4.263-1.609c1.976,0,3.399,0.54,4.276,1.621c0.875,1.079,1.314,2.778,1.314,5.09
		c0,2.266-0.435,3.934-1.3,5.006c-0.87,1.07-2.299,1.606-4.291,1.606C242.589,126.855,241.158,126.326,240.291,125.262z
		 M246.483,124.356c0.448-0.289,0.768-0.758,0.957-1.405c0.185-0.646,0.281-1.548,0.281-2.705c0-1.209-0.099-2.145-0.296-2.809
		c-0.194-0.66-0.52-1.136-0.97-1.416c-0.453-0.279-1.074-0.422-1.876-0.422c-0.799,0-1.433,0.143-1.888,0.422
		c-0.46,0.28-0.787,0.758-0.985,1.429c-0.193,0.675-0.294,1.605-0.294,2.796c0,1.141,0.095,2.039,0.283,2.693
		c0.186,0.654,0.509,1.128,0.97,1.418c0.46,0.287,1.096,0.432,1.912,0.432C245.395,124.789,246.031,124.644,246.483,124.356z"/>
	<path fill="#FFFFFF" d="M258.593,123.591l3.599-3.652c0.935-0.969,1.635-1.728,2.093-2.271c0.463-0.545,0.797-1.047,1.011-1.507
		c0.211-0.459,0.318-0.954,0.318-1.481c0-0.765-0.199-1.314-0.6-1.646c-0.399-0.332-1.001-0.498-1.799-0.498
		c-1.124,0-2.366,0.101-3.729,0.306l-0.61,0.076l-0.182-2.731c1.67-0.51,3.397-0.765,5.183-0.765c3.574,0,5.361,1.61,5.361,4.825
		c0,0.852-0.112,1.604-0.347,2.259c-0.228,0.653-0.61,1.319-1.147,1.99c-0.534,0.674-1.296,1.459-2.283,2.361l-2.938,2.655h6.998
		v3.062h-10.926v-2.983H258.593z"/>
	<path fill="#FFFFFF" d="M273.449,124.751c-1.073-1.386-1.608-3.604-1.608-6.649c0-3.049,0.535-5.263,1.608-6.649
		c1.071-1.387,2.716-2.081,4.927-2.081c2.214,0,3.856,0.694,4.926,2.081c1.071,1.387,1.608,3.601,1.608,6.649
		c0,3.046-0.537,5.262-1.608,6.649c-1.069,1.388-2.712,2.081-4.926,2.081C276.165,126.832,274.521,126.138,273.449,124.751z
		 M280.062,123.219c0.422-0.364,0.735-0.961,0.931-1.787c0.198-0.826,0.295-1.934,0.295-3.33s-0.097-2.506-0.295-3.332
		c-0.195-0.824-0.509-1.421-0.931-1.786c-0.427-0.365-0.987-0.549-1.686-0.549c-0.697,0-1.26,0.184-1.684,0.549
		c-0.425,0.365-0.738,0.962-0.933,1.786c-0.196,0.826-0.294,1.937-0.294,3.332c0,1.396,0.098,2.504,0.294,3.33
		c0.194,0.826,0.508,1.423,0.933,1.787c0.424,0.367,0.986,0.549,1.684,0.549C279.074,123.767,279.635,123.586,280.062,123.219z"/>
	<path fill="#FFFFFF" d="M292.67,113.71l-3.648,2.35l-1.61-2.63l5.567-3.701h3.216v16.846h-3.522V113.71H292.67z"/>
	<path fill="#FFFFFF" d="M303.085,125.963l5.745-12.278v-0.818h-7.25v-3.138h10.771v3.981l-5.996,13.175L303.085,125.963z"/>
</g>
<g>
	<path fill="#FFFFFF" d="M3.257,26.205h6.981c0.968,0,1.829,0.109,2.607,0.27c0.805,0.215,1.449,0.537,2.013,0.858
		c0.536,0.376,0.967,0.808,1.263,1.343c0.322,0.484,0.484,1.075,0.484,1.665c0,0.807-0.188,1.451-0.538,1.989
		c-0.376,0.59-1.02,1.127-1.961,1.665c0.968,0.322,1.745,0.806,2.363,1.504c0.619,0.697,0.914,1.502,0.914,2.416
		c0,0.672-0.134,1.263-0.429,1.799c-0.271,0.538-0.7,1.076-1.236,1.45c-0.539,0.403-1.183,0.726-1.933,0.941
		c-0.754,0.269-1.614,0.376-2.526,0.376H3.23V26.178L3.257,26.205z M7.287,33.241h2.632c0.805,0,1.504-0.269,1.96-0.751
		c0.456-0.483,0.696-1.126,0.696-1.88c0-0.859-0.267-1.557-0.911-2.094c-0.618-0.539-1.611-0.807-2.9-0.807H7.26v5.506L7.287,33.241
		z M7.287,40.817h2.147c1.344,0,2.282-0.269,2.899-0.806c0.592-0.539,0.887-1.185,0.887-1.989c0-0.457-0.053-0.86-0.188-1.262
		c-0.133-0.403-0.347-0.725-0.643-1.021c-0.322-0.268-0.699-0.536-1.208-0.67c-0.486-0.161-1.075-0.271-1.802-0.271H7.314v6.019
		H7.287z M29.389,42.507h-3.707v-1.073l-0.589,0.537l-0.673,0.376l-0.805,0.269c-0.322,0.052-0.672,0.08-1.074,0.08
		c-0.59,0-1.074-0.08-1.559-0.269c-0.457-0.134-0.805-0.349-1.153-0.645c-0.322-0.269-0.538-0.618-0.726-0.993
		c-0.16-0.402-0.269-0.807-0.269-1.262c0-0.726,0.215-1.343,0.59-1.881c0.378-0.483,0.887-0.912,1.479-1.261
		c0.618-0.377,1.342-0.699,2.067-0.969c0.753-0.267,1.504-0.536,2.256-0.751l0.429-0.107v-1.182c0-0.804-0.162-1.344-0.456-1.666
		c-0.271-0.321-0.7-0.482-1.209-0.482c-0.591,0-0.993,0.161-1.209,0.429c-0.214,0.269-0.321,0.618-0.321,1.02
		c0,0.27,0,0.484-0.08,0.699c-0.054,0.214-0.135,0.403-0.271,0.538c-0.133,0.188-0.322,0.322-0.536,0.403
		c-0.215,0.106-0.482,0.161-0.807,0.161c-0.537,0-0.964-0.134-1.289-0.43c-0.322-0.269-0.482-0.671-0.482-1.127
		c0-0.404,0.134-0.807,0.429-1.182c0.269-0.35,0.671-0.671,1.156-0.939c0.538-0.271,1.074-0.483,1.718-0.618
		c0.645-0.162,1.343-0.216,2.042-0.216c1.771,0,3.034,0.268,3.841,0.886c0.805,0.618,1.181,1.424,1.181,2.417v9.239H29.389z
		 M25.682,36.061l-1.073,0.539c-0.377,0.214-0.726,0.429-1.022,0.671c-0.268,0.267-0.536,0.483-0.725,0.752
		c-0.187,0.268-0.269,0.537-0.269,0.858c0,0.457,0.108,0.887,0.349,1.208c0.216,0.35,0.485,0.538,0.807,0.538
		c0.269,0,0.591-0.108,0.912-0.269l1.021-0.723v-3.52V36.061L25.682,36.061z M35.888,42.507H32.21V25.239l3.679-0.994V42.507z
		 M42.092,42.507h-3.68V25.239l3.68-0.994V42.507z M50.231,42.776c-0.886,0-1.693-0.187-2.471-0.537
		c-0.751-0.269-1.423-0.725-1.989-1.288c-0.589-0.538-1.017-1.182-1.342-1.881c-0.348-0.752-0.538-1.53-0.538-2.336
		c0-0.967,0.189-1.88,0.485-2.686c0.323-0.806,0.751-1.557,1.289-2.148c0.538-0.618,1.236-1.074,2.015-1.424
		c0.806-0.35,1.666-0.537,2.633-0.537c0.858,0,1.611,0.16,2.362,0.429c0.699,0.269,1.344,0.646,1.826,1.074
		c0.485,0.428,0.888,1.075,1.182,1.692c0.267,0.671,0.405,1.342,0.405,2.095h-8.488c0,0.671,0.106,1.344,0.269,1.934
		c0.188,0.618,0.428,1.155,0.697,1.611c0.27,0.484,0.646,0.859,1.022,1.155c0.428,0.269,0.858,0.402,1.342,0.402
		c0.402,0,0.805-0.053,1.209-0.188c0.402-0.132,0.751-0.322,1.075-0.536c0.319-0.269,0.617-0.539,0.885-0.888
		c0.268-0.321,0.403-0.671,0.538-1.074l1.88,0.323c-0.161,0.645-0.457,1.263-0.885,1.88c-0.43,0.538-0.913,1.073-1.479,1.503
		c-0.536,0.43-1.207,0.807-1.879,1.075c-0.669,0.214-1.343,0.348-1.987,0.348h-0.054V42.776z M51.841,33.913
		c-0.107-0.726-0.348-1.342-0.751-1.745c-0.403-0.458-0.912-0.673-1.502-0.673c-0.458,0-0.887,0.215-1.292,0.646
		c-0.376,0.457-0.616,1.074-0.697,1.799h4.214L51.841,33.913z M61.886,42.507H58.18V30.153h3.706v0.913
		c0.403-0.429,0.86-0.751,1.344-1.02c0.536-0.269,1.075-0.376,1.611-0.376c0.268,0,0.619,0,0.913,0.135
		c0.268,0.053,0.538,0.161,0.804,0.322c0.19,0.163,0.351,0.322,0.484,0.538c0.108,0.189,0.188,0.402,0.188,0.645
		c0,0.429-0.188,0.805-0.536,1.074c-0.27,0.268-0.644,0.403-1.075,0.403c-0.322,0-0.536,0-0.751-0.134l-0.539-0.269
		c-0.133-0.134-0.267-0.269-0.457-0.323c-0.161-0.106-0.377-0.16-0.618-0.16c-0.242,0-0.454,0.188-0.725,0.537
		c-0.269,0.324-0.456,0.725-0.672,1.154v8.863L61.886,42.507z M68.171,26.314c0-0.539,0.215-0.94,0.591-1.291
		c0.402-0.403,0.86-0.537,1.423-0.537c0.539,0,0.995,0.134,1.397,0.537c0.376,0.323,0.536,0.751,0.536,1.263
		c0,0.482-0.16,0.913-0.536,1.263c-0.402,0.348-0.886,0.537-1.423,0.537c-0.591,0-1.073-0.188-1.45-0.537
		c-0.375-0.349-0.59-0.806-0.59-1.263L68.171,26.314z M68.359,30.879l3.706-1.074v12.703h-3.731V30.825L68.359,30.879z
		 M82.136,34.074c0-0.645-0.134-1.129-0.375-1.45c-0.269-0.323-0.539-0.483-0.858-0.483c-0.323,0-0.726,0.107-1.208,0.348
		c-0.484,0.269-0.942,0.592-1.343,0.993v9.025h-3.761V30.153h3.761v0.967c0.536-0.431,1.127-0.725,1.798-0.939
		c0.646-0.188,1.292-0.27,1.962-0.27c0.483,0,0.966,0.082,1.422,0.27c0.458,0.214,0.861,0.482,1.182,0.806
		c0.351,0.349,0.619,0.724,0.807,1.182c0.213,0.483,0.322,0.966,0.322,1.476v8.863h-3.708v-8.46V34.074z M97.927,42.507h-3.757
		v-1.073l-0.593,0.537c-0.188,0.134-0.403,0.269-0.645,0.376l-0.807,0.269c-0.269,0.052-0.671,0.08-1.072,0.08
		c-0.538,0-1.075-0.08-1.559-0.269c-0.455-0.134-0.807-0.349-1.155-0.645c-0.268-0.269-0.536-0.618-0.726-0.993
		c-0.16-0.402-0.269-0.807-0.269-1.262c0-0.726,0.216-1.343,0.593-1.881c0.402-0.483,0.911-0.912,1.531-1.261
		c0.618-0.377,1.289-0.699,2.041-0.969l2.255-0.751l0.43-0.107v-1.182c0-0.804-0.161-1.344-0.457-1.666
		c-0.271-0.321-0.698-0.482-1.209-0.482c-0.536,0-0.964,0.161-1.182,0.429c-0.213,0.269-0.32,0.618-0.32,1.02
		c0,0.27,0,0.484-0.083,0.699c0,0.214-0.107,0.403-0.268,0.538c-0.108,0.188-0.268,0.322-0.485,0.403
		c-0.268,0.106-0.536,0.161-0.858,0.161c-0.538,0-0.939-0.134-1.262-0.43c-0.321-0.269-0.483-0.671-0.483-1.127
		c0-0.404,0.135-0.807,0.429-1.182c0.323-0.35,0.697-0.671,1.183-0.939c0.533-0.271,1.074-0.483,1.719-0.618
		c0.645-0.162,1.342-0.216,2.039-0.216c1.773,0,3.064,0.268,3.842,0.886c0.804,0.618,1.21,1.424,1.21,2.417v9.239H97.927z
		 M94.171,36.115l-1.076,0.539c-0.35,0.213-0.672,0.428-0.969,0.67c-0.267,0.269-0.536,0.483-0.724,0.753
		c-0.213,0.269-0.321,0.537-0.321,0.858c0,0.458,0.108,0.887,0.35,1.208c0.268,0.351,0.535,0.538,0.804,0.538
		c0.322,0,0.619-0.106,0.94-0.268l1.02-0.725v-3.572h-0.024V36.115z"/>
</g>
<circle fill-rule="evenodd" clip-rule="evenodd" fill="#FFFFFF" cx="125.303" cy="127.893" r="4.488"/>
<line fill="#FFFFFF" stroke="#FFFFFF" stroke-width="2.2162" stroke-miterlimit="10" x1="125.302" y1="127.893" x2="143.403" y2="103.621"/>
<circle fill-rule="evenodd" clip-rule="evenodd" fill="#FFFFFF" cx="189.8" cy="35.029" r="4.488"/>
<line fill="#FFFFFF" stroke="#FFFFFF" stroke-width="2.2162" stroke-miterlimit="10" x1="171.447" y1="59.301" x2="189.547" y2="35.029"/>
<circle fill-rule="evenodd" clip-rule="evenodd" fill="#FFFFFF" cx="253.286" cy="36.203" r="4.489"/>
<line fill="#FFFFFF" stroke="#FFFFFF" stroke-width="2.2162" stroke-miterlimit="10" x1="189.802" y1="35.029" x2="253.285" y2="36.203"/>
<circle fill-rule="evenodd" clip-rule="evenodd" fill="#FFFFFF" cx="281.848" cy="6.652" r="4.488"/>
<circle fill-rule="evenodd" clip-rule="evenodd" fill="#FFFFFF" cx="62.91" cy="117.32" r="4.488"/>
<circle fill-rule="evenodd" clip-rule="evenodd" fill="#FFFFFF" cx="31.265" cy="141.581" r="4.488"/>
<line fill="#FFFFFF" stroke="#FFFFFF" stroke-width="2.2162" stroke-miterlimit="10" x1="30.91" y1="142.229" x2="62.26" y2="117.336"/>
<line fill="#FFFFFF" stroke="#FFFFFF" stroke-width="2.4307" stroke-miterlimit="10" x1="62.809" y1="117.321" x2="126.158" y2="128.171"/>
<line fill="#FFFFFF" stroke="#FFFFFF" stroke-width="2.2162" stroke-miterlimit="10" x1="253.333" y1="36.548" x2="280.106" y2="7.694"/>
</svg>
