<?xml version="1.0" encoding="utf-8"?>
<!-- Generator: Adobe Illustrator 16.0.0, SVG Export Plug-In . SVG Version: 6.00 Build 0)  -->
<!DOCTYPE svg PUBLIC "-//W3C//DTD SVG 1.1//EN" "http://www.w3.org/Graphics/SVG/1.1/DTD/svg11.dtd">
<svg version="1.1" id="Layer_1" xmlns="http://www.w3.org/2000/svg" xmlns:xlink="http://www.w3.org/1999/xlink" x="0px" y="0px"
	 width="247.226px" height="150.468px" viewBox="0 0 247.226 150.468" enable-background="new 0 0 247.226 150.468"
	 xml:space="preserve">
<g>
	<path fill="#FFFFFF" d="M37.311,61.177c1.592-0.26,3.962-0.455,6.592-0.455c3.247,0,5.521,0.487,7.079,1.721
		c1.299,1.039,2.013,2.565,2.013,4.579c0,2.792-1.98,4.708-3.863,5.39v0.098c1.525,0.617,2.37,2.078,2.922,4.091
		c0.682,2.468,1.363,5.325,1.786,6.17h-5.065c-0.357-0.617-0.877-2.403-1.526-5.098c-0.585-2.728-1.526-3.475-3.539-3.507h-1.494
		v8.604h-4.903V61.177z M42.214,70.593h1.948c2.468,0,3.93-1.233,3.93-3.149c0-2.014-1.364-3.02-3.637-3.053
		c-1.202,0-1.884,0.098-2.241,0.163V70.593z"/>
	<path fill="#FFFFFF" d="M60.201,76.405c0.162,2.046,2.175,3.02,4.48,3.02c1.688,0,3.053-0.228,4.384-0.649l0.649,3.345
		c-1.624,0.649-3.604,0.974-5.748,0.974c-5.39,0-8.475-3.117-8.475-8.085c0-4.026,2.5-8.475,8.021-8.475
		c5.13,0,7.079,3.994,7.079,7.923c0,0.844-0.098,1.591-0.163,1.948H60.201z M66.013,73.028c0-1.201-0.52-3.215-2.792-3.215
		c-2.078,0-2.923,1.884-3.053,3.215H66.013z"/>
	<path fill="#FFFFFF" d="M88.708,66.892c-0.065,1.006-0.13,2.338-0.13,4.708v8.864c0,3.053-0.617,5.553-2.402,7.144
		c-1.754,1.494-4.124,1.948-6.462,1.948c-2.078,0-4.286-0.422-5.715-1.233l0.974-3.734c1.007,0.584,2.76,1.201,4.611,1.201
		c2.338,0,4.123-1.267,4.123-4.188v-1.039h-0.064c-0.941,1.331-2.468,2.078-4.286,2.078c-3.929,0-6.722-3.183-6.722-7.761
		c0-5.098,3.312-8.345,7.209-8.345c2.176,0,3.539,0.941,4.351,2.24h0.065l0.162-1.883H88.708z M83.643,73.353
		c0-0.324-0.032-0.649-0.098-0.909c-0.357-1.299-1.299-2.175-2.662-2.175c-1.786,0-3.247,1.623-3.247,4.513
		c0,2.371,1.169,4.222,3.247,4.222c1.266,0,2.272-0.845,2.598-2.014c0.13-0.356,0.162-0.876,0.162-1.299V73.353z"/>
	<path fill="#FFFFFF" d="M97.637,62.476c0,1.363-1.039,2.468-2.663,2.468c-1.559,0-2.598-1.104-2.565-2.468
		c-0.032-1.429,1.007-2.501,2.598-2.501C96.598,59.975,97.604,61.047,97.637,62.476z M92.538,82.77V66.892h4.936V82.77H92.538z"/>
	<path fill="#FFFFFF" d="M101.401,78.451c0.909,0.552,2.792,1.201,4.254,1.201c1.493,0,2.11-0.52,2.11-1.331
		c0-0.812-0.487-1.202-2.338-1.818c-3.279-1.104-4.546-2.891-4.514-4.773c0-2.955,2.533-5.195,6.462-5.195
		c1.851,0,3.507,0.422,4.481,0.909l-0.877,3.409c-0.715-0.39-2.078-0.909-3.442-0.909c-1.201,0-1.883,0.487-1.883,1.299
		c0,0.747,0.616,1.137,2.565,1.818c3.02,1.039,4.285,2.565,4.318,4.903c0,2.955-2.338,5.13-6.884,5.13
		c-2.078,0-3.929-0.454-5.131-1.104L101.401,78.451z"/>
	<path fill="#FFFFFF" d="M121.045,62.346v4.546h3.539v3.637h-3.539v5.747c0,1.916,0.454,2.792,1.948,2.792
		c0.616,0,1.104-0.064,1.461-0.13l0.032,3.734c-0.649,0.26-1.818,0.422-3.215,0.422c-1.591,0-2.922-0.552-3.701-1.363
		c-0.909-0.941-1.363-2.468-1.363-4.708v-6.494h-2.111v-3.637h2.111v-3.442L121.045,62.346z"/>
	<path fill="#FFFFFF" d="M131.076,76.405c0.163,2.046,2.176,3.02,4.481,3.02c1.688,0,3.052-0.228,4.384-0.649l0.649,3.345
		c-1.624,0.649-3.604,0.974-5.747,0.974c-5.391,0-8.476-3.117-8.476-8.085c0-4.026,2.501-8.475,8.021-8.475
		c5.131,0,7.078,3.994,7.078,7.923c0,0.844-0.097,1.591-0.162,1.948H131.076z M136.889,73.028c0-1.201-0.52-3.215-2.792-3.215
		c-2.078,0-2.923,1.884-3.053,3.215H136.889z"/>
	<path fill="#FFFFFF" d="M144.421,72.119c0-2.338-0.064-3.864-0.13-5.228h4.254l0.162,2.922h0.13
		c0.812-2.306,2.761-3.279,4.286-3.279c0.455,0,0.682,0,1.039,0.064v4.644c-0.357-0.064-0.779-0.13-1.331-0.13
		c-1.818,0-3.052,0.975-3.377,2.5c-0.065,0.325-0.098,0.715-0.098,1.104v8.053h-4.936V72.119z"/>
	<path fill="#FFFFFF" d="M163.479,82.77V60.884h5.78l4.546,8.021c1.299,2.306,2.598,5.033,3.572,7.501h0.097
		c-0.324-2.89-0.422-5.845-0.422-9.124v-6.397h4.546V82.77h-5.195l-4.676-8.442c-1.299-2.338-2.728-5.163-3.799-7.729l-0.098,0.033
		c0.13,2.89,0.195,5.975,0.195,9.546v6.592H163.479z"/>
	<path fill="#FFFFFF" d="M201.306,74.651c0,5.812-4.124,8.476-8.378,8.476c-4.643,0-8.215-3.053-8.215-8.183
		c0-5.131,3.377-8.41,8.475-8.41C198.059,66.534,201.306,69.879,201.306,74.651z M189.811,74.814c0,2.728,1.137,4.772,3.248,4.772
		c1.915,0,3.149-1.915,3.149-4.772c0-2.371-0.909-4.773-3.149-4.773C190.688,70.041,189.811,72.477,189.811,74.814z"/>
	<path fill="#FFFFFF" d="M207.473,66.892l1.267,6.494c0.325,1.655,0.649,3.409,0.909,5.228h0.065
		c0.324-1.818,0.779-3.637,1.169-5.195l1.688-6.526h3.896l1.591,6.331c0.422,1.786,0.844,3.572,1.169,5.391h0.065
		c0.227-1.818,0.552-3.604,0.908-5.423l1.364-6.299h4.838l-4.87,15.878h-4.644l-1.493-5.585c-0.391-1.559-0.683-2.987-1.007-4.936
		h-0.065c-0.292,1.98-0.617,3.441-1.039,4.936l-1.591,5.585h-4.644l-4.61-15.878H207.473z"/>
</g>
<rect x="3.003" y="41.7" fill="none" stroke="#FFFFFF" stroke-width="1.6554" stroke-miterlimit="10" width="243.021" height="64.276"/>
</svg>
