<?xml version="1.0" standalone="no"?>
<!DOCTYPE svg PUBLIC "-//W3C//DTD SVG 20010904//EN"
 "http://www.w3.org/TR/2001/REC-SVG-20010904/DTD/svg10.dtd">
<svg version="1.0" xmlns="http://www.w3.org/2000/svg"
 width="1653.000000pt" height="827.000000pt" viewBox="0 0 1653.000000 827.000000"
 preserveAspectRatio="xMidYMid meet">

<g transform="translate(0.000000,827.000000) scale(0.100000,-0.100000)"
fill="#000000" stroke="none">
<path d="M102 8168 c-16 -16 -16 -170 0 -186 9 -9 80 -12 260 -12 l248 0 0
105 0 105 -248 0 c-180 0 -251 -3 -260 -12z m96 -55 c-10 -2 -18 -17 -21 -36
-4 -31 -4 -31 -5 6 -2 33 1 37 21 36 15 -1 17 -3 5 -6z m146 -42 c8 -11 8 -13
-1 -8 -6 4 -14 1 -16 -5 -3 -7 -5 5 -5 27 0 22 3 31 5 20 3 -11 10 -26 17 -34z
m-53 20 c-9 -6 -11 -16 -7 -27 6 -15 4 -16 -5 -7 -14 14 -5 43 13 43 10 0 9
-3 -1 -9z m107 -19 c3 -23 -21 -31 -33 -12 -3 6 1 7 9 4 18 -7 23 21 6 29 -6
3 -5 4 2 3 7 -1 14 -12 16 -24z m27 4 c0 -15 -4 -21 -9 -16 -5 5 -6 16 -3 24
9 22 12 20 12 -8z m71 6 c1 -7 0 -8 -3 -2 -9 19 -25 10 -20 -11 4 -16 3 -19
-5 -11 -13 13 -2 45 14 40 6 -2 13 -10 14 -16z m-236 -17 c0 -17 -25 -20 -35
-5 -3 6 1 7 9 4 9 -3 16 -1 16 5 0 6 2 11 5 11 3 0 5 -7 5 -15z m187 -20 c-4
-8 -12 -15 -19 -14 -10 0 -10 2 0 6 6 2 12 12 12 21 0 8 3 13 6 9 4 -3 4 -13
1 -22z"/>
<path d="M102 7738 c-16 -16 -16 -170 0 -186 9 -9 80 -12 260 -12 l248 0 0
105 0 105 -248 0 c-180 0 -251 -3 -260 -12z m75 -100 c-2 -13 -4 -5 -4 17 -1
22 1 32 4 23 2 -10 2 -28 0 -40z m240 -5 c-3 -10 -5 -2 -5 17 0 19 2 27 5 18
2 -10 2 -26 0 -35z m-140 -15 c-2 -13 -4 -5 -4 17 -1 22 1 32 4 23 2 -10 2
-28 0 -40z m56 33 c-3 -13 1 -21 14 -24 15 -4 15 -5 1 -6 -20 -1 -32 15 -24
34 8 22 15 18 9 -4z m137 -22 c0 -5 -8 -9 -17 -8 -11 0 -13 3 -5 6 6 2 9 10 6
15 -4 7 -2 8 4 4 7 -4 12 -11 12 -17z"/>
<path d="M102 7308 c-16 -16 -16 -170 0 -186 9 -9 80 -12 260 -12 l248 0 0
105 0 105 -248 0 c-180 0 -251 -3 -260 -12z m112 -57 c4 -5 -3 -7 -14 -4 -16
4 -20 0 -20 -22 0 -23 3 -26 21 -22 16 4 19 3 11 -5 -16 -16 -42 -1 -42 25 0
13 3 27 7 30 9 10 31 9 37 -2z m173 -48 c-3 -10 -5 -2 -5 17 0 19 2 27 5 18 2
-10 2 -26 0 -35z m-122 12 c0 -10 -6 -19 -13 -21 -7 -1 -8 0 -2 3 5 2 10 11
10 18 0 7 -5 16 -10 18 -6 3 -5 4 2 3 7 -2 13 -11 13 -21z m22 -12 c-3 -10 -5
-4 -5 12 0 17 2 24 5 18 2 -7 2 -21 0 -30z m31 1 c-3 -14 -5 -12 -10 9 -3 19
-2 25 4 19 6 -6 8 -18 6 -28z m34 29 c-6 -2 -9 -10 -6 -15 4 -7 2 -8 -4 -4
-18 11 -14 26 6 25 10 0 12 -3 4 -6z m5 -39 c-3 -3 -12 -4 -19 -1 -8 3 -5 6 6
6 11 1 17 -2 13 -5z"/>
<path d="M90 3395 l0 -3155 8140 0 8140 0 0 3155 0 3155 -8140 0 -8140 0 0
-3155z m16270 3045 l0 -100 -112 -2 -113 -2 113 -3 112 -4 0 -3039 0 -3040
-8130 0 -8130 0 0 3040 0 3040 7793 2 7792 3 -7692 2 -7693 3 0 100 0 100
8030 0 8030 0 0 -100z m-16156 35 c7 -18 -17 -37 -38 -29 -9 3 -16 14 -16 24
0 30 42 34 54 5z m52 3 c4 -6 0 -16 -8 -22 -13 -10 -13 -13 -2 -24 11 -10 12
-18 4 -32 -14 -26 -46 -26 -60 0 -8 16 -7 23 10 37 11 10 20 25 20 35 0 20 25
24 36 6z"/>
<path d="M15743 6333 c31 -2 83 -2 115 0 31 2 5 3 -58 3 -63 0 -89 -1 -57 -3z"/>
<path d="M15973 6333 c32 -2 81 -2 110 0 29 2 3 3 -58 3 -60 0 -84 -1 -52 -3z"/>
<path d="M211 6266 c-104 -58 -28 -223 86 -185 37 12 73 59 73 96 0 79 -88
128 -159 89z m14 -86 c0 -22 -3 -40 -7 -40 -10 0 -11 64 -1 73 3 4 7 7 7 7 1
0 1 -18 1 -40z m95 -6 c0 -19 -3 -34 -7 -34 -5 0 -8 18 -8 39 0 22 3 37 8 34
4 -2 7 -20 7 -39z m-47 17 c3 13 9 20 12 17 4 -3 0 -19 -8 -35 l-15 -28 -11
28 c-15 38 -13 47 3 18 l13 -23 6 23z"/>
<path d="M470 3495 l0 -2085 7760 0 7760 0 -2 2088 c-1 1148 -4 2045 -5 1995
l-4 -93 -7660 0 -7660 0 3 90 3 90 -97 0 -98 0 0 -2085z m113 2036 c20 -8 25
-16 23 -41 -3 -37 -22 -52 -56 -44 -29 7 -26 3 -34 32 -5 14 -3 22 4 22 6 0 9
4 5 9 -3 6 3 14 12 20 22 13 17 13 46 2z m15397 -2126 l0 -1985 -7750 0 -7750
0 0 1985 0 1985 7750 0 7750 0 0 -1985z"/>
<path d="M547 5496 c-7 -16 1 -26 20 -26 7 0 13 9 13 20 0 23 -25 27 -33 6z"/>
<path d="M1100 4573 l-115 -118 118 115 c109 107 122 120 114 120 -1 0 -54
-53 -117 -117z"/>
<path d="M1310 4605 c47 -47 87 -85 90 -85 2 0 -33 38 -80 85 -47 47 -87 85
-90 85 -2 0 33 -38 80 -85z"/>
<path d="M2270 4450 l0 -120 225 0 225 0 0 -105 0 -105 -225 0 -225 0 0 -51
c0 -45 -2 -50 -15 -39 -12 10 -15 10 -15 -4 0 -15 -46 -16 -505 -16 l-505 0 0
102 0 103 118 120 117 120 -122 -120 -123 -120 0 -1075 0 -1075 123 -120 122
-120 -117 120 -118 120 0 309 c0 273 2 307 15 296 13 -11 15 -8 15 20 0 28 -2
31 -15 20 -13 -11 -15 61 -15 639 l0 651 505 0 c459 0 505 -1 505 -16 0 -13 3
-14 14 -4 13 10 15 3 19 -42 2 -29 4 -2 5 60 l2 112 445 0 444 0 4 -112 3
-113 2 118 2 117 -225 0 -225 0 0 105 0 105 225 0 225 0 0 120 0 120 -455 0
-455 0 0 -120z m900 5 l0 -105 -445 0 -445 0 0 105 0 105 445 0 445 0 0 -105z"/>
<path d="M2358 4493 c6 -2 18 -2 25 0 6 3 1 5 -13 5 -14 0 -19 -2 -12 -5z"/>
<path d="M2973 4460 c-1 -25 1 -37 4 -27 3 10 10 14 16 11 7 -4 9 -4 5 1 -4 4
-2 15 5 24 10 14 10 14 -5 3 -14 -11 -17 -10 -21 10 -2 13 -4 3 -4 -22z"/>
<path d="M2475 4471 c-3 -5 0 -13 6 -17 7 -4 9 -3 5 4 -3 6 2 13 11 15 16 4
16 5 1 6 -9 0 -19 -3 -23 -8z"/>
<path d="M2540 4476 c0 -2 7 -7 16 -10 8 -3 12 -2 9 4 -6 10 -25 14 -25 6z"/>
<path d="M2620 4456 c0 -15 -7 -26 -17 -29 -14 -4 -12 -5 5 -6 18 -1 22 4 22
29 0 17 -2 30 -5 30 -3 0 -5 -11 -5 -24z"/>
<path d="M2641 4448 c2 -28 2 -29 6 -8 3 14 10 28 17 32 7 5 5 8 -6 8 -14 0
-18 -8 -17 -32z"/>
<path d="M2690 4476 c0 -2 7 -7 16 -10 8 -3 12 -2 9 4 -6 10 -25 14 -25 6z"/>
<path d="M2890 4476 c0 -2 7 -7 16 -10 8 -3 12 -2 9 4 -6 10 -25 14 -25 6z"/>
<path d="M2940 4469 c0 -5 5 -7 10 -4 6 3 10 8 10 11 0 2 -4 4 -10 4 -5 0 -10
-5 -10 -11z"/>
<path d="M3038 4473 c7 -3 16 -2 19 1 4 3 -2 6 -13 5 -11 0 -14 -3 -6 -6z"/>
<path d="M3080 4469 c0 -5 5 -7 10 -4 6 3 10 8 10 11 0 2 -4 4 -10 4 -5 0 -10
-5 -10 -11z"/>
<path d="M2370 4460 c-23 -7 -23 -8 -3 -9 12 -1 25 4 28 9 3 6 5 10 3 9 -2 -1
-14 -5 -28 -9z"/>
<path d="M2428 4453 c6 -2 18 -2 25 0 6 3 1 5 -13 5 -14 0 -19 -2 -12 -5z"/>
<path d="M2738 4453 c6 -2 18 -2 25 0 6 3 1 5 -13 5 -14 0 -19 -2 -12 -5z"/>
<path d="M2790 4455 c0 -5 5 -17 10 -25 5 -8 10 -10 10 -5 0 6 -5 17 -10 25
-5 8 -10 11 -10 5z"/>
<path d="M3022 4443 c2 -10 12 -19 23 -20 16 -1 16 -1 3 3 -10 3 -18 9 -18 14
0 5 8 11 18 13 12 3 11 5 -6 6 -17 1 -23 -4 -20 -16z"/>
<path d="M2427 4429 c7 -7 15 -10 18 -7 3 3 -2 9 -12 12 -14 6 -15 5 -6 -5z"/>
<path d="M2737 4429 c7 -7 15 -10 18 -7 3 3 -2 9 -12 12 -14 6 -15 5 -6 -5z"/>
<path d="M2488 4423 c7 -3 16 -2 19 1 4 3 -2 6 -13 5 -11 0 -14 -3 -6 -6z"/>
<path d="M1163 4460 c0 -25 2 -35 4 -22 2 12 2 32 0 45 -2 12 -4 2 -4 -23z"/>
<path d="M1328 4485 c-6 -7 3 -65 11 -65 7 0 7 58 -1 65 -2 3 -7 3 -10 0z"/>
<path d="M1104 4465 c-12 -32 23 -63 40 -36 3 5 -2 8 -12 7 -9 0 -17 6 -17 14
0 8 8 14 17 14 10 -1 15 2 12 7 -8 14 -34 10 -40 -6z"/>
<path d="M1192 4450 c0 -19 2 -27 5 -17 2 9 2 25 0 35 -3 9 -5 1 -5 -18z"/>
<path d="M1214 4466 c-9 -23 3 -46 23 -45 17 1 17 2 1 6 -25 6 -22 23 3 23 12
0 19 5 17 13 -7 18 -37 21 -44 3z m33 -2 c-3 -3 -12 -4 -19 -1 -8 3 -5 6 6 6
11 1 17 -2 13 -5z"/>
<path d="M1271 4448 c2 -31 2 -31 6 -5 2 15 8 27 13 27 5 0 11 -12 13 -27 4
-26 4 -26 6 5 1 26 -3 32 -19 32 -16 0 -20 -6 -19 -32z"/>
<path d="M990 4447 c0 -2 15 -16 33 -33 l32 -29 -29 33 c-28 30 -36 37 -36 29z"/>
<path d="M2680 4005 c0 -19 4 -35 8 -35 4 0 6 16 4 35 -2 19 -6 35 -8 35 -2 0
-4 -16 -4 -35z"/>
<path d="M2638 4023 c7 -3 16 -2 19 1 4 3 -2 6 -13 5 -11 0 -14 -3 -6 -6z"/>
<path d="M2728 4023 c7 -3 16 -2 19 1 4 3 -2 6 -13 5 -11 0 -14 -3 -6 -6z"/>
<path d="M2770 4019 c0 -5 5 -7 10 -4 6 3 10 8 10 11 0 2 -4 4 -10 4 -5 0 -10
-5 -10 -11z"/>
<path d="M2715 4000 c-3 -5 -3 -14 0 -20 8 -13 35 -13 35 0 0 5 -7 7 -15 4 -8
-4 -15 -1 -15 4 0 6 8 13 18 15 15 4 15 5 0 6 -9 0 -20 -3 -23 -9z"/>
<path d="M2638 3973 c7 -3 16 -2 19 1 4 3 -2 6 -13 5 -11 0 -14 -3 -6 -6z"/>
<path d="M2722 3803 l-2 -93 -280 0 -280 0 0 -120 0 -120 280 0 280 0 0 -105
0 -105 -562 -2 c-377 -2 -190 -5 565 -8 620 -3 1127 -2 1127 3 0 4 -252 7
-560 7 l-560 0 0 105 0 105 280 0 280 0 0 120 0 120 -280 0 -279 0 -4 93 -3
92 -2 -92z m558 -213 l0 -110 -555 0 -555 0 0 110 0 110 555 0 555 0 0 -110z"/>
<path d="M2210 3611 c0 -6 6 -8 14 -5 10 4 16 -3 19 -20 4 -26 4 -26 3 1 -1
18 -7 29 -18 31 -10 2 -18 -1 -18 -7z"/>
<path d="M2368 3613 c7 -3 16 -2 19 1 4 3 -2 6 -13 5 -11 0 -14 -3 -6 -6z"/>
<path d="M2418 3613 c7 -3 16 -2 19 1 4 3 -2 6 -13 5 -11 0 -14 -3 -6 -6z"/>
<path d="M2480 3613 c7 -3 4 -10 -7 -19 -17 -12 -16 -13 5 -7 23 6 26 25 4 29
-8 2 -8 0 -2 -3z"/>
<path d="M2533 3613 c9 -2 17 -13 17 -24 0 -11 -7 -19 -17 -20 -15 0 -15 -2 2
-8 16 -7 17 -9 5 -13 -13 -4 -13 -5 0 -4 10 1 16 14 18 39 3 33 1 37 -20 36
-17 -1 -18 -3 -5 -6z"/>
<path d="M2588 3613 c7 -3 16 -2 19 1 4 3 -2 6 -13 5 -11 0 -14 -3 -6 -6z"/>
<path d="M2745 3611 c-3 -5 0 -13 6 -17 7 -4 9 -3 5 4 -3 6 2 13 11 15 16 4
16 5 1 6 -9 0 -19 -3 -23 -8z"/>
<path d="M2800 3612 c0 -4 9 -8 19 -8 11 0 17 4 15 8 -3 4 -12 8 -20 8 -8 0
-14 -4 -14 -8z"/>
<path d="M2860 3616 c0 -2 9 -6 20 -9 11 -3 18 -1 14 4 -5 9 -34 13 -34 5z"/>
<path d="M2911 3588 c2 -30 2 -30 6 -6 2 15 12 29 21 31 12 3 10 5 -5 6 -20 1
-23 -4 -22 -31z"/>
<path d="M2975 3611 c-3 -5 0 -13 6 -17 7 -4 9 -3 5 4 -3 6 2 13 11 15 16 4
16 5 1 6 -9 0 -19 -3 -23 -8z"/>
<path d="M3038 3613 c7 -3 16 -2 19 1 4 3 -2 6 -13 5 -11 0 -14 -3 -6 -6z"/>
<path d="M3118 3603 c7 -3 16 -2 19 1 4 3 -2 6 -13 5 -11 0 -14 -3 -6 -6z"/>
<path d="M3191 3594 c0 -11 3 -14 6 -6 3 7 2 16 -1 19 -3 4 -6 -2 -5 -13z"/>
<path d="M2308 3593 c6 -2 18 -2 25 0 6 3 1 5 -13 5 -14 0 -19 -2 -12 -5z"/>
<path d="M2570 3591 c0 -4 11 -6 25 -3 14 2 25 6 25 8 0 2 -11 4 -25 4 -14 0
-25 -4 -25 -9z"/>
<path d="M2698 3593 c6 -2 18 -2 25 0 6 3 1 5 -13 5 -14 0 -19 -2 -12 -5z"/>
<path d="M3020 3591 c0 -4 11 -6 25 -3 14 2 25 6 25 8 0 2 -11 4 -25 4 -14 0
-25 -4 -25 -9z"/>
<path d="M2434 3582 c3 -6 -2 -13 -11 -15 -16 -4 -16 -5 -1 -6 21 -1 32 15 17
25 -7 4 -9 3 -5 -4z"/>
<path d="M3118 3583 c7 -3 16 -2 19 1 4 3 -2 6 -13 5 -11 0 -14 -3 -6 -6z"/>
<path d="M2307 3569 c7 -7 15 -10 18 -7 3 3 -2 9 -12 12 -14 6 -15 5 -6 -5z"/>
<path d="M2475 3570 c-19 -8 -19 -9 3 -9 12 -1 22 4 22 9 0 6 -1 10 -2 9 -2 0
-12 -4 -23 -9z"/>
<path d="M2697 3569 c7 -7 15 -10 18 -7 3 3 -2 9 -12 12 -14 6 -15 5 -6 -5z"/>
<path d="M2815 3570 c-16 -7 -17 -9 -3 -9 9 -1 20 4 23 9 7 11 7 11 -20 0z"/>
<path d="M2875 3570 c-16 -7 -17 -9 -3 -9 9 -1 20 4 23 9 7 11 7 11 -20 0z"/>
<path d="M2368 3563 c7 -3 16 -2 19 1 4 3 -2 6 -13 5 -11 0 -14 -3 -6 -6z"/>
<path d="M2588 3563 c7 -3 16 -2 19 1 4 3 -2 6 -13 5 -11 0 -14 -3 -6 -6z"/>
<path d="M2758 3563 c7 -3 16 -2 19 1 4 3 -2 6 -13 5 -11 0 -14 -3 -6 -6z"/>
<path d="M2988 3563 c7 -3 16 -2 19 1 4 3 -2 6 -13 5 -11 0 -14 -3 -6 -6z"/>
<path d="M3038 3563 c7 -3 16 -2 19 1 4 3 -2 6 -13 5 -11 0 -14 -3 -6 -6z"/>
<path d="M2348 3173 c7 -3 16 -2 19 1 4 3 -2 6 -13 5 -11 0 -14 -3 -6 -6z"/>
<path d="M2601 3138 c1 -24 3 -35 6 -25 2 9 11 17 18 17 8 0 16 4 19 9 4 5 -3
7 -14 4 -14 -4 -20 0 -20 12 0 12 6 16 20 12 11 -3 18 -1 14 4 -3 5 -14 9 -25
9 -16 0 -19 -7 -18 -42z"/>
<path d="M2932 3165 c-7 -9 -8 -15 -2 -15 14 0 13 -37 -2 -43 -8 -3 -6 -6 5
-6 13 -1 17 7 17 39 0 45 0 45 -18 25z"/>
<path d="M3653 3140 c0 -25 2 -35 4 -22 2 12 2 32 0 45 -2 12 -4 2 -4 -23z"/>
<path d="M2390 3142 c0 -17 3 -33 8 -35 9 -6 8 50 -1 60 -4 3 -7 -8 -7 -25z"/>
<path d="M1691 3128 c2 -32 2 -32 6 -5 3 20 9 27 19 23 8 -3 14 -1 14 4 0 6
-9 10 -20 10 -16 0 -20 -6 -19 -32z"/>
<path d="M1746 3153 c7 -4 14 -19 17 -33 4 -22 5 -21 4 4 -1 17 -9 31 -17 33
-10 3 -11 2 -4 -4z"/>
<path d="M1798 3153 c7 -3 16 -2 19 1 4 3 -2 6 -13 5 -11 0 -14 -3 -6 -6z"/>
<path d="M1848 3153 c7 -3 16 -2 19 1 4 3 -2 6 -13 5 -11 0 -14 -3 -6 -6z"/>
<path d="M1895 3149 c-11 -16 -1 -19 13 -3 7 8 8 14 3 14 -5 0 -13 -5 -16 -11z"/>
<path d="M1958 3153 c7 -3 16 -2 19 1 4 3 -2 6 -13 5 -11 0 -14 -3 -6 -6z"/>
<path d="M2006 3151 c-4 -5 3 -7 14 -4 23 6 26 13 6 13 -8 0 -17 -4 -20 -9z"/>
<path d="M2079 3152 c11 -8 10 -11 -5 -15 -16 -4 -15 -5 4 -6 25 -1 26 20 1
27 -12 3 -12 2 0 -6z"/>
<path d="M2115 3151 c-3 -5 0 -13 6 -17 7 -4 9 -3 5 4 -3 6 2 13 11 15 16 4
16 5 1 6 -9 0 -19 -3 -23 -8z"/>
<path d="M2198 3153 c7 -3 16 -2 19 1 4 3 -2 6 -13 5 -11 0 -14 -3 -6 -6z"/>
<path d="M2462 3130 c0 -19 2 -27 5 -17 2 9 2 25 0 35 -3 9 -5 1 -5 -18z"/>
<path d="M2481 3128 c2 -30 2 -30 6 -6 2 15 12 29 21 31 12 3 10 5 -5 6 -20 1
-23 -4 -22 -31z"/>
<path d="M2546 3151 c-4 -5 3 -7 14 -4 23 6 26 13 6 13 -8 0 -17 -4 -20 -9z"/>
<path d="M2678 3153 c7 -3 16 -2 19 1 4 3 -2 6 -13 5 -11 0 -14 -3 -6 -6z"/>
<path d="M2795 3150 c-4 -6 -4 -14 -1 -17 3 -4 6 -1 6 5 0 7 7 12 15 12 9 0
15 -9 15 -21 0 -17 -5 -20 -21 -16 -16 4 -19 3 -11 -5 17 -17 44 -1 40 24 -3
25 -32 36 -43 18z"/>
<path d="M2870 3153 c7 -3 4 -10 -7 -19 -17 -12 -16 -13 5 -7 23 6 26 25 4 29
-8 2 -8 0 -2 -3z"/>
<path d="M3000 3149 c0 -5 5 -7 10 -4 6 3 10 8 10 11 0 2 -4 4 -10 4 -5 0 -10
-5 -10 -11z"/>
<path d="M3048 3153 c7 -3 16 -2 19 1 4 3 -2 6 -13 5 -11 0 -14 -3 -6 -6z"/>
<path d="M3098 3153 c7 -3 16 -2 19 1 4 3 -2 6 -13 5 -11 0 -14 -3 -6 -6z"/>
<path d="M3140 3118 c0 -24 4 -38 8 -32 4 6 14 14 22 17 12 4 11 6 -2 6 -11 1
-18 9 -18 20 0 11 8 22 18 24 13 4 11 5 -5 6 -21 1 -23 -4 -23 -41z"/>
<path d="M3210 3156 c0 -2 7 -7 16 -10 8 -3 12 -2 9 4 -6 10 -25 14 -25 6z"/>
<path d="M3260 3151 c0 -6 6 -8 14 -5 10 4 16 -3 19 -20 4 -26 4 -26 3 1 -1
18 -7 29 -18 31 -10 2 -18 -1 -18 -7z"/>
<path d="M3328 3153 c7 -3 16 -2 19 1 4 3 -2 6 -13 5 -11 0 -14 -3 -6 -6z"/>
<path d="M3389 3152 c11 -8 10 -11 -5 -15 -16 -4 -15 -5 4 -6 25 -1 26 20 1
27 -12 3 -12 2 0 -6z"/>
<path d="M3619 3152 c11 -8 10 -11 -5 -15 -16 -4 -15 -5 4 -6 25 -1 26 20 1
27 -12 3 -12 2 0 -6z"/>
<path d="M3543 3143 c9 -2 23 -2 30 0 6 3 -1 5 -18 5 -16 0 -22 -2 -12 -5z"/>
<path d="M1782 3123 c2 -10 12 -19 23 -20 16 -1 16 -1 3 3 -10 3 -18 9 -18 14
0 5 8 11 18 13 12 3 11 5 -6 6 -17 1 -23 -4 -20 -16z"/>
<path d="M1945 3130 c-3 -5 -3 -14 0 -20 8 -13 35 -13 35 0 0 5 -7 7 -15 4 -8
-4 -15 -1 -15 4 0 6 8 13 18 15 15 4 15 5 0 6 -9 0 -20 -3 -23 -9z"/>
<path d="M2248 3133 c6 -2 18 -2 25 0 6 3 1 5 -13 5 -14 0 -19 -2 -12 -5z"/>
<path d="M2365 3128 c4 -11 0 -18 -12 -21 -15 -4 -16 -5 -1 -6 22 -1 33 18 19
32 -9 9 -11 8 -6 -5z"/>
<path d="M2665 3130 c-3 -5 -3 -14 0 -20 8 -13 35 -13 35 0 0 5 -7 7 -15 4 -8
-4 -15 -1 -15 4 0 6 8 13 18 15 15 4 15 5 0 6 -9 0 -20 -3 -23 -9z"/>
<path d="M3032 3123 c2 -10 12 -19 23 -20 16 -1 16 -1 3 3 -10 3 -18 9 -18 14
0 5 8 11 18 13 12 3 11 5 -6 6 -17 1 -23 -4 -20 -16z"/>
<path d="M1864 3122 c3 -6 -2 -13 -11 -15 -16 -4 -16 -5 -1 -6 21 -1 32 15 17
25 -7 4 -9 3 -5 -4z"/>
<path d="M1920 3122 c0 -6 -8 -13 -17 -15 -16 -4 -16 -5 -1 -6 18 -1 34 16 24
26 -3 4 -6 1 -6 -5z"/>
<path d="M2214 3122 c3 -6 -2 -13 -11 -15 -16 -4 -16 -5 -1 -6 21 -1 32 15 17
25 -7 4 -9 3 -5 -4z"/>
<path d="M3114 3122 c3 -6 -2 -13 -11 -15 -16 -4 -16 -5 -1 -6 21 -1 32 15 17
25 -7 4 -9 3 -5 -4z"/>
<path d="M2008 3108 c5 -5 16 -8 23 -6 8 3 3 7 -10 11 -17 4 -21 3 -13 -5z"/>
<path d="M2247 3109 c7 -7 15 -10 18 -7 3 3 -2 9 -12 12 -14 6 -15 5 -6 -5z"/>
<path d="M2548 3108 c5 -5 16 -8 23 -6 8 3 3 7 -10 11 -17 4 -21 3 -13 -5z"/>
<path d="M2865 3110 c-19 -8 -19 -9 3 -9 12 -1 22 4 22 9 0 6 -1 10 -2 9 -2 0
-12 -4 -23 -9z"/>
<path d="M2128 3103 c7 -3 16 -2 19 1 4 3 -2 6 -13 5 -11 0 -14 -3 -6 -6z"/>
<path d="M3328 3103 c7 -3 16 -2 19 1 4 3 -2 6 -13 5 -11 0 -14 -3 -6 -6z"/>
<path d="M2158 3023 l562 -3 0 -105 0 -105 -225 0 -225 0 0 -120 0 -120 225 0
225 0 0 -310 0 -310 -225 0 -225 0 0 -120 0 -120 455 0 455 0 0 120 0 120
-225 0 -225 0 0 310 0 310 225 0 226 0 -3 118 -3 117 -222 3 -223 2 0 105 0
105 563 3 c309 1 54 2 -568 2 -621 0 -877 -1 -567 -2z m1012 -333 l0 -110
-445 0 -445 0 0 110 0 110 445 0 445 0 0 -110z m0 -865 l0 -105 -445 0 -445 0
0 105 0 105 445 0 445 0 0 -105z"/>
<path d="M2400 2699 c0 -5 5 -7 10 -4 6 3 10 8 10 11 0 2 -4 4 -10 4 -5 0 -10
-5 -10 -11z"/>
<path d="M2448 2703 c7 -3 16 -2 19 1 4 3 -2 6 -13 5 -11 0 -14 -3 -6 -6z"/>
<path d="M2503 2704 c9 -3 17 -14 17 -24 0 -10 -8 -21 -17 -24 -14 -4 -14 -4
2 -3 14 2 20 10 20 27 0 17 -6 25 -20 27 -16 1 -16 1 -2 -3z"/>
<path d="M2641 2678 c2 -28 2 -29 6 -8 3 14 10 28 17 32 7 5 5 8 -6 8 -14 0
-18 -8 -17 -32z"/>
<path d="M2699 2702 c11 -8 10 -11 -5 -15 -16 -4 -15 -5 4 -6 25 -1 26 20 1
27 -12 3 -12 2 0 -6z"/>
<path d="M2735 2701 c-3 -5 0 -13 6 -17 7 -4 9 -3 5 4 -3 6 2 13 11 15 16 4
16 5 1 6 -9 0 -19 -3 -23 -8z"/>
<path d="M2803 2704 c9 -3 17 -14 17 -24 0 -10 -8 -21 -17 -24 -14 -4 -14 -4
2 -3 14 2 20 10 20 27 0 17 -6 25 -20 27 -16 1 -16 1 -2 -3z"/>
<path d="M2845 2700 c-4 -6 -4 -14 -1 -17 3 -4 6 -1 6 5 0 7 7 12 15 12 9 0
15 -9 15 -21 0 -17 -5 -20 -21 -16 -16 4 -19 3 -11 -5 17 -17 44 -1 40 24 -3
25 -32 36 -43 18z"/>
<path d="M2901 2678 c2 -30 2 -30 6 -6 2 15 12 29 21 31 12 3 10 5 -5 6 -20 1
-23 -4 -22 -31z"/>
<path d="M2965 2699 c-11 -16 -1 -19 13 -3 7 8 8 14 3 14 -5 0 -13 -5 -16 -11z"/>
<path d="M3028 2703 c7 -3 16 -2 19 1 4 3 -2 6 -13 5 -11 0 -14 -3 -6 -6z"/>
<path d="M2432 2673 c2 -10 12 -19 23 -20 16 -1 16 -1 3 3 -10 3 -18 9 -18 14
0 5 8 11 18 13 12 3 11 5 -6 6 -17 1 -23 -4 -20 -16z"/>
<path d="M3012 2673 c2 -10 12 -19 23 -20 16 -1 16 -1 3 3 -10 3 -18 9 -18 14
0 5 8 11 18 13 12 3 11 5 -6 6 -17 1 -23 -4 -20 -16z"/>
<path d="M2990 2672 c0 -6 -8 -13 -17 -15 -16 -4 -16 -5 -1 -6 18 -1 34 16 24
26 -3 4 -6 1 -6 -5z"/>
<path d="M2748 2653 c7 -3 16 -2 19 1 4 3 -2 6 -13 5 -11 0 -14 -3 -6 -6z"/>
<path d="M2358 1863 c6 -2 18 -2 25 0 6 3 1 5 -13 5 -14 0 -19 -2 -12 -5z"/>
<path d="M2973 1830 c-1 -25 1 -37 4 -27 3 10 10 14 16 11 7 -4 9 -4 5 1 -4 4
-2 15 5 24 10 14 10 14 -5 3 -14 -11 -17 -10 -21 10 -2 13 -4 3 -4 -22z"/>
<path d="M2475 1841 c-3 -5 0 -13 6 -17 7 -4 9 -3 5 4 -3 6 2 13 11 15 16 4
16 5 1 6 -9 0 -19 -3 -23 -8z"/>
<path d="M2540 1846 c0 -2 7 -7 16 -10 8 -3 12 -2 9 4 -6 10 -25 14 -25 6z"/>
<path d="M2620 1826 c0 -15 -7 -26 -17 -29 -14 -4 -12 -5 5 -6 18 -1 22 4 22
29 0 17 -2 30 -5 30 -3 0 -5 -11 -5 -24z"/>
<path d="M2641 1818 c2 -28 2 -29 6 -8 3 14 10 28 17 32 7 5 5 8 -6 8 -14 0
-18 -8 -17 -32z"/>
<path d="M2690 1846 c0 -2 7 -7 16 -10 8 -3 12 -2 9 4 -6 10 -25 14 -25 6z"/>
<path d="M2890 1846 c0 -2 7 -7 16 -10 8 -3 12 -2 9 4 -6 10 -25 14 -25 6z"/>
<path d="M2940 1839 c0 -5 5 -7 10 -4 6 3 10 8 10 11 0 2 -4 4 -10 4 -5 0 -10
-5 -10 -11z"/>
<path d="M3038 1843 c7 -3 16 -2 19 1 4 3 -2 6 -13 5 -11 0 -14 -3 -6 -6z"/>
<path d="M3080 1839 c0 -5 5 -7 10 -4 6 3 10 8 10 11 0 2 -4 4 -10 4 -5 0 -10
-5 -10 -11z"/>
<path d="M2370 1830 c-23 -7 -23 -8 -3 -9 12 -1 25 4 28 9 3 6 5 10 3 9 -2 -1
-14 -5 -28 -9z"/>
<path d="M2428 1823 c6 -2 18 -2 25 0 6 3 1 5 -13 5 -14 0 -19 -2 -12 -5z"/>
<path d="M2738 1823 c6 -2 18 -2 25 0 6 3 1 5 -13 5 -14 0 -19 -2 -12 -5z"/>
<path d="M2790 1825 c0 -5 5 -17 10 -25 5 -8 10 -10 10 -5 0 6 -5 17 -10 25
-5 8 -10 11 -10 5z"/>
<path d="M3022 1813 c2 -10 12 -19 23 -20 16 -1 16 -1 3 3 -10 3 -18 9 -18 14
0 5 8 11 18 13 12 3 11 5 -6 6 -17 1 -23 -4 -20 -16z"/>
<path d="M2427 1799 c7 -7 15 -10 18 -7 3 3 -2 9 -12 12 -14 6 -15 5 -6 -5z"/>
<path d="M2737 1799 c7 -7 15 -10 18 -7 3 3 -2 9 -12 12 -14 6 -15 5 -6 -5z"/>
<path d="M2488 1793 c7 -3 16 -2 19 1 4 3 -2 6 -13 5 -11 0 -14 -3 -6 -6z"/>
<path d="M1030 1875 c-24 -25 -42 -45 -39 -45 3 0 25 20 49 45 24 25 42 45 39
45 -3 0 -25 -20 -49 -45z"/>
<path d="M1163 1830 c0 -25 2 -35 4 -22 2 12 2 32 0 45 -2 12 -4 2 -4 -23z"/>
<path d="M1328 1855 c-6 -7 3 -65 11 -65 7 0 7 58 -1 65 -2 3 -7 3 -10 0z"/>
<path d="M1104 1835 c-12 -32 23 -63 40 -36 3 5 -2 8 -12 7 -9 0 -17 6 -17 14
0 8 8 14 17 14 10 -1 15 2 12 7 -8 14 -34 10 -40 -6z"/>
<path d="M1192 1820 c0 -19 2 -27 5 -17 2 9 2 25 0 35 -3 9 -5 1 -5 -18z"/>
<path d="M1214 1836 c-9 -23 3 -46 23 -45 17 1 17 2 1 6 -25 6 -22 23 3 23 12
0 19 5 17 13 -7 18 -37 21 -44 3z m33 -2 c-3 -3 -12 -4 -19 -1 -8 3 -5 6 6 6
11 1 17 -2 13 -5z"/>
<path d="M1271 1818 c2 -31 2 -31 6 -5 2 15 8 27 13 27 5 0 11 -12 13 -27 4
-26 4 -26 6 5 1 26 -3 32 -19 32 -16 0 -20 -6 -19 -32z"/>
<path d="M1100 1705 c63 -63 117 -115 120 -115 2 0 -47 52 -110 115 -63 63
-117 115 -120 115 -2 0 47 -52 110 -115z"/>
<path d="M1315 1678 l-90 -93 93 90 c85 83 97 95 89 95 -1 0 -43 -42 -92 -92z"/>
<path d="M1058 5513 c7 -3 16 -2 19 1 4 3 -2 6 -13 5 -11 0 -14 -3 -6 -6z"/>
<path d="M883 5503 c9 -2 23 -2 30 0 6 3 -1 5 -18 5 -16 0 -22 -2 -12 -5z"/>
<path d="M210 6410 c0 -5 5 -10 10 -10 6 0 10 5 10 10 0 6 -4 10 -10 10 -5 0
-10 -4 -10 -10z"/>
</g>
</svg>
