<?xml version="1.0" encoding="utf-8"?>
<!-- Generator: Adobe Illustrator 16.0.0, SVG Export Plug-In . SVG Version: 6.00 Build 0)  -->
<!DOCTYPE svg PUBLIC "-//W3C//DTD SVG 1.1//EN" "http://www.w3.org/Graphics/SVG/1.1/DTD/svg11.dtd">
<svg version="1.1" xmlns="http://www.w3.org/2000/svg" xmlns:xlink="http://www.w3.org/1999/xlink" x="0px" y="0px" width="500px"
	 height="289.001px" viewBox="0 0 500 289.001" enable-background="new 0 0 500 289.001" xml:space="preserve">
<g id="Layer_1">
	
		<rect x="9.86" y="9.346" fill="#FFFFFF" stroke="#000000" stroke-width="0.536" stroke-miterlimit="10" width="482.054" height="20.988"/>
	<g>
		<path fill="#939598" d="M441.812,22.225l-0.015-2.915h0.721v3.65h-7.536v-7.536c0.628,0,1.879,0,3.754,0v0.721
			c-0.167,0-0.386,0-0.655,0c-0.271,0-0.68-0.002-1.229-0.007s-0.937-0.007-1.163-0.007l0.016,6.094H441.812z M441.37,16.735
			l-0.942-0.869l0.412-0.441l1.678,1.56l-1.428,1.575l-0.427-0.412l0.677-0.81c-1.854,0.187-3.174,0.893-3.959,2.12
			c-0.196,0.294-0.352,0.611-0.464,0.949c-0.113,0.338-0.174,0.601-0.184,0.788l-0.029,0.28h-0.589c0-0.059,0.005-0.14,0.015-0.243
			s0.051-0.307,0.125-0.611c0.073-0.304,0.174-0.596,0.302-0.875c0.127-0.28,0.323-0.594,0.589-0.942
			c0.265-0.348,0.574-0.657,0.927-0.927c0.354-0.27,0.817-0.513,1.392-0.729S440.673,16.793,441.37,16.735z"/>
	</g>
	<g>
		<g>
			<path fill="#939598" d="M455.811,22.225l-0.015-2.915l0.721-0.015v3.665h-7.536v-7.536c0.628,0,1.879,0,3.754,0v0.707
				c-0.167,0-0.386,0-0.655,0c-0.271,0-0.68,0-1.229,0s-0.937,0-1.163,0l0.016,6.094H455.811z M456.517,15.425v0.589
				c-0.078,0-0.182,0.007-0.309,0.022c-0.128,0.015-0.371,0.079-0.729,0.191c-0.358,0.113-0.689,0.268-0.994,0.463
				c-1.227,0.785-1.928,2.105-2.104,3.959l0.81-0.677l0.412,0.427l-1.59,1.428l-1.546-1.678l0.427-0.413l0.884,0.942
				c0.059-0.697,0.193-1.332,0.404-1.906s0.457-1.038,0.736-1.391c0.279-0.353,0.584-0.662,0.912-0.927
				c0.329-0.265,0.65-0.461,0.965-0.589c0.313-0.127,0.599-0.228,0.854-0.302s0.461-0.115,0.618-0.125L456.517,15.425z"/>
		</g>
	</g>
	<g>
		<g>
			<path fill="#939598" d="M465.198,15.425h2.855v0.913h1.87v0.971h-6.609v-0.971h1.884V15.425z M463.785,18.06h5.682v4.901h-5.682
				V18.06z M465.066,18.678v3.591h0.868v-3.591H465.066z M467.318,18.678v3.591h0.868v-3.591H467.318z"/>
		</g>
	</g>
	<g>
		<g>
			<path fill="#939598" d="M480.902,21.23l-3.754-3.65l0.56-0.574l3.194,3.106l3.238-3.062l0.544,0.604L480.902,21.23z"/>
		</g>
	</g>
	
		<line fill="#939598" stroke="#000000" stroke-width="0.25" stroke-miterlimit="10" x1="431.315" y1="15.256" x2="431.315" y2="23.423"/>
	
		<line fill="#939598" stroke="#000000" stroke-width="0.25" stroke-miterlimit="10" x1="445.648" y1="15.674" x2="445.648" y2="23.84"/>
	
		<line fill="#939598" stroke="#000000" stroke-width="0.25" stroke-miterlimit="10" x1="459.815" y1="15.256" x2="459.815" y2="23.423"/>
	
		<line fill="#939598" stroke="#000000" stroke-width="0.25" stroke-miterlimit="10" x1="473.481" y1="15.256" x2="473.481" y2="23.423"/>
	<rect x="9.819" y="9.346" width="18.083" height="20.899"/>
	<g>
		<path fill="#FFFFFF" d="M21.858,16.747l-0.113,0.407H20.84l-0.679,2.716c-0.317,1.192-0.626,2.12-0.928,2.784
			c-0.438,0.92-0.905,1.554-1.403,1.9c-0.377,0.271-0.755,0.407-1.132,0.407c-0.257,0-0.468-0.075-0.634-0.226
			c-0.136-0.106-0.204-0.242-0.204-0.407c0-0.136,0.053-0.249,0.158-0.34s0.234-0.136,0.385-0.136c0.121,0,0.219,0.034,0.294,0.102
			c0.075,0.068,0.113,0.147,0.113,0.238c0,0.09-0.045,0.173-0.136,0.248c-0.061,0.061-0.091,0.105-0.091,0.137
			c0,0.029,0.015,0.06,0.045,0.09s0.083,0.046,0.158,0.046c0.181,0,0.37-0.057,0.566-0.17c0.196-0.113,0.37-0.279,0.521-0.498
			s0.294-0.539,0.43-0.962c0.06-0.181,0.219-0.754,0.475-1.72l1.086-4.21H18.78l0.091-0.407c0.347,0,0.588-0.026,0.724-0.079
			s0.26-0.147,0.374-0.283s0.26-0.385,0.441-0.747c0.241-0.498,0.475-0.883,0.701-1.154c0.302-0.377,0.623-0.656,0.962-0.837
			c0.34-0.182,0.66-0.271,0.962-0.271c0.317,0,0.569,0.079,0.758,0.237c0.188,0.158,0.283,0.336,0.283,0.532
			c0,0.136-0.049,0.252-0.147,0.351c-0.098,0.098-0.215,0.146-0.351,0.146s-0.246-0.037-0.328-0.112
			c-0.083-0.076-0.125-0.159-0.125-0.249c0-0.076,0.03-0.162,0.09-0.261c0.06-0.098,0.091-0.162,0.091-0.192
			c0-0.06-0.023-0.105-0.068-0.136c-0.06-0.03-0.136-0.045-0.226-0.045c-0.271,0-0.506,0.083-0.702,0.249
			c-0.287,0.211-0.536,0.551-0.747,1.019c-0.121,0.241-0.333,0.853-0.634,1.833H21.858z"/>
	</g>
	<g>
		<path d="M35.321,49.766c1.037-1.037,2.287-1.555,3.752-1.555s2.716,0.518,3.753,1.555c1.037,1.037,1.555,2.288,1.555,3.752
			c0,1.465-0.519,2.716-1.555,3.753s-2.288,1.555-3.753,1.555s-2.716-0.519-3.752-1.555s-1.555-2.288-1.555-3.753
			C33.766,52.054,34.285,50.803,35.321,49.766z M37.353,55.551v-0.374h-0.145c-0.235,0-0.353-0.131-0.353-0.394
			c0-0.055,0.014-0.166,0.042-0.332c0.027-0.125,0.042-0.255,0.042-0.394c0-0.276-0.097-0.456-0.291-0.539
			c0.193-0.096,0.291-0.283,0.291-0.56c0-0.125-0.014-0.249-0.042-0.374c-0.028-0.124-0.042-0.242-0.042-0.352
			c0-0.249,0.117-0.374,0.353-0.374h0.145v-0.373h-0.166c-0.511,0-0.767,0.235-0.767,0.705c0,0.042,0.014,0.173,0.042,0.394v0.021
			c0.027,0.18,0.042,0.318,0.042,0.415c0,0.221-0.118,0.332-0.353,0.332h-0.042v0.332h0.042c0.235,0,0.353,0.111,0.353,0.332
			c0,0.083-0.014,0.215-0.042,0.394c-0.028,0.249-0.042,0.387-0.042,0.415c0,0.484,0.256,0.726,0.767,0.726H37.353z M39.26,54.97
			l1.037-2.903H39.82l-0.498,1.431c-0.125,0.359-0.214,0.657-0.27,0.892c-0.056-0.208-0.145-0.504-0.27-0.892l-0.456-1.431h-0.477
			l0.954,2.903H39.26z M42.039,53.685v-0.332h-0.041c-0.235,0-0.353-0.111-0.353-0.332c0-0.097,0.014-0.235,0.042-0.415v-0.021
			c0.027-0.221,0.042-0.352,0.042-0.394c0-0.47-0.263-0.705-0.788-0.705h-0.145v0.373h0.145c0.235,0,0.353,0.125,0.353,0.374
			c0,0.083-0.007,0.173-0.021,0.27l-0.021,0.083c-0.028,0.208-0.042,0.332-0.042,0.374c0,0.276,0.097,0.463,0.29,0.56
			c-0.193,0.083-0.29,0.263-0.29,0.539c0,0.083,0.014,0.214,0.042,0.394c0.014,0.042,0.021,0.069,0.021,0.083
			c0.014,0.083,0.021,0.166,0.021,0.249c0,0.263-0.118,0.394-0.353,0.394h-0.145v0.374h0.166c0.511,0,0.768-0.242,0.768-0.726
			c0-0.083-0.014-0.221-0.042-0.415c-0.028-0.179-0.042-0.311-0.042-0.394c0-0.221,0.117-0.332,0.353-0.332H42.039z"/>
	</g>
	<rect x="46.099" y="49.633" fill="#AEADAE" width="7.373" height="7.373"/>
	<g>
		<path fill="#FFFFFF" d="M52.069,53.039v0.495H49.97v2.1h-0.495v-2.1h-2.099v-0.495h2.099v-2.1h0.495v2.1H52.069z"/>
	</g>
	<rect x="55.184" y="48.172" fill="#EFEFEF" width="10.667" height="10.667"/>
	<g>
		<path fill="#8D8D8D" d="M58.601,53.311l2.956-3.04l0.465,0.453l-2.527,2.587l2.492,2.623l-0.489,0.441L58.601,53.311z"/>
	</g>
	
		<rect x="9.873" y="30.266" fill="none" stroke="#000000" stroke-width="0.3723" stroke-miterlimit="10" width="482.027" height="249.566"/>
</g>
<g id="Layer_5">
</g>
<g id="Layer_4">
</g>
<g id="Layer_6">
	
		<rect x="547.352" y="572.616" fill="none" stroke="#000000" stroke-width="0.477" stroke-miterlimit="10" width="459.972" height="389.462"/>
	
		<rect x="537.23" y="511.18" fill="#FFFFFF" stroke="#000000" stroke-width="0.536" stroke-miterlimit="10" width="482.054" height="20.988"/>
	<g>
		<path fill="#939598" d="M969.183,524.059l-0.016-2.915h0.721v3.65h-7.535v-7.536c0.627,0,1.879,0,3.754,0v0.721
			c-0.168,0-0.387,0-0.656,0s-0.68-0.002-1.229-0.007c-0.551-0.005-0.938-0.007-1.164-0.007l0.016,6.094H969.183z M968.741,518.569
			l-0.943-0.869l0.412-0.441l1.678,1.56l-1.428,1.575l-0.426-0.412l0.676-0.81c-1.854,0.187-3.174,0.893-3.959,2.12
			c-0.195,0.294-0.352,0.611-0.463,0.949c-0.113,0.338-0.174,0.601-0.184,0.788l-0.029,0.28h-0.59c0-0.059,0.006-0.14,0.016-0.243
			s0.051-0.307,0.125-0.611c0.072-0.304,0.174-0.596,0.301-0.875c0.127-0.28,0.324-0.594,0.59-0.942
			c0.264-0.348,0.574-0.657,0.926-0.927c0.354-0.27,0.818-0.513,1.393-0.729S968.044,518.627,968.741,518.569z"/>
	</g>
	<g>
		<g>
			<path fill="#939598" d="M983.181,524.059l-0.014-2.915l0.721-0.015v3.665h-7.537v-7.536c0.629,0,1.879,0,3.754,0v0.707
				c-0.166,0-0.385,0-0.654,0c-0.271,0-0.68,0-1.23,0c-0.549,0-0.936,0-1.162,0l0.016,6.094H983.181z M983.888,517.259v0.589
				c-0.078,0-0.182,0.007-0.309,0.022c-0.129,0.015-0.371,0.079-0.729,0.191c-0.359,0.113-0.689,0.268-0.994,0.463
				c-1.227,0.785-1.928,2.105-2.105,3.959l0.811-0.677l0.412,0.427l-1.59,1.428l-1.547-1.678l0.428-0.413l0.883,0.942
				c0.059-0.697,0.193-1.332,0.404-1.906s0.457-1.038,0.736-1.391c0.279-0.353,0.584-0.662,0.912-0.927
				c0.33-0.265,0.65-0.461,0.965-0.589c0.314-0.127,0.6-0.228,0.854-0.302c0.256-0.074,0.461-0.115,0.619-0.125L983.888,517.259z"/>
		</g>
	</g>
	<g>
		<g>
			<path fill="#939598" d="M992.569,517.259h2.855v0.913h1.869v0.971h-6.609v-0.971h1.885V517.259z M991.155,519.894h5.682v4.901
				h-5.682V519.894z M992.437,520.512v3.591h0.869v-3.591H992.437z M994.688,520.512v3.591h0.869v-3.591H994.688z"/>
		</g>
	</g>
	<g>
		<g>
			<path fill="#939598" d="M1008.272,523.064l-3.754-3.65l0.561-0.574l3.193,3.106l3.238-3.062l0.545,0.604L1008.272,523.064z"/>
		</g>
	</g>
	
		<line fill="#939598" stroke="#000000" stroke-width="0.25" stroke-miterlimit="10" x1="958.687" y1="517.09" x2="958.687" y2="525.257"/>
	
		<line fill="#939598" stroke="#000000" stroke-width="0.25" stroke-miterlimit="10" x1="973.019" y1="517.508" x2="973.019" y2="525.674"/>
	
		<line fill="#939598" stroke="#000000" stroke-width="0.25" stroke-miterlimit="10" x1="987.187" y1="517.09" x2="987.187" y2="525.257"/>
	
		<line fill="#939598" stroke="#000000" stroke-width="0.25" stroke-miterlimit="10" x1="1000.853" y1="517.09" x2="1000.853" y2="525.257"/>
	<rect x="537.189" y="511.18" width="18.083" height="20.899"/>
	<g>
		<path fill="#FFFFFF" d="M549.229,518.581l-0.113,0.407h-0.905l-0.679,2.716c-0.317,1.192-0.626,2.12-0.929,2.784
			c-0.438,0.92-0.904,1.554-1.402,1.9c-0.377,0.271-0.755,0.407-1.132,0.407c-0.257,0-0.468-0.075-0.634-0.226
			c-0.136-0.106-0.203-0.242-0.203-0.407c0-0.136,0.053-0.249,0.158-0.34s0.233-0.136,0.385-0.136c0.12,0,0.219,0.034,0.294,0.102
			c0.075,0.068,0.113,0.147,0.113,0.238c0,0.09-0.046,0.173-0.136,0.248c-0.061,0.061-0.091,0.105-0.091,0.137
			c0,0.029,0.015,0.06,0.046,0.09c0.029,0.03,0.082,0.046,0.158,0.046c0.181,0,0.369-0.057,0.565-0.17s0.37-0.279,0.521-0.498
			s0.295-0.539,0.43-0.962c0.061-0.181,0.219-0.754,0.476-1.72l1.087-4.21h-1.087l0.091-0.407c0.347,0,0.588-0.026,0.725-0.079
			c0.135-0.053,0.26-0.147,0.373-0.283s0.26-0.385,0.441-0.747c0.241-0.498,0.475-0.883,0.701-1.154
			c0.302-0.377,0.623-0.656,0.962-0.837c0.34-0.182,0.66-0.271,0.962-0.271c0.316,0,0.569,0.079,0.758,0.237
			c0.189,0.158,0.283,0.336,0.283,0.532c0,0.136-0.049,0.252-0.146,0.351c-0.099,0.098-0.215,0.146-0.352,0.146
			c-0.135,0-0.245-0.037-0.328-0.112c-0.083-0.076-0.124-0.159-0.124-0.249c0-0.076,0.03-0.162,0.091-0.261
			c0.06-0.098,0.09-0.162,0.09-0.192c0-0.06-0.022-0.105-0.068-0.136c-0.06-0.03-0.135-0.045-0.226-0.045
			c-0.271,0-0.506,0.083-0.702,0.249c-0.286,0.211-0.535,0.551-0.746,1.019c-0.121,0.241-0.332,0.853-0.634,1.833H549.229z"/>
	</g>
	<g>
		<path d="M562.691,551.6c1.036-1.037,2.287-1.555,3.753-1.555c1.465,0,2.716,0.518,3.752,1.555
			c1.037,1.037,1.556,2.288,1.556,3.752c0,1.465-0.519,2.716-1.556,3.753c-1.036,1.037-2.287,1.555-3.752,1.555
			c-1.466,0-2.717-0.519-3.753-1.555s-1.556-2.288-1.556-3.753C561.136,553.888,561.655,552.637,562.691,551.6z M564.724,557.385
			v-0.374h-0.146c-0.235,0-0.353-0.131-0.353-0.394c0-0.055,0.014-0.166,0.041-0.332c0.027-0.125,0.042-0.255,0.042-0.394
			c0-0.276-0.097-0.456-0.29-0.539c0.193-0.096,0.29-0.283,0.29-0.56c0-0.125-0.015-0.249-0.042-0.374
			c-0.027-0.124-0.041-0.242-0.041-0.352c0-0.249,0.117-0.374,0.353-0.374h0.146v-0.373h-0.166c-0.512,0-0.768,0.235-0.768,0.705
			c0,0.042,0.014,0.173,0.041,0.394v0.021c0.027,0.18,0.042,0.318,0.042,0.415c0,0.221-0.118,0.332-0.353,0.332h-0.041v0.332h0.041
			c0.234,0,0.353,0.111,0.353,0.332c0,0.083-0.015,0.215-0.042,0.394c-0.027,0.249-0.041,0.387-0.041,0.415
			c0,0.484,0.256,0.726,0.768,0.726H564.724z M566.63,556.804l1.037-2.903h-0.477l-0.498,1.431c-0.124,0.359-0.214,0.657-0.27,0.892
			c-0.055-0.208-0.145-0.504-0.27-0.892l-0.455-1.431h-0.478l0.954,2.903H566.63z M569.409,555.519v-0.332h-0.041
			c-0.236,0-0.354-0.111-0.354-0.332c0-0.097,0.014-0.235,0.042-0.415v-0.021c0.027-0.221,0.042-0.352,0.042-0.394
			c0-0.47-0.264-0.705-0.789-0.705h-0.145v0.373h0.145c0.235,0,0.354,0.125,0.354,0.374c0,0.083-0.008,0.173-0.021,0.27
			l-0.021,0.083c-0.028,0.208-0.042,0.332-0.042,0.374c0,0.276,0.098,0.463,0.291,0.56c-0.193,0.083-0.291,0.263-0.291,0.539
			c0,0.083,0.014,0.214,0.042,0.394c0.014,0.042,0.021,0.069,0.021,0.083c0.014,0.083,0.021,0.166,0.021,0.249
			c0,0.263-0.118,0.394-0.354,0.394h-0.145v0.374h0.166c0.511,0,0.768-0.242,0.768-0.726c0-0.083-0.015-0.221-0.042-0.415
			c-0.028-0.179-0.042-0.311-0.042-0.394c0-0.221,0.117-0.332,0.354-0.332H569.409z"/>
	</g>
	<rect x="573.47" y="551.467" fill="#AEADAE" width="7.373" height="7.373"/>
	<g>
		<path fill="#FFFFFF" d="M579.439,554.873v0.495h-2.099v2.1h-0.496v-2.1h-2.099v-0.495h2.099v-2.1h0.496v2.1H579.439z"/>
	</g>
	<rect x="582.554" y="550.006" fill="#EFEFEF" width="10.666" height="10.667"/>
	<g>
		<path fill="#8D8D8D" d="M585.971,555.145l2.956-3.04l0.465,0.453l-2.527,2.587l2.492,2.623l-0.489,0.441L585.971,555.145z"/>
	</g>
	
		<rect x="537.243" y="532.183" fill="none" stroke="#000000" stroke-width="0.4949" stroke-miterlimit="10" width="482.029" height="440.9"/>
	
		<rect x="547.366" y="572.757" fill="#FFFFFF" stroke="#000000" stroke-width="0.5236" stroke-miterlimit="10" width="459.949" height="20.988"/>
	<g>
		<path fill="#939598" d="M957.31,585.637l-0.014-2.915h0.721v3.65h-7.537v-7.536c0.629,0,1.879,0,3.754,0v0.721
			c-0.166,0-0.385,0-0.654,0c-0.271,0-0.68-0.002-1.23-0.007c-0.549-0.005-0.936-0.007-1.162-0.007l0.016,6.094H957.31z
			 M956.868,580.146l-0.941-0.869l0.412-0.441l1.678,1.56l-1.428,1.575l-0.428-0.412l0.678-0.81
			c-1.855,0.187-3.174,0.893-3.959,2.12c-0.197,0.294-0.352,0.611-0.465,0.949s-0.174,0.601-0.184,0.788l-0.029,0.28h-0.588
			c0-0.059,0.004-0.14,0.014-0.243s0.051-0.307,0.125-0.611s0.174-0.596,0.303-0.875c0.127-0.28,0.322-0.594,0.588-0.942
			c0.266-0.348,0.574-0.657,0.928-0.927c0.354-0.27,0.816-0.513,1.391-0.729S956.171,580.205,956.868,580.146z"/>
	</g>
	<g>
		<g>
			<path fill="#939598" d="M971.31,585.637l-0.016-2.915l0.721-0.015v3.665h-7.535v-7.536c0.627,0,1.879,0,3.754,0v0.707
				c-0.168,0-0.387,0-0.656,0s-0.68,0-1.229,0c-0.551,0-0.938,0-1.164,0l0.016,6.094H971.31z M972.015,578.836v0.589
				c-0.078,0-0.182,0.007-0.309,0.022s-0.371,0.079-0.729,0.191s-0.689,0.268-0.994,0.463c-1.227,0.785-1.928,2.105-2.104,3.959
				l0.809-0.677l0.412,0.427l-1.59,1.428l-1.545-1.678l0.426-0.413l0.885,0.942c0.059-0.697,0.193-1.332,0.404-1.906
				s0.457-1.038,0.736-1.391c0.279-0.353,0.584-0.662,0.912-0.927s0.65-0.461,0.965-0.589c0.312-0.127,0.598-0.228,0.854-0.302
				c0.254-0.074,0.461-0.115,0.617-0.125L972.015,578.836z"/>
		</g>
	</g>
	<g>
		<g>
			<path fill="#939598" d="M980.696,578.836h2.855v0.913h1.871v0.971h-6.609v-0.971h1.883V578.836z M979.284,581.471h5.682v4.901
				h-5.682V581.471z M980.565,582.089v3.591h0.867v-3.591H980.565z M982.817,582.089v3.591h0.867v-3.591H982.817z"/>
		</g>
	</g>
	<g>
		<g>
			<path fill="#939598" d="M996.401,584.642l-3.754-3.65l0.559-0.574l3.195,3.106l3.238-3.062l0.543,0.604L996.401,584.642z"/>
		</g>
	</g>
	
		<line fill="#939598" stroke="#000000" stroke-width="0.25" stroke-miterlimit="10" x1="961.157" y1="578.545" x2="961.157" y2="586.711"/>
	
		<line fill="#939598" stroke="#000000" stroke-width="0.25" stroke-miterlimit="10" x1="975.323" y1="578.127" x2="975.323" y2="586.294"/>
	
		<line fill="#939598" stroke="#000000" stroke-width="0.25" stroke-miterlimit="10" x1="988.979" y1="578.668" x2="988.979" y2="586.834"/>
	<rect x="547.339" y="572.757" width="18.083" height="20.899"/>
	<g>
		<path fill="#FFFFFF" d="M559.378,580.159l-0.113,0.407h-0.905l-0.679,2.716c-0.316,1.192-0.627,2.12-0.928,2.784
			c-0.438,0.92-0.906,1.554-1.403,1.9c-0.378,0.271-0.755,0.407-1.132,0.407c-0.257,0-0.468-0.075-0.634-0.226
			c-0.136-0.106-0.204-0.242-0.204-0.407c0-0.136,0.053-0.249,0.158-0.34s0.234-0.136,0.385-0.136c0.121,0,0.219,0.034,0.295,0.102
			c0.075,0.068,0.113,0.147,0.113,0.238c0,0.09-0.045,0.173-0.136,0.248c-0.061,0.061-0.091,0.105-0.091,0.137
			c0,0.029,0.016,0.06,0.045,0.09c0.031,0.03,0.083,0.046,0.158,0.046c0.182,0,0.37-0.057,0.566-0.17
			c0.195-0.113,0.369-0.279,0.521-0.498s0.294-0.539,0.431-0.962c0.06-0.181,0.219-0.754,0.475-1.72l1.086-4.21H556.3l0.091-0.407
			c0.347,0,0.589-0.026,0.724-0.079c0.137-0.053,0.261-0.147,0.374-0.283s0.261-0.385,0.441-0.747
			c0.241-0.498,0.476-0.883,0.701-1.154c0.302-0.377,0.622-0.656,0.962-0.837c0.34-0.182,0.66-0.271,0.962-0.271
			c0.317,0,0.569,0.079,0.759,0.237c0.188,0.158,0.282,0.336,0.282,0.532c0,0.136-0.049,0.252-0.147,0.351
			c-0.098,0.098-0.215,0.146-0.35,0.146c-0.137,0-0.246-0.037-0.328-0.112c-0.084-0.076-0.125-0.159-0.125-0.249
			c0-0.076,0.029-0.162,0.09-0.261c0.061-0.098,0.092-0.162,0.092-0.192c0-0.06-0.023-0.105-0.068-0.136
			c-0.061-0.03-0.137-0.045-0.227-0.045c-0.271,0-0.506,0.083-0.701,0.249c-0.287,0.211-0.536,0.551-0.747,1.019
			c-0.121,0.241-0.333,0.853-0.634,1.833H559.378z"/>
	</g>
	<g>
		<path d="M572.841,613.178c1.037-1.037,2.287-1.555,3.752-1.555c1.466,0,2.717,0.518,3.754,1.555
			c1.036,1.037,1.555,2.288,1.555,3.752c0,1.465-0.519,2.716-1.555,3.753c-1.037,1.037-2.288,1.555-3.754,1.555
			c-1.465,0-2.715-0.519-3.752-1.555s-1.555-2.288-1.555-3.753C571.286,615.465,571.804,614.214,572.841,613.178z M574.872,618.962
			v-0.374h-0.145c-0.235,0-0.353-0.131-0.353-0.394c0-0.055,0.014-0.166,0.042-0.332c0.027-0.125,0.041-0.255,0.041-0.394
			c0-0.276-0.098-0.456-0.291-0.539c0.193-0.096,0.291-0.283,0.291-0.56c0-0.125-0.014-0.249-0.041-0.374
			c-0.028-0.124-0.042-0.242-0.042-0.352c0-0.249,0.117-0.374,0.353-0.374h0.145v-0.373h-0.166c-0.511,0-0.767,0.235-0.767,0.705
			c0,0.042,0.014,0.173,0.042,0.394v0.021c0.027,0.18,0.041,0.318,0.041,0.415c0,0.221-0.117,0.332-0.353,0.332h-0.042v0.332h0.042
			c0.235,0,0.353,0.111,0.353,0.332c0,0.083-0.014,0.215-0.041,0.394c-0.028,0.249-0.042,0.387-0.042,0.415
			c0,0.484,0.256,0.726,0.767,0.726H574.872z M576.78,618.382l1.037-2.903h-0.478l-0.497,1.431c-0.125,0.359-0.215,0.657-0.27,0.892
			c-0.057-0.208-0.146-0.504-0.27-0.892l-0.457-1.431h-0.477l0.953,2.903H576.78z M579.558,617.096v-0.332h-0.041
			c-0.234,0-0.352-0.111-0.352-0.332c0-0.097,0.014-0.235,0.041-0.415v-0.021c0.027-0.221,0.041-0.352,0.041-0.394
			c0-0.47-0.263-0.705-0.787-0.705h-0.146v0.373h0.146c0.234,0,0.352,0.125,0.352,0.374c0,0.083-0.007,0.173-0.021,0.27
			l-0.021,0.083c-0.027,0.208-0.041,0.332-0.041,0.374c0,0.276,0.096,0.463,0.289,0.56c-0.193,0.083-0.289,0.263-0.289,0.539
			c0,0.083,0.014,0.214,0.041,0.394c0.014,0.042,0.021,0.069,0.021,0.083c0.014,0.083,0.021,0.166,0.021,0.249
			c0,0.263-0.117,0.394-0.352,0.394h-0.146v0.374h0.165c0.512,0,0.768-0.242,0.768-0.726c0-0.083-0.014-0.221-0.041-0.415
			c-0.027-0.179-0.041-0.311-0.041-0.394c0-0.221,0.117-0.332,0.352-0.332H579.558z"/>
	</g>
	<rect x="583.618" y="613.044" fill="#AEADAE" width="7.373" height="7.373"/>
	<g>
		<path fill="#FFFFFF" d="M589.589,616.45v0.495h-2.1v2.1h-0.494v-2.1h-2.1v-0.495h2.1v-2.1h0.494v2.1H589.589z"/>
	</g>
	<rect x="592.703" y="611.584" fill="#EFEFEF" width="10.667" height="10.667"/>
	<g>
		<path fill="#8D8D8D" d="M596.12,616.722l2.956-3.04l0.465,0.453l-2.527,2.587l2.492,2.623l-0.489,0.441L596.12,616.722z"/>
	</g>
	
		<rect x="692.751" y="639.598" fill="#FFFFFF" stroke="#000000" stroke-width="0.7891" stroke-miterlimit="10" width="125.076" height="30.514"/>
	<g>
		<text transform="matrix(1 0 0 1 707.8711 657.5913)" font-family="'MyriadPro-Regular'" font-size="14.2044">ResourceWorker</text>
	</g>
	
		<rect x="692.753" y="692.165" fill="#FFFFFF" stroke="#000000" stroke-width="0.5" stroke-miterlimit="10" width="126.385" height="30.461"/>
	
		<line fill="none" stroke="#000000" stroke-width="0.5" stroke-miterlimit="10" x1="756.233" y1="670.112" x2="756.233" y2="692.169"/>
	
		<rect x="692.888" y="846.77" fill="#FFFFFF" stroke="#000000" stroke-width="0.5" stroke-miterlimit="10" width="126.383" height="30.461"/>
	<g>
		<path d="M586.628,669.679c-0.455,0.227-1.364,0.455-2.529,0.455c-2.699,0-4.732-1.705-4.732-4.846
			c0-2.998,2.033-5.029,5.002-5.029c1.193,0,1.947,0.255,2.273,0.426l-0.299,1.009c-0.469-0.228-1.137-0.398-1.932-0.398
			c-2.245,0-3.736,1.435-3.736,3.95c0,2.344,1.35,3.85,3.68,3.85c0.753,0,1.52-0.156,2.018-0.398L586.628,669.679z"/>
		<path d="M588.132,659.903h1.25v10.088h-1.25V659.903z"/>
		<path d="M592.876,661.182c0.014,0.426-0.299,0.768-0.796,0.768c-0.44,0-0.753-0.341-0.753-0.768c0-0.44,0.326-0.782,0.781-0.782
			C592.577,660.4,592.876,660.741,592.876,661.182z M591.483,669.991v-6.877h1.25v6.877H591.483z"/>
		<path d="M595.503,666.78c0.029,1.691,1.108,2.387,2.359,2.387c0.895,0,1.434-0.156,1.903-0.355l0.213,0.896
			c-0.44,0.199-1.193,0.426-2.288,0.426c-2.116,0-3.381-1.393-3.381-3.467s1.223-3.708,3.226-3.708c2.245,0,2.841,1.975,2.841,3.239
			c0,0.256-0.027,0.455-0.042,0.583H595.503z M599.169,665.885c0.014-0.796-0.327-2.032-1.733-2.032
			c-1.265,0-1.819,1.165-1.918,2.032H599.169z"/>
		<path d="M601.923,664.975c0-0.71-0.014-1.293-0.057-1.861h1.108l0.071,1.137h0.028c0.341-0.654,1.137-1.293,2.273-1.293
			c0.952,0,2.429,0.568,2.429,2.927v4.106h-1.25v-3.964c0-1.108-0.412-2.032-1.591-2.032c-0.824,0-1.464,0.583-1.677,1.278
			c-0.057,0.157-0.085,0.37-0.085,0.583v4.135h-1.251V664.975z"/>
		<path d="M611.257,661.139v1.975h1.789v0.952h-1.789v3.708c0,0.853,0.24,1.336,0.938,1.336c0.326,0,0.567-0.043,0.725-0.085
			l0.057,0.938c-0.242,0.1-0.625,0.171-1.109,0.171c-0.582,0-1.051-0.185-1.35-0.526c-0.355-0.369-0.482-0.98-0.482-1.791v-3.751
			h-1.066v-0.952h1.066v-1.648L611.257,661.139z"/>
	</g>
	
		<rect x="572.075" y="641.873" transform="matrix(0.7071 -0.7071 0.7071 0.7071 -296.9813 618.2667)" fill="none" stroke="#000000" stroke-width="0.7891" stroke-miterlimit="10" width="51.497" height="51.497"/>
	
		<line fill="none" stroke="#000000" stroke-width="1.4822" stroke-miterlimit="10" x1="597.823" y1="704.036" x2="597.823" y2="876.426"/>
	<g>
		<g>
			
				<line fill="none" stroke="#000000" stroke-width="1.1529" stroke-miterlimit="10" x1="684.478" y1="709.397" x2="597.823" y2="709.397"/>
			<g>
				<polygon points="682.796,703.648 692.751,709.397 682.796,715.146 				"/>
			</g>
		</g>
	</g>
	
		<rect x="691.895" y="743.336" fill="#FFFFFF" stroke="#000000" stroke-width="0.5" stroke-miterlimit="10" width="126.384" height="30.461"/>
	<g>
		<path d="M729.401,758.269c0-0.869-0.028-1.569-0.057-2.213h1.107l0.055,1.163h0.029c0.504-0.826,1.303-1.316,2.408-1.316
			c1.64,0,2.872,1.387,2.872,3.446c0,2.437-1.485,3.642-3.081,3.642c-0.896,0-1.682-0.393-2.088-1.065h-0.027v3.684h-1.219V758.269z
			 M730.62,760.076c0,0.182,0.027,0.35,0.056,0.504c0.224,0.854,0.966,1.443,1.849,1.443c1.303,0,2.06-1.064,2.06-2.619
			c0-1.359-0.714-2.521-2.017-2.521c-0.842,0-1.625,0.602-1.863,1.527c-0.043,0.154-0.084,0.336-0.084,0.504V760.076z"/>
		<path d="M741.12,762.835l-0.098-0.854h-0.041c-0.379,0.532-1.107,1.009-2.074,1.009c-1.373,0-2.072-0.967-2.072-1.947
			c0-1.639,1.457-2.535,4.076-2.521v-0.14c0-0.56-0.154-1.569-1.541-1.569c-0.631,0-1.289,0.196-1.766,0.504l-0.279-0.812
			c0.561-0.364,1.373-0.602,2.227-0.602c2.073,0,2.578,1.415,2.578,2.773v2.535c0,0.588,0.027,1.163,0.111,1.625H741.12z
			 M740.938,759.375c-1.344-0.028-2.871,0.21-2.871,1.527c0,0.798,0.532,1.177,1.162,1.177c0.883,0,1.443-0.561,1.639-1.135
			c0.043-0.126,0.07-0.266,0.07-0.392V759.375z"/>
		<path d="M744.45,756.056l1.485,4.006c0.154,0.448,0.322,0.98,0.435,1.387h0.027c0.127-0.406,0.267-0.924,0.435-1.415l1.345-3.978
			h1.303l-1.85,4.833c-0.882,2.326-1.484,3.516-2.324,4.245c-0.603,0.532-1.205,0.742-1.514,0.798l-0.308-1.037
			c0.308-0.098,0.714-0.294,1.079-0.602c0.336-0.267,0.756-0.743,1.036-1.373c0.056-0.126,0.098-0.224,0.098-0.294
			c0-0.07-0.028-0.168-0.084-0.322l-2.507-6.248H744.45z"/>
		<path d="M750.597,752.89h1.232v9.945h-1.232V752.89z"/>
		<path d="M760.036,759.39c0,2.507-1.737,3.6-3.376,3.6c-1.835,0-3.25-1.345-3.25-3.488c0-2.269,1.485-3.6,3.362-3.6
			C758.72,755.902,760.036,757.316,760.036,759.39z M754.657,759.459c0,1.485,0.854,2.605,2.059,2.605
			c1.177,0,2.059-1.106,2.059-2.633c0-1.148-0.574-2.605-2.03-2.605C755.287,756.826,754.657,758.171,754.657,759.459z"/>
		<path d="M765.341,762.835l-0.098-0.854H765.2c-0.378,0.532-1.106,1.009-2.072,1.009c-1.373,0-2.074-0.967-2.074-1.947
			c0-1.639,1.457-2.535,4.076-2.521v-0.14c0-0.56-0.153-1.569-1.541-1.569c-0.629,0-1.288,0.196-1.764,0.504l-0.281-0.812
			c0.561-0.364,1.373-0.602,2.228-0.602c2.073,0,2.577,1.415,2.577,2.773v2.535c0,0.588,0.028,1.163,0.112,1.625H765.341z
			 M765.159,759.375c-1.346-0.028-2.872,0.21-2.872,1.527c0,0.798,0.532,1.177,1.163,1.177c0.882,0,1.441-0.561,1.639-1.135
			c0.041-0.126,0.07-0.266,0.07-0.392V759.375z"/>
		<path d="M774.19,752.89v8.194c0,0.603,0.014,1.289,0.055,1.751h-1.105l-0.057-1.177h-0.027c-0.379,0.756-1.205,1.331-2.312,1.331
			c-1.639,0-2.898-1.387-2.898-3.446c-0.015-2.255,1.387-3.642,3.039-3.642c1.037,0,1.737,0.49,2.045,1.037h0.028v-4.048H774.19z
			 M772.957,758.815c0-0.154-0.015-0.364-0.056-0.519c-0.183-0.784-0.855-1.429-1.779-1.429c-1.275,0-2.031,1.121-2.031,2.62
			c0,1.373,0.672,2.507,2.004,2.507c0.826,0,1.582-0.546,1.807-1.471c0.041-0.168,0.056-0.336,0.056-0.533V758.815z"/>
		<path d="M778.735,758.115v-0.84h7.229v0.84H778.735z M778.735,760.86v-0.84h7.229v0.84H778.735z"/>
		<path d="M791.155,753.128l1.219,2.003h-0.869l-1.709-2.003H791.155z"/>
		<path d="M794.415,762.107c0-0.518,0.35-0.882,0.84-0.882c0.492,0,0.828,0.364,0.828,0.882c0,0.504-0.322,0.883-0.842,0.883
			C794.751,762.99,794.415,762.611,794.415,762.107z"/>
		<path d="M797.313,762.107c0-0.518,0.35-0.882,0.84-0.882c0.492,0,0.828,0.364,0.828,0.882c0,0.504-0.322,0.883-0.842,0.883
			C797.649,762.99,797.313,762.611,797.313,762.107z"/>
		<path d="M800.212,762.107c0-0.518,0.35-0.882,0.84-0.882s0.826,0.364,0.826,0.882c0,0.504-0.322,0.883-0.84,0.883
			C800.548,762.99,800.212,762.611,800.212,762.107z"/>
	</g>
	<g>
		<path d="M743.758,711.013c0.546,0.336,1.345,0.616,2.185,0.616c1.247,0,1.976-0.658,1.976-1.611c0-0.882-0.505-1.387-1.778-1.877
			c-1.541-0.546-2.494-1.345-2.494-2.675c0-1.471,1.219-2.563,3.054-2.563c0.967,0,1.667,0.224,2.087,0.462l-0.336,0.995
			c-0.309-0.168-0.938-0.448-1.793-0.448c-1.289,0-1.779,0.77-1.779,1.415c0,0.882,0.574,1.317,1.877,1.821
			c1.598,0.617,2.41,1.387,2.41,2.774c0,1.457-1.079,2.717-3.307,2.717c-0.91,0-1.904-0.266-2.408-0.603L743.758,711.013z"/>
		<path d="M752.229,703.771v1.947h1.765v0.938h-1.765v3.656c0,0.84,0.238,1.316,0.925,1.316c0.322,0,0.561-0.042,0.714-0.084
			l0.056,0.925c-0.237,0.098-0.615,0.168-1.092,0.168c-0.574,0-1.037-0.182-1.331-0.519c-0.351-0.364-0.476-0.966-0.476-1.765
			v-3.698h-1.051v-0.938h1.051v-1.625L752.229,703.771z"/>
		<path d="M759.132,712.498l-0.098-0.854h-0.042c-0.378,0.532-1.106,1.009-2.073,1.009c-1.373,0-2.073-0.967-2.073-1.947
			c0-1.639,1.457-2.535,4.076-2.521v-0.14c0-0.56-0.153-1.569-1.541-1.569c-0.63,0-1.288,0.196-1.765,0.504l-0.28-0.812
			c0.561-0.364,1.373-0.602,2.228-0.602c2.072,0,2.577,1.415,2.577,2.773v2.535c0,0.588,0.028,1.163,0.112,1.625H759.132z
			 M758.95,709.038c-1.345-0.028-2.871,0.21-2.871,1.527c0,0.798,0.531,1.177,1.162,1.177c0.883,0,1.442-0.561,1.639-1.135
			c0.042-0.126,0.07-0.266,0.07-0.392V709.038z"/>
		<path d="M762.126,707.833c0-0.798-0.015-1.485-0.057-2.115h1.078l0.043,1.331h0.056c0.308-0.911,1.051-1.485,1.877-1.485
			c0.14,0,0.238,0.014,0.351,0.042v1.163c-0.127-0.028-0.252-0.042-0.42-0.042c-0.869,0-1.485,0.658-1.653,1.583
			c-0.028,0.168-0.056,0.364-0.056,0.575v3.614h-1.219V707.833z"/>
		<path d="M768.524,703.771v1.947h1.766v0.938h-1.766v3.656c0,0.84,0.238,1.316,0.924,1.316c0.322,0,0.561-0.042,0.715-0.084
			l0.057,0.925c-0.238,0.098-0.617,0.168-1.093,0.168c-0.575,0-1.036-0.182-1.331-0.519c-0.35-0.364-0.477-0.966-0.477-1.765v-3.698
			h-1.051v-0.938h1.051v-1.625L768.524,703.771z"/>
	</g>
	<g>
		<path d="M566.673,520.437c0-0.7-0.014-1.274-0.057-1.835h1.094l0.069,1.121h0.028c0.336-0.644,1.121-1.274,2.241-1.274
			c0.938,0,2.396,0.56,2.396,2.885v4.048h-1.232v-3.908c0-1.092-0.406-2.003-1.569-2.003c-0.812,0-1.442,0.574-1.653,1.261
			c-0.056,0.154-0.084,0.364-0.084,0.574v4.076h-1.232V520.437z"/>
		<path d="M574.709,518.602l1.485,4.006c0.154,0.448,0.322,0.98,0.434,1.387h0.028c0.126-0.406,0.267-0.924,0.435-1.415l1.344-3.978
			h1.303l-1.849,4.833c-0.882,2.326-1.485,3.516-2.325,4.245c-0.602,0.532-1.205,0.742-1.513,0.798l-0.308-1.037
			c0.308-0.098,0.714-0.294,1.078-0.602c0.336-0.267,0.756-0.743,1.037-1.373c0.055-0.126,0.098-0.224,0.098-0.294
			c0-0.07-0.028-0.168-0.084-0.322l-2.508-6.248H574.709z"/>
		<path d="M580.603,524.121c0.365,0.238,1.009,0.49,1.625,0.49c0.896,0,1.316-0.448,1.316-1.008c0-0.588-0.35-0.911-1.26-1.247
			c-1.219-0.435-1.793-1.107-1.793-1.919c0-1.092,0.883-1.989,2.339-1.989c0.687,0,1.289,0.196,1.667,0.42l-0.309,0.896
			c-0.266-0.168-0.756-0.392-1.387-0.392c-0.729,0-1.135,0.42-1.135,0.924c0,0.561,0.406,0.812,1.289,1.149
			c1.177,0.448,1.779,1.037,1.779,2.045c0,1.191-0.925,2.031-2.535,2.031c-0.742,0-1.43-0.182-1.905-0.462L580.603,524.121z"/>
		<path d="M587.001,522.216c0.028,1.667,1.093,2.353,2.326,2.353c0.882,0,1.414-0.154,1.877-0.35l0.209,0.882
			c-0.434,0.196-1.176,0.42-2.254,0.42c-2.088,0-3.334-1.373-3.334-3.418c0-2.045,1.204-3.656,3.18-3.656
			c2.213,0,2.801,1.947,2.801,3.193c0,0.252-0.027,0.448-0.041,0.575H587.001z M590.615,521.333
			c0.015-0.784-0.322-2.003-1.709-2.003c-1.247,0-1.793,1.148-1.891,2.003H590.615z"/>
		<path d="M593.202,523.897c0.547,0.336,1.346,0.616,2.186,0.616c1.246,0,1.975-0.658,1.975-1.611c0-0.882-0.504-1.387-1.778-1.877
			c-1.541-0.546-2.493-1.345-2.493-2.675c0-1.471,1.219-2.563,3.053-2.563c0.967,0,1.668,0.224,2.088,0.462l-0.336,0.995
			c-0.309-0.168-0.939-0.448-1.793-0.448c-1.289,0-1.779,0.77-1.779,1.415c0,0.882,0.574,1.317,1.877,1.821
			c1.597,0.617,2.409,1.387,2.409,2.774c0,1.457-1.079,2.717-3.306,2.717c-0.91,0-1.904-0.266-2.409-0.603L593.202,523.897z"/>
		<path d="M601.674,516.655v1.947h1.765v0.938h-1.765v3.656c0,0.84,0.238,1.316,0.925,1.316c0.322,0,0.561-0.042,0.714-0.084
			l0.056,0.925c-0.237,0.098-0.615,0.168-1.092,0.168c-0.574,0-1.037-0.182-1.331-0.519c-0.351-0.364-0.476-0.966-0.476-1.765
			v-3.698h-1.051v-0.938h1.051v-1.625L601.674,516.655z"/>
		<path d="M610.874,521.936c0,2.507-1.736,3.6-3.375,3.6c-1.836,0-3.25-1.345-3.25-3.488c0-2.269,1.484-3.6,3.361-3.6
			C609.558,518.448,610.874,519.863,610.874,521.936z M605.495,522.006c0,1.485,0.854,2.605,2.059,2.605
			c1.178,0,2.06-1.106,2.06-2.633c0-1.148-0.574-2.605-2.03-2.605C606.126,519.373,605.495,520.717,605.495,522.006z"/>
		<path d="M617.257,525.13c-0.321,0.168-1.036,0.392-1.946,0.392c-2.046,0-3.376-1.387-3.376-3.46c0-2.087,1.429-3.6,3.643-3.6
			c0.729,0,1.372,0.182,1.709,0.351l-0.281,0.952c-0.293-0.168-0.756-0.322-1.428-0.322c-1.555,0-2.396,1.149-2.396,2.563
			c0,1.569,1.01,2.536,2.354,2.536c0.701,0,1.163-0.182,1.514-0.336L617.257,525.13z"/>
		<path d="M619.915,521.712h0.028c0.169-0.238,0.406-0.532,0.603-0.771l1.989-2.339h1.484l-2.619,2.788l2.983,3.992h-1.498
			l-2.34-3.25l-0.631,0.701v2.549h-1.219v-9.945h1.219V521.712z"/>
		<path d="M633.093,526.769c-1.274-0.336-2.521-0.714-3.613-1.093c-0.196-0.07-0.393-0.14-0.574-0.14
			c-2.242-0.084-4.16-1.737-4.16-4.777c0-3.025,1.849-4.973,4.398-4.973c2.562,0,4.229,1.989,4.229,4.777
			c0,2.423-1.12,3.978-2.689,4.524v0.056c0.938,0.238,1.961,0.462,2.76,0.603L633.093,526.769z M632.085,520.619
			c0-1.891-0.98-3.838-2.984-3.838c-2.059,0-3.067,1.905-3.053,3.95c-0.015,2.003,1.092,3.81,2.997,3.81
			C630.991,524.542,632.085,522.776,632.085,520.619z"/>
		<path d="M640.624,523.533c0,0.701,0.014,1.317,0.055,1.849h-1.092l-0.07-1.106h-0.027c-0.322,0.546-1.037,1.261-2.242,1.261
			c-1.064,0-2.339-0.588-2.339-2.97v-3.964h1.233v3.754c0,1.289,0.392,2.157,1.512,2.157c0.826,0,1.401-0.574,1.625-1.121
			c0.07-0.182,0.112-0.406,0.112-0.63v-4.16h1.233V523.533z"/>
		<path d="M648.8,521.936c0,2.507-1.736,3.6-3.375,3.6c-1.836,0-3.25-1.345-3.25-3.488c0-2.269,1.484-3.6,3.361-3.6
			C647.483,518.448,648.8,519.863,648.8,521.936z M643.421,522.006c0,1.485,0.854,2.605,2.059,2.605c1.178,0,2.06-1.106,2.06-2.633
			c0-1.148-0.574-2.605-2.03-2.605C644.052,519.373,643.421,520.717,643.421,522.006z"/>
		<path d="M651.835,516.655v1.947h1.766v0.938h-1.766v3.656c0,0.84,0.238,1.316,0.924,1.316c0.322,0,0.561-0.042,0.715-0.084
			l0.057,0.925c-0.238,0.098-0.617,0.168-1.093,0.168c-0.575,0-1.036-0.182-1.331-0.519c-0.35-0.364-0.477-0.966-0.477-1.765v-3.698
			h-1.051v-0.938h1.051v-1.625L651.835,516.655z"/>
		<path d="M655.587,522.216c0.027,1.667,1.093,2.353,2.325,2.353c0.882,0,1.415-0.154,1.877-0.35l0.21,0.882
			c-0.434,0.196-1.176,0.42-2.255,0.42c-2.087,0-3.334-1.373-3.334-3.418c0-2.045,1.204-3.656,3.18-3.656
			c2.214,0,2.802,1.947,2.802,3.193c0,0.252-0.028,0.448-0.042,0.575H655.587z M659.2,521.333c0.015-0.784-0.322-2.003-1.709-2.003
			c-1.246,0-1.793,1.148-1.891,2.003H659.2z"/>
	</g>
	<g>
		<path d="M577.49,586.889c0.546,0.336,1.345,0.616,2.185,0.616c1.247,0,1.976-0.658,1.976-1.611c0-0.882-0.505-1.387-1.778-1.877
			c-1.541-0.546-2.494-1.345-2.494-2.675c0-1.471,1.219-2.563,3.054-2.563c0.967,0,1.667,0.224,2.087,0.462l-0.336,0.995
			c-0.309-0.168-0.938-0.448-1.793-0.448c-1.289,0-1.779,0.77-1.779,1.415c0,0.882,0.574,1.317,1.877,1.821
			c1.598,0.617,2.41,1.387,2.41,2.774c0,1.457-1.079,2.717-3.307,2.717c-0.91,0-1.904-0.266-2.408-0.603L577.49,586.889z"/>
		<path d="M585.961,579.647v1.947h1.765v0.938h-1.765v3.656c0,0.84,0.238,1.316,0.925,1.316c0.322,0,0.561-0.042,0.714-0.084
			l0.056,0.925c-0.237,0.098-0.615,0.168-1.092,0.168c-0.574,0-1.037-0.182-1.331-0.519c-0.351-0.364-0.476-0.966-0.476-1.765
			v-3.698h-1.051v-0.938h1.051v-1.625L585.961,579.647z"/>
		<path d="M595.161,584.928c0,2.507-1.736,3.6-3.375,3.6c-1.835,0-3.25-1.345-3.25-3.488c0-2.269,1.484-3.6,3.361-3.6
			C593.845,581.44,595.161,582.855,595.161,584.928z M589.782,584.998c0,1.485,0.855,2.605,2.06,2.605
			c1.177,0,2.06-1.106,2.06-2.633c0-1.148-0.574-2.605-2.031-2.605S589.782,583.709,589.782,584.998z"/>
		<path d="M601.545,588.122c-0.321,0.168-1.036,0.392-1.946,0.392c-2.046,0-3.377-1.387-3.377-3.46c0-2.087,1.43-3.6,3.643-3.6
			c0.729,0,1.373,0.182,1.709,0.351l-0.28,0.952c-0.294-0.168-0.757-0.322-1.429-0.322c-1.555,0-2.396,1.149-2.396,2.563
			c0,1.569,1.009,2.536,2.354,2.536c0.7,0,1.163-0.182,1.513-0.336L601.545,588.122z"/>
		<path d="M604.203,584.704h0.028c0.168-0.238,0.406-0.532,0.602-0.771l1.99-2.339h1.484l-2.619,2.788l2.982,3.992h-1.498
			l-2.34-3.25l-0.63,0.701v2.549h-1.219v-9.945h1.219V584.704z"/>
		<path d="M609.382,587.113c0.365,0.238,1.009,0.49,1.625,0.49c0.896,0,1.316-0.448,1.316-1.008c0-0.588-0.35-0.911-1.26-1.247
			c-1.219-0.435-1.793-1.107-1.793-1.919c0-1.092,0.883-1.989,2.339-1.989c0.687,0,1.289,0.196,1.667,0.42l-0.309,0.896
			c-0.266-0.168-0.756-0.392-1.387-0.392c-0.729,0-1.135,0.42-1.135,0.924c0,0.561,0.406,0.812,1.289,1.149
			c1.177,0.448,1.779,1.037,1.779,2.045c0,1.191-0.925,2.031-2.535,2.031c-0.742,0-1.43-0.182-1.905-0.462L609.382,587.113z"/>
	</g>
	<text transform="matrix(1 0 0 1 -138.333 672.334)" font-family="'MyriadPro-Regular'" font-size="14">message:set..</text>
	
		<rect x="691.896" y="794.234" fill="#FFFFFF" stroke="#000000" stroke-width="0.5" stroke-miterlimit="10" width="126.383" height="30.461"/>
	<g>
		<path d="M718.394,808.789c0-0.7-0.014-1.274-0.057-1.835h1.078l0.057,1.093h0.042c0.378-0.645,1.009-1.247,2.13-1.247
			c0.924,0,1.624,0.56,1.918,1.358h0.028c0.21-0.378,0.477-0.672,0.757-0.882c0.406-0.308,0.854-0.476,1.498-0.476
			c0.896,0,2.228,0.588,2.228,2.941v3.992h-1.204v-3.838c0-1.303-0.477-2.087-1.471-2.087c-0.701,0-1.247,0.519-1.457,1.121
			c-0.057,0.168-0.098,0.392-0.098,0.616v4.188h-1.205v-4.062c0-1.079-0.477-1.863-1.415-1.863c-0.771,0-1.331,0.616-1.526,1.233
			c-0.07,0.182-0.099,0.392-0.099,0.602v4.09h-1.204V808.789z"/>
		<path d="M730.755,810.568c0.028,1.667,1.094,2.353,2.326,2.353c0.882,0,1.414-0.154,1.877-0.35l0.209,0.882
			c-0.434,0.196-1.176,0.42-2.254,0.42c-2.088,0-3.334-1.373-3.334-3.418c0-2.045,1.204-3.656,3.18-3.656
			c2.213,0,2.801,1.947,2.801,3.193c0,0.252-0.027,0.448-0.041,0.575H730.755z M734.369,809.685
			c0.015-0.784-0.322-2.003-1.709-2.003c-1.247,0-1.793,1.148-1.891,2.003H734.369z"/>
		<path d="M736.915,812.473c0.364,0.238,1.008,0.49,1.625,0.49c0.896,0,1.316-0.448,1.316-1.008c0-0.588-0.35-0.911-1.261-1.247
			c-1.218-0.435-1.793-1.107-1.793-1.919c0-1.092,0.883-1.989,2.339-1.989c0.688,0,1.289,0.196,1.668,0.42l-0.309,0.896
			c-0.266-0.168-0.756-0.392-1.387-0.392c-0.729,0-1.135,0.42-1.135,0.924c0,0.561,0.406,0.812,1.289,1.149
			c1.176,0.448,1.779,1.037,1.779,2.045c0,1.191-0.926,2.031-2.536,2.031c-0.742,0-1.429-0.182-1.905-0.462L736.915,812.473z"/>
		<path d="M742.459,812.473c0.364,0.238,1.009,0.49,1.625,0.49c0.896,0,1.316-0.448,1.316-1.008c0-0.588-0.351-0.911-1.261-1.247
			c-1.219-0.435-1.793-1.107-1.793-1.919c0-1.092,0.883-1.989,2.34-1.989c0.686,0,1.289,0.196,1.666,0.42l-0.308,0.896
			c-0.267-0.168-0.757-0.392-1.387-0.392c-0.729,0-1.135,0.42-1.135,0.924c0,0.561,0.406,0.812,1.288,1.149
			c1.178,0.448,1.779,1.037,1.779,2.045c0,1.191-0.924,2.031-2.535,2.031c-0.742,0-1.429-0.182-1.904-0.462L742.459,812.473z"/>
		<path d="M751.925,813.733l-0.098-0.854h-0.042c-0.378,0.532-1.106,1.009-2.073,1.009c-1.373,0-2.073-0.967-2.073-1.947
			c0-1.639,1.457-2.535,4.076-2.521v-0.14c0-0.56-0.153-1.569-1.54-1.569c-0.631,0-1.289,0.196-1.766,0.504l-0.28-0.812
			c0.561-0.364,1.372-0.602,2.228-0.602c2.072,0,2.577,1.415,2.577,2.773v2.535c0,0.588,0.028,1.163,0.112,1.625H751.925z
			 M751.743,810.273c-1.346-0.028-2.871,0.21-2.871,1.527c0,0.798,0.531,1.177,1.162,1.177c0.883,0,1.442-0.561,1.639-1.135
			c0.042-0.126,0.07-0.266,0.07-0.392V810.273z"/>
		<path d="M760.761,806.954c-0.029,0.49-0.057,1.037-0.057,1.863v3.936c0,1.555-0.309,2.507-0.967,3.096
			c-0.658,0.616-1.61,0.812-2.465,0.812c-0.812,0-1.709-0.196-2.256-0.561l0.309-0.938c0.448,0.28,1.148,0.532,1.989,0.532
			c1.261,0,2.185-0.658,2.185-2.367v-0.756h-0.027c-0.379,0.63-1.107,1.135-2.157,1.135c-1.681,0-2.886-1.429-2.886-3.306
			c0-2.297,1.499-3.6,3.054-3.6c1.177,0,1.821,0.616,2.115,1.176h0.028l0.056-1.022H760.761z M759.485,809.629
			c0-0.21-0.014-0.393-0.07-0.561c-0.224-0.714-0.826-1.303-1.723-1.303c-1.176,0-2.018,0.995-2.018,2.563
			c0,1.331,0.673,2.438,2.004,2.438c0.756,0,1.442-0.477,1.709-1.261c0.07-0.21,0.098-0.448,0.098-0.659V809.629z"/>
		<path d="M763.431,810.568c0.028,1.667,1.094,2.353,2.326,2.353c0.882,0,1.414-0.154,1.877-0.35l0.209,0.882
			c-0.434,0.196-1.176,0.42-2.254,0.42c-2.088,0-3.334-1.373-3.334-3.418c0-2.045,1.204-3.656,3.18-3.656
			c2.213,0,2.801,1.947,2.801,3.193c0,0.252-0.027,0.448-0.041,0.575H763.431z M767.045,809.685
			c0.015-0.784-0.322-2.003-1.709-2.003c-1.247,0-1.793,1.148-1.891,2.003H767.045z"/>
		<path d="M769.464,808.074c0-0.518,0.351-0.882,0.841-0.882s0.812,0.364,0.827,0.882c0,0.49-0.322,0.869-0.842,0.869
			C769.8,808.943,769.464,808.564,769.464,808.074z M769.464,813.019c0-0.518,0.351-0.882,0.841-0.882s0.812,0.364,0.827,0.882
			c0,0.49-0.322,0.869-0.842,0.869C769.8,813.888,769.464,813.509,769.464,813.019z"/>
		<path d="M772.488,812.473c0.364,0.238,1.009,0.49,1.625,0.49c0.896,0,1.316-0.448,1.316-1.008c0-0.588-0.351-0.911-1.261-1.247
			c-1.219-0.435-1.793-1.107-1.793-1.919c0-1.092,0.883-1.989,2.34-1.989c0.686,0,1.289,0.196,1.666,0.42l-0.308,0.896
			c-0.267-0.168-0.757-0.392-1.387-0.392c-0.729,0-1.135,0.42-1.135,0.924c0,0.561,0.406,0.812,1.288,1.149
			c1.178,0.448,1.779,1.037,1.779,2.045c0,1.191-0.924,2.031-2.535,2.031c-0.742,0-1.429-0.182-1.904-0.462L772.488,812.473z"/>
		<path d="M778.886,810.568c0.029,1.667,1.094,2.353,2.326,2.353c0.883,0,1.414-0.154,1.877-0.35l0.211,0.882
			c-0.436,0.196-1.178,0.42-2.256,0.42c-2.088,0-3.334-1.373-3.334-3.418c0-2.045,1.205-3.656,3.18-3.656
			c2.213,0,2.801,1.947,2.801,3.193c0,0.252-0.027,0.448-0.041,0.575H778.886z M782.501,809.685
			c0.014-0.784-0.322-2.003-1.709-2.003c-1.246,0-1.793,1.148-1.891,2.003H782.501z"/>
		<path d="M786.7,805.007v1.947h1.764v0.938H786.7v3.656c0,0.84,0.236,1.316,0.924,1.316c0.322,0,0.561-0.042,0.715-0.084
			l0.055,0.925c-0.238,0.098-0.615,0.168-1.092,0.168c-0.574,0-1.037-0.182-1.33-0.519c-0.352-0.364-0.477-0.966-0.477-1.765v-3.698
			h-1.051v-0.938h1.051v-1.625L786.7,805.007z"/>
		<path d="M789.513,813.005c0-0.518,0.35-0.882,0.84-0.882s0.826,0.364,0.826,0.882c0,0.504-0.322,0.883-0.84,0.883
			C789.849,813.888,789.513,813.509,789.513,813.005z"/>
		<path d="M792.409,813.005c0-0.518,0.35-0.882,0.84-0.882c0.492,0,0.828,0.364,0.828,0.882c0,0.504-0.322,0.883-0.842,0.883
			C792.745,813.888,792.409,813.509,792.409,813.005z"/>
	</g>
	
		<line fill="none" stroke="#000000" stroke-width="0.5" stroke-miterlimit="10" x1="756.576" y1="824.23" x2="756.576" y2="846.071"/>
	
		<line fill="none" stroke="#000000" stroke-width="0.5" stroke-miterlimit="10" x1="755.945" y1="772.796" x2="755.945" y2="794.638"/>
	
		<line fill="none" stroke="#000000" stroke-width="0.5" stroke-miterlimit="10" x1="756.576" y1="722.626" x2="756.576" y2="744.468"/>
	
		<rect x="533.67" y="66.159" fill="none" stroke="#000000" stroke-width="0.5722" stroke-miterlimit="10" width="482.028" height="589.293"/>
	<g id="hello_2_">
		
			<rect x="58.601" y="79.719" fill="#FFFFFF" stroke="#010101" stroke-width="1.4582" stroke-miterlimit="10" width="118.882" height="28.245"/>
		<g>
			<path fill="#010101" d="M80.501,90.928h4.262v0.857h-3.241v2.629h2.993v0.846h-2.993v3.581h-1.021V90.928z"/>
			<path fill="#010101" d="M90.531,97.292c0,0.587,0.012,1.104,0.046,1.55h-0.916l-0.059-0.927h-0.023
				c-0.271,0.458-0.869,1.056-1.879,1.056c-0.893,0-1.96-0.494-1.96-2.488v-3.323h1.034v3.146c0,1.081,0.328,1.809,1.268,1.809
				c0.692,0,1.174-0.482,1.362-0.94c0.058-0.152,0.093-0.34,0.093-0.528v-3.487h1.034L90.531,97.292L90.531,97.292z"/>
			<path fill="#010101" d="M92.248,94.697c0-0.587-0.012-1.068-0.047-1.538h0.917l0.059,0.939h0.023
				c0.282-0.54,0.939-1.068,1.878-1.068c0.786,0,2.008,0.47,2.008,2.419v3.393h-1.034v-3.276c0-0.916-0.341-1.678-1.315-1.678
				c-0.68,0-1.208,0.482-1.385,1.057c-0.047,0.129-0.071,0.305-0.071,0.481v3.417h-1.033V94.697z"/>
			<path fill="#010101" d="M102.817,98.63c-0.271,0.141-0.869,0.329-1.631,0.329c-1.715,0-2.83-1.163-2.83-2.9
				c0-1.75,1.198-3.018,3.052-3.018c0.611,0,1.15,0.153,1.432,0.294l-0.234,0.798c-0.248-0.141-0.635-0.27-1.198-0.27
				c-1.303,0-2.007,0.963-2.007,2.148c0,1.315,0.846,2.125,1.973,2.125c0.587,0,0.974-0.152,1.268-0.282L102.817,98.63z"/>
			<path fill="#010101" d="M105.425,91.527v1.632h1.479v0.787h-1.479v3.064c0,0.705,0.2,1.104,0.775,1.104
				c0.27,0,0.47-0.035,0.599-0.071l0.047,0.775c-0.2,0.082-0.516,0.141-0.915,0.141c-0.482,0-0.869-0.153-1.115-0.435
				c-0.294-0.305-0.4-0.81-0.4-1.479v-3.099h-0.88v-0.787h0.88v-1.362L105.425,91.527z"/>
			<path fill="#010101" d="M109.218,91.562c0.012,0.353-0.246,0.635-0.657,0.635c-0.364,0-0.623-0.282-0.623-0.635
				c0-0.364,0.27-0.646,0.646-0.646C108.972,90.917,109.218,91.199,109.218,91.562z M108.068,98.841v-5.683h1.034v5.683H108.068z"/>
			<path fill="#010101" d="M115.959,95.954c0,2.101-1.457,3.017-2.83,3.017c-1.537,0-2.723-1.127-2.723-2.923
				c0-1.902,1.244-3.017,2.817-3.017C114.856,93.03,115.959,94.215,115.959,95.954z M111.451,96.012
				c0,1.244,0.716,2.184,1.726,2.184c0.985,0,1.725-0.927,1.725-2.207c0-0.962-0.481-2.183-1.703-2.183
				C111.979,93.806,111.451,94.932,111.451,96.012z"/>
			<path fill="#010101" d="M117.265,94.697c0-0.587-0.013-1.068-0.047-1.538h0.917l0.058,0.939h0.023
				c0.282-0.54,0.939-1.068,1.878-1.068c0.787,0,2.008,0.47,2.008,2.419v3.393h-1.033v-3.276c0-0.916-0.341-1.678-1.316-1.678
				c-0.68,0-1.208,0.482-1.385,1.057c-0.046,0.129-0.07,0.305-0.07,0.481v3.417h-1.033V94.697L117.265,94.697z"/>
			<path fill="#010101" d="M125.111,98.841l-2.008-7.913h1.081l0.939,4.003c0.235,0.987,0.446,1.973,0.587,2.735h0.024
				c0.129-0.786,0.375-1.726,0.646-2.747l1.057-3.992h1.068l0.963,4.016c0.223,0.939,0.435,1.879,0.552,2.712h0.023
				c0.165-0.869,0.387-1.75,0.634-2.735l1.045-3.992h1.044l-2.241,7.914h-1.069l-0.998-4.121c-0.247-1.009-0.411-1.785-0.517-2.583
				h-0.023c-0.142,0.787-0.318,1.562-0.611,2.583l-1.128,4.121L125.111,98.841L125.111,98.841z"/>
			<path fill="#010101" d="M138.476,95.954c0,2.101-1.457,3.017-2.83,3.017c-1.538,0-2.723-1.127-2.723-2.923
				c0-1.902,1.244-3.017,2.818-3.017C137.372,93.03,138.476,94.215,138.476,95.954z M133.967,96.012
				c0,1.244,0.715,2.184,1.726,2.184c0.986,0,1.726-0.927,1.726-2.207c0-0.962-0.481-2.183-1.703-2.183
				C134.496,93.806,133.967,94.932,133.967,96.012z"/>
			<path fill="#010101" d="M139.782,94.932c0-0.668-0.013-1.244-0.047-1.773h0.904l0.035,1.116h0.047
				c0.259-0.763,0.88-1.245,1.573-1.245c0.117,0,0.2,0.012,0.294,0.035v0.975c-0.106-0.024-0.212-0.035-0.352-0.035
				c-0.728,0-1.244,0.552-1.385,1.326c-0.023,0.141-0.047,0.306-0.047,0.482v3.029h-1.021V94.932L139.782,94.932z"/>
			<path fill="#010101" d="M144.69,95.766h0.023c0.142-0.2,0.341-0.447,0.505-0.646l1.667-1.96h1.245l-2.196,2.336l2.5,3.346h-1.256
				l-1.961-2.723l-0.527,0.587v2.137h-1.022v-8.336h1.022V95.766L144.69,95.766z"/>
			<path fill="#010101" d="M149.753,96.188c0.023,1.397,0.916,1.973,1.948,1.973c0.74,0,1.186-0.129,1.573-0.293l0.176,0.74
				c-0.364,0.165-0.986,0.353-1.89,0.353c-1.749,0-2.794-1.15-2.794-2.865c0-1.714,1.01-3.064,2.665-3.064
				c1.855,0,2.348,1.632,2.348,2.677c0,0.212-0.023,0.375-0.035,0.481H149.753z M152.782,95.449c0.012-0.658-0.27-1.679-1.432-1.679
				c-1.045,0-1.503,0.963-1.584,1.679H152.782z"/>
			<path fill="#010101" d="M155.062,94.932c0-0.668-0.012-1.244-0.047-1.773h0.905l0.035,1.116h0.047
				c0.258-0.763,0.88-1.245,1.572-1.245c0.117,0,0.2,0.012,0.294,0.035v0.975c-0.106-0.024-0.212-0.035-0.353-0.035
				c-0.728,0-1.244,0.552-1.385,1.326c-0.023,0.141-0.047,0.306-0.047,0.482v3.029h-1.021L155.062,94.932L155.062,94.932z"/>
		</g>
		
			<rect x="59.424" y="138.845" fill="#FFFFFF" stroke="#010101" stroke-width="0.7398" stroke-miterlimit="10" width="118.047" height="29.73"/>
		<g>
			<path fill="#010101" d="M87.405,155.966c0.306,0.199,0.846,0.411,1.362,0.411c0.752,0,1.103-0.375,1.103-0.846
				c0-0.492-0.293-0.763-1.056-1.044c-1.021-0.364-1.502-0.928-1.502-1.608c0-0.916,0.739-1.667,1.96-1.667
				c0.575,0,1.08,0.165,1.398,0.353l-0.259,0.752c-0.223-0.141-0.634-0.329-1.162-0.329c-0.61,0-0.951,0.352-0.951,0.775
				c0,0.47,0.34,0.681,1.08,0.963c0.986,0.376,1.491,0.868,1.491,1.714c0,0.998-0.775,1.703-2.125,1.703
				c-0.623,0-1.198-0.153-1.597-0.388L87.405,155.966z"/>
			<path fill="#010101" d="M92.573,151.34l1.244,3.357c0.13,0.376,0.271,0.822,0.364,1.163h0.023
				c0.106-0.341,0.223-0.775,0.364-1.186l1.127-3.333h1.092l-1.551,4.05c-0.74,1.949-1.244,2.947-1.948,3.557
				c-0.505,0.447-1.01,0.622-1.268,0.669l-0.259-0.869c0.259-0.082,0.599-0.247,0.903-0.505c0.283-0.223,0.635-0.622,0.87-1.15
				c0.047-0.105,0.083-0.188,0.083-0.246c0-0.059-0.025-0.141-0.072-0.27l-2.101-5.236L92.573,151.34L92.573,151.34z"/>
			<path fill="#010101" d="M97.518,155.966c0.306,0.199,0.845,0.411,1.361,0.411c0.752,0,1.104-0.375,1.104-0.846
				c0-0.492-0.293-0.763-1.057-1.044c-1.021-0.364-1.502-0.928-1.502-1.608c0-0.916,0.739-1.667,1.96-1.667
				c0.575,0,1.081,0.165,1.397,0.353l-0.259,0.752c-0.223-0.141-0.634-0.329-1.163-0.329c-0.609,0-0.95,0.352-0.95,0.775
				c0,0.47,0.341,0.681,1.081,0.963c0.986,0.376,1.491,0.868,1.491,1.714c0,0.998-0.776,1.703-2.125,1.703
				c-0.623,0-1.198-0.153-1.597-0.388L97.518,155.966z"/>
			<path fill="#010101" d="M103.555,149.708v1.632h1.479v0.787h-1.479v3.064c0,0.704,0.2,1.103,0.774,1.103
				c0.27,0,0.47-0.036,0.599-0.07l0.047,0.774c-0.2,0.082-0.517,0.141-0.916,0.141c-0.481,0-0.869-0.153-1.115-0.435
				c-0.293-0.304-0.399-0.81-0.399-1.479v-3.099h-0.881v-0.786h0.881v-1.362L103.555,149.708z"/>
			<path fill="#010101" d="M106.702,154.37c0.024,1.397,0.917,1.972,1.949,1.972c0.74,0,1.186-0.128,1.574-0.293l0.176,0.739
				c-0.364,0.165-0.987,0.353-1.89,0.353c-1.749,0-2.794-1.15-2.794-2.865s1.009-3.064,2.665-3.064c1.854,0,2.348,1.632,2.348,2.677
				c0,0.211-0.023,0.376-0.035,0.481H106.702z M109.731,153.63c0.013-0.658-0.27-1.679-1.432-1.679
				c-1.044,0-1.502,0.963-1.584,1.679H109.731z"/>
			<path fill="#010101" d="M112.011,152.878c0-0.587-0.012-1.068-0.047-1.538h0.904l0.047,0.917h0.035
				c0.317-0.541,0.846-1.045,1.785-1.045c0.775,0,1.362,0.47,1.608,1.139h0.023c0.176-0.317,0.4-0.563,0.634-0.74
				c0.341-0.258,0.717-0.399,1.256-0.399c0.751,0,1.867,0.494,1.867,2.466v3.346h-1.009v-3.217c0-1.092-0.4-1.75-1.233-1.75
				c-0.587,0-1.044,0.435-1.221,0.939c-0.047,0.141-0.083,0.329-0.083,0.517v3.511h-1.009v-3.406c0-0.903-0.399-1.561-1.185-1.561
				c-0.646,0-1.115,0.517-1.28,1.034c-0.059,0.153-0.082,0.329-0.082,0.504v3.429h-1.009v-4.145H112.011z"/>
			<path fill="#010101" d="M121.562,152.28c0-0.435,0.293-0.739,0.704-0.739c0.411,0,0.681,0.305,0.693,0.739
				c0,0.411-0.27,0.729-0.705,0.729C121.843,153.007,121.562,152.69,121.562,152.28z M121.562,156.423
				c0-0.435,0.293-0.74,0.704-0.74c0.411,0,0.681,0.306,0.693,0.74c0,0.411-0.27,0.728-0.705,0.728
				C121.843,157.151,121.562,156.835,121.562,156.423z"/>
			<path fill="#010101" d="M124.239,153.195c0-0.729-0.023-1.315-0.047-1.855h0.928l0.046,0.974h0.023
				c0.422-0.692,1.092-1.103,2.02-1.103c1.374,0,2.407,1.162,2.407,2.888c0,2.043-1.244,3.052-2.583,3.052
				c-0.751,0-1.409-0.328-1.75-0.893h-0.023v3.088h-1.021L124.239,153.195L124.239,153.195z M125.26,154.71
				c0,0.153,0.024,0.293,0.047,0.423c0.188,0.715,0.81,1.208,1.55,1.208c1.092,0,1.726-0.891,1.726-2.194
				c0-1.139-0.599-2.113-1.691-2.113c-0.705,0-1.361,0.505-1.562,1.28c-0.035,0.129-0.07,0.282-0.07,0.423V154.71z"/>
			<path fill="#010101" d="M130.921,153.114c0-0.669-0.011-1.245-0.047-1.773h0.904l0.035,1.116h0.046
				c0.259-0.763,0.881-1.245,1.574-1.245c0.117,0,0.2,0.012,0.293,0.035v0.974c-0.106-0.024-0.211-0.035-0.353-0.035
				c-0.728,0-1.244,0.552-1.385,1.327c-0.024,0.141-0.047,0.306-0.047,0.481v3.029h-1.021L130.921,153.114L130.921,153.114z"/>
			<path fill="#010101" d="M135.96,149.743c0.012,0.353-0.248,0.635-0.658,0.635c-0.364,0-0.623-0.282-0.623-0.635
				c0-0.363,0.271-0.645,0.646-0.645C135.713,149.098,135.96,149.38,135.96,149.743z M134.81,157.023v-5.683h1.033v5.683H134.81z"/>
			<path fill="#010101" d="M137.558,152.878c0-0.587-0.012-1.068-0.047-1.538h0.916l0.059,0.939h0.024
				c0.281-0.541,0.939-1.068,1.878-1.068c0.787,0,2.007,0.47,2.007,2.418v3.394h-1.033v-3.276c0-0.916-0.34-1.678-1.315-1.678
				c-0.681,0-1.209,0.481-1.386,1.057c-0.046,0.129-0.07,0.304-0.07,0.482v3.416h-1.033V152.878L137.558,152.878z"/>
			<path fill="#010101" d="M143.83,156.412c0-0.434,0.294-0.739,0.705-0.739s0.693,0.305,0.693,0.739c0,0.424-0.27,0.74-0.705,0.74
				C144.112,157.151,143.83,156.835,143.83,156.412z"/>
			<path fill="#010101" d="M146.261,156.412c0-0.434,0.294-0.739,0.705-0.739s0.692,0.305,0.692,0.739c0,0.424-0.27,0.74-0.705,0.74
				C146.543,157.151,146.261,156.835,146.261,156.412z"/>
			<path fill="#010101" d="M148.692,156.412c0-0.434,0.293-0.739,0.705-0.739c0.411,0,0.692,0.305,0.692,0.739
				c0,0.424-0.27,0.74-0.705,0.74C148.974,157.151,148.692,156.835,148.692,156.412z"/>
		</g>
		
			<rect x="59.547" y="213.272" fill="#FFFFFF" stroke="#010101" stroke-width="0.7243" stroke-miterlimit="10" width="119.223" height="28.363"/>
		<g>
			<path fill="#010101" d="M80.406,224.357h4.262v0.857h-3.24v2.63h2.993v0.846h-2.993v3.581h-1.021V224.357z"/>
			<path fill="#010101" d="M90.435,230.72c0,0.587,0.012,1.104,0.047,1.551h-0.916l-0.059-0.928h-0.024
				c-0.27,0.458-0.869,1.056-1.878,1.056c-0.893,0-1.96-0.493-1.96-2.488v-3.323h1.033v3.147c0,1.081,0.328,1.809,1.268,1.809
				c0.692,0,1.174-0.482,1.361-0.94c0.06-0.153,0.095-0.341,0.095-0.529v-3.487h1.033L90.435,230.72L90.435,230.72z"/>
			<path fill="#010101" d="M92.152,228.126c0-0.588-0.011-1.068-0.046-1.539h0.916l0.059,0.94h0.022
				c0.282-0.541,0.94-1.068,1.879-1.068c0.787,0,2.008,0.469,2.008,2.418v3.393h-1.033v-3.276c0-0.916-0.341-1.678-1.315-1.678
				c-0.681,0-1.209,0.481-1.386,1.056c-0.046,0.13-0.07,0.305-0.07,0.482v3.416h-1.034V228.126L92.152,228.126z"/>
			<path fill="#010101" d="M102.721,232.058c-0.269,0.142-0.868,0.329-1.631,0.329c-1.714,0-2.829-1.162-2.829-2.9
				c0-1.75,1.197-3.017,3.052-3.017c0.61,0,1.15,0.152,1.432,0.293l-0.235,0.799c-0.246-0.141-0.634-0.27-1.197-0.27
				c-1.304,0-2.007,0.964-2.007,2.149c0,1.315,0.845,2.125,1.973,2.125c0.586,0,0.975-0.153,1.268-0.282L102.721,232.058z"/>
			<path fill="#010101" d="M105.331,224.956v1.631h1.479v0.787h-1.479v3.064c0,0.705,0.199,1.104,0.774,1.104
				c0.27,0,0.469-0.036,0.599-0.071l0.046,0.774c-0.199,0.082-0.517,0.141-0.916,0.141c-0.481,0-0.869-0.153-1.115-0.435
				c-0.293-0.305-0.399-0.81-0.399-1.479v-3.099h-0.881v-0.787h0.881v-1.363L105.331,224.956z"/>
			<path fill="#010101" d="M109.124,224.991c0.013,0.352-0.246,0.633-0.657,0.633c-0.364,0-0.623-0.281-0.623-0.633
				c0-0.364,0.27-0.646,0.646-0.646C108.876,224.345,109.124,224.627,109.124,224.991z M107.973,232.269v-5.682h1.033v5.682H107.973
				z"/>
			<path fill="#010101" d="M115.864,229.381c0,2.101-1.456,3.017-2.83,3.017c-1.538,0-2.724-1.127-2.724-2.922
				c0-1.902,1.245-3.017,2.817-3.017C114.76,226.458,115.864,227.644,115.864,229.381z M111.356,229.439
				c0,1.245,0.715,2.185,1.726,2.185c0.986,0,1.726-0.928,1.726-2.208c0-0.963-0.482-2.183-1.702-2.183
				C111.884,227.233,111.356,228.361,111.356,229.439z"/>
			<path fill="#010101" d="M117.17,228.126c0-0.588-0.012-1.068-0.047-1.539h0.917l0.059,0.94h0.023
				c0.282-0.541,0.939-1.068,1.878-1.068c0.787,0,2.008,0.469,2.008,2.418v3.393h-1.033v-3.276c0-0.916-0.341-1.678-1.316-1.678
				c-0.68,0-1.208,0.481-1.385,1.056c-0.046,0.13-0.071,0.305-0.071,0.482v3.416h-1.032V228.126L117.17,228.126z"/>
			<path fill="#010101" d="M125.016,232.269l-2.007-7.913h1.08l0.94,4.003c0.234,0.987,0.445,1.973,0.587,2.736h0.023
				c0.129-0.786,0.376-1.726,0.646-2.748l1.057-3.991h1.069l0.961,4.015c0.224,0.94,0.435,1.879,0.552,2.712h0.023
				c0.165-0.869,0.388-1.75,0.634-2.734l1.045-3.992h1.045l-2.243,7.914h-1.068l-0.997-4.121c-0.247-1.009-0.412-1.785-0.517-2.583
				h-0.024c-0.141,0.787-0.317,1.562-0.61,2.583l-1.127,4.121h-1.068V232.269z"/>
			<path fill="#010101" d="M138.38,229.381c0,2.101-1.455,3.017-2.829,3.017c-1.539,0-2.724-1.127-2.724-2.922
				c0-1.902,1.245-3.017,2.817-3.017C137.275,226.458,138.38,227.644,138.38,229.381z M133.872,229.439
				c0,1.245,0.716,2.185,1.725,2.185c0.987,0,1.726-0.928,1.726-2.208c0-0.963-0.481-2.183-1.702-2.183
				S133.872,228.361,133.872,229.439z"/>
			<path fill="#010101" d="M139.686,228.361c0-0.668-0.012-1.245-0.047-1.774h0.904l0.035,1.116h0.046
				c0.259-0.763,0.881-1.244,1.574-1.244c0.117,0,0.2,0.012,0.293,0.035v0.975c-0.106-0.023-0.211-0.035-0.351-0.035
				c-0.729,0-1.245,0.552-1.386,1.327c-0.022,0.14-0.047,0.306-0.047,0.481v3.03h-1.021v-3.91H139.686z"/>
			<path fill="#010101" d="M144.596,229.193h0.022c0.141-0.199,0.341-0.445,0.504-0.645l1.667-1.961h1.244l-2.195,2.337l2.5,3.346
				h-1.257l-1.96-2.724l-0.528,0.587v2.136h-1.021v-8.335h1.021v5.258H144.596z"/>
			<path fill="#010101" d="M149.657,229.616c0.024,1.398,0.917,1.973,1.949,1.973c0.74,0,1.185-0.129,1.573-0.294l0.176,0.74
				c-0.364,0.165-0.987,0.352-1.89,0.352c-1.75,0-2.794-1.15-2.794-2.864c0-1.714,1.009-3.065,2.665-3.065
				c1.854,0,2.347,1.632,2.347,2.676c0,0.213-0.023,0.376-0.035,0.482H149.657z M152.687,228.877
				c0.011-0.658-0.271-1.679-1.433-1.679c-1.044,0-1.502,0.962-1.584,1.679H152.687z"/>
			<path fill="#010101" d="M154.966,228.361c0-0.668-0.012-1.245-0.046-1.774h0.904l0.035,1.116h0.047
				c0.259-0.763,0.881-1.244,1.573-1.244c0.117,0,0.2,0.012,0.293,0.035v0.975c-0.105-0.023-0.211-0.035-0.352-0.035
				c-0.729,0-1.245,0.552-1.386,1.327c-0.022,0.14-0.046,0.306-0.046,0.481v3.03h-1.021L154.966,228.361L154.966,228.361z"/>
		</g>
		
			<line fill="none" stroke="#010101" stroke-width="1.4911" stroke-miterlimit="10" x1="118.04" y1="107.963" x2="118.04" y2="138.845"/>
		
			<line fill="none" stroke="#010101" stroke-width="1.4911" stroke-miterlimit="10" x1="118.492" y1="168.575" x2="118.492" y2="213.272"/>
	</g>
</g>
<g id="hello_1_" display="none">
	
		<rect x="138.565" y="-816.585" display="inline" fill="none" stroke="#000000" stroke-width="0.5" stroke-miterlimit="10" width="419.437" height="291.427"/>
	
		<rect x="138.569" y="-837.577" display="inline" fill="#FFFFFF" stroke="#000000" stroke-width="0.5" stroke-miterlimit="10" width="419.389" height="20.988"/>
	<g display="inline">
		<path fill="#939598" d="M508.497-824.697l-0.015-2.915h0.721v3.65h-7.536v-7.536c0.628,0,1.879,0,3.754,0v0.721
			c-0.167,0-0.386,0-0.655,0c-0.271,0-0.68-0.002-1.229-0.007s-0.937-0.007-1.163-0.007l0.016,6.094H508.497z M508.056-830.188
			l-0.942-0.869l0.412-0.441l1.678,1.56l-1.428,1.575l-0.427-0.412l0.677-0.81c-1.854,0.187-3.174,0.893-3.959,2.12
			c-0.196,0.294-0.352,0.611-0.464,0.949c-0.113,0.338-0.174,0.601-0.184,0.788l-0.029,0.28h-0.589c0-0.059,0.005-0.14,0.015-0.243
			s0.051-0.307,0.125-0.611c0.073-0.304,0.174-0.596,0.302-0.875c0.127-0.28,0.323-0.594,0.589-0.942
			c0.265-0.348,0.574-0.657,0.927-0.927c0.354-0.27,0.817-0.513,1.392-0.729S507.358-830.129,508.056-830.188z"/>
	</g>
	<g display="inline">
		<g>
			<path fill="#939598" d="M522.496-824.697l-0.015-2.915l0.721-0.015v3.665h-7.536v-7.536c0.628,0,1.879,0,3.754,0v0.707
				c-0.167,0-0.386,0-0.655,0c-0.271,0-0.68,0-1.229,0s-0.937,0-1.163,0l0.016,6.094H522.496z M523.202-831.498v0.589
				c-0.078,0-0.182,0.007-0.309,0.022c-0.128,0.015-0.371,0.079-0.729,0.191c-0.358,0.113-0.689,0.268-0.994,0.463
				c-1.227,0.785-1.928,2.105-2.104,3.959l0.81-0.677l0.412,0.427l-1.59,1.428l-1.546-1.678l0.427-0.413l0.884,0.942
				c0.059-0.697,0.193-1.332,0.404-1.906s0.457-1.038,0.736-1.391c0.279-0.353,0.584-0.662,0.912-0.927
				c0.329-0.265,0.65-0.461,0.965-0.589c0.313-0.127,0.599-0.228,0.854-0.302s0.461-0.115,0.618-0.125L523.202-831.498z"/>
		</g>
	</g>
	<g display="inline">
		<g>
			<path fill="#939598" d="M531.884-831.498h2.855v0.913h1.87v0.971H530v-0.971h1.884V-831.498z M530.471-828.863h5.682v4.901
				h-5.682V-828.863z M531.752-828.245v3.591h0.868v-3.591H531.752z M534.004-828.245v3.591h0.868v-3.591H534.004z"/>
		</g>
	</g>
	<g display="inline">
		<g>
			<path fill="#939598" d="M547.588-825.692l-3.754-3.65l0.56-0.574l3.194,3.106l3.238-3.062l0.544,0.604L547.588-825.692z"/>
		</g>
	</g>
	
		<line display="inline" fill="#939598" stroke="#000000" stroke-width="0.25" stroke-miterlimit="10" x1="498.001" y1="-831.666" x2="498.001" y2="-823.5"/>
	
		<line display="inline" fill="#939598" stroke="#000000" stroke-width="0.25" stroke-miterlimit="10" x1="512.334" y1="-831.249" x2="512.334" y2="-823.082"/>
	
		<line display="inline" fill="#939598" stroke="#000000" stroke-width="0.25" stroke-miterlimit="10" x1="526.501" y1="-831.666" x2="526.501" y2="-823.5"/>
	
		<line display="inline" fill="#939598" stroke="#000000" stroke-width="0.25" stroke-miterlimit="10" x1="540.167" y1="-831.666" x2="540.167" y2="-823.5"/>
	<rect x="138.565" y="-837.577" display="inline" width="18.083" height="20.899"/>
	<g display="inline">
		<path fill="#FFFFFF" d="M150.604-830.175l-0.113,0.407h-0.905l-0.679,2.716c-0.317,1.192-0.626,2.12-0.928,2.784
			c-0.438,0.92-0.905,1.554-1.403,1.9c-0.377,0.271-0.755,0.407-1.132,0.407c-0.257,0-0.468-0.075-0.634-0.226
			c-0.136-0.106-0.204-0.242-0.204-0.407c0-0.136,0.053-0.249,0.158-0.34s0.234-0.136,0.385-0.136c0.121,0,0.219,0.034,0.294,0.102
			c0.075,0.068,0.113,0.147,0.113,0.238c0,0.09-0.045,0.173-0.136,0.248c-0.061,0.061-0.091,0.105-0.091,0.137
			c0,0.029,0.015,0.06,0.045,0.09s0.083,0.046,0.158,0.046c0.181,0,0.37-0.057,0.566-0.17c0.196-0.113,0.37-0.279,0.521-0.498
			s0.294-0.539,0.43-0.962c0.06-0.181,0.219-0.754,0.475-1.72l1.086-4.21h-1.086l0.091-0.407c0.347,0,0.588-0.026,0.724-0.079
			s0.26-0.147,0.374-0.283s0.26-0.385,0.441-0.747c0.241-0.498,0.475-0.883,0.701-1.154c0.302-0.377,0.623-0.656,0.962-0.837
			c0.34-0.182,0.66-0.271,0.962-0.271c0.317,0,0.569,0.079,0.758,0.237c0.188,0.158,0.283,0.336,0.283,0.532
			c0,0.136-0.049,0.252-0.147,0.351c-0.098,0.098-0.215,0.146-0.351,0.146s-0.246-0.037-0.328-0.112
			c-0.083-0.076-0.125-0.159-0.125-0.249c0-0.076,0.03-0.162,0.09-0.261c0.06-0.098,0.091-0.162,0.091-0.192
			c0-0.06-0.023-0.105-0.068-0.136c-0.06-0.03-0.136-0.045-0.226-0.045c-0.271,0-0.506,0.083-0.702,0.249
			c-0.287,0.211-0.536,0.551-0.747,1.019c-0.121,0.241-0.333,0.853-0.634,1.833H150.604z"/>
	</g>
	<g display="inline">
		<path d="M164.067-797.156c1.037-1.037,2.287-1.555,3.752-1.555s2.716,0.518,3.753,1.555c1.037,1.037,1.555,2.288,1.555,3.752
			c0,1.465-0.519,2.716-1.555,3.753s-2.288,1.555-3.753,1.555s-2.716-0.519-3.752-1.555s-1.555-2.288-1.555-3.753
			C162.512-794.869,163.031-796.12,164.067-797.156z M166.099-791.372v-0.374h-0.145c-0.235,0-0.353-0.131-0.353-0.394
			c0-0.055,0.014-0.166,0.042-0.332c0.027-0.125,0.042-0.255,0.042-0.394c0-0.276-0.097-0.456-0.291-0.539
			c0.193-0.096,0.291-0.283,0.291-0.56c0-0.125-0.014-0.249-0.042-0.374c-0.028-0.124-0.042-0.242-0.042-0.352
			c0-0.249,0.117-0.374,0.353-0.374h0.145v-0.373h-0.166c-0.511,0-0.767,0.235-0.767,0.705c0,0.042,0.014,0.173,0.042,0.394v0.021
			c0.027,0.18,0.042,0.318,0.042,0.415c0,0.221-0.118,0.332-0.353,0.332h-0.042v0.332h0.042c0.235,0,0.353,0.111,0.353,0.332
			c0,0.083-0.014,0.215-0.042,0.394c-0.028,0.249-0.042,0.387-0.042,0.415c0,0.484,0.256,0.726,0.767,0.726H166.099z
			 M168.006-791.952l1.037-2.903h-0.477l-0.498,1.431c-0.125,0.359-0.214,0.657-0.27,0.892c-0.056-0.208-0.145-0.504-0.27-0.892
			l-0.456-1.431h-0.477l0.954,2.903H168.006z M170.785-793.238v-0.332h-0.041c-0.235,0-0.353-0.111-0.353-0.332
			c0-0.097,0.014-0.235,0.042-0.415v-0.021c0.027-0.221,0.042-0.352,0.042-0.394c0-0.47-0.263-0.705-0.788-0.705h-0.145v0.373h0.145
			c0.235,0,0.353,0.125,0.353,0.374c0,0.083-0.007,0.173-0.021,0.27l-0.021,0.083c-0.028,0.208-0.042,0.332-0.042,0.374
			c0,0.276,0.097,0.463,0.29,0.56c-0.193,0.083-0.29,0.263-0.29,0.539c0,0.083,0.014,0.214,0.042,0.394
			c0.014,0.042,0.021,0.069,0.021,0.083c0.014,0.083,0.021,0.166,0.021,0.249c0,0.263-0.118,0.394-0.353,0.394h-0.145v0.374h0.166
			c0.511,0,0.768-0.242,0.768-0.726c0-0.083-0.014-0.221-0.042-0.415c-0.028-0.179-0.042-0.311-0.042-0.394
			c0-0.221,0.117-0.332,0.353-0.332H170.785z"/>
	</g>
	<rect x="174.845" y="-797.29" display="inline" fill="#AEADAE" width="7.373" height="7.373"/>
	<g display="inline">
		<path fill="#FFFFFF" d="M180.815-793.884v0.495h-2.099v2.1h-0.495v-2.1h-2.099v-0.495h2.099v-2.1h0.495v2.1H180.815z"/>
	</g>
	<rect x="183.93" y="-798.75" display="inline" fill="#EFEFEF" width="10.667" height="10.667"/>
	<g display="inline">
		<path fill="#8D8D8D" d="M187.347-793.612l2.956-3.04l0.465,0.453l-2.527,2.587l2.492,2.623l-0.489,0.441L187.347-793.612z"/>
	</g>
</g>
<g id="hello" display="none">
	
		<rect x="-209.168" y="251.847" display="inline" fill="#FFFFFF" stroke="#000000" stroke-width="1.9558" stroke-miterlimit="10" width="159.455" height="37.884"/>
	<g display="inline">
		<path d="M-179.793,266.882h5.716v1.15h-4.346v3.527h4.015v1.134h-4.015v4.803h-1.37V266.882z"/>
		<path d="M-166.341,275.417c0,0.787,0.016,1.48,0.062,2.079h-1.228l-0.079-1.244h-0.032c-0.362,0.614-1.165,1.417-2.52,1.417
			c-1.197,0-2.629-0.662-2.629-3.338v-4.457h1.386v4.22c0,1.449,0.44,2.425,1.7,2.425c0.929,0,1.575-0.646,1.827-1.26
			c0.079-0.205,0.126-0.457,0.126-0.709v-4.677h1.386V275.417z"/>
		<path d="M-164.039,271.938c0-0.788-0.016-1.433-0.063-2.063h1.229l0.079,1.26h0.031c0.378-0.725,1.26-1.433,2.52-1.433
			c1.055,0,2.693,0.63,2.693,3.244v4.551h-1.386v-4.394c0-1.228-0.457-2.251-1.764-2.251c-0.913,0-1.622,0.646-1.858,1.417
			c-0.063,0.173-0.095,0.409-0.095,0.646v4.583h-1.386V271.938z"/>
		<path d="M-149.863,277.212c-0.362,0.189-1.165,0.441-2.188,0.441c-2.299,0-3.795-1.559-3.795-3.89
			c0-2.347,1.606-4.047,4.094-4.047c0.819,0,1.543,0.205,1.921,0.394l-0.315,1.071c-0.331-0.189-0.851-0.362-1.606-0.362
			c-1.748,0-2.692,1.292-2.692,2.882c0,1.764,1.134,2.85,2.646,2.85c0.787,0,1.307-0.205,1.701-0.378L-149.863,277.212z"/>
		<path d="M-146.363,267.686v2.189h1.984v1.055h-1.984v4.11c0,0.945,0.268,1.48,1.039,1.48c0.362,0,0.63-0.047,0.803-0.095
			l0.063,1.039c-0.268,0.11-0.693,0.189-1.228,0.189c-0.646,0-1.166-0.205-1.496-0.583c-0.394-0.409-0.536-1.086-0.536-1.984v-4.157
			h-1.181v-1.055h1.181v-1.827L-146.363,267.686z"/>
		<path d="M-141.275,267.733c0.016,0.473-0.331,0.851-0.882,0.851c-0.488,0-0.835-0.378-0.835-0.851
			c0-0.488,0.362-0.866,0.866-0.866C-141.606,266.867-141.275,267.245-141.275,267.733z M-142.818,277.496v-7.622h1.386v7.622
			H-142.818z"/>
		<path d="M-132.234,273.623c0,2.818-1.953,4.047-3.795,4.047c-2.062,0-3.653-1.512-3.653-3.921c0-2.551,1.669-4.047,3.779-4.047
			C-133.715,269.701-132.234,271.292-132.234,273.623z M-138.281,273.701c0,1.669,0.96,2.929,2.315,2.929
			c1.322,0,2.314-1.244,2.314-2.96c0-1.291-0.646-2.929-2.283-2.929S-138.281,272.252-138.281,273.701z"/>
		<path d="M-130.483,271.938c0-0.788-0.016-1.433-0.063-2.063h1.229l0.079,1.26h0.031c0.378-0.725,1.26-1.433,2.52-1.433
			c1.055,0,2.693,0.63,2.693,3.244v4.551h-1.386v-4.394c0-1.228-0.457-2.251-1.764-2.251c-0.913,0-1.622,0.646-1.858,1.417
			c-0.063,0.173-0.095,0.409-0.095,0.646v4.583h-1.386V271.938z"/>
		<path d="M-119.959,277.496l-2.693-10.614h1.449l1.26,5.37c0.315,1.323,0.598,2.646,0.787,3.669h0.032
			c0.173-1.055,0.504-2.315,0.866-3.685l1.417-5.354h1.433l1.291,5.386c0.299,1.26,0.583,2.52,0.74,3.638h0.031
			c0.221-1.166,0.52-2.347,0.851-3.669l1.401-5.354h1.401l-3.007,10.614h-1.433l-1.338-5.527c-0.331-1.354-0.551-2.394-0.693-3.464
			h-0.032c-0.189,1.055-0.425,2.095-0.819,3.464l-1.512,5.527H-119.959z"/>
		<path d="M-102.034,273.623c0,2.818-1.953,4.047-3.795,4.047c-2.063,0-3.653-1.512-3.653-3.921c0-2.551,1.669-4.047,3.779-4.047
			C-103.514,269.701-102.034,271.292-102.034,273.623z M-108.081,273.701c0,1.669,0.96,2.929,2.314,2.929
			c1.323,0,2.315-1.244,2.315-2.96c0-1.291-0.646-2.929-2.283-2.929S-108.081,272.252-108.081,273.701z"/>
		<path d="M-100.282,272.252c0-0.897-0.016-1.669-0.063-2.378h1.213l0.047,1.496h0.063c0.347-1.023,1.181-1.669,2.11-1.669
			c0.157,0,0.268,0.016,0.394,0.047v1.307c-0.142-0.032-0.284-0.047-0.472-0.047c-0.977,0-1.669,0.74-1.858,1.779
			c-0.031,0.189-0.063,0.41-0.063,0.646v4.063h-1.37V272.252z"/>
		<path d="M-93.698,273.371h0.031c0.189-0.268,0.457-0.599,0.677-0.866l2.236-2.63h1.669l-2.945,3.134l3.354,4.488h-1.685
			l-2.63-3.653l-0.708,0.788v2.866h-1.37v-11.18h1.37V273.371z"/>
		<path d="M-86.908,273.937c0.032,1.874,1.229,2.646,2.614,2.646c0.992,0,1.59-0.173,2.11-0.394l0.236,0.992
			c-0.488,0.221-1.323,0.473-2.535,0.473c-2.346,0-3.748-1.543-3.748-3.843c0-2.299,1.354-4.11,3.574-4.11
			c2.488,0,3.149,2.189,3.149,3.59c0,0.284-0.031,0.504-0.047,0.646H-86.908z M-82.845,272.945c0.016-0.882-0.362-2.252-1.921-2.252
			c-1.401,0-2.016,1.292-2.125,2.252H-82.845z"/>
		<path d="M-79.786,272.252c0-0.897-0.016-1.669-0.063-2.378h1.213l0.047,1.496h0.063c0.347-1.023,1.181-1.669,2.11-1.669
			c0.157,0,0.268,0.016,0.394,0.047v1.307c-0.142-0.032-0.284-0.047-0.472-0.047c-0.977,0-1.669,0.74-1.858,1.779
			c-0.031,0.189-0.063,0.41-0.063,0.646v4.063h-1.37V272.252z"/>
	</g>
	
		<rect x="-208.064" y="331.152" display="inline" fill="#FFFFFF" stroke="#000000" stroke-width="0.9923" stroke-miterlimit="10" width="158.336" height="39.876"/>
	<g display="inline">
		<path d="M-170.534,354.116c0.41,0.268,1.134,0.551,1.827,0.551c1.008,0,1.48-0.504,1.48-1.134c0-0.661-0.394-1.023-1.417-1.401
			c-1.37-0.488-2.016-1.244-2.016-2.157c0-1.229,0.992-2.236,2.63-2.236c0.771,0,1.449,0.221,1.874,0.473l-0.347,1.008
			c-0.299-0.189-0.85-0.441-1.559-0.441c-0.818,0-1.275,0.472-1.275,1.039c0,0.63,0.457,0.914,1.449,1.292
			c1.323,0.504,2,1.165,2,2.299c0,1.338-1.04,2.284-2.85,2.284c-0.835,0-1.606-0.205-2.142-0.52L-170.534,354.116z"/>
		<path d="M-163.602,347.912l1.669,4.504c0.173,0.504,0.362,1.102,0.488,1.559h0.031c0.142-0.457,0.299-1.039,0.488-1.59
			l1.512-4.472h1.464l-2.079,5.433c-0.992,2.614-1.669,3.953-2.614,4.771c-0.677,0.599-1.354,0.834-1.7,0.897l-0.347-1.165
			c0.347-0.11,0.803-0.331,1.212-0.677c0.378-0.299,0.851-0.834,1.166-1.543c0.063-0.142,0.11-0.252,0.11-0.331
			s-0.032-0.189-0.095-0.362l-2.819-7.023H-163.602z"/>
		<path d="M-156.969,354.116c0.41,0.268,1.134,0.551,1.827,0.551c1.008,0,1.48-0.504,1.48-1.134c0-0.661-0.394-1.023-1.417-1.401
			c-1.37-0.488-2.016-1.244-2.016-2.157c0-1.229,0.992-2.236,2.63-2.236c0.771,0,1.449,0.221,1.874,0.473l-0.347,1.008
			c-0.299-0.189-0.85-0.441-1.559-0.441c-0.818,0-1.275,0.472-1.275,1.039c0,0.63,0.457,0.914,1.449,1.292
			c1.323,0.504,2,1.165,2,2.299c0,1.338-1.04,2.284-2.85,2.284c-0.835,0-1.606-0.205-2.142-0.52L-156.969,354.116z"/>
		<path d="M-148.873,345.723v2.189h1.984v1.055h-1.984v4.11c0,0.945,0.268,1.48,1.039,1.48c0.362,0,0.63-0.047,0.803-0.095
			l0.063,1.039c-0.268,0.11-0.693,0.189-1.228,0.189c-0.646,0-1.166-0.205-1.496-0.583c-0.394-0.409-0.536-1.086-0.536-1.984v-4.157
			h-1.181v-1.055h1.181v-1.827L-148.873,345.723z"/>
		<path d="M-144.65,351.975c0.032,1.874,1.229,2.646,2.614,2.646c0.992,0,1.59-0.173,2.11-0.394l0.236,0.992
			c-0.488,0.221-1.323,0.473-2.535,0.473c-2.346,0-3.748-1.543-3.748-3.843c0-2.299,1.354-4.11,3.574-4.11
			c2.488,0,3.149,2.189,3.149,3.59c0,0.284-0.031,0.504-0.047,0.646H-144.65z M-140.587,350.983
			c0.016-0.882-0.362-2.252-1.921-2.252c-1.401,0-2.016,1.292-2.125,2.252H-140.587z"/>
		<path d="M-137.529,349.975c0-0.788-0.016-1.433-0.063-2.063h1.212l0.063,1.229h0.047c0.425-0.725,1.134-1.402,2.394-1.402
			c1.04,0,1.827,0.63,2.157,1.528h0.032c0.236-0.425,0.536-0.756,0.85-0.992c0.457-0.347,0.961-0.536,1.685-0.536
			c1.008,0,2.504,0.662,2.504,3.307v4.488h-1.354v-4.315c0-1.464-0.536-2.346-1.654-2.346c-0.787,0-1.401,0.583-1.638,1.26
			c-0.063,0.189-0.11,0.441-0.11,0.693v4.708h-1.354v-4.567c0-1.212-0.535-2.094-1.59-2.094c-0.866,0-1.496,0.693-1.716,1.386
			c-0.079,0.205-0.11,0.441-0.11,0.677v4.598h-1.354V349.975z"/>
		<path d="M-124.721,349.172c0-0.583,0.394-0.992,0.945-0.992s0.914,0.41,0.929,0.992c0,0.551-0.362,0.977-0.945,0.977
			C-124.343,350.148-124.721,349.723-124.721,349.172z M-124.721,354.73c0-0.583,0.394-0.992,0.945-0.992s0.914,0.41,0.929,0.992
			c0,0.551-0.362,0.977-0.945,0.977C-124.343,355.707-124.721,355.282-124.721,354.73z"/>
		<path d="M-121.129,350.4c0-0.977-0.031-1.764-0.063-2.488h1.244l0.063,1.307h0.032c0.566-0.929,1.464-1.48,2.708-1.48
			c1.843,0,3.229,1.559,3.229,3.874c0,2.74-1.669,4.094-3.464,4.094c-1.008,0-1.89-0.441-2.346-1.197h-0.032v4.141h-1.37V350.4z
			 M-119.759,352.432c0,0.205,0.032,0.394,0.063,0.567c0.252,0.96,1.086,1.622,2.079,1.622c1.464,0,2.315-1.196,2.315-2.944
			c0-1.527-0.803-2.834-2.268-2.834c-0.945,0-1.827,0.677-2.095,1.716c-0.047,0.173-0.094,0.378-0.094,0.567V352.432z"/>
		<path d="M-112.165,350.29c0-0.897-0.016-1.669-0.063-2.378h1.212l0.047,1.496h0.063c0.347-1.023,1.181-1.669,2.11-1.669
			c0.157,0,0.268,0.016,0.394,0.047v1.307c-0.142-0.032-0.283-0.047-0.473-0.047c-0.976,0-1.669,0.74-1.858,1.779
			c-0.032,0.189-0.063,0.41-0.063,0.646v4.063h-1.37V350.29z"/>
		<path d="M-105.407,345.771c0.016,0.473-0.331,0.851-0.882,0.851c-0.488,0-0.835-0.378-0.835-0.851
			c0-0.488,0.362-0.866,0.866-0.866C-105.738,344.904-105.407,345.282-105.407,345.771z M-106.951,355.534v-7.622h1.386v7.622
			H-106.951z"/>
		<path d="M-103.264,349.975c0-0.788-0.016-1.433-0.063-2.063h1.229l0.079,1.26h0.032c0.378-0.725,1.26-1.433,2.52-1.433
			c1.055,0,2.692,0.63,2.692,3.244v4.551h-1.386v-4.394c0-1.228-0.457-2.251-1.764-2.251c-0.913,0-1.622,0.646-1.858,1.417
			c-0.063,0.173-0.095,0.409-0.095,0.646v4.583h-1.386V349.975z"/>
		<path d="M-94.852,354.715c0-0.583,0.394-0.992,0.945-0.992s0.929,0.41,0.929,0.992c0,0.567-0.362,0.992-0.945,0.992
			C-94.474,355.707-94.852,355.282-94.852,354.715z"/>
		<path d="M-91.59,354.715c0-0.583,0.394-0.992,0.945-0.992s0.929,0.41,0.929,0.992c0,0.567-0.362,0.992-0.945,0.992
			C-91.212,355.707-91.59,355.282-91.59,354.715z"/>
		<path d="M-88.33,354.715c0-0.583,0.394-0.992,0.945-0.992s0.929,0.41,0.929,0.992c0,0.567-0.362,0.992-0.945,0.992
			C-87.952,355.707-88.33,355.282-88.33,354.715z"/>
	</g>
	
		<rect x="-207.899" y="430.981" display="inline" fill="#FFFFFF" stroke="#000000" stroke-width="0.9715" stroke-miterlimit="10" width="159.912" height="38.043"/>
	<g display="inline">
		<path d="M-179.921,445.848h5.716v1.15h-4.346v3.527h4.015v1.134h-4.015v4.803h-1.37V445.848z"/>
		<path d="M-166.469,454.383c0,0.787,0.016,1.48,0.062,2.079h-1.228l-0.079-1.244h-0.032c-0.362,0.614-1.165,1.417-2.52,1.417
			c-1.197,0-2.629-0.662-2.629-3.338v-4.457h1.386v4.22c0,1.449,0.44,2.425,1.7,2.425c0.929,0,1.575-0.646,1.827-1.26
			c0.079-0.205,0.126-0.457,0.126-0.709v-4.677h1.386V454.383z"/>
		<path d="M-164.167,450.903c0-0.788-0.016-1.433-0.063-2.063h1.229l0.079,1.26h0.031c0.378-0.725,1.26-1.433,2.52-1.433
			c1.055,0,2.693,0.63,2.693,3.244v4.551h-1.386v-4.394c0-1.228-0.457-2.251-1.764-2.251c-0.913,0-1.622,0.646-1.858,1.417
			c-0.063,0.173-0.095,0.409-0.095,0.646v4.583h-1.386V450.903z"/>
		<path d="M-149.991,456.178c-0.362,0.189-1.165,0.441-2.188,0.441c-2.299,0-3.795-1.559-3.795-3.89
			c0-2.347,1.606-4.047,4.094-4.047c0.819,0,1.543,0.205,1.921,0.394l-0.315,1.071c-0.331-0.189-0.851-0.362-1.606-0.362
			c-1.748,0-2.692,1.292-2.692,2.882c0,1.764,1.134,2.85,2.646,2.85c0.787,0,1.307-0.205,1.701-0.378L-149.991,456.178z"/>
		<path d="M-146.491,446.651v2.189h1.984v1.055h-1.984v4.11c0,0.945,0.268,1.48,1.039,1.48c0.362,0,0.63-0.047,0.803-0.095
			l0.063,1.039c-0.268,0.11-0.693,0.189-1.228,0.189c-0.646,0-1.166-0.205-1.496-0.583c-0.394-0.409-0.536-1.086-0.536-1.984v-4.157
			h-1.181v-1.055h1.181v-1.827L-146.491,446.651z"/>
		<path d="M-141.403,446.698c0.016,0.473-0.331,0.851-0.882,0.851c-0.488,0-0.835-0.378-0.835-0.851
			c0-0.488,0.362-0.866,0.866-0.866C-141.734,445.832-141.403,446.21-141.403,446.698z M-142.946,456.461v-7.622h1.386v7.622
			H-142.946z"/>
		<path d="M-132.362,452.588c0,2.818-1.953,4.047-3.795,4.047c-2.062,0-3.653-1.512-3.653-3.921c0-2.551,1.669-4.047,3.779-4.047
			C-133.843,448.667-132.362,450.257-132.362,452.588z M-138.409,452.667c0,1.669,0.96,2.929,2.315,2.929
			c1.322,0,2.314-1.244,2.314-2.96c0-1.291-0.646-2.929-2.283-2.929S-138.409,451.218-138.409,452.667z"/>
		<path d="M-130.611,450.903c0-0.788-0.016-1.433-0.063-2.063h1.229l0.079,1.26h0.031c0.378-0.725,1.26-1.433,2.52-1.433
			c1.055,0,2.693,0.63,2.693,3.244v4.551h-1.386v-4.394c0-1.228-0.457-2.251-1.764-2.251c-0.913,0-1.622,0.646-1.858,1.417
			c-0.063,0.173-0.095,0.409-0.095,0.646v4.583h-1.386V450.903z"/>
		<path d="M-120.087,456.461l-2.693-10.614h1.449l1.26,5.37c0.315,1.323,0.598,2.646,0.787,3.669h0.032
			c0.173-1.055,0.504-2.315,0.866-3.685l1.417-5.354h1.433l1.291,5.386c0.299,1.26,0.583,2.52,0.74,3.638h0.031
			c0.221-1.166,0.52-2.347,0.851-3.669l1.401-5.354h1.401l-3.007,10.614h-1.433l-1.338-5.527c-0.331-1.354-0.551-2.394-0.693-3.464
			h-0.032c-0.189,1.055-0.425,2.095-0.819,3.464l-1.512,5.527H-120.087z"/>
		<path d="M-102.162,452.588c0,2.818-1.953,4.047-3.795,4.047c-2.063,0-3.653-1.512-3.653-3.921c0-2.551,1.669-4.047,3.779-4.047
			C-103.642,448.667-102.162,450.257-102.162,452.588z M-108.208,452.667c0,1.669,0.96,2.929,2.314,2.929
			c1.323,0,2.315-1.244,2.315-2.96c0-1.291-0.646-2.929-2.283-2.929S-108.208,451.218-108.208,452.667z"/>
		<path d="M-100.41,451.218c0-0.897-0.016-1.669-0.063-2.378h1.213l0.047,1.496h0.063c0.347-1.023,1.181-1.669,2.11-1.669
			c0.157,0,0.268,0.016,0.394,0.047v1.307c-0.142-0.032-0.284-0.047-0.472-0.047c-0.977,0-1.669,0.74-1.858,1.779
			c-0.031,0.189-0.063,0.41-0.063,0.646v4.063h-1.37V451.218z"/>
		<path d="M-93.826,452.336h0.031c0.189-0.268,0.457-0.599,0.677-0.866l2.236-2.63h1.669l-2.945,3.134l3.354,4.488h-1.685
			l-2.63-3.653l-0.708,0.788v2.866h-1.37v-11.18h1.37V452.336z"/>
		<path d="M-87.036,452.902c0.032,1.874,1.229,2.646,2.614,2.646c0.992,0,1.59-0.173,2.11-0.394l0.236,0.992
			c-0.488,0.221-1.323,0.473-2.535,0.473c-2.346,0-3.748-1.543-3.748-3.843c0-2.299,1.354-4.11,3.574-4.11
			c2.488,0,3.149,2.189,3.149,3.59c0,0.284-0.031,0.504-0.047,0.646H-87.036z M-82.973,451.911c0.016-0.882-0.362-2.252-1.921-2.252
			c-1.401,0-2.016,1.292-2.125,2.252H-82.973z"/>
		<path d="M-79.914,451.218c0-0.897-0.016-1.669-0.063-2.378h1.213l0.047,1.496h0.063c0.347-1.023,1.181-1.669,2.11-1.669
			c0.157,0,0.268,0.016,0.394,0.047v1.307c-0.142-0.032-0.284-0.047-0.472-0.047c-0.977,0-1.669,0.74-1.858,1.779
			c-0.031,0.189-0.063,0.41-0.063,0.646v4.063h-1.37V451.218z"/>
	</g>
	
		<line display="inline" fill="none" stroke="#000000" stroke-width="2" stroke-miterlimit="10" x1="-129.445" y1="289.731" x2="-129.445" y2="331.152"/>
	
		<line display="inline" fill="none" stroke="#000000" stroke-width="2" stroke-miterlimit="10" x1="-128.837" y1="371.029" x2="-128.837" y2="430.981"/>
</g>
</svg>
