<svg xmlns="http://www.w3.org/2000/svg" width="500" height="426.9">
  <path fill="none" stroke="#000" stroke-width=".4" stroke-miterlimit="10" d="M24 62h451.5v330.7H24z"/>
  <path fill="#FFF" stroke="#000" stroke-width=".4" stroke-miterlimit="10" d="M16 13h468v16.7H16z"/>
  <path fill="#939598" d="M444 23.2V21h.6v2.8h-6v-6h3v.5H439v5h5zm-.4-4.4l-.7-.7.2-.2 1.4 1.2-1.2 1.3-.3-.4.6-.7c-1.5 0-2.5.7-3 1.7-.3.2-.4.5-.5.8v.8h-.6v-.2l.2-.5c0-.3 0-.5.2-.8 0-.2.3-.4.5-.7l.7-.8 1-.5 1.6-.4zM455.2 23.2V21h.6v2.8h-6v-6h3v.5H450v5h5zm.6-5.4v.4h-.3l-.6.2c-.4 0-.6.2-1 .4-.8.6-1.4 1.7-1.5 3l.6-.4.4.3-1.2 1.2-1.3-1.5.3-.3.7.8c0-.6 0-1 .3-1.6l.6-1c0-.3.3-.6.6-.8l.8-.5h.7l.6-.2h.2zM462.7 17.8h2.3v.7h1.5v.8h-5.3v-.8h1.5v-.7zm-1 2h4.4v4h-4.4v-4zm1 .6v2.8h.6v-2.8h-.7zm1.7 0v2.8h.7v-2.8h-.6zM475.3 22.4l-3-3 .4-.4 2.6 2.5L478 19l.3.6-3 2.8z"/>
  <path fill="none" stroke="#000" stroke-width=".2" stroke-miterlimit="10" d="M435.6 17.6v6.6M447 18v6.5M458.4 17.6v6.6M469.3 17.6v6.6"/>
  <path d="M16 13h14.4v16.6H16zM36.3 45.2c1-.8 2-1.2 3-1.2 1.2 0 2.2.4 3 1.2 1 1 1.3 2 1.3 3 0 1.2-.4 2.2-1.3 3-.8 1-1.8 1.3-3 1.3-1 0-2-.4-3-1.3-.8-.8-1.2-1.8-1.2-3 0-1 .5-2 1.3-3zM38 50v-.4h-.2c-.2 0-.2 0-.2-.3V49v-.3c0-.2 0-.4-.2-.5l.2-.4v-.3-.3c0-.2 0-.3.2-.3v-.4c-.4 0-.6.2-.6.6v.6c0 .2 0 .3-.2.3v.4c.2 0 .3 0 .3.2v.7c0 .4 0 .6.5.6zm1.5-.6l.8-2.3H40l-.5 1.2c0 .3 0 .6-.2.7 0-.2 0-.5-.2-.8l-.3-1h-.4l.8 2.2h.5zm2.2-1V48c-.2 0-.3 0-.3-.2v-.3-.3c0-.4-.2-.6-.6-.6v.3c.2 0 .3 0 .3.2V47.8c0 .2 0 .4.3.4-.2 0-.3.3-.3.5v.6c0 .2 0 .3-.2.3v.3c.4 0 .7-.3.7-.7V49v-.4s0-.2.2-.2z"/>
  <path fill="#AEADAE" d="M45 45h5.8v6h-6z"/>
  <path fill="#FFF" d="M49.7 48v.3H48V50h-.4v-1.7H46V48h1.6V46h.4V48h1.7z"/>
  <path fill="none" stroke="#000" stroke-width=".4" stroke-miterlimit="10" d="M16 29.7h468V401H16z"/>
  <g fill="#FFF">
    <path d="M27 23.4H27c0-.3 0-.4-.2-.5v-.2s.2 0 .3-.2c0 0 0-.2-.2-.3h-.4c0-.2-.2-.3-.3-.4v-.2c.2 0 .2-.2.2-.3 0 0 0-.2-.2-.3 0 0-.2 0-.3.2-.2 0-.3-.2-.4-.3v-.3c-.2 0-.3 0-.3-.2-.2 0-.3.2-.3.3H24c0-.2 0-.3-.2-.4h-.3s0 .2-.2.3H23c0 .2 0 .2 0 0h-.2-.3v.3l-.4.4s-.2 0-.3-.2l-.2.2v.4c0 .2 0 .3-.2.4H21c0 .2-.2.3-.2.3 0 .2.2.2.2.3v.5h-.3v.4s0 .2.2.2v.4s0 .2-.2.3v.3h.5l.3.4c0 .2 0 .3-.2.3 0 .2.2.2.2.3h.8v.5c.2 0 .3 0 .4.2l.2-.3h.5c0 .2 0 .3.2.4h.3v-.3H24.7s.2 0 .3.2h.2v-.2-.3c.2 0 .3-.2.4-.3h.4s.2 0 .2-.2v-.3-.5H27v-.3s0-.2-.2-.3V24c.3 0 .4 0 .5-.2v-.3zm-3.2 1c-.4 0-.8-.3-.8-.8 0-.4.4-.8 1-.8.3 0 .7.4.7.8 0 .5-.4 1-1 1zM23.2 18.5H23c0-.2 0-.3-.2-.3 0-.2.2-.2.2-.3v-.3h-.3c-.2 0-.2 0-.3-.2V17c0-.2 0-.2 0 0H22l-.2-.2v-.3h-.3l-.2.2H21v-.4h-.2-.2v.3H20s0-.2 0 0h-.2v.2s0 .2-.2.3h-.3v.3s0 .2-.2.3v.2c-.2 0-.2 0-.2.2h.2v.5h-.2v.2h.2v.4c.2 0 .2 0 0 0v.4h.3l.3.3v.4h.5v.3h.5v-.2h.3v.3h.4v-.2h.8v-.3l.2-.2h.3V20v-.4h.4v-.2L23 19V19v-.2h.2v-.3zm-2 1c-.5 0-.7-.2-.8-.6 0-.4.2-.7.5-.7.2 0 .5.2.6.5 0 .3-.2.6-.5.7zM27.5 18.7h-.2v-.2-.2H27V18v-.2h-.2-.4v-.3h-.5-.4c0 .2-.2.2-.2.2H25 25v.2h-.3v.5h-.2c-.2 0-.2 0-.2.2h.2v.3h-.2v.3h.2v.6h.2c0-.2 0 0 0 0h.2s0 .2-.2.2h.2c0 .2 0 .2 0 0h.2l.2.2v.2h.2v-.2h.3v.2h.2v-.2H26.8v-.2-.2h.4v-.2-.2h.2v-.2-.2-.2-.2zm-1.5.7c-.3 0-.5 0-.5-.3 0-.2 0-.4.4-.4 0 0 .3 0 .3.4 0 .2 0 .4-.3.4z"/>
  </g>
  <path fill="#FFF" stroke="#000" stroke-width=".4" stroke-miterlimit="10" d="M24 62.2h450.5V79H24z"/>
  <path fill="#939598" d="M435.5 72.5V70h.5v3h-6v-6h3v.6h-2.5v5h5zM435 68l-.6-.6.3-.4 1.3 1.3-1 1.2-.4-.3.5-.6c-1.4 0-2.4.7-3 1.7-.2.2-.4.4-.4.7l-.2.6v.3h-.5v-.3-.5c0-.3.2-.5.3-.7l.4-.8.8-.7 1-.6c.6-.2 1-.3 1.6-.3zM446.7 72.5V70h.5v3h-6v-6h3v.6h-2.5v5h5zm.5-5.5v.5h-.2l-.6.2c-.3 0-.5.2-.8.3-1 .7-1.5 1.7-1.7 3.2l.6-.5.3.3-1.4 1.2-1.2-1.4.3-.3.7.7c0-.5.2-1 .4-1.5 0-.4.3-.8.6-1 .2-.4.4-.6.7-.8.4-.4.6-.5 1-.6l.5-.3h.7zM454.2 67h2.3v.8h1.5v.7h-5.3v-.7h1.5V67zm-1 2h4.4v4H453v-4zm1 .6v3h.6v-3h-.7zm1.7 0v3h.6v-3h-.7zM466.7 71.7l-3-3 .5-.4 2.5 2.5 2.6-2.5.5.5-3 3z"/>
  <path fill="none" stroke="#000" stroke-width=".2" stroke-miterlimit="10" d="M438.5 66.8v6.5M450 66.5V73M460.8 67v6.4"/>
  <path d="M24 62.2h14.5V79H24z"/>
  <path fill="#FFF" d="M35.4 70.5H35v-.2s0-.3-.2-.4v-.2c.2 0 .3-.2.4-.3V69H35h-.4c-.2 0-.3-.3-.4-.4 0-.2 0-.4.2-.5 0 0-.2 0-.3-.2 0 0-.2 0-.3.2-.3 0-.4-.2-.6-.3V67H33c-.2 0-.3.2-.4.3h-.6c0-.3 0-.4-.2-.5h-.3c-.2 0-.2.2-.3.4h-.5c-.2 0-.3 0-.4-.2h-.3V67.7l-.5.4c-.2 0-.3 0-.4-.2l-.4.2c0 .3 0 .4.2.5l-.3.6h-.4c-.2 0-.2 0-.3.2v.2c0 .2 0 .3.2.4v.5h-.2c0 .2-.2.2-.3.2v.4h.3v.2c0 .2 0 .4.2.5l-.4.4c0 .2 0 .3.2.5h.4l.4.5c0 .2 0 .3-.2.4 0 .2.2.3.3.3H29.4c.2 0 .3 0 .5.2v.3l.4.2h.2s0-.2.2-.2h.6c0 .2 0 .3.2.4h.4v-.3h.2c.2 0 .4 0 .5-.2l.4.4h.4v-.2-.4l.6-.4c.2 0 .3 0 .5.2.2 0 .3-.2.4-.3 0-.2 0-.3-.2-.4 0-.2.2-.3.3-.5h.5l.2-.3c0-.2-.2-.3-.3-.4h-.2V71h.2s.3 0 .4-.2v-.4zm-4 1.3c-.6 0-1-.5-1-1 0-.6.4-1 1-1 .5 0 1 .4 1 1s-.4 1-1 1z"/>
  <path fill="#FFF" stroke="#000" stroke-width=".6" stroke-miterlimit="10" d="M140.4 115.6h100V140h-100z"/>
  <g>
    <text transform="translate(152.12 131.637)" font-family="'MyriadPro-Regular'" font-size="11.4">
      ResourceWorker
    </text>
  </g>
  <g>
    <text transform="translate(35.3 25.124)" font-family="'MyriadPro-Regular'" font-size="11.4">
      helloWorld
    </text>
  </g>
  <g>
    <text transform="translate(43.878 74.776)" font-family="'MyriadPro-Regular'" font-size="11.4">
      sayHello
    </text>
  </g>
  <path fill="none" stroke="#000" stroke-width=".4" stroke-miterlimit="10" d="M191.2 140v183.7"/>
  <path fill="#FFF" stroke="#000" stroke-width=".4" stroke-miterlimit="10" d="M140.5 279.6h101V304h-101zM140.4 157.7h101V182h-101z"/>
  <path fill="#FFF" stroke="#000" stroke-width=".6" stroke-miterlimit="10" d="M140.4 323.7h100V348h-100z"/>
  <g>
    <text transform="translate(152.467 339.69)" font-family="'MyriadPro-Regular'" font-size="11.4">
      ResourceWorker
    </text>
  </g>
  <g>
    <path d="M55.5 141.3c-.4.2-1 .4-2 .4-2.2 0-3.8-1.4-3.8-4 0-2.3 1.6-4 4-4 1 0 1.5.3 1.8.4l-.3 1c-.3-.3-1-.4-1.5-.4-1.8 0-3 1-3 3.2 0 1.8 1 3 3 3 .6 0 1.2 0 1.6-.3l.2.8zM56.7 133.5h1v8h-1v-8zM60.5 134.5c0 .4-.3.6-.7.6-.3 0-.6 0-.6-.5 0-.3.3-.6.7-.6.2 0 .5.2.5.5zm-1 7v-5.4h1v5.6h-1zM62.6 139c0 1.3 1 2 2 2 .6 0 1-.2 1.4-.4l.2.7c-.4.2-1 .4-2 .4-1.6 0-2.6-1-2.6-2.8 0-1.8 1-3 2.6-3 1.8 0 2.3 1.5 2.3 2.5v.5h-4zm3-.7c0-.7-.4-1.7-1.5-1.7-1 0-1.3 1-1.4 1.7h3zM67.7 137.5V136h.8v1c.4-.6 1-1 2-1 .7 0 2 .4 2 2.3v3.3h-1v-3.2c0-1-.4-1.6-1.4-1.6-.5 0-1 .4-1.2 1v3.8h-1v-4zM75.2 134.5v1.6h1.4v.8h-1.4v3c0 .7.2 1 .7 1h.5v.7l-.8.2c-.5 0-1-.2-1-.4-.4-.3-.5-.8-.5-1.5v-3h-1v-.7h1v-1.3l1-.2z"/>
  </g>
  <path fill="none" stroke="#000" stroke-width=".599994" stroke-miterlimit="10" d="M93.6 138l-29.2 29-29-29 29-29z" stroke-dasharray="1.6 1.6"/>
  <g>
    <path d="M55.4 334c-.4.3-1 .5-2 .5-2.2 0-3.8-1.4-3.8-4 0-2.3 1.6-4 4-4 1 0 1.5.3 1.8.5l-.3.8c-.2-.2-.8-.4-1.4-.4-1.8 0-3 1.2-3 3.2s1 3 3 3c.5 0 1.2 0 1.6-.2l.2.7zM56.6 326.3h1v8h-1v-8zM60.4 327.4c0 .3-.3.6-.7.6-.3 0-.6-.3-.6-.6 0-.4.4-.7.7-.7.4 0 .7.3.7.7zm-1.2 7V329h1v5.4h-1zM62.5 331.8c0 1.4.8 2 1.8 2 .8 0 1.2-.2 1.6-.3v.7c-.3 0-1 .3-1.8.3-1.7 0-2.7-1-2.7-2.8 0-1.6 1-3 2.6-3 2 0 2.4 1.7 2.4 2.7v.4h-4zm3-.7c0-.5-.4-1.5-1.5-1.5-1 0-1.4 1-1.5 1.6h3zM67.6 330.4V329h.8v.8c.4-.5 1-1 2-1 .7 0 2 .4 2 2.3v3.4h-1v-3.2c0-1-.5-1.6-1.4-1.6-.7 0-1.2.5-1.3 1v3.9h-1v-4zM75 327.3v1.6h1.5v.7H75v3c0 .6.3 1 .8 1h.6v.7h-.8c-.5 0-1 0-1-.3-.4-.2-.5-.7-.5-1.3v-3h-.8v-.8h1v-1.4l1-.3z"/>
  </g>
  <path fill="none" stroke="#000" stroke-width=".599994" stroke-miterlimit="10" d="M93.4 331l-29 29L35 331l29-29.2z" stroke-dasharray="1.6 1.6"/>
  <path fill="none" stroke="#000" stroke-miterlimit="10" d="M64.4 167.2v134.6"/>
  <g>
    <path fill="none" stroke="#000" stroke-width=".9" stroke-miterlimit="10" d="M133.8 171.5H64.4"/>
    <path d="M132.4 167l8 4.5-8 4.6"/>
  </g>
  <g>
    <path fill="none" stroke="#000" stroke-width=".6" stroke-miterlimit="10" d="M71 291.8h69.4" stroke-dasharray="1.6 1.6"/>
    <path d="M72.4 296.4l-8-4.6 8-4.6"/>
  </g>
  <path fill="#FFF" stroke="#000" stroke-width=".4" stroke-miterlimit="10" d="M108 197.8h164.5v24.4H108z"/>
  <text transform="translate(180.15 174.762)" font-family="'MyriadPro-Light'" font-size="11.2">
    Start
  </text>
  <text transform="translate(116.65 214.76)" font-family="'MyriadPro-Light'" font-size="11.2">
    message response = {}
  </text>
  <path fill="#FFF" stroke="#000" stroke-width=".6" stroke-miterlimit="10" d="M80.6 238H300v24.4H80.5z"/>
  <text transform="translate(99.092 254.94)" font-family="'MyriadPro-Light'" font-size="11.2">
    message:setStringPayload(response, ‘Hell...
  </text>
  <text transform="translate(157.733 296.272)" font-family="'MyriadPro-Light'" font-size="11.2">
    reply response
  </text>
</svg>
