<?xml version="1.0" encoding="utf-8"?>
<!-- Generator: Adobe Illustrator 16.0.0, SVG Export Plug-In . SVG Version: 6.00 Build 0)  -->
<!DOCTYPE svg PUBLIC "-//W3C//DTD SVG 1.1//EN" "http://www.w3.org/Graphics/SVG/1.1/DTD/svg11.dtd">
<svg version="1.1" id="Layer_1" xmlns="http://www.w3.org/2000/svg" xmlns:xlink="http://www.w3.org/1999/xlink" x="0px" y="0px"
	 width="500px" height="426.871px" viewBox="0 0 500 426.871" enable-background="new 0 0 500 426.871" xml:space="preserve">
<g id="Layer_1_1_">
	
		<rect x="24.052" y="62.031" fill="none" stroke="#000000" stroke-width="0.3619" stroke-miterlimit="10" width="451.434" height="330.748"/>
	
		<rect x="15.955" y="12.906" fill="#FFFFFF" stroke="#000000" stroke-width="0.4288" stroke-miterlimit="10" width="468.123" height="16.789"/>
	<g>
		<path fill="#939598" d="M443.996,23.209l-0.012-2.332h0.576v2.919h-6.028v-6.028c0.502,0,1.503,0,3.003,0v0.578
			c-0.134,0-0.31,0-0.523,0c-0.217,0-0.543-0.001-0.981-0.006c-0.438-0.005-0.751-0.007-0.932-0.007l0.014,4.876H443.996z
			 M443.642,18.817l-0.751-0.695l0.329-0.353l1.343,1.25l-1.143,1.26l-0.345-0.33l0.543-0.649c-1.481,0.15-2.541,0.716-3.166,1.696
			c-0.157,0.235-0.283,0.488-0.374,0.759c-0.089,0.271-0.141,0.481-0.146,0.631l-0.022,0.224h-0.472
			c0-0.048,0.005-0.113,0.015-0.194c0.009-0.083,0.041-0.247,0.102-0.487c0.057-0.244,0.141-0.479,0.241-0.7
			c0.102-0.225,0.259-0.477,0.471-0.752c0.213-0.279,0.46-0.525,0.742-0.743c0.282-0.216,0.653-0.411,1.114-0.583
			C442.577,18.975,443.086,18.864,443.642,18.817z"/>
	</g>
	<g>
		<g>
			<path fill="#939598" d="M455.197,23.209l-0.013-2.332l0.577-0.013v2.932h-6.028v-6.028c0.502,0,1.503,0,3.003,0v0.565
				c-0.135,0-0.31,0-0.523,0c-0.218,0-0.543,0-0.981,0s-0.751,0-0.932,0l0.013,4.876H455.197z M455.762,17.769v0.473
				c-0.062,0-0.146,0.005-0.25,0.017c-0.103,0.015-0.295,0.063-0.582,0.152c-0.288,0.089-0.553,0.215-0.796,0.371
				c-0.98,0.628-1.542,1.684-1.684,3.167l0.646-0.542l0.329,0.342l-1.271,1.144l-1.235-1.344l0.342-0.33l0.707,0.754
				c0.049-0.559,0.153-1.065,0.322-1.525c0.17-0.459,0.365-0.831,0.588-1.114c0.224-0.283,0.469-0.527,0.729-0.741
				c0.264-0.212,0.521-0.368,0.774-0.472c0.248-0.102,0.479-0.182,0.683-0.242c0.205-0.059,0.368-0.092,0.495-0.1L455.762,17.769z"
				/>
		</g>
	</g>
	<g>
		<g>
			<path fill="#939598" d="M462.704,17.769h2.285v0.729h1.496v0.778h-5.287V18.5h1.506V17.769L462.704,17.769z M461.573,19.877
				h4.547v3.919h-4.547V19.877z M462.6,20.372v2.873h0.695v-2.873H462.6z M464.403,20.372v2.873h0.692v-2.873H464.403z"/>
		</g>
	</g>
	<g>
		<g>
			<path fill="#939598" d="M475.27,22.413l-3.004-2.92l0.447-0.459l2.557,2.484l2.591-2.449l0.437,0.482L475.27,22.413z"/>
		</g>
	</g>
	<line fill="none" stroke="#000000" stroke-width="0.2" stroke-miterlimit="10" x1="435.6" y1="17.634" x2="435.6" y2="24.168"/>
	
		<line fill="none" stroke="#000000" stroke-width="0.2" stroke-miterlimit="10" x1="447.067" y1="17.969" x2="447.067" y2="24.501"/>
	<line fill="none" stroke="#000000" stroke-width="0.2" stroke-miterlimit="10" x1="458.4" y1="17.634" x2="458.4" y2="24.168"/>
	
		<line fill="none" stroke="#000000" stroke-width="0.2" stroke-miterlimit="10" x1="469.331" y1="17.634" x2="469.331" y2="24.168"/>
	<rect x="15.922" y="12.906" width="14.466" height="16.718"/>
	<g>
		<path d="M36.324,45.242c0.829-0.83,1.829-1.245,3.001-1.245c1.174,0,2.175,0.416,3.004,1.245c0.828,0.83,1.243,1.831,1.243,3.001
			c0,1.172-0.417,2.173-1.243,3.002c-0.829,0.83-1.83,1.245-3.004,1.245c-1.173,0-2.174-0.416-3.001-1.245
			c-0.827-0.829-1.244-1.831-1.244-3.002C35.08,47.073,35.496,46.072,36.324,45.242z M37.949,49.871v-0.299h-0.116
			c-0.188,0-0.283-0.106-0.283-0.317c0-0.044,0.013-0.133,0.033-0.265c0.021-0.1,0.034-0.205,0.034-0.315
			c0-0.221-0.077-0.364-0.233-0.431c0.155-0.078,0.233-0.227,0.233-0.449c0-0.1-0.012-0.198-0.034-0.299
			c-0.021-0.099-0.033-0.193-0.033-0.282c0-0.198,0.094-0.299,0.283-0.299h0.116v-0.299h-0.134c-0.408,0-0.612,0.188-0.612,0.564
			c0,0.032,0.011,0.138,0.033,0.314v0.018c0.021,0.144,0.034,0.253,0.034,0.332c0,0.176-0.095,0.266-0.284,0.266h-0.033v0.266h0.033
			c0.188,0,0.284,0.087,0.284,0.267c0,0.065-0.011,0.172-0.034,0.313c-0.021,0.199-0.033,0.312-0.033,0.332
			c0,0.388,0.205,0.583,0.612,0.583H37.949L37.949,49.871z M39.475,49.406l0.83-2.323h-0.382l-0.398,1.146
			c-0.1,0.287-0.171,0.524-0.216,0.715c-0.044-0.166-0.116-0.403-0.215-0.715l-0.365-1.146h-0.383l0.763,2.323H39.475z
			 M41.699,48.377v-0.266h-0.033c-0.188,0-0.283-0.088-0.283-0.266c0-0.079,0.013-0.188,0.033-0.332v-0.018
			c0.021-0.177,0.034-0.282,0.034-0.314c0-0.376-0.21-0.564-0.631-0.564h-0.115v0.298h0.115c0.188,0,0.284,0.101,0.284,0.299
			c0,0.066-0.005,0.139-0.017,0.217l-0.018,0.065c-0.021,0.167-0.033,0.267-0.033,0.299c0,0.221,0.077,0.37,0.231,0.449
			c-0.154,0.066-0.231,0.211-0.231,0.431c0,0.066,0.011,0.172,0.033,0.315c0.012,0.034,0.018,0.055,0.018,0.066
			c0.013,0.065,0.017,0.133,0.017,0.198c0,0.21-0.095,0.316-0.284,0.316h-0.115v0.299h0.133c0.409,0,0.614-0.193,0.614-0.582
			c0-0.065-0.012-0.177-0.034-0.332c-0.021-0.144-0.034-0.249-0.034-0.314c0-0.179,0.094-0.267,0.284-0.267L41.699,48.377
			L41.699,48.377z"/>
	</g>
	<rect x="44.947" y="45.136" fill="#AEADAE" width="5.898" height="5.897"/>
	<g>
		<path fill="#FFFFFF" d="M49.722,47.861v0.396h-1.679v1.681h-0.396v-1.681h-1.679v-0.396h1.679v-1.68h0.396v1.68H49.722z"/>
	</g>
	
		<rect x="15.967" y="29.687" fill="none" stroke="#000000" stroke-width="0.3784" stroke-miterlimit="10" width="468.102" height="371.181"/>
	<g>
		<path fill="#FFFFFF" d="M27.071,23.427c-0.106-0.033-0.215-0.072-0.319-0.104c-0.038-0.012-0.049-0.034-0.056-0.069
			c-0.021-0.12-0.045-0.24-0.069-0.359c-0.007-0.034-0.004-0.058,0.024-0.081c0.086-0.07,0.17-0.142,0.253-0.216
			c0.015-0.014,0.029-0.043,0.023-0.057c-0.033-0.091-0.072-0.181-0.11-0.27c-0.005-0.014-0.027-0.029-0.042-0.028
			c-0.11,0.005-0.224,0.01-0.336,0.023c-0.043,0.005-0.063-0.01-0.086-0.044c-0.079-0.123-0.158-0.245-0.243-0.365
			c-0.021-0.03-0.023-0.052-0.007-0.083c0.049-0.096,0.097-0.192,0.146-0.288c0.016-0.027,0.013-0.045-0.012-0.066
			c-0.063-0.061-0.127-0.124-0.188-0.188c-0.021-0.023-0.043-0.025-0.071-0.011c-0.095,0.05-0.191,0.097-0.287,0.146
			c-0.025,0.015-0.049,0.014-0.074-0.005c-0.117-0.083-0.239-0.163-0.361-0.242c-0.027-0.018-0.042-0.035-0.039-0.073
			c0.012-0.117,0.017-0.236,0.023-0.355c0.002-0.034-0.011-0.053-0.043-0.066c-0.082-0.03-0.164-0.064-0.247-0.099
			c-0.027-0.012-0.043-0.007-0.062,0.016c-0.076,0.092-0.15,0.185-0.231,0.272c-0.017,0.018-0.047,0.035-0.067,0.031
			c-0.128-0.021-0.256-0.05-0.385-0.072c-0.032-0.006-0.051-0.021-0.06-0.053c-0.034-0.105-0.073-0.209-0.103-0.315
			c-0.017-0.056-0.043-0.073-0.099-0.069c-0.07,0.005-0.143,0.004-0.214,0c-0.045-0.002-0.064,0.014-0.079,0.055
			c-0.032,0.106-0.071,0.214-0.104,0.319c-0.012,0.041-0.034,0.057-0.074,0.064c-0.125,0.021-0.25,0.047-0.375,0.073
			c-0.029,0.005-0.05,0.003-0.072-0.022c-0.068-0.083-0.141-0.167-0.213-0.249c-0.012-0.014-0.04-0.026-0.051-0.02
			c-0.091,0.033-0.183,0.069-0.271,0.108c-0.015,0.006-0.027,0.028-0.027,0.042c0.005,0.105,0.008,0.211,0.021,0.316
			c0.009,0.051-0.012,0.072-0.049,0.097c-0.123,0.078-0.243,0.159-0.361,0.242c-0.026,0.017-0.047,0.02-0.074,0.006
			c-0.094-0.049-0.189-0.093-0.284-0.144c-0.035-0.019-0.055-0.015-0.083,0.015c-0.056,0.06-0.116,0.117-0.174,0.174
			c-0.028,0.026-0.033,0.049-0.017,0.083c0.051,0.094,0.096,0.188,0.144,0.283c0.016,0.028,0.013,0.049-0.005,0.074
			c-0.085,0.126-0.174,0.254-0.253,0.384c-0.022,0.037-0.047,0.049-0.086,0.046c-0.085-0.008-0.173-0.015-0.248-0.02
			c-0.083-0.001-0.083-0.001-0.111,0.066c-0.029,0.071-0.055,0.144-0.085,0.213c-0.015,0.03-0.012,0.049,0.016,0.069
			c0.082,0.065,0.157,0.131,0.234,0.199c0.015,0.013,0.025,0.038,0.021,0.054c-0.022,0.137-0.054,0.274-0.077,0.412
			c-0.009,0.039-0.023,0.055-0.058,0.064c-0.091,0.028-0.183,0.061-0.272,0.089c-0.03,0.01-0.045,0.025-0.043,0.059
			c0.001,0.087,0.002,0.174-0.001,0.261c0,0.039,0.017,0.056,0.05,0.065c0.083,0.025,0.164,0.059,0.248,0.081
			c0.057,0.015,0.074,0.046,0.084,0.099c0.019,0.128,0.045,0.254,0.073,0.381c0.009,0.036,0.001,0.057-0.026,0.078
			c-0.079,0.066-0.156,0.132-0.233,0.2c-0.012,0.011-0.021,0.037-0.017,0.05c0.034,0.091,0.07,0.183,0.109,0.271
			c0.004,0.011,0.023,0.023,0.036,0.022c0.104-0.004,0.207-0.01,0.312-0.018c0.04-0.003,0.061,0.005,0.083,0.04
			c0.081,0.127,0.163,0.25,0.249,0.375c0.018,0.025,0.02,0.048,0.006,0.074c-0.049,0.095-0.093,0.189-0.145,0.282
			c-0.017,0.035-0.014,0.059,0.017,0.083c0.06,0.059,0.119,0.116,0.177,0.179c0.024,0.023,0.044,0.028,0.076,0.013
			c0.092-0.05,0.186-0.094,0.279-0.144c0.033-0.018,0.058-0.015,0.091,0.01c0.119,0.083,0.24,0.165,0.362,0.238
			c0.05,0.03,0.062,0.062,0.056,0.116c-0.009,0.083-0.012,0.167-0.02,0.25c-0.002,0.034,0.014,0.049,0.043,0.061
			c0.082,0.03,0.16,0.063,0.242,0.099c0.03,0.013,0.048,0.008,0.069-0.018c0.059-0.073,0.12-0.146,0.182-0.215
			c0.016-0.016,0.042-0.03,0.06-0.026c0.144,0.024,0.287,0.055,0.431,0.083c0.032,0.006,0.05,0.019,0.06,0.052
			c0.028,0.093,0.062,0.184,0.09,0.278c0.01,0.033,0.026,0.046,0.061,0.045c0.083-0.002,0.164-0.003,0.247,0
			c0.039,0.001,0.059-0.011,0.07-0.05c0.024-0.087,0.061-0.174,0.083-0.263c0.014-0.048,0.043-0.06,0.083-0.065
			c0.13-0.023,0.262-0.048,0.391-0.076c0.028-0.006,0.047-0.001,0.066,0.021c0.068,0.083,0.142,0.166,0.211,0.249
			c0.017,0.023,0.035,0.032,0.064,0.021c0.083-0.036,0.171-0.069,0.256-0.104c0.022-0.01,0.033-0.021,0.029-0.05
			c-0.009-0.108-0.015-0.216-0.021-0.325c-0.002-0.033,0.008-0.052,0.035-0.07c0.127-0.082,0.25-0.164,0.375-0.249
			c0.03-0.021,0.054-0.023,0.085-0.008c0.093,0.05,0.189,0.096,0.284,0.146c0.026,0.015,0.047,0.014,0.067-0.009
			c0.062-0.064,0.124-0.127,0.188-0.188c0.025-0.021,0.025-0.043,0.012-0.07c-0.049-0.097-0.097-0.192-0.146-0.287
			c-0.017-0.029-0.013-0.052,0.007-0.08c0.083-0.119,0.163-0.24,0.241-0.361c0.018-0.023,0.031-0.036,0.062-0.034
			c0.115,0.01,0.229,0.016,0.348,0.022c0.036,0.002,0.055-0.01,0.069-0.044c0.027-0.081,0.06-0.16,0.094-0.237
			c0.017-0.033,0.01-0.051-0.019-0.074c-0.088-0.071-0.174-0.147-0.261-0.22c-0.024-0.02-0.028-0.039-0.021-0.07
			c0.026-0.128,0.051-0.256,0.076-0.385c0.005-0.032,0.017-0.051,0.049-0.062c0.107-0.035,0.217-0.072,0.326-0.105
			c0.037-0.013,0.056-0.03,0.052-0.073c-0.003-0.082-0.003-0.164,0-0.246C27.127,23.454,27.11,23.437,27.071,23.427z M23.845,24.462
			c-0.46,0.002-0.846-0.39-0.84-0.854c0.006-0.439,0.389-0.846,0.847-0.824c0.438-0.017,0.842,0.37,0.836,0.839
			C24.684,24.09,24.314,24.459,23.845,24.462z"/>
		<path fill="#FFFFFF" d="M23.199,18.485c-0.078-0.013-0.152-0.032-0.229-0.045c-0.027-0.005-0.037-0.021-0.045-0.044
			c-0.023-0.082-0.049-0.162-0.077-0.244c-0.008-0.022-0.007-0.038,0.01-0.056c0.055-0.056,0.108-0.112,0.157-0.169
			c0.009-0.011,0.018-0.031,0.013-0.041c-0.029-0.061-0.062-0.118-0.097-0.178c-0.006-0.009-0.021-0.017-0.031-0.017
			c-0.079,0.014-0.153,0.023-0.229,0.044c-0.03,0.007-0.046-0.001-0.062-0.023c-0.064-0.079-0.131-0.154-0.197-0.23
			c-0.018-0.019-0.021-0.034-0.014-0.056c0.025-0.069,0.049-0.142,0.078-0.211c0.008-0.02,0.004-0.032-0.014-0.045
			c-0.05-0.038-0.097-0.075-0.146-0.115c-0.016-0.016-0.03-0.015-0.049-0.001c-0.062,0.043-0.125,0.083-0.187,0.124
			c-0.018,0.013-0.031,0.014-0.05,0.002c-0.089-0.048-0.18-0.093-0.268-0.137c-0.021-0.011-0.032-0.021-0.033-0.048
			c-0.002-0.083-0.01-0.165-0.014-0.248c-0.001-0.021-0.012-0.035-0.035-0.042c-0.06-0.016-0.117-0.031-0.177-0.049
			c-0.021-0.006-0.03-0.001-0.042,0.017c-0.046,0.069-0.09,0.14-0.137,0.206c-0.011,0.015-0.029,0.028-0.045,0.027
			c-0.091-0.004-0.182-0.013-0.271-0.018c-0.023-0.002-0.035-0.011-0.044-0.031c-0.032-0.071-0.067-0.139-0.097-0.21
			c-0.017-0.037-0.035-0.046-0.073-0.039c-0.05,0.008-0.099,0.015-0.149,0.017c-0.029,0.002-0.043,0.015-0.048,0.044
			c-0.016,0.076-0.032,0.152-0.047,0.229c-0.006,0.029-0.018,0.043-0.045,0.05c-0.084,0.026-0.168,0.053-0.252,0.081
			c-0.02,0.007-0.034,0.007-0.05-0.01c-0.055-0.051-0.109-0.104-0.166-0.153c-0.01-0.009-0.029-0.016-0.038-0.01
			c-0.061,0.03-0.12,0.062-0.18,0.097c-0.008,0.006-0.017,0.022-0.015,0.031c0.012,0.073,0.023,0.146,0.04,0.217
			c0.008,0.035-0.001,0.049-0.026,0.07c-0.077,0.062-0.151,0.13-0.229,0.194c-0.016,0.015-0.029,0.018-0.049,0.011
			c-0.068-0.026-0.139-0.049-0.206-0.076c-0.026-0.011-0.042-0.005-0.057,0.016c-0.034,0.046-0.069,0.09-0.105,0.135
			c-0.017,0.021-0.02,0.036-0.002,0.059c0.042,0.06,0.08,0.122,0.121,0.184c0.013,0.018,0.013,0.032,0.003,0.053
			c-0.05,0.094-0.1,0.188-0.146,0.282c-0.014,0.027-0.027,0.038-0.054,0.039c-0.06,0.001-0.12,0.004-0.174,0.006
			c-0.055,0.007-0.055,0.007-0.069,0.056c-0.014,0.051-0.025,0.103-0.042,0.152c-0.006,0.022-0.004,0.034,0.017,0.048
			c0.06,0.037,0.117,0.077,0.178,0.117c0.009,0.009,0.019,0.024,0.017,0.035c-0.004,0.098-0.014,0.193-0.018,0.289
			c0,0.027-0.012,0.04-0.034,0.05c-0.06,0.026-0.12,0.056-0.182,0.083c-0.02,0.01-0.026,0.021-0.022,0.044
			c0.008,0.061,0.017,0.12,0.021,0.181c0.002,0.025,0.016,0.036,0.039,0.042c0.059,0.01,0.117,0.025,0.179,0.034
			c0.04,0.005,0.052,0.024,0.063,0.06c0.023,0.086,0.052,0.173,0.082,0.256c0.01,0.024,0.005,0.039-0.012,0.055
			c-0.05,0.052-0.097,0.104-0.145,0.156c-0.009,0.009-0.015,0.027-0.01,0.036c0.031,0.06,0.063,0.117,0.098,0.177
			c0.004,0.008,0.019,0.017,0.026,0.015c0.071-0.013,0.142-0.023,0.212-0.039c0.026-0.005,0.043-0.001,0.061,0.021
			c0.064,0.081,0.133,0.16,0.202,0.237c0.016,0.018,0.017,0.031,0.01,0.05c-0.024,0.069-0.049,0.139-0.076,0.207
			c-0.01,0.025-0.004,0.041,0.019,0.056c0.046,0.034,0.091,0.069,0.137,0.107c0.016,0.016,0.032,0.017,0.051,0.003
			c0.06-0.042,0.12-0.082,0.181-0.121c0.021-0.016,0.039-0.015,0.064-0.001c0.087,0.048,0.177,0.094,0.269,0.134
			c0.038,0.018,0.049,0.038,0.05,0.076c0,0.058,0.005,0.116,0.008,0.174c0,0.021,0.012,0.033,0.032,0.038
			c0.058,0.016,0.116,0.03,0.176,0.048c0.02,0.008,0.034,0,0.046-0.018c0.035-0.054,0.07-0.109,0.107-0.162
			c0.011-0.013,0.026-0.023,0.039-0.022c0.102,0.005,0.202,0.015,0.305,0.02c0.021,0.002,0.036,0.01,0.045,0.031
			c0.026,0.062,0.057,0.122,0.083,0.184c0.012,0.023,0.022,0.029,0.048,0.026c0.056-0.009,0.112-0.017,0.169-0.021
			c0.027-0.002,0.039-0.012,0.043-0.04c0.013-0.062,0.028-0.125,0.038-0.187c0.007-0.033,0.024-0.044,0.052-0.052
			c0.087-0.026,0.176-0.055,0.264-0.083c0.018-0.008,0.03-0.007,0.047,0.008c0.055,0.052,0.111,0.103,0.166,0.154
			c0.017,0.016,0.025,0.02,0.048,0.009c0.054-0.032,0.11-0.062,0.167-0.091c0.017-0.01,0.02-0.02,0.017-0.038
			c-0.016-0.073-0.026-0.149-0.042-0.223c-0.004-0.021,0.001-0.037,0.019-0.052c0.081-0.066,0.158-0.133,0.238-0.201
			c0.018-0.017,0.034-0.021,0.056-0.013c0.069,0.026,0.141,0.05,0.211,0.077c0.018,0.007,0.033,0.005,0.045-0.014
			c0.038-0.049,0.076-0.098,0.114-0.146c0.016-0.017,0.016-0.031,0.001-0.05c-0.042-0.062-0.082-0.124-0.122-0.186
			c-0.015-0.019-0.015-0.035-0.001-0.054c0.047-0.089,0.091-0.179,0.137-0.268c0.009-0.019,0.017-0.027,0.039-0.028
			c0.08-0.004,0.16-0.009,0.24-0.014c0.024-0.001,0.039-0.013,0.044-0.036c0.015-0.058,0.028-0.115,0.048-0.171
			c0.007-0.022,0.001-0.036-0.02-0.05c-0.065-0.043-0.132-0.087-0.198-0.131c-0.018-0.012-0.021-0.023-0.021-0.047
			c0.008-0.09,0.014-0.181,0.02-0.271c0-0.021,0.009-0.037,0.028-0.047c0.072-0.033,0.146-0.067,0.217-0.101
			c0.024-0.011,0.036-0.023,0.031-0.054c-0.011-0.056-0.018-0.112-0.021-0.169C23.24,18.501,23.227,18.49,23.199,18.485z
			 M21.064,19.461c-0.316,0.04-0.614-0.199-0.647-0.519c-0.032-0.302,0.197-0.613,0.516-0.636c0.301-0.048,0.609,0.186,0.645,0.509
			C21.611,19.136,21.386,19.421,21.064,19.461z"/>
		<path fill="#FFFFFF" d="M27.497,18.738c-0.056-0.01-0.112-0.023-0.165-0.034c-0.021-0.004-0.027-0.014-0.032-0.031
			c-0.018-0.059-0.036-0.116-0.056-0.176c-0.007-0.017-0.006-0.027,0.007-0.042c0.039-0.04,0.078-0.08,0.115-0.121
			c0.006-0.007,0.012-0.021,0.008-0.028c-0.022-0.044-0.045-0.086-0.07-0.128c-0.003-0.007-0.016-0.014-0.021-0.013
			c-0.055,0.01-0.111,0.019-0.166,0.031c-0.021,0.005-0.032,0-0.046-0.017c-0.047-0.058-0.094-0.113-0.143-0.167
			c-0.014-0.015-0.016-0.025-0.01-0.041c0.02-0.052,0.037-0.102,0.056-0.151c0.005-0.015,0.002-0.023-0.01-0.033
			c-0.035-0.025-0.07-0.054-0.104-0.082c-0.014-0.011-0.021-0.011-0.038,0c-0.044,0.03-0.088,0.06-0.134,0.089
			c-0.013,0.01-0.021,0.011-0.038,0.001c-0.063-0.032-0.129-0.065-0.193-0.098c-0.017-0.009-0.022-0.016-0.022-0.034
			c-0.001-0.06-0.007-0.119-0.011-0.18c-0.001-0.018-0.009-0.025-0.023-0.03c-0.045-0.011-0.086-0.021-0.129-0.035
			c-0.015-0.004-0.021,0-0.028,0.013c-0.033,0.05-0.066,0.1-0.1,0.149c-0.007,0.01-0.021,0.021-0.032,0.02
			c-0.064-0.002-0.13-0.01-0.195-0.015c-0.017-0.001-0.025-0.006-0.033-0.021c-0.021-0.05-0.048-0.101-0.069-0.151
			c-0.011-0.025-0.025-0.034-0.051-0.029c-0.035,0.008-0.073,0.012-0.109,0.014c-0.02,0.001-0.03,0.011-0.034,0.032
			c-0.011,0.055-0.021,0.11-0.033,0.166c-0.004,0.021-0.014,0.03-0.033,0.035c-0.06,0.019-0.12,0.039-0.182,0.06
			c-0.017,0.004-0.024,0.004-0.038-0.008c-0.039-0.038-0.08-0.075-0.119-0.112c-0.007-0.006-0.021-0.011-0.028-0.008
			c-0.044,0.021-0.084,0.047-0.128,0.069c-0.006,0.005-0.012,0.017-0.011,0.022c0.009,0.052,0.017,0.104,0.029,0.155
			c0.006,0.025,0,0.037-0.02,0.051c-0.055,0.046-0.111,0.092-0.166,0.142c-0.011,0.011-0.021,0.014-0.037,0.009
			c-0.049-0.019-0.1-0.035-0.148-0.057c-0.019-0.007-0.029-0.003-0.041,0.013c-0.024,0.034-0.051,0.065-0.078,0.098
			c-0.013,0.015-0.014,0.025-0.001,0.043c0.028,0.044,0.058,0.088,0.087,0.133c0.008,0.014,0.008,0.023,0.001,0.038
			c-0.036,0.068-0.071,0.136-0.104,0.206c-0.01,0.019-0.021,0.027-0.041,0.028c-0.045,0-0.087,0.003-0.125,0.004
			c-0.041,0.004-0.041,0.004-0.05,0.041c-0.011,0.037-0.018,0.073-0.028,0.11c-0.007,0.017-0.005,0.024,0.012,0.033
			c0.043,0.028,0.084,0.057,0.128,0.085c0.007,0.006,0.015,0.019,0.014,0.026c-0.003,0.068-0.01,0.139-0.015,0.209
			c0,0.02-0.009,0.028-0.025,0.037c-0.043,0.019-0.086,0.041-0.13,0.059c-0.015,0.007-0.021,0.016-0.017,0.032
			c0.006,0.043,0.012,0.086,0.016,0.13c0.002,0.019,0.01,0.026,0.028,0.03c0.043,0.008,0.083,0.019,0.128,0.023
			c0.029,0.005,0.039,0.019,0.046,0.045c0.018,0.062,0.038,0.123,0.059,0.185c0.007,0.017,0.003,0.027-0.008,0.041
			c-0.036,0.037-0.072,0.074-0.105,0.112c-0.005,0.007-0.01,0.021-0.007,0.026c0.022,0.043,0.049,0.085,0.07,0.128
			c0.003,0.005,0.016,0.011,0.021,0.009c0.052-0.008,0.103-0.017,0.153-0.026c0.018-0.004,0.029-0.001,0.044,0.016
			c0.048,0.06,0.096,0.116,0.146,0.172c0.013,0.013,0.014,0.022,0.007,0.036c-0.017,0.05-0.035,0.101-0.053,0.15
			c-0.006,0.018-0.003,0.029,0.013,0.041c0.033,0.024,0.066,0.05,0.099,0.078c0.016,0.012,0.023,0.013,0.038,0.002
			c0.044-0.031,0.086-0.058,0.131-0.087c0.017-0.013,0.027-0.012,0.047-0.002c0.063,0.034,0.127,0.067,0.192,0.099
			c0.026,0.012,0.034,0.026,0.036,0.054c0,0.042,0.004,0.083,0.006,0.125c0,0.017,0.008,0.023,0.022,0.027
			c0.043,0.011,0.084,0.021,0.125,0.034c0.018,0.005,0.023,0.001,0.034-0.015c0.024-0.039,0.051-0.079,0.08-0.116
			c0.006-0.008,0.018-0.017,0.025-0.017c0.075,0.004,0.148,0.011,0.22,0.016c0.017,0,0.026,0.008,0.033,0.022
			c0.019,0.045,0.042,0.088,0.061,0.133c0.007,0.018,0.017,0.021,0.035,0.02c0.04-0.007,0.08-0.013,0.119-0.016
			c0.021-0.002,0.028-0.01,0.032-0.028c0.009-0.047,0.021-0.091,0.026-0.136c0.004-0.022,0.017-0.031,0.037-0.039
			c0.063-0.019,0.127-0.039,0.19-0.06c0.015-0.005,0.023-0.004,0.033,0.006c0.04,0.038,0.081,0.075,0.121,0.112
			c0.011,0.011,0.018,0.014,0.033,0.005c0.041-0.022,0.081-0.044,0.12-0.066c0.013-0.006,0.017-0.013,0.014-0.024
			c-0.013-0.054-0.021-0.108-0.031-0.161c-0.003-0.018,0.001-0.026,0.015-0.037c0.058-0.048,0.116-0.097,0.173-0.146
			c0.014-0.012,0.023-0.016,0.041-0.009c0.051,0.019,0.103,0.036,0.15,0.056c0.015,0.005,0.023,0.003,0.032-0.011
			c0.027-0.034,0.055-0.069,0.083-0.104c0.013-0.013,0.012-0.022,0.003-0.036c-0.031-0.044-0.06-0.089-0.089-0.134
			c-0.009-0.015-0.009-0.025-0.001-0.039c0.034-0.065,0.066-0.129,0.099-0.194c0.007-0.014,0.014-0.019,0.029-0.02
			c0.056-0.003,0.116-0.007,0.173-0.011c0.018-0.001,0.027-0.008,0.032-0.026c0.009-0.041,0.019-0.083,0.033-0.123
			c0.005-0.019,0.001-0.025-0.016-0.035c-0.048-0.031-0.094-0.062-0.143-0.095c-0.014-0.009-0.017-0.018-0.016-0.034
			c0.005-0.065,0.009-0.13,0.014-0.196c0.001-0.018,0.006-0.026,0.021-0.034c0.051-0.022,0.104-0.05,0.154-0.072
			c0.02-0.009,0.025-0.019,0.022-0.039c-0.006-0.041-0.013-0.081-0.016-0.121C27.528,18.748,27.518,18.74,27.497,18.738z
			 M25.953,19.442c-0.229,0.029-0.443-0.146-0.469-0.376c-0.021-0.218,0.146-0.443,0.373-0.459c0.218-0.034,0.442,0.134,0.467,0.368
			C26.349,19.208,26.187,19.414,25.953,19.442z"/>
	</g>
</g>
<g id="Layer_5_6_">
	
		<rect x="24.065" y="62.168" fill="#FFFFFF" stroke="#000000" stroke-width="0.4189" stroke-miterlimit="10" width="450.411" height="16.791"/>
	<g>
		<path fill="#939598" d="M435.474,72.472l-0.012-2.332h0.577v2.918h-6.029V67.03c0.502,0,1.503,0,3.003,0v0.578
			c-0.134,0-0.309,0-0.523,0c-0.217,0-0.543-0.001-0.981-0.007c-0.438-0.004-0.751-0.006-0.931-0.006l0.013,4.877H435.474z
			 M435.119,68.079l-0.753-0.694l0.33-0.354l1.343,1.25l-1.145,1.26l-0.344-0.33l0.545-0.648c-1.483,0.149-2.539,0.715-3.168,1.695
			c-0.156,0.235-0.283,0.488-0.371,0.76c-0.09,0.27-0.141,0.48-0.147,0.63l-0.022,0.224h-0.472c0-0.049,0.004-0.113,0.015-0.193
			c0.008-0.083,0.04-0.247,0.101-0.489c0.058-0.243,0.14-0.478,0.241-0.7c0.103-0.224,0.259-0.475,0.472-0.753
			c0.212-0.279,0.46-0.524,0.74-0.741c0.283-0.216,0.653-0.411,1.115-0.583C434.057,68.238,434.564,68.126,435.119,68.079z"/>
	</g>
	<g>
		<g>
			<path fill="#939598" d="M446.673,72.472l-0.012-2.332l0.576-0.015v2.933h-6.028V67.03c0.502,0,1.503,0,3.003,0v0.565
				c-0.134,0-0.31,0-0.524,0c-0.217,0-0.543,0-0.98,0c-0.439,0-0.751,0-0.932,0l0.014,4.877H446.673z M447.239,67.031v0.471
				c-0.062,0-0.146,0.008-0.245,0.018c-0.105,0.013-0.298,0.062-0.585,0.152c-0.286,0.09-0.551,0.215-0.795,0.37
				c-0.981,0.628-1.543,1.685-1.685,3.167l0.648-0.543l0.328,0.344l-1.271,1.142l-1.235-1.342l0.342-0.33l0.707,0.752
				c0.05-0.557,0.153-1.065,0.323-1.523c0.169-0.459,0.365-0.83,0.589-1.113c0.222-0.283,0.468-0.53,0.729-0.742
				c0.263-0.212,0.521-0.369,0.773-0.472c0.249-0.102,0.479-0.183,0.684-0.24c0.204-0.061,0.368-0.093,0.495-0.101L447.239,67.031z"
				/>
		</g>
	</g>
	<g>
		<g>
			<path fill="#939598" d="M454.182,67.031h2.284v0.729h1.496v0.777h-5.288v-0.777h1.508V67.031z M453.051,69.139h4.548v3.919
				h-4.548V69.139z M454.078,69.635v2.873h0.691v-2.873H454.078z M455.879,69.635v2.873h0.694v-2.873H455.879z"/>
		</g>
	</g>
	<g>
		<g>
			<path fill="#939598" d="M466.746,71.677l-3.003-2.92l0.449-0.459l2.554,2.484l2.591-2.449l0.436,0.483L466.746,71.677z"/>
		</g>
	</g>
	
		<line fill="none" stroke="#000000" stroke-width="0.2" stroke-miterlimit="10" x1="438.549" y1="66.798" x2="438.549" y2="73.331"/>
	
		<line fill="none" stroke="#000000" stroke-width="0.2" stroke-miterlimit="10" x1="449.883" y1="66.464" x2="449.883" y2="72.997"/>
	<line fill="none" stroke="#000000" stroke-width="0.2" stroke-miterlimit="10" x1="460.81" y1="66.897" x2="460.81" y2="73.429"/>
	<rect x="24.043" y="62.168" width="14.466" height="16.72"/>
	<g>
		<path fill="#FFFFFF" d="M35.395,70.532c-0.132-0.041-0.264-0.087-0.396-0.129c-0.048-0.015-0.062-0.042-0.07-0.085
			c-0.025-0.15-0.055-0.298-0.085-0.447c-0.008-0.042-0.004-0.071,0.031-0.099c0.105-0.087,0.211-0.177,0.313-0.27
			c0.019-0.017,0.037-0.052,0.03-0.069c-0.041-0.113-0.086-0.225-0.134-0.334c-0.008-0.018-0.034-0.035-0.051-0.035
			c-0.138,0.007-0.279,0.014-0.417,0.029c-0.054,0.006-0.08-0.012-0.106-0.054c-0.097-0.152-0.198-0.305-0.301-0.454
			c-0.025-0.036-0.031-0.064-0.009-0.104c0.062-0.117,0.118-0.237,0.18-0.355c0.018-0.032,0.017-0.056-0.013-0.083
			c-0.081-0.077-0.157-0.152-0.233-0.232c-0.03-0.031-0.055-0.032-0.09-0.015c-0.117,0.062-0.238,0.12-0.357,0.182
			c-0.033,0.017-0.059,0.017-0.091-0.007c-0.149-0.104-0.297-0.202-0.449-0.301c-0.035-0.021-0.051-0.043-0.048-0.09
			c0.013-0.146,0.019-0.295,0.027-0.442c0.005-0.042-0.011-0.065-0.051-0.082c-0.104-0.039-0.203-0.08-0.305-0.123
			c-0.034-0.016-0.055-0.009-0.076,0.019c-0.095,0.116-0.189,0.229-0.289,0.338c-0.02,0.021-0.056,0.043-0.082,0.039
			c-0.16-0.026-0.316-0.061-0.479-0.089c-0.038-0.008-0.06-0.026-0.073-0.065c-0.041-0.131-0.089-0.26-0.126-0.392
			c-0.02-0.068-0.055-0.088-0.123-0.084c-0.087,0.005-0.178,0.004-0.266,0c-0.053-0.002-0.082,0.016-0.097,0.067
			c-0.041,0.134-0.089,0.265-0.126,0.397c-0.018,0.05-0.043,0.07-0.092,0.081c-0.154,0.027-0.31,0.059-0.466,0.09
			c-0.037,0.009-0.062,0.004-0.089-0.027c-0.083-0.105-0.173-0.207-0.264-0.31c-0.014-0.018-0.048-0.032-0.066-0.025
			c-0.112,0.042-0.223,0.088-0.335,0.137c-0.015,0.007-0.033,0.034-0.033,0.051c0.006,0.129,0.012,0.261,0.027,0.392
			c0.008,0.062-0.015,0.089-0.062,0.119c-0.151,0.097-0.302,0.197-0.448,0.299c-0.031,0.021-0.057,0.026-0.092,0.009
			c-0.115-0.062-0.233-0.116-0.35-0.18c-0.046-0.022-0.073-0.018-0.105,0.018c-0.07,0.074-0.143,0.146-0.216,0.216
			c-0.034,0.033-0.041,0.06-0.018,0.104c0.062,0.115,0.117,0.233,0.178,0.35c0.019,0.034,0.017,0.06-0.006,0.093
			c-0.11,0.156-0.216,0.315-0.317,0.476c-0.029,0.046-0.059,0.061-0.105,0.056c-0.106-0.011-0.216-0.017-0.308-0.025
			c-0.102-0.001-0.102-0.001-0.137,0.083c-0.035,0.087-0.07,0.178-0.106,0.265c-0.018,0.037-0.015,0.059,0.02,0.085
			c0.1,0.081,0.193,0.163,0.289,0.248c0.017,0.016,0.031,0.048,0.025,0.067c-0.028,0.169-0.066,0.34-0.095,0.511
			c-0.011,0.049-0.028,0.067-0.072,0.081c-0.114,0.035-0.225,0.074-0.339,0.109c-0.037,0.013-0.054,0.032-0.052,0.074
			c0.001,0.107,0.004,0.217,0,0.324c-0.002,0.047,0.019,0.066,0.06,0.081c0.105,0.031,0.205,0.071,0.309,0.099
			c0.07,0.018,0.09,0.057,0.104,0.122c0.024,0.159,0.055,0.315,0.092,0.473c0.009,0.044,0,0.069-0.034,0.097
			c-0.099,0.08-0.194,0.162-0.289,0.249c-0.017,0.014-0.03,0.045-0.022,0.062c0.042,0.113,0.087,0.224,0.136,0.335
			c0.005,0.015,0.029,0.031,0.046,0.03c0.129-0.004,0.256-0.013,0.384-0.023c0.05-0.004,0.075,0.008,0.104,0.05
			c0.099,0.156,0.201,0.312,0.31,0.466c0.021,0.032,0.022,0.059,0.005,0.092c-0.06,0.117-0.117,0.234-0.18,0.351
			c-0.021,0.043-0.015,0.071,0.02,0.104c0.076,0.07,0.149,0.145,0.219,0.219c0.03,0.031,0.055,0.037,0.096,0.017
			c0.114-0.06,0.229-0.116,0.344-0.177c0.042-0.021,0.074-0.017,0.117,0.011c0.148,0.103,0.294,0.205,0.449,0.298
			c0.061,0.036,0.077,0.076,0.068,0.144c-0.013,0.103-0.015,0.206-0.022,0.31c-0.001,0.042,0.013,0.062,0.052,0.075
			c0.102,0.039,0.2,0.08,0.298,0.121c0.039,0.018,0.06,0.01,0.086-0.021c0.072-0.091,0.149-0.181,0.226-0.267
			c0.017-0.018,0.049-0.038,0.073-0.034c0.179,0.031,0.354,0.069,0.533,0.103c0.041,0.007,0.062,0.022,0.076,0.064
			c0.034,0.116,0.076,0.229,0.111,0.345c0.011,0.042,0.035,0.057,0.078,0.056c0.101-0.002,0.202-0.002,0.305,0
			c0.05,0.001,0.071-0.013,0.087-0.061c0.031-0.109,0.076-0.217,0.104-0.325c0.016-0.061,0.051-0.074,0.103-0.084
			c0.161-0.029,0.324-0.06,0.485-0.094c0.037-0.008,0.057-0.002,0.081,0.026c0.087,0.104,0.176,0.206,0.262,0.311
			c0.021,0.028,0.044,0.039,0.081,0.023c0.104-0.045,0.213-0.088,0.317-0.129c0.029-0.013,0.041-0.028,0.037-0.062
			c-0.012-0.136-0.018-0.271-0.026-0.404c-0.004-0.042,0.009-0.065,0.044-0.087c0.158-0.101,0.313-0.203,0.466-0.31
			c0.037-0.024,0.066-0.029,0.105-0.009c0.117,0.062,0.238,0.118,0.354,0.181c0.034,0.018,0.057,0.018,0.084-0.012
			c0.077-0.08,0.154-0.158,0.232-0.233c0.03-0.03,0.032-0.055,0.014-0.09c-0.062-0.117-0.118-0.237-0.18-0.354
			c-0.021-0.037-0.016-0.064,0.009-0.099c0.102-0.148,0.202-0.298,0.299-0.448c0.019-0.031,0.038-0.044,0.075-0.042
			c0.145,0.011,0.288,0.018,0.431,0.026c0.045,0.003,0.07-0.011,0.085-0.054c0.037-0.099,0.076-0.197,0.117-0.294
			c0.02-0.04,0.01-0.062-0.022-0.09c-0.109-0.089-0.216-0.185-0.323-0.275c-0.031-0.023-0.037-0.047-0.029-0.086
			c0.034-0.159,0.063-0.317,0.093-0.479c0.005-0.039,0.021-0.063,0.062-0.077c0.135-0.043,0.27-0.09,0.404-0.132
			c0.047-0.016,0.068-0.037,0.066-0.089c-0.004-0.102-0.004-0.204,0-0.306C35.465,70.569,35.443,70.547,35.395,70.532z
			 M31.392,71.818c-0.57,0.003-1.048-0.483-1.041-1.061c0.005-0.544,0.482-1.048,1.051-1.022c0.543-0.02,1.043,0.46,1.037,1.042
			C32.434,71.356,31.974,71.815,31.392,71.818z"/>
	</g>
</g>
<g id="Layer_4_2_">
</g>
<rect x="140.372" y="115.64" fill="#FFFFFF" stroke="#000000" stroke-width="0.6313" stroke-miterlimit="10" width="100.06" height="24.41"/>
<g>
	<text transform="matrix(1 0 0 1 152.1206 131.6367)" font-family="'MyriadPro-Regular'" font-size="11.3635">ResourceWorker</text>
</g>
<g>
	<text transform="matrix(1 0 0 1 35.2993 25.124)" font-family="'MyriadPro-Regular'" font-size="11.3635">helloWorld</text>
</g>
<g>
	<text transform="matrix(1 0 0 1 43.8784 74.7764)" font-family="'MyriadPro-Regular'" font-size="11.3635">sayHello</text>
</g>
<line fill="none" stroke="#000000" stroke-width="0.4" stroke-miterlimit="10" x1="191.158" y1="140.052" x2="191.158" y2="323.694"/>
<rect x="140.482" y="279.648" fill="#FFFFFF" stroke="#000000" stroke-width="0.4" stroke-miterlimit="10" width="101.106" height="24.37"/>
<rect x="140.374" y="157.695" fill="#FFFFFF" stroke="#000000" stroke-width="0.4" stroke-miterlimit="10" width="101.106" height="24.369"/>
<rect x="140.372" y="323.694" fill="#FFFFFF" stroke="#000000" stroke-width="0.6313" stroke-miterlimit="10" width="100.06" height="24.412"/>
<g>
	<text transform="matrix(1 0 0 1 152.4668 339.6895)" font-family="'MyriadPro-Regular'" font-size="11.3635">ResourceWorker</text>
</g>
<g>
	<path d="M55.473,141.307c-0.364,0.182-1.091,0.361-2.022,0.361c-2.16,0-3.784-1.361-3.784-3.876c0-2.397,1.624-4.022,4.001-4.022
		c0.953,0,1.556,0.206,1.815,0.342l-0.237,0.807c-0.375-0.183-0.909-0.317-1.545-0.317c-1.797,0-2.99,1.148-2.99,3.16
		c0,1.875,1.08,3.08,2.943,3.08c0.603,0,1.218-0.125,1.616-0.317L55.473,141.307z"/>
	<path d="M56.676,133.486h1v8.071h-1V133.486z"/>
	<path d="M60.471,134.509c0.011,0.342-0.238,0.615-0.636,0.615c-0.354,0-0.604-0.272-0.604-0.615c0-0.352,0.263-0.625,0.623-0.625
		C60.233,133.884,60.471,134.157,60.471,134.509z M59.357,141.557v-5.502h1v5.502H59.357z"/>
	<path d="M62.574,138.988c0.022,1.353,0.887,1.91,1.887,1.91c0.716,0,1.147-0.124,1.521-0.284l0.17,0.717
		c-0.35,0.159-0.951,0.341-1.831,0.341c-1.69,0-2.704-1.114-2.704-2.773c0-1.659,0.979-2.966,2.583-2.966
		c1.796,0,2.271,1.581,2.271,2.591c0,0.205-0.021,0.363-0.034,0.466L62.574,138.988L62.574,138.988z M65.507,138.271
		c0.011-0.638-0.262-1.625-1.387-1.625c-1.013,0-1.453,0.932-1.534,1.625H65.507z"/>
	<path d="M67.71,137.544c0-0.567-0.011-1.035-0.045-1.487h0.884l0.057,0.908h0.023c0.271-0.521,0.909-1.033,1.815-1.033
		c0.763,0,1.943,0.454,1.943,2.343v3.284h-1v-3.172c0-0.887-0.328-1.625-1.272-1.625c-0.658,0-1.172,0.466-1.342,1.021
		c-0.045,0.125-0.067,0.296-0.067,0.466v3.31h-1L67.71,137.544L67.71,137.544z"/>
	<path d="M75.176,134.475v1.581h1.432v0.761h-1.432v2.966c0,0.683,0.193,1.069,0.751,1.069c0.259,0,0.452-0.034,0.58-0.068
		l0.045,0.751c-0.191,0.081-0.5,0.137-0.884,0.137c-0.467,0-0.843-0.147-1.082-0.42c-0.283-0.294-0.385-0.782-0.385-1.433v-3.001
		h-0.854v-0.761H74.2v-1.318L75.176,134.475z"/>
</g>
<rect x="43.831" y="117.46" transform="matrix(-0.7071 0.7071 -0.7071 -0.7071 207.6088 190.1214)" fill="none" stroke="#000000" stroke-width="0.6313" stroke-miterlimit="10" stroke-dasharray="1.6,1.6" width="41.196" height="41.197"/>
<g>
	<path d="M55.362,334.149c-0.363,0.182-1.091,0.364-2.022,0.364c-2.16,0-3.785-1.364-3.785-3.88c0-2.397,1.626-4.021,4.001-4.021
		c0.955,0,1.557,0.204,1.818,0.342l-0.238,0.808c-0.375-0.183-0.912-0.316-1.548-0.316c-1.796,0-2.987,1.146-2.987,3.158
		c0,1.877,1.08,3.082,2.944,3.082c0.602,0,1.215-0.125,1.614-0.319L55.362,334.149z"/>
	<path d="M56.564,326.327h1v8.07h-1V326.327z"/>
	<path d="M60.361,327.353c0.012,0.341-0.241,0.613-0.639,0.613c-0.351,0-0.603-0.272-0.603-0.613c0-0.353,0.262-0.625,0.625-0.625
		C60.121,326.727,60.361,326.999,60.361,327.353z M59.246,334.398v-5.501h1v5.501H59.246z"/>
	<path d="M62.462,331.829c0.02,1.354,0.884,1.91,1.884,1.91c0.717,0,1.15-0.123,1.523-0.283l0.17,0.718
		c-0.354,0.157-0.955,0.343-1.831,0.343c-1.694,0-2.706-1.117-2.706-2.774c0-1.658,0.978-2.966,2.581-2.966
		c1.796,0,2.275,1.581,2.275,2.59c0,0.205-0.022,0.364-0.037,0.467L62.462,331.829L62.462,331.829z M65.395,331.114
		c0.011-0.637-0.262-1.625-1.387-1.625c-1.011,0-1.455,0.933-1.535,1.625H65.395z"/>
	<path d="M67.598,330.386c0-0.567-0.013-1.034-0.047-1.488h0.887l0.058,0.911h0.021c0.272-0.523,0.912-1.036,1.818-1.036
		c0.762,0,1.942,0.455,1.942,2.344v3.283h-1v-3.171c0-0.886-0.33-1.626-1.272-1.626c-0.659,0-1.17,0.466-1.34,1.022
		c-0.048,0.125-0.068,0.296-0.068,0.466v3.309h-1L67.598,330.386L67.598,330.386z"/>
	<path d="M75.064,327.317v1.58h1.433v0.762h-1.433v2.967c0,0.685,0.191,1.068,0.75,1.068c0.263,0,0.455-0.034,0.582-0.067
		l0.045,0.75c-0.192,0.08-0.5,0.138-0.887,0.138c-0.466,0-0.84-0.15-1.08-0.422c-0.284-0.295-0.387-0.782-0.387-1.434v-3.001h-0.854
		v-0.762h0.851v-1.315L75.064,327.317z"/>
</g>
<rect x="43.71" y="310.301" transform="matrix(-0.7071 0.7071 -0.7071 -0.7071 343.7628 519.4086)" fill="none" stroke="#000000" stroke-width="0.6313" stroke-miterlimit="10" stroke-dasharray="1.6,1.6" width="41.196" height="41.197"/>
<line fill="none" stroke="#000000" stroke-width="0.9824" stroke-miterlimit="10" x1="64.43" y1="167.191" x2="64.43" y2="301.771"/>
<g>
	<g>
		
			<line fill="none" stroke="#000000" stroke-width="0.9223" stroke-miterlimit="10" x1="133.753" y1="171.48" x2="64.43" y2="171.48"/>
		<g>
			<polygon points="132.408,166.88 140.372,171.48 132.408,176.079 			"/>
		</g>
	</g>
</g>
<g>
	<g>
		
			<line fill="none" stroke="#000000" stroke-width="0.6313" stroke-miterlimit="10" stroke-dasharray="1.6,1.6" x1="71.049" y1="291.831" x2="140.372" y2="291.831"/>
		<g>
			<polygon points="72.395,296.431 64.43,291.831 72.395,287.233 			"/>
		</g>
	</g>
</g>
<rect x="107.979" y="197.83" fill="#FFFFFF" stroke="#000000" stroke-width="0.4" stroke-miterlimit="10" width="164.521" height="24.369"/>
<text transform="matrix(1 0 0 1 180.1489 174.7617)" font-family="'MyriadPro-Light'" font-size="11.2">Start</text>
<text transform="matrix(1 0 0 1 116.6499 214.7598)" font-family="'MyriadPro-Light'" font-size="11.2">message response = {}</text>
<rect x="80.594" y="238.01" fill="#FFFFFF" stroke="#000000" stroke-width="0.5891" stroke-miterlimit="10" width="219.291" height="24.368"/>
<text transform="matrix(1 0 0 1 99.0918 254.9404)" font-family="'MyriadPro-Light'" font-size="11.2">message:setStringPayload(response, ‘Hell...</text>
<text transform="matrix(1 0 0 1 157.7334 296.272)" font-family="'MyriadPro-Light'" font-size="11.2">reply response</text>
</svg>
