<svg xmlns="http://www.w3.org/2000/svg" version="1" viewBox="0 0 1653 827">
  <path d="M10.2 10.2c-1.6 1.6-1.6 17 0 18.6 1 1 8 1.2 26 1.2H61V9H36.2c-18 0-25 .3-26 1.2zm9.6 5.5c-1 .2-1.8 1.7-2 3.6-.5 3-.5 3-.6-.6-.2-3.3 0-3.7 2-3.6 1.6 1 1.8 1 .6 1zM34.4 20c.8 1 .8 1.2 0 .7-.7-.4-1.5 0-1.7.5-.3.7-.5-.5-.5-2.7s.3-3 .5-2c.3 1 1 2.6 1.7 3.4zM29 18c-.8.5-1 1.5-.6 2.6.6 1.5.4 1.6-.5.7-2-1.3-1-4.3 1-4.3 1 0 1 .3 0 1zm11 1.7c.3 2.3-2 3-3.3 1.2-.3-1 0-1 1-1 1.7 0 2.2-2 .5-3-.6 0-.5-1 .2 0 .7 0 1.4 1 1.6 2zm2.7-.4c0 1.5-.4 2-1 1.6-.4-1-.5-2-.2-3 1-2 1.2-2 1.2 1zm7-.6c.2.7 0 .8-.2.2-1-2-2.5-1-2 1 .4 1 .3 2-.5 1-1.3-2-.2-5 1.4-4 .6 0 1.3 1 1.4 1zM26 20.5c0 1.7-2.5 2-3.5.5-.3-.6 0-.7 1-.4.8.3 1.5 0 1.5-.5s.2-1 .5-1 .5 1 .5 2zm18.7 2c-.4.8-1.2 1.5-2 1.4-1 0-1-1 0-1 .7 0 1.3-1 1.3-2s.3-2 .6-1c.4 0 .4 1 0 2zM10.2 53.2c-1.6 1.6-1.6 17 0 18.6 1 1 8 1.2 26 1.2H61V52H36.2c-18 0-25 .3-26 1.2zm7.5 10c-.2 1.3-.4.5-.4-1.7s0-3.2.4-2.3c.2 1 .2 2.8 0 4zm24 .5c-.3 1-.5.2-.5-1.7 0-2 .2-2.7.5-1.8.2 1 .2 2.6 0 3.5zm-14 1.5c-.2 1.3-.4.5-.4-1.7s0-3.2.4-2.3c.2 1 .2 2.8 0 4zm5.6-3.3c-.3 1 0 2 1.4 2 1.5 0 1.5 0 0 0-2 0-3-2-2.3-4 .8-2 1.5-2 1 0zM47 64c0 .6-.8 1-1.7 1-1 0-1.3-.4-.5-.7.6-.2 1-1 .6-1.5-.4-.7-.2-.8.4-.4.7.4 1.2 1 1.2 1.7zM10.2 96.2c-1.6 1.6-1.6 17 0 18.6 1 1 8 1.2 26 1.2H61V95H36.2c-18 0-25 .3-26 1.2zm11.2 5.7H20c-1.6-1-2 0-2 2s.3 2 2 2c1.7-1 2-1 1.2 0-1.6 1-4.2 0-4.2-3 0-2 .3-3 .7-3 1-1 3-1 3.7 0zm17.3 4c-.3 1-.5 0-.5-2s.2-3 .5-2c.2 1 .2 2 0 3zm-12.2-1c0 1-.6 2-1.3 2H25c.5 0 1-1 1-2s-.5-2-1-2c-.6-1-.5-1 .2-1s1.3 1 1.3 2zm2.2 1c-.3 1-.5 0-.5-1s.2-2 .5-2c.2 0 .2 2 0 3zm3 0c-.2 1-.4 1-1-1-.2-2 0-3 .5-2 .6 0 .8 2 .6 3zm3.5-3c-.6 0-1 1-.6 1s.2 1-.4 0c-1.8-1-1.4-3 .6-3 1 0 1.2 0 .4.4zm.5 4h-2c-.7-1-.4-1 .7-1h1.3zM9 487v316h1628V172H9v315.5zm1627-304v10l-11.2.2-11.3.2 11.3.3 11.2.4v608H10V194l779.3-.2 779.2-.3-769.2-.2L30 193v-20h1606v10zM20.4 179.5c.7 1.8-1.7 3.7-3.8 3-1-.4-1.6-1.5-1.6-2.5 0-3 4.2-3.4 5.4-.5zm5.2-.3c.4.6 0 1.6-.8 2.2-1.3 1-1.3 1.3-.2 2.4 1 1 1.2 1.8.4 3.2-1.4 2.6-4.6 2.6-6 0-.8-1.6-.7-2.3 1-3.7 1-1 2-2.5 2-3.5 0-2 2.5-2.4 3.6-.6z"/>
  <path d="M1574.3 193.7c3 .2 8.3.2 11.5 0 3-.2.5-.3-5.8-.3s-9 0-5.7.3zm23 0c3.2.2 8 .2 11 0s.3-.3-5.8-.3c-6 0-8.4 0-5.2.3zM21 200.4c-10.3 5.8-2.7 22.3 8.7 18.5 3.7-2 7.3-6 7.3-10 0-8-8.8-13-16-9zm1.5 8.6c0 2.2-.3 4-.7 4-1 0-1-6.4 0-7.3.2-.4.6-.7.6-.7v4zm9.5.6c0 2-.3 3.4-.7 3.4-.5 0-.8-1.8-.8-4 0-2 .3-3.6.8-3.3.4.2.7 2 .7 4zm-4.7-1.7c.3-2 1-2 1.2-2 .4 0 0 2-.8 3l-1.5 3-1-3c-1.6-4-1.4-5 .2-2l1.3 2 .6-3zM47 477v209h1552l-.2-208.8c0-114.8-.4-204.5-.5-199.5l-.4 9.3H66l.2-9 .3-9H47v208.5zm11.3-203c2 .7 2.5 1.5 2.3 4-.3 3.7-2.2 5.2-5.6 4.4-3-.7-2.6-.3-3.4-3.2-.5-1.4-.3-2.2.4-2.2.6 0 1-.4.5-1-.3-.5.3-1.3 1.2-2 2.2-1.2 1.7-1.2 4.6 0zM1598 486.4V685H48V288h1550v198.5z"/>
  <path d="M54.7 277.4c-.7 1.6 0 2.6 2 2.6.7 0 1.3-1 1.3-2 0-2.3-2.5-2.7-3.3-.6zm55.3 92.3l-11.5 11.8 11.8-11.5c11-10.7 12.2-12 11.4-12L110 369.7zm21-3.2c4.7 4.7 8.7 8.5 9 8.5.2 0-3.3-3.8-8-8.5s-8.7-8.5-9-8.5c-.2 0 3.3 3.8 8 8.5zm96 15.5v12h45v21h-45v5c0 4.6-.2 5-1.5 4-1.2-1-1.5-1-1.5.4 0 1.5-4.6 1.6-50.5 1.6H123v-20.5l11.8-12 11.7-12-12.2 12-12.3 12v215l12.3 12 12.2 12-11.7-12-11.8-12v-31c0-27.2.2-30.6 1.5-29.5 1.3 1 1.5.8 1.5-2s-.2-3-1.5-2-1.5-6-1.5-64v-65h50.5c46 0 50.5 0 50.5 1.6 0 1.3.3 1.4 1.4.4 1.3-1 1.5-.3 2 4.2 0 3 .3.2.4-6l.2-11.2h89l.3 11.2.3 11.3.2-11.8.2-11.7h-45v-21h45v-24h-91v12zm90-.5V392h-89v-21h89v10.5z"/>
  <path d="M235.8 377.7c.6.2 1.8.2 2.5 0 .6-.3 0-.5-1.3-.5-1.4 0-2 .2-1.2.5zm61.5 3.3c0 2.5 0 3.7.4 2.7.3-1 1-1.4 1.6-1 .7.3 1 .3.5-.2-.4-.4-.2-1.5.5-2.4 1-1 1-1-.5 0-1.4 1-1.7 1-2-1-.3-1-.5 0-.5 2zm-49.8-1c-.3.4 0 1.2.6 1.6 1 .4 1 .3 1-.4 0-.6 0-1.3 1-1.5 2-.4 2-.5 0-.6-1 0-2 1-2 1zm6.5-.6c0 .2.7.7 1.6 1 .8.3 1.2.2 1-.4-.7-1-2.6-1.4-2.6-.6zm8 2c0 1.5-.7 2.6-1.7 3-1.4.3-1.2.4.5.5 1.8 0 2.2-1 2.2-3s-.2-3-.5-3-.5 1-.5 2zm2 .8c.3 2.8.3 3 .7.8.3-1.4 1-2.8 1.7-3.2.7-.5.5-.8-.6-.8-1.4 0-1.8.8-1.7 3.2zm5-2.8c0 .2.7.7 1.6 1 .8.3 1.2.2 1-.4-.7-1-2.6-1.4-2.6-.6zm20 0c0 .2.7.7 1.6 1 .8.3 1.2.2 1-.4-.7-1-2.6-1.4-2.6-.6zm5 .6c0 .6.5.8 1 .5.6-.3 1-.8 1-1 0-.3-.4-.5-1-.5-.5 0-1 .5-1 1zm9.8-.3c.7.3 1.6.2 2 0 .3-.4-.3-.7-1.4-.6-1 0-1.4 1-.6 1zm4.2.3c0 .6.5.8 1 .5.6-.3 1-.8 1-1 0-.3-.4-.5-1-.5-.5 0-1 .5-1 1zm-71 1c-2.3.7-2.3.8-.3 1 1.2 0 2.5-.5 2.8-1 .3-.6.5-1 .3-1-.2.2-1.4.6-2.8 1zm5.8.7c.6.2 1.8.2 2.5 0 .6-.3 0-.5-1.3-.5-1.4 0-2 .2-1.2.5zm31 0c.6.2 1.8.2 2.5 0 .6-.3 0-.5-1.3-.5-1.4 0-2 .2-1.2.5zm5.2-.2c0 .5.5 1.7 1 2.5s1 1 1 .5c0-.6-.5-1.7-1-2.5s-1-1-1-.5zm23.2 1.2c.2 1 1.2 2 2.3 2 1.6 0 1.6 0 .3-.3-1-.3-1.8-1-1.8-1.4 0-.5.8-1 1.8-1.3 1.2-.3 1-.5-.6-.6-1.7 0-2.3 1-2 2zm-59.5 1.3c.7.8 1.5 1 1.8.8.3-.3-.2-1-1.2-1.2-1.4-.6-1.5-.5-.6.5zm31 0c.7.8 1.5 1 1.8.8.3-.3-.2-1-1.2-1.2-1.4-.6-1.5-.5-.6.5zm-25 .7c.8.3 1.7.2 2 0 .4-.4-.2-.7-1.3-.6-1 0-1.4 1-.6 1zM116.4 381c0 2.5.2 3.5.4 2.2.2-1.2.2-3.2 0-4.5-.2-1.2-.4-.2-.4 2.3zm16.5-2.5c-1 .7 0 6.5 1 6.5v-6.5c-1-.3-1-.3-1 0zm-23 2c-1 3.2 2 6.3 4 3.6h-1c-1 0-2 0-2-1l1-1h1c-1-1-4-1-4 1zm9 1.5v-1.8c-1-1-1 0-1 1.8zm2-1.6c-1 2.3 0 4.6 2 4.5 1-1 1-1 0-1-3-1-2-3 0-3 1 0 2-1 2-2-1-2-4-2-5-1zm3 .2c-1 .3-1 .4-2 0-1-.2-1-.5 0-.5s1 1 1 1zm2 1.6v.5c0-1.5 1-2.7 1-2.7s1 1.2 1.2 2.7c.4 2.6.4 2.6.6-.5 0-2.6 0-3.2-2-3.2s-2 .6-2 3.2zm-28 0c0 .3 1 1.7 3 3.4l3 3-3-3.4c-3-3-4-3.7-4-3zm169 44.3c0 2 0 3.5 1 3.5s0-1.6 0-3.5c0-2-1-3.5-1-3.5s-1 1.6-1 3.5zm-4-1.8c0 .3 1 .2 2 0 0-.4-1-.7-2-.6-1 0-2 1-1 1zm9 0c0 .3 1 .2 2 0 0-.4-1-.7-2-.6-1 0-2 1-1 1zm4 .3c0 .6 0 .8 1 .5 0-.3 1-.8 1-1 0-.3-1-.5-1-.5-1 0-1 .5-1 1zm-6 2c-1 .5-1 1.4 0 2 1 1.3 3 1.3 3 0 0-.5-.8-.7-1.6-.4-.8.4-1.5 0-1.5-.4 0-.6 1-1.3 2-1.5 1.5-.4 1.5-.5 0-.6-1 0-2 1-2.3 1zm-8 2.7c0 .3 1 .2 2 0 0-.4-1-.7-2-.6-1 0-1.4 1-.6 1zm8 17l-.6 9.3h-56v24h56v21l-56 .2c-38 .2-19 .5 56.3.8 62 .3 112.7.2 112.7-.3 0-.4-25-.7-56-.7h-56v-21h56v-24h-56v-9.3l-.2-9.2v9.2zm56 21.3v11H217v-22h111v11z"/>
  <path d="M221 466c0 .5.6.7 1.4.4 1-.4 1.6.3 2 2 .3 2.6.3 2.6.2 0 0-2-.7-3-1.8-3.2-1-.2-1.8 0-1.8.7zm15.8-.3c.7.3 1.6.2 2 0 .3-.4-.3-.7-1.4-.6-1 0-1.4 1-.6 1zm5 0c.7.3 1.6.2 2 0 .3-.4-.3-.7-1.4-.6-1 0-1.4 1-.6 1zm6.2 0c.7.3.4 1-.7 2-1.7 1-1.6 1.2.5.6 2.3-.6 2.6-2.5.4-3-.8 0-.8 0-.2.4zm5.3 0c1 .2 1.7 1.3 1.7 2.4 0 2-.7 2-1.7 2-1.5 0-1.5 1 .2 1 1.6 1 1.7 1 .5 2-1.3 1-1.3 1 0 1 1 0 1.6-1 1.8-4 .3-3 0-3-2-3-1.7 0-1.8 1-.5 1zm5.5 0c.7.3 1.6.2 2 0 .3-.4-.3-.7-1.4-.6-1 0-1.4 1-.6 1zm15.7.3c-.3.4 0 1.2.6 1.6 1 .4 1 .3 1-.4 0-.6 0-1.3 1-1.5 2-.4 2-.5 0-.6-1 0-2 1-2 1zm5.5-.2c0 .4 1 .8 2 .8s1.6-.4 1.4-.8c-.3-.4-1.2-.8-2-.8s-1.4.4-1.4.8zm6-.4c0 .2 1 .6 2 1 1 .2 1.8 0 1.4-.5-.5-1-3.4-2-3.4-1zm5 2.8c.3 3 .3 3 .7.6.2-1.5 1.2-3 2-3 1.3-.4 1-.6-.4-.7-2 0-2.3 1-2.2 4zm6.5-2.2c-.3.4 0 1.2.6 1.6 1 .4 1 .3 1-.4 0-.6 0-1.3 1-1.5 2-.4 2-.5 0-.6-1 0-2 1-2 1zm6.3-.3c.7.3 1.6.2 2 0 .3-.4-.3-.7-1.4-.6-1 0-1.4 1-.6 1zm8 1c.7.3 1.6.2 2 0 .3-.4-.3-.7-1.4-.6-1 0-1.4 1-.6 1zm7.2 1c0 1 .4 1.3.7.5.3-.7.2-1.6 0-2-.4-.3-.7.3-.6 1.4zm-88.2 0c.6.2 1.8.2 2.5 0 .6-.3 0-.5-1.3-.5-1.4 0-2 .2-1.2.5zm26.2.3c0 .3 1 .5 2.5.2 1.4-.2 2.5-.6 2.5-.8 0-.2-1-.4-2.5-.4-1.4 0-2.5.4-2.5 1zm12.8-.3c.6.2 1.8.2 2.5 0 .6-.3 0-.5-1.3-.5-1.4 0-2 .2-1.2.5zm32.2.3c0 .3 1 .5 2.5.2 1.4-.2 2.5-.6 2.5-.8 0-.2-1-.4-2.5-.4-1.4 0-2.5.4-2.5 1zm-58.6.8c.3.6-.2 1.3-1 1.5-1.7.4-1.7.5-.2.6 2 0 3.2-2 1.7-3-1-1-1-1-1 0zm68.4 0c.7.2 1.6 0 2 0 .3-.5-.3-.8-1.4-.7-1 0-1.4 1-.6 1zm-81 1.2c.6.8 1.4 1 1.7.8.3-.3-.2-1-1.2-1.2-1.4-.6-1.5-.5-.6.5zm16.7 0c-2 .8-2 1 .3 1 1.2 0 2.2-.5 2.2-1 0-.6 0-1-.2-1l-2.3 1zm22.2 0c.7.8 1.5 1 1.8.8.3-.3-.2-1-1.2-1.2-1.4-.6-1.5-.5-.6.5zm11.8 0c-1.6.7-1.7 1-.3 1 1 0 2-.5 2.3-1 .7-1 .7-1-2 0zm6 0c-1.6.7-1.7 1-.3 1 1 0 2-.5 2.3-1 .7-1 .7-1-2 0zm-50.7.7c.7.3 1.6.2 2 0 .3-.4-.3-.7-1.4-.6-1 0-1.4 1-.6 1zm22 0c.7.3 1.6.2 2 0 .3-.4-.3-.7-1.4-.6-1 0-1.4 1-.6 1zm17 0c.7.3 1.6.2 2 0 .3-.4-.3-.7-1.4-.6-1 0-1.4 1-.6 1zm23 0c.7.3 1.6.2 2 0 .3-.4-.3-.7-1.4-.6-1 0-1.4 1-.6 1zm5 0c.7.3 1.6.2 2 0 .3-.4-.3-.7-1.4-.6-1 0-1.4 1-.6 1zm-69 39c.7.3 1.6.2 2 0 .3-.4-.3-.7-1.4-.6-1 0-1.4 1-.6 1zm25.2 3.5c.2 2.4.4 3.5.7 2.5.2-1 1-1.7 1.8-1.7s1.6-.4 2-1c.3-.4-.4-.6-1.5-.3-1.4.4-2 0-2-1.2s.6-1.6 2-1.2c1 .3 1.8 0 1.4-.4-.3-1-1.4-1-2.5-1-2 0-2 0-2 4zm33.2-2.7c-.7 1-.8 1.5-.2 1.5 1.4 0 1.3 3.7-.2 4.3-.8.3-.6.6.5.6 1.3 0 1.7-1 1.7-4 0-5 0-5-1.8-3zm72 2.5c0 2.5.3 3.5.5 2.2.2-1.2.2-3.2 0-4.5-.2-1.2-.4-.2-.4 2.3zm-126.2-.2c0 1.7.3 3.3.8 3.5 1 .6.8-5 0-6-.5-.3-.8.8-.8 2.5zm-70 1.4c.3 3.2.3 3.2.7.5.3-2 1-2.7 2-2.3.7.3 1.3 0 1.3-.4 0-.6-1-1-2-1-1.6 0-2 .6-2 3.2zm5.6-2.5c.7.4 1.4 2 1.7 3.3.4 2.2.5 2 .4-.4 0-1.7-1-3-1.7-3.3-1-.3-1-.2-.4.4zm5.2 0c.7.3 1.6.2 2 0 .3-.4-.3-.7-1.4-.6-1 0-1.4 1-.6 1zm5 0c.7.3 1.6.2 2 0 .3-.4-.3-.7-1.4-.6-1 0-1.4 1-.6 1zm4.7.3c-1 1.7 0 2 1.3.4.7-.8.8-1.4.3-1.4 0 0-1 .5-1 1zm6.3-.3c.7.3 1.6.2 2 0 .3-.4-.3-.7-1.4-.6-1 0-1.4 1-.6 1zm4.8.3c-.4.4.3.6 1.4.3 2.3-.6 2.6-1.3.6-1.3-.8 0-1.7.4-2 1zm7.4-.2c1 .8 1 1-.6 1.5-1.6.4-1.5.5.4.6 2.5 0 2.6-2 0-3-1-1-1 0 0 0zm3.5.2c-.3.4 0 1.2.6 1.6 1 .4 1 .3 1-.4 0-.6 0-1.3 1-1.5 2-.4 2-.5 0-.6-1 0-2 1-2 1zm8.3-.3c.7.3 1.6.2 2 0 .3-.4-.3-.7-1.4-.6-1 0-1.4 1-.6 1zm26.4 2.3c0 2 .2 2.7.5 1.7.2-1 .2-2.5 0-3.5-.3-1-.5 0-.5 1.8zm1.8.2c.3 3 .3 3 .7.6.2-1.5 1.2-3 2-3 1.3-.4 1-.6-.4-.7-2 0-2.3 1-2.2 4zm6.6-2.2c-.4.4.3.6 1.4.3 2.3-.6 2.6-1.3.6-1.3-.8 0-1.7.4-2 1zm13.2-.3c.7.3 1.6.2 2 0 .3-.4-.3-.7-1.4-.6-1 0-1.4 1-.6 1zm11.7.3c-.4.6-.4 1.4 0 1.7.2.4.5 0 .5-.5 0-.7.7-1.2 1.5-1.2 1 0 1.5 1 1.5 2 0 1.8-.5 2-2 1.7-1.7-.4-2-.3-1.2.5 1.7 1.7 4.4 0 4-2.4-.3-2.5-3.2-3.6-4.3-1.8zm7.5-.3c.7.3.4 1-.7 2-1.7 1-1.6 1.2.5.6 2.3-.6 2.6-2.5.4-3-.8 0-.8 0-.2.4zm13 .3c0 .6.5.8 1 .5.6-.3 1-.8 1-1 0-.3-.4-.5-1-.5-.5 0-1 .5-1 1zm4.8-.3c.7.3 1.6.2 2 0 .3-.4-.3-.7-1.4-.6-1 0-1.4 1-.6 1zm5 0c.7.3 1.6.2 2 0 .3-.4-.3-.7-1.4-.6-1 0-1.4 1-.6 1zm4.2 3.5c0 2.4.4 3.8.8 3.2.4-.6 1.4-1.4 2.2-1.7 1.2-.4 1-.6-.2-.6-1 0-1.8 0-1.8-2 0-1 .8-2 1.8-2h-.5c-2 0-2.3 1-2.3 4zm7-3.8c0 .2.7.7 1.6 1 .8.3 1.2.2 1-.4-.7-1-2.6-1.4-2.6-.6zm5 .6c0 .5.6.7 1.4.4 1-.4 1.6.3 2 2 .3 2.6.3 2.6.2 0 0-2-.7-3-1.8-3.2-1-.2-1.8 0-1.8.7zm6.8-.3c.7.3 1.6.2 2 0 .3-.4-.3-.7-1.4-.6-1 0-1.4 1-.6 1zm6.2 0c1 1 1 1-.6 1.6-1.6.4-1.5.5.4.6 2.5 0 2.6-2 0-3-1-1-1 0 0 0zm23 0c1 1 1 1-.6 1.6-1.6.4-1.5.5.4.6 2.5 0 2.6-2 0-3-1-1-1 0 0 0zm-7.7 1c1 .2 2.3.2 3 0 .6-.3 0-.5-1.8-.5-1.6 0-2.2.2-1.2.5zm-176 2c0 1 1 2 2.2 2 1.6 0 1.6 0 .3-.3-1-.3-1.8-1-1.8-1.4 0-.5.8-1 1.8-1.3 1.2-.3 1-.5-.6-.6-1.7 0-2.3 1-2 2zm16.2-.7c-.3.5-.3 1.4 0 2 .8 1.3 3.5 1.3 3.5 0 0-.5-.7-.7-1.5-.4-.8.4-1.5 0-1.5-.4 0-.6.8-1.3 1.8-1.5 1.5-.4 1.5-.5 0-.6-1 0-2 1-2.3 1zm30.3-.3c.6.2 1.8.2 2.5 0 .6-.3 0-.5-1.3-.5-1.4 0-2 .2-1.2.5zm11.7.5c.4 1 0 1.8-1.2 2-1.5.5-1.6.6 0 .7 2 0 3.2-2 1.8-4 0-1-1-1 0 0zm30-.2c-.3.5-.3 1.4 0 2 .8 1.3 3.5 1.3 3.5 0 0-.5-.7-.7-1.5-.4-.8.4-1.5 0-1.5-.4 0-.6.8-1.3 1.8-1.5 1.5-.4 1.5-.5 0-.6-1 0-2 1-2.3 1zm36.7.7c.2 1 1.2 2 2.3 2 1.6 0 1.6 0 .3-.3-1-.3-1.8-1-1.8-1.4 0-.5.8-1 1.8-1.3 1.2-.3 1-.5-.6-.6-1.7 0-2.3 1-2 2zm-116.8 0c.3.7-.2 1.4-1 1.6-1.7.4-1.7.5-.2.6 2 0 3.2-2 1.7-3-1-1-1-1-1 0zm5.6 0c0 .7-.8 1.4-1.7 1.6-1.6.4-1.6.5 0 .6 1.7 0 3.3-2 2.3-3-.3-1-.6 0-.6 0zm29.4 0c.3.7-.2 1.4-1 1.6-1.7.4-1.7.5-.2.6 2 0 3.2-2 1.7-3-1-1-1-1-1 0zm90 0c.3.7-.2 1.4-1 1.6-1.7.4-1.7.5-.2.6 2 0 3.2-2 1.7-3-1-1-1-1-1 0zm-110.6 1.5c.5.5 1.6.8 2.3.6 1-.3 1-.7-1-1-1-.5-2-.4-1 .4zm24-.2c.6.8 1.4 1 1.7.8.3-.3-.2-1-1.2-1.2-1.4-.6-1.5-.5-.6.5zm30 .2c.5.5 1.6.8 2.3.6 1-.3 1-.7-1-1-1-.5-2-.4-1 .4zm31.7-.2c-2 .8-2 1 .3 1 1.2 0 2.2-.5 2.2-1 0-.6 0-1-.2-1l-2.3 1zm-73.7.7c.7.3 1.6.2 2 0 .3-.4-.3-.7-1.4-.6-1 0-1.4 1-.6 1zm120 0c.7.3 1.6.2 2 0 .3-.4-.3-.7-1.4-.6-1 0-1.4 1-.6 1zm-117 8l56.2.3v21h-45v24h45v62h-45v24h91v-24h-45v-62h45l-.2-11.8-.3-11.7-22.2-.3-22.3-.2v-21l56.3-.3c31 0 5.4-.2-56.8-.2-62 0-87.7 0-56.7.2zM317 558v11h-89v-22h89v11zm0 86.5V655h-89v-21h89v10.5z"/>
  <path d="M240 557c0 .6.5.8 1 .5.6-.3 1-.8 1-1 0-.3-.4-.5-1-.5-.5 0-1 .5-1 1zm4.8-.3c.7.3 1.6.2 2 0 .3-.4-.3-.7-1.4-.6-1 0-1.4 1-.6 1zm5.5 0c1 .2 1.7 1.3 1.7 2.3s-.8 2-1.7 2.4c-1.4.4-1.4.4.2.3 1.4-.2 2-1 2-2.7 0-1.7-.6-2.5-2-2.7-1.6 0-1.6 0-.2.3zM264 559c.3 2.8.3 3 .7.8.3-1.4 1-2.8 1.7-3.2.7-.5.5-.8-.6-.8-1.4 0-1.8.8-1.7 3.2zm6-2.4c1 .8 1 1-.6 1.5s-1.5 1 .4 1c2.5 0 2.6-2 0-3-1 0-1 0 0 1zm3.5.2c-.3.4 0 1.2.6 1.6 1 .4 1 .3 1-.4 0-.6 0-1.3 1-1.5 2-.4 2-.5 0-.6-1 0-2 0-2 1zm6.8-.4c1 .3 1.7 1.4 1.7 2.4s-.8 2-1.7 2.4c-1.4.4-1.4.4.2.3 1.4-.2 2-1 2-2.7 0-1.7-.6-2.5-2-2.7-1.6 0-1.6 0-.2 1zm4.2.4c-.4.6-.4 1.4 0 1.7.2.4.5 0 .5-.5 0-.7.7-1.2 1.5-1.2 1 0 1.5 1 1.5 2 0 1.8-.5 2-2 1.7-1.7-.4-2-.3-1.2.5 1.7 1.7 4.4 0 4-2.4-.3-2.5-3.2-3.6-4.3-1.8zm5.5 2.2c.3 3 .3 3 .7.6.2-1.5 1.2-3 2-3 1.3-.4 1-.6-.4-.7-2 0-2.3 0-2.2 3zm6.5-2.2c-1 1.7 0 2 1.3.4.7-.8.8-1.4.3-1.4 0 0-1 .5-1 1zm6.3-.3c.7.3 1.6.2 2 0 .3-.4-.3-.7-1.4-.6h-.6zm-59.6 3c.2 1 1.2 2 2.3 2 1.6 0 1.6 0 .3-.3-1-.3-1.8-1-1.8-1.4 0-.5.8-1 1.8-1.3 1.2-.3 1-.5-.6-.6-1.7 0-2.3 0-2 1zm58 0c.2 1 1.2 2 2.3 2 1.6 0 1.6 0 .3-.3-1-.3-1.8-1-1.8-1.4 0-.5.8-1 1.8-1.3 1.2-.3 1-.5-.6-.6-1.7 0-2.3 0-2 1zm-2.2 0c0 .7-.8 1.4-1.7 1.6-1.6 1-1.6 1 0 1 1.7 0 3.3-2 2.3-3-.3 0-.6 0-.6 1zm-24.2 2c.7.3 1.6.2 2 0 .3-.4-.3-.7-1.4-.6h-.6zm-39 79c.6.2 1.8.2 2.5 0 .6-.3 0-.5-1.3-.5-1.4 0-2 .2-1.2.5zm61.5 3.3c0 2.5 0 3.7.4 2.7.3-1 1-1.4 1.6-1 .7.3 1 .3.5-.2-.4-.4-.2-1.5.5-2.4 1-2 1-2-.5 0-1.4 1-1.7 1-2-1-.3-2-.5-1-.5 2zm-49.8-1c-.3.4 0 1.2.6 1.6 1 .4 1 .3 1-.4 0-.6 0-1.3 1-1.5 2-.4 2-.5 0-.6-1 0-2 0-2 1zm6.5-.6c0 .2.7.7 1.6 1 .8.3 1.2.2 1-.4-.7-1-2.6-1.4-2.6-.6zm8 2c0 1.5-.7 2.6-1.7 3-1.4.3-1.2.4.5.5 1.8 0 2.2-.6 2.2-3 0-1.8-.2-3-.5-3s-.5 1-.5 2.3zm2 .8c.3 2.8.3 3 .7.8.3-1.4 1-2.8 1.7-3.2.7-.5.5-.8-.6-.8-1.4 0-1.8.8-1.7 3.2zm5-2.8c0 .2.7.7 1.6 1 .8.3 1.2.2 1-.4-.7-1-2.6-1.4-2.6-.6zm20 0c0 .2.7.7 1.6 1 .8.3 1.2.2 1-.4-.7-1-2.6-1.4-2.6-.6zm5 .6c0 .6.5.8 1 .5.6-.3 1-.8 1-1 0-.3-.4-.5-1-.5-.5 0-1 .5-1 1zm9.8-.3c.7.3 1.6.2 2 0 .3-.4-.3-.7-1.4-.6h-.6zm4.2.3c0 .6.5.8 1 .5.6-.3 1-.8 1-1 0-.3-.4-.5-1-.5-.5 0-1 .5-1 1zm-71 1c-2.3.7-2.3.8-.3 1 1.2 0 2.5-.5 2.8-1 .3-.6.5-1 .3-1-.2.2-1.4.6-2.8 1zm5.8.7c.6.2 1.8.2 2.5 0 .6-.3 0-.5-1.3-.5-1.4 0-2 .2-1.2.5zm31 0c.6.2 1.8.2 2.5 0 .6-.3 0-.5-1.3-.5-1.4 0-2 .2-1.2.5zm5.2-.2c0 .5.5 1.7 1 2.5s1 1 1 .5c0-.6-.5-1.7-1-2.5s-1-1-1-.5zm23.2 1.2c.2 1 1.2 2 2.3 2 1.6 0 1.6 0 .3-.3-1-.3-1.8-1-1.8-1.4 0-.5.8-1 1.8-1.3 1.2-.3 1-.5-.6-.6-1.7 0-2.3 0-2 1zm-59.5 1.3c.7.8 1.5 1 1.8.8.3-.3-.2-1-1.2-1.2-1.4-.6-1.5-.5-.6.5zm31 0c.7.8 1.5 1 1.8.8.3-.3-.2-1-1.2-1.2-1.4-.6-1.5-.5-.6.5zm-25 .7c.8.3 1.7.2 2 0 .4-.4-.2-.7-1.3-.6h-.6zm-145.7-8c-2.4 2.5-4.2 4.5-4 4.5.4 0 2.6-2 5-4.5s4.2-4.5 4-4.5c-.4 0-2.6 2-5 4.5zm13.3 4.5c0 2.5.2 3.5.4 2.2.2-1.2.2-3.2 0-4.5-.2-1.2-.4-.2-.4 2.3zm16.5-2.5c-.6.7.3 6.5 1 6.5.8 0 .8-5.8 0-6.5-.2-.3-.7-.3-1 0zm-22.4 2c-1.2 3.2 2.3 6.3 4 3.6h-1.2c-1 0-1.7 0-1.7-1 0 0 .8-1 1.7-1h1.2c-.8-1-3.4-1-4 1zm8.8 1.5c0 2 .2 2.7.5 1.7.2-1 .2-2.5 0-3.5-.3-1-.5 0-.5 1.8zm2.2-1.6c-1 2.3.3 4.6 2.3 4.5 1.7-1 1.7-1 0-1-2.4-1-2-3 .4-3 2 0 2-1 2-2 0-2-3-2-4-1zm3.3.2c-.3.3-1.2.4-2 0-.7-.2-.4-.5.7-.5 1 0 1.7 1 1.3 1zm2.3 1.6c.3 3 .3 3 .7.5.2-1.5.8-2.7 1.3-2.7s1 1.2 1.3 2.7c.4 2.6.4 2.6.6-.5 0-2.6-1-3.2-2-3.2s-2 .6-2 3.2zm-17 11.3c6.3 6.3 11.7 11.5 12 11.5.2 0-4.7-5.2-11-11.5S99.3 645 99 645c-.2 0 4.7 5.2 11 11.5zm21.5 2.7l-9 9.3 9.3-9c8.5-8.3 9.7-9.5 9-9.5-.2 0-4.4 4.2-9.3 9.2zm-25.7-383.5c.7.3 1.6.2 2 0 .3-.4-.3-.7-1.4-.6-1 0-1.4 1-.6 1zm-17.5 1c1 .2 2.3.2 3 0 .6-.3 0-.5-1.8-.5-1.6 0-2.2.2-1.2.5zM21 186c0 .5.5 1 1 1 .6 0 1-.5 1-1 0-.6-.4-1-1-1-.5 0-1 .4-1 1z"/>
</svg>
