<svg xmlns="http://www.w3.org/2000/svg" width="500" height="289">
  <path fill="#FFF" stroke="#000" stroke-width=".5" stroke-miterlimit="10" d="M10 9.3h482v21H10z"/>
  <path fill="#939598" d="M441.8 22.2v-3h.7V23H435v-7.6h3.7v.7H435.8v6.2h6zm-.4-5.5l-1-.8.4-.6 1.7 1.6-1.4 1.6-.3-.5.6-.7c-1.8.2-3 1-4 2.2 0 .3-.3.6-.4 1-.2.2-.3.5-.3.7v.3h-.6v-.3l.3-.6c0-.3 0-.6.3-1l.5-.8 1-1 1.5-.7 2-.3zM455.8 22.2v-3h.7V23H449v-7.6h3.7v.7H449.8v6.2h6zm.7-6.8v.6h-.3s-.4 0-.7.2c-.4 0-.7.3-1 .5-1.2.8-2 2-2 4l.7-.7.4.4-1.6 1.4-1.5-1.7.4-.3.8 1c0-.7.2-1.4.4-2s.4-1 .7-1.3l.8-1 1-.5c.3-.3.6-.4.8-.4l.7-.2h.2zM465.2 15.4h3v1h1.7v1h-6.7v-1h2v-1zm-1.4 2.7h5.7v5h-5.7v-5zm1.3.7v3.6h1v-3.6h-1zm2.3 0v3.6h1v-3.6h-1zM481 21.2l-4-3.6.7-.6 3.2 3 3-3 .7.7-3.8 3.5z"/>
  <path fill="#939598" stroke="#000" stroke-width=".3" stroke-miterlimit="10" d="M431.3 15.3v8M445.6 15.7v8M459.8 15.3v8M473.5 15.3v8"/>
  <path d="M9.8 9.3h18v21H10z"/>
  <path fill="#FFF" d="M22 16.7l-.3.5h-1l-.5 2.7-1 2.7c-.4 1-1 1.5-1.4 2l-1 .3c-.4 0-.6 0-.7-.3v-.4-.3h.7V24.6h.7c0-.2.3-.3.5-.6l.3-1 .5-1.6 1-4.2h-1v-.5h.8l.4-.3.4-.8.7-1 1-1 1-.2c.4 0 .6 0 .8.2.2.2.3.3.3.5v.5h-.7s-.2 0-.2-.2l.2-.3v-.2s0-.2-.2-.2c-.3 0-.5 0-.7.3-.3 0-.5.4-.7 1-.2.2-.4.8-.7 1.7h1z"/>
  <path d="M35.3 49.8c1-1 2.3-1.6 3.8-1.6s2.8.5 3.8 1.6c1 1 1.6 2.3 1.6 3.7 0 1.5-.5 2.7-1.6 3.8s-2.3 1.5-3.7 1.5-2.6-.5-3.7-1.5-1.5-2.3-1.5-3.8c0-1.4.5-2.7 1.5-3.7zm2 5.8v-.4c-.3 0-.4-.2-.4-.4v-.3-.4c0-.2-.2-.4-.4-.5.2 0 .3-.3.3-.5v-.4-.4c0-.2 0-.3.2-.3h.2v-.5h-.2c-.5 0-.8.2-.8.7v.8c0 .2 0 .4-.2.4v.3c.2 0 .3 0 .3.3v.8c0 .5.2.8.7.8h.2zm2-.6l1-3h-.5l-.5 1.5-.2 1c0-.3 0-.6-.2-1l-.5-1.4h-.5l1 3h.5zm2.7-1.3v-.3c-.2 0-.4-.2-.4-.4v-.4-.4c0-.5 0-.7-.7-.7h-.2v.4c.4 0 .5 0 .5.2v.8c0 .2 0 .4.2.5-.2 0-.3.3-.3.6v.8c0 .2 0 .4-.3.4h-.2v.4h.2c.5 0 .7-.3.7-.8v-.4-.4c0-.2 0-.3.3-.3z"/>
  <path fill="#AEADAE" d="M46 49.6h7.5V57H46z"/>
  <path fill="#FFF" d="M52 53v.5h-2v2h-.5v-2h-2V53h2v-2h.5v2h2z"/>
  <path fill="#EFEFEF" d="M55.2 48.2H66V59H55z"/>
  <path fill="#8D8D8D" d="M58.6 53.3l3-3 .4.4-2.5 2.6L62 56l-.5.4-3-3z"/>
  <path fill="none" stroke="#000" stroke-width=".4" stroke-miterlimit="10" d="M10 30.3h482V280H10z"/>
  <g>
    <path fill="none" stroke="#000" stroke-width=".5" stroke-miterlimit="10" d="M547.4 572.6h460V962h-460z"/>
    <path fill="#FFF" stroke="#000" stroke-width=".5" stroke-miterlimit="10" d="M537.2 511.2h482v21h-482z"/>
    <path fill="#939598" d="M969.2 524v-3h.7v3.8h-7.6v-7.5h3.7v.7h-2.8v6h6zm-.5-5.4l-1-1 .5-.3 1.7 1.5-1.5 1.6-.5-.4.7-.8c-1.8.2-3.2 1-4 2 0 .4-.3.7-.4 1l-.2.8v.3h-.5v-.2-.5l.4-1 .5-1 1-.8c.3-.3.8-.5 1.3-.7l2-.4zM983.2 524v-3h.7v3.8h-7.6v-7.5h3.7v.7h-2.8v6h6zm.7-6.7v.5h-.4s-.4 0-.7.3l-1 .5c-1.4.8-2 2-2.2 4l.8-.7.4.4-1.6 1.5-1.6-1.7.5-.4.8 1c.2-.8.3-1.4.6-2l.7-1.4 1-1 1-.5.7-.3H984zM992.6 517.3h2.8v1h2v.8h-6.7v-.8h2v-1zm-1.4 2.6h5.6v4.8h-5.6v-5zm1.2.5v3.6h1v-3.5h-1zm2.3 0v3.6h1v-3.5h-1zM1008.3 523l-3.8-3.6.6-.6 3.3 3 3.2-3 .6.7-3.7 3.6z"/>
    <path fill="#939598" stroke="#000" stroke-width=".3" stroke-miterlimit="10" d="M958.7 517v8.3M973 517.5v8.2M987.2 517v8.3M1001 517v8.3"/>
    <path d="M537.2 511.2h18v21h-18z"/>
    <path fill="#FFF" d="M549.2 518.6v.4h-1l-.7 2.7c-.3 1.2-.6 2-1 2.8-.3 1-.8 1.5-1.3 2l-1 .3c-.4 0-.6 0-.8-.2l-.2-.4c0-.2 0-.3.2-.4h.7s.2 0 .2.2c0 0 0 .2-.2.3v.2h.7l.5-.6.5-1 .5-1.8 1-4.2h-1v-.4h.8c0-.2.2-.2.3-.4l.5-.7.7-1.2c.3-.4.6-.6 1-.8.3-.2.6-.3 1-.3.2 0 .5 0 .7.2.2.2.2.4.2.6v.3l-.5.2h-.4v-.4-.3-.2h-.2c-.3 0-.5 0-.7.2-.3.2-.6.6-.8 1l-.7 2h1z"/>
    <path d="M562.7 551.6c1-1 2.3-1.6 3.7-1.6 1.5 0 2.8.6 3.8 1.6s1.6 2.3 1.6 3.8c0 1.4-.6 2.7-1.6 3.7s-2.3 1.7-3.8 1.7c-1.4 0-2.7-.6-3.7-1.6s-1.6-2.2-1.6-3.6c0-1.5.7-2.8 1.7-3.8zm2 5.8v-.4c-.4 0-.5 0-.5-.4v-.3-.4c0-.4 0-.6-.2-.6.2 0 .3-.3.3-.6v-.4-.3c0-.2 0-.3.3-.3v-.4c-.6 0-.8.3-.8.7v.9s0 .2-.3.2v.3c.3 0 .4 0 .4.3 0 0 0 .3-.2.4v.5c0 .4.2.7.8.7zm2-.6l1-3h-.5l-.5 1.5c0 .4-.2.7-.3 1 0-.3 0-.6-.2-1l-.5-1.4h-.5l1 2.8h.4zm2.7-1.3v-.3c-.3 0-.4 0-.4-.3v-.6-.4c0-.4-.2-.7-.7-.7v.4c.2 0 .4 0 .4.4v.8c0 .3 0 .5.2.6-.3 0-.4.2-.4.5v.6c0 .3 0 .4-.3.4v.4c.5 0 .8-.3.8-.7v-.5-.3c0-.4 0-.5.4-.5z"/>
    <path fill="#AEADAE" d="M573.5 551.5h7.4v7.4h-7.5z"/>
    <path fill="#FFF" d="M579.4 555v.4h-2v2h-.6v-2h-2v-.5h2v-2.2h.5v2h2z"/>
    <path fill="#EFEFEF" d="M582.6 550h10.7v10.7h-10.7z"/>
    <path fill="#8D8D8D" d="M586 555l3-3 .4.6-2.5 2.5 2.4 2.8-.5.4-3-3z"/>
    <path fill="none" stroke="#000" stroke-width=".5" stroke-miterlimit="10" d="M537.2 532.2h482v441h-482z"/>
    <path fill="#FFF" stroke="#000" stroke-width=".5" stroke-miterlimit="10" d="M547.4 572.8h460v21h-460z"/>
    <path fill="#939598" d="M957.3 585.6v-3h.7v3.8h-7.5v-7.6h3.7v.8h-2.9v6h6zm-.4-5.5l-1-.7.3-.5 1.7 1.6-1.4 1.6-.4-.4.6-1c-1.8.3-3 1-4 2.3l-.4.8-.2.8v.3h-.6v-.4l.2-.6.3-.8.6-1 1-1 1.4-.6 2-.5zM971.3 585.6v-3h.7v3.8h-7.5v-7.6h3.7v.7h-2.9v6h6zm.7-6.8v.6h-.3l-.7.2-1 .5c-1.2 1-2 2.2-2 4l.7-.6.4.4-1.5 1.4-1.5-1.6.4-.5 1 1c0-.6 0-1.2.3-1.8l.7-1.4 1-1 1-.5c.2-.2.5-.3.7-.3.4 0 .6 0 .8-.2h.2zM980.7 578.8h3v1h1.7v1h-6.6v-1h2v-1zm-1.4 2.7h5.7v5h-5.7v-5zm1.3.6v3.7h.8V582h-.8zm2.2 0v3.7h1V582h-1zM996.4 584.6l-3.8-3.6.6-.6 3.2 3 3.2-3 .6.7-3.8 3.6z"/>
    <path fill="#939598" stroke="#000" stroke-width=".3" stroke-miterlimit="10" d="M961.2 578.5v8.2M975.3 578v8.3M989 578.7v8"/>
    <path d="M547.3 572.8h18v21h-18z"/>
    <path fill="#FFF" d="M559.4 580.2v.4h-1l-.7 2.7c-.3 1.2-.6 2-1 2.8-.4 1-1 1.6-1.4 2-.3.2-.7.4-1 .4-.3 0-.5 0-.7-.3-.2 0-.2 0-.2-.3v-.3h.7v.5h.7c0-.2.2-.3.4-.5s.3-.6.4-1l.5-1.7 1-4.2h-1v-.4h.8l.5-.4.4-.8.6-1c.3-.5.7-.8 1-1l1-.2c.3 0 .5 0 .7.2l.3.6s0 .2-.2.3h-.3-.2l-.2-.3v-.3c.2 0 .2 0 .2-.2h-1l-.7 1-.5 2h1z"/>
    <path d="M572.8 613.2c1-1 2.3-1.6 3.8-1.6s2.7.5 3.7 1.6c1 1 1.6 2.3 1.6 3.7 0 1.4-.6 2.6-1.7 3.7-1 1-2.2 1.5-3.7 1.5s-2.7-.5-3.8-1.5-1.5-2.3-1.5-3.8.5-2.8 1.5-3.8zm2 5.8v-.4c-.3 0-.4 0-.4-.4v-.3-.5c0-.3 0-.5-.2-.6l.3-.6v-.4-.4c0-.2 0-.3.2-.3h.2v-.4h-.3c-.5 0-.8 0-.8.6v.8c0 .3 0 .4-.3.4v.3c.2 0 .3.2.3.4v.8c0 .5.2.8.7.8h.2zm2-.6l1-3h-.5l-.5 1.5-.2.8-.3-1-.5-1.3h-.4l1 3h.4zm2.8-1.3v-.2c-.3 0-.4 0-.4-.4v-.4-.4c0-.5-.2-.7-.7-.7h-.2v.3h.2c.2 0 .3 0 .3.3v.7c0 .2 0 .4.2.5-.2 0-.3.2-.3.5V618c0 .3 0 .4-.2.4h-.2v.4h.2c.5 0 .7-.3.7-.8v-.4-.4c0-.2 0-.3.3-.3z"/>
    <path fill="#AEADAE" d="M583.6 613h7.4v7.4h-7.4z"/>
    <path fill="#FFF" d="M589.6 616.5v.4h-2v2h-.6v-2h-2v-.5h2v-2h.5v2h2z"/>
    <path fill="#EFEFEF" d="M592.7 611.6h10.7v10.7h-10.7z"/>
    <path fill="#8D8D8D" d="M596 616.7l3-3 .5.4-2.5 2.7 2.5 2.6-.5.5-3-3z"/>
    <path fill="#FFF" stroke="#000" stroke-width=".8" stroke-miterlimit="10" d="M692.8 639.6h125V670H693z"/>
    <text transform="translate(707.87 657.59)" font-family="'MyriadPro-Regular'" font-size="14.2">
      ResourceWorker
    </text>
    <path fill="#FFF" stroke="#000" stroke-width=".5" stroke-miterlimit="10" d="M692.8 692.2h126.4v30.5H692.8z"/>
    <path fill="none" stroke="#000" stroke-width=".5" stroke-miterlimit="10" d="M756.2 670v22.2"/>
    <path fill="#FFF" stroke="#000" stroke-width=".5" stroke-miterlimit="10" d="M693 846.8h126.3v30.5H693z"/>
    <path d="M586.6 669.7c-.4.2-1.3.4-2.5.4-2.6 0-4.6-1.6-4.6-4.7 0-3 2-5 5-5 1.2 0 2 .2 2.2.4l-.3 1c-.4-.2-1-.4-2-.4-2 0-3.6 1.4-3.6 4 0 2.3 1.3 3.8 3.7 3.8.7 0 1.5 0 2-.3l.2 1zM588 660h1.4v10H588v-10zM593 661.2c0 .4-.4.7-1 .7-.4 0-.7-.4-.7-.8 0-.5.4-.8.8-.8.6 0 1 .3 1 .8zm-1.5 8.8v-7h1.2v7h-1.2zM595.5 666.8c0 1.7 1 2.4 2.4 2.4.8 0 1.3-.2 1.8-.4l.2 1c-.5 0-1.2.3-2.3.3-2 0-3.4-1.3-3.4-3.3s1.2-3.7 3.2-3.7c2.3 0 3 2 3 3.2l-.2.6h-4.8zm3.7-1c0-.7-.4-2-1.8-2-1.2 0-1.8 1.2-2 2h3.8zM602 665v-2h1v1.3c.4-.7 1.2-1.3 2.3-1.3 1 0 2.5.5 2.5 3v4h-1.3v-4c0-1-.4-2-1.6-2-1 0-1.5.6-1.7 1.3v4.6h-1.4v-5zM611.3 661v2h1.7v1h-1.7v3.8c0 .8.2 1.3 1 1.3h.6v1h-1c-.7 0-1.2 0-1.5-.4-.3-.4-.5-1-.5-1.8V664h-1v-1h1v-1.5l1.3-.4z"/>
    <path fill="none" stroke="#000" stroke-width=".799992" stroke-miterlimit="10" d="M561.4 667.6l36.5-36.4 36.3 36.4L598 704z"/>
    <path fill="none" stroke="#000" stroke-width="1.5" stroke-miterlimit="10" d="M597.8 704v172.4"/>
    <path fill="none" stroke="#000" stroke-width="1.2" stroke-miterlimit="10" d="M684.5 709.4h-86.7"/>
    <path d="M682.8 703.6l10 5.8-10 5.7"/>
    <path fill="#FFF" stroke="#000" stroke-width=".5" stroke-miterlimit="10" d="M692 743.3h126.3v30.5H692z"/>
    <path d="M729.4 758.3V756h1v1.2c.6-.8 1.4-1.3 2.5-1.3 1.6 0 2.8 1.3 2.8 3.3 0 2.5-1.5 3.7-3 3.7-1 0-1.7-.4-2.2-1v3.6h-1.2v-7.3zm1.2 1.8v.6c.3.8 1 1.4 2 1.4 1.2 0 2-1 2-2.6 0-1.4-.7-2.5-2-2.5-1 0-1.7.5-2 1.4v1.5zM741 762.8v-.8c-.4.5-1 1-2 1-1.5 0-2.2-1-2.2-2 0-1.6 1.5-2.5 4-2.5 0-.7 0-1.7-1.4-1.7-.7 0-1.3.2-1.8.5l-.3-.8c.6-.4 1.4-.6 2.3-.6 2 0 2.5 1.3 2.5 2.7v2.5l.2 1.6h-1zm0-3.4c-1.4 0-3 .2-3 1.5 0 .7.6 1 1.2 1 1 0 1.5-.5 1.7-1v-1.6zM744.5 756l1.4 4c0 .5.3 1 .4 1.4 0-.4.3-1 .4-1.4l1.4-4h1.3l-2 5c-.8 2.2-1.4 3.4-2.2 4-.6.7-1.2 1-1.5 1l-.3-1 1-.7c.4-.3.8-.7 1-1.4l.2-.4v-.3L743 756h1.5zM750.6 753h1.2v9.8h-1.2v-10zM760 759.4c0 2.5-1.7 3.6-3.3 3.6-2 0-3.3-1.4-3.3-3.5 0-2.3 1.5-3.6 3.4-3.6 2 0 3.2 1.3 3.2 3.4zm-5.3 0c0 1.5.8 2.7 2 2.7s2-1 2-2.6c0-1-.5-2.6-2-2.6-1.4 0-2 1.4-2 2.7zM765.3 762.8v-.8c-.5.5-1.2 1-2.2 1-1.2 0-2-1-2-2 0-1.6 1.5-2.5 4-2.5 0-.7 0-1.7-1.4-1.7-.6 0-1.3.2-1.8.5l-.3-.8c.6-.4 1.4-.6 2.3-.6 2 0 2.5 1.3 2.5 2.7v2.5c0 .6 0 1.2.2 1.6h-1.2zm0-3.4c-1.5 0-3 .2-3 1.5 0 .7.5 1 1.2 1 .8 0 1.4-.5 1.6-1l.2-.4v-1.2zM774.2 753v9.8h-1v-1c-.5.6-1.3 1.2-2.5 1.2-1.6 0-3-1.4-3-3.5 0-2.2 1.5-3.6 3.2-3.6 1 0 1.6.4 2 1v-4h1.2zm-1.2 5.8v-.5c-.3-.8-1-1.4-2-1.4-1.2 0-2 1-2 2.5 0 1.4.8 2.5 2 2.5 1 0 1.7-.6 2-1.5v-1.7zM778.7 758v-.7h7.3v.8h-7.3zm0 3v-1h7.3v1h-7.3zM791.2 753l1.2 2h-1l-1.6-2h1.4zM794.4 762c0-.4.4-.8 1-.8.3 0 .7.4.7 1 0 .4-.2.8-.8.8-.4 0-.8-.4-.8-1zM797.3 762c0-.4.4-.8 1-.8.3 0 .7.4.7 1 0 .4-.3.8-1 .8-.4 0-.7-.4-.7-1zM800.2 762c0-.4.4-.8 1-.8s.7.4.7 1c0 .4-.4.8-1 .8-.5 0-.8-.4-.8-1z"/>
    <g>
      <path d="M743.8 711c.5.3 1.3.6 2 .6 1.4 0 2-.6 2-1.6s-.4-1.4-1.7-2c-1.4-.4-2.4-1.2-2.4-2.5 0-1.5 1.3-2.6 3-2.6 1 0 1.8 0 2.2.4l-.3 1c-.4-.2-1-.5-1.8-.5-1.3 0-1.8.7-1.8 1.3 0 1 .5 1.3 1.8 1.8 1.6.8 2.4 1.5 2.4 3 0 1.4-1 2.6-3.3 2.6-1 0-2-.2-2.5-.6l.3-1zM752.2 703.8v2h1.8v1h-1.8v3.5c0 1 .3 1.3 1 1.3h.7v1h-1.2c-.5 0-1 0-1.3-.5-.3-.2-.5-.8-.5-1.6v-3.7h-1v-1h1V704l1.2-.2zM759 712.5v-1c-.4.7-1 1.2-2 1.2-1.5 0-2.2-1-2.2-2 0-1.6 1.5-2.5 4-2.5v-.2c0-.5 0-1.5-1.4-1.5-.6 0-1.3.2-1.8.5l-.3-.8c.6-.4 1.4-.6 2.3-.6 2 0 2.5 1.4 2.5 2.7v2.6l.3 1.5H759zm0-3.5c-1.4 0-3 .2-3 1.6 0 .8.6 1 1.2 1 1 0 1.5-.4 1.7-1V709zM762 707.8v-2h1l.2 1.2c.4-1 1-1.4 2-1.4h.3v1.2h-.4c-.8 0-1.4.6-1.6 1.5v4.1H762v-4.7zM768.5 703.8v2h1.8v1h-1.8v3.5c0 1 .3 1.3 1 1.3h.7v1h-1c-.6 0-1 0-1.4-.5-.4-.2-.5-.8-.5-1.6v-3.7h-1v-1h1V704l1.2-.2z"/>
    </g>
    <g>
      <path d="M566.7 520.4v-1.8h1v1c.4-.5 1.2-1.2 2.3-1.2 1 0 2.4.6 2.4 3v4h-1.2v-4c0-1-.4-2-1.6-2-.8 0-1.4.6-1.6 1.3v4.6h-1.3v-5zM574.7 518.6l1.5 4c0 .5.3 1 .4 1.4l.5-1.4 1.4-4h1.3l-1.8 4.8c-1 2.4-1.6 3.6-2.4 4.3-.6.5-1.2.7-1.5.8l-.3-1c.4-.2.8-.4 1-.7.5-.2 1-.7 1.2-1.3v-.3-.4l-2.6-6.2h1.3zM580.6 524c.4.4 1 .6 1.6.6 1 0 1.3-.4 1.3-1s-.3-1-1.2-1.2c-1.2-.5-1.8-1.2-1.8-2 0-1 1-2 2.3-2 .7 0 1.3.2 1.7.5l-.3.8c-.3-.2-.8-.4-1.4-.4-.7 0-1 .4-1 1 0 .5.3.7 1.2 1 1 .5 1.7 1 1.7 2 0 1.3-1 2-2.5 2-.7 0-1.4 0-2-.3l.4-1zM587 522.2c0 1.7 1 2.4 2.3 2.4 1 0 1.4-.2 2-.4v1c-.3 0-1 .3-2 .3-2.2 0-3.5-1.4-3.5-3.4s1.2-3.6 3.2-3.6c2.2 0 2.8 2 2.8 3.2v.6H587zm3.6-1c0-.7-.3-2-1.7-2-1.3 0-2 1.3-2 2h3.6zM593.2 524c.5.2 1.3.5 2.2.5 1.2 0 2-.6 2-1.6s-.5-1.5-1.8-2c-1.6-.5-2.5-1.3-2.5-2.6 0-1.5 1.3-2.6 3-2.6 1 0 1.8.2 2.2.4l-.3 1c-.4 0-1-.4-2-.4-1.2 0-1.7.8-1.7 1.4 0 1 .6 1.3 2 1.8 1.5.6 2.3 1.4 2.3 2.8 0 1.5-1 2.7-3.3 2.7-1 0-2-.2-2.4-.6l.2-1zM601.7 516.7v2h1.7v.8h-1.7v3.7c0 .8.2 1.3 1 1.3h.6v1h-1c-.6 0-1-.2-1.4-.5-.4-.4-.5-1-.5-1.8v-3.7h-1v-1h1V517l1.2-.3zM611 522c0 2.4-2 3.5-3.5 3.5-1.8 0-3.3-1.3-3.3-3.5s1.5-3.6 3.4-3.6c2 0 3.3 1.5 3.3 3.5zm-5.5 0c0 1.5.8 2.6 2 2.6s2-1 2-2.6c0-1.2-.5-2.6-2-2.6-1.4 0-2 1.3-2 2.6zM617.3 525c-.4.3-1 .5-2 .5-2 0-3.4-1.4-3.4-3.4s1.4-3.5 3.6-3.5c.7 0 1.3 0 1.7.3l-.3 1c-.3-.2-.8-.4-1.4-.4-1.6 0-2.4 1.2-2.4 2.6 0 1.6 1 2.5 2.3 2.5.7 0 1.2 0 1.6-.3l.3 1zM620 521.7c0-.2.3-.5.5-.8l2-2.4h1.5l-2.6 2.8 3 4H623l-2.5-3.3-.6.8v2.6h-1.3v-10h1.2v6.3zM633 526.8l-3.5-1-.6-.3c-2.3 0-4.3-1.7-4.3-4.7s2-5 4.4-5c2.7 0 4.4 2 4.4 4.8 0 2.4-1 4-2.7 4.5 1 .4 2 .6 2.7.7l-.3 1zm-1-6.2c0-2-1-3.8-3-3.8s-3 2-3 4 1 3.7 3 3.7 3-1.7 3-4zM640.6 523.5v2h-1v-1.2c-.4.5-1 1.2-2.4 1.2-1 0-2.3-.6-2.3-3v-4h1v4c0 1 .5 2 1.7 2 .8 0 1.4-.6 1.6-1v-4.9h1.3v5zM648.8 522c0 2.4-1.7 3.5-3.4 3.5-1.8 0-3.2-1.3-3.2-3.5s1.5-3.6 3.3-3.6c2 0 3.3 1.5 3.3 3.5zm-5.4 0c0 1.5 1 2.6 2 2.6 1.3 0 2-1 2-2.6 0-1.2-.4-2.6-2-2.6-1.3 0-2 1.3-2 2.6zM651.8 516.7v2h1.8v.8h-1.8v3.7c0 .8.3 1.3 1 1.3h.7v1h-1c-.6 0-1-.2-1.4-.5-.2-.4-.4-1-.4-1.8v-3.7h-1v-1h1V517l1.2-.3zM655.6 522.2c0 1.7 1 2.4 2.3 2.4.8 0 1.3-.2 1.8-.4l.2 1c-.4 0-1.2.3-2.3.3-2 0-3.3-1.4-3.3-3.4s1.2-3.6 3.2-3.6c2.2 0 2.8 2 2.8 3.2v.6h-4.8zm3.6-1c0-.7-.3-2-1.7-2-1.3 0-1.8 1.3-2 2h3.7z"/>
    </g>
    <g>
      <path d="M577.5 587c.5.2 1.3.5 2.2.5 1.2 0 2-.7 2-1.6 0-1-.6-1.5-1.8-2-1.7-.5-2.6-1.3-2.6-2.7 0-1.4 1.2-2.5 3-2.5 1 0 1.7.2 2 .4l-.2 1c-.3 0-1-.4-1.8-.4-1.3 0-1.8.8-1.8 1.4 0 1 .6 1.3 2 1.8 1.5.6 2.3 1.4 2.3 2.8 0 1.5-1.2 2.7-3.4 2.7-1 0-2-.3-2.4-.6l.3-1zM586 579.6v2h1.7v1H586v3.6c0 .8.2 1.3 1 1.3h.6v.8l-1 .2c-.6 0-1-.2-1.4-.5-.3-.4-.4-1-.4-1.8v-3.7h-1v-1h1V580l1.2-.4zM595.2 585c0 2.4-1.8 3.5-3.4 3.5-1.8 0-3.3-1.3-3.3-3.5s1.5-3.6 3.4-3.6c1.8 0 3.2 1.5 3.2 3.5zm-5.4 0c0 1.5.8 2.6 2 2.6s2-1 2-2.6c0-1.2-.5-2.6-2-2.6s-2 1.3-2 2.6zM601.5 588c-.3.3-1 .5-2 .5-2 0-3.3-1.4-3.3-3.4s1.5-3.5 3.7-3.5c.6 0 1.2 0 1.6.3l-.3 1c-.3-.2-.8-.4-1.4-.4-1.7 0-2.5 1.2-2.5 2.6 0 1.6 1 2.5 2.3 2.5.7 0 1.2 0 1.5-.3l.2 1zM604.2 584.7l.6-.8 2-2.4h1.5l-2.6 2.8 3 4h-1.5l-2.4-3.3-.6.8v2.6H603v-10h1.2v6.3zM609.4 587c.3.4 1 .6 1.6.6 1 0 1.3-.4 1.3-1s-.3-1-1.2-1.3c-1.2-.4-1.7-1-1.7-2s1-2 2.3-2c.7 0 1.3.3 1.7.6l-.3.8c-.3-.2-.8-.4-1.4-.4-.7 0-1.2.4-1.2 1 0 .4.5.7 1.3 1 1.2.5 1.8 1 1.8 2 0 1.3-1 2-2.5 2-.8 0-1.5 0-2-.3l.4-1z"/>
    </g>
    <text transform="translate(-138.333 672.334)" font-family="'MyriadPro-Regular'" font-size="14">
      message:set..
    </text>
    <path fill="#FFF" stroke="#000" stroke-width=".5" stroke-miterlimit="10" d="M692 794.2h126.3v30.5H692z"/>
    <g>
      <path d="M718.4 808.8V807h1v1c.5-.6 1-1.2 2.2-1.2 1 0 1.7.6 2 1.4l.7-1c.5-.2 1-.4 1.5-.4 1 0 2.3.6 2.3 3v4h-1v-4c0-1.2-.6-2-1.6-2-.7 0-1.2.5-1.5 1l-.2.7v4.2h-1.2v-4c0-1-.4-2-1.4-2-.7 0-1.3.7-1.5 1.3v4.6h-1.3V809zM730.8 810.6c0 1.6 1 2.3 2.3 2.3 1 0 1.5-.2 2-.4l.2 1c-.5 0-1.2.3-2.3.3-2.2 0-3.4-1.5-3.4-3.5s1.2-3.7 3.2-3.7c2.2 0 2.8 2 2.8 3.2v.6h-4.8zm3.6-1c0-.7-.4-2-1.7-2-1.3 0-1.8 1.2-2 2h3.7zM737 812.5c.3.2 1 .5 1.5.5 1 0 1.4-.5 1.4-1 0-.6-.5-1-1.4-1.3-1.2-.4-1.8-1-1.8-2s1-2 2.3-2c.8 0 1.4.3 1.8.5l-.3 1c-.3-.3-.8-.5-1.4-.5-.6 0-1 .4-1 1 0 .5.4.8 1.3 1 1 .5 1.7 1 1.7 2 0 1.3-1 2.2-2.5 2.2-.7 0-1.4-.3-2-.6l.4-1zM742.5 812.5c.3.2 1 .5 1.6.5 1 0 1.4-.5 1.4-1 0-.6-.4-1-1.3-1.3-1-.4-1.7-1-1.7-2s1-2 2.4-2c.7 0 1.3.3 1.7.5l-.4 1c-.2-.3-.7-.5-1.3-.5-.8 0-1.2.4-1.2 1 0 .5.4.8 1.3 1 1.2.5 1.8 1 1.8 2 0 1.3-1 2.2-2.5 2.2-.7 0-1.4-.3-1.8-.6l.3-1zM752 813.7l-.2-.8c-.4.4-1 1-2 1-1.5 0-2.2-1-2.2-2 0-1.7 1.5-2.6 4-2.6 0-.7 0-1.7-1.4-1.7-.7 0-1.3.2-1.8.5l-.3-.8c.7-.4 1.5-.6 2.4-.6 2 0 2.5 1.4 2.5 2.8v4.2h-1zm-.3-3.4c-1.3 0-2.8.2-2.8 1.5 0 .8.4 1.2 1 1.2 1 0 1.5-.6 1.7-1.2v-1.5zM760.8 807v5.8c0 1.5-.4 2.5-1 3-.7.7-1.7 1-2.5 1s-1.7-.3-2.3-.7l.3-.8c.5.2 1.2.5 2 .5 1.3 0 2.2-.7 2.2-2.4v-.7c-.4.6-1 1-2.2 1-1.7 0-3-1.3-3-3.2 0-2.3 1.6-3.6 3.2-3.6 1.2 0 1.8.6 2 1.2l.2-1h1zm-1.3 2.6v-.5c-.3-.6-1-1.2-1.8-1.2-1.2 0-2 1-2 2.5 0 1.4.6 2.5 2 2.5.7 0 1.4-.5 1.7-1.3v-1.9zM763.4 810.6c0 1.6 1 2.3 2.4 2.3.8 0 1.4-.2 1.8-.4l.2 1c-.4 0-1 .3-2.2.3-2 0-3.3-1.5-3.3-3.5s1.2-3.7 3-3.7c2.3 0 3 2 3 3.2v.6h-5zm3.6-1c0-.7-.3-2-1.7-2-1.2 0-1.8 1.2-2 2h3.7zM769.5 808c0-.4.3-.8.8-.8s.8.4.8 1c0 .4-.2.7-.7.7-.5 0-.8-.4-.8-1zm0 5c0-.5.3-1 .8-1s.8.5.8 1-.2 1-.7 1c-.5 0-.8-.5-.8-1zM772.5 812.5c.4.2 1 .5 1.6.5 1 0 1.4-.5 1.4-1 0-.6-.3-1-1.2-1.3-1.3-.4-1.8-1-1.8-2s1-2 2.3-2c.7 0 1.3.3 1.7.5l-.3 1c-.2-.3-.7-.5-1.3-.5-.7 0-1 .4-1 1 0 .5.3.8 1 1 1.3.5 2 1 2 2 0 1.3-1 2.2-2.6 2.2-.7 0-1.3-.3-1.8-.6l.3-1zM779 810.6c0 1.6 1 2.3 2.2 2.3 1 0 1.4-.2 2-.4v1c-.3 0-1 .3-2.2.3-2 0-3.3-1.5-3.3-3.5s1.2-3.7 3.2-3.7 2.7 2 2.7 3.2v.6H779zm3.5-1c0-.7-.3-2-1.7-2-1.3 0-1.8 1.2-2 2h3.7zM786.7 805v2h1.8v1h-1.8v3.5c0 1 .2 1.4 1 1.4l.6-.2v1h-1c-.6 0-1 0-1.3-.4-.4-.4-.5-1-.5-1.8V808h-1v-1h1v-1.7l1.2-.3zM789.5 813c0-.5.4-1 1-1s.7.5.7 1-.3 1-1 1c-.4 0-.7-.5-.7-1zM792.4 813c0-.5.4-1 .8-1 .5 0 1 .5 1 1s-.4 1-1 1c-.5 0-.8-.5-.8-1z"/>
    </g>
    <path fill="none" stroke="#000" stroke-width=".5" stroke-miterlimit="10" d="M756.6 824.2v22M756 772.8v21.8M756.6 722.6v22"/>
    <path fill="none" stroke="#000" stroke-width=".6" stroke-miterlimit="10" d="M533.7 66.2h482v589.3h-482z"/>
    <g>
      <path fill="#FFF" stroke="#010101" stroke-width="1.5" stroke-miterlimit="10" d="M58.6 79.7h119V108h-119z"/>
      <g fill="#010101">
        <path d="M80.5 91h4.3v.8h-3.3v2.6h3v1h-3v3.4h-1v-8zM90.5 97.3v1.5h-.8v-1c-.4.6-1 1.2-2 1.2s-2-.5-2-2.5v-3.3h1v3c0 1.2.4 2 1.3 2 .7 0 1.2-.6 1.4-1v-4h1v4zM92.2 94.7v-1.5h1v1c.3-.6 1-1.2 2-1.2.7 0 2 .5 2 2.4v3.4h-1v-3.2c0-1-.5-1.7-1.5-1.7-.6 0-1.2.4-1.3 1v3.8H92v-4zM102.8 98.6c-.3.2-1 .4-1.6.4-1.7 0-2.8-1.2-2.8-3 0-1.7 1.2-3 3-3 .6 0 1.2.2 1.4.3l-.2.8h-1.2c-1.3 0-2 .8-2 2 0 1.3.8 2 2 2h1.2l.2.6zM105.4 91.5v1.7h1.5v.7h-1.6v3c0 .7.2 1 .8 1h.6v.8l-1 .2c-.4 0-.7-.2-1-.5-.3-.3-.4-.8-.4-1.5v-3h-1V93h1v-1.4l1-.3zM109.2 91.6c0 .3-.2.6-.6.6-.4 0-.7-.3-.7-.6 0-.4.2-.7.6-.7.4 0 .6.2.6.6zm-1 7.2v-5.6h1v5.6h-1zM116 96c0 2-1.5 3-3 3-1.4 0-2.6-1.2-2.6-3 0-2 1.3-3 2.8-3 1.7 0 2.8 1.2 2.8 3zm-4.5 0c0 1.3.7 2.2 1.7 2.2s1.7-1 1.7-2.2c0-1-.6-2.2-1.8-2.2-1.2 0-1.7 1-1.7 2.2zM117.3 94.7v-1.5h.8l.2 1c.3-.6 1-1.2 2-1.2.7 0 2 .5 2 2.4v3.4h-1v-3.2c0-1-.5-1.7-1.4-1.7-.7 0-1.3.4-1.4 1v3.8h-1v-4zM125 98.8l-2-8h1.2l1 4 .5 3 .7-3 1-4h1l1 4 .6 3 .7-3 1-4h1l-2.2 8h-1l-1-4-.6-2.7-.7 2.7-1 4H125zM138.5 96c0 2-1.5 3-3 3-1.4 0-2.6-1.2-2.6-3 0-2 1.2-3 2.7-3 1.7 0 2.8 1.2 2.8 3zm-4.5 0c0 1.3.7 2.2 1.7 2.2s1.7-1 1.7-2.2c0-1-.5-2.2-1.7-2.2s-1.7 1-1.7 2.2zM139.8 95V93h.8v1c.4-.7 1-1.2 1.7-1.2h.3v1h-.4c-.7 0-1.2.6-1.3 1.3-.2.2-.2.3-.2.5v3h-1v-4zM144.7 95.8l.5-.7 1.7-1.8h1l-2 2.3 2.4 3.3h-1.2l-2-2.7-.5.7v2h-1v-8.2h1v5.3zM149.8 96.2c0 1.4 1 2 2 2 .6 0 1-.2 1.5-.3v.6c-.2.2-.8.4-1.7.4-1.8 0-2.8-1.2-2.8-3 0-1.6 1-3 2.6-3 2 0 2.4 1.7 2.4 2.7v.5h-4zm3-.8c0-.6-.3-1.6-1.5-1.6-1 0-1.5 1-1.5 1.6h3zM155 95V93h1v1c.3-.7 1-1.2 1.6-1.2h.3v1h-.5c-.7 0-1.2.6-1.4 1.3v3.5h-1v-4z"/>
      </g>
      <path fill="#FFF" stroke="#010101" stroke-width=".7" stroke-miterlimit="10" d="M59.4 138.8h118v29.7h-118z"/>
      <g fill="#010101">
        <path d="M87.4 156c.3.2 1 .4 1.4.4.7 0 1-.4 1-1 0-.4-.2-.6-1-1-1-.3-1.5-.8-1.5-1.5 0-1 .8-1.8 2-1.8.5 0 1 .2 1.4.4l-.3.7c-.2 0-.6-.3-1.2-.3s-1 .3-1 .8c0 .4.4.6 1.2 1 1 .3 1.5.8 1.5 1.6 0 1-1 1.7-2.3 1.7-.6 0-1.2 0-1.6-.2l.4-.8zM92.6 151.3l1.2 3.4c0 .4.3.8.4 1.2 0-.5.2-1 .4-1.3l1-3.4H97l-1.6 4c-.7 2-1.2 3-2 3.6-.4.4-1 .6-1.2.6l-.2-1c.2 0 .6 0 1-.4 0-.2.5-.6.7-1v-.4-.2l-2-5.3h1zM97.5 156c.3.2 1 .4 1.4.4.6 0 1-.4 1-1 0-.4-.3-.6-1-1-1-.3-1.6-.8-1.6-1.5 0-1 .8-1.8 2-1.8.6 0 1 .2 1.4.4l-.3.7c-.2 0-.6-.3-1-.3-.7 0-1 .3-1 .8 0 .4.3.6 1 1 1 .3 1.5.8 1.5 1.6 0 1-.8 1.7-2 1.7-.8 0-1.3 0-1.7-.2l.2-.8zM103.6 149.7v1.6h1.4v.8h-1.4v3.2c0 .7.2 1 .7 1h.6v.8h-1c-.4 0-.8 0-1-.3-.3-.3-.5-.8-.5-1.5v-3h-.8v-1h.8V150l1-.3zM106.7 154.4c0 1.4 1 2 2 2 .7 0 1-.2 1.5-.4l.2.8c-.4.2-1 .3-2 .3-1.6 0-2.7-1-2.7-2.7s1-3 2.7-3c1.8 0 2.3 1.5 2.3 2.6v.4h-4zm3-.8c0-.6-.2-1.6-1.4-1.6-1 0-1.5 1-1.6 1.6h3zM112 153v-1.7h1v1c.3-.6.8-1 1.7-1 .8 0 1.4.4 1.6 1l.7-.7c.3-.2.7-.4 1.3-.4.7 0 1.8.5 1.8 2.5v3.3h-1v-3.2c0-1-.3-1.7-1-1.7s-1.2.5-1.3 1v4h-1v-3.4c0-1-.5-1.5-1.3-1.5-.7 0-1 .6-1.3 1v4h-1v-4zM121.6 152.3c0-.5.3-.8.7-.8.4 0 .6.3.7.8 0 .4-.3.7-.7.7-.5 0-.7-.3-.7-.7zm0 4c0-.3.3-.6.7-.6.4 0 .6.3.7.7 0 .4-.3.8-.7.8-.5 0-.7-.4-.7-.8zM124.2 153.2v-2h1v1c.4-.6 1-1 2-1 1.4 0 2.4 1.2 2.4 3 0 2-1.2 3-2.6 3-.7 0-1.4-.4-1.7-1v3h-1v-6zm1 1.5v.4c.3.8 1 1.3 1.7 1.3 1 0 1.6-1 1.6-2.2 0-1-.6-2-1.7-2-.8 0-1.5.5-1.7 1.3v1.4zM131 153v-1.7h.8v1.2c.3-.8 1-1.3 1.6-1.3h.3v1h-.3c-.8 0-1.3.5-1.4 1.3v3.5h-1v-4zM136 149.7c0 .4-.3.7-.7.7-.4 0-.6-.3-.6-.7 0-.3.3-.6.6-.6.4 0 .7.4.7.7zm-1.2 7.3v-5.7h1v5.7h-1zM137.6 153v-1.7h.8v1c.4-.6 1-1 2-1 .8 0 2 .4 2 2.3v3.4h-1v-3.3c0-1-.4-1.6-1.4-1.6-.6 0-1.2.5-1.3 1v4h-1v-4zM143.8 156.4c0-.4.3-.7.7-.7s.7.3.7.7c0 .4-.2.8-.7.8-.4 0-.7-.4-.7-.8zM146.3 156.4c0-.4.3-.7.7-.7s.7.3.7.7c0 .4-.3.8-.7.8-.5 0-.7-.4-.7-.8zM148.7 156.4c0-.4.3-.7.7-.7.4 0 .7.3.7.7 0 .4-.2.8-.6.8-.4 0-.7-.4-.7-.8z"/>
      </g>
      <path fill="#FFF" stroke="#010101" stroke-width=".7" stroke-miterlimit="10" d="M59.5 213.3h119.2v28.4H59.5z"/>
      <g fill="#010101">
        <path d="M80.4 224.4h4.3v.8h-3.3v2.6h3v1h-3v3.5h-1v-8zM90.4 230.7v1.6h-.8v-1c-.4.5-1 1-2 1s-2-.4-2-2.4v-3.4h1v3c0 1.2.4 2 1.3 2 .6 0 1-.5 1.3-1v-3.9h1v4zM92.2 228v-1.4h.8v1c.4-.6 1-1 2-1 .8 0 2 .3 2 2.3v3.3h-1V229c0-1-.4-1.7-1.4-1.7-.6 0-1.2.5-1.3 1v3.9h-1V228zM102.7 232c-.2.2-.8.4-1.6.4-1.6 0-2.7-1.2-2.7-3 0-1.7 1.2-3 3-3 .6 0 1.2.2 1.4.4l-.2.8c-.2-.2-.6-.3-1.2-.3-1.3 0-2 1-2 2 0 1.5 1 2.3 2 2.3.6 0 1-.2 1.2-.3l.2.8zM105.3 225v1.6h1.5v.8h-1.5v3c0 .7.2 1 .8 1h.7v.8l-1 .2c-.3 0-.7-.2-1-.4-.3-.4-.4-1-.4-1.5v-3h-1v-1h1v-1.3l1-.2zM109 225c0 .3 0 .6-.5.6-.4 0-.7-.3-.7-.6 0-.4.3-.7.7-.7.4 0 .6.3.6.7zm-1 7.3v-5.7h1v5.7h-1zM116 229.4c0 2-1.6 3-3 3-1.5 0-2.7-1-2.7-3 0-1.8 1.3-3 2.8-3 1.8 0 3 1.2 3 3zm-4.6 0c0 1.3.7 2.2 1.7 2.2s1.8-1 1.8-2.2c0-1-.5-2.2-1.7-2.2-1 0-1.6 1.2-1.6 2.2zM117.2 228v-1.4h.8v1c.4-.6 1-1 2-1 .8 0 2 .3 2 2.3v3.3h-1V229c0-1-.4-1.7-1.3-1.7-.7 0-1.2.5-1.4 1v3.9h-1V228zM125 232.3l-2-8h1l1 4 .6 2.8.7-2.7 1-4h1l1 4 .6 2.8c0-.8.3-1.7.6-2.7l1-4h1l-2.2 8h-1l-1-4.2-.6-2.4c0 .8-.3 1.5-.6 2.5l-1 4.3H125zM138.4 229.4c0 2-1.5 3-2.8 3-1.6 0-2.8-1-2.8-3 0-1.8 1.3-3 2.8-3 1.7 0 2.8 1.2 2.8 3zm-4.5 0c0 1.3.6 2.2 1.6 2.2s1.7-1 1.7-2.2c0-1-.5-2.2-1.7-2.2s-1.7 1.2-1.7 2.2zM139.7 228.4v-1.8h.8v1c.4-.7 1-1 1.7-1h.3v1c0-.2-.2-.2-.4-.2-.6 0-1 .6-1.2 1.4v3.4h-1v-3.8zM144.6 229.2l.5-.7 1.8-2h1.2l-2.2 2.4 2.5 3.3H147l-2-2.8-.4.6v2.3h-1V224h1v5.2zM149.7 229.6c0 1.4 1 2 2 2 .6 0 1 0 1.5-.3l.2.7c-.4.2-1 .4-2 .4-1.7 0-2.7-1.2-2.7-3 0-1.6 1-3 2.6-3 2 0 2.4 1.7 2.4 2.7v.6h-4zm3-.7c0-.8-.3-1.8-1.4-1.8-1 0-1.5 1-1.6 1.7h3zM155 228.4v-1.8h.8v1c.4-.7 1-1 1.7-1h.3v1c0-.2-.2-.2-.4-.2-.7 0-1.2.6-1.4 1.4v3.4h-1v-3.8z"/>
      </g>
      <path fill="none" stroke="#010101" stroke-width="1.5" stroke-miterlimit="10" d="M118 108v30.8M118.5 168.6v44.7"/>
    </g>
  </g>
</svg>
