<?xml version="1.0" encoding="utf-8"?>
<!-- Generator: Adobe Illustrator 16.0.0, SVG Export Plug-In . SVG Version: 6.00 Build 0)  -->
<!DOCTYPE svg PUBLIC "-//W3C//DTD SVG 1.1//EN" "http://www.w3.org/Graphics/SVG/1.1/DTD/svg11.dtd">
<svg version="1.1" id="Layer_1" xmlns="http://www.w3.org/2000/svg" xmlns:xlink="http://www.w3.org/1999/xlink" x="0px" y="0px"
	 width="500px" height="289px" viewBox="0 0 500 289" enable-background="new 0 0 500 289" xml:space="preserve">
<path fill="#FFFFFF" stroke="#000000" stroke-width="0.5" stroke-miterlimit="10" d="M10,9.3h482v21H10V9.3z"/>
<path fill="#939598" d="M441.8,22.2v-3h0.7V23H435v-7.6h3.7v0.7h-2.9v6.2h6V22.2z M441.4,16.7l-1-0.8l0.399-0.6l1.7,1.6l-1.4,1.6
	l-0.3-0.5l0.601-0.7c-1.801,0.2-3,1-4,2.2c0,0.3-0.301,0.6-0.4,1c-0.2,0.2-0.3,0.5-0.3,0.7v0.3H436.1v-0.3l0.301-0.6
	c0-0.3,0-0.6,0.3-1l0.5-0.8l1-1l1.5-0.7l2-0.3L441.4,16.7z M455.8,22.2v-3h0.7V23H449v-7.6h3.7v0.7h-2.9v6.2h6V22.2z M456.5,15.4V16
	h-0.3c0,0-0.4,0-0.7,0.2c-0.4,0-0.7,0.3-1,0.5c-1.2,0.8-2,2-2,4l0.7-0.7l0.399,0.4l-1.6,1.4l-1.5-1.7l0.4-0.3l0.8,1
	c0-0.7,0.2-1.4,0.399-2c0.2-0.6,0.4-1,0.7-1.3l0.8-1l1-0.5c0.301-0.3,0.601-0.4,0.801-0.4l0.699-0.2h0.2H456.5z M465.2,15.4h3v1h1.7
	v1h-6.7v-1h2V15.4z M463.8,18.1h5.7v5h-5.7V18.1z M465.1,18.8v3.6h1v-3.6H465.1z M467.4,18.8v3.6h1v-3.6H467.4z M481,21.2l-4-3.6
	l0.7-0.6l3.2,3l3-3l0.699,0.7l-3.8,3.5H481z"/>
<path fill="#939598" stroke="#000000" stroke-width="0.3" stroke-miterlimit="10" d="M431.3,15.3v8 M445.6,15.7v8 M459.8,15.3v8
	 M473.5,15.3v8"/>
<path d="M9.8,9.3h18v21H10L9.8,9.3z"/>
<path fill="#FFFFFF" d="M22,16.7l-0.3,0.5h-1l-0.5,2.7l-1,2.7c-0.4,1-1,1.5-1.4,2l-1,0.3c-0.4,0-0.6,0-0.7-0.3v-0.4v-0.3h0.7v0.7
	h0.7c0-0.2,0.3-0.3,0.5-0.6l0.3-1l0.5-1.6l1-4.2h-1v-0.5h0.8l0.4-0.3l0.4-0.8l0.7-1l1-1l1-0.2c0.4,0,0.6,0,0.8,0.2
	c0.2,0.2,0.3,0.3,0.3,0.5v0.5h-0.7c0,0-0.2,0-0.2-0.2l0.2-0.3v-0.2c0,0,0-0.2-0.2-0.2c-0.3,0-0.5,0-0.7,0.3c-0.3,0-0.5,0.4-0.7,1
	c-0.2,0.2-0.4,0.8-0.7,1.7h1H22z"/>
<path d="M35.3,49.8c1-1,2.3-1.6,3.8-1.6s2.8,0.5,3.8,1.6c1,1,1.6,2.3,1.6,3.7c0,1.5-0.5,2.7-1.6,3.8c-1.1,1.1-2.3,1.5-3.7,1.5
	c-1.4,0-2.6-0.5-3.7-1.5S34,55,34,53.5c0-1.4,0.5-2.7,1.5-3.7H35.3z M37.3,55.6v-0.4c-0.3,0-0.4-0.2-0.4-0.4v-0.3v-0.4
	c0-0.2-0.2-0.4-0.4-0.5c0.2,0,0.3-0.3,0.3-0.5v-0.4v-0.4c0-0.2,0-0.3,0.2-0.3h0.2v-0.5H37c-0.5,0-0.8,0.2-0.8,0.7V53
	c0,0.2,0,0.4-0.2,0.4v0.3c0.2,0,0.3,0,0.3,0.3v0.8c0,0.5,0.2,0.8,0.7,0.8h0.2H37.3z M39.3,55l1-3h-0.5l-0.5,1.5l-0.2,1
	c0-0.3,0-0.6-0.2-1l-0.5-1.4h-0.5l1,3h0.5L39.3,55z M42,53.7v-0.3c-0.2,0-0.4-0.2-0.4-0.4v-0.4v-0.4c0-0.5,0-0.7-0.7-0.7h-0.2v0.4
	c0.4,0,0.5,0,0.5,0.2v0.8c0,0.2,0,0.4,0.2,0.5c-0.2,0-0.3,0.3-0.3,0.6v0.8c0,0.2,0,0.4-0.3,0.4h-0.2v0.4h0.2c0.5,0,0.7-0.3,0.7-0.8
	v-0.4V54c0-0.2,0-0.3,0.3-0.3H42z"/>
<path fill="#AEADAE" d="M46,49.6h7.5V57H46V49.6z"/>
<path fill="#FFFFFF" d="M52,53v0.5h-2v2h-0.5v-2h-2V53h2v-2H50v2H52z"/>
<path fill="#EFEFEF" d="M55.2,48.2H66V59H55L55.2,48.2z"/>
<path fill="#8D8D8D" d="M58.6,53.3l3-3l0.4,0.4l-2.5,2.6L62,56l-0.5,0.4l-3-3L58.6,53.3z"/>
<path fill="none" stroke="#000000" stroke-width="0.4" stroke-miterlimit="10" d="M10,30.3h482V280H10V30.3z"/>
<g>
	<g>
		<path fill="#FFFFFF" stroke="#010101" stroke-width="1.5" stroke-miterlimit="10" d="M58.6,79.7h119V108h-119V79.7z"/>
		<g>
			<path fill="#010101" d="M80.5,91h4.3v0.8h-3.3v2.6h3v1h-3v3.4h-1v-8V91z M90.5,97.3v1.5h-0.8v-1c-0.4,0.6-1,1.2-2,1.2
				s-2-0.5-2-2.5v-3.3h1v3c0,1.2,0.4,2,1.3,2c0.7,0,1.2-0.6,1.4-1v-4h1v4L90.5,97.3z M92.2,94.7v-1.5h1v1c0.3-0.6,1-1.2,2-1.2
				c0.7,0,2,0.5,2,2.4v3.4h-1v-3.2c0-1-0.5-1.7-1.5-1.7c-0.6,0-1.2,0.4-1.3,1v3.8H92v-4H92.2z M102.8,98.6c-0.3,0.2-1,0.4-1.6,0.4
				c-1.7,0-2.8-1.2-2.8-3c0-1.7,1.2-3,3-3c0.6,0,1.2,0.2,1.4,0.3l-0.2,0.8h-1.2c-1.3,0-2,0.8-2,2c0,1.3,0.8,2,2,2h1.2l0.2,0.6V98.6z
				 M105.4,91.5v1.7h1.5v0.7h-1.6v3c0,0.7,0.2,1,0.8,1h0.6v0.8l-1,0.2c-0.4,0-0.7-0.2-1-0.5c-0.3-0.3-0.4-0.8-0.4-1.5v-3h-1V93h1
				v-1.4l1-0.3L105.4,91.5z M109.2,91.6c0,0.3-0.2,0.6-0.6,0.6s-0.7-0.3-0.7-0.6c0-0.4,0.2-0.7,0.6-0.7s0.6,0.2,0.6,0.6L109.2,91.6z
				 M108.2,98.8v-5.6h1v5.6H108.2z M116,96c0,2-1.5,3-3,3c-1.4,0-2.6-1.2-2.6-3c0-2,1.3-3,2.8-3C114.9,93,116,94.2,116,96z
				 M111.5,96c0,1.3,0.7,2.2,1.7,2.2s1.7-1,1.7-2.2c0-1-0.6-2.2-1.8-2.2c-1.2,0-1.7,1-1.7,2.2H111.5z M117.3,94.7v-1.5h0.8l0.2,1
				c0.3-0.6,1-1.2,2-1.2c0.7,0,2,0.5,2,2.4v3.4h-1v-3.2c0-1-0.5-1.7-1.4-1.7c-0.7,0-1.3,0.4-1.4,1v3.8h-1v-4H117.3z M125,98.8l-2-8
				h1.2l1,4l0.5,3l0.7-3l1-4h1l1,4l0.6,3l0.7-3l1-4h1l-2.2,8h-1l-1-4l-0.6-2.7l-0.7,2.7l-1,4H125z M138.5,96c0,2-1.5,3-3,3
				c-1.4,0-2.6-1.2-2.6-3c0-2,1.2-3,2.7-3c1.7,0,2.8,1.2,2.8,3H138.5z M134,96c0,1.3,0.7,2.2,1.7,2.2s1.7-1,1.7-2.2
				c0-1-0.5-2.2-1.7-2.2C134.5,93.8,134,94.8,134,96z M139.8,95v-2h0.8v1c0.4-0.7,1-1.2,1.7-1.2h0.3v1h-0.4c-0.7,0-1.2,0.6-1.3,1.3
				c-0.2,0.2-0.2,0.3-0.2,0.5v3h-1v-4L139.8,95z M144.7,95.8l0.5-0.7l1.7-1.8h1l-2,2.3l2.4,3.3h-1.2l-2-2.7l-0.5,0.7v2h-1v-8.2h1V96
				L144.7,95.8z M149.8,96.2c0,1.4,1,2,2,2c0.6,0,1-0.2,1.5-0.3v0.6c-0.2,0.2-0.8,0.4-1.7,0.4c-1.8,0-2.8-1.2-2.8-3c0-1.6,1-3,2.6-3
				c2,0,2.4,1.7,2.4,2.7v0.5h-4V96.2z M152.8,95.4c0-0.6-0.3-1.6-1.5-1.6c-1,0-1.5,1-1.5,1.6H152.8z M155,95v-2h1v1
				c0.3-0.7,1-1.2,1.6-1.2h0.3v1h-0.5c-0.7,0-1.2,0.6-1.4,1.3v3.5h-1v-4V95z"/>
		</g>
		<path fill="#FFFFFF" stroke="#010101" stroke-width="0.7" stroke-miterlimit="10" d="M59.4,138.8h118v29.7h-118V138.8z"/>
		<g>
			<path fill="#010101" d="M87.4,156c0.3,0.2,1,0.4,1.4,0.4c0.7,0,1-0.4,1-1c0-0.4-0.2-0.601-1-1c-1-0.301-1.5-0.801-1.5-1.5
				c0-1,0.8-1.801,2-1.801c0.5,0,1,0.2,1.4,0.4l-0.3,0.7c-0.2,0-0.6-0.3-1.2-0.3c-0.6,0-1,0.3-1,0.8c0,0.399,0.4,0.6,1.2,1
				c1,0.3,1.5,0.8,1.5,1.6c0,1-1,1.7-2.3,1.7c-0.6,0-1.2,0-1.6-0.2L87.4,156L87.4,156z M92.6,151.3l1.2,3.4c0,0.399,0.3,0.8,0.4,1.2
				c0-0.5,0.2-1,0.4-1.301l1-3.399H97l-1.6,4c-0.7,2-1.2,3-2,3.6c-0.4,0.4-1,0.601-1.2,0.601l-0.2-1c0.2,0,0.6,0,1-0.4
				c0-0.2,0.5-0.6,0.7-1v-0.4V156.4l-2-5.301h1L92.6,151.3z M97.5,156c0.3,0.2,1,0.4,1.4,0.4c0.6,0,1-0.4,1-1c0-0.4-0.3-0.601-1-1
				c-1-0.301-1.6-0.801-1.6-1.5c0-1,0.8-1.801,2-1.801c0.6,0,1,0.2,1.4,0.4l-0.3,0.7c-0.2,0-0.6-0.3-1-0.3c-0.7,0-1,0.3-1,0.8
				c0,0.399,0.3,0.6,1,1c1,0.3,1.5,0.8,1.5,1.6c0,1-0.8,1.7-2,1.7c-0.8,0-1.3,0-1.7-0.2l0.2-0.8H97.5z M103.6,149.7v1.6h1.4v0.8
				h-1.4v3.2c0,0.7,0.2,1,0.7,1h0.6v0.8h-1c-0.4,0-0.8,0-1-0.3c-0.3-0.3-0.5-0.8-0.5-1.5v-3h-0.8v-1h0.8V150l1-0.3H103.6z
				 M106.7,154.4c0,1.399,1,2,2,2c0.7,0,1-0.2,1.5-0.4l0.2,0.8c-0.4,0.2-1,0.3-2,0.3c-1.6,0-2.7-1-2.7-2.699c0-1.7,1-3,2.7-3
				c1.8,0,2.3,1.5,2.3,2.6v0.4H106.7L106.7,154.4z M109.7,153.6c0-0.6-0.2-1.6-1.4-1.6c-1,0-1.5,1-1.6,1.6H109.7z M112,153v-1.7h1v1
				c0.3-0.6,0.8-1,1.7-1c0.8,0,1.4,0.4,1.6,1l0.7-0.7c0.3-0.199,0.7-0.399,1.3-0.399c0.7,0,1.8,0.5,1.8,2.5v3.3h-1v-3.2
				c0-1-0.3-1.7-1-1.7c-0.7,0-1.2,0.5-1.3,1v4h-1V153.7c0-1-0.5-1.5-1.3-1.5c-0.7,0-1,0.6-1.3,1v4h-1v-4L112,153z M121.6,152.3
				c0-0.5,0.3-0.8,0.7-0.8c0.4,0,0.6,0.3,0.7,0.8c0,0.4-0.3,0.7-0.7,0.7C121.8,153,121.6,152.7,121.6,152.3z M121.6,156.3
				c0-0.3,0.3-0.6,0.7-0.6c0.4,0,0.6,0.3,0.7,0.7c0,0.399-0.3,0.8-0.7,0.8c-0.5,0-0.7-0.4-0.7-0.8V156.3z M124.2,153.2v-2h1v1
				c0.4-0.601,1-1,2-1c1.4,0,2.4,1.2,2.4,3c0,2-1.2,3-2.6,3c-0.7,0-1.4-0.4-1.7-1v3h-1v-6H124.2z M125.2,154.7v0.399
				c0.3,0.801,1,1.301,1.7,1.301c1,0,1.6-1,1.6-2.2c0-1-0.6-2-1.7-2c-0.8,0-1.5,0.5-1.7,1.3v1.4L125.2,154.7z M131,153v-1.7h0.8v1.2
				c0.3-0.8,1-1.3,1.6-1.3h0.3v1h-0.3c-0.8,0-1.3,0.5-1.4,1.3v3.5h-1V153L131,153z M136,149.7c0,0.399-0.3,0.7-0.7,0.7
				c-0.4,0-0.6-0.301-0.6-0.7c0-0.3,0.3-0.601,0.6-0.601c0.4,0,0.7,0.4,0.7,0.7V149.7z M134.8,157v-5.7h1v5.7H134.8z M137.6,153
				v-1.7h0.8v1c0.4-0.6,1-1,2-1c0.8,0,2,0.4,2,2.3v3.4h-1v-3.3c0-1-0.4-1.601-1.4-1.601c-0.6,0-1.2,0.5-1.3,1v4h-1v-4L137.6,153z
				 M143.8,156.4c0-0.4,0.3-0.7,0.7-0.7s0.7,0.3,0.7,0.7c0,0.399-0.2,0.8-0.7,0.8C144.1,157.2,143.8,156.8,143.8,156.4z
				 M146.3,156.4c0-0.4,0.3-0.7,0.7-0.7s0.7,0.3,0.7,0.7c0,0.399-0.3,0.8-0.7,0.8C146.5,157.2,146.3,156.8,146.3,156.4z
				 M148.7,156.4c0-0.4,0.3-0.7,0.7-0.7s0.7,0.3,0.7,0.7c0,0.399-0.2,0.8-0.6,0.8s-0.7-0.4-0.7-0.8H148.7z"/>
		</g>
		<path fill="#FFFFFF" stroke="#010101" stroke-width="0.7" stroke-miterlimit="10" d="M59.5,213.3h119.2v28.4H59.5V213.3z"/>
		<g>
			<path fill="#010101" d="M80.4,224.4h4.3v0.8h-3.3v2.6h3v1h-3v3.5h-1v-8V224.4z M90.4,230.7v1.6h-0.8v-1c-0.4,0.5-1,1-2,1
				s-2-0.399-2-2.399v-3.4h1v3c0,1.2,0.4,2,1.3,2c0.6,0,1-0.5,1.3-1v-3.9h1v4L90.4,230.7z M92.2,228v-1.4H93v1c0.4-0.6,1-1,2-1
				c0.8,0,2,0.301,2,2.301v3.3h-1V229c0-1-0.4-1.7-1.4-1.7c-0.6,0-1.2,0.5-1.3,1v3.9h-1V228H92.2z M102.7,232
				c-0.2,0.2-0.8,0.4-1.6,0.4c-1.6,0-2.7-1.2-2.7-3c0-1.7,1.2-3,3-3c0.6,0,1.2,0.199,1.4,0.399l-0.2,0.8c-0.2-0.199-0.6-0.3-1.2-0.3
				c-1.3,0-2,1-2,2c0,1.5,1,2.3,2,2.3c0.6,0,1-0.199,1.2-0.3l0.2,0.8L102.7,232z M105.3,225v1.6h1.5v0.801h-1.5v3
				c0,0.699,0.2,1,0.8,1h0.7v0.8l-1,0.2c-0.3,0-0.7-0.2-1-0.4c-0.3-0.4-0.4-1-0.4-1.5v-3h-1v-1h1v-1.3l1-0.2H105.3z M109,225
				c0,0.3,0,0.6-0.5,0.6c-0.4,0-0.7-0.3-0.7-0.6c0-0.4,0.3-0.7,0.7-0.7s0.6,0.3,0.6,0.7H109z M108,232.3v-5.7h1v5.7H108z M116,229.4
				c0,2-1.6,3-3,3c-1.5,0-2.7-1-2.7-3c0-1.801,1.3-3,2.8-3c1.8,0,3,1.199,3,3H116z M111.4,229.4c0,1.3,0.7,2.199,1.7,2.199
				s1.8-1,1.8-2.199c0-1-0.5-2.2-1.7-2.2c-1,0-1.6,1.2-1.6,2.2H111.4z M117.2,228v-1.4h0.8v1c0.4-0.6,1-1,2-1c0.8,0,2,0.301,2,2.301
				v3.3h-1V229c0-1-0.4-1.7-1.3-1.7c-0.7,0-1.2,0.5-1.4,1v3.9h-1V228H117.2z M125,232.3l-2-8h1l1,4l0.6,2.8l0.7-2.699l1-4h1l1,4
				l0.6,2.8c0-0.8,0.3-1.7,0.6-2.7l1-4h1l-2.2,8h-1l-1-4.2l-0.6-2.399c0,0.8-0.3,1.5-0.6,2.5l-1,4.3H125V232.3z M138.4,229.4
				c0,2-1.5,3-2.8,3c-1.6,0-2.8-1-2.8-3c0-1.801,1.3-3,2.8-3C137.3,226.4,138.4,227.6,138.4,229.4z M133.9,229.4
				c0,1.3,0.6,2.199,1.6,2.199s1.7-1,1.7-2.199c0-1-0.5-2.2-1.7-2.2s-1.7,1.2-1.7,2.2H133.9z M139.7,228.4V226.6h0.8v1
				c0.4-0.699,1-1,1.7-1h0.3v1c0-0.199-0.2-0.199-0.4-0.199c-0.6,0-1,0.6-1.2,1.399v3.4h-1v-3.8H139.7z M144.6,229.2l0.5-0.7l1.8-2
				h1.2l-2.2,2.4l2.5,3.3H147l-2-2.8l-0.4,0.6v2.3h-1V224h1V229.2z M149.7,229.6c0,1.4,1,2,2,2c0.6,0,1,0,1.5-0.3l0.2,0.7
				c-0.4,0.2-1,0.4-2,0.4c-1.7,0-2.7-1.2-2.7-3c0-1.601,1-3,2.6-3c2,0,2.4,1.699,2.4,2.699v0.601h-4V229.6z M152.7,228.9
				c0-0.801-0.3-1.801-1.4-1.801c-1,0-1.5,1-1.6,1.7h3V228.9z M155,228.4V226.6h0.8v1c0.4-0.699,1-1,1.7-1h0.3v1
				c0-0.199-0.2-0.199-0.4-0.199c-0.7,0-1.2,0.6-1.4,1.399v3.4h-1V228.4L155,228.4z"/>
		</g>
		<path fill="none" stroke="#010101" stroke-width="1.5" stroke-miterlimit="10" d="M118,108v30.8 M118.5,168.6v44.7"/>
	</g>
</g>
</svg>
