<?xml version="1.0" encoding="utf-8"?>
<!-- Generator: Adobe Illustrator 16.0.0, SVG Export Plug-In . SVG Version: 6.00 Build 0)  -->
<!DOCTYPE svg PUBLIC "-//W3C//DTD SVG 1.1//EN" "http://www.w3.org/Graphics/SVG/1.1/DTD/svg11.dtd">
<svg version="1.1" xmlns="http://www.w3.org/2000/svg" xmlns:xlink="http://www.w3.org/1999/xlink" x="0px" y="0px"
	 width="1042.301px" height="171.794px" viewBox="0 0 1042.301 171.794" enable-background="new 0 0 1042.301 171.794"
	 xml:space="preserve">
<g id="Layer_2">
</g>
<g id="Layer_1">
	<g>
		<path fill="#FFFFFF" d="M45.86,59.69v55.386H34.62V92.109H14.013v22.97H2.772V59.69h11.241v22.643H34.62V59.69H45.86z"/>
		<path fill="#FFFFFF" d="M54.248,102.696c0-4.235,1.126-7.289,3.379-9.161c2.253-1.875,5.876-2.973,10.874-3.301l8.715-0.65V87.06
			c0-1.63-0.366-2.771-1.101-3.421c-0.733-0.651-1.967-0.979-3.706-0.979c-1.792,0-4.263,0.069-7.412,0.206
			c-3.149,0.136-5.783,0.285-7.901,0.448l-0.326-7.574c5.866-1.577,11.403-2.363,16.616-2.363c5.212,0,8.974,1.086,11.281,3.257
			c2.308,2.173,3.461,5.648,3.461,10.427V104c0.11,1.358,0.34,2.279,0.693,2.771c0.351,0.486,1.018,0.84,1.996,1.057l-0.326,8.227
			c-2.826,0-5.064-0.191-6.719-0.57c-1.657-0.382-3.299-1.143-4.929-2.28c-3.965,1.898-7.956,2.851-11.974,2.851
			C58.456,116.055,54.248,111.603,54.248,102.696z M75.995,106.2l1.222-0.325v-8.717l-7.412,0.652
			c-3.042,0.271-4.561,1.901-4.561,4.886c0,2.987,1.33,4.479,3.99,4.479C71.297,107.176,73.552,106.85,75.995,106.2z"/>
		<path fill="#FFFFFF" d="M100.551,110.965c-2.635-3.395-3.951-8.81-3.951-16.25c0-7.547,1.357-12.991,4.074-16.329
			c2.715-3.34,7.139-5.01,13.277-5.01c1.574,0,3.311,0.136,5.212,0.406c1.901,0.272,4.452,0.734,7.657,1.386l-0.326,8.634
			c-4.617-0.434-7.821-0.651-9.612-0.651c-2.498,0-4.399,0.339-5.701,1.018c-1.303,0.68-2.212,1.833-2.729,3.461
			c-0.517,1.63-0.774,3.965-0.774,7.006c0,3.094,0.257,5.458,0.774,7.084c0.516,1.631,1.437,2.799,2.768,3.503
			c1.332,0.708,3.271,1.06,5.825,1.06l9.449-0.65l0.326,8.715c-5.756,1.14-10.264,1.711-13.521,1.711
			C107.433,116.055,103.183,114.357,100.551,110.965z"/>
		<path fill="#FFFFFF" d="M134.883,58.062h10.916v32.417l4.153-0.732l8.064-15.395h12.216l-10.588,19.303l11.159,21.42h-12.298
			l-8.226-15.881l-4.481,0.734v15.146h-10.916V58.062L134.883,58.062z"/>
		<path fill="#FFFFFF" d="M174.142,102.696c0-4.235,1.126-7.289,3.379-9.161c2.253-1.875,5.877-2.973,10.875-3.301l8.715-0.65V87.06
			c0-1.63-0.365-2.771-1.099-3.421c-0.734-0.651-1.97-0.979-3.706-0.979c-1.792,0-4.261,0.069-7.413,0.206
			c-3.148,0.136-5.782,0.285-7.899,0.448l-0.327-7.574c5.864-1.577,11.404-2.363,16.616-2.363c5.213,0,8.975,1.086,11.281,3.257
			c2.308,2.173,3.462,5.648,3.462,10.427V104c0.109,1.358,0.338,2.279,0.69,2.771c0.355,0.486,1.02,0.84,1.999,1.057l-0.327,8.227
			c-2.823,0-5.064-0.191-6.719-0.57c-1.658-0.382-3.3-1.143-4.926-2.28c-3.967,1.898-7.959,2.851-11.977,2.851
			C178.349,116.055,174.142,111.603,174.142,102.696z M195.889,106.2l1.222-0.325v-8.717l-7.411,0.652
			c-3.042,0.271-4.562,1.901-4.562,4.886c0,2.987,1.329,4.479,3.99,4.479C191.192,107.176,193.447,106.85,195.889,106.2z"/>
		<path fill="#FFFFFF" d="M224.966,114.589c-1.737-0.978-2.985-2.579-3.745-4.806c-0.764-2.225-1.142-5.295-1.142-9.203V83.639
			h-4.805v-9.286h4.805V63.031h10.912v11.321h10.02v9.286h-10.018v16.697c0,2.117,0.188,3.65,0.571,4.602
			c0.378,0.951,1.329,1.398,2.848,1.344l6.192-0.163l0.487,8.716c-2.172,0.488-3.868,0.813-5.089,0.975
			c-1.223,0.164-2.459,0.246-3.708,0.246C229.147,116.055,226.702,115.568,224.966,114.589z"/>
		<path fill="#FFFFFF" d="M248.098,58.062h10.914v18.246c2.063-1.032,3.897-1.776,5.498-2.239c1.603-0.462,3.324-0.692,5.174-0.692
			c4.993,0,8.538,1.588,10.628,4.764c2.088,3.177,3.134,8.131,3.134,14.866v22.068h-10.914V93.25c0-3.691-0.436-6.3-1.303-7.819
			c-0.867-1.521-2.552-2.28-5.048-2.28c-1.957,0-3.992,0.326-6.11,0.977l-1.059,0.327v30.625h-10.914V58.062z"/>
		<path fill="#FFFFFF" d="M295.787,110.476c-3.178-3.719-4.767-8.999-4.767-15.841c0-6.786,1.589-12.029,4.767-15.721
			c3.178-3.691,7.831-5.539,13.969-5.539c6.134,0,10.792,1.847,13.967,5.539c3.179,3.693,4.767,8.935,4.767,15.721
			c0,6.842-1.588,12.125-4.767,15.841c-3.175,3.72-7.833,5.581-13.967,5.581C303.618,116.055,298.965,114.195,295.787,110.476z
			 M315.539,103.921c1.248-1.901,1.872-4.998,1.872-9.286c0-4.291-0.624-7.359-1.872-9.205c-1.251-1.845-3.177-2.771-5.783-2.771
			c-2.607,0-4.535,0.925-5.783,2.771c-1.249,1.846-1.875,4.916-1.875,9.205c0,4.288,0.626,7.385,1.875,9.286
			c1.248,1.901,3.176,2.851,5.783,2.851C312.362,106.771,314.288,105.822,315.539,103.921z"/>
		<path fill="#FFFFFF" d="M336.472,74.353h10.831v2.28c2.064-1.193,3.896-2.036,5.498-2.524c1.6-0.489,3.325-0.733,5.171-0.733
			c4.999,0,8.554,1.602,10.671,4.805c2.118,3.205,3.177,8.145,3.177,14.826v22.07h-10.914V93.33c0-3.746-0.448-6.38-1.344-7.9
			c-0.896-1.52-2.593-2.279-5.089-2.279c-1.79,0-3.829,0.38-6.11,1.141l-0.979,0.325v30.463h-10.912V74.353L336.472,74.353z"/>
	</g>
	<g>
		<path fill="#FFFFFF" d="M190.058,147.652c-1.157-0.801-1.957-1.969-2.393-3.502c-0.439-1.535-0.656-3.562-0.656-6.082
			c0-2.6,0.223-4.672,0.671-6.217c0.446-1.542,1.235-2.703,2.364-3.475c1.125-0.771,2.725-1.157,4.798-1.157
			c1.687,0,3.637,0.244,5.853,0.731l-0.092,2.406c-1.932-0.342-3.657-0.516-5.182-0.516c-1.523,0-2.671,0.268-3.443,0.807
			c-0.771,0.541-1.291,1.406-1.554,2.604c-0.267,1.2-0.388,2.938-0.366,5.213c0,1.97,0.125,3.49,0.38,4.557
			c0.254,1.066,0.772,1.867,1.554,2.404c0.785,0.541,1.978,0.809,3.582,0.809c1.339,0,3.018-0.17,5.029-0.517l0.092,2.469
			c-2.236,0.446-4.115,0.669-5.641,0.669C192.882,148.855,191.214,148.457,190.058,147.652z"/>
		<path fill="#FFFFFF" d="M204.593,146.953c-1.037-1.271-1.554-3.266-1.554-5.992c0-2.779,0.53-4.812,1.585-6.091
			c1.055-1.282,2.753-1.921,5.089-1.921c2.355,0,4.058,0.645,5.105,1.936c1.048,1.287,1.569,3.316,1.569,6.076
			c0,2.705-0.517,4.695-1.555,5.976c-1.037,1.278-2.744,1.919-5.12,1.919S205.63,148.223,204.593,146.953z M211.985,145.87
			c0.537-0.345,0.919-0.903,1.141-1.677c0.225-0.771,0.336-1.848,0.336-3.229c0-1.442-0.116-2.56-0.352-3.353
			c-0.232-0.789-0.619-1.355-1.157-1.69c-0.54-0.334-1.284-0.503-2.24-0.503c-0.954,0-1.706,0.169-2.254,0.503
			c-0.55,0.335-0.94,0.903-1.175,1.706c-0.234,0.805-0.35,1.916-0.35,3.337c0,1.362,0.113,2.435,0.334,3.216
			c0.225,0.781,0.609,1.346,1.158,1.691c0.55,0.344,1.311,0.518,2.286,0.518S211.446,146.215,211.985,145.87z"/>
		<path fill="#FFFFFF" d="M220.043,126.825h2.834v21.694h-2.834V126.825z"/>
		<path fill="#FFFFFF" d="M227.936,146.953c-1.036-1.271-1.556-3.266-1.556-5.992c0-2.779,0.528-4.812,1.584-6.091
			c1.057-1.282,2.754-1.921,5.091-1.921c2.355,0,4.057,0.645,5.105,1.936c1.046,1.287,1.566,3.316,1.566,6.076
			c0,2.705-0.517,4.695-1.553,5.976c-1.036,1.278-2.745,1.919-5.119,1.919C230.679,148.855,228.97,148.223,227.936,146.953z
			 M235.324,145.87c0.538-0.345,0.919-0.903,1.143-1.677c0.226-0.771,0.337-1.848,0.337-3.229c0-1.442-0.118-2.56-0.352-3.353
			c-0.234-0.789-0.619-1.355-1.158-1.69c-0.538-0.334-1.285-0.503-2.239-0.503c-0.957,0-1.707,0.169-2.254,0.503
			c-0.551,0.335-0.94,0.903-1.174,1.706c-0.234,0.805-0.351,1.916-0.351,3.337c0,1.362,0.111,2.435,0.333,3.216
			c0.224,0.781,0.609,1.346,1.159,1.691c0.548,0.344,1.311,0.518,2.286,0.518C234.028,146.389,234.785,146.215,235.324,145.87z"/>
		<path fill="#FFFFFF" d="M243.199,133.286h2.806v1.003c0.773-0.445,1.502-0.781,2.192-1.003c0.694-0.225,1.401-0.337,2.135-0.337
			c0.792,0,1.524,0.127,2.193,0.383c0.671,0.254,1.197,0.635,1.582,1.14c0.815-0.445,1.705-0.812,2.671-1.097
			c0.963-0.283,1.943-0.426,2.939-0.426c1.26,0,2.246,0.254,2.956,0.762c0.709,0.51,1.219,1.299,1.525,2.377
			c0.305,1.076,0.456,2.518,0.456,4.324v8.107h-2.835v-8.045c0-1.281-0.076-2.271-0.229-2.973c-0.151-0.697-0.426-1.207-0.82-1.521
			c-0.395-0.316-0.982-0.473-1.754-0.473c-0.569,0-1.157,0.065-1.766,0.197c-0.611,0.133-1.15,0.3-1.617,0.503l-0.547,0.243
			c0.221,0.873,0.331,2.255,0.331,4.145v7.922h-2.861v-7.862c0-1.36-0.074-2.399-0.214-3.122c-0.145-0.722-0.411-1.238-0.807-1.553
			c-0.396-0.316-0.98-0.473-1.752-0.473c-0.569,0-1.154,0.07-1.751,0.213c-0.604,0.141-1.104,0.303-1.51,0.486l-0.489,0.244v12.064
			h-2.835V133.286L243.199,133.286z"/>
		<path fill="#FFFFFF" d="M269.651,148.583l-0.944-0.092v-21.666h2.835v7.13c0.771-0.347,1.487-0.598,2.146-0.763
			c0.661-0.162,1.378-0.243,2.153-0.243c1.338,0,2.411,0.263,3.213,0.791c0.801,0.529,1.391,1.367,1.768,2.516
			c0.375,1.148,0.562,2.678,0.562,4.586c0,2.051-0.229,3.654-0.685,4.799c-0.457,1.148-1.209,1.967-2.255,2.455
			c-1.046,0.487-2.505,0.73-4.373,0.73C272.69,148.826,271.217,148.744,269.651,148.583z M276.826,145.762
			c0.622-0.354,1.054-0.924,1.297-1.703c0.243-0.785,0.365-1.866,0.365-3.247c0-1.34-0.107-2.391-0.32-3.154
			c-0.212-0.764-0.558-1.309-1.035-1.646c-0.479-0.336-1.133-0.503-1.968-0.503c-1.015,0-2.224,0.244-3.623,0.733v9.903
			c1.318,0.099,2.193,0.151,2.619,0.151C275.32,146.297,276.209,146.119,276.826,145.762z"/>
		<path fill="#FFFFFF" d="M285.771,146.953c-1.036-1.271-1.553-3.266-1.553-5.992c0-2.779,0.529-4.812,1.584-6.091
			c1.058-1.282,2.754-1.921,5.09-1.921c2.357,0,4.059,0.645,5.104,1.936c1.045,1.287,1.569,3.316,1.569,6.076
			c0,2.705-0.519,4.695-1.552,5.976c-1.039,1.278-2.744,1.919-5.122,1.919C288.516,148.855,286.808,148.223,285.771,146.953z
			 M293.162,145.87c0.537-0.345,0.918-0.903,1.144-1.677c0.222-0.771,0.336-1.848,0.336-3.229c0-1.442-0.118-2.56-0.353-3.353
			c-0.232-0.789-0.621-1.355-1.159-1.69c-0.538-0.334-1.282-0.503-2.238-0.503c-0.954,0-1.71,0.169-2.255,0.503
			c-0.549,0.335-0.938,0.903-1.174,1.706c-0.233,0.805-0.352,1.916-0.352,3.337c0,1.362,0.113,2.435,0.338,3.216
			c0.221,0.781,0.607,1.346,1.157,1.691c0.548,0.344,1.308,0.518,2.283,0.518S292.623,146.215,293.162,145.87z"/>
		<path fill="#FFFFFF" d="M307.621,144.958l4.297-4.36c1.113-1.157,1.949-2.062,2.497-2.711c0.553-0.65,0.951-1.249,1.206-1.799
			c0.253-0.549,0.38-1.14,0.38-1.768c0-0.914-0.238-1.57-0.716-1.965c-0.477-0.396-1.194-0.596-2.148-0.596
			c-1.342,0-2.824,0.121-4.45,0.365l-0.73,0.092l-0.215-3.262c1.993-0.607,4.054-0.913,6.186-0.913c4.268,0,6.4,1.922,6.4,5.761
			c0,1.017-0.135,1.915-0.413,2.697c-0.271,0.779-0.729,1.574-1.371,2.375c-0.636,0.805-1.547,1.742-2.724,2.819l-3.507,3.17h8.353
			v3.655h-13.042v-3.562H307.621z"/>
		<path fill="#FFFFFF" d="M325.356,146.342c-1.281-1.654-1.92-4.302-1.92-7.938c0-3.639,0.639-6.283,1.92-7.938
			c1.279-1.656,3.241-2.484,5.881-2.484c2.643,0,4.604,0.828,5.881,2.484c1.278,1.654,1.921,4.299,1.921,7.938
			c0,3.636-0.643,6.281-1.921,7.938c-1.277,1.656-3.238,2.484-5.881,2.484C328.598,148.826,326.636,147.998,325.356,146.342z
			 M333.249,144.514c0.506-0.436,0.877-1.146,1.111-2.134c0.236-0.985,0.353-2.31,0.353-3.976c0-1.667-0.116-2.991-0.353-3.978
			c-0.234-0.984-0.605-1.696-1.111-2.132c-0.509-0.437-1.178-0.656-2.012-0.656c-0.833,0-1.504,0.22-2.01,0.656
			c-0.508,0.436-0.882,1.147-1.113,2.132c-0.235,0.986-0.351,2.312-0.351,3.978c0,1.666,0.115,2.99,0.351,3.976
			c0.231,0.987,0.605,1.698,1.113,2.134c0.506,0.438,1.177,0.654,2.01,0.654C332.071,145.168,332.74,144.951,333.249,144.514z"/>
		<path fill="#FFFFFF" d="M348.302,133.161l-4.356,2.806l-1.921-3.141l6.645-4.417h3.84v20.11h-4.205v-15.358H348.302z"/>
		<path fill="#FFFFFF" d="M360.733,147.788l6.859-14.656v-0.978h-8.654v-3.745h12.858v4.752l-7.159,15.728L360.733,147.788z"/>
	</g>
	<g>
		<path fill="#FFFFFF" d="M2.805,28.699h8.334c1.155,0,2.183,0.13,3.112,0.322c0.961,0.256,1.73,0.641,2.403,1.025
			c0.64,0.449,1.155,0.963,1.507,1.603c0.385,0.578,0.578,1.283,0.578,1.988c0,0.962-0.225,1.731-0.642,2.374
			c-0.45,0.705-1.217,1.346-2.34,1.987c1.154,0.385,2.083,0.962,2.821,1.796c0.738,0.832,1.091,1.793,1.091,2.884
			c0,0.802-0.16,1.508-0.512,2.148c-0.323,0.642-0.835,1.285-1.475,1.731c-0.644,0.481-1.413,0.867-2.308,1.124
			c-0.899,0.321-1.927,0.45-3.015,0.45H2.772V28.668L2.805,28.699z M7.616,37.1h3.141c0.961,0,1.796-0.321,2.341-0.896
			c0.544-0.578,0.831-1.346,0.831-2.245c0-1.025-0.318-1.859-1.087-2.5c-0.738-0.644-1.923-0.963-3.463-0.963H7.583v6.573
			L7.616,37.1z M7.616,46.143h2.563c1.604,0,2.725-0.32,3.461-0.961c0.707-0.643,1.059-1.414,1.059-2.375
			c0-0.544-0.064-1.026-0.224-1.506c-0.159-0.481-0.414-0.866-0.768-1.219c-0.385-0.32-0.834-0.64-1.443-0.801
			c-0.58-0.192-1.283-0.323-2.151-0.323H7.647v7.185H7.616z M34.001,48.161h-4.425V46.88l-0.703,0.641l-0.803,0.449l-0.961,0.321
			c-0.385,0.063-0.802,0.096-1.282,0.096c-0.705,0-1.282-0.096-1.86-0.321c-0.545-0.16-0.961-0.417-1.377-0.77
			c-0.384-0.32-0.642-0.738-0.867-1.186c-0.191-0.481-0.32-0.963-0.32-1.507c0-0.866,0.257-1.604,0.705-2.246
			c0.452-0.577,1.059-1.088,1.766-1.505c0.737-0.45,1.603-0.834,2.468-1.156c0.899-0.319,1.796-0.64,2.693-0.897l0.513-0.128v-1.411
			c0-0.96-0.193-1.604-0.543-1.988c-0.324-0.383-0.835-0.575-1.444-0.575c-0.706,0-1.186,0.192-1.443,0.512
			c-0.256,0.321-0.384,0.738-0.384,1.218c0,0.321,0,0.578-0.096,0.833c-0.064,0.256-0.161,0.481-0.323,0.642
			c-0.159,0.224-0.384,0.385-0.639,0.481c-0.257,0.127-0.577,0.193-0.963,0.193c-0.64,0-1.151-0.161-1.538-0.514
			c-0.385-0.321-0.576-0.802-0.576-1.347c0-0.481,0.159-0.963,0.512-1.41c0.32-0.417,0.801-0.801,1.379-1.122
			c0.643-0.323,1.282-0.577,2.052-0.737c0.77-0.193,1.603-0.257,2.437-0.257c2.114,0,3.622,0.32,4.585,1.058
			c0.961,0.738,1.41,1.701,1.41,2.886v11.03H34.001z M29.576,40.465l-1.282,0.643c-0.45,0.256-0.866,0.512-1.22,0.801
			c-0.319,0.319-0.639,0.577-0.865,0.898c-0.223,0.32-0.321,0.641-0.321,1.025c0,0.546,0.129,1.059,0.417,1.442
			c0.257,0.417,0.579,0.642,0.963,0.642c0.32,0,0.705-0.128,1.088-0.321l1.219-0.864v-4.201V40.465L29.576,40.465z M41.759,48.161
			h-4.392V27.546l4.392-1.187V48.161z M49.165,48.161h-4.393V27.546l4.393-1.187V48.161z M58.881,48.481
			c-1.058,0-2.021-0.223-2.95-0.64c-0.898-0.321-1.699-0.865-2.374-1.538c-0.704-0.642-1.215-1.411-1.603-2.246
			c-0.416-0.898-0.642-1.827-0.642-2.789c0-1.155,0.226-2.244,0.579-3.207c0.386-0.962,0.897-1.859,1.539-2.564
			c0.642-0.738,1.475-1.283,2.405-1.7c0.962-0.417,1.988-0.64,3.143-0.64c1.024,0,1.923,0.19,2.819,0.512
			c0.834,0.322,1.604,0.771,2.18,1.283c0.579,0.512,1.06,1.283,1.411,2.02c0.319,0.801,0.483,1.603,0.483,2.5H55.739
			c0,0.802,0.127,1.604,0.321,2.309c0.225,0.738,0.511,1.379,0.832,1.923c0.322,0.579,0.771,1.026,1.22,1.379
			c0.512,0.321,1.025,0.48,1.602,0.48c0.48,0,0.961-0.063,1.443-0.224c0.48-0.159,0.897-0.385,1.283-0.641
			c0.381-0.321,0.737-0.643,1.057-1.06c0.32-0.384,0.481-0.801,0.642-1.282l2.245,0.385c-0.193,0.77-0.546,1.507-1.057,2.245
			c-0.513,0.642-1.09,1.282-1.766,1.794c-0.64,0.514-1.441,0.963-2.243,1.283c-0.799,0.256-1.603,0.416-2.372,0.416h-0.064V48.481z
			 M60.804,37.901c-0.128-0.866-0.416-1.603-0.897-2.083c-0.481-0.547-1.089-0.803-1.794-0.803c-0.546,0-1.058,0.256-1.541,0.77
			c-0.449,0.546-0.736,1.283-0.833,2.148h5.032L60.804,37.901z M72.795,48.161h-4.424V33.412h4.424v1.09
			c0.482-0.512,1.027-0.897,1.604-1.218c0.64-0.321,1.283-0.449,1.924-0.449c0.32,0,0.739,0,1.089,0.161
			c0.32,0.063,0.642,0.192,0.96,0.384c0.227,0.194,0.418,0.385,0.578,0.642c0.129,0.226,0.225,0.48,0.225,0.77
			c0,0.512-0.225,0.961-0.64,1.283c-0.322,0.32-0.768,0.48-1.283,0.48c-0.385,0-0.641,0-0.897-0.16l-0.643-0.321
			c-0.158-0.161-0.318-0.321-0.545-0.386c-0.192-0.127-0.45-0.191-0.738-0.191s-0.542,0.224-0.865,0.641
			c-0.32,0.386-0.544,0.865-0.803,1.378v10.581L72.795,48.161z M80.298,28.829c0-0.643,0.256-1.122,0.706-1.54
			c0.479-0.481,1.026-0.641,1.698-0.641c0.643,0,1.188,0.16,1.668,0.641c0.449,0.386,0.641,0.897,0.641,1.507
			c0,0.576-0.191,1.089-0.641,1.507c-0.48,0.416-1.058,0.641-1.699,0.641c-0.705,0-1.281-0.225-1.731-0.641
			c-0.448-0.416-0.705-0.961-0.705-1.507L80.298,28.829z M80.522,34.279l4.424-1.283v15.165h-4.454V34.215L80.522,34.279z
			 M96.969,38.094c0-0.77-0.16-1.348-0.449-1.731c-0.321-0.384-0.643-0.577-1.025-0.577c-0.385,0-0.866,0.128-1.442,0.417
			c-0.577,0.32-1.125,0.707-1.603,1.185v10.774h-4.49V33.412h4.49v1.155c0.64-0.514,1.346-0.866,2.147-1.122
			c0.771-0.225,1.541-0.322,2.342-0.322c0.577,0,1.153,0.097,1.698,0.322c0.547,0.255,1.028,0.576,1.411,0.962
			c0.419,0.417,0.738,0.864,0.963,1.411c0.255,0.577,0.384,1.153,0.384,1.762v10.581h-4.426V38.062V38.094z M115.82,48.161h-4.484
			V46.88l-0.708,0.641c-0.224,0.16-0.48,0.321-0.769,0.449l-0.963,0.321c-0.321,0.063-0.801,0.096-1.28,0.096
			c-0.642,0-1.283-0.096-1.86-0.321c-0.543-0.16-0.963-0.417-1.379-0.77c-0.32-0.32-0.639-0.738-0.866-1.186
			c-0.191-0.481-0.321-0.963-0.321-1.507c0-0.866,0.257-1.604,0.707-2.246c0.48-0.577,1.087-1.088,1.828-1.505
			c0.737-0.45,1.538-0.834,2.436-1.156l2.693-0.897l0.513-0.128v-1.411c0-0.96-0.192-1.604-0.546-1.988
			c-0.323-0.383-0.833-0.575-1.443-0.575c-0.641,0-1.152,0.192-1.411,0.512c-0.254,0.321-0.382,0.738-0.382,1.218
			c0,0.321,0,0.578-0.098,0.833c0,0.256-0.129,0.481-0.32,0.642c-0.129,0.224-0.32,0.385-0.579,0.481
			c-0.319,0.127-0.64,0.193-1.024,0.193c-0.642,0-1.121-0.161-1.507-0.514c-0.383-0.321-0.577-0.802-0.577-1.347
			c0-0.481,0.161-0.963,0.512-1.41c0.385-0.417,0.832-0.801,1.412-1.122c0.637-0.323,1.282-0.577,2.052-0.737
			c0.77-0.193,1.603-0.257,2.435-0.257c2.117,0,3.657,0.32,4.586,1.058c0.96,0.738,1.445,1.701,1.445,2.886v11.03H115.82z
			 M111.336,40.531l-1.285,0.643c-0.417,0.254-0.802,0.511-1.156,0.8c-0.319,0.321-0.639,0.578-0.865,0.899
			c-0.255,0.321-0.384,0.641-0.384,1.024c0,0.546,0.129,1.059,0.418,1.443c0.32,0.417,0.639,0.642,0.959,0.642
			c0.385,0,0.739-0.126,1.123-0.319l1.217-0.866v-4.265h-0.028V40.531z"/>
	</g>
	<circle fill-rule="evenodd" clip-rule="evenodd" fill="#FFFFFF" cx="148.501" cy="150.094" r="5.358"/>
	
		<line fill="#FFFFFF" stroke="#FFFFFF" stroke-width="2.6457" stroke-miterlimit="10" x1="148.501" y1="150.094" x2="170.108" y2="121.117"/>
	<circle fill-rule="evenodd" clip-rule="evenodd" fill="#FFFFFF" cx="225.497" cy="39.233" r="5.357"/>
	
		<line fill="#FFFFFF" stroke="#FFFFFF" stroke-width="2.6457" stroke-miterlimit="10" x1="203.586" y1="68.208" x2="225.194" y2="39.233"/>
	<circle fill-rule="evenodd" clip-rule="evenodd" fill="#FFFFFF" cx="301.285" cy="40.635" r="5.358"/>
	
		<line fill="#FFFFFF" stroke="#FFFFFF" stroke-width="2.6457" stroke-miterlimit="10" x1="225.498" y1="39.233" x2="301.284" y2="40.635"/>
	<circle fill-rule="evenodd" clip-rule="evenodd" fill="#FFFFFF" cx="335.382" cy="5.357" r="5.359"/>
	<circle fill-rule="evenodd" clip-rule="evenodd" fill="#FFFFFF" cx="74.017" cy="137.471" r="5.357"/>
	<circle fill-rule="evenodd" clip-rule="evenodd" fill="#FFFFFF" cx="36.24" cy="166.435" r="5.358"/>
	
		<line fill="#FFFFFF" stroke="#FFFFFF" stroke-width="2.6457" stroke-miterlimit="10" x1="35.816" y1="167.207" x2="73.241" y2="137.49"/>
	
		<line fill="#FFFFFF" stroke="#FFFFFF" stroke-width="2.9017" stroke-miterlimit="10" x1="73.897" y1="137.472" x2="149.522" y2="150.426"/>
	
		<line fill="#FFFFFF" stroke="#FFFFFF" stroke-width="2.6457" stroke-miterlimit="10" x1="301.342" y1="41.047" x2="333.302" y2="6.602"/>
	<g>
		<path fill="none" stroke="#FFFFFF" stroke-width="3" stroke-miterlimit="10" d="M464.785,61.567h11.745v32.917
			c0,14.836-7.109,20.013-18.545,20.013c-2.705,0-6.26-0.464-8.577-1.236l1.313-9.504c1.622,0.541,3.709,0.927,6.027,0.927
			c4.945,0,8.036-2.241,8.036-10.354V61.567z"/>
		<path fill="none" stroke="#FFFFFF" stroke-width="3" stroke-miterlimit="10" d="M521.579,101.516c0,4.945,0.155,8.963,0.31,12.131
			h-10.2l-0.541-5.332h-0.231c-1.468,2.318-5.022,6.182-11.822,6.182c-7.65,0-13.291-4.791-13.291-16.458V75.862h11.822v20.322
			c0,5.486,1.777,8.809,5.873,8.809c3.245,0,5.1-2.241,5.873-4.095c0.309-0.696,0.386-1.623,0.386-2.55V75.862h11.822V101.516z"/>
		<path fill="none" stroke="#FFFFFF" stroke-width="3" stroke-miterlimit="10" d="M531.007,58.785h11.745v54.862h-11.745V58.785z"/>
		<path fill="none" stroke="#FFFFFF" stroke-width="3" stroke-miterlimit="10" d="M561.064,75.862l5.641,18.545
			c0.618,2.241,1.391,5.022,1.854,7.031h0.231c0.541-2.009,1.159-4.868,1.7-7.031l4.637-18.545h12.595l-8.809,24.881
			c-5.409,14.991-9.041,21.018-13.291,24.804c-4.095,3.555-8.422,4.791-11.358,5.177l-2.473-9.968
			c1.468-0.232,3.322-0.927,5.1-2.009c1.777-0.927,3.709-2.781,4.868-4.713c0.387-0.541,0.618-1.159,0.618-1.7
			c0-0.387-0.077-1.005-0.541-1.932l-13.831-34.54H561.064z"/>
		<path fill="none" stroke="#FFFFFF" stroke-width="3" stroke-miterlimit="10" d="M621.799,73.853h-0.154l-9.581,4.559l-1.932-8.809
			l13.29-6.182h9.736v50.226h-11.359V73.853z"/>
	</g>
	<g>
		<path fill="#FFFFFF" d="M762.879,73.317c1.944-0.317,4.84-0.556,8.054-0.556c3.968,0,6.744,0.595,8.648,2.103
			c1.587,1.27,2.46,3.134,2.46,5.594c0,3.412-2.42,5.753-4.721,6.586v0.119c1.864,0.754,2.896,2.539,3.57,4.998
			c0.833,3.016,1.666,6.507,2.182,7.538h-6.188c-0.437-0.754-1.071-2.936-1.864-6.229c-0.715-3.332-1.865-4.245-4.325-4.284h-1.824
			v10.513h-5.991V73.317z M768.87,84.822h2.38c3.016,0,4.801-1.508,4.801-3.849c0-2.46-1.666-3.689-4.443-3.729
			c-1.468,0-2.301,0.119-2.737,0.199V84.822z"/>
		<path fill="#FFFFFF" d="M790.847,91.923c0.198,2.499,2.658,3.689,5.476,3.689c2.062,0,3.729-0.278,5.355-0.794l0.793,4.087
			c-1.983,0.793-4.403,1.189-7.021,1.189c-6.586,0-10.354-3.809-10.354-9.878c0-4.92,3.055-10.354,9.799-10.354
			c6.269,0,8.648,4.88,8.648,9.68c0,1.031-0.119,1.944-0.198,2.381H790.847z M797.948,87.797c0-1.468-0.635-3.928-3.412-3.928
			c-2.539,0-3.57,2.301-3.729,3.928H797.948z"/>
		<path fill="#FFFFFF" d="M825.678,80.299c-0.079,1.229-0.158,2.856-0.158,5.752v10.831c0,3.729-0.754,6.784-2.937,8.728
			c-2.142,1.825-5.038,2.381-7.895,2.381c-2.539,0-5.237-0.516-6.982-1.508l1.19-4.562c1.229,0.714,3.372,1.468,5.633,1.468
			c2.856,0,5.039-1.547,5.039-5.117v-1.27h-0.08c-1.15,1.626-3.015,2.539-5.236,2.539c-4.801,0-8.212-3.889-8.212-9.482
			c0-6.229,4.046-10.195,8.807-10.195c2.658,0,4.325,1.15,5.316,2.737h0.079l0.199-2.301H825.678z M819.488,88.194
			c0-0.396-0.039-0.794-0.118-1.111c-0.437-1.587-1.587-2.657-3.254-2.657c-2.182,0-3.967,1.983-3.967,5.514
			c0,2.896,1.428,5.158,3.967,5.158c1.548,0,2.777-1.032,3.174-2.46c0.159-0.437,0.198-1.071,0.198-1.587V88.194z"/>
		<path fill="#FFFFFF" d="M836.586,74.904c0,1.666-1.27,3.015-3.253,3.015c-1.904,0-3.174-1.349-3.134-3.015
			c-0.04-1.746,1.229-3.056,3.174-3.056C835.316,71.848,836.547,73.158,836.586,74.904z M830.357,99.699V80.299h6.03v19.399H830.357
			z"/>
		<path fill="#FFFFFF" d="M841.188,94.422c1.11,0.675,3.411,1.468,5.196,1.468c1.825,0,2.579-0.635,2.579-1.626
			c0-0.992-0.595-1.469-2.856-2.222c-4.007-1.35-5.554-3.531-5.515-5.832c0-3.61,3.095-6.348,7.895-6.348
			c2.262,0,4.285,0.516,5.476,1.11l-1.071,4.166c-0.873-0.477-2.539-1.111-4.205-1.111c-1.469,0-2.302,0.596-2.302,1.587
			c0,0.913,0.754,1.389,3.135,2.222c3.689,1.27,5.236,3.135,5.276,5.991c0,3.61-2.856,6.268-8.411,6.268
			c-2.539,0-4.8-0.555-6.268-1.349L841.188,94.422z"/>
		<path fill="#FFFFFF" d="M865.188,74.745v5.555h4.324v4.443h-4.324v7.021c0,2.341,0.556,3.412,2.381,3.412
			c0.754,0,1.349-0.079,1.785-0.159l0.04,4.562c-0.794,0.317-2.222,0.516-3.928,0.516c-1.944,0-3.571-0.674-4.522-1.666
			c-1.111-1.15-1.667-3.015-1.667-5.752v-7.935h-2.578v-4.443h2.578v-4.206L865.188,74.745z"/>
		<path fill="#FFFFFF" d="M877.445,91.923c0.198,2.499,2.658,3.689,5.475,3.689c2.063,0,3.729-0.278,5.356-0.794l0.793,4.087
			c-1.983,0.793-4.403,1.189-7.021,1.189c-6.586,0-10.354-3.809-10.354-9.878c0-4.92,3.055-10.354,9.799-10.354
			c6.269,0,8.648,4.88,8.648,9.68c0,1.031-0.119,1.944-0.198,2.381H877.445z M884.547,87.797c0-1.468-0.635-3.928-3.412-3.928
			c-2.539,0-3.57,2.301-3.729,3.928H884.547z"/>
		<path fill="#FFFFFF" d="M893.75,86.686c0-2.856-0.079-4.721-0.158-6.387h5.197l0.198,3.57h0.158
			c0.992-2.817,3.372-4.007,5.237-4.007c0.555,0,0.833,0,1.27,0.079v5.673c-0.437-0.079-0.952-0.158-1.627-0.158
			c-2.222,0-3.729,1.19-4.126,3.055c-0.079,0.396-0.119,0.873-0.119,1.349v9.839h-6.03V86.686z"/>
		<path fill="#FFFFFF" d="M917.035,99.699V72.959h7.062l5.554,9.799c1.587,2.817,3.174,6.149,4.364,9.165h0.119
			c-0.397-3.531-0.516-7.142-0.516-11.148v-7.815h5.554v26.739h-6.348l-5.713-10.314c-1.587-2.856-3.333-6.309-4.642-9.442
			l-0.119,0.04c0.158,3.53,0.238,7.3,0.238,11.663v8.054H917.035z"/>
		<path fill="#FFFFFF" d="M963.253,89.781c0,7.102-5.038,10.354-10.235,10.354c-5.674,0-10.037-3.729-10.037-9.997
			c0-6.269,4.126-10.275,10.354-10.275C959.285,79.863,963.253,83.949,963.253,89.781z M949.209,89.979
			c0,3.333,1.389,5.832,3.967,5.832c2.341,0,3.849-2.341,3.849-5.832c0-2.896-1.111-5.832-3.849-5.832
			C950.28,84.147,949.209,87.123,949.209,89.979z"/>
		<path fill="#FFFFFF" d="M970.79,80.299l1.547,7.935c0.396,2.022,0.794,4.165,1.111,6.387h0.079
			c0.396-2.222,0.952-4.443,1.428-6.348l2.063-7.974h4.761l1.943,7.735c0.517,2.183,1.032,4.364,1.429,6.586h0.079
			c0.278-2.222,0.675-4.403,1.111-6.625l1.666-7.696h5.911l-5.951,19.399h-5.673l-1.825-6.823c-0.476-1.904-0.833-3.65-1.229-6.03
			h-0.079c-0.357,2.42-0.754,4.205-1.27,6.03l-1.944,6.823h-5.673l-5.634-19.399H970.79z"/>
	</g>
	
		<rect x="716.743" y="57.434" fill="none" stroke="#FFFFFF" stroke-width="3" stroke-miterlimit="10" width="321.095" height="58.273"/>
</g>
</svg>
