<?xml version="1.0" encoding="utf-8"?>
<!-- Generator: Adobe Illustrator 16.0.0, SVG Export Plug-In . SVG Version: 6.00 Build 0)  -->
<!DOCTYPE svg PUBLIC "-//W3C//DTD SVG 1.1//EN" "http://www.w3.org/Graphics/SVG/1.1/DTD/svg11.dtd">
<svg version="1.1" id="Layer_1" xmlns="http://www.w3.org/2000/svg" xmlns:xlink="http://www.w3.org/1999/xlink" x="0px" y="0px"
	 width="1042.301px" height="171.793px" viewBox="0 0 1042.301 171.793" enable-background="new 0 0 1042.301 171.793"
	 xml:space="preserve">
<g id="Layer_1_2_">
	<g id="Layer_2">
	</g>
	<g id="Layer_1_1_">
		<g>
			<path fill="#FFFFFF" d="M117.93,59.69v55.387h-11.239V92.109H86.083v22.97H74.842V59.69h11.241v22.643h20.607V59.69H117.93z"/>
			<path fill="#FFFFFF" d="M126.319,102.695c0-4.233,1.126-7.288,3.379-9.159c2.253-1.875,5.876-2.974,10.874-3.302l8.715-0.649
				v-2.524c0-1.629-0.366-2.771-1.101-3.42c-0.733-0.651-1.968-0.979-3.706-0.979c-1.792,0-4.264,0.069-7.412,0.206
				c-3.149,0.136-5.783,0.285-7.901,0.448l-0.326-7.574c5.866-1.577,11.403-2.363,16.616-2.363c5.212,0,8.974,1.086,11.281,3.257
				c2.308,2.173,3.461,5.648,3.461,10.428V104c0.109,1.357,0.34,2.277,0.692,2.771c0.352,0.483,1.019,0.84,1.996,1.058l-0.325,8.228
				c-2.826,0-5.064-0.19-6.72-0.57c-1.656-0.383-3.299-1.144-4.929-2.278c-3.965,1.896-7.956,2.853-11.974,2.853
				C130.527,116.055,126.319,111.604,126.319,102.695z M148.066,106.2l1.222-0.324v-8.717l-7.412,0.651
				c-3.042,0.271-4.561,1.899-4.561,4.885c0,2.988,1.33,4.479,3.989,4.479C143.367,107.176,145.622,106.85,148.066,106.2z"/>
			<path fill="#FFFFFF" d="M172.621,110.965c-2.635-3.396-3.951-8.811-3.951-16.25c0-7.547,1.357-12.991,4.074-16.33
				c2.715-3.34,7.139-5.01,13.277-5.01c1.573,0,3.311,0.136,5.212,0.406c1.9,0.271,4.452,0.734,7.656,1.386l-0.325,8.634
				c-4.617-0.434-7.821-0.651-9.612-0.651c-2.498,0-4.399,0.339-5.701,1.018c-1.303,0.68-2.212,1.833-2.729,3.46
				c-0.518,1.631-0.774,3.965-0.774,7.006c0,3.095,0.257,5.459,0.774,7.084c0.516,1.632,1.437,2.8,2.768,3.505
				c1.332,0.707,3.271,1.062,5.825,1.062l9.449-0.65l0.325,8.716c-5.756,1.141-10.264,1.711-13.521,1.711
				C179.503,116.055,175.253,114.357,172.621,110.965z"/>
			<path fill="#FFFFFF" d="M206.953,58.062h10.916v32.417l4.153-0.73l8.063-15.395h12.216l-10.588,19.303l11.159,21.42h-12.298
				l-8.227-15.883l-4.48,0.734v15.146h-10.916L206.953,58.062L206.953,58.062z"/>
			<path fill="#FFFFFF" d="M246.212,102.695c0-4.233,1.126-7.288,3.379-9.159c2.253-1.875,5.877-2.974,10.875-3.302l8.715-0.649
				v-2.524c0-1.629-0.364-2.771-1.099-3.42c-0.734-0.651-1.97-0.979-3.706-0.979c-1.792,0-4.261,0.069-7.413,0.206
				c-3.147,0.136-5.782,0.285-7.898,0.448l-0.327-7.574c5.863-1.577,11.403-2.363,16.616-2.363s8.975,1.086,11.28,3.257
				c2.309,2.173,3.462,5.648,3.462,10.428V104c0.109,1.357,0.338,2.277,0.69,2.771c0.354,0.483,1.02,0.84,1.999,1.058l-0.327,8.228
				c-2.823,0-5.063-0.19-6.719-0.57c-1.658-0.383-3.3-1.144-4.926-2.278c-3.968,1.896-7.959,2.853-11.978,2.853
				C250.419,116.055,246.212,111.604,246.212,102.695z M267.959,106.2l1.222-0.324v-8.717l-7.41,0.651
				c-3.042,0.271-4.562,1.899-4.562,4.885c0,2.988,1.329,4.479,3.99,4.479C263.262,107.176,265.517,106.85,267.959,106.2z"/>
			<path fill="#FFFFFF" d="M297.036,114.588c-1.737-0.979-2.985-2.578-3.745-4.805c-0.764-2.227-1.142-5.297-1.142-9.203V83.639
				h-4.806v-9.286h4.806V63.031h10.912v11.321h10.02v9.286h-10.018v16.696c0,2.117,0.188,3.65,0.57,4.604
				c0.378,0.951,1.329,1.396,2.849,1.346l6.191-0.164l0.487,8.717c-2.172,0.487-3.868,0.812-5.089,0.977
				c-1.224,0.164-2.459,0.246-3.708,0.246C301.217,116.055,298.773,115.568,297.036,114.588z"/>
			<path fill="#FFFFFF" d="M320.168,58.062h10.914v18.246c2.063-1.032,3.897-1.776,5.498-2.239c1.603-0.462,3.324-0.692,5.174-0.692
				c4.993,0,8.538,1.588,10.628,4.764c2.088,3.177,3.134,8.131,3.134,14.865v22.068h-10.914V93.25c0-3.691-0.436-6.301-1.303-7.819
				c-0.867-1.521-2.552-2.28-5.048-2.28c-1.957,0-3.992,0.326-6.11,0.977l-1.059,0.327v30.625h-10.914V58.062L320.168,58.062z"/>
			<path fill="#FFFFFF" d="M367.858,110.477c-3.179-3.721-4.768-9-4.768-15.842c0-6.785,1.589-12.029,4.768-15.721
				c3.178-3.691,7.831-5.539,13.969-5.539c6.134,0,10.792,1.847,13.967,5.539c3.18,3.693,4.768,8.936,4.768,15.721
				c0,6.842-1.588,12.125-4.768,15.842c-3.175,3.719-7.833,5.58-13.967,5.58C375.689,116.055,371.035,114.195,367.858,110.477z
				 M387.609,103.92c1.248-1.9,1.872-4.998,1.872-9.285c0-4.291-0.624-7.359-1.872-9.205c-1.251-1.845-3.177-2.771-5.782-2.771
				c-2.606,0-4.535,0.925-5.783,2.771c-1.249,1.845-1.875,4.916-1.875,9.205c0,4.287,0.626,7.385,1.875,9.285
				c1.248,1.9,3.176,2.852,5.783,2.852C384.432,106.771,386.358,105.822,387.609,103.92z"/>
			<path fill="#FFFFFF" d="M408.542,74.353h10.83v2.28c2.063-1.193,3.896-2.036,5.498-2.524c1.602-0.489,3.324-0.733,5.171-0.733
				c4.999,0,8.556,1.602,10.672,4.805c2.117,3.205,3.178,8.145,3.178,14.825v22.07h-10.914V93.331c0-3.746-0.448-6.381-1.345-7.9
				c-0.896-1.52-2.594-2.279-5.09-2.279c-1.789,0-3.828,0.38-6.108,1.141l-0.979,0.325v30.463h-10.912V74.353L408.542,74.353z"/>
		</g>
		<g>
			<path fill="#FFFFFF" d="M262.128,147.652c-1.157-0.801-1.957-1.969-2.393-3.502c-0.439-1.534-0.656-3.562-0.656-6.082
				c0-2.603,0.223-4.672,0.671-6.217c0.446-1.543,1.235-2.703,2.364-3.478c1.125-0.771,2.725-1.156,4.798-1.156
				c1.687,0,3.637,0.244,5.853,0.73l-0.092,2.405c-1.932-0.342-3.657-0.517-5.182-0.517c-1.523,0-2.671,0.269-3.443,0.808
				c-0.771,0.541-1.291,1.405-1.554,2.604c-0.267,1.201-0.388,2.938-0.366,5.213c0,1.972,0.125,3.49,0.38,4.56
				c0.254,1.063,0.772,1.867,1.555,2.401c0.784,0.541,1.978,0.812,3.582,0.812c1.339,0,3.018-0.17,5.028-0.519l0.092,2.47
				c-2.235,0.444-4.114,0.67-5.641,0.67C264.952,148.855,263.284,148.458,262.128,147.652z"/>
			<path fill="#FFFFFF" d="M276.663,146.954c-1.037-1.271-1.554-3.267-1.554-5.992c0-2.778,0.529-4.812,1.585-6.092
				c1.055-1.281,2.753-1.92,5.089-1.92c2.354,0,4.058,0.646,5.104,1.937c1.049,1.286,1.569,3.315,1.569,6.075
				c0,2.705-0.517,4.695-1.555,5.976c-1.037,1.278-2.744,1.92-5.12,1.92C279.405,148.857,277.7,148.223,276.663,146.954z
				 M284.055,145.87c0.537-0.345,0.919-0.902,1.142-1.677c0.225-0.771,0.336-1.851,0.336-3.229c0-1.44-0.116-2.56-0.353-3.353
				c-0.231-0.789-0.618-1.354-1.156-1.69c-0.54-0.334-1.284-0.502-2.24-0.502c-0.954,0-1.706,0.168-2.254,0.502
				c-0.55,0.336-0.94,0.904-1.175,1.707c-0.234,0.806-0.351,1.916-0.351,3.336c0,1.363,0.113,2.437,0.334,3.218
				c0.226,0.78,0.609,1.346,1.158,1.69c0.55,0.344,1.311,0.519,2.286,0.519C282.757,146.391,283.516,146.215,284.055,145.87z"/>
			<path fill="#FFFFFF" d="M292.114,126.825h2.834v21.694h-2.834V126.825z"/>
			<path fill="#FFFFFF" d="M300.006,146.954c-1.036-1.271-1.556-3.267-1.556-5.992c0-2.778,0.528-4.812,1.584-6.092
				c1.057-1.281,2.754-1.92,5.091-1.92c2.355,0,4.057,0.646,5.105,1.937c1.046,1.286,1.565,3.315,1.565,6.075
				c0,2.705-0.517,4.695-1.553,5.976c-1.036,1.278-2.745,1.92-5.119,1.92C302.749,148.855,301.04,148.223,300.006,146.954z
				 M307.395,145.87c0.537-0.345,0.919-0.902,1.143-1.677c0.226-0.771,0.337-1.851,0.337-3.229c0-1.44-0.118-2.56-0.352-3.353
				c-0.234-0.789-0.619-1.354-1.158-1.69c-0.538-0.334-1.285-0.502-2.239-0.502c-0.957,0-1.707,0.168-2.254,0.502
				c-0.551,0.336-0.94,0.904-1.174,1.707c-0.234,0.806-0.352,1.916-0.352,3.336c0,1.363,0.111,2.437,0.333,3.218
				c0.225,0.78,0.609,1.346,1.159,1.69c0.548,0.344,1.312,0.519,2.286,0.519C306.098,146.389,306.856,146.215,307.395,145.87z"/>
			<path fill="#FFFFFF" d="M315.27,133.286h2.806v1.004c0.772-0.444,1.502-0.781,2.191-1.004c0.694-0.226,1.401-0.336,2.136-0.336
				c0.792,0,1.523,0.127,2.192,0.383c0.671,0.254,1.197,0.635,1.582,1.14c0.815-0.445,1.705-0.812,2.671-1.097
				c0.964-0.283,1.943-0.426,2.939-0.426c1.26,0,2.246,0.254,2.956,0.762c0.709,0.511,1.219,1.299,1.524,2.377
				c0.306,1.076,0.456,2.519,0.456,4.324v8.106h-2.835v-8.045c0-1.281-0.075-2.271-0.229-2.976c-0.151-0.697-0.426-1.207-0.82-1.521
				c-0.394-0.314-0.981-0.475-1.754-0.475c-0.569,0-1.157,0.064-1.766,0.197c-0.611,0.133-1.15,0.301-1.617,0.504l-0.547,0.242
				c0.221,0.873,0.331,2.256,0.331,4.145v7.924h-2.861v-7.861c0-1.359-0.074-2.398-0.214-3.121
				c-0.146-0.723-0.411-1.238-0.807-1.555c-0.396-0.315-0.98-0.475-1.753-0.475c-0.568,0-1.153,0.07-1.751,0.213
				c-0.604,0.143-1.104,0.305-1.51,0.486l-0.489,0.244v12.062h-2.835v-15.229h0.002v0.005H315.27z"/>
			<path fill="#FFFFFF" d="M341.721,148.583l-0.943-0.092v-21.666h2.835v7.131c0.771-0.349,1.486-0.599,2.146-0.765
				c0.661-0.162,1.378-0.241,2.153-0.241c1.338,0,2.411,0.262,3.213,0.791c0.801,0.528,1.391,1.366,1.768,2.516
				c0.375,1.147,0.562,2.679,0.562,4.586c0,2.052-0.229,3.654-0.685,4.8c-0.457,1.147-1.209,1.967-2.256,2.455
				c-1.046,0.485-2.505,0.729-4.373,0.729C344.76,148.827,343.287,148.745,341.721,148.583z M348.897,145.762
				c0.621-0.354,1.054-0.924,1.297-1.703c0.243-0.785,0.364-1.865,0.364-3.246c0-1.34-0.106-2.393-0.319-3.152
				c-0.212-0.766-0.559-1.311-1.035-1.646c-0.479-0.337-1.133-0.505-1.968-0.505c-1.016,0-2.225,0.244-3.623,0.734v9.901
				c1.317,0.101,2.192,0.149,2.619,0.149C347.39,146.297,348.28,146.12,348.897,145.762z"/>
			<path fill="#FFFFFF" d="M357.841,146.954c-1.036-1.271-1.553-3.267-1.553-5.992c0-2.778,0.529-4.812,1.584-6.092
				c1.058-1.281,2.754-1.92,5.09-1.92c2.357,0,4.06,0.646,5.104,1.937c1.045,1.286,1.568,3.315,1.568,6.075
				c0,2.705-0.519,4.695-1.552,5.976c-1.039,1.278-2.744,1.92-5.122,1.92C360.586,148.855,358.878,148.223,357.841,146.954z
				 M365.233,145.87c0.536-0.345,0.918-0.902,1.144-1.677c0.222-0.771,0.336-1.851,0.336-3.229c0-1.44-0.118-2.56-0.353-3.353
				c-0.232-0.789-0.621-1.354-1.159-1.69c-0.538-0.334-1.282-0.502-2.238-0.502c-0.954,0-1.71,0.168-2.255,0.502
				c-0.549,0.336-0.938,0.904-1.174,1.707c-0.233,0.806-0.353,1.916-0.353,3.336c0,1.363,0.113,2.437,0.339,3.218
				c0.221,0.78,0.606,1.346,1.156,1.69c0.548,0.344,1.309,0.519,2.283,0.519C363.934,146.389,364.694,146.215,365.233,145.87z"/>
			<path fill="#FFFFFF" d="M379.691,144.958l4.298-4.358c1.112-1.158,1.948-2.062,2.496-2.711c0.554-0.65,0.951-1.25,1.206-1.8
				c0.253-0.549,0.381-1.142,0.381-1.769c0-0.913-0.238-1.569-0.717-1.965c-0.478-0.396-1.193-0.599-2.147-0.599
				c-1.342,0-2.824,0.121-4.45,0.365l-0.729,0.092l-0.215-3.262c1.993-0.604,4.055-0.912,6.187-0.912
				c4.269,0,6.399,1.922,6.399,5.76c0,1.019-0.135,1.916-0.413,2.697c-0.271,0.778-0.729,1.573-1.37,2.375
				c-0.637,0.808-1.548,1.741-2.725,2.817l-3.508,3.172h8.354v3.654h-13.041v-3.562h-0.004L379.691,144.958L379.691,144.958z"/>
			<path fill="#FFFFFF" d="M397.426,146.342c-1.281-1.654-1.921-4.303-1.921-7.938c0-3.639,0.64-6.282,1.921-7.938
				c1.277-1.655,3.239-2.483,5.881-2.483c2.644,0,4.604,0.828,5.881,2.483c1.278,1.654,1.921,4.3,1.921,7.938
				c0,3.636-0.643,6.281-1.921,7.938c-1.276,1.656-3.237,2.484-5.881,2.484C400.668,148.827,398.706,147.999,397.426,146.342z
				 M405.319,144.514c0.507-0.436,0.878-1.146,1.111-2.135c0.234-0.984,0.354-2.311,0.354-3.977s-0.115-2.99-0.354-3.979
				c-0.234-0.982-0.604-1.695-1.111-2.133c-0.509-0.438-1.178-0.654-2.012-0.654c-0.833,0-1.504,0.221-2.011,0.654
				c-0.509,0.438-0.883,1.146-1.112,2.133c-0.234,0.986-0.353,2.312-0.353,3.979s0.115,2.99,0.353,3.977
				c0.229,0.988,0.604,1.699,1.112,2.135c0.507,0.438,1.178,0.654,2.011,0.654C404.141,145.168,404.81,144.952,405.319,144.514z"/>
			<path fill="#FFFFFF" d="M420.372,133.161l-4.354,2.807l-1.921-3.141l6.646-4.418h3.84v20.11h-4.204v-15.358H420.372z"/>
			<path fill="#FFFFFF" d="M432.803,147.788l6.857-14.656v-0.978h-8.652v-3.745h12.856v4.752l-7.159,15.729L432.803,147.788z"/>
		</g>
		<g>
			<path fill="#FFFFFF" d="M74.875,28.699h8.334c1.155,0,2.183,0.13,3.112,0.322c0.961,0.256,1.729,0.641,2.402,1.025
				c0.641,0.449,1.155,0.963,1.508,1.603c0.385,0.578,0.577,1.283,0.577,1.988c0,0.962-0.225,1.731-0.642,2.374
				c-0.45,0.705-1.217,1.346-2.34,1.987c1.154,0.385,2.083,0.962,2.821,1.796c0.737,0.832,1.091,1.793,1.091,2.884
				c0,0.802-0.16,1.508-0.512,2.148c-0.323,0.642-0.836,1.285-1.476,1.731c-0.644,0.481-1.413,0.867-2.308,1.124
				c-0.899,0.321-1.928,0.45-3.016,0.45h-9.587V28.668L74.875,28.699z M79.687,37.1h3.141c0.961,0,1.796-0.321,2.341-0.896
				C85.713,35.626,86,34.858,86,33.959c0-1.025-0.318-1.859-1.087-2.5c-0.738-0.644-1.923-0.963-3.463-0.963h-1.796v6.573
				L79.687,37.1z M79.687,46.143h2.562c1.604,0,2.725-0.32,3.461-0.961c0.707-0.643,1.06-1.414,1.06-2.375
				c0-0.544-0.064-1.026-0.225-1.506c-0.159-0.481-0.414-0.866-0.768-1.219c-0.386-0.32-0.834-0.64-1.443-0.801
				c-0.58-0.192-1.283-0.323-2.151-0.323h-2.466v7.185H79.687z M106.072,48.161h-4.425V46.88l-0.703,0.641l-0.804,0.449
				l-0.961,0.321c-0.385,0.063-0.802,0.096-1.281,0.096c-0.705,0-1.282-0.096-1.86-0.321c-0.545-0.16-0.961-0.417-1.377-0.77
				c-0.384-0.32-0.643-0.738-0.867-1.186c-0.19-0.481-0.32-0.963-0.32-1.507c0-0.866,0.258-1.604,0.705-2.246
				c0.452-0.577,1.06-1.088,1.767-1.505c0.736-0.45,1.603-0.834,2.468-1.156c0.899-0.319,1.796-0.64,2.693-0.897l0.513-0.128V37.26
				c0-0.96-0.193-1.604-0.543-1.988c-0.324-0.383-0.835-0.575-1.444-0.575c-0.706,0-1.186,0.192-1.442,0.512
				c-0.257,0.321-0.385,0.738-0.385,1.218c0,0.321,0,0.578-0.096,0.833c-0.063,0.256-0.161,0.481-0.323,0.642
				c-0.159,0.224-0.384,0.385-0.639,0.481c-0.257,0.127-0.577,0.193-0.963,0.193c-0.64,0-1.151-0.161-1.538-0.514
				c-0.385-0.321-0.576-0.802-0.576-1.347c0-0.481,0.159-0.963,0.512-1.41c0.32-0.417,0.802-0.801,1.38-1.122
				c0.643-0.323,1.281-0.577,2.052-0.737c0.77-0.193,1.603-0.257,2.437-0.257c2.114,0,3.622,0.32,4.585,1.058
				c0.961,0.738,1.41,1.701,1.41,2.886v11.03h0.027v-0.002H106.072z M101.647,40.465l-1.282,0.643
				c-0.45,0.256-0.866,0.512-1.22,0.801c-0.319,0.319-0.64,0.577-0.865,0.898c-0.224,0.32-0.321,0.641-0.321,1.025
				c0,0.546,0.129,1.059,0.417,1.442c0.257,0.417,0.579,0.642,0.963,0.642c0.32,0,0.705-0.128,1.088-0.321l1.22-0.864V40.53V40.465
				L101.647,40.465z M113.829,48.161h-4.392V27.546l4.392-1.187V48.161z M121.236,48.161h-4.394V27.546l4.394-1.187V48.161z
				 M130.951,48.481c-1.058,0-2.021-0.223-2.95-0.64c-0.897-0.321-1.699-0.865-2.374-1.538c-0.704-0.642-1.215-1.411-1.603-2.246
				c-0.416-0.898-0.643-1.827-0.643-2.789c0-1.155,0.227-2.244,0.579-3.207c0.386-0.962,0.897-1.859,1.539-2.564
				c0.642-0.738,1.475-1.283,2.405-1.7c0.962-0.417,1.987-0.64,3.143-0.64c1.024,0,1.923,0.19,2.819,0.512
				c0.834,0.322,1.604,0.771,2.18,1.283c0.579,0.512,1.061,1.283,1.411,2.02c0.319,0.801,0.483,1.603,0.483,2.5h-10.133
				c0,0.802,0.128,1.604,0.321,2.309c0.226,0.738,0.511,1.379,0.832,1.923c0.322,0.579,0.771,1.026,1.22,1.379
				c0.513,0.321,1.025,0.48,1.603,0.48c0.479,0,0.961-0.063,1.443-0.224c0.479-0.159,0.896-0.385,1.282-0.641
				c0.381-0.321,0.737-0.643,1.058-1.06c0.319-0.384,0.48-0.801,0.642-1.282l2.245,0.385c-0.193,0.77-0.546,1.507-1.057,2.245
				c-0.514,0.642-1.091,1.282-1.767,1.794c-0.64,0.514-1.44,0.963-2.243,1.283c-0.799,0.256-1.603,0.416-2.372,0.416h-0.063V48.481
				L130.951,48.481z M132.874,37.901c-0.128-0.866-0.416-1.603-0.896-2.083c-0.481-0.547-1.09-0.803-1.795-0.803
				c-0.546,0-1.058,0.256-1.541,0.77c-0.448,0.546-0.735,1.283-0.833,2.148h5.032L132.874,37.901z M144.865,48.161h-4.424V33.412
				h4.424v1.09c0.481-0.512,1.026-0.897,1.604-1.218c0.641-0.321,1.283-0.449,1.924-0.449c0.32,0,0.739,0,1.09,0.161
				c0.319,0.063,0.642,0.192,0.96,0.384c0.227,0.194,0.418,0.385,0.578,0.642c0.129,0.226,0.225,0.48,0.225,0.77
				c0,0.512-0.225,0.961-0.64,1.283c-0.322,0.32-0.769,0.48-1.283,0.48c-0.385,0-0.642,0-0.897-0.16l-0.643-0.321
				c-0.158-0.161-0.318-0.321-0.545-0.386c-0.192-0.127-0.45-0.191-0.738-0.191s-0.542,0.224-0.865,0.641
				c-0.319,0.386-0.544,0.865-0.803,1.378v10.581L144.865,48.161z M152.368,28.829c0-0.643,0.256-1.122,0.706-1.54
				c0.479-0.481,1.025-0.641,1.698-0.641c0.643,0,1.188,0.16,1.668,0.641c0.448,0.386,0.641,0.897,0.641,1.507
				c0,0.576-0.191,1.089-0.641,1.507c-0.48,0.416-1.059,0.641-1.699,0.641c-0.705,0-1.281-0.225-1.731-0.641
				c-0.447-0.416-0.705-0.961-0.705-1.507L152.368,28.829z M152.592,34.279l4.424-1.283v15.165h-4.453V34.215L152.592,34.279z
				 M169.039,38.094c0-0.77-0.16-1.348-0.449-1.731c-0.32-0.384-0.643-0.577-1.024-0.577c-0.386,0-0.866,0.128-1.442,0.417
				c-0.577,0.32-1.125,0.707-1.603,1.185v10.774h-4.49v-14.75h4.49v1.155c0.64-0.514,1.346-0.866,2.146-1.122
				c0.771-0.225,1.541-0.322,2.342-0.322c0.577,0,1.153,0.097,1.698,0.322c0.547,0.255,1.028,0.576,1.411,0.962
				c0.419,0.417,0.738,0.864,0.963,1.411c0.255,0.577,0.384,1.153,0.384,1.762v10.581h-4.426V38.062V38.094z M187.89,48.161h-4.483
				V46.88l-0.708,0.641c-0.225,0.16-0.48,0.321-0.77,0.449l-0.963,0.321c-0.32,0.063-0.801,0.096-1.279,0.096
				c-0.643,0-1.283-0.096-1.86-0.321c-0.543-0.16-0.963-0.417-1.379-0.77c-0.32-0.32-0.64-0.738-0.866-1.186
				c-0.191-0.481-0.321-0.963-0.321-1.507c0-0.866,0.257-1.604,0.707-2.246c0.48-0.577,1.087-1.088,1.828-1.505
				c0.737-0.45,1.538-0.834,2.437-1.156l2.692-0.897l0.514-0.128V37.26c0-0.96-0.192-1.604-0.547-1.988
				c-0.322-0.383-0.833-0.575-1.442-0.575c-0.642,0-1.152,0.192-1.411,0.512c-0.254,0.321-0.382,0.738-0.382,1.218
				c0,0.321,0,0.578-0.099,0.833c0,0.256-0.129,0.481-0.319,0.642c-0.129,0.224-0.32,0.385-0.579,0.481
				c-0.319,0.127-0.64,0.193-1.024,0.193c-0.642,0-1.121-0.161-1.507-0.514c-0.383-0.321-0.577-0.802-0.577-1.347
				c0-0.481,0.161-0.963,0.513-1.41c0.385-0.417,0.832-0.801,1.411-1.122c0.638-0.323,1.282-0.577,2.053-0.737
				c0.77-0.193,1.603-0.257,2.435-0.257c2.117,0,3.657,0.32,4.586,1.058c0.96,0.738,1.445,1.701,1.445,2.886v11.03h-0.103v-0.002
				H187.89z M183.406,40.531l-1.285,0.643c-0.417,0.254-0.802,0.511-1.156,0.8c-0.318,0.321-0.639,0.578-0.865,0.899
				c-0.255,0.321-0.384,0.641-0.384,1.024c0,0.546,0.129,1.059,0.418,1.443c0.32,0.417,0.64,0.642,0.959,0.642
				c0.386,0,0.739-0.126,1.123-0.319l1.217-0.866v-4.265L183.406,40.531L183.406,40.531L183.406,40.531z"/>
		</g>
		<circle fill="#FFFFFF" cx="220.572" cy="150.094" r="5.358"/>
		
			<line fill="none" stroke="#FFFFFF" stroke-width="2.6457" stroke-miterlimit="10" x1="220.572" y1="150.094" x2="242.178" y2="121.118"/>
		<circle fill="#FFFFFF" cx="297.568" cy="39.233" r="5.357"/>
		
			<line fill="none" stroke="#FFFFFF" stroke-width="2.6457" stroke-miterlimit="10" x1="275.656" y1="68.208" x2="297.264" y2="39.233"/>
		<circle fill="#FFFFFF" cx="373.356" cy="40.635" r="5.358"/>
		
			<line fill="none" stroke="#FFFFFF" stroke-width="2.6457" stroke-miterlimit="10" x1="297.569" y1="39.233" x2="373.355" y2="40.635"/>
		<circle fill="#FFFFFF" cx="407.452" cy="5.357" r="5.359"/>
		<circle fill="#FFFFFF" cx="146.087" cy="137.471" r="5.357"/>
		<circle fill="#FFFFFF" cx="108.311" cy="166.435" r="5.358"/>
		
			<line fill="none" stroke="#FFFFFF" stroke-width="2.6457" stroke-miterlimit="10" x1="107.886" y1="167.208" x2="145.312" y2="137.491"/>
		
			<line fill="none" stroke="#FFFFFF" stroke-width="2.9017" stroke-miterlimit="10" x1="145.967" y1="137.473" x2="221.592" y2="150.426"/>
		
			<line fill="none" stroke="#FFFFFF" stroke-width="2.6457" stroke-miterlimit="10" x1="373.412" y1="41.047" x2="405.372" y2="6.602"/>
		<g opacity="0.4">
			<path fill="none" stroke="#FFFFFF" stroke-width="1.4027" stroke-miterlimit="10" d="M528.132,75.499h8.813v24.698
				c0,11.128-5.335,15.012-13.915,15.012c-2.03,0-4.696-0.347-6.436-0.926l0.985-7.132c1.216,0.407,2.782,0.696,4.522,0.696
				c3.71,0,6.029-1.681,6.029-7.768L528.132,75.499L528.132,75.499z"/>
			<path fill="none" stroke="#FFFFFF" stroke-width="1.4027" stroke-miterlimit="10" d="M570.742,105.473
				c0,3.708,0.116,6.724,0.233,9.101h-7.652l-0.407-4.001h-0.173c-1.1,1.738-3.768,4.638-8.869,4.638
				c-5.74,0-9.971-3.595-9.971-12.346v-16.64h8.869v15.246c0,4.115,1.334,6.608,4.406,6.608c2.436,0,3.826-1.681,4.406-3.072
				c0.23-0.521,0.289-1.217,0.289-1.913V86.225h8.868V105.473L570.742,105.473z"/>
			<path fill="none" stroke="#FFFFFF" stroke-width="1.4027" stroke-miterlimit="10" d="M577.815,73.412h8.811v41.16h-8.811V73.412z
				"/>
			<path fill="none" stroke="#FFFFFF" stroke-width="1.4027" stroke-miterlimit="10" d="M600.367,86.225l4.231,13.914
				c0.464,1.68,1.041,3.768,1.39,5.274h0.173c0.406-1.507,0.869-3.653,1.276-5.274l3.478-13.914h9.451l-6.609,18.666
				c-4.059,11.247-6.784,15.768-9.972,18.609c-3.073,2.667-6.32,3.595-8.521,3.884l-1.855-7.479c1.1-0.172,2.492-0.693,3.825-1.506
				c1.333-0.695,2.782-2.087,3.653-3.536c0.291-0.405,0.463-0.868,0.463-1.274c0-0.291-0.057-0.754-0.406-1.45l-10.377-25.912
				L600.367,86.225L600.367,86.225L600.367,86.225z"/>
			<path fill="none" stroke="#FFFFFF" stroke-width="1.4027" stroke-miterlimit="10" d="M645.932,84.717h-0.116l-7.188,3.42
				l-1.449-6.608l9.972-4.638h7.305v37.682h-8.521L645.932,84.717L645.932,84.717z"/>
		</g>
	</g>
</g>
<g id="Layer_2_1_">
</g>
<g>
	<path d="M784.978,149.635h5.021c3.041,0,4.562,1.419,4.562,4.258c0,1.685-0.635,2.928-1.902,3.727l1.845,4.941h-2.87l-1.502-4.334
		h-2.528v4.334h-2.624L784.978,149.635L784.978,149.635z M790.036,155.983c0.596,0,1.052-0.187,1.369-0.562
		c0.316-0.373,0.475-0.878,0.475-1.511s-0.166-1.131-0.495-1.492c-0.329-0.362-0.792-0.542-1.388-0.542h-2.395v4.105
		L790.036,155.983L790.036,155.983z"/>
	<path d="M796.898,161.668c-0.659-0.748-0.987-1.957-0.987-3.631c0-1.749,0.345-3.055,1.035-3.916s1.766-1.293,3.223-1.293
		c1.344,0,2.359,0.358,3.051,1.074s1.037,1.79,1.037,3.223l-0.19,1.768h-5.589c0.025,0.443,0.104,0.783,0.238,1.017
		c0.133,0.234,0.348,0.399,0.646,0.495c0.297,0.095,0.713,0.143,1.244,0.143c0.42,0,0.918-0.014,1.502-0.039
		c0.582-0.024,1.008-0.05,1.273-0.075l0.533-0.057l0.037,1.88c-1.432,0.356-2.711,0.533-3.84,0.533
		C798.629,162.789,797.557,162.414,796.898,161.668z M801.747,156.954c0-0.761-0.117-1.29-0.352-1.588
		c-0.235-0.299-0.65-0.447-1.246-0.447c-0.607,0-1.039,0.155-1.293,0.466c-0.252,0.31-0.387,0.832-0.399,1.568L801.747,156.954
		L801.747,156.954z"/>
	<path d="M806.735,166.335c-0.754-0.4-1.131-1.049-1.131-1.949c0-0.47,0.112-0.884,0.334-1.245c0.221-0.361,0.565-0.73,1.035-1.111
		c-0.228-0.152-0.402-0.348-0.522-0.59c-0.121-0.24-0.181-0.494-0.181-0.761c0-0.189,0.049-0.386,0.143-0.589
		c0.096-0.203,0.295-0.545,0.6-1.027c-0.863-0.633-1.293-1.559-1.293-2.774c0-1.153,0.352-2.012,1.055-2.575
		c0.703-0.564,1.682-0.847,2.937-0.847c0.532,0,1.172,0.083,1.919,0.246l3.062-0.095v2.034l-1.427-0.113
		c0.165,0.267,0.276,0.494,0.333,0.685s0.085,0.449,0.085,0.779c0,1.141-0.323,1.955-0.969,2.443
		c-0.647,0.487-1.629,0.731-2.946,0.731c-0.381,0-0.673-0.024-0.875-0.075c-0.127,0.303-0.19,0.563-0.19,0.778
		c0,0.267,0.13,0.429,0.39,0.485s0.745,0.092,1.455,0.104c0.976,0.025,1.752,0.103,2.328,0.229c0.577,0.126,1.023,0.384,1.34,0.77
		c0.316,0.387,0.476,0.954,0.476,1.701c0,1.153-0.394,2.003-1.179,2.548c-0.786,0.545-1.99,0.817-3.611,0.817
		C808.545,166.934,807.49,166.734,806.735,166.335z M811.639,164.595c0.324-0.165,0.485-0.418,0.485-0.76
		c0-0.317-0.116-0.517-0.351-0.599c-0.236-0.082-0.508-0.131-0.818-0.143c-0.312-0.014-0.517-0.02-0.617-0.02l-1.713-0.133
		c-0.341,0.342-0.514,0.686-0.514,1.026c0,0.304,0.163,0.526,0.486,0.665c0.323,0.14,0.813,0.209,1.474,0.209
		C810.794,164.843,811.317,164.76,811.639,164.595z M811.174,156.23c0-0.925-0.481-1.389-1.444-1.389
		c-0.978,0-1.464,0.464-1.464,1.389c0,0.938,0.488,1.407,1.464,1.407C810.693,157.638,811.174,157.168,811.174,156.23z"/>
	<path d="M816.23,149.273h2.548v2.566h-2.548V149.273z M816.23,153.057h2.548v9.504h-2.548V153.057z"/>
	<path d="M821.403,162.445l-0.609-0.112l0.076-2.13c1.533,0.203,2.648,0.305,3.346,0.305c0.469,0,0.84-0.05,1.111-0.152
		c0.273-0.101,0.41-0.29,0.41-0.57c0-0.252-0.131-0.437-0.391-0.55c-0.26-0.114-0.693-0.223-1.302-0.323
		c-0.229-0.025-0.387-0.051-0.476-0.077c-0.633-0.114-1.152-0.257-1.559-0.428c-0.404-0.172-0.734-0.443-0.988-0.817
		s-0.38-0.897-0.38-1.568c0-1.077,0.329-1.876,0.989-2.396c0.657-0.519,1.564-0.778,2.718-0.778c0.685,0,1.69,0.12,3.022,0.36
		l0.627,0.114l-0.038,2.11c-1.534-0.203-2.668-0.304-3.403-0.304c-0.431,0-0.77,0.044-1.017,0.132
		c-0.247,0.089-0.37,0.261-0.37,0.513c0,0.268,0.127,0.454,0.38,0.562c0.255,0.109,0.665,0.213,1.235,0.314l0.664,0.113
		c1.016,0.203,1.738,0.504,2.168,0.903c0.431,0.399,0.646,1.042,0.646,1.93c0,1.091-0.311,1.895-0.932,2.414s-1.578,0.78-2.871,0.78
		C823.626,162.789,822.606,162.676,821.403,162.445z"/>
	<path d="M831.627,162.445c-0.404-0.227-0.695-0.6-0.874-1.12c-0.177-0.521-0.267-1.235-0.267-2.147v-3.955h-1.121v-2.166h1.121
		v-2.644h2.548v2.644h2.339v2.166h-2.339v3.897c0,0.494,0.046,0.853,0.134,1.075c0.088,0.221,0.311,0.326,0.665,0.312l1.444-0.038
		l0.114,2.035c-0.508,0.113-0.903,0.189-1.188,0.229c-0.285,0.037-0.573,0.056-0.865,0.056
		C832.604,162.789,832.034,162.676,831.627,162.445z"/>
	<path d="M837.028,153.057h2.527v1.008c1.09-0.635,2.104-1.046,3.041-1.236v2.566c-0.95,0.19-1.831,0.411-2.643,0.666l-0.379,0.133
		v6.367h-2.549v-9.504H837.028z"/>
	<path d="M843.471,159.672c0-0.988,0.264-1.702,0.788-2.139c0.526-0.438,1.372-0.693,2.538-0.77l2.035-0.152v-0.589
		c0-0.38-0.086-0.647-0.257-0.799c-0.173-0.151-0.461-0.229-0.864-0.229c-0.418,0-0.996,0.017-1.731,0.048
		c-0.733,0.032-1.349,0.066-1.845,0.105l-0.074-1.768c1.368-0.369,2.66-0.553,3.878-0.553c1.216,0,2.093,0.254,2.632,0.762
		c0.538,0.506,0.809,1.316,0.809,2.433v3.954c0.023,0.316,0.079,0.531,0.161,0.646c0.083,0.114,0.238,0.196,0.466,0.247
		l-0.077,1.919c-0.658,0-1.181-0.045-1.568-0.133c-0.387-0.089-0.771-0.267-1.148-0.532c-0.927,0.443-1.856,0.665-2.796,0.665
		C844.454,162.789,843.471,161.75,843.471,159.672z M848.547,160.488l0.285-0.076v-2.034l-1.73,0.152
		c-0.71,0.063-1.064,0.443-1.064,1.14c0,0.697,0.311,1.045,0.932,1.045C847.451,160.717,847.977,160.642,848.547,160.488z"/>
	<path d="M855.333,162.445c-0.404-0.227-0.697-0.6-0.875-1.12s-0.266-1.235-0.266-2.147v-3.955h-1.122v-2.166h1.122v-2.644h2.547
		v2.644h2.338v2.166h-2.338v3.897c0,0.494,0.046,0.853,0.135,1.075c0.088,0.221,0.309,0.326,0.664,0.312l1.445-0.038l0.114,2.035
		c-0.507,0.113-0.905,0.189-1.188,0.229c-0.285,0.037-0.574,0.056-0.864,0.056C856.309,162.789,855.739,162.676,855.333,162.445z"/>
	<path d="M860.733,149.273h2.547v2.566h-2.547V149.273z M860.733,153.057h2.547v9.504h-2.547V153.057z"/>
	<path d="M866.16,161.487c-0.741-0.868-1.112-2.102-1.112-3.698c0-1.585,0.371-2.807,1.112-3.669
		c0.741-0.861,1.827-1.293,3.259-1.293s2.52,0.432,3.261,1.293c0.741,0.862,1.111,2.084,1.111,3.669c0,1.597-0.37,2.83-1.111,3.698
		s-1.829,1.302-3.261,1.302S866.901,162.355,866.16,161.487z M870.768,159.956c0.292-0.442,0.438-1.166,0.438-2.166
		c0-1.001-0.146-1.718-0.438-2.147c-0.292-0.432-0.742-0.647-1.35-0.647c-0.608,0-1.059,0.216-1.35,0.647
		c-0.292,0.43-0.436,1.146-0.436,2.147c0,1.002,0.145,1.724,0.436,2.166c0.291,0.444,0.741,0.666,1.35,0.666
		C870.026,160.622,870.476,160.4,870.768,159.956z"/>
	<path d="M875.656,153.057h2.528v0.531c0.48-0.278,0.908-0.476,1.282-0.59s0.776-0.171,1.207-0.171c1.166,0,1.995,0.374,2.49,1.122
		c0.493,0.748,0.741,1.9,0.741,3.459v5.151h-2.547v-5.075c0-0.875-0.106-1.49-0.314-1.846c-0.209-0.354-0.605-0.531-1.188-0.531
		c-0.418,0-0.894,0.088-1.427,0.266l-0.229,0.076v7.11h-2.545L875.656,153.057L875.656,153.057z"/>
	<path d="M891.984,162.066c-0.735-0.481-1.239-1.195-1.511-2.139c-0.273-0.943-0.41-2.201-0.41-3.772
		c0-1.724,0.149-3.066,0.447-4.03c0.298-0.963,0.795-1.656,1.492-2.082c0.697-0.424,1.674-0.636,2.928-0.636
		c1.154,0,2.439,0.171,3.859,0.513l-0.075,2.092c-1.257-0.191-2.275-0.285-3.062-0.285c-0.799,0-1.399,0.127-1.806,0.38
		c-0.404,0.255-0.688,0.669-0.846,1.245c-0.16,0.577-0.238,1.391-0.238,2.442v0.704c0.025,1.09,0.104,1.904,0.238,2.442
		c0.133,0.538,0.396,0.93,0.789,1.17c0.393,0.241,0.994,0.361,1.805,0.361c0.861,0,1.902-0.089,3.119-0.267l0.057,2.147
		c-1.383,0.292-2.593,0.438-3.632,0.438C893.77,162.789,892.717,162.548,891.984,162.066z"/>
	<path d="M900.786,149.254h2.549v13.307h-2.549V149.254z"/>
	<path d="M906.327,161.487c-0.74-0.868-1.112-2.102-1.112-3.698c0-1.585,0.372-2.807,1.112-3.669
		c0.742-0.861,1.828-1.293,3.26-1.293s2.52,0.432,3.26,1.293c0.742,0.862,1.111,2.084,1.111,3.669c0,1.597-0.369,2.83-1.111,3.698
		c-0.74,0.868-1.828,1.302-3.26,1.302S907.069,162.355,906.327,161.487z M910.936,159.956c0.292-0.442,0.438-1.166,0.438-2.166
		c0-1.001-0.146-1.718-0.438-2.147c-0.293-0.432-0.742-0.647-1.35-0.647c-0.609,0-1.059,0.216-1.35,0.647
		c-0.293,0.43-0.436,1.146-0.436,2.147c0,1.002,0.145,1.724,0.436,2.166c0.291,0.444,0.74,0.666,1.35,0.666
		C910.194,160.622,910.643,160.4,910.936,159.956z"/>
	<path d="M916.088,162.445l-0.609-0.112l0.078-2.13c1.533,0.203,2.646,0.305,3.346,0.305c0.469,0,0.839-0.05,1.11-0.152
		c0.273-0.101,0.409-0.29,0.409-0.57c0-0.252-0.129-0.437-0.39-0.55c-0.261-0.114-0.693-0.223-1.302-0.323
		c-0.229-0.025-0.387-0.051-0.475-0.077c-0.633-0.114-1.154-0.257-1.559-0.428c-0.406-0.172-0.735-0.443-0.989-0.817
		s-0.38-0.897-0.38-1.568c0-1.077,0.33-1.876,0.988-2.396c0.659-0.519,1.564-0.778,2.718-0.778c0.685,0,1.692,0.12,3.022,0.36
		l0.627,0.114l-0.037,2.11c-1.533-0.203-2.668-0.304-3.402-0.304c-0.432,0-0.771,0.044-1.018,0.132
		c-0.246,0.089-0.369,0.261-0.369,0.513c0,0.268,0.126,0.454,0.379,0.562c0.254,0.109,0.666,0.213,1.236,0.314l0.664,0.113
		c1.014,0.203,1.736,0.504,2.168,0.903c0.43,0.399,0.645,1.042,0.645,1.93c0,1.091-0.31,1.895-0.931,2.414s-1.577,0.78-2.87,0.78
		C918.311,162.789,917.293,162.676,916.088,162.445z"/>
	<path d="M925.308,161.668c-0.659-0.748-0.989-1.957-0.989-3.631c0-1.749,0.345-3.055,1.035-3.916
		c0.692-0.861,1.766-1.293,3.225-1.293c1.342,0,2.359,0.358,3.051,1.074c0.689,0.716,1.035,1.79,1.035,3.223l-0.189,1.768h-5.589
		c0.025,0.443,0.104,0.783,0.237,1.017c0.135,0.235,0.35,0.399,0.646,0.495c0.299,0.095,0.714,0.143,1.246,0.143
		c0.418,0,0.918-0.014,1.502-0.039c0.582-0.024,1.008-0.05,1.271-0.075l0.532-0.057l0.04,1.88c-1.434,0.356-2.713,0.533-3.841,0.533
		C927.037,162.789,925.967,162.414,925.308,161.668z M930.155,156.954c0-0.761-0.117-1.29-0.352-1.588
		c-0.236-0.299-0.649-0.447-1.246-0.447c-0.607,0-1.039,0.155-1.291,0.466c-0.254,0.31-0.387,0.832-0.4,1.568L930.155,156.954
		L930.155,156.954z"/>
	<path d="M934.87,161.581c-0.559-0.805-0.838-2.017-0.838-3.641c0-1.773,0.314-3.069,0.942-3.888
		c0.628-0.816,1.595-1.226,2.899-1.226c0.468,0,1.186,0.089,2.147,0.266v-3.839h2.548v13.307h-2.527v-0.399
		c-0.521,0.239-0.965,0.405-1.332,0.493c-0.368,0.09-0.735,0.135-1.102,0.135C936.338,162.789,935.426,162.387,934.87,161.581z
		 M939.754,160.279l0.267-0.056v-5c-0.673-0.126-1.235-0.19-1.692-0.19c-0.605,0-1.044,0.217-1.311,0.646
		c-0.266,0.432-0.4,1.167-0.4,2.205c0,0.95,0.121,1.625,0.363,2.024c0.24,0.399,0.645,0.599,1.216,0.599
		C938.652,160.508,939.171,160.432,939.754,160.279z"/>
</g>
<g opacity="0.6">
	<path fill="#FFFFFF" d="M622.072,121.118l-20.144-10.555c-8.199-4.037-13.352-6.658-18.271-9.421h-0.469
		c-4.45,2.763-8.9,5.312-17.099,9.492l-18.973,10.483h-23.424l48.252-24.155l-46.378-23.588h23.657l20.847,11.192
		c5.856,3.116,10.306,5.524,14.522,8.075h0.703c4.45-2.834,8.432-5.029,14.288-8.075l21.55-11.192h23.423l-48.018,23.234
		l49.188,24.509H622.072z"/>
</g>
<g>
	<path fill="#FFFFFF" stroke="#FFFFFF" stroke-width="1.3064" stroke-miterlimit="10" d="M740.714,62.014h13.329v37.357
		c0,16.836-8.067,22.712-20.959,22.712c-3.156,0-7.19-0.526-9.821-1.403l1.491-10.786c1.841,0.614,4.209,1.053,6.84,1.053
		c5.612,0,9.12-2.544,9.12-11.663V62.014z"/>
	<path fill="#FFFFFF" stroke="#FFFFFF" stroke-width="1.3064" stroke-miterlimit="10" d="M805.17,107.351
		c0,5.612,0.176,10.172,0.351,13.768h-11.575l-0.614-6.051h-0.263c-1.666,2.631-5.7,7.016-13.417,7.016
		c-8.77,0-15.083-5.438-15.083-18.679V78.237h13.329V101.3c0,6.226,2.017,9.997,6.753,9.997c3.683,0,5.875-2.543,6.664-4.647
		c0.351-0.79,0.526-1.755,0.526-2.895V78.237h13.329V107.351z"/>
	<path fill="#FFFFFF" stroke="#FFFFFF" stroke-width="1.3064" stroke-miterlimit="10" d="M815.873,58.856h13.329v62.262h-13.329
		V58.856z"/>
	<path fill="#FFFFFF" stroke="#FFFFFF" stroke-width="1.3064" stroke-miterlimit="10" d="M849.897,78.237l6.402,21.046
		c0.701,2.543,1.578,5.699,2.104,7.979h0.263c0.614-2.28,1.315-5.524,1.93-7.979l5.261-21.046h14.294l-9.996,28.237
		c-6.139,17.013-10.261,23.765-15.084,28.062c-4.56,4.034-9.471,5.524-12.891,5.875l-2.806-11.225
		c1.666-0.351,3.771-1.14,5.787-2.279c2.018-1.053,4.297-3.245,5.525-5.35c0.438-0.701,0.701-1.315,0.701-1.93
		c0-0.438-0.088-1.14-0.526-2.191l-15.784-39.199H849.897z"/>
	<path fill="#FFFFFF" stroke="#FFFFFF" stroke-width="1.3064" stroke-miterlimit="10" d="M901.903,121.118v-8.067l7.278-6.577
		c12.54-11.225,18.591-17.626,18.679-24.291c0-4.647-2.719-8.331-9.295-8.331c-4.911,0-9.208,2.456-12.189,4.647l-3.771-9.471
		c4.209-3.245,10.961-5.875,18.591-5.875c12.979,0,19.993,7.542,19.993,17.889c0,9.559-6.84,17.188-15.171,24.554l-5.261,4.385
		v0.175h21.572v10.962H901.903z"/>
	<path fill="#FFFFFF" stroke="#FFFFFF" stroke-width="1.3064" stroke-miterlimit="10" d="M950.575,121.118v-8.067l7.278-6.577
		c12.54-11.225,18.591-17.626,18.679-24.291c0-4.647-2.719-8.331-9.295-8.331c-4.911,0-9.208,2.456-12.189,4.647l-3.771-9.471
		c4.209-3.245,10.961-5.875,18.591-5.875c12.979,0,19.993,7.542,19.993,17.889c0,9.559-6.84,17.188-15.171,24.554l-5.261,4.385
		v0.175h21.572v10.962H950.575z"/>
</g>
</svg>
