<?xml version="1.0" encoding="utf-8"?>
<!-- Generator: Adobe Illustrator 16.0.0, SVG Export Plug-In . SVG Version: 6.00 Build 0)  -->
<!DOCTYPE svg PUBLIC "-//W3C//DTD SVG 1.1//EN" "http://www.w3.org/Graphics/SVG/1.1/DTD/svg11.dtd">
<svg version="1.1" xmlns="http://www.w3.org/2000/svg" xmlns:xlink="http://www.w3.org/1999/xlink" x="0px" y="0px"
	 width="1042.301px" height="171.793px" viewBox="0 0 1042.301 171.793" enable-background="new 0 0 1042.301 171.793"
	 xml:space="preserve">
<g id="Layer_1">
	<g id="Layer_2">
	</g>
	<g id="Layer_1_1_">
		<g>
			<path fill="#FFFFFF" d="M45.86,59.69v55.387H34.62V92.109H14.013v22.97H2.772V59.69h11.241v22.643H34.62V59.69H45.86z"/>
			<path fill="#FFFFFF" d="M54.248,102.696c0-4.234,1.126-7.289,3.379-9.16c2.253-1.875,5.876-2.974,10.874-3.302l8.715-0.649V87.06
				c0-1.63-0.366-2.771-1.101-3.421c-0.733-0.651-1.967-0.979-3.706-0.979c-1.792,0-4.263,0.069-7.412,0.206
				c-3.149,0.136-5.783,0.285-7.901,0.448L56.77,75.74c5.866-1.577,11.403-2.363,16.616-2.363c5.212,0,8.974,1.086,11.281,3.257
				c2.308,2.173,3.461,5.648,3.461,10.427V104c0.11,1.357,0.34,2.278,0.693,2.771c0.351,0.485,1.018,0.84,1.996,1.058l-0.326,8.227
				c-2.826,0-5.064-0.191-6.719-0.57c-1.657-0.382-3.299-1.143-4.929-2.279c-3.965,1.897-7.956,2.851-11.974,2.851
				C58.456,116.055,54.248,111.603,54.248,102.696z M75.995,106.2l1.222-0.324v-8.717l-7.412,0.651
				c-3.042,0.271-4.561,1.901-4.561,4.886c0,2.987,1.33,4.479,3.99,4.479C71.297,107.176,73.552,106.85,75.995,106.2z"/>
			<path fill="#FFFFFF" d="M100.551,110.965c-2.635-3.396-3.951-8.811-3.951-16.25c0-7.547,1.357-12.991,4.074-16.33
				c2.715-3.34,7.139-5.01,13.277-5.01c1.574,0,3.311,0.136,5.212,0.406c1.901,0.272,4.452,0.734,7.657,1.386l-0.326,8.634
				c-4.617-0.434-7.821-0.651-9.612-0.651c-2.498,0-4.399,0.339-5.701,1.018c-1.303,0.68-2.212,1.833-2.729,3.46
				c-0.517,1.631-0.774,3.965-0.774,7.006c0,3.095,0.257,5.459,0.774,7.084c0.516,1.632,1.437,2.8,2.768,3.504
				c1.332,0.708,3.271,1.061,5.825,1.061l9.449-0.65l0.326,8.715c-5.756,1.14-10.264,1.711-13.521,1.711
				C107.433,116.055,103.183,114.357,100.551,110.965z"/>
			<path fill="#FFFFFF" d="M134.883,58.062h10.916v32.417l4.153-0.732l8.064-15.395h12.216l-10.588,19.303l11.159,21.42h-12.298
				l-8.226-15.881l-4.481,0.734v15.146h-10.916L134.883,58.062L134.883,58.062z"/>
			<path fill="#FFFFFF" d="M174.142,102.696c0-4.234,1.126-7.289,3.379-9.16c2.253-1.875,5.877-2.974,10.875-3.302l8.715-0.649
				V87.06c0-1.63-0.365-2.771-1.099-3.421c-0.734-0.651-1.97-0.979-3.706-0.979c-1.792,0-4.261,0.069-7.413,0.206
				c-3.148,0.136-5.782,0.285-7.899,0.448l-0.327-7.574c5.864-1.577,11.404-2.363,16.616-2.363c5.213,0,8.975,1.086,11.281,3.257
				c2.308,2.173,3.462,5.648,3.462,10.427V104c0.109,1.357,0.338,2.278,0.69,2.771c0.355,0.485,1.02,0.84,1.999,1.058l-0.327,8.227
				c-2.823,0-5.064-0.191-6.719-0.57c-1.658-0.382-3.3-1.143-4.926-2.279c-3.967,1.897-7.959,2.851-11.977,2.851
				C178.349,116.055,174.142,111.603,174.142,102.696z M195.889,106.2l1.222-0.324v-8.717L189.7,97.81
				c-3.042,0.271-4.562,1.901-4.562,4.886c0,2.987,1.329,4.479,3.99,4.479C191.192,107.176,193.447,106.85,195.889,106.2z"/>
			<path fill="#FFFFFF" d="M224.966,114.588c-1.737-0.978-2.985-2.578-3.745-4.805c-0.764-2.226-1.142-5.296-1.142-9.203V83.639
				h-4.805v-9.286h4.805V63.031h10.912v11.321h10.02v9.286h-10.018v16.696c0,2.117,0.188,3.65,0.571,4.603
				c0.378,0.951,1.329,1.397,2.848,1.345l6.192-0.164l0.487,8.717c-2.172,0.487-3.868,0.812-5.089,0.975
				c-1.223,0.164-2.459,0.246-3.708,0.246C229.147,116.055,226.702,115.568,224.966,114.588z"/>
			<path fill="#FFFFFF" d="M248.098,58.062h10.914v18.246c2.063-1.032,3.897-1.776,5.498-2.239c1.603-0.462,3.324-0.692,5.174-0.692
				c4.993,0,8.538,1.588,10.628,4.764c2.088,3.177,3.134,8.131,3.134,14.865v22.068h-10.914V93.25c0-3.691-0.436-6.301-1.303-7.819
				c-0.867-1.521-2.552-2.28-5.048-2.28c-1.957,0-3.992,0.326-6.11,0.977l-1.059,0.327v30.625h-10.914V58.062L248.098,58.062z"/>
			<path fill="#FFFFFF" d="M295.787,110.476c-3.178-3.72-4.767-8.999-4.767-15.841c0-6.786,1.589-12.029,4.767-15.721
				c3.178-3.691,7.831-5.539,13.969-5.539c6.134,0,10.792,1.847,13.967,5.539c3.18,3.693,4.768,8.935,4.768,15.721
				c0,6.842-1.588,12.125-4.768,15.841c-3.175,3.72-7.833,5.581-13.967,5.581C303.618,116.055,298.965,114.195,295.787,110.476z
				 M315.539,103.92c1.248-1.9,1.872-4.998,1.872-9.285c0-4.291-0.624-7.359-1.872-9.205c-1.251-1.845-3.177-2.771-5.783-2.771
				s-4.535,0.925-5.783,2.771c-1.249,1.846-1.875,4.916-1.875,9.205c0,4.287,0.626,7.385,1.875,9.285
				c1.248,1.901,3.176,2.852,5.783,2.852C312.362,106.771,314.288,105.822,315.539,103.92z"/>
			<path fill="#FFFFFF" d="M336.472,74.353h10.831v2.28c2.064-1.193,3.896-2.036,5.498-2.524c1.601-0.489,3.325-0.733,5.171-0.733
				c4.999,0,8.555,1.602,10.671,4.805c2.118,3.205,3.178,8.145,3.178,14.825v22.07h-10.914V93.331c0-3.746-0.448-6.381-1.345-7.9
				c-0.896-1.52-2.593-2.279-5.089-2.279c-1.79,0-3.829,0.38-6.109,1.141l-0.979,0.325v30.463h-10.912V74.353L336.472,74.353z"/>
		</g>
		<g>
			<path fill="#FFFFFF" d="M190.058,147.652c-1.157-0.801-1.957-1.969-2.393-3.502c-0.439-1.534-0.656-3.562-0.656-6.082
				c0-2.601,0.223-4.672,0.671-6.217c0.446-1.542,1.235-2.703,2.364-3.476c1.125-0.771,2.725-1.156,4.798-1.156
				c1.687,0,3.637,0.244,5.853,0.73l-0.092,2.406c-1.932-0.342-3.657-0.516-5.182-0.516c-1.523,0-2.671,0.268-3.443,0.807
				c-0.771,0.541-1.291,1.406-1.554,2.604c-0.267,1.201-0.388,2.938-0.366,5.213c0,1.971,0.125,3.49,0.38,4.558
				c0.254,1.065,0.772,1.867,1.554,2.403c0.785,0.541,1.978,0.81,3.582,0.81c1.339,0,3.018-0.17,5.029-0.517l0.092,2.469
				c-2.236,0.445-4.115,0.669-5.641,0.669C192.882,148.855,191.214,148.458,190.058,147.652z"/>
			<path fill="#FFFFFF" d="M204.593,146.954c-1.037-1.271-1.554-3.267-1.554-5.992c0-2.779,0.53-4.812,1.585-6.092
				c1.055-1.281,2.753-1.92,5.089-1.92c2.355,0,4.058,0.645,5.105,1.936c1.048,1.287,1.569,3.316,1.569,6.076
				c0,2.705-0.517,4.695-1.555,5.976c-1.037,1.278-2.744,1.919-5.12,1.919S205.63,148.223,204.593,146.954z M211.985,145.87
				c0.537-0.345,0.919-0.902,1.141-1.677c0.225-0.771,0.336-1.849,0.336-3.229c0-1.441-0.116-2.56-0.352-3.353
				c-0.232-0.789-0.619-1.354-1.157-1.69c-0.54-0.334-1.284-0.502-2.24-0.502c-0.954,0-1.706,0.168-2.254,0.502
				c-0.55,0.336-0.94,0.904-1.175,1.707c-0.234,0.805-0.35,1.916-0.35,3.336c0,1.363,0.113,2.436,0.334,3.217
				c0.225,0.781,0.609,1.346,1.158,1.691c0.55,0.344,1.311,0.518,2.286,0.518S211.446,146.215,211.985,145.87z"/>
			<path fill="#FFFFFF" d="M220.043,126.825h2.834v21.694h-2.834V126.825z"/>
			<path fill="#FFFFFF" d="M227.936,146.954c-1.036-1.271-1.556-3.267-1.556-5.992c0-2.779,0.528-4.812,1.584-6.092
				c1.057-1.281,2.754-1.92,5.091-1.92c2.355,0,4.057,0.645,5.105,1.936c1.046,1.287,1.566,3.316,1.566,6.076
				c0,2.705-0.517,4.695-1.553,5.976c-1.036,1.278-2.745,1.919-5.119,1.919C230.679,148.855,228.97,148.223,227.936,146.954z
				 M235.324,145.87c0.538-0.345,0.919-0.902,1.143-1.677c0.226-0.771,0.337-1.849,0.337-3.229c0-1.441-0.118-2.56-0.352-3.353
				c-0.234-0.789-0.619-1.354-1.158-1.69c-0.538-0.334-1.285-0.502-2.239-0.502c-0.957,0-1.707,0.168-2.254,0.502
				c-0.551,0.336-0.94,0.904-1.174,1.707c-0.234,0.805-0.351,1.916-0.351,3.336c0,1.363,0.111,2.436,0.333,3.217
				c0.224,0.781,0.609,1.346,1.159,1.691c0.548,0.344,1.311,0.518,2.286,0.518C234.028,146.389,234.785,146.215,235.324,145.87z"/>
			<path fill="#FFFFFF" d="M243.199,133.286h2.806v1.004c0.773-0.445,1.502-0.781,2.192-1.004c0.694-0.225,1.401-0.336,2.135-0.336
				c0.792,0,1.524,0.127,2.193,0.383c0.671,0.254,1.197,0.635,1.582,1.14c0.815-0.445,1.705-0.812,2.671-1.097
				c0.963-0.283,1.943-0.426,2.939-0.426c1.26,0,2.246,0.254,2.956,0.762c0.709,0.51,1.219,1.299,1.525,2.377
				c0.305,1.076,0.456,2.518,0.456,4.324v8.106h-2.835v-8.045c0-1.281-0.076-2.271-0.229-2.974c-0.151-0.697-0.426-1.207-0.82-1.521
				c-0.395-0.315-0.982-0.474-1.754-0.474c-0.569,0-1.157,0.065-1.766,0.197c-0.611,0.133-1.15,0.301-1.617,0.504l-0.547,0.242
				c0.221,0.873,0.331,2.256,0.331,4.145v7.923h-2.861v-7.862c0-1.359-0.074-2.398-0.214-3.121
				c-0.145-0.723-0.411-1.238-0.807-1.554s-0.98-0.474-1.752-0.474c-0.569,0-1.154,0.07-1.751,0.213
				c-0.604,0.142-1.104,0.304-1.51,0.486l-0.489,0.244v12.064h-2.835v-15.229H243.199z"/>
			<path fill="#FFFFFF" d="M269.651,148.583l-0.944-0.092v-21.666h2.835v7.131c0.771-0.348,1.487-0.599,2.146-0.764
				c0.661-0.162,1.378-0.242,2.153-0.242c1.338,0,2.411,0.262,3.213,0.791c0.801,0.528,1.391,1.366,1.768,2.516
				c0.375,1.147,0.562,2.678,0.562,4.586c0,2.051-0.229,3.654-0.685,4.799c-0.457,1.148-1.209,1.967-2.255,2.455
				c-1.046,0.486-2.505,0.73-4.373,0.73C272.69,148.827,271.217,148.745,269.651,148.583z M276.826,145.762
				c0.622-0.354,1.054-0.924,1.297-1.703c0.243-0.785,0.365-1.866,0.365-3.247c0-1.34-0.107-2.392-0.32-3.153
				c-0.212-0.765-0.558-1.31-1.035-1.646c-0.479-0.336-1.133-0.504-1.968-0.504c-1.015,0-2.224,0.244-3.623,0.734v9.902
				c1.318,0.1,2.193,0.15,2.619,0.15C275.32,146.297,276.209,146.12,276.826,145.762z"/>
			<path fill="#FFFFFF" d="M285.771,146.954c-1.036-1.271-1.553-3.267-1.553-5.992c0-2.779,0.529-4.812,1.584-6.092
				c1.058-1.281,2.754-1.92,5.09-1.92c2.357,0,4.059,0.645,5.104,1.936c1.045,1.287,1.569,3.316,1.569,6.076
				c0,2.705-0.519,4.695-1.552,5.976c-1.039,1.278-2.744,1.919-5.122,1.919C288.516,148.855,286.808,148.223,285.771,146.954z
				 M293.162,145.87c0.537-0.345,0.918-0.902,1.144-1.677c0.222-0.771,0.336-1.849,0.336-3.229c0-1.441-0.118-2.56-0.353-3.353
				c-0.232-0.789-0.621-1.354-1.159-1.69c-0.538-0.334-1.282-0.502-2.238-0.502c-0.954,0-1.71,0.168-2.255,0.502
				c-0.549,0.336-0.938,0.904-1.174,1.707c-0.233,0.805-0.352,1.916-0.352,3.336c0,1.363,0.113,2.436,0.338,3.217
				c0.221,0.781,0.607,1.346,1.157,1.691c0.548,0.344,1.308,0.518,2.283,0.518C291.864,146.389,292.623,146.215,293.162,145.87z"/>
			<path fill="#FFFFFF" d="M307.621,144.958l4.297-4.359c1.113-1.157,1.949-2.062,2.497-2.711c0.553-0.65,0.951-1.249,1.206-1.799
				c0.253-0.549,0.38-1.141,0.38-1.769c0-0.913-0.238-1.569-0.716-1.965s-1.194-0.597-2.148-0.597c-1.342,0-2.824,0.121-4.45,0.365
				l-0.729,0.092l-0.215-3.262c1.993-0.606,4.054-0.912,6.186-0.912c4.269,0,6.4,1.922,6.4,5.76c0,1.018-0.135,1.916-0.413,2.697
				c-0.271,0.779-0.729,1.574-1.371,2.375c-0.636,0.806-1.547,1.742-2.724,2.819l-3.508,3.171h8.354v3.654h-13.042v-3.562h-0.003
				V144.958z"/>
			<path fill="#FFFFFF" d="M325.356,146.342c-1.281-1.654-1.921-4.303-1.921-7.938c0-3.639,0.64-6.282,1.921-7.938
				c1.278-1.655,3.24-2.483,5.881-2.483c2.643,0,4.604,0.828,5.881,2.483c1.278,1.654,1.921,4.3,1.921,7.938
				c0,3.636-0.643,6.281-1.921,7.938c-1.277,1.656-3.238,2.484-5.881,2.484C328.598,148.827,326.636,147.999,325.356,146.342z
				 M333.249,144.514c0.506-0.436,0.877-1.146,1.111-2.135c0.235-0.984,0.353-2.31,0.353-3.976c0-1.667-0.116-2.991-0.353-3.978
				c-0.234-0.984-0.605-1.696-1.111-2.133c-0.509-0.437-1.178-0.655-2.012-0.655c-0.833,0-1.504,0.22-2.011,0.655
				c-0.508,0.437-0.882,1.147-1.112,2.133c-0.235,0.986-0.352,2.312-0.352,3.978s0.115,2.99,0.352,3.976
				c0.23,0.988,0.604,1.699,1.112,2.135c0.507,0.438,1.178,0.654,2.011,0.654C332.071,145.168,332.74,144.952,333.249,144.514z"/>
			<path fill="#FFFFFF" d="M348.302,133.161l-4.355,2.807l-1.921-3.141l6.645-4.418h3.84v20.11h-4.205v-15.358H348.302z"/>
			<path fill="#FFFFFF" d="M360.733,147.788l6.858-14.656v-0.978h-8.653v-3.745h12.857v4.752l-7.159,15.729L360.733,147.788z"/>
		</g>
		<g>
			<path fill="#FFFFFF" d="M2.805,28.699h8.334c1.155,0,2.183,0.13,3.112,0.322c0.961,0.256,1.73,0.641,2.403,1.025
				c0.64,0.449,1.155,0.963,1.507,1.603c0.385,0.578,0.578,1.283,0.578,1.988c0,0.962-0.225,1.731-0.642,2.374
				c-0.45,0.705-1.217,1.346-2.34,1.987c1.154,0.385,2.083,0.962,2.821,1.796c0.738,0.832,1.091,1.793,1.091,2.884
				c0,0.802-0.16,1.508-0.512,2.148c-0.323,0.642-0.835,1.285-1.475,1.731c-0.644,0.481-1.413,0.867-2.308,1.124
				c-0.899,0.321-1.927,0.45-3.015,0.45H2.772V28.668L2.805,28.699z M7.616,37.1h3.141c0.961,0,1.796-0.321,2.341-0.896
				c0.544-0.578,0.831-1.346,0.831-2.245c0-1.025-0.318-1.859-1.087-2.5c-0.738-0.644-1.923-0.963-3.463-0.963H7.583v6.573
				L7.616,37.1z M7.616,46.143h2.563c1.604,0,2.725-0.32,3.461-0.961c0.707-0.643,1.059-1.414,1.059-2.375
				c0-0.544-0.064-1.026-0.224-1.506c-0.159-0.481-0.414-0.866-0.768-1.219c-0.385-0.32-0.834-0.64-1.443-0.801
				c-0.58-0.192-1.283-0.323-2.151-0.323H7.647v7.185H7.616z M34.001,48.161h-4.425V46.88l-0.703,0.641L28.07,47.97l-0.961,0.321
				c-0.385,0.063-0.802,0.096-1.282,0.096c-0.705,0-1.282-0.096-1.86-0.321c-0.545-0.16-0.961-0.417-1.377-0.77
				c-0.384-0.32-0.642-0.738-0.867-1.186c-0.191-0.481-0.32-0.963-0.32-1.507c0-0.866,0.257-1.604,0.705-2.246
				c0.452-0.577,1.059-1.088,1.766-1.505c0.737-0.45,1.603-0.834,2.468-1.156c0.899-0.319,1.796-0.64,2.693-0.897l0.513-0.128V37.26
				c0-0.96-0.193-1.604-0.543-1.988c-0.324-0.383-0.835-0.575-1.444-0.575c-0.706,0-1.186,0.192-1.443,0.512
				c-0.256,0.321-0.384,0.738-0.384,1.218c0,0.321,0,0.578-0.096,0.833c-0.064,0.256-0.161,0.481-0.323,0.642
				c-0.159,0.224-0.384,0.385-0.639,0.481c-0.257,0.127-0.577,0.193-0.963,0.193c-0.64,0-1.151-0.161-1.538-0.514
				c-0.385-0.321-0.576-0.802-0.576-1.347c0-0.481,0.159-0.963,0.512-1.41c0.32-0.417,0.801-0.801,1.379-1.122
				c0.643-0.323,1.282-0.577,2.052-0.737c0.77-0.193,1.603-0.257,2.437-0.257c2.114,0,3.622,0.32,4.585,1.058
				c0.961,0.738,1.41,1.701,1.41,2.886v11.03h0.027V48.161z M29.576,40.465l-1.282,0.643c-0.45,0.256-0.866,0.512-1.22,0.801
				c-0.319,0.319-0.639,0.577-0.865,0.898c-0.223,0.32-0.321,0.641-0.321,1.025c0,0.546,0.129,1.059,0.417,1.442
				c0.257,0.417,0.579,0.642,0.963,0.642c0.32,0,0.705-0.128,1.088-0.321l1.219-0.864V40.53L29.576,40.465L29.576,40.465z
				 M41.759,48.161h-4.392V27.546l4.392-1.187V48.161z M49.165,48.161h-4.393V27.546l4.393-1.187V48.161z M58.881,48.481
				c-1.058,0-2.021-0.223-2.95-0.64c-0.898-0.321-1.699-0.865-2.374-1.538c-0.704-0.642-1.215-1.411-1.603-2.246
				c-0.416-0.898-0.642-1.827-0.642-2.789c0-1.155,0.226-2.244,0.579-3.207c0.386-0.962,0.897-1.859,1.539-2.564
				c0.642-0.738,1.475-1.283,2.405-1.7c0.962-0.417,1.988-0.64,3.143-0.64c1.024,0,1.923,0.19,2.819,0.512
				c0.834,0.322,1.604,0.771,2.18,1.283c0.579,0.512,1.06,1.283,1.411,2.02c0.319,0.801,0.483,1.603,0.483,2.5H55.739
				c0,0.802,0.127,1.604,0.321,2.309c0.225,0.738,0.511,1.379,0.832,1.923c0.322,0.579,0.771,1.026,1.22,1.379
				c0.512,0.321,1.025,0.48,1.602,0.48c0.48,0,0.961-0.063,1.443-0.224c0.48-0.159,0.897-0.385,1.283-0.641
				c0.381-0.321,0.737-0.643,1.057-1.06c0.32-0.384,0.481-0.801,0.642-1.282l2.245,0.385c-0.193,0.77-0.546,1.507-1.057,2.245
				c-0.513,0.642-1.09,1.282-1.766,1.794c-0.64,0.514-1.441,0.963-2.243,1.283c-0.799,0.256-1.603,0.416-2.372,0.416h-0.064
				L58.881,48.481L58.881,48.481z M60.804,37.901c-0.128-0.866-0.416-1.603-0.897-2.083c-0.481-0.547-1.089-0.803-1.794-0.803
				c-0.546,0-1.058,0.256-1.541,0.77c-0.449,0.546-0.736,1.283-0.833,2.148h5.032L60.804,37.901z M72.795,48.161h-4.424V33.412
				h4.424v1.09c0.482-0.512,1.027-0.897,1.604-1.218c0.64-0.321,1.283-0.449,1.924-0.449c0.32,0,0.739,0,1.089,0.161
				c0.32,0.063,0.642,0.192,0.96,0.384c0.227,0.194,0.418,0.385,0.578,0.642c0.129,0.226,0.225,0.48,0.225,0.77
				c0,0.512-0.225,0.961-0.64,1.283c-0.322,0.32-0.768,0.48-1.283,0.48c-0.385,0-0.641,0-0.897-0.16l-0.643-0.321
				c-0.158-0.161-0.318-0.321-0.545-0.386c-0.192-0.127-0.45-0.191-0.738-0.191c-0.288,0-0.542,0.224-0.865,0.641
				c-0.32,0.386-0.544,0.865-0.803,1.378v10.581L72.795,48.161z M80.298,28.829c0-0.643,0.256-1.122,0.706-1.54
				c0.479-0.481,1.026-0.641,1.698-0.641c0.643,0,1.188,0.16,1.668,0.641c0.449,0.386,0.641,0.897,0.641,1.507
				c0,0.576-0.191,1.089-0.641,1.507c-0.48,0.416-1.058,0.641-1.699,0.641c-0.705,0-1.281-0.225-1.731-0.641
				c-0.448-0.416-0.705-0.961-0.705-1.507L80.298,28.829z M80.522,34.279l4.424-1.283v15.165h-4.454V34.215L80.522,34.279z
				 M96.969,38.094c0-0.77-0.16-1.348-0.449-1.731c-0.321-0.384-0.643-0.577-1.025-0.577c-0.385,0-0.866,0.128-1.442,0.417
				c-0.577,0.32-1.125,0.707-1.603,1.185v10.774h-4.49v-14.75h4.49v1.155c0.64-0.514,1.346-0.866,2.147-1.122
				c0.771-0.225,1.541-0.322,2.342-0.322c0.577,0,1.153,0.097,1.698,0.322c0.547,0.255,1.028,0.576,1.411,0.962
				c0.419,0.417,0.738,0.864,0.963,1.411c0.255,0.577,0.384,1.153,0.384,1.762v10.581h-4.426V38.062V38.094z M115.82,48.161h-4.484
				V46.88l-0.708,0.641c-0.224,0.16-0.48,0.321-0.769,0.449l-0.963,0.321c-0.321,0.063-0.801,0.096-1.28,0.096
				c-0.642,0-1.283-0.096-1.86-0.321c-0.543-0.16-0.963-0.417-1.379-0.77c-0.32-0.32-0.639-0.738-0.866-1.186
				c-0.191-0.481-0.321-0.963-0.321-1.507c0-0.866,0.257-1.604,0.707-2.246c0.48-0.577,1.087-1.088,1.828-1.505
				c0.737-0.45,1.538-0.834,2.436-1.156l2.693-0.897l0.513-0.128V37.26c0-0.96-0.192-1.604-0.546-1.988
				c-0.323-0.383-0.833-0.575-1.443-0.575c-0.641,0-1.152,0.192-1.411,0.512c-0.254,0.321-0.382,0.738-0.382,1.218
				c0,0.321,0,0.578-0.098,0.833c0,0.256-0.129,0.481-0.32,0.642c-0.129,0.224-0.32,0.385-0.579,0.481
				c-0.319,0.127-0.64,0.193-1.024,0.193c-0.642,0-1.121-0.161-1.507-0.514c-0.383-0.321-0.577-0.802-0.577-1.347
				c0-0.481,0.161-0.963,0.512-1.41c0.385-0.417,0.832-0.801,1.412-1.122c0.637-0.323,1.282-0.577,2.052-0.737
				c0.77-0.193,1.603-0.257,2.435-0.257c2.117,0,3.657,0.32,4.586,1.058c0.96,0.738,1.445,1.701,1.445,2.886v11.03h-0.102V48.161z
				 M111.336,40.531l-1.285,0.643c-0.417,0.254-0.802,0.511-1.156,0.8c-0.319,0.321-0.639,0.578-0.865,0.899
				c-0.255,0.321-0.384,0.641-0.384,1.024c0,0.546,0.129,1.059,0.418,1.443c0.32,0.417,0.639,0.642,0.959,0.642
				c0.385,0,0.739-0.126,1.123-0.319l1.217-0.866v-4.265L111.336,40.531L111.336,40.531L111.336,40.531z"/>
		</g>
		<circle fill="#FFFFFF" cx="148.501" cy="150.094" r="5.358"/>
		
			<line fill="none" stroke="#FFFFFF" stroke-width="2.6457" stroke-miterlimit="10" x1="148.501" y1="150.094" x2="170.108" y2="121.118"/>
		<circle fill="#FFFFFF" cx="225.497" cy="39.233" r="5.357"/>
		
			<line fill="none" stroke="#FFFFFF" stroke-width="2.6457" stroke-miterlimit="10" x1="203.586" y1="68.208" x2="225.194" y2="39.233"/>
		<circle fill="#FFFFFF" cx="301.285" cy="40.635" r="5.358"/>
		
			<line fill="none" stroke="#FFFFFF" stroke-width="2.6457" stroke-miterlimit="10" x1="225.498" y1="39.233" x2="301.284" y2="40.635"/>
		<circle fill="#FFFFFF" cx="335.382" cy="5.357" r="5.359"/>
		<circle fill="#FFFFFF" cx="74.017" cy="137.471" r="5.357"/>
		<circle fill="#FFFFFF" cx="36.24" cy="166.435" r="5.358"/>
		
			<line fill="none" stroke="#FFFFFF" stroke-width="2.6457" stroke-miterlimit="10" x1="35.816" y1="167.208" x2="73.241" y2="137.491"/>
		
			<line fill="none" stroke="#FFFFFF" stroke-width="2.9017" stroke-miterlimit="10" x1="73.897" y1="137.472" x2="149.522" y2="150.426"/>
		
			<line fill="none" stroke="#FFFFFF" stroke-width="2.6457" stroke-miterlimit="10" x1="301.342" y1="41.047" x2="333.302" y2="6.602"/>
		<g>
			<path fill="none" stroke="#FFFFFF" stroke-width="2" stroke-miterlimit="10" d="M574.187,59.303h12.565v35.214
				c0,15.868-7.605,21.406-19.839,21.406c-2.894,0-6.696-0.495-9.175-1.322l1.404-10.167c1.734,0.579,3.967,0.993,6.447,0.993
				c5.29,0,8.597-2.397,8.597-11.076V59.303L574.187,59.303z"/>
			<path fill="none" stroke="#FFFFFF" stroke-width="2" stroke-miterlimit="10" d="M634.941,102.039
				c0,5.288,0.165,9.587,0.332,12.976h-10.91l-0.581-5.704h-0.247c-1.568,2.479-5.373,6.613-12.646,6.613
				c-8.183,0-14.217-5.125-14.217-17.604V74.595h12.646v21.738c0,5.868,1.902,9.423,6.284,9.423c3.472,0,5.455-2.396,6.281-4.38
				c0.33-0.744,0.412-1.735,0.412-2.728V74.595h12.646V102.039L634.941,102.039z"/>
			<path fill="none" stroke="#FFFFFF" stroke-width="2" stroke-miterlimit="10" d="M645.026,56.327h12.563v58.687h-12.563V56.327z"
				/>
			<path fill="none" stroke="#FFFFFF" stroke-width="2" stroke-miterlimit="10" d="M677.181,74.595l6.034,19.838
				c0.66,2.398,1.485,5.373,1.982,7.522h0.246c0.58-2.149,1.24-5.209,1.82-7.522l4.959-19.838h13.475l-9.424,26.615
				c-5.787,16.037-9.673,22.482-14.218,26.535c-4.381,3.801-9.011,5.124-12.149,5.536l-2.646-10.663
				c1.57-0.247,3.554-0.99,5.455-2.148c1.902-0.991,3.967-2.976,5.209-5.042c0.414-0.579,0.66-1.239,0.66-1.817
				c0-0.415-0.082-1.076-0.58-2.069l-14.795-36.946H677.181z"/>
			<path fill="none" stroke="#FFFFFF" stroke-width="2" stroke-miterlimit="10" d="M742.15,72.446h-0.166l-10.248,4.876
				l-2.068-9.423l14.219-6.613h10.414v53.728h-12.15V72.446z"/>
		</g>
		<g>
			<path fill="#FFFFFF" d="M838.374,81.49c1.429-0.233,3.555-0.408,5.915-0.408c2.914,0,4.952,0.437,6.352,1.544
				c1.165,0.933,1.806,2.302,1.806,4.108c0,2.506-1.776,4.225-3.467,4.836v0.088c1.369,0.554,2.127,1.864,2.622,3.671
				c0.611,2.214,1.223,4.779,1.603,5.536h-4.545c-0.32-0.555-0.786-2.156-1.368-4.575c-0.525-2.446-1.37-3.117-3.177-3.146h-1.339
				v7.721h-4.4L838.374,81.49L838.374,81.49z M842.774,89.939h1.747c2.215,0,3.526-1.107,3.526-2.826
				c0-1.807-1.224-2.71-3.263-2.739c-1.078,0-1.69,0.088-2.01,0.146L842.774,89.939L842.774,89.939z"/>
			<path fill="#FFFFFF" d="M858.913,95.153c0.146,1.836,1.952,2.71,4.022,2.71c1.514,0,2.738-0.204,3.932-0.583l0.583,3.001
				c-1.456,0.583-3.233,0.874-5.156,0.874c-4.837,0-7.604-2.797-7.604-7.255c0-3.613,2.243-7.604,7.195-7.604
				c4.604,0,6.352,3.584,6.352,7.108c0,0.757-0.088,1.428-0.146,1.748H858.913z M864.129,92.124c0-1.078-0.467-2.885-2.506-2.885
				c-1.865,0-2.622,1.69-2.739,2.885H864.129z"/>
			<path fill="#FFFFFF" d="M884.492,86.617c-0.058,0.903-0.115,2.098-0.115,4.225v7.954c0,2.738-0.554,4.982-2.157,6.409
				c-1.572,1.341-3.699,1.749-5.798,1.749c-1.865,0-3.846-0.379-5.127-1.107l0.873-3.351c0.903,0.525,2.477,1.079,4.138,1.079
				c2.097,0,3.7-1.137,3.7-3.759v-0.932h-0.059c-0.845,1.193-2.215,1.864-3.846,1.864c-3.525,0-6.03-2.856-6.03-6.964
				c0-4.574,2.971-7.486,6.467-7.486c1.952,0,3.177,0.844,3.904,2.01h0.059l0.146-1.69L884.492,86.617L884.492,86.617z
				 M879.947,92.416c0-0.292-0.028-0.584-0.087-0.816c-0.321-1.165-1.165-1.951-2.39-1.951c-1.603,0-2.913,1.456-2.913,4.05
				c0,2.127,1.049,3.788,2.913,3.788c1.137,0,2.039-0.759,2.331-1.807c0.117-0.321,0.146-0.787,0.146-1.166V92.416z"/>
			<path fill="#FFFFFF" d="M892.504,82.655c0,1.224-0.933,2.215-2.39,2.215c-1.398,0-2.33-0.991-2.301-2.215
				c-0.029-1.282,0.901-2.244,2.33-2.244C891.571,80.411,892.475,81.373,892.504,82.655z M887.93,100.865V86.617h4.428v14.247
				L887.93,100.865L887.93,100.865z"/>
			<path fill="#FFFFFF" d="M895.883,96.989c0.815,0.496,2.505,1.078,3.816,1.078c1.34,0,1.894-0.467,1.894-1.194
				c0-0.729-0.437-1.078-2.097-1.632c-2.943-0.991-4.079-2.594-4.051-4.282c0-2.651,2.272-4.662,5.798-4.662
				c1.661,0,3.146,0.379,4.021,0.815l-0.787,3.06c-0.641-0.351-1.864-0.816-3.088-0.816c-1.078,0-1.69,0.438-1.69,1.166
				c0,0.67,0.554,1.02,2.303,1.632c2.709,0.932,3.845,2.302,3.875,4.398c0,2.651-2.099,4.604-6.178,4.604
				c-1.864,0-3.524-0.407-4.603-0.99L895.883,96.989z"/>
			<path fill="#FFFFFF" d="M913.508,82.539v4.079h3.176v3.264h-3.176v5.155c0,1.72,0.409,2.506,1.749,2.506
				c0.554,0,0.99-0.058,1.311-0.116l0.029,3.35c-0.583,0.233-1.632,0.379-2.885,0.379c-1.428,0-2.622-0.495-3.32-1.223
				c-0.816-0.846-1.224-2.214-1.224-4.226V89.88h-1.894v-3.264h1.894v-3.089L913.508,82.539z"/>
			<path fill="#FFFFFF" d="M922.51,95.153c0.145,1.836,1.952,2.71,4.021,2.71c1.516,0,2.739-0.204,3.934-0.583l0.582,3.001
				c-1.456,0.583-3.233,0.874-5.156,0.874c-4.837,0-7.604-2.797-7.604-7.255c0-3.613,2.243-7.604,7.196-7.604
				c4.604,0,6.351,3.584,6.351,7.108c0,0.757-0.087,1.428-0.145,1.748H922.51z M927.725,92.124c0-1.078-0.466-2.885-2.506-2.885
				c-1.864,0-2.621,1.69-2.737,2.885H927.725z"/>
			<path fill="#FFFFFF" d="M934.483,91.308c0-2.098-0.058-3.468-0.116-4.691h3.817l0.146,2.622h0.115
				c0.729-2.068,2.477-2.942,3.846-2.942c0.408,0,0.612,0,0.934,0.058v4.167c-0.321-0.059-0.699-0.116-1.195-0.116
				c-1.632,0-2.738,0.874-3.029,2.242c-0.059,0.292-0.088,0.642-0.088,0.991v7.227h-4.429V91.308z"/>
			<path fill="#FFFFFF" d="M951.584,100.865V81.227h5.186l4.079,7.196c1.166,2.068,2.331,4.516,3.204,6.729h0.088
				c-0.291-2.592-0.379-5.244-0.379-8.187v-5.739h4.079v19.637h-4.662l-4.195-7.575c-1.165-2.098-2.447-4.633-3.409-6.934
				l-0.088,0.029c0.116,2.593,0.176,5.361,0.176,8.565v5.914H951.584L951.584,100.865z"/>
			<path fill="#FFFFFF" d="M985.525,93.582c0,5.215-3.7,7.604-7.517,7.604c-4.167,0-7.37-2.738-7.37-7.342
				c0-4.604,3.029-7.546,7.603-7.546C982.611,86.297,985.525,89.298,985.525,93.582z M975.212,93.726
				c0,2.447,1.02,4.283,2.913,4.283c1.719,0,2.827-1.72,2.827-4.283c0-2.127-0.816-4.283-2.827-4.283
				C975.998,89.443,975.212,91.629,975.212,93.726z"/>
			<path fill="#FFFFFF" d="M991.061,86.617l1.136,5.828c0.291,1.485,0.583,3.059,0.816,4.69h0.058
				c0.291-1.632,0.699-3.263,1.049-4.662l1.515-5.856h3.497l1.426,5.681c0.381,1.604,0.759,3.205,1.051,4.837h0.057
				c0.205-1.632,0.497-3.233,0.816-4.865l1.224-5.652h4.341l-4.37,14.247h-4.166l-1.341-5.011c-0.349-1.398-0.611-2.681-0.902-4.429
				h-0.058c-0.263,1.777-0.554,3.088-0.933,4.429l-1.428,5.011h-4.166l-4.138-14.247H991.061z"/>
		</g>
		
			<rect x="804.493" y="58.984" fill="none" stroke="#FFFFFF" stroke-width="2" stroke-miterlimit="10" width="235.806" height="65.636"/>
		<g>
			<path d="M769.728,156.222c0.939-0.157,2.14-0.244,3.409-0.244c2.191,0,3.705,0.452,4.783,1.357
				c1.131,0.922,1.827,2.313,1.827,4.313c0,2.088-0.714,3.653-1.827,4.662c-1.165,1.061-3.026,1.601-5.305,1.601
				c-1.253,0-2.192-0.07-2.888-0.157V156.222z M771.867,166.155c0.295,0.052,0.748,0.052,1.183,0.052
				c2.783,0.018,4.436-1.514,4.436-4.488c0.018-2.592-1.479-4.07-4.157-4.07c-0.679,0-1.166,0.053-1.461,0.122V166.155z"/>
			<path d="M783.037,164.154c0.053,1.531,1.253,2.192,2.609,2.192c0.992,0,1.705-0.14,2.349-0.383l0.313,1.479
				c-0.731,0.296-1.74,0.521-2.958,0.521c-2.748,0-4.366-1.688-4.366-4.279c0-2.348,1.427-4.558,4.141-4.558
				c2.748,0,3.652,2.262,3.652,4.123c0,0.4-0.034,0.713-0.069,0.904H783.037z M786.76,162.658c0.018-0.782-0.33-2.069-1.757-2.069
				c-1.322,0-1.879,1.2-1.966,2.069H786.76z"/>
			<path d="M795.268,167.79l-0.139-0.939h-0.053c-0.521,0.661-1.408,1.131-2.505,1.131c-1.704,0-2.661-1.235-2.661-2.522
				c0-2.14,1.896-3.218,5.027-3.2v-0.14c0-0.557-0.227-1.479-1.723-1.479c-0.835,0-1.704,0.261-2.278,0.626l-0.418-1.392
				c0.627-0.383,1.723-0.748,3.062-0.748c2.714,0,3.497,1.723,3.497,3.566v3.062c0,0.766,0.034,1.514,0.121,2.035H795.268z
				 M794.989,163.65c-1.513-0.035-2.957,0.295-2.957,1.583c0,0.835,0.539,1.217,1.218,1.217c0.853,0,1.479-0.557,1.67-1.165
				c0.052-0.156,0.069-0.33,0.069-0.47V163.65z"/>
			<path d="M807.15,155.439v9.968c0,0.869,0.035,1.809,0.07,2.383h-1.914l-0.087-1.34h-0.034c-0.505,0.939-1.531,1.531-2.767,1.531
				c-2.018,0-3.618-1.723-3.618-4.331c-0.017-2.836,1.758-4.523,3.793-4.523c1.165,0,2,0.487,2.383,1.113h0.035v-4.801H807.15z
				 M805.012,162.849c0-0.174-0.018-0.383-0.053-0.557c-0.191-0.835-0.87-1.513-1.844-1.513c-1.374,0-2.14,1.217-2.14,2.8
				c0,1.549,0.766,2.679,2.122,2.679c0.87,0,1.635-0.591,1.844-1.513c0.053-0.191,0.07-0.4,0.07-0.626V162.849z"/>
			<path d="M809.449,155.439h2.156v12.351h-2.156V155.439z"/>
			<path d="M816.199,156.953c0,0.644-0.47,1.147-1.218,1.147c-0.713,0-1.183-0.504-1.183-1.147c0-0.661,0.487-1.166,1.2-1.166
				C815.729,155.787,816.182,156.292,816.199,156.953z M813.921,167.79v-8.472h2.156v8.472H813.921z"/>
			<path d="M818.375,161.84c0-0.974-0.018-1.792-0.07-2.522h1.879l0.104,1.271h0.052c0.365-0.661,1.288-1.462,2.696-1.462
				c1.479,0,3.01,0.957,3.01,3.636v5.027h-2.14v-4.783c0-1.218-0.452-2.14-1.618-2.14c-0.852,0-1.443,0.608-1.67,1.252
				c-0.069,0.191-0.087,0.452-0.087,0.696v4.975h-2.156V161.84z"/>
			<path d="M829.84,164.154c0.053,1.531,1.253,2.192,2.609,2.192c0.992,0,1.705-0.14,2.349-0.383l0.313,1.479
				c-0.731,0.296-1.74,0.521-2.958,0.521c-2.748,0-4.366-1.688-4.366-4.279c0-2.348,1.427-4.558,4.141-4.558
				c2.748,0,3.652,2.262,3.652,4.123c0,0.4-0.034,0.713-0.069,0.904H829.84z M833.562,162.658c0.018-0.782-0.33-2.069-1.757-2.069
				c-1.322,0-1.879,1.2-1.966,2.069H833.562z"/>
			<path d="M841.149,167.79v-6.871h-1.148v-1.601h1.148v-0.365c0-1.096,0.296-2.191,1.026-2.888
				c0.626-0.591,1.479-0.817,2.209-0.817c0.574,0,1.026,0.087,1.374,0.209l-0.156,1.652c-0.227-0.087-0.521-0.156-0.904-0.156
				c-1.062,0-1.427,0.887-1.427,1.931v0.435h1.861v1.601h-1.844v6.871H841.149z"/>
			<path d="M854.319,163.475c0,3.114-2.192,4.506-4.349,4.506c-2.4,0-4.245-1.652-4.245-4.366c0-2.783,1.827-4.488,4.384-4.488
				C852.632,159.126,854.319,160.901,854.319,163.475z M847.936,163.563c0,1.635,0.8,2.87,2.104,2.87c1.218,0,2.07-1.2,2.07-2.905
				c0-1.322-0.592-2.836-2.053-2.836C848.544,160.692,847.936,162.154,847.936,163.563z"/>
			<path d="M856.078,162.049c0-1.148-0.018-1.966-0.07-2.731h1.861l0.07,1.618h0.069c0.417-1.2,1.409-1.81,2.313-1.81
				c0.209,0,0.33,0.018,0.504,0.053v2.018c-0.174-0.035-0.365-0.069-0.626-0.069c-1.026,0-1.722,0.661-1.913,1.617
				c-0.035,0.191-0.069,0.418-0.069,0.661v4.384h-2.14V162.049z"/>
			<path d="M865.874,162.049c0-1.148-0.018-1.966-0.07-2.731h1.861l0.07,1.618h0.069c0.417-1.2,1.409-1.81,2.313-1.81
				c0.209,0,0.33,0.018,0.504,0.053v2.018c-0.174-0.035-0.365-0.069-0.626-0.069c-1.026,0-1.722,0.661-1.913,1.617
				c-0.035,0.191-0.069,0.418-0.069,0.661v4.384h-2.14V162.049z"/>
			<path d="M873.424,164.154c0.053,1.531,1.253,2.192,2.609,2.192c0.992,0,1.705-0.14,2.349-0.383l0.313,1.479
				c-0.731,0.296-1.74,0.521-2.958,0.521c-2.748,0-4.366-1.688-4.366-4.279c0-2.348,1.427-4.558,4.141-4.558
				c2.748,0,3.652,2.262,3.652,4.123c0,0.4-0.034,0.713-0.069,0.904H873.424z M877.146,162.658c0.018-0.782-0.33-2.069-1.757-2.069
				c-1.322,0-1.879,1.2-1.966,2.069H877.146z"/>
			<path d="M888.629,159.318c-0.034,0.574-0.069,1.271-0.069,2.436v4.801c0,1.774-0.365,3.044-1.253,3.845
				c-0.887,0.782-2.104,1.026-3.27,1.026c-1.079,0-2.227-0.227-2.957-0.679l0.469-1.617c0.54,0.312,1.444,0.644,2.471,0.644
				c1.392,0,2.436-0.731,2.436-2.558v-0.73h-0.035c-0.487,0.748-1.356,1.253-2.47,1.253c-2.105,0-3.602-1.74-3.602-4.141
				c0-2.783,1.81-4.471,3.845-4.471c1.287,0,2.053,0.627,2.453,1.322h0.034l0.087-1.131H888.629z M886.42,162.71
				c0-0.191-0.018-0.4-0.069-0.574c-0.227-0.783-0.835-1.374-1.739-1.374c-1.201,0-2.088,1.043-2.088,2.766
				c0,1.443,0.73,2.609,2.07,2.609c0.8,0,1.496-0.522,1.739-1.287c0.052-0.227,0.087-0.522,0.087-0.766V162.71z"/>
			<path d="M893.067,156.953c0,0.644-0.47,1.147-1.218,1.147c-0.713,0-1.183-0.504-1.183-1.147c0-0.661,0.487-1.166,1.2-1.166
				C892.598,155.787,893.05,156.292,893.067,156.953z M890.789,167.79v-8.472h2.156v8.472H890.789z"/>
			<path d="M895.139,165.824c0.486,0.296,1.409,0.609,2.174,0.609c0.939,0,1.357-0.383,1.357-0.939c0-0.574-0.349-0.87-1.392-1.235
				c-1.653-0.574-2.349-1.479-2.331-2.47c0-1.496,1.234-2.662,3.2-2.662c0.939,0,1.757,0.244,2.244,0.505l-0.417,1.514
				c-0.365-0.209-1.044-0.487-1.792-0.487c-0.766,0-1.183,0.365-1.183,0.887c0,0.54,0.399,0.801,1.479,1.184
				c1.53,0.557,2.244,1.339,2.261,2.592c0,1.53-1.2,2.644-3.444,2.644c-1.025,0-1.947-0.243-2.574-0.592L895.139,165.824z"/>
			<path d="M904.95,156.9v2.418h2.035v1.601h-2.035v3.74c0,1.026,0.278,1.565,1.096,1.565c0.365,0,0.644-0.053,0.835-0.104
				l0.035,1.635c-0.313,0.122-0.87,0.209-1.548,0.209c-0.783,0-1.444-0.261-1.844-0.695c-0.453-0.487-0.661-1.253-0.661-2.366
				v-3.983h-1.218v-1.601h1.218v-1.913L904.95,156.9z"/>
			<path d="M908.605,162.049c0-1.148-0.018-1.966-0.07-2.731h1.861l0.07,1.618h0.069c0.417-1.2,1.409-1.81,2.313-1.81
				c0.209,0,0.33,0.018,0.504,0.053v2.018c-0.174-0.035-0.365-0.069-0.626-0.069c-1.026,0-1.722,0.661-1.913,1.617
				c-0.035,0.191-0.069,0.418-0.069,0.661v4.384h-2.14V162.049z"/>
			<path d="M919.408,167.79l-0.139-0.939h-0.053c-0.521,0.661-1.408,1.131-2.505,1.131c-1.704,0-2.661-1.235-2.661-2.522
				c0-2.14,1.896-3.218,5.027-3.2v-0.14c0-0.557-0.227-1.479-1.723-1.479c-0.835,0-1.704,0.261-2.278,0.626l-0.418-1.392
				c0.627-0.383,1.723-0.748,3.062-0.748c2.714,0,3.497,1.723,3.497,3.566v3.062c0,0.766,0.034,1.514,0.121,2.035H919.408z
				 M919.13,163.65c-1.513-0.035-2.957,0.295-2.957,1.583c0,0.835,0.539,1.217,1.218,1.217c0.853,0,1.479-0.557,1.67-1.165
				c0.052-0.156,0.069-0.33,0.069-0.47V163.65z"/>
			<path d="M925.829,156.9v2.418h2.035v1.601h-2.035v3.74c0,1.026,0.278,1.565,1.096,1.565c0.365,0,0.644-0.053,0.835-0.104
				l0.035,1.635c-0.313,0.122-0.87,0.209-1.548,0.209c-0.783,0-1.444-0.261-1.844-0.695c-0.453-0.487-0.661-1.253-0.661-2.366
				v-3.983h-1.218v-1.601h1.218v-1.913L925.829,156.9z"/>
			<path d="M931.763,156.953c0,0.644-0.47,1.147-1.218,1.147c-0.713,0-1.183-0.504-1.183-1.147c0-0.661,0.487-1.166,1.2-1.166
				C931.293,155.787,931.745,156.292,931.763,156.953z M929.484,167.79v-8.472h2.156v8.472H929.484z"/>
			<path d="M941.992,163.475c0,3.114-2.192,4.506-4.349,4.506c-2.4,0-4.245-1.652-4.245-4.366c0-2.783,1.827-4.488,4.384-4.488
				C940.305,159.126,941.992,160.901,941.992,163.475z M935.608,163.563c0,1.635,0.8,2.87,2.104,2.87c1.218,0,2.07-1.2,2.07-2.905
				c0-1.322-0.592-2.836-2.053-2.836C936.217,160.692,935.608,162.154,935.608,163.563z"/>
			<path d="M943.752,161.84c0-0.974-0.018-1.792-0.07-2.522h1.879l0.104,1.271h0.052c0.365-0.661,1.288-1.462,2.696-1.462
				c1.479,0,3.01,0.957,3.01,3.636v5.027h-2.14v-4.783c0-1.218-0.452-2.14-1.618-2.14c-0.852,0-1.443,0.608-1.67,1.252
				c-0.069,0.191-0.087,0.452-0.087,0.696v4.975h-2.156V161.84z"/>
			<path d="M953.6,165.824c0.486,0.296,1.409,0.609,2.174,0.609c0.939,0,1.357-0.383,1.357-0.939c0-0.574-0.349-0.87-1.392-1.235
				c-1.653-0.574-2.349-1.479-2.331-2.47c0-1.496,1.234-2.662,3.2-2.662c0.939,0,1.757,0.244,2.244,0.505l-0.417,1.514
				c-0.365-0.209-1.044-0.487-1.792-0.487c-0.766,0-1.183,0.365-1.183,0.887c0,0.54,0.399,0.801,1.479,1.184
				c1.53,0.557,2.244,1.339,2.261,2.592c0,1.53-1.2,2.644-3.444,2.644c-1.025,0-1.947-0.243-2.574-0.592L953.6,165.824z"/>
			<path d="M971.312,153.155h3.301v9.25c0,4.169-1.998,5.624-5.211,5.624c-0.76,0-1.759-0.131-2.41-0.348l0.369-2.671
				c0.456,0.152,1.042,0.261,1.693,0.261c1.39,0,2.258-0.63,2.258-2.91V153.155z"/>
			<path d="M987.269,164.38c0,1.39,0.044,2.519,0.087,3.409h-2.866l-0.151-1.498h-0.065c-0.412,0.651-1.411,1.737-3.322,1.737
				c-2.149,0-3.734-1.347-3.734-4.625v-6.232h3.322v5.711c0,1.542,0.499,2.476,1.649,2.476c0.912,0,1.434-0.63,1.65-1.151
				c0.087-0.195,0.108-0.456,0.108-0.716v-6.319h3.322V164.38z"/>
			<path d="M989.913,160.559c0-1.324-0.043-2.454-0.087-3.388h2.866l0.152,1.455h0.065c0.434-0.673,1.52-1.693,3.278-1.693
				c2.171,0,3.8,1.433,3.8,4.56v6.297h-3.301v-5.885c0-1.367-0.478-2.301-1.672-2.301c-0.911,0-1.454,0.629-1.672,1.237
				c-0.087,0.195-0.13,0.521-0.13,0.825v6.123h-3.301V160.559z"/>
			<path d="M1005.174,163.534c0.108,1.368,1.454,2.02,2.996,2.02c1.129,0,2.041-0.152,2.932-0.435l0.434,2.236
				c-1.085,0.435-2.41,0.651-3.843,0.651c-3.604,0-5.667-2.084-5.667-5.406c0-2.692,1.672-5.667,5.363-5.667
				c3.431,0,4.733,2.671,4.733,5.298c0,0.564-0.065,1.063-0.108,1.303H1005.174z M1009.061,161.276c0-0.804-0.348-2.15-1.867-2.15
				c-1.39,0-1.955,1.26-2.042,2.15H1009.061z"/>
			<path d="M1018.065,167.79v-1.998l1.824-1.649c3.083-2.758,4.581-4.343,4.624-5.993c0-1.15-0.694-2.062-2.323-2.062
				c-1.216,0-2.279,0.607-3.018,1.172l-0.934-2.366c1.063-0.804,2.714-1.455,4.625-1.455c3.191,0,4.95,1.867,4.95,4.43
				c0,2.366-1.715,4.256-3.756,6.08l-1.304,1.085v0.044h5.32v2.714H1018.065z"/>
			<path d="M1040.533,160.667c0,4.364-1.759,7.361-5.363,7.361c-3.647,0-5.254-3.279-5.275-7.274c0-4.082,1.736-7.317,5.385-7.317
				C1039.057,153.437,1040.533,156.802,1040.533,160.667z M1033.216,160.754c-0.021,3.235,0.761,4.777,2.041,4.777
				c1.281,0,1.977-1.607,1.977-4.82c0-3.127-0.674-4.777-1.998-4.777C1034.02,155.934,1033.194,157.476,1033.216,160.754z"/>
		</g>
	</g>
</g>
<g id="Layer_2_1_">
</g>
</svg>
