<?xml version="1.0" encoding="utf-8"?>
<!-- Generator: Adobe Illustrator 16.0.0, SVG Export Plug-In . SVG Version: 6.00 Build 0)  -->
<!DOCTYPE svg PUBLIC "-//W3C//DTD SVG 1.1//EN" "http://www.w3.org/Graphics/SVG/1.1/DTD/svg11.dtd">
<svg version="1.1" id="Layer_1" xmlns="http://www.w3.org/2000/svg" xmlns:xlink="http://www.w3.org/1999/xlink" x="0px" y="0px"
	 width="1042.301px" height="171.793px" viewBox="0 0 1042.301 171.793" enable-background="new 0 0 1042.301 171.793"
	 xml:space="preserve">
<g id="Layer_1_2_">
	<g id="Layer_2">
	</g>
	<g id="Layer_1_1_">
		<g>
			<path fill="#FFFFFF" d="M117.93,59.69v55.387h-11.239V92.109H86.083v22.97H74.842V59.69h11.241v22.643h20.607V59.69H117.93z"/>
			<path fill="#FFFFFF" d="M126.319,102.695c0-4.233,1.126-7.288,3.379-9.159c2.253-1.875,5.876-2.974,10.874-3.302l8.715-0.649
				v-2.524c0-1.63-0.366-2.771-1.101-3.421c-0.733-0.651-1.968-0.979-3.706-0.979c-1.792,0-4.264,0.069-7.412,0.206
				c-3.149,0.136-5.783,0.285-7.901,0.448l-0.326-7.574c5.866-1.577,11.403-2.363,16.616-2.363c5.212,0,8.974,1.086,11.281,3.257
				c2.308,2.173,3.461,5.648,3.461,10.427V104c0.109,1.357,0.34,2.277,0.692,2.771c0.352,0.484,1.019,0.84,1.996,1.058l-0.325,8.228
				c-2.826,0-5.064-0.191-6.72-0.57c-1.656-0.383-3.299-1.144-4.929-2.279c-3.965,1.896-7.956,2.852-11.974,2.852
				C130.527,116.055,126.319,111.604,126.319,102.695z M148.066,106.2l1.222-0.324v-8.717l-7.412,0.651
				c-3.042,0.271-4.561,1.9-4.561,4.885c0,2.988,1.33,4.479,3.989,4.479C143.367,107.176,145.622,106.85,148.066,106.2z"/>
			<path fill="#FFFFFF" d="M172.621,110.965c-2.635-3.396-3.951-8.811-3.951-16.25c0-7.547,1.357-12.991,4.074-16.33
				c2.715-3.34,7.139-5.01,13.277-5.01c1.573,0,3.311,0.136,5.212,0.406c1.9,0.271,4.452,0.734,7.656,1.386l-0.325,8.634
				c-4.617-0.434-7.821-0.651-9.612-0.651c-2.498,0-4.399,0.339-5.701,1.018c-1.303,0.68-2.212,1.833-2.729,3.46
				c-0.518,1.631-0.774,3.965-0.774,7.006c0,3.095,0.257,5.459,0.774,7.084c0.516,1.632,1.437,2.8,2.768,3.505
				c1.332,0.707,3.271,1.061,5.825,1.061l9.449-0.65l0.325,8.715c-5.756,1.141-10.264,1.711-13.521,1.711
				C179.503,116.055,175.253,114.357,172.621,110.965z"/>
			<path fill="#FFFFFF" d="M206.953,58.062h10.916v32.417l4.153-0.731l8.063-15.395h12.216l-10.588,19.303l11.159,21.42h-12.298
				l-8.227-15.882l-4.48,0.734v15.146h-10.916L206.953,58.062L206.953,58.062z"/>
			<path fill="#FFFFFF" d="M246.212,102.695c0-4.233,1.126-7.288,3.379-9.159c2.253-1.875,5.877-2.974,10.875-3.302l8.715-0.649
				v-2.524c0-1.63-0.364-2.771-1.099-3.421c-0.734-0.651-1.97-0.979-3.706-0.979c-1.792,0-4.261,0.069-7.413,0.206
				c-3.147,0.136-5.782,0.285-7.898,0.448l-0.327-7.574c5.863-1.577,11.403-2.363,16.616-2.363s8.975,1.086,11.28,3.257
				c2.309,2.173,3.462,5.648,3.462,10.427V104c0.109,1.357,0.338,2.277,0.69,2.771c0.354,0.484,1.02,0.84,1.999,1.058l-0.327,8.228
				c-2.823,0-5.063-0.191-6.719-0.57c-1.658-0.383-3.3-1.144-4.926-2.279c-3.968,1.896-7.959,2.852-11.978,2.852
				C250.419,116.055,246.212,111.604,246.212,102.695z M267.959,106.2l1.222-0.324v-8.717l-7.41,0.651
				c-3.042,0.271-4.562,1.9-4.562,4.885c0,2.988,1.329,4.479,3.99,4.479C263.262,107.176,265.517,106.85,267.959,106.2z"/>
			<path fill="#FFFFFF" d="M297.036,114.588c-1.737-0.979-2.985-2.578-3.745-4.805c-0.764-2.227-1.142-5.297-1.142-9.203V83.639
				h-4.806v-9.286h4.806V63.031h10.912v11.321h10.02v9.286h-10.018v16.696c0,2.117,0.188,3.65,0.57,4.604
				c0.378,0.951,1.329,1.396,2.849,1.345l6.191-0.164l0.487,8.717c-2.172,0.487-3.868,0.812-5.089,0.976
				c-1.224,0.164-2.459,0.246-3.708,0.246C301.217,116.055,298.773,115.568,297.036,114.588z"/>
			<path fill="#FFFFFF" d="M320.168,58.062h10.914v18.246c2.063-1.032,3.897-1.776,5.498-2.239c1.603-0.462,3.324-0.692,5.174-0.692
				c4.993,0,8.538,1.588,10.628,4.764c2.088,3.177,3.134,8.131,3.134,14.865v22.068h-10.914V93.25c0-3.691-0.436-6.301-1.303-7.819
				c-0.867-1.521-2.552-2.28-5.048-2.28c-1.957,0-3.992,0.326-6.11,0.977l-1.059,0.327v30.625h-10.914V58.062L320.168,58.062z"/>
			<path fill="#FFFFFF" d="M367.858,110.477c-3.179-3.721-4.768-9-4.768-15.842c0-6.785,1.589-12.029,4.768-15.721
				c3.178-3.691,7.831-5.539,13.969-5.539c6.134,0,10.792,1.847,13.967,5.539c3.18,3.693,4.768,8.936,4.768,15.721
				c0,6.842-1.588,12.125-4.768,15.842c-3.175,3.719-7.833,5.58-13.967,5.58C375.689,116.055,371.035,114.195,367.858,110.477z
				 M387.609,103.92c1.248-1.9,1.872-4.998,1.872-9.285c0-4.291-0.624-7.359-1.872-9.205c-1.251-1.845-3.177-2.771-5.782-2.771
				c-2.606,0-4.535,0.925-5.783,2.771c-1.249,1.845-1.875,4.916-1.875,9.205c0,4.287,0.626,7.385,1.875,9.285
				c1.248,1.9,3.176,2.852,5.783,2.852C384.432,106.771,386.358,105.822,387.609,103.92z"/>
			<path fill="#FFFFFF" d="M408.542,74.353h10.831v2.28c2.063-1.193,3.896-2.036,5.498-2.524c1.601-0.489,3.324-0.733,5.171-0.733
				c4.999,0,8.555,1.602,10.671,4.805c2.118,3.205,3.178,8.145,3.178,14.825v22.07h-10.914V93.331c0-3.746-0.448-6.381-1.345-7.9
				c-0.896-1.52-2.593-2.279-5.089-2.279c-1.79,0-3.829,0.38-6.109,1.141l-0.979,0.325v30.463h-10.912L408.542,74.353
				L408.542,74.353z"/>
		</g>
		<g>
			<path fill="#FFFFFF" d="M262.128,147.652c-1.157-0.801-1.957-1.969-2.393-3.502c-0.439-1.534-0.656-3.562-0.656-6.082
				c0-2.602,0.223-4.672,0.671-6.217c0.446-1.543,1.235-2.703,2.364-3.477c1.125-0.771,2.725-1.156,4.798-1.156
				c1.687,0,3.637,0.244,5.853,0.73l-0.092,2.406c-1.932-0.342-3.657-0.517-5.182-0.517c-1.523,0-2.671,0.269-3.443,0.808
				c-0.771,0.541-1.291,1.405-1.554,2.604c-0.267,1.201-0.388,2.938-0.366,5.213c0,1.971,0.125,3.49,0.38,4.559
				c0.254,1.064,0.772,1.867,1.555,2.402c0.784,0.541,1.978,0.811,3.582,0.811c1.339,0,3.018-0.17,5.028-0.518l0.092,2.469
				c-2.235,0.445-4.114,0.67-5.641,0.67C264.952,148.855,263.284,148.458,262.128,147.652z"/>
			<path fill="#FFFFFF" d="M276.663,146.954c-1.037-1.271-1.554-3.267-1.554-5.992c0-2.778,0.529-4.812,1.585-6.092
				c1.055-1.281,2.753-1.92,5.089-1.92c2.354,0,4.058,0.645,5.104,1.936c1.049,1.287,1.569,3.316,1.569,6.076
				c0,2.705-0.517,4.695-1.555,5.976c-1.037,1.278-2.744,1.92-5.12,1.92S277.7,148.223,276.663,146.954z M284.055,145.87
				c0.537-0.345,0.919-0.902,1.142-1.677c0.225-0.771,0.336-1.85,0.336-3.229c0-1.44-0.116-2.56-0.353-3.353
				c-0.231-0.789-0.618-1.354-1.156-1.69c-0.54-0.334-1.284-0.502-2.24-0.502c-0.954,0-1.706,0.168-2.254,0.502
				c-0.55,0.336-0.94,0.904-1.175,1.707c-0.234,0.806-0.351,1.916-0.351,3.336c0,1.363,0.113,2.437,0.334,3.218
				c0.226,0.78,0.609,1.346,1.158,1.69c0.55,0.344,1.311,0.519,2.286,0.519C282.757,146.391,283.516,146.215,284.055,145.87z"/>
			<path fill="#FFFFFF" d="M292.114,126.825h2.834v21.694h-2.834V126.825z"/>
			<path fill="#FFFFFF" d="M300.006,146.954c-1.036-1.271-1.556-3.267-1.556-5.992c0-2.778,0.528-4.812,1.584-6.092
				c1.057-1.281,2.754-1.92,5.091-1.92c2.355,0,4.057,0.645,5.105,1.936c1.046,1.287,1.565,3.316,1.565,6.076
				c0,2.705-0.517,4.695-1.553,5.976c-1.036,1.278-2.745,1.92-5.119,1.92C302.749,148.855,301.04,148.223,300.006,146.954z
				 M307.395,145.87c0.537-0.345,0.919-0.902,1.143-1.677c0.226-0.771,0.337-1.85,0.337-3.229c0-1.44-0.118-2.56-0.352-3.353
				c-0.234-0.789-0.619-1.354-1.158-1.69c-0.538-0.334-1.285-0.502-2.239-0.502c-0.957,0-1.707,0.168-2.254,0.502
				c-0.551,0.336-0.94,0.904-1.174,1.707c-0.234,0.806-0.352,1.916-0.352,3.336c0,1.363,0.111,2.437,0.333,3.218
				c0.225,0.78,0.609,1.346,1.159,1.69c0.548,0.344,1.312,0.519,2.286,0.519C306.098,146.389,306.856,146.215,307.395,145.87z"/>
			<path fill="#FFFFFF" d="M315.27,133.286h2.806v1.004c0.772-0.445,1.502-0.781,2.191-1.004c0.694-0.226,1.401-0.336,2.136-0.336
				c0.792,0,1.523,0.127,2.192,0.383c0.671,0.254,1.197,0.635,1.582,1.14c0.815-0.445,1.705-0.812,2.671-1.097
				c0.964-0.283,1.943-0.426,2.939-0.426c1.26,0,2.246,0.254,2.956,0.762c0.709,0.511,1.219,1.299,1.524,2.377
				c0.306,1.076,0.456,2.519,0.456,4.324v8.106h-2.835v-8.045c0-1.281-0.075-2.271-0.229-2.975c-0.151-0.697-0.426-1.207-0.82-1.521
				s-0.981-0.474-1.754-0.474c-0.569,0-1.157,0.065-1.766,0.197c-0.611,0.133-1.15,0.301-1.617,0.504l-0.547,0.242
				c0.221,0.873,0.331,2.256,0.331,4.145v7.923h-2.861v-7.861c0-1.359-0.074-2.398-0.214-3.121
				c-0.146-0.723-0.411-1.238-0.807-1.555c-0.396-0.315-0.98-0.474-1.753-0.474c-0.568,0-1.153,0.07-1.751,0.213
				c-0.604,0.142-1.104,0.304-1.51,0.486l-0.489,0.244v12.063h-2.835v-15.229h0.002V133.286z"/>
			<path fill="#FFFFFF" d="M341.721,148.583l-0.943-0.092v-21.666h2.835v7.131c0.771-0.349,1.486-0.599,2.146-0.765
				c0.661-0.162,1.378-0.241,2.153-0.241c1.338,0,2.411,0.262,3.213,0.791c0.801,0.528,1.391,1.366,1.768,2.516
				c0.375,1.147,0.562,2.679,0.562,4.586c0,2.052-0.229,3.654-0.685,4.8c-0.457,1.147-1.209,1.967-2.256,2.455
				c-1.046,0.485-2.505,0.729-4.373,0.729C344.76,148.827,343.287,148.745,341.721,148.583z M348.897,145.762
				c0.621-0.354,1.054-0.924,1.297-1.703c0.243-0.785,0.364-1.865,0.364-3.246c0-1.34-0.106-2.393-0.319-3.153
				c-0.212-0.765-0.559-1.31-1.035-1.646c-0.479-0.337-1.133-0.505-1.968-0.505c-1.016,0-2.225,0.244-3.623,0.734v9.901
				c1.317,0.101,2.192,0.15,2.619,0.15C347.39,146.297,348.28,146.12,348.897,145.762z"/>
			<path fill="#FFFFFF" d="M357.841,146.954c-1.036-1.271-1.553-3.267-1.553-5.992c0-2.778,0.529-4.812,1.584-6.092
				c1.058-1.281,2.754-1.92,5.09-1.92c2.357,0,4.06,0.645,5.104,1.936c1.045,1.287,1.568,3.316,1.568,6.076
				c0,2.705-0.519,4.695-1.552,5.976c-1.039,1.278-2.744,1.92-5.122,1.92C360.586,148.855,358.878,148.223,357.841,146.954z
				 M365.233,145.87c0.536-0.345,0.918-0.902,1.144-1.677c0.222-0.771,0.336-1.85,0.336-3.229c0-1.44-0.118-2.56-0.353-3.353
				c-0.232-0.789-0.621-1.354-1.159-1.69c-0.538-0.334-1.282-0.502-2.238-0.502c-0.954,0-1.71,0.168-2.255,0.502
				c-0.549,0.336-0.938,0.904-1.174,1.707c-0.233,0.806-0.353,1.916-0.353,3.336c0,1.363,0.113,2.437,0.339,3.218
				c0.221,0.78,0.606,1.346,1.156,1.69c0.548,0.344,1.309,0.519,2.283,0.519C363.934,146.389,364.694,146.215,365.233,145.87z"/>
			<path fill="#FFFFFF" d="M379.691,144.958l4.298-4.358c1.112-1.158,1.948-2.062,2.496-2.711c0.554-0.65,0.951-1.25,1.206-1.8
				c0.253-0.549,0.381-1.141,0.381-1.769c0-0.913-0.238-1.569-0.717-1.965c-0.478-0.396-1.193-0.598-2.147-0.598
				c-1.342,0-2.824,0.121-4.45,0.365l-0.729,0.092l-0.215-3.262c1.993-0.605,4.055-0.912,6.187-0.912
				c4.269,0,6.399,1.922,6.399,5.76c0,1.018-0.135,1.916-0.413,2.697c-0.271,0.779-0.729,1.574-1.37,2.375
				c-0.637,0.807-1.548,1.742-2.725,2.818l-3.508,3.172h8.354v3.654h-13.041v-3.562h-0.004L379.691,144.958L379.691,144.958z"/>
			<path fill="#FFFFFF" d="M397.426,146.342c-1.281-1.654-1.921-4.303-1.921-7.938c0-3.639,0.64-6.282,1.921-7.938
				c1.278-1.655,3.24-2.483,5.881-2.483c2.644,0,4.604,0.828,5.881,2.483c1.278,1.654,1.921,4.3,1.921,7.938
				c0,3.636-0.643,6.281-1.921,7.938c-1.276,1.656-3.237,2.484-5.881,2.484C400.668,148.827,398.706,147.999,397.426,146.342z
				 M405.319,144.514c0.507-0.436,0.878-1.146,1.111-2.135c0.235-0.984,0.354-2.311,0.354-3.977s-0.116-2.99-0.354-3.978
				c-0.234-0.983-0.604-1.696-1.111-2.133c-0.509-0.437-1.178-0.655-2.012-0.655c-0.833,0-1.504,0.221-2.011,0.655
				c-0.508,0.437-0.882,1.147-1.112,2.133c-0.234,0.986-0.352,2.312-0.352,3.978s0.115,2.99,0.352,3.977
				c0.23,0.988,0.604,1.699,1.112,2.135c0.507,0.438,1.178,0.654,2.011,0.654C404.141,145.168,404.81,144.952,405.319,144.514z"/>
			<path fill="#FFFFFF" d="M420.372,133.161l-4.355,2.807l-1.921-3.141l6.646-4.418h3.84v20.11h-4.205v-15.358H420.372z"/>
			<path fill="#FFFFFF" d="M432.803,147.788l6.858-14.656v-0.978h-8.653v-3.745h12.857v4.752l-7.159,15.729L432.803,147.788z"/>
		</g>
		<g>
			<path fill="#FFFFFF" d="M74.875,28.699h8.334c1.155,0,2.183,0.13,3.112,0.322c0.961,0.256,1.729,0.641,2.402,1.025
				c0.641,0.449,1.155,0.963,1.508,1.603c0.385,0.578,0.577,1.283,0.577,1.988c0,0.962-0.225,1.731-0.642,2.374
				c-0.45,0.705-1.217,1.346-2.34,1.987c1.154,0.385,2.083,0.962,2.821,1.796c0.737,0.832,1.091,1.793,1.091,2.884
				c0,0.802-0.16,1.508-0.512,2.148c-0.323,0.642-0.836,1.285-1.476,1.731c-0.644,0.481-1.413,0.867-2.308,1.124
				c-0.899,0.321-1.928,0.45-3.016,0.45h-9.587V28.668L74.875,28.699z M79.687,37.1h3.141c0.961,0,1.796-0.321,2.341-0.896
				c0.544-0.578,0.831-1.346,0.831-2.245c0-1.025-0.318-1.859-1.087-2.5c-0.738-0.644-1.923-0.963-3.463-0.963h-1.796v6.573
				L79.687,37.1z M79.687,46.143h2.562c1.604,0,2.725-0.32,3.461-0.961c0.707-0.643,1.06-1.414,1.06-2.375
				c0-0.544-0.064-1.026-0.225-1.506c-0.159-0.481-0.414-0.866-0.768-1.219c-0.386-0.32-0.834-0.64-1.443-0.801
				c-0.58-0.192-1.283-0.323-2.151-0.323h-2.466v7.185H79.687z M106.072,48.161h-4.425V46.88l-0.703,0.641l-0.804,0.449
				l-0.961,0.321c-0.385,0.063-0.802,0.096-1.281,0.096c-0.705,0-1.282-0.096-1.86-0.321c-0.545-0.16-0.961-0.417-1.377-0.77
				c-0.384-0.32-0.643-0.738-0.867-1.186c-0.19-0.481-0.32-0.963-0.32-1.507c0-0.866,0.258-1.604,0.705-2.246
				c0.452-0.577,1.06-1.088,1.767-1.505c0.736-0.45,1.603-0.834,2.468-1.156c0.899-0.319,1.796-0.64,2.693-0.897l0.513-0.128V37.26
				c0-0.96-0.193-1.604-0.543-1.988c-0.324-0.383-0.835-0.575-1.444-0.575c-0.706,0-1.186,0.192-1.442,0.512
				c-0.257,0.321-0.385,0.738-0.385,1.218c0,0.321,0,0.578-0.096,0.833c-0.063,0.256-0.161,0.481-0.323,0.642
				c-0.159,0.224-0.384,0.385-0.639,0.481c-0.257,0.127-0.577,0.193-0.963,0.193c-0.64,0-1.151-0.161-1.538-0.514
				c-0.385-0.321-0.576-0.802-0.576-1.347c0-0.481,0.159-0.963,0.512-1.41c0.32-0.417,0.802-0.801,1.38-1.122
				c0.643-0.323,1.281-0.577,2.052-0.737c0.77-0.193,1.603-0.257,2.437-0.257c2.114,0,3.622,0.32,4.585,1.058
				c0.961,0.738,1.41,1.701,1.41,2.886v11.03h0.027V48.161z M101.647,40.465l-1.282,0.643c-0.45,0.256-0.866,0.512-1.22,0.801
				c-0.319,0.319-0.64,0.577-0.865,0.898c-0.224,0.32-0.321,0.641-0.321,1.025c0,0.546,0.129,1.059,0.417,1.442
				c0.257,0.417,0.579,0.642,0.963,0.642c0.32,0,0.705-0.128,1.088-0.321l1.22-0.864V40.53L101.647,40.465L101.647,40.465z
				 M113.829,48.161h-4.392V27.546l4.392-1.187V48.161z M121.236,48.161h-4.394V27.546l4.394-1.187V48.161z M130.951,48.481
				c-1.058,0-2.021-0.223-2.95-0.64c-0.897-0.321-1.699-0.865-2.374-1.538c-0.704-0.642-1.215-1.411-1.603-2.246
				c-0.416-0.898-0.643-1.827-0.643-2.789c0-1.155,0.227-2.244,0.579-3.207c0.386-0.962,0.897-1.859,1.539-2.564
				c0.642-0.738,1.475-1.283,2.405-1.7c0.962-0.417,1.987-0.64,3.143-0.64c1.024,0,1.923,0.19,2.819,0.512
				c0.834,0.322,1.604,0.771,2.18,1.283c0.579,0.512,1.061,1.283,1.411,2.02c0.319,0.801,0.483,1.603,0.483,2.5h-10.133
				c0,0.802,0.128,1.604,0.321,2.309c0.226,0.738,0.511,1.379,0.832,1.923c0.322,0.579,0.771,1.026,1.22,1.379
				c0.513,0.321,1.025,0.48,1.603,0.48c0.479,0,0.961-0.063,1.443-0.224c0.479-0.159,0.896-0.385,1.282-0.641
				c0.381-0.321,0.737-0.643,1.058-1.06c0.319-0.384,0.48-0.801,0.642-1.282l2.245,0.385c-0.193,0.77-0.546,1.507-1.057,2.245
				c-0.514,0.642-1.091,1.282-1.767,1.794c-0.64,0.514-1.44,0.963-2.243,1.283c-0.799,0.256-1.603,0.416-2.372,0.416h-0.063
				L130.951,48.481L130.951,48.481z M132.874,37.901c-0.128-0.866-0.416-1.603-0.896-2.083c-0.481-0.547-1.09-0.803-1.795-0.803
				c-0.546,0-1.058,0.256-1.541,0.77c-0.448,0.546-0.735,1.283-0.833,2.148h5.032L132.874,37.901z M144.865,48.161h-4.424V33.412
				h4.424v1.09c0.481-0.512,1.026-0.897,1.604-1.218c0.641-0.321,1.283-0.449,1.924-0.449c0.32,0,0.739,0,1.09,0.161
				c0.319,0.063,0.642,0.192,0.96,0.384c0.227,0.194,0.418,0.385,0.578,0.642c0.129,0.226,0.225,0.48,0.225,0.77
				c0,0.512-0.225,0.961-0.64,1.283c-0.322,0.32-0.769,0.48-1.283,0.48c-0.385,0-0.642,0-0.897-0.16l-0.643-0.321
				c-0.158-0.161-0.318-0.321-0.545-0.386c-0.192-0.127-0.45-0.191-0.738-0.191s-0.542,0.224-0.865,0.641
				c-0.319,0.386-0.544,0.865-0.803,1.378v10.581L144.865,48.161z M152.368,28.829c0-0.643,0.256-1.122,0.706-1.54
				c0.479-0.481,1.025-0.641,1.698-0.641c0.643,0,1.188,0.16,1.668,0.641c0.448,0.386,0.641,0.897,0.641,1.507
				c0,0.576-0.191,1.089-0.641,1.507c-0.48,0.416-1.059,0.641-1.699,0.641c-0.705,0-1.281-0.225-1.731-0.641
				c-0.447-0.416-0.705-0.961-0.705-1.507L152.368,28.829z M152.592,34.279l4.424-1.283v15.165h-4.453V34.215L152.592,34.279z
				 M169.039,38.094c0-0.77-0.16-1.348-0.449-1.731c-0.32-0.384-0.643-0.577-1.024-0.577c-0.386,0-0.866,0.128-1.442,0.417
				c-0.577,0.32-1.125,0.707-1.603,1.185v10.774h-4.49v-14.75h4.49v1.155c0.64-0.514,1.346-0.866,2.146-1.122
				c0.771-0.225,1.541-0.322,2.342-0.322c0.577,0,1.153,0.097,1.698,0.322c0.547,0.255,1.028,0.576,1.411,0.962
				c0.419,0.417,0.738,0.864,0.963,1.411c0.255,0.577,0.384,1.153,0.384,1.762v10.581h-4.426V38.062V38.094z M187.89,48.161h-4.483
				V46.88l-0.708,0.641c-0.225,0.16-0.48,0.321-0.77,0.449l-0.963,0.321c-0.32,0.063-0.801,0.096-1.279,0.096
				c-0.643,0-1.283-0.096-1.86-0.321c-0.543-0.16-0.963-0.417-1.379-0.77c-0.32-0.32-0.64-0.738-0.866-1.186
				c-0.191-0.481-0.321-0.963-0.321-1.507c0-0.866,0.257-1.604,0.707-2.246c0.48-0.577,1.087-1.088,1.828-1.505
				c0.737-0.45,1.538-0.834,2.437-1.156l2.692-0.897l0.514-0.128V37.26c0-0.96-0.192-1.604-0.547-1.988
				c-0.322-0.383-0.833-0.575-1.442-0.575c-0.642,0-1.152,0.192-1.411,0.512c-0.254,0.321-0.382,0.738-0.382,1.218
				c0,0.321,0,0.578-0.099,0.833c0,0.256-0.129,0.481-0.319,0.642c-0.129,0.224-0.32,0.385-0.579,0.481
				c-0.319,0.127-0.64,0.193-1.024,0.193c-0.642,0-1.121-0.161-1.507-0.514c-0.383-0.321-0.577-0.802-0.577-1.347
				c0-0.481,0.161-0.963,0.513-1.41c0.385-0.417,0.832-0.801,1.411-1.122c0.638-0.323,1.282-0.577,2.053-0.737
				c0.77-0.193,1.603-0.257,2.435-0.257c2.117,0,3.657,0.32,4.586,1.058c0.96,0.738,1.445,1.701,1.445,2.886v11.03h-0.103V48.161z
				 M183.406,40.531l-1.285,0.643c-0.417,0.254-0.802,0.511-1.156,0.8c-0.318,0.321-0.639,0.578-0.865,0.899
				c-0.255,0.321-0.384,0.641-0.384,1.024c0,0.546,0.129,1.059,0.418,1.443c0.32,0.417,0.64,0.642,0.959,0.642
				c0.386,0,0.739-0.126,1.123-0.319l1.217-0.866v-4.265L183.406,40.531L183.406,40.531L183.406,40.531z"/>
		</g>
		<circle fill="#FFFFFF" cx="220.572" cy="150.094" r="5.358"/>
		
			<line fill="none" stroke="#FFFFFF" stroke-width="2.6457" stroke-miterlimit="10" x1="220.572" y1="150.094" x2="242.178" y2="121.118"/>
		<circle fill="#FFFFFF" cx="297.568" cy="39.233" r="5.357"/>
		
			<line fill="none" stroke="#FFFFFF" stroke-width="2.6457" stroke-miterlimit="10" x1="275.656" y1="68.208" x2="297.264" y2="39.233"/>
		<circle fill="#FFFFFF" cx="373.356" cy="40.635" r="5.358"/>
		
			<line fill="none" stroke="#FFFFFF" stroke-width="2.6457" stroke-miterlimit="10" x1="297.569" y1="39.233" x2="373.355" y2="40.635"/>
		<circle fill="#FFFFFF" cx="407.452" cy="5.357" r="5.359"/>
		<circle fill="#FFFFFF" cx="146.087" cy="137.471" r="5.357"/>
		<circle fill="#FFFFFF" cx="108.311" cy="166.435" r="5.358"/>
		
			<line fill="none" stroke="#FFFFFF" stroke-width="2.6457" stroke-miterlimit="10" x1="107.886" y1="167.208" x2="145.312" y2="137.491"/>
		
			<line fill="none" stroke="#FFFFFF" stroke-width="2.9017" stroke-miterlimit="10" x1="145.967" y1="137.473" x2="221.592" y2="150.426"/>
		
			<line fill="none" stroke="#FFFFFF" stroke-width="2.6457" stroke-miterlimit="10" x1="373.412" y1="41.047" x2="405.372" y2="6.602"/>
		<g>
			<path fill="none" stroke="#FFFFFF" stroke-width="2" stroke-miterlimit="10" d="M532.276,58.211h12.565v35.215
				c0,15.867-7.605,21.405-19.84,21.405c-2.894,0-6.695-0.495-9.175-1.321l1.404-10.168c1.734,0.58,3.967,0.993,6.447,0.993
				c5.29,0,8.597-2.397,8.597-11.075L532.276,58.211L532.276,58.211z"/>
			<path fill="none" stroke="#FFFFFF" stroke-width="2" stroke-miterlimit="10" d="M593.03,100.947
				c0,5.288,0.165,9.587,0.332,12.977h-10.91l-0.581-5.705h-0.247c-1.567,2.479-5.373,6.613-12.646,6.613
				c-8.184,0-14.217-5.125-14.217-17.604V73.503h12.646v21.738c0,5.868,1.902,9.423,6.284,9.423c3.472,0,5.455-2.396,6.281-4.38
				c0.33-0.744,0.412-1.735,0.412-2.728V73.503h12.646V100.947L593.03,100.947z"/>
			<path fill="none" stroke="#FFFFFF" stroke-width="2" stroke-miterlimit="10" d="M603.115,55.235h12.563v58.687h-12.563V55.235z"
				/>
			<path fill="none" stroke="#FFFFFF" stroke-width="2" stroke-miterlimit="10" d="M635.27,73.503l6.034,19.839
				c0.66,2.397,1.484,5.373,1.981,7.521h0.246c0.58-2.148,1.24-5.209,1.82-7.521l4.959-19.839h13.475l-9.424,26.615
				c-5.787,16.037-9.673,22.481-14.218,26.535c-4.381,3.801-9.012,5.124-12.149,5.536l-2.646-10.663
				c1.569-0.247,3.554-0.99,5.455-2.148c1.901-0.991,3.967-2.976,5.209-5.042c0.414-0.578,0.659-1.238,0.659-1.816
				c0-0.416-0.081-1.076-0.579-2.069l-14.796-36.946h13.973V73.503z"/>
			<path fill="none" stroke="#FFFFFF" stroke-width="2" stroke-miterlimit="10" d="M700.239,71.354h-0.166l-10.248,4.876
				l-2.067-9.423l14.219-6.613h10.414v53.728h-12.15L700.239,71.354L700.239,71.354z"/>
		</g>
	</g>
</g>
<g id="Layer_2_1_">
</g>
<g>
	<path d="M772.533,77.929h6.519c3.95,0,5.926,1.844,5.926,5.53c0,2.189-0.823,3.803-2.47,4.84l2.396,6.419h-3.728l-1.951-5.629
		h-3.283v5.629h-3.408V77.929z M779.102,86.175c0.773,0,1.365-0.242,1.777-0.729c0.411-0.485,0.617-1.14,0.617-1.963
		c0-0.822-0.215-1.469-0.643-1.938c-0.428-0.47-1.028-0.704-1.802-0.704h-3.11v5.333H779.102z"/>
	<path d="M788.014,93.558c-0.855-0.972-1.283-2.543-1.283-4.716c0-2.271,0.448-3.967,1.346-5.086c0.896-1.119,2.292-1.68,4.185-1.68
		c1.745,0,3.065,0.466,3.963,1.396s1.346,2.325,1.346,4.185l-0.247,2.296h-7.259c0.032,0.577,0.136,1.017,0.309,1.321
		s0.452,0.519,0.839,0.642c0.387,0.124,0.927,0.186,1.617,0.186c0.544,0,1.193-0.017,1.951-0.05
		c0.757-0.032,1.309-0.065,1.654-0.099l0.691-0.073l0.049,2.443c-1.859,0.461-3.521,0.691-4.986,0.691
		C790.262,95.014,788.87,94.528,788.014,93.558z M794.311,87.435c0-0.988-0.152-1.675-0.457-2.062s-0.844-0.581-1.617-0.581
		c-0.79,0-1.35,0.202-1.68,0.605c-0.328,0.403-0.502,1.082-0.518,2.037H794.311z"/>
	<path d="M800.791,99.619c-0.979-0.519-1.469-1.362-1.469-2.531c0-0.609,0.145-1.148,0.432-1.617
		c0.288-0.469,0.736-0.95,1.346-1.444c-0.296-0.197-0.522-0.452-0.679-0.766c-0.157-0.312-0.234-0.642-0.234-0.987
		c0-0.247,0.062-0.502,0.185-0.766c0.124-0.263,0.383-0.707,0.778-1.333c-1.12-0.823-1.679-2.024-1.679-3.604
		c0-1.498,0.457-2.613,1.37-3.346s2.185-1.099,3.814-1.099c0.691,0,1.522,0.107,2.493,0.321l3.976-0.124v2.642l-1.852-0.147
		c0.214,0.346,0.358,0.642,0.432,0.889c0.074,0.247,0.111,0.584,0.111,1.012c0,1.481-0.42,2.54-1.259,3.173
		c-0.84,0.634-2.115,0.951-3.827,0.951c-0.494,0-0.873-0.033-1.136-0.099c-0.165,0.395-0.247,0.732-0.247,1.012
		c0,0.346,0.169,0.556,0.507,0.63c0.336,0.074,0.967,0.119,1.889,0.136c1.267,0.033,2.275,0.132,3.023,0.296
		c0.75,0.165,1.33,0.498,1.741,1c0.411,0.503,0.617,1.238,0.617,2.21c0,1.498-0.511,2.601-1.53,3.309
		c-1.021,0.707-2.585,1.062-4.691,1.062C803.141,100.396,801.771,100.138,800.791,99.619z M807.161,97.359
		c0.42-0.214,0.63-0.543,0.63-0.987c0-0.412-0.152-0.671-0.457-0.777c-0.305-0.107-0.658-0.169-1.062-0.186
		s-0.671-0.024-0.802-0.024l-2.223-0.173c-0.444,0.444-0.667,0.889-0.667,1.333c0,0.395,0.21,0.683,0.63,0.864
		c0.42,0.181,1.057,0.271,1.914,0.271C806.063,97.681,806.742,97.573,807.161,97.359z M806.557,86.496
		c0-1.201-0.626-1.803-1.877-1.803c-1.268,0-1.9,0.602-1.9,1.803c0,1.218,0.633,1.827,1.9,1.827
		C805.931,88.323,806.557,87.714,806.557,86.496z"/>
	<path d="M813.123,77.46h3.309v3.333h-3.309V77.46z M813.123,82.373h3.309v12.345h-3.309V82.373z"/>
	<path d="M819.84,94.569l-0.791-0.147l0.1-2.766c1.991,0.264,3.439,0.395,4.346,0.395c0.607,0,1.09-0.065,1.443-0.197
		c0.354-0.131,0.531-0.378,0.531-0.74c0-0.329-0.169-0.568-0.506-0.716c-0.338-0.148-0.901-0.288-1.691-0.42
		c-0.297-0.033-0.502-0.065-0.617-0.099c-0.824-0.148-1.498-0.334-2.025-0.556c-0.526-0.223-0.954-0.576-1.283-1.062
		c-0.33-0.485-0.494-1.165-0.494-2.037c0-1.399,0.428-2.436,1.284-3.111c0.855-0.675,2.032-1.012,3.53-1.012
		c0.889,0,2.197,0.156,3.926,0.469l0.814,0.148l-0.049,2.74c-1.992-0.263-3.465-0.395-4.42-0.395c-0.56,0-1,0.058-1.32,0.173
		c-0.321,0.115-0.482,0.337-0.482,0.666c0,0.346,0.165,0.589,0.494,0.729c0.33,0.14,0.865,0.275,1.605,0.407l0.863,0.148
		c1.317,0.264,2.256,0.654,2.815,1.173s0.839,1.354,0.839,2.506c0,1.416-0.403,2.461-1.209,3.136
		c-0.807,0.675-2.05,1.012-3.729,1.012C822.729,95.014,821.403,94.866,819.84,94.569z"/>
	<path d="M833.122,94.569c-0.526-0.296-0.905-0.781-1.136-1.456s-0.346-1.605-0.346-2.79v-5.136h-1.457v-2.814h1.457V78.94h3.309
		v3.433h3.037v2.814h-3.037v5.062c0,0.642,0.058,1.107,0.173,1.395c0.114,0.288,0.403,0.424,0.864,0.407l1.877-0.049l0.147,2.642
		c-0.659,0.148-1.173,0.247-1.543,0.297c-0.37,0.049-0.745,0.073-1.124,0.073C834.39,95.014,833.649,94.866,833.122,94.569z"/>
	<path d="M840.134,82.373h3.284v1.309c1.415-0.823,2.732-1.358,3.95-1.605v3.333c-1.235,0.247-2.379,0.535-3.433,0.864l-0.493,0.173
		v8.271h-3.309V82.373z"/>
	<path d="M848.504,90.965c0-1.284,0.342-2.21,1.023-2.777c0.684-0.568,1.783-0.901,3.297-1l2.643-0.197v-0.766
		c0-0.494-0.111-0.84-0.334-1.037s-0.598-0.296-1.123-0.296c-0.543,0-1.293,0.021-2.248,0.062c-0.953,0.041-1.752,0.086-2.395,0.136
		l-0.098-2.296c1.777-0.478,3.455-0.717,5.037-0.717c1.58,0,2.719,0.33,3.418,0.988s1.051,1.712,1.051,3.16v5.136
		c0.031,0.411,0.102,0.69,0.209,0.839s0.309,0.256,0.605,0.321l-0.1,2.493c-0.855,0-1.535-0.058-2.037-0.173s-1-0.346-1.492-0.69
		c-1.203,0.575-2.412,0.863-3.631,0.863C849.78,95.014,848.504,93.665,848.504,90.965z M855.096,92.026l0.371-0.099v-2.642
		l-2.248,0.197c-0.922,0.083-1.383,0.576-1.383,1.481s0.404,1.358,1.211,1.358C853.672,92.323,854.356,92.224,855.096,92.026z"/>
	<path d="M863.91,94.569c-0.527-0.296-0.906-0.781-1.137-1.456s-0.346-1.605-0.346-2.79v-5.136h-1.457v-2.814h1.457V78.94h3.309
		v3.433h3.037v2.814h-3.037v5.062c0,0.642,0.059,1.107,0.174,1.395c0.115,0.288,0.402,0.424,0.863,0.407l1.877-0.049l0.148,2.642
		c-0.658,0.148-1.174,0.247-1.543,0.297c-0.371,0.049-0.746,0.073-1.123,0.073C865.178,95.014,864.436,94.866,863.91,94.569z"/>
	<path d="M870.922,77.46h3.309v3.333h-3.309V77.46z M870.922,82.373h3.309v12.345h-3.309V82.373z"/>
	<path d="M877.971,93.323c-0.963-1.128-1.445-2.729-1.445-4.803c0-2.058,0.482-3.646,1.445-4.765s2.373-1.68,4.234-1.68
		c1.859,0,3.271,0.561,4.234,1.68s1.443,2.707,1.443,4.765c0,2.074-0.48,3.675-1.443,4.803c-0.963,1.127-2.375,1.69-4.234,1.69
		C880.344,95.014,878.934,94.45,877.971,93.323z M883.957,91.335c0.379-0.575,0.568-1.514,0.568-2.814c0-1.3-0.189-2.23-0.568-2.79
		s-0.963-0.839-1.752-0.839c-0.791,0-1.375,0.279-1.754,0.839s-0.566,1.49-0.566,2.79c0,1.301,0.188,2.239,0.566,2.814
		c0.379,0.576,0.963,0.864,1.754,0.864C882.994,92.199,883.578,91.911,883.957,91.335z"/>
	<path d="M890.305,82.373h3.283v0.691c0.625-0.362,1.18-0.617,1.666-0.766s1.008-0.223,1.568-0.223c1.514,0,2.592,0.486,3.234,1.457
		c0.641,0.972,0.963,2.469,0.963,4.493v6.691h-3.309v-6.592c0-1.136-0.137-1.935-0.408-2.396s-0.785-0.691-1.543-0.691
		c-0.543,0-1.16,0.115-1.852,0.346l-0.297,0.099v9.234h-3.307V82.373z"/>
	<path d="M911.512,94.076c-0.955-0.626-1.609-1.552-1.963-2.778c-0.355-1.226-0.531-2.859-0.531-4.9c0-2.238,0.193-3.983,0.58-5.234
		s1.033-2.152,1.938-2.704c0.906-0.551,2.174-0.826,3.803-0.826c1.498,0,3.168,0.222,5.012,0.666l-0.098,2.716
		c-1.631-0.247-2.955-0.37-3.977-0.37c-1.037,0-1.818,0.165-2.346,0.494c-0.525,0.329-0.893,0.868-1.098,1.617
		c-0.207,0.749-0.309,1.807-0.309,3.172v0.914c0.033,1.416,0.135,2.473,0.309,3.173c0.172,0.699,0.514,1.206,1.025,1.519
		c0.51,0.312,1.291,0.469,2.344,0.469c1.119,0,2.471-0.115,4.051-0.346l0.074,2.79c-1.795,0.378-3.367,0.567-4.717,0.567
		C913.832,95.014,912.465,94.701,911.512,94.076z"/>
	<path d="M922.944,77.435h3.309v17.283h-3.309V77.435z"/>
	<path d="M930.141,93.323c-0.963-1.128-1.445-2.729-1.445-4.803c0-2.058,0.482-3.646,1.445-4.765s2.373-1.68,4.234-1.68
		c1.859,0,3.271,0.561,4.234,1.68s1.443,2.707,1.443,4.765c0,2.074-0.48,3.675-1.443,4.803c-0.963,1.127-2.375,1.69-4.234,1.69
		C932.514,95.014,931.104,94.45,930.141,93.323z M936.127,91.335c0.379-0.575,0.568-1.514,0.568-2.814c0-1.3-0.189-2.23-0.568-2.79
		s-0.963-0.839-1.752-0.839c-0.791,0-1.375,0.279-1.754,0.839s-0.566,1.49-0.566,2.79c0,1.301,0.188,2.239,0.566,2.814
		c0.379,0.576,0.963,0.864,1.754,0.864C935.164,92.199,935.748,91.911,936.127,91.335z"/>
	<path d="M942.819,94.569l-0.791-0.147l0.1-2.766c1.992,0.264,3.439,0.395,4.346,0.395c0.609,0,1.09-0.065,1.443-0.197
		c0.355-0.131,0.531-0.378,0.531-0.74c0-0.329-0.168-0.568-0.506-0.716c-0.338-0.148-0.9-0.288-1.691-0.42
		c-0.297-0.033-0.502-0.065-0.617-0.099c-0.822-0.148-1.498-0.334-2.023-0.556c-0.527-0.223-0.955-0.576-1.285-1.062
		s-0.494-1.165-0.494-2.037c0-1.399,0.428-2.436,1.285-3.111c0.855-0.675,2.031-1.012,3.529-1.012c0.889,0,2.197,0.156,3.926,0.469
		l0.814,0.148l-0.049,2.74c-1.992-0.263-3.465-0.395-4.42-0.395c-0.559,0-1,0.058-1.32,0.173s-0.48,0.337-0.48,0.666
		c0,0.346,0.164,0.589,0.492,0.729c0.33,0.14,0.865,0.275,1.605,0.407l0.865,0.148c1.316,0.264,2.254,0.654,2.814,1.173
		c0.559,0.519,0.838,1.354,0.838,2.506c0,1.416-0.402,2.461-1.209,3.136s-2.049,1.012-3.729,1.012
		C945.707,95.014,944.383,94.866,942.819,94.569z"/>
	<path d="M954.793,93.558c-0.855-0.972-1.285-2.543-1.285-4.716c0-2.271,0.449-3.967,1.346-5.086c0.898-1.119,2.293-1.68,4.186-1.68
		c1.744,0,3.066,0.466,3.963,1.396s1.346,2.325,1.346,4.185l-0.246,2.296h-7.26c0.033,0.577,0.137,1.017,0.309,1.321
		c0.174,0.305,0.453,0.519,0.84,0.642c0.387,0.124,0.926,0.186,1.617,0.186c0.543,0,1.193-0.017,1.951-0.05
		c0.756-0.032,1.309-0.065,1.652-0.099l0.691-0.073l0.051,2.443c-1.861,0.461-3.523,0.691-4.988,0.691
		C957.039,95.014,955.649,94.528,954.793,93.558z M961.088,87.435c0-0.988-0.152-1.675-0.457-2.062s-0.842-0.581-1.617-0.581
		c-0.789,0-1.35,0.202-1.678,0.605c-0.33,0.403-0.502,1.082-0.52,2.037H961.088z"/>
	<path d="M967.211,93.446c-0.725-1.045-1.086-2.621-1.086-4.729c0-2.304,0.408-3.987,1.223-5.049s2.07-1.593,3.766-1.593
		c0.607,0,1.539,0.115,2.789,0.346v-4.987h3.309v17.283h-3.283v-0.519c-0.676,0.312-1.252,0.526-1.729,0.642
		c-0.479,0.115-0.955,0.173-1.432,0.173C969.121,95.014,967.936,94.492,967.211,93.446z M973.557,91.755l0.346-0.074v-6.493
		c-0.873-0.164-1.605-0.247-2.197-0.247c-0.789,0-1.357,0.28-1.703,0.84s-0.52,1.515-0.52,2.864c0,1.234,0.156,2.11,0.471,2.629
		c0.312,0.519,0.838,0.777,1.58,0.777C972.125,92.051,972.799,91.952,973.557,91.755z"/>
</g>
</svg>
