<?xml version="1.0" encoding="utf-8"?>
<!-- Generator: Adobe Illustrator 16.0.0, SVG Export Plug-In . SVG Version: 6.00 Build 0)  -->
<!DOCTYPE svg PUBLIC "-//W3C//DTD SVG 1.1//EN" "http://www.w3.org/Graphics/SVG/1.1/DTD/svg11.dtd">
<svg version="1.1" id="Layer_1" xmlns="http://www.w3.org/2000/svg" xmlns:xlink="http://www.w3.org/1999/xlink" x="0px" y="0px"
	 width="30px" height="30px" viewBox="0 0 30 30" enable-background="new 0 0 30 30" xml:space="preserve">
<g id="XMLID_1_">
	<path id="XMLID_6_" fill="#333333" d="M15,4.844c-4.188,0-7.625,3.188-7.625,6.969c0,5.75,7.625,13.344,7.625,13.344
		s7.625-7.594,7.625-13.344C22.625,8.031,19.188,4.844,15,4.844z M14.987,21.744c-2.076-2.239-5.546-6.775-5.546-10.053
		c0-2.76,2.485-5,5.546-5c1.476,0,2.894,0.52,3.962,1.503c1.008,0.956,1.609,2.187,1.609,3.497
		C20.533,14.969,17.064,19.505,14.987,21.744z M17.199,11.691c0,1.229-0.982,2.213-2.212,2.213c-1.23,0-2.213-0.983-2.213-2.213
		s0.982-2.213,2.213-2.213C16.217,9.479,17.199,10.462,17.199,11.691z"/>
</g>
</svg>
