<svg xmlns="http://www.w3.org/2000/svg" width="500" height="920.3">
  <path fill="none" stroke="#000" stroke-width=".5" stroke-miterlimit="10" d="M20 70.8h460V421H20z"/>
  <path fill="#FFF" stroke="#000" stroke-width=".5" stroke-miterlimit="10" d="M10 9.3h482v21H10z"/>
  <path fill="#939598" d="M441.8 22.2v-3h.7V23H435v-7.6h3.7v.7H435.8v6.2h6zm-.4-5.5l-1-.8.4-.6 1.7 1.6-1.4 1.6-.3-.5.6-.7c-1.8.2-3 1-4 2.2 0 .3-.3.6-.4 1-.2.2-.3.5-.3.7v.3h-.6v-.3l.3-.6c0-.3 0-.6.3-1l.5-.8 1-1 1.5-.7 2-.3zM455.8 22.2v-3h.7V23H449v-7.6h3.7v.7H449.8v6.2h6zm.7-6.8v.6h-.3s-.4 0-.7.2c-.4 0-.7.3-1 .5-1.2.8-2 2-2 4l.7-.7.4.4-1.6 1.4-1.5-1.7.4-.3.8 1c0-.7.2-1.4.4-2s.4-1 .7-1.3l.8-1 1-.5c.3-.3.6-.4.8-.4l.7-.2h.2zM465.2 15.4h3v1h1.7v1h-6.7v-1h2v-1zm-1.4 2.7h5.7v5h-5.7v-5zm1.3.7v3.6h1v-3.6h-1zm2.3 0v3.6h1v-3.6h-1zM481 21.2l-4-3.6.7-.6 3.2 3 3-3 .7.7-3.8 3.5z"/>
  <path fill="#939598" stroke="#000" stroke-width=".3" stroke-miterlimit="10" d="M431.3 15.3v8M445.6 15.7v8M459.8 15.3v8M473.5 15.3v8"/>
  <path d="M9.8 9.3h18v21H10z"/>
  <path fill="#FFF" d="M22 16.7l-.3.5h-1l-.5 2.7-1 2.7c-.4 1-1 1.5-1.4 2l-1 .3c-.4 0-.6 0-.7-.3v-.4-.3h.7V24.6h.7c0-.2.3-.3.5-.6l.3-1 .5-1.6 1-4.2h-1v-.5h.8l.4-.3.4-.8.7-1 1-1 1-.2c.4 0 .6 0 .8.2.2.2.3.3.3.5v.5h-.7s-.2 0-.2-.2l.2-.3v-.2s0-.2-.2-.2c-.3 0-.5 0-.7.3-.3 0-.5.4-.7 1-.2.2-.4.8-.7 1.7h1z"/>
  <path d="M35.3 49.8c1-1 2.3-1.6 3.8-1.6s2.8.5 3.8 1.6c1 1 1.6 2.3 1.6 3.7 0 1.5-.5 2.7-1.6 3.8s-2.3 1.5-3.7 1.5-2.6-.5-3.7-1.5-1.5-2.3-1.5-3.8c0-1.4.5-2.7 1.5-3.7zm2 5.8v-.4c-.3 0-.4-.2-.4-.4v-.3-.4c0-.2-.2-.4-.4-.5.2 0 .3-.3.3-.5v-.4-.4c0-.2 0-.3.2-.3h.2v-.5h-.2c-.5 0-.8.2-.8.7v.8c0 .2 0 .4-.2.4v.3c.2 0 .3 0 .3.3v.8c0 .5.2.8.7.8h.2zm2-.6l1-3h-.5l-.5 1.5-.2 1c0-.3 0-.6-.2-1l-.5-1.4h-.5l1 3h.5zm2.7-1.3v-.3c-.2 0-.4-.2-.4-.4v-.4-.4c0-.5 0-.7-.7-.7h-.2v.4c.4 0 .5 0 .5.2v.8c0 .2 0 .4.2.5-.2 0-.3.3-.3.6v.8c0 .2 0 .4-.3.4h-.2v.4h.2c.5 0 .7-.3.7-.8v-.4-.4c0-.2 0-.3.3-.3z"/>
  <path fill="#AEADAE" d="M46 49.6h7.5V57H46z"/>
  <path fill="#FFF" d="M52 53v.5h-2v2h-.5v-2h-2V53h2v-2h.5v2h2z"/>
  <path fill="#EFEFEF" d="M55.2 48.2H66V59H55z"/>
  <path fill="#8D8D8D" d="M58.6 53.3l3-3 .4.4-2.5 2.6L62 56l-.5.4-3-3z"/>
  <path fill="none" stroke="#000" stroke-width=".5" stroke-miterlimit="10" d="M10 30.3h482V433H10z"/>
  <g>
    <path fill="#FFF" stroke="#000" stroke-width=".5" stroke-miterlimit="10" d="M20 71h460v21H20z"/>
    <path fill="#939598" d="M430 83.8v-3h.6v3.7H423V77h4v.7h-3.2v6h6zm-.5-5.5l-1-1 .5-.3 1.6 1.6-1.4 1.5-.4-.3.7-.8c-2 0-3.2.8-4 2l-.5 1v.8l-.2.3h-.6V83l.2-.6.3-1c0-.2.3-.5.6-.8.2-.4.5-.7 1-1 .3-.2.7-.5 1.3-.7l2-.4zM444 83.8v-3h.6v3.7H437V77h4v.7h-3.2v6h6zm.6-6.8v.6h-.3l-.7.2c-.4 0-.7.3-1 .5-1.2.8-2 2-2 4l.7-.8.4.5-1.6 1.4-1.4-1.7.4-.4 1 1c0-.7 0-1.4.3-2l.7-1.3 1-1 1-.6.8-.3h.8zM453.3 77h3v1h1.8v1h-6.6v-1h2v-1zm-1.4 2.6h5.6v5H452v-5zm1.2.7v3.5h1v-3.5h-1zm2.2 0v3.5h1v-3.5h-1zM469 82.8l-3.7-3.6.5-.6 3.2 3 3.3-3 .5.6-3.8 3.6z"/>
    <path fill="#939598" stroke="#000" stroke-width=".3" stroke-miterlimit="10" d="M433.8 76.7V85M448 76.3v8.2M461.6 76.8V85"/>
    <path d="M20 71h18v20.8H20z"/>
    <path fill="#FFF" d="M32 78.3v.4h-1l-.7 2.7c-.3 1.2-.6 2.2-1 2.8-.4 1-.8 1.6-1.3 2l-1.2.3c-.2 0-.4 0-.6-.2L26 86c0-.2 0-.3.2-.4l.4-.2h.2l.2.4-.2.2v.2h.7l.5-.6.5-1L29 83l1-4.3h-1v-.4h.7l.4-.3.6-.8c.2-.5.4-1 .7-1 .3-.5.6-.8 1-1 .3-.2.6-.2 1-.2.2 0 .5 0 .6.2l.2.5v.4c-.2.2-.3.2-.5.2h-.3v-.3-.4-.2c0-.2 0-.2-.2-.2-.3 0-.5 0-.7.3-.3.2-.6.5-.8 1l-.6 1.8h1z"/>
    <path d="M45.5 111.3c1-1 2.3-1.5 3.7-1.5s2.7.5 3.8 1.5c1 1 1.5 2.3 1.5 3.8 0 1.6-.5 2.8-1.5 3.8s-2.3 1.6-3.8 1.6-2.7-.5-3.7-1.6-1.6-2.2-1.6-3.7c0-1.4.4-2.6 1.5-3.7zm2 5.8v-.2c-.4 0-.5-.2-.5-.4v-.4-.4c0-.2 0-.4-.2-.5.2 0 .3-.2.3-.5v-.3-.4c0-.2 0-.4.4-.4v-.3c-.6 0-.8.3-.8.8v.8c0 .2 0 .3-.3.3v.3c.2 0 .4 0 .4.3v.8c0 .5 0 .7.6.7h.2zm2-.5l1-3H50l-.5 1.6-.3 1c0-.2 0-.5-.3-1l-.5-1.4H48l1 3h.4zm2.7-1.2v-.4c-.3 0-.4-.2-.4-.4v-.4-.4c0-.5-.2-.7-.7-.7v.4c.3 0 .4.2.4.4v.8c0 .3 0 .5.2.6l-.2.6v.8c0 .2 0 .4-.3.4v.3c.6 0 1 0 1-.6l-.2-.4v-.4c0-.2 0-.3.3-.3h.2z"/>
    <path fill="#AEADAE" d="M56.2 111.2h7.4v7.4h-7.4z"/>
    <path fill="#FFF" d="M62.2 114.6v.5h-2v2.2h-.6v-2h-2v-.6h2v-2h.5v2h2.2z"/>
    <path fill="#EFEFEF" d="M65.3 109.8H76v10.7H65.3z"/>
    <path fill="#8D8D8D" d="M68.8 115l3-3.2.4.5-2.6 2.6 2.5 2.5-.4.5-2.8-3z"/>
  </g>
  <g>
    <path fill="#FFF" stroke="#000" stroke-width=".8" stroke-miterlimit="10" d="M165.4 137.8h125v30.5h-125z"/>
    <text transform="translate(180.5 155.757)" font-family="'MyriadPro-Regular'" font-size="14.2">
      ResourceWorker
    </text>
    <path fill="#FFF" stroke="#000" stroke-width=".5" stroke-miterlimit="10" d="M165.4 190.3h126.4v30.5H165.4z"/>
    <path fill="none" stroke="#000" stroke-width=".5" stroke-miterlimit="10" d="M229 168.3v22"/>
    <path fill="#FFF" stroke="#000" stroke-width=".5" stroke-miterlimit="10" d="M165.5 291H292v30.4H165.4z"/>
    <path d="M214.5 300.6c.6-.2 1.5-.2 2.4-.2 1.2 0 2 .2 2.6.8.5.4.8 1 .8 1.8 0 1.2-.8 2-1.8 2.4.7.3 1.2 1 1.4 2l.7 2.6h-1.3l-.6-2.3c-.3-1.3-.8-1.8-2-1.8h-1v4h-1.3v-9.4zm1.2 4.3h1.3c1.3 0 2.2-.8 2.2-2 0-1-1-1.7-2.3-1.7h-1.3v3.6zM222.8 306.8c0 1.7 1.2 2.4 2.4 2.4 1 0 1.4-.2 2-.4v1c-.3 0-1 .4-2.2.4-2 0-3.4-1.4-3.4-3.5 0-2 1.3-3.7 3.3-3.7 2 0 2.7 2 2.7 3.2v.6h-5zm3.7-1c0-.7-.3-2-1.7-2-1.3 0-1.8 1.2-2 2h3.7zM229.3 305.4V303h1v1.3c.6-.8 1.4-1.3 2.6-1.3 1.5 0 2.8 1.4 2.8 3.5 0 2.5-1.5 3.7-3.2 3.7-1 0-1.7-.4-2-1v3.6h-1.3v-7.4zm1.2 1.8v.5c.3 1 1 1.5 2 1.5 1.3 0 2-1 2-2.7 0-1.3-.7-2.5-2-2.5-1 0-1.7.6-2 1.5v1.7zM237.3 300h1.3v10h-1.3v-10zM241.2 303l1.5 4.2c0 .5.3 1 .4 1.4.3-.4.4-1 .6-1.4l1.3-4h1.3l-2 4.8c-.8 2.4-1.4 3.6-2.3 4.3-.6.6-1.2.8-1.5 1l-.3-1.2c.3 0 .7-.2 1-.5.4-.3.8-.8 1-1.4.2 0 .2 0 .2-.2v-.3l-2.6-6.4h1.4z"/>
    <path fill="#FFF" stroke="#000" stroke-width=".8" stroke-miterlimit="10" d="M165.4 348h125v30.4h-125z"/>
    <text transform="translate(180.5 365.935)" font-family="'MyriadPro-Regular'" font-size="14.2">
      ResourceWorker
    </text>
    <path fill="none" stroke="#000" stroke-width=".6" stroke-miterlimit="10" d="M228.7 320.5v25.7"/>
    <path d="M59.3 167.8c-.5.3-1.4.5-2.6.5-2.7 0-4.7-1.7-4.7-4.8 0-3 2-5 5-5 1.2 0 2 .2 2.3.4l-.3 1c-.5-.4-1.2-.5-2-.5-2.2 0-3.7 1.4-3.7 4 0 2.3 1.4 3.8 3.7 3.8.7 0 1.5-.2 2-.4l.3.8zM60.8 158H62v10.2h-1.2v-10zM65.5 159.3c0 .5-.3.8-.8.8-.4 0-.7-.2-.7-.7 0-.4.3-.7.7-.7.5 0 .8.3.8.7zm-1.4 9v-7h1.4v7H64zM68 165c.2 1.6 1.2 2.3 2.5 2.3 1 0 1.4 0 2-.3v1c-.3 0-1 .3-2.2.3-2 0-3.4-1.4-3.4-3.5S68 161 70 161c2.2 0 2.8 2 2.8 3.4v.5h-5zm3.8-1c0-.7-.3-2-1.7-2-1.2 0-1.8 1.2-2 2H72zM74.6 163v-1.7h1v1c.4-.5 1.2-1.2 2.4-1.2 1 0 2.4.7 2.4 3v4.2h-1.2v-4c0-1-.5-2-1.6-2-1 0-1.5.5-1.7 1.2-.2.2-.2.4-.2.6v4.2h-1.2v-5zM84 159.3v2h1.7v1H84v3.6c0 .8 0 1.3.8 1.3h.7v.8c0 .2-.5.3-1 .3-.6 0-1-.2-1.4-.5-.2-.4-.3-1-.3-1.8v-3.8h-1v-1h1v-1.6l1.2-.3z"/>
    <path fill="none" stroke="#000" stroke-width=".799992" stroke-miterlimit="10" d="M34 165.8l36.4-36.5 36.4 36.5-36.4 36.4z"/>
    <path d="M59 359c-.3.2-1.2.5-2.4.5-2.7 0-4.7-1.7-4.7-5 0-3 2-5 5-5 1 0 1.8.3 2 .5l-.2 1c-.4-.2-1-.4-2-.4-2 0-3.6 1.5-3.6 4 0 2.3 1.3 3.8 3.6 3.8.8 0 1.6 0 2-.4l.3 1zM60.6 349.2H62v10h-1.4v-10zM65.4 350.5c0 .4-.3.8-.8.8s-.8-.4-.8-.8.3-.8.8-.8.8.4.8.8zm-1.4 8.8v-7h1.2v7H64zM68 356c0 1.8 1 2.5 2.4 2.5.8 0 1.4-.2 2-.4v1c-.4.2-1 .5-2.2.5-2 0-3.4-1.4-3.4-3.5s1.2-3.7 3.2-3.7c2.3 0 3 2 3 3.2l-.2.6H68zm3.7-.8c0-.8-.4-2-1.8-2-1.3 0-2 1-2 2h3.7zM74.4 354.3v-2h1v1.3h.2c.3-.7 1-1.3 2.2-1.3 1 0 2.5.6 2.5 3v4H79v-4c0-1-.4-2-1.6-2-.8 0-1.4.6-1.7 1.3v4.6h-1.3v-5zM83.7 350.5v2h1.8v1h-1.8v3.6c0 1 .3 1.4 1 1.4h.7v1h-1c-.6 0-1 0-1.4-.5-.3-.4-.5-1-.5-2v-3.6h-1v-1h1v-1.6l1.2-.3z"/>
    <path fill="none" stroke="#000" stroke-width=".799992" stroke-miterlimit="10" d="M34 357l36.3-36.5 36.4 36.4-36.4 36.3z"/>
    <path fill="none" stroke="#000" stroke-width="1.2" stroke-miterlimit="10" d="M70.5 202.2v118.3M157 207.6H70.6"/>
    <path d="M155.4 201.8l10 5.8-10 5.7"/>
    <path fill="none" stroke="#000" stroke-width="1.2" stroke-miterlimit="10" d="M78.7 311h86.7"/>
    <path d="M80.4 317l-10-6 10-5.6"/>
    <path fill="#FFF" stroke="#000" stroke-width=".8" stroke-miterlimit="10" d="M328.6 138h125v30.4h-125zM328.6 343h125v30.5h-125z"/>
    <path fill="none" stroke="#000" stroke-width=".5" stroke-miterlimit="10" d="M388.7 168.3v175"/>
    <path d="M347 147.6v4h4.5v-4h1.3v9.5h-1.3v-4.4H347v4.5h-1.3v-9.4h1.3zM356.7 148.7h-3v-1h7v1H358v8.4h-1.3v-8.3zM364.2 148.7h-3v-1h7v1h-2.8v8.4h-1.2v-8.3zM369.3 147.7h2.4c1.2 0 2 0 2.6.6.5.5.8 1.2.8 2 0 1 0 1.5-.6 2-.6.7-1.7 1-3 1h-1v3.8h-1v-9.3zm1.2 4.6h1c1.5 0 2.4-.6 2.4-2 0-1.2-1-1.8-2.3-1.8h-1.2v3.8zM383.4 156.8c-.5.2-1.4.4-2.5.4-2.8 0-4.8-1.7-4.8-4.8 0-3 2-5 5-5 1 0 2 .3 2.2.5l-.3 1c-.4-.3-1-.5-1.8-.5-2.2 0-3.7 1.4-3.7 4 0 2.2 1.3 3.7 3.6 3.7 1 0 1.6-.2 2-.4l.4 1zM390.8 153.6c0 2.5-1.7 3.6-3.4 3.6-1.8 0-3.2-1.3-3.2-3.5s1.5-3.6 3.4-3.6c2 0 3.2 1.5 3.2 3.6zm-5.4 0c0 1.6 1 2.7 2 2.7 1.3 0 2.2-1 2.2-2.6 0-1.2-.6-2.6-2-2.6s-2.2 1.4-2.2 2.7zM392.4 152v-1.7h1v1c.4-.5 1.2-1.2 2.3-1.2 1 0 2.4.7 2.4 3v4h-1v-3.8c0-1-.5-2-1.7-2-.8 0-1.4.5-1.6 1.2v4.6h-1.3v-5zM400 152v-1.7h1.2v1c.4-.5 1.2-1.2 2.3-1.2 1 0 2.4.7 2.4 3v4h-1.3v-3.8c0-1-.4-2-1.6-2-.7 0-1.3.5-1.5 1.2v4.6H400v-5zM408.6 154c0 1.6 1 2.3 2.3 2.3.8 0 1.3-.2 1.8-.4l.2.8c-.4.2-1.2.4-2.2.4-2 0-3.4-1.4-3.4-3.4s1.2-3.7 3.2-3.7c2.2 0 2.8 2 2.8 3.3v.6h-4.8zm3.6-1c0-.8-.3-2-1.7-2-1.2 0-1.8 1.2-2 2h3.7zM419.8 156.8c-.4.2-1 .4-2 .4-2 0-3.4-1.4-3.4-3.5 0-2 1.5-3.6 3.7-3.6.8 0 1.5.3 1.8.5l-.3 1c-.3-.2-.7-.4-1.4-.4-1.5 0-2.3 1.3-2.3 2.7 0 1.6 1 2.5 2.3 2.5.7 0 1.2-.2 1.6-.3l.2.8zM423 148.3v2h1.6v1H423v3.6c0 .7 0 1.2.8 1.2h.7v.8l-1 .2c-.6 0-1-.2-1.4-.5-.2-.4-.3-1-.3-1.8V151h-1v-1h1v-1.5l1.2-.4zM432 153.6c0 2.5-1.7 3.6-3.3 3.6-1.8 0-3.3-1.3-3.3-3.5s1.5-3.6 3.4-3.6c2 0 3.3 1.5 3.3 3.6zm-5.3 0c0 1.6.8 2.7 2 2.7s2-1 2-2.6c0-1.2-.5-2.6-2-2.6s-2 1.4-2 2.7zM433.6 152.4v-2h1v1.2c.4-1 1.2-1.5 2-1.5.2 0 .3 0 .4.2v1h-.5c-.8 0-1.4.8-1.6 1.7 0 0-.2.2-.2.5v3.6h-1.2v-4.6zM344.3 353.5v4h4.5v-4h1.3v9.4H349v-4.5h-4.5v4.4H343v-9.5h1.3zM354 354.5h-3v-1h7v1h-2.8v8.4H354v-8.5zM361.5 354.5h-3v-1h7v1h-2.8v8.4h-1.2v-8.5zM366.6 353.6l2.4-.2c1.2 0 2 .3 2.6.8.5.4 1 1 1 2 0 .8-.4 1.5-1 2-.5.7-1.6 1-2.8 1h-1v3.7h-1.2v-9.4zm1.3 4.5c0 .2.5.2 1 .2 1.3 0 2.2-.7 2.2-2 0-1.2-.8-1.8-2.2-1.8h-1v3.7zM380.7 362.6c-.5.2-1.4.5-2.5.5-2.7 0-4.7-1.6-4.7-4.7 0-3 2-5 5-5 1 0 2 .3 2.2.4l-.3 1c-.5-.2-1-.4-2-.4-2 0-3.6 1.5-3.6 4 0 2.2 1.3 3.7 3.6 3.7.8 0 1.5 0 2-.4l.3 1zM388 359.5c0 2.5-1.6 3.6-3.2 3.6-2 0-3.3-1.3-3.3-3.4 0-2.3 1.5-3.6 3.4-3.6 1.8 0 3 1.4 3 3.5zm-5.2 0c0 1.5.8 2.6 2 2.6s2-1 2-2.5c0-1-.5-2.6-2-2.6s-2 1.3-2 2.5zM389.7 358v-2h1v1.3c.5-.7 1.3-1.3 2.4-1.3 1 0 2.5.5 2.5 3v4h-1.3v-4c0-1-.4-2-1.5-2-.8 0-1.5.6-1.7 1.3v4.5h-1.3V358zM397.5 358v-2h1v1.3c.4-.7 1.2-1.3 2.3-1.3 1 0 2.4.5 2.4 3v4H402v-4c0-1-.4-2-1.6-2-.8 0-1.4.6-1.6 1.3v4.5h-1.3V358zM406 359.8c0 1.6 1 2.3 2.2 2.3 1 0 1.5 0 2-.2v.8c-.3.2-1 .5-2 .5-2.2 0-3.5-1.3-3.5-3.4s1.3-3.6 3.2-3.6c2 0 2.7 2 2.7 3.2v.5H406zm3.5-1c0-.7-.3-2-1.7-2-1.2 0-1.8 1.2-2 2h3.7zM417 362.7c-.2 0-1 .4-2 .4-2 0-3.2-1.3-3.2-3.4 0-2 1.4-3.6 3.6-3.6.7 0 1.4.2 1.7.3l-.2 1c-.3-.2-.7-.3-1.4-.3-1.6 0-2.4 1-2.4 2.5 0 1.6 1 2.6 2.4 2.6.7 0 1 0 1.5-.3v1zM420.2 354.2v2h1.8v1h-1.8v3.5c0 1 .2 1.3 1 1.3h.6v1h-1c-.6 0-1 0-1.3-.5-.4-.3-.5-1-.5-1.7V357h-1v-1h1v-1.5l1.2-.3zM429.4 359.5c0 2.5-1.7 3.6-3.4 3.6-1.8 0-3.2-1.3-3.2-3.4 0-2.3 1.5-3.6 3.3-3.6 2 0 3.4 1.4 3.4 3.5zm-5.4 0c0 1.5 1 2.6 2 2.6 1.2 0 2-1 2-2.5 0-1-.4-2.6-2-2.6s-2 1.3-2 2.5zM431 358.3V356h1v1.5c.4-1 1-1.5 2-1.5h.3v1.2h-.4c-1 0-1.6.6-1.8 1.5v4.2H431v-4.7z"/>
    <path fill="none" stroke="#000" stroke-width="1.2" stroke-miterlimit="10" d="M380.3 246.3h-86.7"/>
    <path d="M378.6 240.6l10 5.7-10 5.8"/>
    <path fill="#FFF" stroke="#000" stroke-width=".5" stroke-miterlimit="10" d="M164.5 240.5H291V271H164.4z"/>
    <path d="M203.3 250.6v4h4.6v-4h1v9.4h-1v-4.4h-4.7v4.4H202v-9.4h1.3zM213 251.6h-3v-1h7v1h-2.8v8.4H213v-8.4zM220.5 251.6h-3v-1h7v1h-2.8v8.4h-1.2v-8.4zM225.6 250.7l2.4-.2c1.2 0 2 .3 2.6.8.6.4 1 1 1 2 0 .8-.4 1.5-1 2-.5.7-1.6 1-2.8 1h-1v3.7h-1.2v-9.3zm1.3 4.5h1c1.3 0 2.2-.6 2.2-2 0-1-.8-1.7-2.2-1.7h-1v3.7zM232.6 254.3c0-.5.4-.8.8-.8s1 .3 1 .8-.4 1-1 1c-.5 0-.8-.5-.8-1zm0 5c0-.5.4-1 .8-1s1 .5 1 1-.4 1-1 1c-.5 0-.8-.5-.8-1zM241.6 253.2v5.8c0 1.6-.3 2.5-1 3-.6.7-1.6 1-2.4 1-1 0-1.8-.3-2.3-.6l.2-1c.5.3 1.2.6 2 .6 1.3 0 2.2-.7 2.2-2.4v-.8c-.4.7-1.2 1.2-2.2 1.2-1.7 0-3-1.5-3-3.3 0-2.3 1.6-3.6 3.2-3.6 1 0 1.8.7 2 1.2l.2-1h1zm-1.2 2.7v-.7c-.3-.7-1-1.3-1.8-1.3-1.2 0-2 1-2 2.6 0 1.3.6 2.4 2 2.4.7 0 1.4-.4 1.7-1.2V256zM244.3 256.8c0 1.7 1 2.4 2.3 2.4 1 0 1.4-.2 2-.4v1c-.3 0-1 .3-2 .3-2.2 0-3.5-1.2-3.5-3.3 0-2 1.3-3.6 3.3-3.6 2.2 0 2.8 2 2.8 3.3v.5h-4.7zm3.6-.8c0-.8-.4-2-1.8-2-1.2 0-1.8 1-2 2h3.7zM252 251.3v2h2v1h-2v3.5c0 1 .4 1.3 1 1.3h.8v1h-1c-.6 0-1 0-1.4-.4-.4-.3-.5-1-.5-1.7V254h-1v-1h1v-1.6l1-.3z"/>
    <text transform="translate(215.49 210.664)" font-family="'MyriadPro-Regular'" font-size="14">
      Start
    </text>
    <path fill="none" stroke="#000" stroke-width="1.2" stroke-miterlimit="10" d="M300.4 262h2.5"/>
    <path fill="none" stroke="#000" stroke-width="1.2" stroke-miterlimit="10" d="M307.7 262H382" stroke-dasharray="4.8 4.8"/>
    <path fill="none" stroke="#000" stroke-width="1.2" stroke-miterlimit="10" d="M384.5 262h2.5"/>
    <path d="M302 267.8l-10-5.8 10-5.7"/>
    <path fill="none" stroke="#000" stroke-width=".5" stroke-miterlimit="10" d="M20.4 510h460v389.4h-460z"/>
    <path fill="#FFF" stroke="#000" stroke-width=".5" stroke-miterlimit="10" d="M10.2 448.5h482v21h-482z"/>
    <path fill="#939598" d="M442.2 461.3v-3h.7v3.8h-7.6v-7.5h3.7v.8h-2.8v6h6zm-.4-5.4l-1-1 .4-.5 1.7 1.6-1.5 1.7-.5-.4.7-.8c-1.8 0-3.2 1-4 2 0 .4-.3.7-.4 1l-.2.8v.3h-.5v-.2-.7l.4-.8c0-.4.3-.7.5-1l1-1c.3-.3.8-.5 1.3-.7l2-.4zM456.2 461.3v-3h.7v3.8h-7.6v-7.5h3.7v.8h-2.8v6h6zm.7-6.8v.6c-.2 0-.3 0-.4.2 0 0-.4 0-.7.2-.5 0-.8.2-1 .4-1.4.8-2 2-2.2 4l.8-.7.4.5-1.6 1.4-1.6-1.7.5-.4 1 .8c0-.7 0-1.3.3-2l.7-1.3 1-1 1-.5.7-.3h.6l.3-.2zM465.6 454.5h2.8v1h2v1h-6.7v-1h2v-1zm-1.4 2.7h5.6v5h-5.6v-5zm1.2.6v3.6h1v-3.6h-1zm2.3 0v3.6h1v-3.6h-1zM481.3 460.4l-3.8-3.7.6-.6 3.3 3.2 3.2-3 .6.6-3.7 3.6z"/>
    <path fill="#939598" stroke="#000" stroke-width=".3" stroke-miterlimit="10" d="M431.7 454.4v8M446 454.8v8.2M460.2 454.4v8M474 454.4v8"/>
    <path d="M10.2 448.5h18v21h-18z"/>
    <g>
      <path fill="#FFF" d="M22.2 456v.3h-1l-.7 2.7c-.3 1.2-.6 2-1 2.8-.3 1-.8 1.5-1.3 2-.4 0-.7.3-1 .3h-.8l-.2-.5c0-.2 0-.3.2-.4h.7c.2 0 .2.2.2.3v.3H17v.2h.7l.6-.6.4-1 .5-1.7 1-4.2h-1v-.4l.8-.2.3-.3.5-.7.7-1.2c.3-.4.6-.6 1-.8.3-.2.6-.3 1-.3.2 0 .5 0 .7.2l.3.6s0 .2-.2.3l-.3.2h-.4v-.4-.3-.2h-.2c-.3 0-.5 0-.7.2-.3.2-.5.6-.8 1l-.7 2h1z"/>
    </g>
    <g>
      <path d="M35.7 489c1-1 2.3-1.7 3.8-1.7s2.7.6 3.7 1.6 1.6 2.2 1.6 3.6c0 1.5-.6 2.8-1.6 3.8S41 498 39.5 498s-2.8-.6-3.8-1.6-1.6-2.3-1.6-3.8c0-1.4.7-2.7 1.7-3.7zm2 5.7v-.4c-.3 0-.5 0-.5-.4v-.4-.4c0-.3 0-.5-.2-.6.2 0 .3-.2.3-.5v-.3-.3c0-.3 0-.4.3-.4v-.4c-.5 0-.8.2-.8.7v.8c0 .4 0 .5-.3.5v.3c.3 0 .4 0 .4.3 0 .2 0 .4-.2.5v.4c0 .4.3.7.8.7zm2-.6l1-2.8h-.5l-.5 1.4c0 .4-.2.7-.3 1 0-.3 0-.6-.2-1l-.5-1.4h-.5l1 3h.4zm2.7-1.2v-.3c-.3 0-.4 0-.4-.4v-.3-.4c0-.5-.2-.7-.7-.7v.4c.3 0 .4 0 .4.4v.7c0 .4 0 .5.2.6-.3 0-.4.3-.4.6v.7c0 .2 0 .3-.3.3v.4c.6 0 .8-.3.8-.7v-.5-.4s0-.2.4-.2z"/>
    </g>
    <path fill="#AEADAE" d="M46.5 488.8H54v7.4h-7.5z"/>
    <g>
      <path fill="#FFF" d="M52.5 492.2v.5h-2v2h-.6v-2h-2.2v-.5h2v-2h.6v2h2z"/>
    </g>
    <path fill="#EFEFEF" d="M55.6 487.3h10.7V498H55.6z"/>
    <g>
      <path fill="#8D8D8D" d="M59 492.4l3-3 .4.4-2.5 2.6 2.4 2.7-.5.5-3-3z"/>
    </g>
    <path fill="none" stroke="#000" stroke-width=".5" stroke-miterlimit="10" d="M10.3 469.5h482v441h-482z"/>
    <path fill="#FFF" stroke="#000" stroke-width=".5" stroke-miterlimit="10" d="M20.4 510h460v21h-460z"/>
    <g>
      <path fill="#939598" d="M430.3 523v-3h.7v3.7h-7.5V516h3.7v.8h-3v6h6zm-.4-5.6l-1-.8.4-.5 1.6 1.7-1.4 1.6-.4-.5.7-.8c-2 .2-3.3 1-4 2.2-.3.3-.5.6-.6 1l-.2.7v.2h-.6v-.3l.2-.7.3-1c.2 0 .4-.4.7-.8.2-.3.5-.7 1-1l1.3-.7 2-.4z"/>
    </g>
    <g>
      <path fill="#939598" d="M444.3 523v-3h.7v3.7h-7.5V516h3.7v.8h-3v6h6zm.7-7v.7h-.3l-.7.2-1 .4c-1.2.8-2 2-2 4l.7-.7.4.4-1.5 1.5-1.5-1.6.4-.6 1 1c0-.7 0-1.4.3-2l.7-1.3 1-.8 1-.6c.2-.2.5-.3.8-.3l.6-.2h.2z"/>
    </g>
    <g>
      <path fill="#939598" d="M453.7 516h3v1h1.7v1h-6.6v-1h2v-1zm-1.4 2.8h5.7v5h-5.7v-5zm1.3.6v3.6h.8v-3.6h-.8zm2.2 0v3.6h1v-3.6h-1z"/>
    </g>
    <g>
      <path fill="#939598" d="M469.4 522l-3.7-3.7.5-.6 3.2 3 3.3-3 .5.7-3.8 3.5z"/>
    </g>
    <path fill="#939598" stroke="#000" stroke-width=".3" stroke-miterlimit="10" d="M434.2 515.8v8.2M448.3 515.4v8.2M462 516v8"/>
    <path d="M20.4 510h18v21h-18z"/>
    <g>
      <path fill="#FFF" d="M32.4 517.4v.5h-1l-.7 2.6c-.3 1.2-.6 2-1 2.8-.4 1-.8 1.5-1.3 2l-1.2.3c-.2 0-.4 0-.6-.3l-.2-.4v-.3h.7v.5h.7c0-.2.3-.3.4-.6l.4-1 .5-1.6 1-4h-1v-.6h.8l.5-.3.4-.7.6-1c.3-.5.7-.8 1-1l1-.2c.3 0 .5.2.7.3.2.2.3.3.3.5v.4H34 34v-.2-.3-.2l-.3-.2c-.2 0-.5 0-.7.3-.2.2-.5.5-.7 1l-.5 1.8h1z"/>
    </g>
    <g>
      <path d="M46 550.5c1-1 2-1.6 3.6-1.6s2.7.4 3.8 1.5c1 1 1.5 2.3 1.5 3.7 0 1.5-.6 2.7-1.6 3.8s-2.3 1.5-3.8 1.5S47 559 46 558s-1.7-2.3-1.7-3.8c0-1.4.5-2.7 1.6-3.7zm2 5.8v-.4h-.3c-.2 0-.3-.3-.3-.5v-.3-.4c0-.3 0-.5-.2-.6.2 0 .3-.3.3-.5v-.4-.4c0-.3 0-.4.2-.4h.2v-.4h-.3c-.5 0-.7.2-.7.7v.7c0 .2 0 .4-.3.4v.4c.2 0 .3 0 .3.3v.9c0 .5.2.8.7.8h.2zm1.8-.6l1-3h-.4l-.5 1.5c-.3.4-.4.7-.4 1l-.3-1-.4-1.4h-.6l1 3h.4zm2.8-1.3v-.3c-.3 0-.4 0-.4-.3v-.4-.4c0-.6-.2-.8-.7-.8h-.2v.4h.2c.2 0 .3 0 .3.3v.7c0 .2 0 .4.2.5-.2 0-.3.3-.3.6v.7c0 .2 0 .4-.2.4h-.2v.3h.2c.5 0 .8-.3.8-.8v-.4-.3c0-.2 0-.3.2-.3z"/>
    </g>
    <path fill="#AEADAE" d="M56.6 550.3H64v7.4h-7.4z"/>
    <g>
      <path fill="#FFF" d="M62.6 553.7v.5h-2v2H60v-2h-2v-.5h2v-2h.5v2h2z"/>
    </g>
    <path fill="#EFEFEF" d="M65.7 549h10.7v10.6H65.7z"/>
    <g>
      <path fill="#8D8D8D" d="M69 554l3-3 .6.4L70 554l2.5 2.6-.5.5-3-3z"/>
    </g>
    <path fill="#FFF" stroke="#000" stroke-width=".8" stroke-miterlimit="10" d="M165.8 577h125v30.4H166z"/>
    <g>
      <text transform="translate(180.883 594.88)" font-family="'MyriadPro-Regular'" font-size="14.2">
        ResourceWorker
      </text>
    </g>
    <path fill="#FFF" stroke="#000" stroke-width=".5" stroke-miterlimit="10" d="M165.8 629.5h126.4V660H165.8z"/>
    <path fill="none" stroke="#000" stroke-width=".5" stroke-miterlimit="10" d="M229.2 607.4v22"/>
    <path fill="#FFF" stroke="#000" stroke-width=".5" stroke-miterlimit="10" d="M166 784h126.3v30.6H166z"/>
    <g>
      <path d="M215 793.7l2.2-.2c1.4 0 2.2.3 2.8.8.5.5.8 1 .8 1.8 0 1.4-.8 2.2-1.8 2.6.7.3 1 1 1.4 2l.7 2.6H220l-.6-2.3c-.3-1.4-.8-2-2-2h-1v4.2h-1.3v-9.5zm1 4.4h1.4c1.3 0 2-.6 2-1.7 0-1.2-.8-1.8-2-1.8H216v3.6zM223.2 800c0 1.7 1 2.4 2.4 2.4 1 0 1.4-.2 2-.4v1c-.3 0-1 .3-2.2.3-2 0-3.4-1.4-3.4-3.4 0-2.2 1.3-3.8 3.3-3.8 2.2 0 2.8 2 2.8 3.2v.6h-4.8zm3.7-1c0-.7-.4-2-1.8-2-1.3 0-2 1.2-2 2h3.7zM229.6 798.6v-2.3h1l.2 1.2c.5-.8 1.3-1.3 2.4-1.3 1.7 0 3 1.4 3 3.5 0 2.4-1.6 3.7-3.2 3.7-1 0-1.7-.4-2-1v3.6h-1.4v-7.4zm1.3 1.8v.5c.2.8 1 1.4 1.8 1.4 1.3 0 2-1 2-2.7 0-1.4-.6-2.5-2-2.5-.8 0-1.6.6-1.8 1.5v1.7zM237.7 793h1.3v10.2h-1.3v-10zM241.5 796.3l1.5 4 .5 1.5c0-.4.3-1 .4-1.4l1.3-4h1.3l-1.8 4.8c-1 2.4-1.5 3.6-2.4 4.3-.6.6-1.2.8-1.5.8l-.4-1c.3 0 .7-.3 1-.6.4-.3.8-.8 1-1.4.2 0 .2-.2.2-.3v-.3l-2.6-6.4h1.3z"/>
    </g>
    <path fill="#FFF" stroke="#000" stroke-width=".8" stroke-miterlimit="10" d="M165.8 838h125v30.6H166z"/>
    <g>
      <text transform="translate(180.883 857.1)" font-family="'MyriadPro-Regular'" font-size="14.2">
        ResourceWorker
      </text>
    </g>
    <path fill="none" stroke="#000" stroke-width=".5" stroke-miterlimit="10" d="M229 815.5v22"/>
    <g>
      <path d="M59.6 607c-.4.2-1.3.4-2.5.4-2.6 0-4.6-1.7-4.6-4.8 0-3 2-5 5-5 1.2 0 2 .2 2.3.4l-.3 1c-.5-.2-1.2-.4-2-.4-2.2 0-3.7 1.4-3.7 4 0 2.3 1.3 3.8 3.7 3.8.7 0 1.5-.2 2-.4l.2 1zM61 597.2h1.4v10H61v-10zM66 598.5c0 .4-.4.7-1 .7-.3 0-.7-.3-.7-.7 0-.5.4-.8.8-.8.6 0 1 .3 1 .8zm-1.5 8.8v-7h1.2v7h-1.2zM68.5 604c0 1.8 1 2.5 2.4 2.5.8 0 1.3-.2 1.8-.4l.2 1c-.5.2-1.2.4-2.3.4-2 0-3.4-1.4-3.4-3.4s1.2-3.8 3.2-3.8c2.3 0 3 2 3 3.3 0 .2 0 .4-.2.6h-4.8zm3.7-.8c0-.8-.3-2-1.8-2-1.2 0-1.8 1-2 2h3.8zM75 602.3v-2h1v1.2c.4-.6 1.2-1.3 2.4-1.3 1 0 2.4.6 2.4 3v4h-1.3v-4c0-1-.4-2-1.6-2-1 0-1.5.7-1.7 1.4v4.8h-1.4v-5zM84.3 598.4v2H86v1h-1.7v3.7c0 1 .2 1.4 1 1.4h.6v1h-1c-.7 0-1.2-.2-1.5-.5-.3-.5-.5-1-.5-2v-3.6h-1v-1h1v-1.6l1.3-.4z"/>
    </g>
    <path fill="none" stroke="#000" stroke-width=".799992" stroke-miterlimit="10" d="M34.5 605L71 568.4l36.3 36.4L71 641.2z"/>
    <g>
      <path d="M59.5 852.2c-.5.2-1.4.4-2.5.4-2.7 0-4.8-1.7-4.8-4.8 0-3 2-5 5-5 1.2 0 2 .2 2.3.4l-.3 1c-.5-.2-1-.4-2-.4-2.2 0-3.7 1.4-3.7 4 0 2.3 1.4 3.8 3.7 3.8.8 0 1.5-.2 2-.4l.3 1zM61 842.4h1.3v10H61v-10zM65.7 843.7c0 .4-.3.8-.7.8-.5 0-.8-.4-.8-.8 0-.5.3-.8.8-.8.4 0 .7.2.7.7zm-1.3 8.8v-7h1.2v7h-1.2zM68.4 849.3c0 1.7 1 2.4 2.3 2.4 1 0 1.5-.2 2-.4v1c-.3 0-1 .3-2 .3-2.3 0-3.5-1.4-3.5-3.4s1.2-3.7 3.2-3.7c2.3 0 2.8 2 2.8 3.2v.6h-4.8zm3.6-1c0-.7-.3-2-1.7-2-1.3 0-1.8 1.2-2 2H72zM74.8 847.5v-2h1v1.3c.5-.7 1.3-1.3 2.4-1.3 1 0 2.4.5 2.4 3v4h-1.2v-4c0-1-.4-2-1.6-2-.8 0-1.5.6-1.7 1.3v4.6h-1.2v-5zM84 843.6v2h2v1h-2v3.7c0 .8.4 1.3 1 1.3h.8v1h-1c-.6 0-1 0-1.4-.5-.4-.3-.5-1-.5-1.7v-3.7h-1.2v-1h1V844l1.3-.4z"/>
    </g>
    <path fill="none" stroke="#000" stroke-width=".799992" stroke-miterlimit="10" d="M34.3 850.2l36.4-36.4 36.4 36.4-36.3 36.4z"/>
    <path fill="none" stroke="#000" stroke-width="1.5" stroke-miterlimit="10" d="M70.8 641.3v172.4"/>
    <g>
      <path fill="none" stroke="#000" stroke-width="1.2" stroke-miterlimit="10" d="M157.5 646.7H70.8"/>
      <path d="M155.8 641l10 5.7-10 5.7"/>
    </g>
    <g>
      <path fill="none" stroke="#000" stroke-width="1.2" stroke-miterlimit="10" d="M79 804.3H166"/>
      <path d="M80.8 810l-10-5.7 10-5.8"/>
    </g>
    <path fill="#FFF" stroke="#000" stroke-width=".5" stroke-miterlimit="10" d="M165 680.6h126.3V711H165z"/>
    <g>
      <path d="M202.4 695.6v-2.3h1v1.2c.7-.8 1.4-1.3 2.6-1.3 1.6 0 2.8 1.4 2.8 3.4 0 2.5-1.5 3.7-3 3.7-1 0-1.7-.4-2-1h-.2v3.6h-1.2v-7.4zm1.2 1.8v.5c.3.7 1 1.3 2 1.3 1.2 0 2-1 2-2.6 0-1.4-.7-2.5-2-2.5-1 0-1.6.6-2 1.5v1.7zM214 700v-.7c-.4.5-1 1-2 1-1.5 0-2.2-1-2.2-2 0-1.6 1.5-2.5 4-2.5 0-.7 0-1.7-1.4-1.7-.6 0-1.3.3-1.8.6l-.3-.8c.6-.4 1.4-.6 2.3-.6 2 0 2.5 1.4 2.5 2.8v2.5c0 .6.2 1.2.3 1.6H214zm0-3.3c-1.4 0-3 .2-3 1.5 0 .8.6 1.2 1.2 1.2 1 0 1.5-.6 1.7-1.2v-1.4zM217.5 693.3l1.4 4c0 .5.3 1 .4 1.4 0-.4.3-1 .4-1.4l1.4-4h1.3l-2 5c-.7 2.2-1.3 3.4-2.2 4-.6.7-1.2 1-1.5 1l-.3-1 1-.7c.4-.3.8-.8 1-1.4.2 0 .2-.2.2-.3v-.4l-2.6-6.3h1.5zM223.6 690.2h1.2v10h-1.2v-10zM233 696.7c0 2.5-1.7 3.6-3.3 3.6-2 0-3.3-1.4-3.3-3.5 0-2.3 1.5-3.6 3.4-3.6 2 0 3.2 1.4 3.2 3.5zm-5.3 0c0 1.5.8 2.7 2 2.7s2-1.2 2-2.7c0-1-.5-2.6-2-2.6-1.4 0-2 1.5-2 2.7zM238.4 700v-.7h-.2c-.4.5-1 1-2 1-1.4 0-2-1-2-2 0-1.6 1.3-2.5 4-2.5 0-.7-.2-1.7-1.6-1.7-.6 0-1.3.3-1.8.6l-.2-.8c.5-.4 1.3-.6 2.2-.6 2 0 2.6 1.4 2.6 2.8v4.1h-1zm-.2-3.3c-1.4 0-3 .2-3 1.5 0 .8.6 1.2 1.3 1.2.8 0 1.4-.6 1.6-1.2l.2-.4v-1zM247.2 690.2V700h-1v-1c-.5.7-1.3 1.3-2.4 1.3-1.7 0-3-1.4-3-3.5 0-2.2 1.4-3.6 3-3.6 1 0 1.8.5 2 1h.2v-4h1.2zm-1.2 6v-.6c-.3-.8-1-1.4-2-1.4s-2 1-2 2.6c0 1.4.8 2.5 2 2.5 1 0 1.7-.6 2-1.5V696zM251.7 695.4v-.8h7.3v.8h-7.3zm0 2.8v-1h7.3v1h-7.3zM264.2 690.4l1.2 2h-1l-1.6-2h1.4zM267.4 699.4c0-.5.4-1 1-1 .4 0 .7.5.7 1s-.2 1-.7 1c-.5 0-1-.5-1-1zM270.3 699.4c0-.5.4-1 1-1 .4 0 .7.5.7 1s-.3 1-.8 1-1-.5-1-1zM273.2 699.4c0-.5.4-1 1-1 .4 0 .7.5.7 1s-.4 1-1 1c-.4 0-.8-.5-.8-1z"/>
    </g>
    <g>
      <path d="M216.8 648.3c.5.3 1.3.6 2.2.6 1.2 0 2-.7 2-1.7s-.6-1.4-1.8-2c-1.6-.4-2.5-1.2-2.5-2.5 0-1.5 1.2-2.6 3-2.6 1 0 1.7.2 2 .5l-.2 1c-.3-.2-1-.5-1.8-.5-1.3 0-1.8.8-1.8 1.4 0 1 .5 1.3 1.8 1.8 1.6.7 2.4 1.4 2.4 2.8 0 1.5-1 2.7-3.3 2.7-1 0-2-.3-2.5-.7l.3-1zM225.2 641v2h1.8v1h-1.8v3.6c0 .8.3 1.3 1 1.3.3 0 .5 0 .7-.2v1h-1.2c-.5 0-1 0-1.3-.4-.3-.4-.5-1-.5-1.8V644h-1v-1h1v-1.6l1.2-.3zM232 649.8v-1c-.4.7-1 1-2 1-1.4 0-2-.8-2-1.8 0-1.6 1.3-2.5 4-2.5v-.2c0-.5-.2-1.5-1.6-1.5-.6 0-1.3.2-1.8.5l-.3-.8c.6-.4 1.4-.6 2.3-.6 2 0 2.6 1.3 2.6 2.6v4.2h-1zm0-3.5c-1.4 0-3 .2-3 1.6 0 .7.6 1 1.3 1 .8 0 1.4-.5 1.6-1v-1.7zM235 645v-2h1.2v1.3c.4-1 1-1.4 2-1.4h.3v1h-.4c-.8 0-1.4.7-1.6 1.6v4.2H235V645zM241.5 641v2h1.8v1h-1.8v3.6c0 .8.3 1.3 1 1.3.3 0 .5 0 .7-.2v1h-1c-.6 0-1 0-1.4-.4-.3-.4-.5-1-.5-1.8V644h-1v-1h1v-1.6l1.2-.3z"/>
    </g>
    <g>
      <path d="M39 19.3V17h1l.2 1.2c.5-.8 1.3-1.3 2.4-1.3 1.7 0 3 1.3 3 3.4 0 2.4-1.6 3.6-3.2 3.6-1 0-1.7-.4-2-1v3.6H39v-7.3zm1.3 1.8v.6c.3.8 1 1.4 2 1.4 1.2 0 2-1 2-2.6 0-1.3-.8-2.5-2-2.5-1 0-1.7.5-2 1.4V21zM50.8 23.8V23c-.5.5-1.3 1-2.2 1-1.4 0-2-1-2-2 0-1.6 1.4-2.5 4-2.5 0-.7-.2-1.7-1.6-1.7-.6 0-1.2.2-1.7.5l-.3-.8c.6-.4 1.4-.6 2.2-.6 2 0 2.6 1.3 2.6 2.7v4.1h-1zm-.2-3.4c-1.3 0-3 .2-3 1.5 0 .7.7 1 1.3 1 .8 0 1.3-.5 1.5-1v-1.6zM53.6 22.6c.4.2 1 .5 1.6.5 1 0 1.4-.4 1.4-1 0-.5-.4-.8-1.3-1.2-1.2-.4-1.8-1-1.8-2s1-2 2.3-2c.7 0 1.3.3 1.7.5l-.3 1c-.3-.2-.8-.5-1.4-.5-.7 0-1 .5-1 1s.3.8 1.2 1c1 .6 1.8 1 1.8 2 0 1.3-1 2.2-2.6 2.2-.7 0-1.4-.2-2-.5l.4-1zM59.2 22.6c.3.2 1 .5 1.6.5 1 0 1.3-.4 1.3-1 0-.5-.2-.8-1.2-1.2-1.2-.4-1.7-1-1.7-2s1-2 2.4-2c.7 0 1.3.3 1.7.5l-.3 1c-.2-.2-.7-.5-1.3-.5-.8 0-1.2.5-1.2 1s.4.8 1.3 1c1.2.6 1.8 1 1.8 2 0 1.3-1 2.2-2.5 2.2-.8 0-1.5-.2-2-.5l.4-1zM66.4 15v2H68v1h-1.6v3.7c0 .8.2 1.3 1 1.3h.6v.8l-1 .2c-.6 0-1-.2-1.4-.5-.3-.4-.4-1-.4-1.8V18h-1v-1h1v-1.6l1.2-.3zM69.5 14h1.2v4l1-.7c.3-.3.8-.4 1.2-.4.8 0 2.3.5 2.3 2.8v4H74v-4c0-1-.4-2-1.5-2-.8 0-1.4.7-1.7 1.4v4.5h-1.3V14zM77.3 19.2v-2h1v1.2c.4-1 1.2-1.5 2-1.5h.3v1h-.4c-1 0-1.5.7-1.6 1.7v4.1h-1.3v-4.6zM88 20.4c0 2.5-2 3.6-3.5 3.6-2 0-3.3-1.3-3.3-3.5 0-2.3 1.5-3.6 3.4-3.6 2 0 3.3 1.3 3.3 3.4zm-5.5 0c0 1.5.8 2.7 2 2.7s2-1 2-2.6c0-1-.5-2.6-2-2.6-1.4 0-2 1.4-2 2.7zM95 22v1.8h-1v-1c-.4.5-1 1.2-2.3 1.2-1 0-2.3-.6-2.3-3v-4h1.2V21c0 1.3.4 2.2 1.5 2.2 1 0 1.5-.6 1.7-1V17h1.4V22zM103 17v6c0 1.4-.4 2.4-1 3-.7.6-1.7.8-2.5.8s-1.7-.2-2.3-.6l.3-1c.5.3 1.2.6 2 .6 1.3 0 2.2-.7 2.2-2.4v-.7c-.4.6-1 1-2.2 1-1.7 0-3-1.3-3-3.2 0-2.3 1.6-3.6 3.2-3.6 1.2 0 1.8.5 2 1l.2-1h1zm-1.3 2.7v-.5c-.3-.7-1-1.3-1.8-1.3-1.3 0-2 1-2 2.4s.5 2.5 2 2.5c.6 0 1.3-.6 1.6-1.4v-1.9zM105 14h1.2v4c.2-.2.5-.5 1-.7.3-.3.7-.4 1-.4 1 0 2.5.5 2.5 2.8v4h-1.2v-4c0-1-.4-2-1.6-2-1 0-1.5.7-1.7 1.4v4.5h-1.4V14z"/>
    </g>
    <g>
      <path d="M47.7 80.5v-2.2h1v1.2c.6-.8 1.4-1.3 2.5-1.3 1.7 0 3 1.4 3 3.4 0 2.5-1.6 3.7-3.2 3.7-1 0-1.6-.4-2-1v3.6h-1.3v-7.5zm1.2 1.8v.5c.2 1 1 1.5 1.8 1.5 1.3 0 2-1 2-2.6 0-1.4-.6-2.6-2-2.6-.8 0-1.6.8-1.8 1.7v1.5zM59.4 85v-.8c-.5.6-1.2 1-2.2 1-1.4 0-2-1-2-2 0-1.5 1.4-2.4 4-2.4v-.2c0-.5 0-1.5-1.5-1.5-.7 0-1.3.3-1.8.6l-.4-.8c.6-.4 1.4-.6 2.3-.6 2 0 2.4 1.4 2.4 2.7V85h-1zm-.2-3.4c-1.3 0-2.8.3-2.8 1.6 0 .8.5 1 1 1 1 0 1.6-.4 1.8-1v-1.6zM62.3 83.8c.3.3 1 .5 1.6.5.8 0 1.2-.4 1.2-1s-.4-1-1.3-1.2c-1.3-.4-2-1-2-1.8 0-1 1-2 2.5-2 .7 0 1.3.2 1.6.4l-.2 1c-.2-.3-.7-.5-1.4-.5s-1 .5-1 1c0 .6.3.8 1.2 1.2 1.2.4 1.8 1 1.8 2 0 1.2-1 2-2.6 2-.7 0-1.4 0-2-.4l.5-1zM67.8 83.8c.4.3 1 .5 1.6.5 1 0 1.3-.4 1.3-1s-.3-1-1.2-1.2c-1.2-.4-1.8-1-1.8-1.8 0-1 1-2 2.3-2 .7 0 1.3.2 1.7.4l-.3 1c-.3-.3-.8-.5-1.4-.5-.7 0-1 .5-1 1 0 .6.3.8 1 1.2 1.3.4 2 1 2 2 0 1.2-1 2-2.6 2-.8 0-1.4 0-2-.4l.4-1zM75 76.4v2h1.8v1H75v3.5c0 .8.2 1.2 1 1.2h.6v1h-1c-.6 0-1 0-1.3-.5-.4-.3-.5-1-.5-1.7v-3.7h-1v-1h1v-1.6l1.2-.3zM78 75.2h1.4v4.2c.2-.4.5-.7 1-1l1-.2c1 0 2.5.5 2.5 3v4h-1.3v-4c0-1-.4-2-1.6-2-.7 0-1.3.6-1.5 1.2V85H78v-9.8zM86 80.4v-2h1v1.3c.3-1 1-1.5 2-1.5h.3v1.2h-.5c-.8 0-1.4.6-1.6 1.5V85h-1.3v-4.6zM96.5 81.7c0 2.5-1.8 3.6-3.4 3.6-1.7 0-3-1.4-3-3.5 0-2.3 1.3-3.6 3.2-3.6 2 0 3.3 1.4 3.3 3.5zm-5.4 0c0 1.5 1 2.6 2.2 2.6 1 0 2-1 2-2.6 0-1-.6-2.6-2-2.6-1.5 0-2 1.4-2 2.7zM103.7 83.3V85h-1v-1c-.4.5-1.2 1.3-2.4 1.3-1 0-2.3-.6-2.3-3v-4h1.2V82c0 1.4.4 2.2 1.5 2.2 1 0 1.4-.5 1.7-1v-4.9h1.3v5zM111.6 78.3V84c0 1.7-.4 2.6-1 3.2-.7.6-1.6.8-2.5.8-.7 0-1.6-.2-2.2-.5l.4-1c.4.3 1 .6 2 .6 1.2 0 2-.6 2-2.3V84c-.3.6-1 1-2 1-1.7 0-3-1.4-3-3.2 0-2.3 1.6-3.6 3-3.6 1.3 0 2 .6 2.2 1v-1h1.2zm-1.3 2.7v-.6c-.3-.7-1-1.3-1.8-1.3-1.2 0-2 1-2 2.7 0 1.3.7 2.4 2 2.4.8 0 1.5-.3 1.7-1v-2zM113.6 75.2h1.2v4.2c.2-.4.5-.7 1-1l1.2-.2c1 0 2.3.5 2.3 3v4H118v-4c0-1-.3-2-1.5-2-.8 0-1.4.6-1.6 1.2-.2.2-.2.4-.2.6v4h-1.2v-9.8z"/>
    </g>
    <g>
      <path d="M39.7 457.7V456h1v1c.5-.6 1.2-1.3 2.4-1.3 1 0 2.5.6 2.5 3v4h-1.3v-4c0-1-.4-2-1.5-2-1 0-1.5.6-1.7 1.3v4.6h-1.3v-5zM47.7 456l1.5 4c.2.3.3 1 .4 1.3l.5-1.4 1.4-4h1.3l-1.8 4.7c-1 2.4-1.6 3.5-2.4 4.3-.6.5-1.2.7-1.5.8l-.2-1 1-.7c.4 0 .8-.6 1-1.2 0-.2.2-.3.2-.3v-.4l-2.6-6h1.3zM53.6 461.4c.4.2 1 .5 1.6.5 1 0 1.4-.5 1.4-1 0-.7-.4-1-1.3-1.4-1.2-.4-1.8-1-1.8-2s1-2 2.3-2c.7 0 1.3.3 1.7.6l-.3 1c-.3-.3-.8-.5-1.4-.5-.7 0-1 .4-1 1 0 .4.3.7 1.2 1 1 .5 1.7 1 1.7 2 0 1.3-1 2-2.5 2-.7 0-1.4 0-2-.4l.4-1zM60 459.5c0 1.7 1 2.4 2.3 2.4 1 0 1.5-.3 2-.5v1c-.3 0-1 .3-2 .3-2.2 0-3.5-1.4-3.5-3.4s1.2-3.7 3.2-3.7c2.2 0 2.8 2 2.8 3.2v.5H60zm3.6-1c0-.7-.3-2-1.7-2-1.3 0-2 1.3-2 2h3.6zM66.2 461.2c.6.3 1.4.6 2.2.6 1.2 0 2-.7 2-1.6 0-1-.5-1.4-1.8-2-1.5-.4-2.5-1.2-2.5-2.6 0-1.4 1.3-2.5 3.2-2.5 1 0 1.6.3 2 .5l-.3 1c-.4 0-1-.4-2-.4-1.2 0-1.7 1-1.7 1.5 0 1 .6 1.3 2 1.8 1.5.6 2.3 1.4 2.3 2.8 0 1.6-1 2.8-3.3 2.8-1 0-2-.3-2.4-.6l.2-1zM74.7 454v2h1.7v.8h-1.7v3.7c0 .8.2 1.3 1 1.3h.6v.8l-1 .2c-.6 0-1-.2-1.3-.5-.4-.4-.5-1-.5-1.8v-3.7h-1v-1h1v-1.5l1.2-.4zM84 459.2c0 2.5-2 3.6-3.5 3.6-1.8 0-3.2-1.3-3.2-3.5s1.4-3.6 3.3-3.6c2 0 3.3 1.5 3.3 3.5zm-5.5 0c0 1.6 1 2.7 2 2.7 1.2 0 2-1.2 2-2.7 0-1.2-.5-2.6-2-2.6-1.4 0-2 1.3-2 2.6zM90.3 462.4c-.4.2-1 .4-2 .4-2 0-3.4-1.4-3.4-3.4s1.4-3.6 3.6-3.6c.7 0 1.4 0 1.7.3l-.3 1c-.3 0-.7-.3-1.4-.3-1.6 0-2.4 1.2-2.4 2.6 0 1.6 1 2.5 2.3 2.5.7 0 1.2-.2 1.6-.3l.3 1zM93 459c0-.2.4-.5.6-.8l2-2.3H97l-2.6 2.7 3 4H96l-2.4-3.3-.7.7v2.7h-1.3v-10H93v6.3zM106 464l-3.5-1-.6-.2c-2.3 0-4.2-1.7-4.2-4.8 0-3 1.8-5 4.4-5 2.5 0 4.2 2 4.2 5 0 2.3-1 3.8-2.7 4.4l2.8.6-.4 1zm-1-6c0-2-1-4-3-4s-3 2-3 4 1.2 3.8 3 3.8c2 0 3-1.7 3-4zM113.6 460.8v2h-1v-1.2c-.4.5-1 1.2-2.3 1.2-1 0-2.4-.6-2.4-3v-4h1.2v3.8c0 1.3.3 2.2 1.5 2.2.8 0 1.4-.6 1.6-1V456h1.3v4.8zM121.8 459.2c0 2.5-1.7 3.6-3.4 3.6-1.8 0-3.2-1.3-3.2-3.5s1.5-3.6 3.3-3.6c2 0 3.3 1.5 3.3 3.5zm-5.4 0c0 1.6 1 2.7 2 2.7 1.3 0 2-1.2 2-2.7 0-1.2-.4-2.6-2-2.6-1.3 0-2 1.3-2 2.6zM124.8 454v2h1.8v.8h-1.8v3.7c0 .8.3 1.3 1 1.3h.7v.8l-1 .2c-.6 0-1-.2-1.4-.5-.2-.4-.4-1-.4-1.8v-3.7h-1v-1h1v-1.5l1.2-.4zM128.6 459.5c0 1.7 1 2.4 2.3 2.4.8 0 1.3-.3 1.8-.5l.2 1c-.4 0-1.2.3-2.2.3-2 0-3.4-1.4-3.4-3.4s1.2-3.7 3.2-3.7c2.2 0 2.8 2 2.8 3.2v.5h-4.8zm3.6-1c0-.7-.3-2-1.7-2-1.2 0-1.8 1.3-2 2h3.7z"/>
    </g>
    <g>
      <path d="M50.5 524.2c.5.3 1.3.6 2.2.6 1.2 0 2-.7 2-1.6 0-1-.5-1.4-1.8-2-1.7-.4-2.6-1.2-2.6-2.6 0-1.4 1.2-2.5 3-2.5 1 0 1.7.3 2 .5l-.2 1c-.3 0-1-.4-1.8-.4-1.3 0-1.8.8-1.8 1.5 0 1 .6 1.3 2 1.8 1.5.6 2.3 1.4 2.3 2.8 0 1.5-1.2 2.8-3.4 2.8-1 0-2-.3-2.4-.6l.3-1zM59 517v2h1.7v.8H59v3.7c0 .8.2 1.3 1 1.3h.6v.8l-1 .2c-.6 0-1-.2-1.4-.5-.3-.4-.4-1-.4-1.8v-3.7h-1v-1h1v-1.5l1.2-.4zM68.2 522.2c0 2.5-1.8 3.6-3.4 3.6-1.8 0-3.3-1.3-3.3-3.5s1.5-3.6 3.4-3.6c2 0 3.2 1.4 3.2 3.5zm-5.4 0c0 1.6.8 2.7 2 2.7s2-1.2 2-2.7c0-1.2-.5-2.6-2-2.6-1.4 0-2 1.3-2 2.6zM74.6 525.4c-.4.2-1 .4-2 .4-2 0-3.4-1.4-3.4-3.5 0-2 1.5-3.6 3.7-3.6.6 0 1.2.2 1.6.4l-.3 1c-.3 0-.8-.3-1.4-.3-1.7 0-2.5 1.2-2.5 2.6 0 1.6 1 2.5 2.3 2.5.7 0 1.2-.2 1.5-.3l.3 1zM77.2 522l.6-.8 2-2.3h1.5l-2.6 2.7 3 4h-1.5l-2.4-3.3-.6.7v2.7H76v-10h1.2v6.3zM82.4 524.4c.4.2 1 .5 1.6.5 1 0 1.3-.6 1.3-1 0-.7-.3-1-1.2-1.4-1-.4-1.7-1-1.7-2s1-2 2.3-2c.7 0 1.3.3 1.7.5l-.3 1c-.3 0-.8-.3-1.4-.3-.7 0-1 .4-1 1 0 .4.3.7 1 1 1.3.5 2 1 2 2 0 1.3-1 2-2.6 2-.8 0-1.4 0-2-.4l.4-1z"/>
    </g>
    <text transform="translate(-138.333 672.334)" font-family="'MyriadPro-Regular'" font-size="14">
      message:set..
    </text>
    <path fill="#FFF" stroke="#000" stroke-width=".5" stroke-miterlimit="10" d="M165 731.5h126.3V762H165z"/>
    <g>
      <path d="M191.4 746v-1.8h1v1c.5-.5 1-1 2.3-1 1 0 1.6.4 2 1.2 0-.3.4-.6.7-.8.4-.3.8-.5 1.5-.5.8 0 2 .7 2 3v4h-1v-3.8c0-1.3-.6-2-1.6-2-.7 0-1.2.4-1.5 1v4.8h-1.4v-4c0-1-.4-2-1.4-2-.7 0-1.3.7-1.5 1.3v4.6h-1.3v-5zM203.8 748c0 1.5 1 2.2 2.3 2.2 1 0 1.5 0 2-.3l.2.7c-.5.2-1.2.5-2.3.5-2.2 0-3.4-1.4-3.4-3.5 0-2 1.2-3.6 3.2-3.6 2.2 0 2.8 2 2.8 3.3v.6h-4.8zm3.6-1c0-.8-.3-2-1.7-2-1.3 0-1.8 1-2 2h3.7zM210 749.8c.3.2 1 .5 1.6.5.8 0 1.3-.5 1.3-1 0-.6-.5-1-1.4-1.3-1.2-.4-1.8-1-1.8-2s1-2 2.4-2c.6 0 1.2.3 1.6.5l-.3 1c-.3-.3-.7-.5-1.4-.5-.6 0-1 .4-1 1 0 .5.4.7 1.3 1 1.2.5 1.8 1 1.8 2 0 1.3-1 2.2-2.5 2.2-.7 0-1.4-.2-2-.5l.4-1zM215.5 749.8c.3.2 1 .5 1.6.5 1 0 1.4-.5 1.4-1 0-.6-.3-1-1.3-1.3-1-.4-1.6-1-1.6-2s.8-2 2.3-2c.7 0 1.3.3 1.7.5l-.3 1c-.2-.3-.7-.5-1.3-.5-.8 0-1.2.4-1.2 1 0 .5.4.7 1.3 1 1.2.5 1.8 1 1.8 2 0 1.3-1 2.2-2.5 2.2-.7 0-1.4-.2-1.8-.5l.3-1zM225 751l-.2-.8c-.4.5-1 1-2 1-1.5 0-2.2-1-2.2-2 0-1.6 1.5-2.5 4-2.5 0-.7 0-1.7-1.4-1.7-.6 0-1.3.2-1.8.5l-.3-.8c.7-.4 1.5-.6 2.4-.6 2 0 2.5 1.5 2.5 3v4h-1zm-.2-3.4c-1.4 0-3 .2-3 1.5 0 1 .6 1.3 1.2 1.3 1 0 1.5-.6 1.7-1.2v-1.3zM233.8 744.2v5.8c0 1.6-.4 2.5-1 3-.7.8-1.7 1-2.5 1s-1.7-.2-2.3-.6l.3-1c.5.3 1.2.6 2 .6 1.3 0 2.2-.7 2.2-2.4v-.7c-.4.5-1 1-2.2 1-1.7 0-3-1.4-3-3.3 0-2.3 1.6-3.6 3.2-3.6 1.2 0 1.8.7 2 1.3l.2-1h1zm-1.3 2.7v-.6c-.3-.8-1-1.3-1.8-1.3-1.2 0-2 1-2 2.6 0 1.3.7 2.5 2 2.5.7 0 1.4-.4 1.7-1.2V747zM236.4 748c0 1.5 1 2.2 2.4 2.2.8 0 1.4 0 1.8-.3l.3.7c-.6.2-1.3.5-2.4.5-2 0-3.3-1.4-3.3-3.5 0-2 1.2-3.6 3-3.6 2.4 0 3 2 3 3.3v.6h-5zm3.7-1c0-.8-.3-2-1.7-2-1.2 0-1.7 1-1.8 2h3.6zM242.5 745.4c0-.6.3-1 .8-1s.8.4.8 1c0 .5-.2.8-.7.8-.5 0-.8-.3-.8-.8zm0 5c0-.6.3-1 .8-1s.8.4.8 1c0 .4-.2.8-.7.8-.5 0-.8-.4-.8-1zM245.5 749.8c.4.2 1 .5 1.6.5 1 0 1.4-.5 1.4-1 0-.6-.3-1-1.2-1.3-1.2-.4-1.8-1-1.8-2s1-2 2.3-2c.7 0 1.3.3 1.7.5l-.3 1c-.2-.3-.7-.5-1.3-.5-.7 0-1 .4-1 1 0 .5.3.7 1.2 1 1 .5 1.6 1 1.6 2 0 1.3-1 2.2-2.5 2.2-.6 0-1.3-.2-1.8-.5l.3-1zM252 748c0 1.5 1 2.2 2.2 2.2 1 0 1.4 0 2-.3v.7c-.3.2-1 .5-2 .5-2.2 0-3.5-1.4-3.5-3.5 0-2 1.2-3.6 3.2-3.6s2.7 2 2.7 3.3v.6H252zm3.5-1c0-.8-.3-2-1.7-2-1.2 0-1.8 1-2 2h3.7zM259.7 742.3v2h1.8v1h-1.8v3.5c0 1 .2 1.4 1 1.4h.7v.8l-1 .2c-.7 0-1-.2-1.4-.6-.4-.3-.5-1-.5-1.7V745h-1v-1h1v-1.6l1.2-.3zM262.5 750.3c0-.5.4-1 1-1 .4 0 .7.5.7 1s-.3 1-1 1c-.3 0-.7-.5-.7-1zM265.4 750.3c0-.5.4-1 1-1 .4 0 .7.5.7 1s-.2 1-.8 1c-.4 0-.8-.5-.8-1z"/>
    </g>
    <path fill="none" stroke="#000" stroke-width=".5" stroke-miterlimit="10" d="M229.6 761.5v22M229 710v22M229.6 660v21.8"/>
  </g>
</svg>
