<svg xmlns="http://www.w3.org/2000/svg" width="500" height="920.3"><path fill="none" stroke="#000" stroke-width=".5" stroke-miterlimit="10" d="M20 70.8h460V421H20V70.8z"/><path fill="#FFF" stroke="#000" stroke-width=".5" stroke-miterlimit="10" d="M10 9.3h482v21H10v-21z"/><path fill="#939598" d="M441.8 22.2v-3h.7V23H435v-7.6h3.7v.7h-2.9v6.2h6v-.1zm-.4-5.5l-1-.8.4-.6 1.7 1.6-1.4 1.6-.3-.5.6-.7c-1.8.2-3 1-4 2.2 0 .3-.3.6-.4 1-.2.2-.3.5-.3.7v.3h-.6v-.3l.3-.6c0-.3 0-.6.3-1l.5-.8 1-1 1.5-.7 2-.3-.3-.1zm14.4 5.5v-3h.7V23H449v-7.6h3.7v.7h-2.9v6.2h6v-.1zm.7-6.8v.6h-.3s-.4 0-.7.2c-.4 0-.7.3-1 .5-1.2.8-2 2-2 4l.7-.7.4.4-1.6 1.4-1.5-1.7.4-.3.8 1c0-.7.2-1.4.4-2 .2-.6.4-1 .7-1.3l.8-1 1-.5c.3-.3.6-.4.8-.4l.7-.2h.4zm8.7 0h3v1h1.7v1h-6.7v-1h2v-1zm-1.4 2.7h5.7v5h-5.7v-5zm1.3.7v3.6h1v-3.6h-1zm2.3 0v3.6h1v-3.6h-1zm13.6 2.4l-4-3.6.7-.6 3.2 3 3-3 .7.7-3.8 3.5h.2z"/><path fill="#939598" stroke="#000" stroke-width=".3" stroke-miterlimit="10" d="M431.3 15.3v8m14.3-7.6v8m14.2-8.4v8m13.7-8v8"/><path d="M9.8 9.3h18v21H10l-.2-21z"/><path fill="#FFF" d="M22 16.7l-.3.5h-1l-.5 2.7-1 2.7c-.4 1-1 1.5-1.4 2l-1 .3c-.4 0-.6 0-.7-.3v-.7h.7v.7h.7c0-.2.3-.3.5-.6l.3-1 .5-1.6 1-4.2h-1v-.5h.8l.4-.3.4-.8.7-1 1-1 1-.2c.4 0 .6 0 .8.2.2.2.3.3.3.5v.5h-.7s-.2 0-.2-.2l.2-.3v-.2s0-.2-.2-.2c-.3 0-.5 0-.7.3-.3 0-.5.4-.7 1-.2.2-.4.8-.7 1.7h1-.2z"/><path d="M35.3 49.8c1-1 2.3-1.6 3.8-1.6s2.8.5 3.8 1.6c1 1 1.6 2.3 1.6 3.7 0 1.5-.5 2.7-1.6 3.8-1.1 1.1-2.3 1.5-3.7 1.5-1.4 0-2.6-.5-3.7-1.5S34 55 34 53.5c0-1.4.5-2.7 1.5-3.7h-.2zm2 5.8v-.4c-.3 0-.4-.2-.4-.4v-.7c0-.2-.2-.4-.4-.5.2 0 .3-.3.3-.5v-.8c0-.2 0-.3.2-.3h.2v-.5H37c-.5 0-.8.2-.8.7v.8c0 .2 0 .4-.2.4v.3c.2 0 .3 0 .3.3v.8c0 .5.2.8.7.8H37.3zm2-.6l1-3h-.5l-.5 1.5-.2 1c0-.3 0-.6-.2-1l-.5-1.4h-.5l1 3h.5l-.1-.1zm2.7-1.3v-.3c-.2 0-.4-.2-.4-.4v-.8c0-.5 0-.7-.7-.7h-.2v.4c.4 0 .5 0 .5.2v.8c0 .2 0 .4.2.5-.2 0-.3.3-.3.6v.8c0 .2 0 .4-.3.4h-.2v.4h.2c.5 0 .7-.3.7-.8V54c0-.2 0-.3.3-.3h.2z"/><path fill="#AEADAE" d="M46 49.6h7.5V57H46v-7.4z"/><path fill="#FFF" d="M52 53v.5h-2v2h-.5v-2h-2V53h2v-2h.5v2h2z"/><path fill="#EFEFEF" d="M55.2 48.2H66V59H55l.2-10.8z"/><path fill="#8D8D8D" d="M58.6 53.3l3-3 .4.4-2.5 2.6L62 56l-.5.4-3-3 .1-.1z"/><path fill="none" stroke="#000" stroke-width=".5" stroke-miterlimit="10" d="M10 30.3h482V433H10V30.3z"/><path fill="#FFF" stroke="#000" stroke-width=".5" stroke-miterlimit="10" d="M20 71h460v21H20V71z"/><path fill="#939598" d="M430 83.8v-3h.6v3.7H423V77h4v.7h-3.2v6h6l.2.1zm-.5-5.5l-1-1 .5-.3 1.6 1.6-1.4 1.5-.4-.3.7-.8c-2 0-3.2.8-4 2l-.5 1v.8l-.2.3h-.6V83l.2-.6.3-1c0-.2.3-.5.6-.8.2-.4.5-.7 1-1 .3-.2.7-.5 1.3-.7l2-.4-.1-.2zm14.5 5.5v-3h.6v3.7H437V77h4v.7h-3.2v6h6l.2.1zm.6-6.8v.6h-.3l-.7.2c-.4 0-.7.3-1 .5-1.2.8-2 2-2 4l.7-.8.4.5-1.6 1.4-1.4-1.7.4-.4 1 1c0-.7 0-1.4.3-2l.7-1.3 1-1 1-.6.8-.3h.8l-.1-.1zm8.7 0h3v1h1.8v1h-6.6v-1h2v-1h-.2zm-1.4 2.6h5.6v5H452v-5h-.1zm1.2.7v3.5h1v-3.5h-1zm2.2 0v3.5h1v-3.5h-1zm13.7 2.5l-3.7-3.6.5-.6 3.2 3 3.3-3 .5.6-3.8 3.6z"/><path fill="#939598" stroke="#000" stroke-width=".3" stroke-miterlimit="10" d="M433.8 76.7V85m14.2-8.7v8.2m13.6-7.7V85"/><path d="M20 71h18v20.8H20V71z"/><path fill="#FFF" d="M32 78.3v.4h-1l-.7 2.7c-.3 1.2-.6 2.2-1 2.8-.4 1-.8 1.6-1.3 2l-1.2.3c-.2 0-.4 0-.6-.2L26 86c0-.2 0-.3.2-.4l.4-.2h.2l.2.4-.2.2v.2h.7l.5-.6.5-1L29 83l1-4.3h-1v-.4h.7l.4-.3.6-.8c.2-.5.4-1 .7-1 .3-.5.6-.8 1-1 .3-.2.6-.2 1-.2.2 0 .5 0 .6.2l.2.5v.4c-.2.2-.3.2-.5.2h-.3V75.4c0-.2 0-.2-.2-.2-.3 0-.5 0-.7.3-.3.2-.6.5-.8 1l-.6 1.8h1-.1z"/><path d="M45.5 111.3c1-1 2.3-1.5 3.7-1.5 1.4 0 2.7.5 3.8 1.5 1 1 1.5 2.3 1.5 3.8 0 1.6-.5 2.8-1.5 3.8s-2.3 1.6-3.8 1.6-2.7-.5-3.7-1.6-1.6-2.2-1.6-3.7c0-1.4.4-2.6 1.5-3.7l.1-.2zm2 5.8v-.2c-.4 0-.5-.2-.5-.4v-.8c0-.2 0-.4-.2-.5.2 0 .3-.2.3-.5v-.7c0-.2 0-.4.4-.4v-.3c-.6 0-.8.3-.8.8v.8c0 .2 0 .3-.3.3v.3c.2 0 .4 0 .4.3v.8c0 .5 0 .7.6.7h.2l-.1-.2zm2-.5l1-3H50l-.5 1.6-.3 1c0-.2 0-.5-.3-1l-.5-1.4H48l1 3h.4l.1-.2zm2.7-1.2v-.4c-.3 0-.4-.2-.4-.4v-.8c0-.5-.2-.7-.7-.7v.4c.3 0 .4.2.4.4v.8c0 .3 0 .5.2.6l-.2.6v.8c0 .2 0 .4-.3.4v.3c.6 0 1 0 1-.6l-.2-.4v-.4c0-.2 0-.3.3-.3h.2l-.3-.3z"/><path fill="#AEADAE" d="M56.2 111.2h7.4v7.4h-7.4v-7.4z"/><path fill="#FFF" d="M62.2 114.6v.5h-2v2.2h-.6v-2h-2v-.6h2v-2h.5v2h2.2l-.1-.1z"/><path fill="#EFEFEF" d="M65.3 109.8H76v10.7H65.3v-10.7z"/><path fill="#8D8D8D" d="M68.8 115l3-3.2.4.5-2.6 2.6 2.5 2.5-.4.5-2.8-3-.1.1z"/><g><path fill="#FFF" stroke="#000" stroke-width=".8" stroke-miterlimit="10" d="M165.4 137.8h125v30.5h-125v-30.5z"/><path d="M181.58 146.3c.63-.12 1.52-.2 2.37-.2 1.32 0 2.18.25 2.77.8.5.42.76 1.07.76 1.8 0 1.27-.8 2.1-1.8 2.45v.05c.73.25 1.17.93 1.4 1.93.3 1.33.54 2.26.74 2.63h-1.28c-.16-.27-.37-1.1-.64-2.3-.28-1.3-.8-1.8-1.92-1.85h-1.16v4.16h-1.24v-9.45zm1.23 4.37h1.28c1.32 0 2.16-.72 2.16-1.82 0-1.23-.9-1.77-2.2-1.8-.6 0-1.03.07-1.23.13v3.5zM189.93 152.54c.03 1.7 1.1 2.4 2.36 2.4.88 0 1.42-.16 1.9-.36l.2.9c-.44.2-1.2.42-2.28.42-2.12 0-3.38-1.4-3.38-3.47s1.22-3.7 3.22-3.7c2.25 0 2.84 1.97 2.84 3.23 0 .26-.03.46-.04.6h-4.83zm3.66-.9c0-.78-.33-2.02-1.74-2.02-1.26 0-1.82 1.17-1.92 2.03h3.66zM196.18 154.48c.37.24 1.02.5 1.64.5.9 0 1.34-.46 1.34-1.03 0-.6-.35-.92-1.28-1.26-1.23-.45-1.82-1.13-1.82-1.96 0-1.1.9-2.02 2.38-2.02.7 0 1.3.2 1.7.43l-.33.9c-.26-.16-.75-.4-1.4-.4-.73 0-1.14.44-1.14.95 0 .57.4.82 1.3 1.17 1.2.45 1.8 1.05 1.8 2.07 0 1.2-.93 2.06-2.56 2.06-.76 0-1.45-.2-1.93-.47l.3-.95zM208.2 152.26c0 2.54-1.77 3.65-3.43 3.65-1.86 0-3.3-1.35-3.3-3.52 0-2.3 1.5-3.66 3.4-3.66 2 0 3.32 1.44 3.32 3.54zm-5.46.07c0 1.5.86 2.65 2.1 2.65 1.18 0 2.07-1.13 2.07-2.67 0-1.16-.57-2.64-2.05-2.64s-2.1 1.37-2.1 2.67zM215.52 153.88c0 .7 0 1.34.06 1.88h-1.1l-.08-1.13h-.03c-.33.56-1.05 1.28-2.27 1.28-1.08 0-2.37-.6-2.37-3v-4.02h1.25v3.8c0 1.3.4 2.2 1.53 2.2.85 0 1.43-.6 1.66-1.14.07-.2.1-.4.1-.64v-4.22h1.26v5zM217.6 151.03c0-.8-.02-1.5-.07-2.15h1.1l.04 1.35h.06c.3-.92 1.06-1.5 1.9-1.5.14 0 .24 0 .35.04v1.18c-.12-.03-.25-.05-.42-.05-.88 0-1.5.67-1.68 1.6-.02.18-.05.38-.05.6v3.66h-1.24v-4.73zM227 155.5c-.33.17-1.06.4-1.98.4-2.08 0-3.43-1.4-3.43-3.5 0-2.13 1.44-3.66 3.7-3.66.73 0 1.38.18 1.72.35l-.28.96c-.3-.17-.77-.33-1.45-.33-1.6 0-2.44 1.17-2.44 2.6 0 1.6 1.02 2.57 2.4 2.57.7 0 1.17-.18 1.52-.34l.2.94zM229.06 152.54c.03 1.7 1.1 2.4 2.36 2.4.9 0 1.44-.16 1.9-.36l.22.9c-.44.2-1.2.42-2.3.42-2.1 0-3.37-1.4-3.37-3.47s1.22-3.7 3.23-3.7c2.24 0 2.84 1.97 2.84 3.23 0 .26-.03.46-.05.6h-4.84zm3.67-.9c0-.78-.33-2.02-1.73-2.02-1.27 0-1.82 1.17-1.92 2.03h3.65zM237.1 155.76l-2.44-9.58h1.3l1.14 4.85c.3 1.2.54 2.38.7 3.3h.04c.16-.94.45-2.08.78-3.32l1.28-4.82h1.3l1.16 4.86c.27 1.14.52 2.27.67 3.28h.02c.2-1.05.47-2.1.77-3.3l1.26-4.84h1.27l-2.7 9.58h-1.3l-1.2-5c-.3-1.2-.5-2.15-.64-3.12h-.02c-.17.96-.38 1.9-.74 3.13l-1.36 5h-1.3zM253.25 152.26c0 2.54-1.76 3.65-3.43 3.65-1.86 0-3.3-1.35-3.3-3.52 0-2.3 1.5-3.66 3.42-3.66 1.97 0 3.3 1.44 3.3 3.54zm-5.46.07c0 1.5.86 2.65 2.08 2.65 1.2 0 2.1-1.13 2.1-2.67 0-1.16-.6-2.64-2.07-2.64-1.47 0-2.1 1.37-2.1 2.67zM254.82 151.03c0-.8 0-1.5-.05-2.15h1.1l.03 1.35h.06c.3-.92 1.06-1.5 1.9-1.5.14 0 .24 0 .36.04v1.18c-.13-.03-.26-.05-.43-.05-.9 0-1.52.67-1.7 1.6 0 .18-.04.38-.04.6v3.66h-1.24v-4.73zM260.76 152.03h.03c.16-.24.4-.54.6-.78l2.02-2.37h1.5l-2.66 2.83 3.03 4.06h-1.53l-2.37-3.3-.64.7v2.6h-1.24v-10.1h1.24v6.38zM266.88 152.54c.03 1.7 1.1 2.4 2.36 2.4.9 0 1.43-.16 1.9-.36l.2.9c-.43.2-1.18.42-2.27.42-2.12 0-3.38-1.4-3.38-3.47s1.2-3.7 3.2-3.7c2.25 0 2.85 1.97 2.85 3.23 0 .26-.03.46-.04.6h-4.82zm3.66-.9c.02-.78-.32-2.02-1.73-2.02-1.25 0-1.8 1.17-1.9 2.03h3.64zM273.3 151.03c0-.8-.02-1.5-.06-2.15h1.1l.04 1.35h.05c.32-.92 1.07-1.5 1.9-1.5.15 0 .25 0 .36.04v1.18c-.14-.03-.26-.05-.43-.05-.9 0-1.5.67-1.68 1.6-.04.18-.07.38-.07.6v3.66h-1.23v-4.73z"/><path fill="#FFF" stroke="#000" stroke-width=".5" stroke-miterlimit="10" d="M165.4 190.3h126.4v30.5H165.4v-30.5z"/><path fill="none" stroke="#000" stroke-width=".5" stroke-miterlimit="10" d="M229 168.3v22"/><path fill="#FFF" stroke="#000" stroke-width=".5" stroke-miterlimit="10" d="M165.5 291H292v30.4H165.4l.1-30.4z"/><path d="M214.5 300.6c.6-.2 1.5-.2 2.4-.2 1.2 0 2 .2 2.6.8.5.4.8 1 .8 1.8 0 1.2-.8 2-1.8 2.4.7.3 1.2 1 1.4 2l.7 2.6h-1.3l-.6-2.3c-.3-1.3-.8-1.8-2-1.8h-1v4h-1.3v-9.4l.1.1zm1.2 4.3h1.3c1.3 0 2.2-.8 2.2-2 0-1-1-1.7-2.3-1.7h-1.3v3.6l.1.1zm7.1 1.9c0 1.7 1.2 2.4 2.4 2.4 1 0 1.4-.2 2-.4v1c-.3 0-1 .4-2.2.4-2 0-3.4-1.4-3.4-3.5 0-2 1.3-3.7 3.3-3.7s2.7 2 2.7 3.2v.6h-5 .2zm3.7-1c0-.7-.3-2-1.7-2-1.3 0-1.8 1.2-2 2h3.7zm2.8-.4V303h1v1.3c.6-.8 1.4-1.3 2.6-1.3 1.5 0 2.8 1.4 2.8 3.5 0 2.5-1.5 3.7-3.2 3.7-1 0-1.7-.4-2-1v3.6h-1.3v-7.4h.1zm1.2 1.8v.5c.3 1 1 1.5 2 1.5 1.3 0 2-1 2-2.7 0-1.3-.7-2.5-2-2.5-1 0-1.7.6-2 1.5v1.7zm6.8-7.2h1.3v10h-1.3v-10zm3.9 3l1.5 4.2c0 .5.3 1 .4 1.4.3-.4.4-1 .6-1.4l1.3-4h1.3l-2 4.8c-.8 2.4-1.4 3.6-2.3 4.3-.6.6-1.2.8-1.5 1l-.3-1.2c.3 0 .7-.2 1-.5.4-.3.8-.8 1-1.4.2 0 .2 0 .2-.2v-.3l-2.6-6.4h1.4v-.3z"/><path fill="#FFF" stroke="#000" stroke-width=".8" stroke-miterlimit="10" d="M165.4 348h125v30.4h-125V348z"/><path d="M181.58 356.5c.63-.14 1.52-.2 2.37-.2 1.32 0 2.18.23 2.77.77.5.43.76 1.08.76 1.82 0 1.25-.8 2.1-1.8 2.43v.04c.73.26 1.17.94 1.4 1.94.3 1.34.54 2.26.74 2.63h-1.28c-.16-.27-.37-1.1-.64-2.28-.28-1.32-.8-1.82-1.92-1.86h-1.16v4.13h-1.24v-9.44zm1.23 4.35h1.28c1.32 0 2.16-.73 2.16-1.82 0-1.23-.9-1.77-2.2-1.8-.6 0-1.03.07-1.23.12v3.5zM189.93 362.72c.03 1.7 1.1 2.4 2.36 2.4.88 0 1.42-.17 1.9-.36l.2.9c-.44.2-1.2.42-2.28.42-2.12 0-3.38-1.4-3.38-3.47s1.22-3.7 3.22-3.7c2.25 0 2.84 1.98 2.84 3.24 0 .26-.03.46-.04.58h-4.83zm3.66-.9c0-.8-.33-2.02-1.74-2.02-1.26 0-1.82 1.16-1.92 2.03h3.66zM196.18 364.66c.37.24 1.02.5 1.64.5.9 0 1.34-.46 1.34-1.03 0-.6-.35-.92-1.28-1.26-1.23-.44-1.82-1.13-1.82-1.95 0-1.1.9-2.02 2.38-2.02.7 0 1.3.2 1.7.43l-.33.9c-.26-.16-.75-.4-1.4-.4-.73 0-1.14.44-1.14.95 0 .57.4.82 1.3 1.16 1.2.46 1.8 1.06 1.8 2.08 0 1.2-.93 2.06-2.56 2.06-.76 0-1.45-.2-1.93-.47l.3-.94zM208.2 362.44c0 2.54-1.77 3.65-3.43 3.65-1.86 0-3.3-1.37-3.3-3.55 0-2.3 1.5-3.65 3.4-3.65 2 0 3.32 1.44 3.32 3.54zm-5.46.07c0 1.52.86 2.65 2.1 2.65 1.18 0 2.07-1.12 2.07-2.67 0-1.16-.57-2.64-2.05-2.64s-2.1 1.36-2.1 2.67zM215.52 364.06c0 .7 0 1.33.06 1.87h-1.1l-.08-1.12h-.03c-.33.57-1.05 1.3-2.27 1.3-1.08 0-2.37-.6-2.37-3.02v-4.02h1.25v3.8c0 1.3.4 2.2 1.53 2.2.85 0 1.43-.6 1.66-1.14.07-.2.1-.42.1-.64v-4.22h1.26v5zM217.6 361.2c0-.8-.02-1.5-.07-2.14h1.1l.04 1.35h.06c.3-.9 1.06-1.5 1.9-1.5.14 0 .24.02.35.05v1.17c-.12-.02-.25-.04-.42-.04-.88 0-1.5.67-1.68 1.6-.02.18-.05.38-.05.6v3.65h-1.24v-4.73zM227 365.68c-.33.17-1.06.4-1.98.4-2.08 0-3.43-1.4-3.43-3.5 0-2.13 1.44-3.66 3.7-3.66.73 0 1.38.18 1.72.35l-.28.97c-.3-.17-.77-.33-1.45-.33-1.6 0-2.44 1.18-2.44 2.6 0 1.6 1.02 2.58 2.4 2.58.7 0 1.17-.18 1.52-.34l.2.94zM229.06 362.72c.03 1.7 1.1 2.4 2.36 2.4.9 0 1.44-.17 1.9-.36l.22.9c-.44.2-1.2.42-2.3.42-2.1 0-3.37-1.4-3.37-3.47s1.22-3.7 3.23-3.7c2.24 0 2.84 1.98 2.84 3.24 0 .26-.03.46-.05.58h-4.84zm3.67-.9c0-.8-.33-2.02-1.73-2.02-1.27 0-1.82 1.16-1.92 2.03h3.65zM237.1 365.93l-2.44-9.57h1.3l1.14 4.84c.3 1.2.54 2.4.7 3.3h.04c.16-.94.45-2.07.78-3.3l1.28-4.84h1.3l1.16 4.86c.27 1.14.52 2.27.67 3.28h.02c.2-1.05.47-2.12.77-3.3l1.26-4.84h1.27l-2.7 9.57h-1.3l-1.2-4.98c-.3-1.22-.5-2.16-.64-3.13h-.02c-.17.95-.38 1.9-.74 3.13l-1.36 4.98h-1.3zM253.25 362.44c0 2.54-1.76 3.65-3.43 3.65-1.86 0-3.3-1.37-3.3-3.55 0-2.3 1.5-3.65 3.42-3.65 1.97 0 3.3 1.44 3.3 3.54zm-5.46.07c0 1.52.86 2.65 2.08 2.65 1.2 0 2.1-1.12 2.1-2.67 0-1.16-.6-2.64-2.07-2.64-1.47 0-2.1 1.36-2.1 2.67zM254.82 361.2c0-.8 0-1.5-.05-2.14h1.1l.03 1.35h.06c.3-.9 1.06-1.5 1.9-1.5.14 0 .24.02.36.05v1.17c-.13-.02-.26-.04-.43-.04-.9 0-1.52.67-1.7 1.6 0 .18-.04.38-.04.6v3.65h-1.24v-4.73zM260.76 362.2h.03c.16-.23.4-.53.6-.77l2.02-2.37h1.5l-2.66 2.82 3.03 4.05h-1.53l-2.37-3.3-.64.72v2.58h-1.24v-10.08h1.24v6.36zM266.88 362.72c.03 1.7 1.1 2.4 2.36 2.4.9 0 1.43-.17 1.9-.36l.2.9c-.43.2-1.18.42-2.27.42-2.12 0-3.38-1.4-3.38-3.47s1.2-3.7 3.2-3.7c2.25 0 2.85 1.98 2.85 3.24 0 .26-.03.46-.04.58h-4.82zm3.66-.9c.02-.8-.32-2.02-1.73-2.02-1.25 0-1.8 1.16-1.9 2.03h3.64zM273.3 361.2c0-.8-.02-1.5-.06-2.14h1.1l.04 1.35h.05c.32-.9 1.07-1.5 1.9-1.5.15 0 .25.02.36.05v1.17c-.14-.02-.26-.04-.43-.04-.9 0-1.5.67-1.68 1.6-.04.18-.07.38-.07.6v3.65h-1.23v-4.73z"/><path fill="none" stroke="#000" stroke-width=".6" stroke-miterlimit="10" d="M228.7 320.5v25.7"/><path d="M59.3 167.8c-.5.3-1.4.5-2.6.5-2.7 0-4.7-1.7-4.7-4.8 0-3 2-5 5-5 1.2 0 2 .2 2.3.4l-.3 1c-.5-.4-1.2-.5-2-.5-2.2 0-3.7 1.4-3.7 4 0 2.3 1.4 3.8 3.7 3.8.7 0 1.5-.2 2-.4l.3.8v.2zm1.5-9.8H62v10.2h-1.2V158zm4.7 1.3c0 .5-.3.8-.8.8-.4 0-.7-.2-.7-.7 0-.4.3-.7.7-.7.5 0 .8.3.8.7v-.1zm-1.4 9v-7h1.4v7H64h.1zM68 165c.2 1.6 1.2 2.3 2.5 2.3 1 0 1.4 0 2-.3v1c-.3 0-1 .3-2.2.3-2 0-3.4-1.4-3.4-3.5S68 161 70 161c2.2 0 2.8 2 2.8 3.4v.5h-5l.2.1zm3.8-1c0-.7-.3-2-1.7-2-1.2 0-1.8 1.2-2 2H72h-.2zm2.8-1v-1.7h1v1c.4-.5 1.2-1.2 2.4-1.2 1 0 2.4.7 2.4 3v4.2h-1.2v-4c0-1-.5-2-1.6-2-1 0-1.5.5-1.7 1.2-.2.2-.2.4-.2.6v4.2h-1.2v-5l.1-.3zm9.4-3.7v2h1.7v1H84v3.6c0 .8 0 1.3.8 1.3h.7v.8c0 .2-.5.3-1 .3-.6 0-1-.2-1.4-.5-.2-.4-.3-1-.3-1.8v-3.8h-1v-1h1v-1.6l1.2-.3z"/><path fill="none" stroke="#000" stroke-width=".8" stroke-miterlimit="10" d="M34 165.8l36.4-36.5 36.4 36.5-36.4 36.4L34 165.8z"/><path d="M59 359c-.3.2-1.2.5-2.4.5-2.7 0-4.7-1.7-4.7-5 0-3 2-5 5-5 1 0 1.8.3 2 .5l-.2 1c-.4-.2-1-.4-2-.4-2 0-3.6 1.5-3.6 4 0 2.3 1.3 3.8 3.6 3.8.8 0 1.6 0 2-.4l.3 1zm1.6-9.8H62v10h-1.4v-10zm4.8 1.3c0 .4-.3.8-.8.8s-.8-.4-.8-.8.3-.8.8-.8.8.4.8.8zm-1.4 8.8v-7h1.2v7H64zm4-3.3c0 1.8 1 2.5 2.4 2.5.8 0 1.4-.2 2-.4v1c-.4.2-1 .5-2.2.5-2 0-3.4-1.4-3.4-3.5s1.2-3.7 3.2-3.7c2.3 0 3 2 3 3.2l-.2.6H68v-.2zm3.7-.8c0-.8-.4-2-1.8-2-1.3 0-2 1-2 2H71.7zm2.7-.9v-2h1v1.3h.2c.3-.7 1-1.3 2.2-1.3 1 0 2.5.6 2.5 3v4H79v-4c0-1-.4-2-1.6-2-.8 0-1.4.6-1.7 1.3v4.6h-1.3v-5 .1zm9.3-3.8v2h1.8v1h-1.8v3.6c0 1 .3 1.4 1 1.4h.7v1h-1c-.6 0-1 0-1.4-.5-.3-.4-.5-1-.5-2v-3.6h-1v-1h1v-1.6l1.2-.3z"/><path fill="none" stroke="#000" stroke-width=".8" stroke-miterlimit="10" d="M34 357l36.3-36.5 36.4 36.4-36.4 36.3L34 357z"/><path fill="none" stroke="#000" stroke-width="1.2" stroke-miterlimit="10" d="M70.5 202.2v118.3M157 207.6H70.6"/><path d="M155.4 201.8l10 5.8-10 5.7"/><path fill="none" stroke="#000" stroke-width="1.2" stroke-miterlimit="10" d="M78.7 311h86.7"/><path d="M80.4 317l-10-6 10-5.6"/><path fill="#FFF" stroke="#000" stroke-width=".8" stroke-miterlimit="10" d="M328.6 138h125v30.4h-125V138zm0 205h125v30.5h-125V343z"/><path fill="none" stroke="#000" stroke-width=".5" stroke-miterlimit="10" d="M388.7 168.3v175"/><path d="M347 147.6v4h4.5v-4h1.3v9.5h-1.3v-4.4H347v4.5h-1.3v-9.4h1.3v-.2zm9.7 1.1h-3v-1h7v1H358v8.4h-1.3v-8.4zm7.5 0h-3v-1h7v1h-2.8v8.4h-1.2v-8.4zm5.1-1h2.4c1.2 0 2 0 2.6.6.5.5.8 1.2.8 2 0 1 0 1.5-.6 2-.6.7-1.7 1-3 1h-1v3.8h-1v-9.3l-.2-.1zm1.2 4.6h1c1.5 0 2.4-.6 2.4-2 0-1.2-1-1.8-2.3-1.8h-1.2v3.8h.1zm12.9 4.5c-.5.2-1.4.4-2.5.4-2.8 0-4.8-1.7-4.8-4.8 0-3 2-5 5-5 1 0 2 .3 2.2.5l-.3 1c-.4-.3-1-.5-1.8-.5-2.2 0-3.7 1.4-3.7 4 0 2.2 1.3 3.7 3.6 3.7 1 0 1.6-.2 2-.4l.4 1-.1.1zm7.4-3.2c0 2.5-1.7 3.6-3.4 3.6-1.8 0-3.2-1.3-3.2-3.5s1.5-3.6 3.4-3.6c2 0 3.2 1.5 3.2 3.6v-.1zm-5.4 0c0 1.6 1 2.7 2 2.7 1.3 0 2.2-1 2.2-2.6 0-1.2-.6-2.6-2-2.6s-2.2 1.4-2.2 2.7v-.2zm7-1.6v-1.7h1v1c.4-.5 1.2-1.2 2.3-1.2 1 0 2.4.7 2.4 3v4h-1v-3.8c0-1-.5-2-1.7-2-.8 0-1.4.5-1.6 1.2v4.6h-1.3v-5l-.1-.1zm7.6 0v-1.7h1.2v1c.4-.5 1.2-1.2 2.3-1.2 1 0 2.4.7 2.4 3v4h-1.3v-3.8c0-1-.4-2-1.6-2-.7 0-1.3.5-1.5 1.2v4.6H400V152zm8.6 2c0 1.6 1 2.3 2.3 2.3.8 0 1.3-.2 1.8-.4l.2.8c-.4.2-1.2.4-2.2.4-2 0-3.4-1.4-3.4-3.4s1.2-3.7 3.2-3.7c2.2 0 2.8 2 2.8 3.3v.6h-4.8l.1.1zm3.6-1c0-.8-.3-2-1.7-2-1.2 0-1.8 1.2-2 2h3.7zm7.6 3.8c-.4.2-1 .4-2 .4-2 0-3.4-1.4-3.4-3.5 0-2 1.5-3.6 3.7-3.6.8 0 1.5.3 1.8.5l-.3 1c-.3-.2-.7-.4-1.4-.4-1.5 0-2.3 1.3-2.3 2.7 0 1.6 1 2.5 2.3 2.5.7 0 1.2-.2 1.6-.3l.2.8-.2-.1zm3.2-8.5v2h1.6v1H423v3.6c0 .7 0 1.2.8 1.2h.7v.8l-1 .2c-.6 0-1-.2-1.4-.5-.2-.4-.3-1-.3-1.8V151h-1v-1h1v-1.5l1.2-.4v.2zm9 5.3c0 2.5-1.7 3.6-3.3 3.6-1.8 0-3.3-1.3-3.3-3.5s1.5-3.6 3.4-3.6c2 0 3.3 1.5 3.3 3.6l-.1-.1zm-5.3 0c0 1.6.8 2.7 2 2.7s2-1 2-2.6c0-1.2-.5-2.6-2-2.6s-2 1.4-2 2.7v-.2zm6.9-1.2v-2h1v1.2c.4-1 1.2-1.5 2-1.5.2 0 .3 0 .4.2v1h-.5c-.8 0-1.4.8-1.6 1.7 0 0-.2.2-.2.5v3.6h-1.2v-4.6l.1-.1zm-89.3 201.1v4h4.5v-4h1.3v9.4H349v-4.5h-4.5v4.4H343v-9.5h1.3v.2zm9.7 1h-3v-1h7v1h-2.8v8.4H354v-8.5.1zm7.5 0h-3v-1h7v1h-2.8v8.4h-1.2v-8.5.1zm5.1-.9l2.4-.2c1.2 0 2 .3 2.6.8.5.4 1 1 1 2 0 .8-.4 1.5-1 2-.5.7-1.6 1-2.8 1h-1v3.7h-1.2v-9.4.1zm1.3 4.5c0 .2.5.2 1 .2 1.3 0 2.2-.7 2.2-2 0-1.2-.8-1.8-2.2-1.8h-1v3.7-.1zm12.8 4.5c-.5.2-1.4.5-2.5.5-2.7 0-4.7-1.6-4.7-4.7 0-3 2-5 5-5 1 0 2 .3 2.2.4l-.3 1c-.5-.2-1-.4-2-.4-2 0-3.6 1.5-3.6 4 0 2.2 1.3 3.7 3.6 3.7.8 0 1.5 0 2-.4l.3 1v-.1zm7.3-3.1c0 2.5-1.6 3.6-3.2 3.6-2 0-3.3-1.3-3.3-3.4 0-2.3 1.5-3.6 3.4-3.6 1.8 0 3 1.4 3 3.5l.1-.1zm-5.2 0c0 1.5.8 2.6 2 2.6s2-1 2-2.5c0-1-.5-2.6-2-2.6s-2 1.3-2 2.5zm6.9-1.5v-2h1v1.3c.5-.7 1.3-1.3 2.4-1.3 1 0 2.5.5 2.5 3v4h-1.3v-4c0-1-.4-2-1.5-2-.8 0-1.5.6-1.7 1.3v4.5h-1.3V358h-.1zm7.8 0v-2h1v1.3c.4-.7 1.2-1.3 2.3-1.3 1 0 2.4.5 2.4 3v4H402v-4c0-1-.4-2-1.6-2-.8 0-1.4.6-1.6 1.3v4.5h-1.3V358zm8.5 1.8c0 1.6 1 2.3 2.2 2.3 1 0 1.5 0 2-.2v.8c-.3.2-1 .5-2 .5-2.2 0-3.5-1.3-3.5-3.4 0-2.1 1.3-3.6 3.2-3.6 2 0 2.7 2 2.7 3.2v.5H406v-.1zm3.5-1c0-.7-.3-2-1.7-2-1.2 0-1.8 1.2-2 2h3.7zm7.5 3.9c-.2 0-1 .4-2 .4-2 0-3.2-1.3-3.2-3.4 0-2 1.4-3.6 3.6-3.6.7 0 1.4.2 1.7.3l-.2 1c-.3-.2-.7-.3-1.4-.3-1.6 0-2.4 1-2.4 2.5 0 1.6 1 2.6 2.4 2.6.7 0 1 0 1.5-.3v1-.2zm3.2-8.5v2h1.8v1h-1.8v3.5c0 1 .2 1.3 1 1.3h.6v1h-1c-.6 0-1 0-1.3-.5-.4-.3-.5-1-.5-1.7V357h-1v-1h1v-1.5l1.2-.3zm9.2 5.3c0 2.5-1.7 3.6-3.4 3.6-1.8 0-3.2-1.3-3.2-3.4 0-2.3 1.5-3.6 3.3-3.6 2 0 3.4 1.4 3.4 3.5l-.1-.1zm-5.4 0c0 1.5 1 2.6 2 2.6 1.2 0 2-1 2-2.5 0-1-.4-2.6-2-2.6s-2 1.3-2 2.5zm7-1.2V356h1v1.5c.4-1 1-1.5 2-1.5h.3v1.2h-.4c-1 0-1.6.6-1.8 1.5v4.2H431v-4.7.1z"/><path fill="none" stroke="#000" stroke-width="1.2" stroke-miterlimit="10" d="M380.3 246.3h-86.7"/><path d="M378.6 240.6l10 5.7-10 5.8"/><path fill="#FFF" stroke="#000" stroke-width=".5" stroke-miterlimit="10" d="M164.5 240.5H291V271H164.4l.1-30.5z"/><path d="M203.3 250.6v4h4.6v-4h1v9.4h-1v-4.4h-4.7v4.4H202v-9.4h1.3zm9.7 1h-3v-1h7v1h-2.8v8.4H213v-8.4zm7.5 0h-3v-1h7v1h-2.8v8.4h-1.2v-8.4zm5.1-.9l2.4-.2c1.2 0 2 .3 2.6.8.6.4 1 1 1 2 0 .8-.4 1.5-1 2-.5.7-1.6 1-2.8 1h-1v3.7h-1.2v-9.3zm1.3 4.5h1c1.3 0 2.2-.6 2.2-2 0-1-.8-1.7-2.2-1.7h-1v3.7zm5.7-.9c0-.5.4-.8.8-.8s1 .3 1 .8-.4 1-1 1c-.5 0-.8-.5-.8-1zm0 5c0-.5.4-1 .8-1s1 .5 1 1-.4 1-1 1c-.5 0-.8-.5-.8-1zm9-6.1v5.8c0 1.6-.3 2.5-1 3-.6.7-1.6 1-2.4 1-1 0-1.8-.3-2.3-.6l.2-1c.5.3 1.2.6 2 .6 1.3 0 2.2-.7 2.2-2.4v-.8c-.4.7-1.2 1.2-2.2 1.2-1.7 0-3-1.5-3-3.3 0-2.3 1.6-3.6 3.2-3.6 1 0 1.8.7 2 1.2l.2-1h1l.1-.1zm-1.2 2.7v-.7c-.3-.7-1-1.3-1.8-1.3-1.2 0-2 1-2 2.6 0 1.3.6 2.4 2 2.4.7 0 1.4-.4 1.7-1.2V256l.1-.1zm3.9.9c0 1.7 1 2.4 2.3 2.4 1 0 1.4-.2 2-.4v1c-.3 0-1 .3-2 .3-2.2 0-3.5-1.2-3.5-3.3 0-2 1.3-3.6 3.3-3.6 2.2 0 2.8 2 2.8 3.3v.5h-4.7l-.2-.2zm3.6-.8c0-.8-.4-2-1.8-2-1.2 0-1.8 1-2 2H247.9zm4.1-4.7v2h2v1h-2v3.5c0 1 .4 1.3 1 1.3h.8v1h-1c-.6 0-1 0-1.4-.4-.4-.3-.5-1-.5-1.7v-4h-1v-1h1v-1.6l1-.3.1.2zM216.4 209.18c.53.33 1.33.6 2.17.6 1.25.02 1.98-.64 1.98-1.6 0-.88-.5-1.38-1.78-1.87-1.54-.54-2.5-1.34-2.5-2.67 0-1.47 1.22-2.56 3.06-2.56.96 0 1.66.22 2.08.46l-.32 1c-.3-.17-.94-.45-1.8-.45-1.28 0-1.77.77-1.77 1.4 0 .9.58 1.33 1.88 1.83 1.6.63 2.4 1.4 2.4 2.8 0 1.44-1.07 2.7-3.3 2.7-.9 0-1.9-.26-2.4-.6l.3-1.02zM224.86 201.94v1.94h1.76v.94h-1.76v3.66c0 .84.23 1.3.92 1.3.32 0 .56-.03.72-.07l.05.93c-.24.1-.6.17-1.1.17-.57 0-1.03-.18-1.32-.52-.35-.36-.48-.96-.48-1.76v-3.7h-1.05v-.94h1.05v-1.62l1.2-.32zM231.76 210.66l-.1-.85h-.04c-.38.54-1.1 1.02-2.07 1.02-1.38 0-2.08-.97-2.08-1.95 0-1.64 1.46-2.53 4.08-2.52v-.14c0-.55-.15-1.56-1.54-1.56-.62 0-1.28.2-1.76.5l-.28-.8c.57-.37 1.38-.6 2.23-.6 2.06 0 2.57 1.4 2.57 2.76v2.54c0 .6.03 1.16.1 1.62h-1.1zm-.18-3.46c-1.35-.02-2.87.2-2.87 1.53 0 .8.54 1.18 1.17 1.18.88 0 1.44-.55 1.64-1.13.05-.12.08-.26.08-.4v-1.17zM234.75 206c0-.8 0-1.5-.05-2.12h1.08l.04 1.33h.05c.3-.9 1.06-1.47 1.88-1.47.14 0 .24.02.35.04v1.16c-.12-.02-.25-.04-.42-.04-.87 0-1.48.65-1.65 1.58-.03.16-.06.36-.06.57v3.6h-1.2V206zM241.15 201.94v1.94h1.77v.94h-1.77v3.66c0 .84.24 1.3.93 1.3.32 0 .56-.03.7-.07l.07.93c-.24.1-.62.17-1.1.17-.57 0-1.03-.18-1.33-.52-.35-.36-.47-.96-.47-1.76v-3.7h-1.05v-.94h1.05v-1.62l1.2-.32z"/><path fill="none" stroke="#000" stroke-width="1.2" stroke-miterlimit="10" d="M300.4 262h2.5"/><path fill="none" stroke="#000" stroke-width="1.2" stroke-miterlimit="10" d="M307.7 262H382" stroke-dasharray="4.8 4.8"/><path fill="none" stroke="#000" stroke-width="1.2" stroke-miterlimit="10" d="M384.5 262h2.5"/><path d="M302 267.8l-10-5.8 10-5.7"/><path fill="none" stroke="#000" stroke-width=".5" stroke-miterlimit="10" d="M20.4 510h460v389.4h-460V510z"/><path fill="#FFF" stroke="#000" stroke-width=".5" stroke-miterlimit="10" d="M10.2 448.5h482v21h-482v-21z"/><path fill="#939598" d="M442.2 461.3v-3h.7v3.8h-7.6v-7.5h3.7v.8h-2.8v6h6v-.1zm-.4-5.4l-1-1 .4-.5 1.7 1.6-1.5 1.7-.5-.4.7-.8c-1.8 0-3.2 1-4 2 0 .4-.3.7-.4 1l-.2.8v.3h-.5V459.7l.4-.8c0-.4.3-.7.5-1l1-1c.3-.3.8-.5 1.3-.7l2-.4.1.1zm14.4 5.4v-3h.7v3.8h-7.6v-7.5h3.7v.8h-2.8v6h6v-.1zm.7-6.8v.6c-.2 0-.3 0-.4.2 0 0-.4 0-.7.2-.5 0-.8.2-1 .4-1.4.8-2 2-2.2 4l.8-.7.4.5-1.6 1.4-1.6-1.7.5-.4 1 .8c0-.7 0-1.3.3-2l.7-1.3 1-1 1-.5.7-.3h.6l.3-.2h.2zm8.7 0h2.8v1h2v1h-6.7v-1h2v-1h-.1zm-1.4 2.7h5.6v5h-5.6v-5zm1.2.6v3.6h1v-3.6h-1zm2.3 0v3.6h1v-3.6h-1zm13.6 2.6l-3.8-3.7.6-.6 3.3 3.2 3.2-3 .6.6-3.7 3.6-.2-.1z"/><path fill="#939598" stroke="#000" stroke-width=".3" stroke-miterlimit="10" d="M431.7 454.4v8m14.3-7.6v8.2m14.2-8.6v8m13.8-8v8"/><path d="M10.2 448.5h18v21h-18v-21z"/><path fill="#FFF" d="M22.2 456v.3h-1l-.7 2.7c-.3 1.2-.6 2-1 2.8-.3 1-.8 1.5-1.3 2-.4 0-.7.3-1 .3h-.8l-.2-.5c0-.2 0-.3.2-.4h.7c.2 0 .2.2.2.3v.3H17v.2h.7l.6-.6.4-1 .5-1.7 1-4.2h-1v-.4l.8-.2.3-.3.5-.7.7-1.2c.3-.4.6-.6 1-.8.3-.2.6-.3 1-.3.2 0 .5 0 .7.2l.3.6s0 .2-.2.3l-.3.2h-.4V453h-.2c-.3 0-.5 0-.7.2-.3.2-.5.6-.8 1l-.7 2h1v-.2z"/><path d="M35.7 489c1-1 2.3-1.7 3.8-1.7s2.7.6 3.7 1.6 1.6 2.2 1.6 3.6c0 1.5-.6 2.8-1.6 3.8S41 498 39.5 498s-2.8-.6-3.8-1.6-1.6-2.3-1.6-3.8c0-1.4.7-2.7 1.7-3.7l-.1.1zm2 5.7v-.4c-.3 0-.5 0-.5-.4v-.8c0-.3 0-.5-.2-.6.2 0 .3-.2.3-.5v-.6c0-.3 0-.4.3-.4v-.4c-.5 0-.8.2-.8.7v.8c0 .4 0 .5-.3.5v.3c.3 0 .4 0 .4.3 0 .2 0 .4-.2.5v.4c0 .4.3.7.8.7l.2-.1zm2-.6l1-2.8h-.5l-.5 1.4c0 .4-.2.7-.3 1 0-.3 0-.6-.2-1l-.5-1.4h-.5l1 3h.4l.1-.2zm2.7-1.2v-.3c-.3 0-.4 0-.4-.4v-.7c0-.5-.2-.7-.7-.7v.4c.3 0 .4 0 .4.4v.7c0 .4 0 .5.2.6-.3 0-.4.3-.4.6v.7c0 .2 0 .3-.3.3v.4c.6 0 .8-.3.8-.7v-.9s0-.2.4-.2v-.2z"/><path fill="#AEADAE" d="M46.5 488.8H54v7.4h-7.5v-7.4z"/><path fill="#FFF" d="M52.5 492.2v.5h-2v2h-.6v-2h-2.2v-.5h2v-2h.6v2h2.2z"/><path fill="#EFEFEF" d="M55.6 487.3h10.7V498H55.6v-10.7z"/><path fill="#8D8D8D" d="M59 492.4l3-3 .4.4-2.5 2.6 2.4 2.7-.5.5-3-3 .2-.2z"/><path fill="none" stroke="#000" stroke-width=".5" stroke-miterlimit="10" d="M10.3 469.5h482v441h-482v-441z"/><path fill="#FFF" stroke="#000" stroke-width=".5" stroke-miterlimit="10" d="M20.4 510h460v21h-460v-21z"/><path fill="#939598" d="M430.3 523v-3h.7v3.7h-7.5V516h3.7v.8h-3v6h6l.1.2zm-.4-5.6l-1-.8.4-.5 1.6 1.7-1.4 1.6-.4-.5.7-.8c-2 .2-3.3 1-4 2.2-.3.3-.5.6-.6 1l-.2.7v.2h-.6v-.3l.2-.7.3-1c.2 0 .4-.4.7-.8.2-.3.5-.7 1-1l1.3-.7 2-.4v.1zM444.3 523v-3h.7v3.7h-7.5V516h3.7v.8h-3v6h6l.1.2zm.7-7v.7h-.3l-.7.2-1 .4c-1.2.8-2 2-2 4l.7-.7.4.4-1.5 1.5-1.5-1.6.4-.6 1 1c0-.7 0-1.4.3-2l.7-1.3 1-.8 1-.6c.2-.2.5-.3.8-.3l.6-.2h.2l-.1-.1zM453.7 516h3v1h1.7v1h-6.6v-1h2v-1h-.1zm-1.4 2.8h5.7v5h-5.7v-5zm1.3.6v3.6h.8v-3.6h-.8zm2.2 0v3.6h1v-3.6h-1zM469.4 522l-3.7-3.7.5-.6 3.2 3 3.3-3 .5.7-3.8 3.5v.1z"/><path fill="#939598" stroke="#000" stroke-width=".3" stroke-miterlimit="10" d="M434.2 515.8v8.2m14.1-8.6v8.2M462 516v8"/><path d="M20.4 510h18v21h-18v-21z"/><path fill="#FFF" d="M32.4 517.4v.5h-1l-.7 2.6c-.3 1.2-.6 2-1 2.8-.4 1-.8 1.5-1.3 2l-1.2.3c-.2 0-.4 0-.6-.3l-.2-.4v-.3h.7v.5h.7c0-.2.3-.3.4-.6l.4-1 .5-1.6 1-4h-1v-.6h.8l.5-.3.4-.7.6-1c.3-.5.7-.8 1-1l1-.2c.3 0 .5.2.7.3.2.2.3.3.3.5v.4H34v-.7l-.3-.2c-.2 0-.5 0-.7.3-.2.2-.5.5-.7 1l-.5 1.8h1l-.4-.1z"/><path d="M46 550.5c1-1 2-1.6 3.6-1.6s2.7.4 3.8 1.5c1 1 1.5 2.3 1.5 3.7 0 1.5-.6 2.7-1.6 3.8s-2.3 1.5-3.8 1.5S47 559 46 558s-1.7-2.3-1.7-3.8c0-1.4.5-2.7 1.6-3.7h.1zm2 5.8v-.4h-.3c-.2 0-.3-.3-.3-.5v-.7c0-.3 0-.5-.2-.6.2 0 .3-.3.3-.5v-.8c0-.3 0-.4.2-.4h.2v-.4h-.3c-.5 0-.7.2-.7.7v.7c0 .2 0 .4-.3.4v.4c.2 0 .3 0 .3.3v.9c0 .5.2.8.7.8h.2l.2.1zm1.8-.6l1-3h-.4l-.5 1.5c-.3.4-.4.7-.4 1l-.3-1-.4-1.4h-.6l1 3h.4l.2-.1zm2.8-1.3v-.3c-.3 0-.4 0-.4-.3v-.8c0-.6-.2-.8-.7-.8h-.2v.4h.2c.2 0 .3 0 .3.3v.7c0 .2 0 .4.2.5-.2 0-.3.3-.3.6v.7c0 .2 0 .4-.2.4h-.2v.3h.2c.5 0 .8-.3.8-.8v-.7c0-.2 0-.3.2-.3l.1.1z"/><path fill="#AEADAE" d="M56.6 550.3H64v7.4h-7.4v-7.4z"/><g><path fill="#FFF" d="M62.6 553.7v.5h-2v2H60v-2h-2v-.5h2v-2h.5v2h2.1z"/></g><path fill="#EFEFEF" d="M65.7 549h10.7v10.6H65.7V549z"/><g><path fill="#8D8D8D" d="M69 554l3-3 .6.4L70 554l2.5 2.6-.5.5-3-3v-.1z"/></g><path fill="#FFF" stroke="#000" stroke-width=".8" stroke-miterlimit="10" d="M165.8 577h125v30.4H166l-.2-30.4z"/><g><path d="M181.96 585.43c.63-.13 1.52-.2 2.37-.2 1.33 0 2.18.25 2.77.8.5.4.76 1.06.76 1.8 0 1.27-.8 2.1-1.8 2.45v.04c.73.25 1.17.94 1.4 1.93.3 1.34.54 2.26.74 2.63h-1.28c-.15-.27-.37-1.1-.64-2.3-.28-1.3-.8-1.8-1.92-1.85h-1.16v4.15h-1.24v-9.45zm1.24 4.36h1.26c1.32 0 2.16-.73 2.16-1.82 0-1.24-.9-1.78-2.2-1.8-.6 0-1.02.06-1.22.12v3.5zM190.3 591.67c.04 1.7 1.12 2.4 2.37 2.4.9-.02 1.44-.17 1.9-.37l.22.9c-.45.2-1.2.42-2.3.42-2.12 0-3.38-1.4-3.38-3.46s1.22-3.7 3.22-3.7c2.25 0 2.84 1.96 2.84 3.23 0 .24-.02.44-.04.57h-4.83zm3.68-.9c0-.8-.33-2.03-1.73-2.03-1.27 0-1.82 1.17-1.92 2.03h3.65zM196.56 593.6c.37.24 1.02.5 1.65.5.92 0 1.34-.46 1.34-1.02 0-.6-.35-.93-1.27-1.27-1.24-.43-1.82-1.1-1.82-1.94 0-1.1.9-2 2.37-2 .7 0 1.3.2 1.7.4l-.32.92c-.27-.17-.77-.4-1.4-.4-.75 0-1.16.43-1.16.94 0 .57.4.83 1.3 1.17 1.2.44 1.8 1.04 1.8 2.06 0 1.2-.93 2.06-2.56 2.06-.75 0-1.45-.18-1.93-.47l.3-.95zM208.58 591.38c0 2.55-1.77 3.66-3.43 3.66-1.86 0-3.3-1.37-3.3-3.54 0-2.3 1.5-3.65 3.42-3.65 1.97 0 3.3 1.43 3.3 3.53zm-5.46.08c0 1.5.87 2.64 2.1 2.64 1.18 0 2.08-1.12 2.08-2.67 0-1.17-.6-2.64-2.06-2.64s-2.12 1.35-2.12 2.66zM215.9 593c0 .7.02 1.34.06 1.88h-1.1l-.08-1.12h-.03c-.33.55-1.05 1.28-2.27 1.28-1.08 0-2.37-.6-2.37-3.02V588h1.26v3.8c0 1.32.4 2.2 1.53 2.2.83 0 1.4-.58 1.64-1.14.07-.18.1-.4.1-.64V588h1.26v5zM217.97 590.15c0-.8 0-1.5-.05-2.15h1.1l.03 1.35h.06c.32-.92 1.07-1.5 1.9-1.5.16 0 .26 0 .37.04v1.17c-.13-.03-.26-.04-.43-.04-.88 0-1.5.66-1.67 1.6-.03.17-.06.37-.06.58v3.68h-1.23v-4.73zM227.38 594.62c-.33.18-1.06.4-1.98.4-2.07 0-3.42-1.4-3.42-3.5 0-2.12 1.45-3.66 3.7-3.66.73 0 1.38.2 1.72.36l-.28.96c-.3-.17-.77-.32-1.45-.32-1.58 0-2.43 1.16-2.43 2.6 0 1.6 1.02 2.57 2.4 2.57.7 0 1.17-.2 1.52-.34l.22.92zM229.45 591.67c.03 1.7 1.1 2.4 2.36 2.4.9-.02 1.44-.17 1.9-.37l.22.9c-.44.2-1.2.42-2.28.42-2.12 0-3.4-1.4-3.4-3.46s1.24-3.7 3.24-3.7c2.24 0 2.84 1.96 2.84 3.23 0 .24-.03.44-.04.57h-4.83zm3.66-.9c.03-.8-.3-2.03-1.72-2.03-1.27 0-1.82 1.17-1.92 2.03h3.65zM237.47 594.88l-2.43-9.58h1.3l1.14 4.85c.3 1.2.54 2.4.7 3.3h.04c.16-.94.46-2.08.78-3.32l1.28-4.83h1.3l1.16 4.86c.27 1.14.53 2.28.67 3.28h.04c.2-1.05.47-2.1.76-3.3l1.27-4.84h1.26l-2.7 9.58h-1.3l-1.2-5c-.3-1.2-.5-2.15-.64-3.1h-.03c-.17.94-.4 1.88-.74 3.1l-1.37 5h-1.3zM253.63 591.38c0 2.55-1.76 3.66-3.42 3.66-1.85 0-3.3-1.37-3.3-3.54 0-2.3 1.52-3.65 3.42-3.65 1.98 0 3.3 1.43 3.3 3.53zm-5.45.08c0 1.5.86 2.64 2.08 2.64 1.2 0 2.1-1.12 2.1-2.67 0-1.17-.6-2.64-2.07-2.64-1.48 0-2.12 1.35-2.12 2.66zM255.2 590.15c0-.8 0-1.5-.05-2.15h1.1l.04 1.35h.04c.3-.92 1.07-1.5 1.9-1.5.15 0 .25 0 .36.04v1.17c-.13-.03-.26-.04-.43-.04-.88 0-1.5.66-1.67 1.6-.03.17-.06.37-.06.58v3.68h-1.24v-4.73zM261.14 591.16h.03c.17-.24.4-.54.6-.78l2.03-2.38h1.5l-2.65 2.83 3.02 4.05h-1.52l-2.37-3.3-.64.7v2.6h-1.23v-10.1h1.24v6.38zM267.26 591.67c.03 1.7 1.1 2.4 2.36 2.4.9-.02 1.44-.17 1.9-.37l.22.9c-.44.2-1.2.42-2.3.42-2.1 0-3.37-1.4-3.37-3.46s1.22-3.7 3.22-3.7c2.24 0 2.84 1.96 2.84 3.23 0 .24-.03.44-.05.57h-4.84zm3.67-.9c0-.8-.33-2.03-1.74-2.03-1.27 0-1.82 1.17-1.92 2.03h3.65zM273.68 590.15c0-.8 0-1.5-.06-2.15h1.1l.04 1.35h.06c.3-.92 1.06-1.5 1.9-1.5.14 0 .24 0 .35.04v1.17c-.12-.03-.25-.04-.42-.04-.88 0-1.5.66-1.68 1.6-.03.17-.06.37-.06.58v3.68h-1.22v-4.73z"/></g><path fill="#FFF" stroke="#000" stroke-width=".5" stroke-miterlimit="10" d="M165.8 629.5h126.4V660H165.8v-30.5z"/><path fill="none" stroke="#000" stroke-width=".5" stroke-miterlimit="10" d="M229.2 607.4v22"/><path fill="#FFF" stroke="#000" stroke-width=".5" stroke-miterlimit="10" d="M166 784h126.3v30.6H166V784z"/><g><path d="M215 793.7l2.2-.2c1.4 0 2.2.3 2.8.8.5.5.8 1 .8 1.8 0 1.4-.8 2.2-1.8 2.6.7.3 1 1 1.4 2l.7 2.6H220l-.6-2.3c-.3-1.4-.8-2-2-2h-1v4.2h-1.3v-9.5h-.1zm1 4.4h1.4c1.3 0 2-.6 2-1.7 0-1.2-.8-1.8-2-1.8H216v3.6-.1zm7.2 1.9c0 1.7 1 2.4 2.4 2.4 1 0 1.4-.2 2-.4v1c-.3 0-1 .3-2.2.3-2 0-3.4-1.4-3.4-3.4 0-2.2 1.3-3.8 3.3-3.8 2.2 0 2.8 2 2.8 3.2v.6h-4.8l-.1.1zm3.7-1c0-.7-.4-2-1.8-2-1.3 0-2 1.2-2 2H226.9zm2.7-.4v-2.3h1l.2 1.2c.5-.8 1.3-1.3 2.4-1.3 1.7 0 3 1.4 3 3.5 0 2.4-1.6 3.7-3.2 3.7-1 0-1.7-.4-2-1v3.6h-1.4v-7.4zm1.3 1.8v.5c.2.8 1 1.4 1.8 1.4 1.3 0 2-1 2-2.7 0-1.4-.6-2.5-2-2.5-.8 0-1.6.6-1.8 1.5v1.8zm6.8-7.4h1.3v10.2h-1.3V793zm3.8 3.3l1.5 4 .5 1.5c0-.4.3-1 .4-1.4l1.3-4h1.3l-1.8 4.8c-1 2.4-1.5 3.6-2.4 4.3-.6.6-1.2.8-1.5.8l-.4-1c.3 0 .7-.3 1-.6.4-.3.8-.8 1-1.4.2 0 .2-.2.2-.3v-.3l-2.6-6.4h1.5z"/></g><path fill="#FFF" stroke="#000" stroke-width=".8" stroke-miterlimit="10" d="M165.8 838h125v30.6H166l-.2-30.6z"/><g><path d="M181.96 847.65c.63-.13 1.52-.2 2.37-.2 1.33 0 2.18.25 2.77.8.5.4.76 1.06.76 1.8 0 1.27-.8 2.1-1.8 2.45v.04c.73.25 1.17.94 1.4 1.93.3 1.34.54 2.26.74 2.63h-1.28c-.15-.27-.37-1.1-.64-2.3-.28-1.3-.8-1.8-1.92-1.85h-1.16v4.15h-1.24v-9.45zm1.24 4.36h1.26c1.32 0 2.16-.7 2.16-1.8 0-1.24-.9-1.78-2.2-1.8-.6 0-1.02.06-1.22.12v3.5zM190.3 853.9c.04 1.68 1.12 2.38 2.37 2.38.9 0 1.44-.16 1.9-.36l.22.9c-.45.2-1.2.42-2.3.42-2.12 0-3.38-1.4-3.38-3.46s1.22-3.7 3.22-3.7c2.25 0 2.84 1.96 2.84 3.23 0 .26-.02.46-.04.6h-4.83zm3.68-.9c0-.8-.33-2.04-1.73-2.04-1.27 0-1.82 1.17-1.92 2.03h3.65zM196.56 855.82c.37.24 1.02.5 1.65.5.92 0 1.34-.46 1.34-1.02 0-.6-.35-.93-1.27-1.27-1.24-.44-1.82-1.12-1.82-1.95 0-1.1.9-2 2.37-2 .7 0 1.3.2 1.7.4l-.32.92c-.27-.17-.77-.4-1.4-.4-.75 0-1.16.43-1.16.94 0 .57.4.83 1.3 1.17 1.2.46 1.8 1.06 1.8 2.08 0 1.2-.93 2.06-2.56 2.06-.75 0-1.45-.18-1.93-.47l.3-.95zM208.58 853.6c0 2.55-1.77 3.66-3.43 3.66-1.86 0-3.3-1.37-3.3-3.54 0-2.3 1.5-3.65 3.42-3.65 1.97 0 3.3 1.43 3.3 3.53zm-5.46.07c0 1.5.87 2.65 2.1 2.65 1.18 0 2.08-1.12 2.08-2.67 0-1.17-.6-2.65-2.06-2.65s-2.12 1.37-2.12 2.67zM215.9 855.22c0 .7.02 1.34.06 1.88h-1.1l-.08-1.12h-.03c-.33.55-1.05 1.28-2.27 1.28-1.08 0-2.37-.6-2.37-3.02v-4.02h1.26v3.8c0 1.32.4 2.2 1.53 2.2.83 0 1.4-.58 1.64-1.14.07-.18.1-.4.1-.64v-4.22h1.26v5zM217.97 852.37c0-.8 0-1.5-.05-2.15h1.1l.03 1.35h.06c.32-.92 1.07-1.5 1.9-1.5.16 0 .26 0 .37.04v1.2c-.13-.04-.26-.05-.43-.05-.88 0-1.5.66-1.67 1.6-.03.17-.06.37-.06.58v3.67h-1.23v-4.73zM227.38 856.84c-.33.17-1.06.4-1.98.4-2.07 0-3.42-1.4-3.42-3.5 0-2.13 1.45-3.66 3.7-3.66.73 0 1.38.2 1.72.36l-.28.96c-.3-.17-.77-.32-1.45-.32-1.58 0-2.43 1.16-2.43 2.6 0 1.6 1.02 2.57 2.4 2.57.7 0 1.17-.2 1.52-.34l.22.94zM229.45 853.9c.03 1.68 1.1 2.38 2.36 2.38.9 0 1.44-.16 1.9-.36l.22.9c-.44.2-1.2.42-2.28.42-2.12 0-3.4-1.4-3.4-3.46s1.24-3.7 3.24-3.7c2.24 0 2.84 1.96 2.84 3.23 0 .26-.03.46-.04.6h-4.83zm3.66-.9c.03-.8-.3-2.04-1.72-2.04-1.27 0-1.82 1.17-1.92 2.03h3.65zM237.47 857.1l-2.43-9.58h1.3l1.14 4.85c.3 1.2.54 2.4.7 3.3h.04c.16-.94.46-2.08.78-3.3l1.28-4.84h1.3l1.16 4.85c.27 1.14.53 2.28.67 3.28h.04c.2-1.05.47-2.1.76-3.3l1.27-4.84h1.26l-2.7 9.58h-1.3l-1.2-5c-.3-1.2-.5-2.15-.64-3.1h-.03c-.17.94-.4 1.88-.74 3.1l-1.37 5h-1.3zM253.63 853.6c0 2.55-1.76 3.66-3.42 3.66-1.85 0-3.3-1.37-3.3-3.54 0-2.3 1.52-3.65 3.42-3.65 1.98 0 3.3 1.43 3.3 3.53zm-5.45.07c0 1.5.86 2.65 2.08 2.65 1.2 0 2.1-1.12 2.1-2.67 0-1.17-.6-2.65-2.07-2.65-1.48 0-2.12 1.37-2.12 2.67zM255.2 852.37c0-.8 0-1.5-.05-2.15h1.1l.04 1.35h.04c.3-.92 1.07-1.5 1.9-1.5.15 0 .25 0 .36.04v1.2c-.13-.04-.26-.05-.43-.05-.88 0-1.5.66-1.67 1.6-.03.17-.06.37-.06.58v3.67h-1.24v-4.73zM261.14 853.38h.03c.17-.25.4-.54.6-.78l2.03-2.38h1.5l-2.65 2.83 3.02 4.05h-1.52l-2.37-3.3-.64.7v2.6h-1.23V847h1.24v6.38zM267.26 853.9c.03 1.68 1.1 2.38 2.36 2.38.9 0 1.44-.16 1.9-.36l.22.9c-.44.2-1.2.42-2.3.42-2.1 0-3.37-1.4-3.37-3.46s1.22-3.7 3.22-3.7c2.24 0 2.84 1.96 2.84 3.23 0 .26-.03.46-.05.6h-4.84zm3.67-.9c0-.8-.33-2.04-1.74-2.04-1.27 0-1.82 1.17-1.92 2.03h3.65zM273.68 852.37c0-.8 0-1.5-.06-2.15h1.1l.04 1.35h.06c.3-.92 1.06-1.5 1.9-1.5.14 0 .24 0 .35.04v1.2c-.12-.04-.25-.05-.42-.05-.88 0-1.5.66-1.68 1.6-.03.17-.06.37-.06.58v3.67h-1.22v-4.73z"/></g><path fill="none" stroke="#000" stroke-width=".5" stroke-miterlimit="10" d="M229 815.5v22"/><g><path d="M59.6 607c-.4.2-1.3.4-2.5.4-2.6 0-4.6-1.7-4.6-4.8 0-3 2-5 5-5 1.2 0 2 .2 2.3.4l-.3 1c-.5-.2-1.2-.4-2-.4-2.2 0-3.7 1.4-3.7 4 0 2.3 1.3 3.8 3.7 3.8.7 0 1.5-.2 2-.4l.2 1h-.1zm1.4-9.8h1.4v10H61v-10zm5 1.3c0 .4-.4.7-1 .7-.3 0-.7-.3-.7-.7 0-.5.4-.8.8-.8.6 0 1 .3 1 .8H66zm-1.5 8.8v-7h1.2v7h-1.2zm4-3.3c0 1.8 1 2.5 2.4 2.5.8 0 1.3-.2 1.8-.4l.2 1c-.5.2-1.2.4-2.3.4-2 0-3.4-1.4-3.4-3.4s1.2-3.8 3.2-3.8c2.3 0 3 2 3 3.3 0 .2 0 .4-.2.6h-4.8l.1-.2zm3.7-.8c0-.8-.3-2-1.8-2-1.2 0-1.8 1-2 2h3.8zm2.8-.9v-2h1v1.2c.4-.6 1.2-1.3 2.4-1.3 1 0 2.4.6 2.4 3v4h-1.3v-4c0-1-.4-2-1.6-2-1 0-1.5.7-1.7 1.4v4.8h-1.4v-5l.2-.1zm9.3-3.9v2H86v1h-1.7v3.7c0 1 .2 1.4 1 1.4h.6v1h-1c-.7 0-1.2-.2-1.5-.5-.3-.5-.5-1-.5-2v-3.6h-1v-1h1v-1.6l1.3-.4h.1z"/></g><path fill="none" stroke="#000" stroke-width=".8" stroke-miterlimit="10" d="M34.5 605L71 568.4l36.3 36.4L71 641.2 34.5 605z"/><g><path d="M59.5 852.2c-.5.2-1.4.4-2.5.4-2.7 0-4.8-1.7-4.8-4.8 0-3 2-5 5-5 1.2 0 2 .2 2.3.4l-.3 1c-.5-.2-1-.4-2-.4-2.2 0-3.7 1.4-3.7 4 0 2.3 1.4 3.8 3.7 3.8.8 0 1.5-.2 2-.4l.3 1zm1.5-9.8h1.3v10H61v-10zm4.7 1.3c0 .4-.3.8-.7.8-.5 0-.8-.4-.8-.8 0-.5.3-.8.8-.8.4 0 .7.2.7.7v.1zm-1.3 8.8v-7h1.2v7h-1.2zm4-3.2c0 1.7 1 2.4 2.3 2.4 1 0 1.5-.2 2-.4v1c-.3 0-1 .3-2 .3-2.3 0-3.5-1.4-3.5-3.4s1.2-3.7 3.2-3.7c2.3 0 2.8 2 2.8 3.2v.6h-4.8zm3.6-1c0-.7-.3-2-1.7-2-1.3 0-1.8 1.2-2 2H72zm2.8-.8v-2h1v1.3c.5-.7 1.3-1.3 2.4-1.3 1 0 2.4.5 2.4 3v4h-1.2v-4c0-1-.4-2-1.6-2-.8 0-1.5.6-1.7 1.3v4.6h-1.2v-5l-.1.1zm9.2-3.9v2h2v1h-2v3.7c0 .8.4 1.3 1 1.3h.8v1h-1c-.6 0-1 0-1.4-.5-.4-.3-.5-1-.5-1.7v-3.7h-1.2v-1h1V844l1.3-.4z"/></g><path fill="none" stroke="#000" stroke-width=".8" stroke-miterlimit="10" d="M34.3 850.2l36.4-36.4 36.4 36.4-36.3 36.4-36.5-36.4z"/><path fill="none" stroke="#000" stroke-width="1.5" stroke-miterlimit="10" d="M70.8 641.3v172.4"/><g><path fill="none" stroke="#000" stroke-width="1.2" stroke-miterlimit="10" d="M157.5 646.7H70.8"/><path d="M155.8 641l10 5.7-10 5.7"/></g><g><path fill="none" stroke="#000" stroke-width="1.2" stroke-miterlimit="10" d="M79 804.3h87"/><path d="M80.8 810l-10-5.7 10-5.8"/></g><path fill="#FFF" stroke="#000" stroke-width=".5" stroke-miterlimit="10" d="M165 680.6h126.3V711H165v-30.4z"/><g><path d="M202.4 695.6v-2.3h1v1.2c.7-.8 1.4-1.3 2.6-1.3 1.6 0 2.8 1.4 2.8 3.4 0 2.5-1.5 3.7-3 3.7-1 0-1.7-.4-2-1h-.2v3.6h-1.2v-7.4.1zm1.2 1.8v.5c.3.7 1 1.3 2 1.3 1.2 0 2-1 2-2.6 0-1.4-.7-2.5-2-2.5-1 0-1.6.6-2 1.5v1.8zM214 700v-.7c-.4.5-1 1-2 1-1.5 0-2.2-1-2.2-2 0-1.6 1.5-2.5 4-2.5 0-.7 0-1.7-1.4-1.7-.6 0-1.3.3-1.8.6l-.3-.8c.6-.4 1.4-.6 2.3-.6 2 0 2.5 1.4 2.5 2.8v2.5c0 .6.2 1.2.3 1.6H214v-.2zm0-3.3c-1.4 0-3 .2-3 1.5 0 .8.6 1.2 1.2 1.2 1 0 1.5-.6 1.7-1.2v-1.4l.1-.1zm3.5-3.4l1.4 4c0 .5.3 1 .4 1.4 0-.4.3-1 .4-1.4l1.4-4h1.3l-2 5c-.7 2.2-1.3 3.4-2.2 4-.6.7-1.2 1-1.5 1l-.3-1 1-.7c.4-.3.8-.8 1-1.4.2 0 .2-.2.2-.3v-.4l-2.6-6.3h1.5v.1zm6.1-3.1h1.2v10h-1.2v-10zm9.4 6.5c0 2.5-1.7 3.6-3.3 3.6-2 0-3.3-1.4-3.3-3.5 0-2.3 1.5-3.6 3.4-3.6 2 0 3.2 1.4 3.2 3.5zm-5.3 0c0 1.5.8 2.7 2 2.7s2-1.2 2-2.7c0-1-.5-2.6-2-2.6-1.4 0-2 1.5-2 2.7v-.1zm10.7 3.3v-.7h-.2c-.4.5-1 1-2 1-1.4 0-2-1-2-2 0-1.6 1.3-2.5 4-2.5 0-.7-.2-1.7-1.6-1.7-.6 0-1.3.3-1.8.6l-.2-.8c.5-.4 1.3-.6 2.2-.6 2 0 2.6 1.4 2.6 2.8v4.1h-1v-.2zm-.2-3.3c-1.4 0-3 .2-3 1.5 0 .8.6 1.2 1.3 1.2.8 0 1.4-.6 1.6-1.2l.2-.4v-1l-.1-.1zm9-6.5v9.8h-1v-1c-.5.7-1.3 1.3-2.4 1.3-1.7 0-3-1.4-3-3.5 0-2.2 1.4-3.6 3-3.6 1 0 1.8.5 2 1h.2v-4h1.2zm-1.2 6v-.6c-.3-.8-1-1.4-2-1.4s-2 1-2 2.6c0 1.4.8 2.5 2 2.5 1 0 1.7-.6 2-1.5V696v.2zm5.7-.8v-.8h7.3v.8h-7.3zm0 2.8v-1h7.3v1h-7.3zm12.5-7.8l1.2 2h-1l-1.6-2h1.4zm3.2 9c0-.5.4-1 1-1 .4 0 .7.5.7 1s-.2 1-.7 1-1-.5-1-1zm2.9 0c0-.5.4-1 1-1 .4 0 .7.5.7 1s-.3 1-.8 1-1-.5-1-1h.1zm2.9 0c0-.5.4-1 1-1 .4 0 .7.5.7 1s-.4 1-1 1c-.4 0-.8-.5-.8-1h.1z"/></g><g><path d="M216.8 648.3c.5.3 1.3.6 2.2.6 1.2 0 2-.7 2-1.7s-.6-1.4-1.8-2c-1.6-.4-2.5-1.2-2.5-2.5 0-1.5 1.2-2.6 3-2.6 1 0 1.7.2 2 .5l-.2 1c-.3-.2-1-.5-1.8-.5-1.3 0-1.8.8-1.8 1.4 0 1 .5 1.3 1.8 1.8 1.6.7 2.4 1.4 2.4 2.8 0 1.5-1 2.7-3.3 2.7-1 0-2-.3-2.5-.7l.3-1 .2.2zm8.4-7.3v2h1.8v1h-1.8v3.6c0 .8.3 1.3 1 1.3.3 0 .5 0 .7-.2v1h-1.2c-.5 0-1 0-1.3-.4-.3-.4-.5-1-.5-1.8V644h-1v-1h1v-1.6l1.2-.3.1-.1zm6.8 8.8v-1c-.4.7-1 1-2 1-1.4 0-2-.8-2-1.8 0-1.6 1.3-2.5 4-2.5v-.2c0-.5-.2-1.5-1.6-1.5-.6 0-1.3.2-1.8.5l-.3-.8c.6-.4 1.4-.6 2.3-.6 2 0 2.6 1.3 2.6 2.6v4.2h-1l-.2.1zm0-3.5c-1.4 0-3 .2-3 1.6 0 .7.6 1 1.3 1 .8 0 1.4-.5 1.6-1v-1.7l.1.1zm3-1.3v-2h1.2v1.3c.4-1 1-1.4 2-1.4h.3v1h-.4c-.8 0-1.4.7-1.6 1.6v4.2H235V645zm6.5-4v2h1.8v1h-1.8v3.6c0 .8.3 1.3 1 1.3.3 0 .5 0 .7-.2v1h-1c-.6 0-1 0-1.4-.4-.3-.4-.5-1-.5-1.8V644h-1v-1h1v-1.6l1.2-.3v-.1z"/></g><g><path d="M39 19.3V17h1l.2 1.2c.5-.8 1.3-1.3 2.4-1.3 1.7 0 3 1.3 3 3.4 0 2.4-1.6 3.6-3.2 3.6-1 0-1.7-.4-2-1v3.6H39v-7.3.1zm1.3 1.8v.6c.3.8 1 1.4 2 1.4 1.2 0 2-1 2-2.6 0-1.3-.8-2.5-2-2.5-1 0-1.7.5-2 1.4V21.1zm10.5 2.7V23c-.5.5-1.3 1-2.2 1-1.4 0-2-1-2-2 0-1.6 1.4-2.5 4-2.5 0-.7-.2-1.7-1.6-1.7-.6 0-1.2.2-1.7.5l-.3-.8c.6-.4 1.4-.6 2.2-.6 2 0 2.6 1.3 2.6 2.7v4.1h-1v.1zm-.2-3.4c-1.3 0-3 .2-3 1.5 0 .7.7 1 1.3 1 .8 0 1.3-.5 1.5-1v-1.6l.2.1zm3 2.2c.4.2 1 .5 1.6.5 1 0 1.4-.4 1.4-1 0-.5-.4-.8-1.3-1.2-1.2-.4-1.8-1-1.8-2s1-2 2.3-2c.7 0 1.3.3 1.7.5l-.3 1c-.3-.2-.8-.5-1.4-.5-.7 0-1 .5-1 1s.3.8 1.2 1c1 .6 1.8 1 1.8 2 0 1.3-1 2.2-2.6 2.2-.7 0-1.4-.2-2-.5l.4-1zm5.6 0c.3.2 1 .5 1.6.5 1 0 1.3-.4 1.3-1 0-.5-.2-.8-1.2-1.2-1.2-.4-1.7-1-1.7-2s1-2 2.4-2c.7 0 1.3.3 1.7.5l-.3 1c-.2-.2-.7-.5-1.3-.5-.8 0-1.2.5-1.2 1s.4.8 1.3 1c1.2.6 1.8 1 1.8 2 0 1.3-1 2.2-2.5 2.2-.8 0-1.5-.2-2-.5l.4-1h-.3zm7.2-7.6v2H68v1h-1.6v3.7c0 .8.2 1.3 1 1.3h.6v.8l-1 .2c-.6 0-1-.2-1.4-.5-.3-.4-.4-1-.4-1.8V18h-1v-1h1v-1.6l1.2-.3V15zm3.1-1h1.2v4l1-.7c.3-.3.8-.4 1.2-.4.8 0 2.3.5 2.3 2.8v4H74v-4c0-1-.4-2-1.5-2-.8 0-1.4.7-1.7 1.4v4.5h-1.3V14zm7.8 5.2v-2h1v1.2c.4-1 1.2-1.5 2-1.5h.3v1h-.4c-1 0-1.5.7-1.6 1.7v4.1h-1.3v-4.6.1zM88 20.4c0 2.5-2 3.6-3.5 3.6-2 0-3.3-1.3-3.3-3.5 0-2.3 1.5-3.6 3.4-3.6 2 0 3.3 1.3 3.3 3.4l.1.1zm-5.5 0c0 1.5.8 2.7 2 2.7s2-1 2-2.6c0-1-.5-2.6-2-2.6-1.4 0-2 1.4-2 2.7v-.2zM95 22v1.8h-1v-1c-.4.5-1 1.2-2.3 1.2-1 0-2.3-.6-2.3-3v-4h1.2v4c0 1.3.4 2.2 1.5 2.2 1 0 1.5-.6 1.7-1V17h1.4v5H95zm8-5v6c0 1.4-.4 2.4-1 3-.7.6-1.7.8-2.5.8s-1.7-.2-2.3-.6l.3-1c.5.3 1.2.6 2 .6 1.3 0 2.2-.7 2.2-2.4v-.7c-.4.6-1 1-2.2 1-1.7 0-3-1.3-3-3.2 0-2.3 1.6-3.6 3.2-3.6 1.2 0 1.8.5 2 1l.2-1h1l.1.1zm-1.3 2.7v-.5c-.3-.7-1-1.3-1.8-1.3-1.3 0-2 1-2 2.4s.5 2.5 2 2.5c.6 0 1.3-.6 1.6-1.4v-1.9l.2.2zM105 14h1.2v4c.2-.2.5-.5 1-.7.3-.3.7-.4 1-.4 1 0 2.5.5 2.5 2.8v4h-1.2v-4c0-1-.4-2-1.6-2-1 0-1.5.7-1.7 1.4v4.5h-1.4V14h.2z"/></g><g><path d="M47.7 80.5v-2.2h1v1.2c.6-.8 1.4-1.3 2.5-1.3 1.7 0 3 1.4 3 3.4 0 2.5-1.6 3.7-3.2 3.7-1 0-1.6-.4-2-1v3.6h-1.3v-7.5.1zm1.2 1.8v.5c.2 1 1 1.5 1.8 1.5 1.3 0 2-1 2-2.6 0-1.4-.6-2.6-2-2.6-.8 0-1.6.8-1.8 1.7v1.5zM59.4 85v-.8c-.5.6-1.2 1-2.2 1-1.4 0-2-1-2-2 0-1.5 1.4-2.4 4-2.4v-.2c0-.5 0-1.5-1.5-1.5-.7 0-1.3.3-1.8.6l-.4-.8c.6-.4 1.4-.6 2.3-.6 2 0 2.4 1.4 2.4 2.7v4h-1 .2zm-.2-3.4c-1.3 0-2.8.3-2.8 1.6 0 .8.5 1 1 1 1 0 1.6-.4 1.8-1v-1.6zm3.1 2.2c.3.3 1 .5 1.6.5.8 0 1.2-.4 1.2-1s-.4-1-1.3-1.2c-1.3-.4-2-1-2-1.8 0-1 1-2 2.5-2 .7 0 1.3.2 1.6.4l-.2 1c-.2-.3-.7-.5-1.4-.5s-1 .5-1 1c0 .6.3.8 1.2 1.2 1.2.4 1.8 1 1.8 2 0 1.2-1 2-2.6 2-.7 0-1.4 0-2-.4l.5-1 .1-.2zm5.5 0c.4.3 1 .5 1.6.5 1 0 1.3-.4 1.3-1s-.3-1-1.2-1.2c-1.2-.4-1.8-1-1.8-1.8 0-1 1-2 2.3-2 .7 0 1.3.2 1.7.4l-.3 1c-.3-.3-.8-.5-1.4-.5-.7 0-1 .5-1 1 0 .6.3.8 1 1.2 1.3.4 2 1 2 2 0 1.2-1 2-2.6 2-.8 0-1.4 0-2-.4l.4-1v-.2zm7.2-7.4v2h1.8v1H75v3.5c0 .8.2 1.2 1 1.2h.6v1h-1c-.6 0-1 0-1.3-.5-.4-.3-.5-1-.5-1.7v-3.7h-1v-1h1v-1.6l1.2-.3v.1zm3-1.2h1.4v4.2c.2-.4.5-.7 1-1l1-.2c1 0 2.5.5 2.5 3v4h-1.3v-4c0-1-.4-2-1.6-2-.7 0-1.3.6-1.5 1.2V85H78v-9.8zm8 5.2v-2h1v1.3c.3-1 1-1.5 2-1.5h.3v1.2h-.5c-.8 0-1.4.6-1.6 1.5V85h-1.3v-4.6h.1zm10.5 1.3c0 2.5-1.8 3.6-3.4 3.6-1.7 0-3-1.4-3-3.5 0-2.3 1.3-3.6 3.2-3.6 2 0 3.3 1.4 3.3 3.5h-.1zm-5.4 0c0 1.5 1 2.6 2.2 2.6 1 0 2-1 2-2.6 0-1-.6-2.6-2-2.6-1.5 0-2 1.4-2 2.7l-.2-.1zm12.6 1.6V85h-1v-1c-.4.5-1.2 1.3-2.4 1.3-1 0-2.3-.6-2.3-3v-4h1.2V82c0 1.4.4 2.2 1.5 2.2 1 0 1.4-.5 1.7-1v-4.9h1.3v5zm7.9-5V84c0 1.7-.4 2.6-1 3.2-.7.6-1.6.8-2.5.8-.7 0-1.6-.2-2.2-.5l.4-1c.4.3 1 .6 2 .6 1.2 0 2-.6 2-2.3V84c-.3.6-1 1-2 1-1.7 0-3-1.4-3-3.2 0-2.3 1.6-3.6 3-3.6 1.3 0 2 .6 2.2 1v-1h1.2l-.1.1zm-1.3 2.7v-.6c-.3-.7-1-1.3-1.8-1.3-1.2 0-2 1-2 2.7 0 1.3.7 2.4 2 2.4.8 0 1.5-.3 1.7-1v-2l.1-.2zm3.3-5.8h1.2v4.2c.2-.4.5-.7 1-1l1.2-.2c1 0 2.3.5 2.3 3v4H118v-4c0-1-.3-2-1.5-2-.8 0-1.4.6-1.6 1.2-.2.2-.2.4-.2.6v4h-1.2v-9.8h.1z"/></g><g><path d="M39.7 457.7V456h1v1c.5-.6 1.2-1.3 2.4-1.3 1 0 2.5.6 2.5 3v4h-1.3v-4c0-1-.4-2-1.5-2-1 0-1.5.6-1.7 1.3v4.6h-1.3v-5l-.1.1zm8-1.7l1.5 4c.2.3.3 1 .4 1.3l.5-1.4 1.4-4h1.3l-1.8 4.7c-1 2.4-1.6 3.5-2.4 4.3-.6.5-1.2.7-1.5.8l-.2-1 1-.7c.4 0 .8-.6 1-1.2 0-.2.2-.3.2-.3v-.4l-2.6-6h1.3l-.1-.1zm5.9 5.4c.4.2 1 .5 1.6.5 1 0 1.4-.5 1.4-1 0-.7-.4-1-1.3-1.4-1.2-.4-1.8-1-1.8-2s1-2 2.3-2c.7 0 1.3.3 1.7.6l-.3 1c-.3-.3-.8-.5-1.4-.5-.7 0-1 .4-1 1 0 .4.3.7 1.2 1 1 .5 1.7 1 1.7 2 0 1.3-1 2-2.5 2-.7 0-1.4 0-2-.4l.4-1v.2zm6.4-1.9c0 1.7 1 2.4 2.3 2.4 1 0 1.5-.3 2-.5v1c-.3 0-1 .3-2 .3-2.2 0-3.5-1.4-3.5-3.4s1.2-3.7 3.2-3.7c2.2 0 2.8 2 2.8 3.2v.5H60v.2zm3.6-1c0-.7-.3-2-1.7-2-1.3 0-2 1.3-2 2h3.7zm2.6 2.7c.6.3 1.4.6 2.2.6 1.2 0 2-.7 2-1.6 0-1-.5-1.4-1.8-2-1.5-.4-2.5-1.2-2.5-2.6 0-1.4 1.3-2.5 3.2-2.5 1 0 1.6.3 2 .5l-.3 1c-.4 0-1-.4-2-.4-1.2 0-1.7 1-1.7 1.5 0 1 .6 1.3 2 1.8 1.5.6 2.3 1.4 2.3 2.8 0 1.6-1 2.8-3.3 2.8-1 0-2-.3-2.4-.6l.2-1 .1-.3zm8.5-7.2v2h1.7v.8h-1.7v3.7c0 .8.2 1.3 1 1.3h.6v.8l-1 .2c-.6 0-1-.2-1.3-.5-.4-.4-.5-1-.5-1.8v-3.7h-1v-1h1v-1.5l1.2-.4v.1zm9.3 5.2c0 2.5-2 3.6-3.5 3.6-1.8 0-3.2-1.3-3.2-3.5s1.4-3.6 3.3-3.6c2 0 3.3 1.5 3.3 3.5h.1zm-5.5 0c0 1.6 1 2.7 2 2.7 1.2 0 2-1.2 2-2.7 0-1.2-.5-2.6-2-2.6-1.4 0-2 1.3-2 2.6zm11.8 3.2c-.4.2-1 .4-2 .4-2 0-3.4-1.4-3.4-3.4s1.4-3.6 3.6-3.6c.7 0 1.4 0 1.7.3l-.3 1c-.3 0-.7-.3-1.4-.3-1.6 0-2.4 1.2-2.4 2.6 0 1.6 1 2.5 2.3 2.5.7 0 1.2-.2 1.6-.3l.3 1v-.2zM93 459c0-.2.4-.5.6-.8l2-2.3H97l-2.6 2.7 3 4H96l-2.4-3.3-.7.7v2.7h-1.3v-10H93v6.3zm13 5l-3.5-1-.6-.2c-2.3 0-4.2-1.7-4.2-4.8 0-3 1.8-5 4.4-5 2.5 0 4.2 2 4.2 5 0 2.3-1 3.8-2.7 4.4l2.8.6-.4 1zm-1-6c0-2-1-4-3-4s-3 2-3 4 1.2 3.8 3 3.8c2 0 3-1.7 3-4v.2zm8.6 2.8v2h-1v-1.2c-.4.5-1 1.2-2.3 1.2-1 0-2.4-.6-2.4-3v-4h1.2v3.8c0 1.3.3 2.2 1.5 2.2.8 0 1.4-.6 1.6-1V456h1.3v4.8h.1zm8.2-1.6c0 2.5-1.7 3.6-3.4 3.6-1.8 0-3.2-1.3-3.2-3.5s1.5-3.6 3.3-3.6c2 0 3.3 1.5 3.3 3.5zm-5.4 0c0 1.6 1 2.7 2 2.7 1.3 0 2-1.2 2-2.7 0-1.2-.4-2.6-2-2.6-1.3 0-2 1.3-2 2.6zm8.4-5.2v2h1.8v.8h-1.8v3.7c0 .8.3 1.3 1 1.3h.7v.8l-1 .2c-.6 0-1-.2-1.4-.5-.2-.4-.4-1-.4-1.8v-3.7h-1v-1h1v-1.5l1.2-.4-.1.1zm3.8 5.5c0 1.7 1 2.4 2.3 2.4.8 0 1.3-.3 1.8-.5l.2 1c-.4 0-1.2.3-2.2.3-2 0-3.4-1.4-3.4-3.4s1.2-3.7 3.2-3.7c2.2 0 2.8 2 2.8 3.2v.5h-4.8l.1.2zm3.6-1c0-.7-.3-2-1.7-2-1.2 0-1.8 1.3-2 2h3.7z"/></g><g><path d="M50.5 524.2c.5.3 1.3.6 2.2.6 1.2 0 2-.7 2-1.6 0-1-.5-1.4-1.8-2-1.7-.4-2.6-1.2-2.6-2.6 0-1.4 1.2-2.5 3-2.5 1 0 1.7.3 2 .5l-.2 1c-.3 0-1-.4-1.8-.4-1.3 0-1.8.8-1.8 1.5 0 1 .6 1.3 2 1.8 1.5.6 2.3 1.4 2.3 2.8 0 1.5-1.2 2.8-3.4 2.8-1 0-2-.3-2.4-.6l.3-1 .2-.3zM59 517v2h1.7v.8H59v3.7c0 .8.2 1.3 1 1.3h.6v.8l-1 .2c-.6 0-1-.2-1.4-.5-.3-.4-.4-1-.4-1.8v-3.7h-1v-1h1v-1.5l1.2-.4v.1zm9.2 5.2c0 2.5-1.8 3.6-3.4 3.6-1.8 0-3.3-1.3-3.3-3.5s1.5-3.6 3.4-3.6c2 0 3.2 1.4 3.2 3.5h.1zm-5.4 0c0 1.6.8 2.7 2 2.7s2-1.2 2-2.7c0-1.2-.5-2.6-2-2.6-1.4 0-2 1.3-2 2.6zm11.8 3.2c-.4.2-1 .4-2 .4-2 0-3.4-1.4-3.4-3.5 0-2 1.5-3.6 3.7-3.6.6 0 1.2.2 1.6.4l-.3 1c-.3 0-.8-.3-1.4-.3-1.7 0-2.5 1.2-2.5 2.6 0 1.6 1 2.5 2.3 2.5.7 0 1.2-.2 1.5-.3l.3 1 .2-.2zm2.6-3.4l.6-.8 2-2.3h1.5l-2.6 2.7 3 4h-1.5l-2.4-3.3-.6.7v2.7H76v-10h1.2v6.3zm5.2 2.4c.4.2 1 .5 1.6.5 1 0 1.3-.6 1.3-1 0-.7-.3-1-1.2-1.4-1-.4-1.7-1-1.7-2s1-2 2.3-2c.7 0 1.3.3 1.7.5l-.3 1c-.3 0-.8-.3-1.4-.3-.7 0-1 .4-1 1 0 .4.3.7 1 1 1.3.5 2 1 2 2 0 1.3-1 2-2.6 2-.8 0-1.4 0-2-.4l.4-1-.1.1z"/></g><path fill="#FFF" stroke="#000" stroke-width=".5" stroke-miterlimit="10" d="M165 731.5h126.3V762H165v-30.5z"/><g><path d="M191.4 746v-1.8h1v1c.5-.5 1-1 2.3-1 1 0 1.6.4 2 1.2 0-.3.4-.6.7-.8.4-.3.8-.5 1.5-.5.8 0 2 .7 2 3v4h-1v-3.8c0-1.3-.6-2-1.6-2-.7 0-1.2.4-1.5 1v4.8h-1.4v-4c0-1-.4-2-1.4-2-.7 0-1.3.7-1.5 1.3v4.6h-1.3v-5h.2zm12.4 2c0 1.5 1 2.2 2.3 2.2 1 0 1.5 0 2-.3l.2.7c-.5.2-1.2.5-2.3.5-2.2 0-3.4-1.4-3.4-3.5 0-2 1.2-3.6 3.2-3.6 2.2 0 2.8 2 2.8 3.3v.6h-4.8v.1zm3.6-1c0-.8-.3-2-1.7-2-1.3 0-1.8 1-2 2h3.7zm2.6 2.8c.3.2 1 .5 1.6.5.8 0 1.3-.5 1.3-1 0-.6-.5-1-1.4-1.3-1.2-.4-1.8-1-1.8-2s1-2 2.4-2c.6 0 1.2.3 1.6.5l-.3 1c-.3-.3-.7-.5-1.4-.5-.6 0-1 .4-1 1 0 .5.4.7 1.3 1 1.2.5 1.8 1 1.8 2 0 1.3-1 2.2-2.5 2.2-.7 0-1.4-.2-2-.5l.4-1v.1zm5.5 0c.3.2 1 .5 1.6.5 1 0 1.4-.5 1.4-1 0-.6-.3-1-1.3-1.3-1-.4-1.6-1-1.6-2s.8-2 2.3-2c.7 0 1.3.3 1.7.5l-.3 1c-.2-.3-.7-.5-1.3-.5-.8 0-1.2.4-1.2 1 0 .5.4.7 1.3 1 1.2.5 1.8 1 1.8 2 0 1.3-1 2.2-2.5 2.2-.7 0-1.4-.2-1.8-.5l.3-1-.4.1zm9.5 1.2l-.2-.8c-.4.5-1 1-2 1-1.5 0-2.2-1-2.2-2 0-1.6 1.5-2.5 4-2.5 0-.7 0-1.7-1.4-1.7-.6 0-1.3.2-1.8.5l-.3-.8c.7-.4 1.5-.6 2.4-.6 2 0 2.5 1.5 2.5 3v4h-1v-.1zm-.2-3.4c-1.4 0-3 .2-3 1.5 0 1 .6 1.3 1.2 1.3 1 0 1.5-.6 1.7-1.2v-1.3l.1-.3zm9-3.4v5.8c0 1.6-.4 2.5-1 3-.7.8-1.7 1-2.5 1s-1.7-.2-2.3-.6l.3-1c.5.3 1.2.6 2 .6 1.3 0 2.2-.7 2.2-2.4v-.7c-.4.5-1 1-2.2 1-1.7 0-3-1.4-3-3.3 0-2.3 1.6-3.6 3.2-3.6 1.2 0 1.8.7 2 1.3l.2-1h1l.1-.1zm-1.3 2.7v-.6c-.3-.8-1-1.3-1.8-1.3-1.2 0-2 1-2 2.6 0 1.3.7 2.5 2 2.5.7 0 1.4-.4 1.7-1.2V747l.1-.1zm3.9 1.1c0 1.5 1 2.2 2.4 2.2.8 0 1.4 0 1.8-.3l.3.7c-.6.2-1.3.5-2.4.5-2 0-3.3-1.4-3.3-3.5 0-2 1.2-3.6 3-3.6 2.4 0 3 2 3 3.3v.6h-5l.2.1zm3.7-1c0-.8-.3-2-1.7-2-1.2 0-1.7 1-1.8 2h3.6-.1zm2.4-1.6c0-.6.3-1 .8-1s.8.4.8 1c0 .5-.2.8-.7.8s-.8-.3-.8-.8h-.1zm0 5c0-.6.3-1 .8-1s.8.4.8 1c0 .4-.2.8-.7.8s-.8-.4-.8-1l-.1.2zm3-.6c.4.2 1 .5 1.6.5 1 0 1.4-.5 1.4-1 0-.6-.3-1-1.2-1.3-1.2-.4-1.8-1-1.8-2s1-2 2.3-2c.7 0 1.3.3 1.7.5l-.3 1c-.2-.3-.7-.5-1.3-.5-.7 0-1 .4-1 1 0 .5.3.7 1.2 1 1 .5 1.6 1 1.6 2 0 1.3-1 2.2-2.5 2.2-.6 0-1.3-.2-1.8-.5l.3-1-.2.1zm6.5-1.8c0 1.5 1 2.2 2.2 2.2 1 0 1.4 0 2-.3v.7c-.3.2-1 .5-2 .5-2.2 0-3.5-1.4-3.5-3.5 0-2 1.2-3.6 3.2-3.6s2.7 2 2.7 3.3v.6H252v.1zm3.5-1c0-.8-.3-2-1.7-2-1.2 0-1.8 1-2 2h3.7zm4.2-4.7v2h1.8v1h-1.8v3.5c0 1 .2 1.4 1 1.4h.7v.8l-1 .2c-.7 0-1-.2-1.4-.6-.4-.3-.5-1-.5-1.7V745h-1v-1h1v-1.6l1.2-.3v.2zm2.8 8c0-.5.4-1 1-1 .4 0 .7.5.7 1s-.3 1-1 1c-.3 0-.7-.5-.7-1zm2.9 0c0-.5.4-1 1-1 .4 0 .7.5.7 1s-.2 1-.8 1c-.4 0-.8-.5-.8-1h-.1z"/></g><path fill="none" stroke="#000" stroke-width=".5" stroke-miterlimit="10" d="M229.6 761.5v22M229 710v22m.6-72v21.8"/></g></svg>