<?xml version="1.0" encoding="utf-8"?>
<!-- Generator: Adobe Illustrator 16.0.0, SVG Export Plug-In . SVG Version: 6.00 Build 0)  -->
<!DOCTYPE svg PUBLIC "-//W3C//DTD SVG 1.1//EN" "http://www.w3.org/Graphics/SVG/1.1/DTD/svg11.dtd">
<svg version="1.1" xmlns="http://www.w3.org/2000/svg" xmlns:xlink="http://www.w3.org/1999/xlink" x="0px" y="0px" width="500px"
	 height="920.333px" viewBox="0 0 500 920.333" enable-background="new 0 0 500 920.333" xml:space="preserve">
<g id="Layer_1">
	
		<rect x="19.981" y="70.752" fill="none" stroke="#000000" stroke-width="0.4524" stroke-miterlimit="10" width="459.972" height="350.276"/>
	
		<rect x="9.86" y="9.346" fill="#FFFFFF" stroke="#000000" stroke-width="0.536" stroke-miterlimit="10" width="482.054" height="20.988"/>
	<g>
		<path fill="#939598" d="M441.812,22.225l-0.015-2.915h0.721v3.65h-7.536v-7.536c0.628,0,1.879,0,3.754,0v0.721
			c-0.167,0-0.386,0-0.655,0c-0.271,0-0.68-0.002-1.229-0.007s-0.937-0.007-1.163-0.007l0.016,6.094H441.812z M441.37,16.735
			l-0.942-0.869l0.412-0.441l1.678,1.56l-1.428,1.575l-0.427-0.412l0.677-0.81c-1.854,0.187-3.174,0.893-3.959,2.12
			c-0.196,0.294-0.352,0.611-0.464,0.949c-0.113,0.338-0.174,0.601-0.184,0.788l-0.029,0.28h-0.589c0-0.059,0.005-0.14,0.015-0.243
			s0.051-0.307,0.125-0.611c0.073-0.304,0.174-0.596,0.302-0.875c0.127-0.28,0.323-0.594,0.589-0.942
			c0.265-0.348,0.574-0.657,0.927-0.927c0.354-0.27,0.817-0.513,1.392-0.729S440.673,16.793,441.37,16.735z"/>
	</g>
	<g>
		<g>
			<path fill="#939598" d="M455.811,22.225l-0.015-2.915l0.721-0.015v3.665h-7.536v-7.536c0.628,0,1.879,0,3.754,0v0.707
				c-0.167,0-0.386,0-0.655,0c-0.271,0-0.68,0-1.229,0s-0.937,0-1.163,0l0.016,6.094H455.811z M456.517,15.425v0.589
				c-0.078,0-0.182,0.007-0.309,0.022c-0.128,0.015-0.371,0.079-0.729,0.191c-0.358,0.113-0.689,0.268-0.994,0.463
				c-1.227,0.785-1.928,2.105-2.104,3.959l0.81-0.677l0.412,0.427l-1.59,1.428l-1.546-1.678l0.427-0.413l0.884,0.942
				c0.059-0.697,0.193-1.332,0.404-1.906s0.457-1.038,0.736-1.391c0.279-0.353,0.584-0.662,0.912-0.927
				c0.329-0.265,0.65-0.461,0.965-0.589c0.313-0.127,0.599-0.228,0.854-0.302s0.461-0.115,0.618-0.125L456.517,15.425z"/>
		</g>
	</g>
	<g>
		<g>
			<path fill="#939598" d="M465.198,15.425h2.855v0.913h1.87v0.971h-6.609v-0.971h1.884V15.425z M463.785,18.06h5.682v4.901h-5.682
				V18.06z M465.066,18.678v3.591h0.868v-3.591H465.066z M467.318,18.678v3.591h0.868v-3.591H467.318z"/>
		</g>
	</g>
	<g>
		<g>
			<path fill="#939598" d="M480.902,21.23l-3.754-3.65l0.56-0.574l3.194,3.106l3.238-3.062l0.544,0.604L480.902,21.23z"/>
		</g>
	</g>
	
		<line fill="#939598" stroke="#000000" stroke-width="0.25" stroke-miterlimit="10" x1="431.315" y1="15.256" x2="431.315" y2="23.423"/>
	
		<line fill="#939598" stroke="#000000" stroke-width="0.25" stroke-miterlimit="10" x1="445.648" y1="15.674" x2="445.648" y2="23.84"/>
	
		<line fill="#939598" stroke="#000000" stroke-width="0.25" stroke-miterlimit="10" x1="459.815" y1="15.256" x2="459.815" y2="23.423"/>
	
		<line fill="#939598" stroke="#000000" stroke-width="0.25" stroke-miterlimit="10" x1="473.481" y1="15.256" x2="473.481" y2="23.423"/>
	<rect x="9.819" y="9.346" width="18.083" height="20.899"/>
	<g>
		<path fill="#FFFFFF" d="M21.858,16.747l-0.113,0.407H20.84l-0.679,2.716c-0.317,1.192-0.626,2.12-0.928,2.784
			c-0.438,0.92-0.905,1.554-1.403,1.9c-0.377,0.271-0.755,0.407-1.132,0.407c-0.257,0-0.468-0.075-0.634-0.226
			c-0.136-0.106-0.204-0.242-0.204-0.407c0-0.136,0.053-0.249,0.158-0.34s0.234-0.136,0.385-0.136c0.121,0,0.219,0.034,0.294,0.102
			c0.075,0.068,0.113,0.147,0.113,0.238c0,0.09-0.045,0.173-0.136,0.248c-0.061,0.061-0.091,0.105-0.091,0.137
			c0,0.029,0.015,0.06,0.045,0.09s0.083,0.046,0.158,0.046c0.181,0,0.37-0.057,0.566-0.17c0.196-0.113,0.37-0.279,0.521-0.498
			s0.294-0.539,0.43-0.962c0.06-0.181,0.219-0.754,0.475-1.72l1.086-4.21H18.78l0.091-0.407c0.347,0,0.588-0.026,0.724-0.079
			s0.26-0.147,0.374-0.283s0.26-0.385,0.441-0.747c0.241-0.498,0.475-0.883,0.701-1.154c0.302-0.377,0.623-0.656,0.962-0.837
			c0.34-0.182,0.66-0.271,0.962-0.271c0.317,0,0.569,0.079,0.758,0.237c0.188,0.158,0.283,0.336,0.283,0.532
			c0,0.136-0.049,0.252-0.147,0.351c-0.098,0.098-0.215,0.146-0.351,0.146s-0.246-0.037-0.328-0.112
			c-0.083-0.076-0.125-0.159-0.125-0.249c0-0.076,0.03-0.162,0.09-0.261c0.06-0.098,0.091-0.162,0.091-0.192
			c0-0.06-0.023-0.105-0.068-0.136c-0.06-0.03-0.136-0.045-0.226-0.045c-0.271,0-0.506,0.083-0.702,0.249
			c-0.287,0.211-0.536,0.551-0.747,1.019c-0.121,0.241-0.333,0.853-0.634,1.833H21.858z"/>
	</g>
	<g>
		<path d="M35.321,49.766c1.037-1.037,2.287-1.555,3.752-1.555s2.716,0.518,3.753,1.555c1.037,1.037,1.555,2.288,1.555,3.752
			c0,1.465-0.519,2.716-1.555,3.753s-2.288,1.555-3.753,1.555s-2.716-0.519-3.752-1.555s-1.555-2.288-1.555-3.753
			C33.766,52.054,34.285,50.803,35.321,49.766z M37.353,55.551v-0.374h-0.145c-0.235,0-0.353-0.131-0.353-0.394
			c0-0.055,0.014-0.166,0.042-0.332c0.027-0.125,0.042-0.255,0.042-0.394c0-0.276-0.097-0.456-0.291-0.539
			c0.193-0.096,0.291-0.283,0.291-0.56c0-0.125-0.014-0.249-0.042-0.374c-0.028-0.124-0.042-0.242-0.042-0.352
			c0-0.249,0.117-0.374,0.353-0.374h0.145v-0.373h-0.166c-0.511,0-0.767,0.235-0.767,0.705c0,0.042,0.014,0.173,0.042,0.394v0.021
			c0.027,0.18,0.042,0.318,0.042,0.415c0,0.221-0.118,0.332-0.353,0.332h-0.042v0.332h0.042c0.235,0,0.353,0.111,0.353,0.332
			c0,0.083-0.014,0.215-0.042,0.394c-0.028,0.249-0.042,0.387-0.042,0.415c0,0.484,0.256,0.726,0.767,0.726H37.353z M39.26,54.97
			l1.037-2.903H39.82l-0.498,1.431c-0.125,0.359-0.214,0.657-0.27,0.892c-0.056-0.208-0.145-0.504-0.27-0.892l-0.456-1.431h-0.477
			l0.954,2.903H39.26z M42.039,53.685v-0.332h-0.041c-0.235,0-0.353-0.111-0.353-0.332c0-0.097,0.014-0.235,0.042-0.415v-0.021
			c0.027-0.221,0.042-0.352,0.042-0.394c0-0.47-0.263-0.705-0.788-0.705h-0.145v0.373h0.145c0.235,0,0.353,0.125,0.353,0.374
			c0,0.083-0.007,0.173-0.021,0.27l-0.021,0.083c-0.028,0.208-0.042,0.332-0.042,0.374c0,0.276,0.097,0.463,0.29,0.56
			c-0.193,0.083-0.29,0.263-0.29,0.539c0,0.083,0.014,0.214,0.042,0.394c0.014,0.042,0.021,0.069,0.021,0.083
			c0.014,0.083,0.021,0.166,0.021,0.249c0,0.263-0.118,0.394-0.353,0.394h-0.145v0.374h0.166c0.511,0,0.768-0.242,0.768-0.726
			c0-0.083-0.014-0.221-0.042-0.415c-0.028-0.179-0.042-0.311-0.042-0.394c0-0.221,0.117-0.332,0.353-0.332H42.039z"/>
	</g>
	<rect x="46.099" y="49.633" fill="#AEADAE" width="7.373" height="7.373"/>
	<g>
		<path fill="#FFFFFF" d="M52.069,53.039v0.495H49.97v2.1h-0.495v-2.1h-2.099v-0.495h2.099v-2.1h0.495v2.1H52.069z"/>
	</g>
	<rect x="55.184" y="48.172" fill="#EFEFEF" width="10.667" height="10.667"/>
	<g>
		<path fill="#8D8D8D" d="M58.601,53.311l2.956-3.04l0.465,0.453l-2.527,2.587l2.492,2.623l-0.489,0.441L58.601,53.311z"/>
	</g>
	
		<rect x="9.874" y="30.322" fill="none" stroke="#000000" stroke-width="0.473" stroke-miterlimit="10" width="482.028" height="402.704"/>
</g>
<g id="Layer_5">
	
		<rect x="19.997" y="70.923" fill="#FFFFFF" stroke="#000000" stroke-width="0.5236" stroke-miterlimit="10" width="459.948" height="20.988"/>
	<g>
		<path fill="#939598" d="M429.939,83.803l-0.015-2.915h0.721v3.65h-7.536v-7.536c0.628,0,1.879,0,3.754,0v0.721
			c-0.167,0-0.386,0-0.655,0c-0.271,0-0.68-0.002-1.229-0.007s-0.937-0.007-1.163-0.007l0.016,6.094H429.939z M429.498,78.312
			l-0.942-0.869l0.412-0.441l1.678,1.56l-1.428,1.575l-0.427-0.412l0.677-0.81c-1.854,0.187-3.174,0.893-3.959,2.12
			c-0.196,0.294-0.352,0.611-0.464,0.949c-0.113,0.338-0.174,0.601-0.184,0.788l-0.029,0.28h-0.589c0-0.059,0.005-0.14,0.015-0.243
			s0.051-0.307,0.125-0.611c0.073-0.304,0.174-0.596,0.302-0.875c0.127-0.28,0.323-0.594,0.589-0.942
			c0.265-0.348,0.574-0.657,0.927-0.927c0.354-0.27,0.817-0.513,1.392-0.729S428.801,78.371,429.498,78.312z"/>
	</g>
	<g>
		<g>
			<path fill="#939598" d="M443.938,83.803l-0.015-2.915l0.721-0.015v3.665h-7.536v-7.536c0.628,0,1.879,0,3.754,0v0.707
				c-0.167,0-0.386,0-0.655,0c-0.271,0-0.68,0-1.229,0s-0.937,0-1.163,0l0.016,6.094H443.938z M444.645,77.002v0.589
				c-0.078,0-0.182,0.007-0.309,0.022c-0.128,0.015-0.371,0.079-0.729,0.191c-0.358,0.113-0.689,0.268-0.994,0.463
				c-1.227,0.785-1.928,2.105-2.104,3.959l0.81-0.677l0.412,0.427l-1.59,1.428l-1.546-1.678l0.427-0.413l0.884,0.942
				c0.059-0.697,0.193-1.332,0.404-1.906s0.457-1.038,0.736-1.391c0.279-0.353,0.584-0.662,0.912-0.927
				c0.329-0.265,0.65-0.461,0.965-0.589c0.313-0.127,0.599-0.228,0.854-0.302s0.461-0.115,0.618-0.125L444.645,77.002z"/>
		</g>
	</g>
	<g>
		<g>
			<path fill="#939598" d="M453.326,77.002h2.855v0.913h1.87v0.971h-6.609v-0.971h1.884V77.002z M451.913,79.637h5.682v4.901h-5.682
				V79.637z M453.194,80.255v3.591h0.868v-3.591H453.194z M455.446,80.255v3.591h0.868v-3.591H455.446z"/>
		</g>
	</g>
	<g>
		<g>
			<path fill="#939598" d="M469.03,82.808l-3.754-3.65l0.56-0.574l3.194,3.106l3.238-3.062l0.544,0.604L469.03,82.808z"/>
		</g>
	</g>
	
		<line fill="#939598" stroke="#000000" stroke-width="0.25" stroke-miterlimit="10" x1="433.786" y1="76.711" x2="433.786" y2="84.877"/>
	
		<line fill="#939598" stroke="#000000" stroke-width="0.25" stroke-miterlimit="10" x1="447.953" y1="76.293" x2="447.953" y2="84.46"/>
	
		<line fill="#939598" stroke="#000000" stroke-width="0.25" stroke-miterlimit="10" x1="461.609" y1="76.834" x2="461.609" y2="85"/>
	<rect x="19.969" y="70.923" width="18.083" height="20.899"/>
	<g>
		<path fill="#FFFFFF" d="M32.008,78.325l-0.113,0.407h-0.905l-0.679,2.716c-0.317,1.192-0.626,2.12-0.928,2.784
			c-0.438,0.92-0.905,1.554-1.403,1.9c-0.377,0.271-0.755,0.407-1.132,0.407c-0.257,0-0.468-0.075-0.634-0.226
			c-0.136-0.106-0.204-0.242-0.204-0.407c0-0.136,0.053-0.249,0.158-0.34s0.234-0.136,0.385-0.136c0.121,0,0.219,0.034,0.294,0.102
			c0.075,0.068,0.113,0.147,0.113,0.238c0,0.09-0.045,0.173-0.136,0.248c-0.061,0.061-0.091,0.105-0.091,0.137
			c0,0.029,0.015,0.06,0.045,0.09s0.083,0.046,0.158,0.046c0.181,0,0.37-0.057,0.566-0.17c0.196-0.113,0.37-0.279,0.521-0.498
			s0.294-0.539,0.43-0.962c0.06-0.181,0.219-0.754,0.475-1.72l1.086-4.21H28.93l0.091-0.407c0.347,0,0.588-0.026,0.724-0.079
			s0.26-0.147,0.374-0.283s0.26-0.385,0.441-0.747c0.241-0.498,0.475-0.883,0.701-1.154c0.302-0.377,0.623-0.656,0.962-0.837
			c0.34-0.182,0.66-0.271,0.962-0.271c0.317,0,0.569,0.079,0.758,0.237c0.188,0.158,0.283,0.336,0.283,0.532
			c0,0.136-0.049,0.252-0.147,0.351c-0.098,0.098-0.215,0.146-0.351,0.146s-0.246-0.037-0.328-0.112
			c-0.083-0.076-0.125-0.159-0.125-0.249c0-0.076,0.03-0.162,0.09-0.261c0.06-0.098,0.091-0.162,0.091-0.192
			c0-0.06-0.023-0.105-0.068-0.136c-0.06-0.03-0.136-0.045-0.226-0.045c-0.271,0-0.506,0.083-0.702,0.249
			c-0.287,0.211-0.536,0.551-0.747,1.019c-0.121,0.241-0.333,0.853-0.634,1.833H32.008z"/>
	</g>
	<g>
		<path d="M45.471,111.344c1.037-1.037,2.287-1.555,3.752-1.555s2.716,0.518,3.753,1.555c1.037,1.037,1.555,2.288,1.555,3.752
			c0,1.465-0.519,2.716-1.555,3.753s-2.288,1.555-3.753,1.555s-2.716-0.519-3.752-1.555s-1.555-2.288-1.555-3.753
			C43.916,113.631,44.434,112.38,45.471,111.344z M47.502,117.128v-0.374h-0.145c-0.235,0-0.353-0.131-0.353-0.394
			c0-0.055,0.014-0.166,0.042-0.332c0.027-0.125,0.042-0.255,0.042-0.394c0-0.276-0.097-0.456-0.291-0.539
			c0.193-0.096,0.291-0.283,0.291-0.56c0-0.125-0.014-0.249-0.042-0.374c-0.028-0.124-0.042-0.242-0.042-0.352
			c0-0.249,0.117-0.374,0.353-0.374h0.145v-0.373h-0.166c-0.511,0-0.767,0.235-0.767,0.705c0,0.042,0.014,0.173,0.042,0.394v0.021
			c0.027,0.18,0.042,0.318,0.042,0.415c0,0.221-0.118,0.332-0.353,0.332h-0.042v0.332H46.3c0.235,0,0.353,0.111,0.353,0.332
			c0,0.083-0.014,0.215-0.042,0.394c-0.028,0.249-0.042,0.387-0.042,0.415c0,0.484,0.256,0.726,0.767,0.726H47.502z M49.41,116.548
			l1.037-2.903H49.97l-0.498,1.431c-0.125,0.359-0.214,0.657-0.27,0.892c-0.056-0.208-0.145-0.504-0.27-0.892l-0.456-1.431H48
			l0.954,2.903H49.41z M52.188,115.262v-0.332h-0.041c-0.235,0-0.353-0.111-0.353-0.332c0-0.097,0.014-0.235,0.042-0.415v-0.021
			c0.027-0.221,0.042-0.352,0.042-0.394c0-0.47-0.263-0.705-0.788-0.705h-0.145v0.373h0.145c0.235,0,0.353,0.125,0.353,0.374
			c0,0.083-0.007,0.173-0.021,0.27l-0.021,0.083c-0.028,0.208-0.042,0.332-0.042,0.374c0,0.276,0.097,0.463,0.29,0.56
			c-0.193,0.083-0.29,0.263-0.29,0.539c0,0.083,0.014,0.214,0.042,0.394c0.014,0.042,0.021,0.069,0.021,0.083
			c0.014,0.083,0.021,0.166,0.021,0.249c0,0.263-0.118,0.394-0.353,0.394h-0.145v0.374h0.166c0.511,0,0.768-0.242,0.768-0.726
			c0-0.083-0.014-0.221-0.042-0.415c-0.028-0.179-0.042-0.311-0.042-0.394c0-0.221,0.117-0.332,0.353-0.332H52.188z"/>
	</g>
	<rect x="56.249" y="111.21" fill="#AEADAE" width="7.373" height="7.373"/>
	<g>
		<path fill="#FFFFFF" d="M62.219,114.616v0.495H60.12v2.1h-0.495v-2.1h-2.099v-0.495h2.099v-2.1h0.495v2.1H62.219z"/>
	</g>
	<rect x="65.333" y="109.75" fill="#EFEFEF" width="10.667" height="10.667"/>
	<g>
		<path fill="#8D8D8D" d="M68.75,114.888l2.956-3.04l0.465,0.453l-2.527,2.587l2.492,2.623l-0.489,0.441L68.75,114.888z"/>
	</g>
</g>
<g id="Layer_4">
</g>
<g id="Layer_6">
	
		<rect x="165.381" y="137.764" fill="#FFFFFF" stroke="#000000" stroke-width="0.7891" stroke-miterlimit="10" width="125.075" height="30.514"/>
	<g>
		<text transform="matrix(1 0 0 1 180.501 155.7568)" font-family="'MyriadPro-Regular'" font-size="14.2044">ResourceWorker</text>
	</g>
	
		<rect x="165.383" y="190.331" fill="#FFFFFF" stroke="#000000" stroke-width="0.5" stroke-miterlimit="10" width="126.383" height="30.461"/>
	
		<line fill="none" stroke="#000000" stroke-width="0.5302" stroke-miterlimit="10" x1="228.864" y1="168.278" x2="228.864" y2="190.335"/>
	
		<rect x="165.518" y="290.883" fill="#FFFFFF" stroke="#000000" stroke-width="0.5" stroke-miterlimit="10" width="126.383" height="30.461"/>
	<g>
		<path d="M214.49,300.57c0.625-0.128,1.521-0.199,2.373-0.199c1.322,0,2.174,0.242,2.771,0.781c0.482,0.426,0.753,1.08,0.753,1.819
			c0,1.265-0.796,2.103-1.805,2.444v0.042c0.739,0.256,1.18,0.938,1.407,1.933c0.312,1.335,0.54,2.259,0.738,2.628h-1.278
			c-0.157-0.27-0.369-1.094-0.64-2.288c-0.284-1.321-0.795-1.819-1.918-1.861h-1.165v4.149h-1.236V300.57z M215.727,304.932h1.265
			c1.322,0,2.16-0.725,2.16-1.819c0-1.236-0.896-1.776-2.203-1.79c-0.596,0-1.023,0.057-1.222,0.113V304.932z"/>
		<path d="M222.843,306.807c0.028,1.691,1.109,2.387,2.359,2.387c0.896,0,1.435-0.156,1.904-0.355l0.212,0.896
			c-0.44,0.199-1.193,0.426-2.287,0.426c-2.117,0-3.381-1.393-3.381-3.467c0-2.075,1.221-3.708,3.225-3.708
			c2.245,0,2.841,1.975,2.841,3.239c0,0.256-0.028,0.455-0.042,0.583H222.843z M226.509,305.912
			c0.015-0.795-0.327-2.032-1.733-2.032c-1.265,0-1.819,1.166-1.918,2.032H226.509z"/>
		<path d="M229.263,305.387c0-0.881-0.028-1.591-0.057-2.245h1.123l0.056,1.179h0.029c0.512-0.838,1.321-1.335,2.444-1.335
			c1.662,0,2.912,1.406,2.912,3.495c0,2.472-1.506,3.695-3.125,3.695c-0.91,0-1.705-0.398-2.117-1.08h-0.028v3.737h-1.236V305.387z
			 M230.499,307.22c0,0.185,0.028,0.355,0.057,0.511c0.227,0.867,0.98,1.463,1.875,1.463c1.321,0,2.088-1.08,2.088-2.657
			c0-1.378-0.724-2.558-2.046-2.558c-0.853,0-1.648,0.611-1.89,1.548c-0.043,0.157-0.085,0.341-0.085,0.512V307.22z"/>
		<path d="M237.345,299.931h1.25v10.088h-1.25V299.931z"/>
		<path d="M241.152,303.142l1.506,4.064c0.156,0.455,0.327,0.994,0.44,1.406h0.029c0.128-0.412,0.27-0.938,0.44-1.435l1.364-4.035
			h1.321l-1.875,4.902c-0.895,2.359-1.506,3.566-2.358,4.305c-0.611,0.54-1.222,0.753-1.535,0.81l-0.312-1.051
			c0.312-0.1,0.725-0.299,1.094-0.611c0.341-0.27,0.768-0.753,1.052-1.392c0.057-0.128,0.1-0.228,0.1-0.298
			s-0.029-0.171-0.086-0.327l-2.543-6.337H241.152z"/>
	</g>
	
		<rect x="165.381" y="347.944" fill="#FFFFFF" stroke="#000000" stroke-width="0.7891" stroke-miterlimit="10" width="125.075" height="30.514"/>
	<g>
		<text transform="matrix(1 0 0 1 180.501 365.9355)" font-family="'MyriadPro-Regular'" font-size="14.2044">ResourceWorker</text>
	</g>
	
		<line fill="none" stroke="#000000" stroke-width="0.5717" stroke-miterlimit="10" x1="228.708" y1="320.536" x2="228.708" y2="346.188"/>
	<g>
		<path d="M59.257,167.845c-0.455,0.227-1.364,0.455-2.529,0.455c-2.7,0-4.732-1.705-4.732-4.846c0-2.998,2.032-5.029,5.001-5.029
			c1.194,0,1.947,0.255,2.273,0.426l-0.298,1.009c-0.469-0.228-1.137-0.398-1.932-0.398c-2.245,0-3.737,1.435-3.737,3.95
			c0,2.344,1.35,3.85,3.68,3.85c0.753,0,1.52-0.156,2.017-0.398L59.257,167.845z"/>
		<path d="M60.761,158.069h1.25v10.088h-1.25V158.069z"/>
		<path d="M65.505,159.348c0.014,0.426-0.298,0.768-0.795,0.768c-0.441,0-0.753-0.341-0.753-0.768c0-0.44,0.327-0.782,0.781-0.782
			C65.207,158.566,65.505,158.907,65.505,159.348z M64.113,168.157v-6.877h1.25v6.877H64.113z"/>
		<path d="M68.133,164.946c0.029,1.691,1.108,2.387,2.359,2.387c0.895,0,1.435-0.156,1.904-0.355l0.213,0.896
			c-0.44,0.199-1.193,0.426-2.288,0.426c-2.117,0-3.381-1.393-3.381-3.467s1.222-3.708,3.226-3.708c2.245,0,2.841,1.975,2.841,3.239
			c0,0.256-0.028,0.455-0.042,0.583H68.133z M71.799,164.051c0.014-0.796-0.327-2.032-1.733-2.032c-1.265,0-1.819,1.165-1.918,2.032
			H71.799z"/>
		<path d="M74.553,163.141c0-0.71-0.014-1.293-0.057-1.861h1.108l0.071,1.137h0.028c0.341-0.654,1.137-1.293,2.273-1.293
			c0.952,0,2.429,0.568,2.429,2.927v4.106h-1.25v-3.964c0-1.108-0.412-2.032-1.591-2.032c-0.824,0-1.464,0.583-1.677,1.278
			c-0.057,0.157-0.085,0.37-0.085,0.583v4.135h-1.25V163.141z"/>
		<path d="M83.886,159.305v1.975h1.79v0.952h-1.79v3.708c0,0.853,0.241,1.336,0.938,1.336c0.327,0,0.568-0.043,0.725-0.085
			l0.057,0.938c-0.241,0.1-0.625,0.171-1.108,0.171c-0.583,0-1.051-0.185-1.35-0.526c-0.355-0.369-0.483-0.98-0.483-1.791v-3.751
			h-1.065v-0.952h1.065v-1.648L83.886,159.305z"/>
	</g>
	
		<rect x="44.704" y="140.039" transform="matrix(0.7071 -0.7071 0.7071 0.7071 -96.5948 98.3769)" fill="none" stroke="#000000" stroke-width="0.7891" stroke-miterlimit="10" width="51.497" height="51.497"/>
	<g>
		<path d="M59.118,359.01c-0.455,0.227-1.364,0.455-2.529,0.455c-2.7,0-4.731-1.705-4.731-4.846c0-2.998,2.032-5.029,5.001-5.029
			c1.193,0,1.946,0.255,2.273,0.426l-0.298,1.009c-0.469-0.228-1.137-0.398-1.933-0.398c-2.245,0-3.737,1.435-3.737,3.95
			c0,2.344,1.35,3.85,3.68,3.85c0.753,0,1.52-0.156,2.018-0.398L59.118,359.01z"/>
		<path d="M60.621,349.234h1.25v10.088h-1.25V349.234z"/>
		<path d="M65.366,350.513c0.014,0.426-0.299,0.768-0.796,0.768c-0.441,0-0.753-0.341-0.753-0.768c0-0.44,0.327-0.782,0.781-0.782
			C65.067,349.731,65.366,350.072,65.366,350.513z M63.973,359.322v-6.877h1.25v6.877H63.973z"/>
		<path d="M67.993,356.111c0.028,1.691,1.108,2.387,2.358,2.387c0.895,0,1.435-0.156,1.904-0.355l0.213,0.896
			c-0.44,0.199-1.193,0.426-2.288,0.426c-2.117,0-3.382-1.393-3.382-3.467s1.222-3.708,3.226-3.708c2.245,0,2.842,1.975,2.842,3.239
			c0,0.256-0.029,0.455-0.043,0.583H67.993z M71.659,355.216c0.014-0.796-0.327-2.032-1.734-2.032c-1.264,0-1.818,1.165-1.918,2.032
			H71.659z"/>
		<path d="M74.413,354.306c0-0.71-0.014-1.293-0.057-1.861h1.108l0.071,1.137h0.029c0.341-0.654,1.137-1.293,2.273-1.293
			c0.952,0,2.429,0.568,2.429,2.927v4.106h-1.25v-3.964c0-1.108-0.412-2.032-1.591-2.032c-0.824,0-1.463,0.583-1.676,1.278
			c-0.057,0.157-0.085,0.37-0.085,0.583v4.135h-1.25V354.306z"/>
		<path d="M83.746,350.47v1.975h1.79v0.952h-1.79v3.708c0,0.853,0.242,1.336,0.938,1.336c0.327,0,0.568-0.043,0.725-0.085
			l0.057,0.938c-0.241,0.1-0.625,0.171-1.108,0.171c-0.583,0-1.051-0.185-1.35-0.526c-0.355-0.369-0.483-0.98-0.483-1.791v-3.751
			h-1.065v-0.952h1.065v-1.648L83.746,350.47z"/>
	</g>
	
		<rect x="44.564" y="331.204" transform="matrix(0.7071 -0.7071 0.7071 0.7071 -231.8109 154.2696)" fill="none" stroke="#000000" stroke-width="0.7891" stroke-miterlimit="10" width="51.497" height="51.497"/>
	
		<line fill="none" stroke="#000000" stroke-width="1.228" stroke-miterlimit="10" x1="70.453" y1="202.202" x2="70.453" y2="320.539"/>
	<g>
		<g>
			
				<line fill="none" stroke="#000000" stroke-width="1.1529" stroke-miterlimit="10" x1="157.107" y1="207.563" x2="70.453" y2="207.563"/>
			<g>
				<polygon points="155.426,201.814 165.381,207.563 155.426,213.312 				"/>
			</g>
		</g>
	</g>
	<g>
		<g>
			
				<line fill="none" stroke="#000000" stroke-width="1.1529" stroke-miterlimit="10" x1="78.727" y1="311.118" x2="165.381" y2="311.118"/>
			<g>
				<polygon points="80.409,316.867 70.453,311.118 80.409,305.369 				"/>
			</g>
		</g>
	</g>
	
		<rect x="328.571" y="137.855" fill="#FFFFFF" stroke="#000000" stroke-width="0.7891" stroke-miterlimit="10" width="125.074" height="30.514"/>
	
		<rect x="328.571" y="343.03" fill="#FFFFFF" stroke="#000000" stroke-width="0.7891" stroke-miterlimit="10" width="125.074" height="30.514"/>
	
		<line fill="none" stroke="#000000" stroke-width="0.5" stroke-miterlimit="10" x1="388.676" y1="168.278" x2="388.676" y2="343.185"/>
	<g>
		<path d="M346.959,147.627v3.95h4.566v-3.95h1.232v9.441h-1.232v-4.426h-4.566v4.426h-1.219v-9.441H346.959z"/>
		<path d="M356.661,148.663h-2.871v-1.036h6.989v1.036h-2.886v8.405h-1.232V148.663z"/>
		<path d="M364.151,148.663h-2.871v-1.036h6.989v1.036h-2.886v8.405h-1.232V148.663z"/>
		<path d="M369.315,147.739c0.589-0.098,1.358-0.182,2.34-0.182c1.204,0,2.087,0.28,2.646,0.785
			c0.519,0.448,0.827,1.134,0.827,1.975c0,0.854-0.252,1.527-0.729,2.017c-0.645,0.686-1.695,1.037-2.886,1.037
			c-0.364,0-0.7-0.014-0.98-0.084v3.782h-1.219V147.739z M370.534,152.292c0.267,0.07,0.603,0.098,1.009,0.098
			c1.471,0,2.367-0.714,2.367-2.017c0-1.247-0.883-1.849-2.228-1.849c-0.532,0-0.938,0.042-1.148,0.098V152.292z"/>
		<path d="M383.361,156.76c-0.448,0.224-1.345,0.448-2.493,0.448c-2.661,0-4.665-1.681-4.665-4.777c0-2.956,2.004-4.958,4.931-4.958
			c1.177,0,1.919,0.252,2.241,0.42l-0.294,0.995c-0.462-0.225-1.12-0.393-1.905-0.393c-2.213,0-3.684,1.415-3.684,3.894
			c0,2.312,1.331,3.796,3.628,3.796c0.742,0,1.499-0.154,1.989-0.393L383.361,156.76z"/>
		<path d="M390.823,153.622c0,2.507-1.737,3.6-3.376,3.6c-1.835,0-3.25-1.345-3.25-3.488c0-2.269,1.485-3.6,3.362-3.6
			C389.506,150.134,390.823,151.549,390.823,153.622z M385.444,153.692c0,1.485,0.854,2.605,2.059,2.605
			c1.177,0,2.06-1.106,2.06-2.633c0-1.148-0.574-2.605-2.031-2.605S385.444,152.403,385.444,153.692z"/>
		<path d="M392.374,152.123c0-0.7-0.014-1.274-0.056-1.835h1.093l0.069,1.121h0.028c0.336-0.644,1.12-1.274,2.241-1.274
			c0.938,0,2.396,0.56,2.396,2.885v4.048h-1.233v-3.908c0-1.092-0.405-2.003-1.568-2.003c-0.812,0-1.442,0.574-1.653,1.261
			c-0.056,0.154-0.084,0.364-0.084,0.574v4.076h-1.232V152.123z"/>
		<path d="M400.144,152.123c0-0.7-0.014-1.274-0.056-1.835h1.093l0.069,1.121h0.028c0.336-0.644,1.12-1.274,2.241-1.274
			c0.938,0,2.396,0.56,2.396,2.885v4.048h-1.233v-3.908c0-1.092-0.405-2.003-1.568-2.003c-0.812,0-1.442,0.574-1.653,1.261
			c-0.056,0.154-0.084,0.364-0.084,0.574v4.076h-1.232V152.123z"/>
		<path d="M408.601,153.902c0.028,1.667,1.093,2.353,2.325,2.353c0.883,0,1.415-0.154,1.877-0.35l0.21,0.882
			c-0.434,0.196-1.177,0.42-2.255,0.42c-2.087,0-3.334-1.373-3.334-3.418s1.205-3.656,3.18-3.656c2.213,0,2.802,1.947,2.802,3.193
			c0,0.252-0.028,0.448-0.042,0.575H408.601z M412.215,153.02c0.014-0.784-0.322-2.003-1.709-2.003
			c-1.247,0-1.793,1.148-1.892,2.003H412.215z"/>
		<path d="M419.761,156.816c-0.322,0.168-1.037,0.392-1.947,0.392c-2.045,0-3.376-1.387-3.376-3.46c0-2.087,1.429-3.6,3.642-3.6
			c0.729,0,1.373,0.182,1.709,0.351l-0.279,0.952c-0.295-0.168-0.757-0.322-1.43-0.322c-1.555,0-2.395,1.148-2.395,2.563
			c0,1.569,1.008,2.536,2.353,2.536c0.701,0,1.163-0.182,1.514-0.336L419.761,156.816z"/>
		<path d="M422.866,148.341v1.947h1.765v0.938h-1.765v3.656c0,0.84,0.237,1.316,0.924,1.316c0.322,0,0.561-0.042,0.715-0.084
			l0.056,0.925c-0.238,0.098-0.616,0.168-1.093,0.168c-0.574,0-1.036-0.182-1.33-0.519c-0.351-0.364-0.477-0.966-0.477-1.765v-3.698
			h-1.051v-0.938h1.051v-1.625L422.866,148.341z"/>
		<path d="M432.067,153.622c0,2.507-1.737,3.6-3.376,3.6c-1.835,0-3.25-1.345-3.25-3.488c0-2.269,1.485-3.6,3.362-3.6
			C430.75,150.134,432.067,151.549,432.067,153.622z M426.688,153.692c0,1.485,0.854,2.605,2.059,2.605
			c1.177,0,2.06-1.106,2.06-2.633c0-1.148-0.574-2.605-2.031-2.605S426.688,152.403,426.688,153.692z"/>
		<path d="M433.617,152.403c0-0.798-0.014-1.485-0.056-2.115h1.078l0.042,1.331h0.057c0.308-0.911,1.05-1.485,1.877-1.485
			c0.14,0,0.237,0.014,0.35,0.042v1.163c-0.126-0.028-0.252-0.042-0.42-0.042c-0.868,0-1.485,0.658-1.653,1.583
			c-0.027,0.168-0.056,0.364-0.056,0.575v3.614h-1.219V152.403z"/>
	</g>
	<g>
		<path d="M344.282,353.476v3.95h4.566v-3.95h1.232v9.441h-1.232v-4.426h-4.566v4.426h-1.219v-9.441H344.282z"/>
		<path d="M353.984,354.512h-2.871v-1.036h6.989v1.036h-2.886v8.405h-1.232V354.512z"/>
		<path d="M361.475,354.512h-2.871v-1.036h6.989v1.036h-2.886v8.405h-1.232V354.512z"/>
		<path d="M366.639,353.587c0.589-0.098,1.358-0.182,2.34-0.182c1.204,0,2.087,0.28,2.646,0.785
			c0.519,0.448,0.827,1.134,0.827,1.975c0,0.854-0.252,1.527-0.729,2.017c-0.645,0.686-1.695,1.037-2.886,1.037
			c-0.364,0-0.7-0.014-0.98-0.084v3.782h-1.219V353.587z M367.857,358.14c0.267,0.07,0.603,0.098,1.009,0.098
			c1.471,0,2.367-0.714,2.367-2.017c0-1.247-0.883-1.849-2.228-1.849c-0.532,0-0.938,0.042-1.148,0.098V358.14z"/>
		<path d="M380.685,362.608c-0.448,0.224-1.345,0.448-2.493,0.448c-2.661,0-4.665-1.681-4.665-4.777
			c0-2.956,2.004-4.958,4.931-4.958c1.177,0,1.919,0.252,2.241,0.42l-0.294,0.995c-0.462-0.225-1.12-0.393-1.905-0.393
			c-2.213,0-3.684,1.415-3.684,3.894c0,2.312,1.331,3.796,3.628,3.796c0.742,0,1.499-0.154,1.989-0.393L380.685,362.608z"/>
		<path d="M388.146,359.471c0,2.507-1.737,3.6-3.376,3.6c-1.835,0-3.25-1.345-3.25-3.488c0-2.269,1.485-3.6,3.362-3.6
			C386.829,355.983,388.146,357.397,388.146,359.471z M382.768,359.541c0,1.485,0.854,2.605,2.059,2.605
			c1.177,0,2.06-1.106,2.06-2.633c0-1.148-0.574-2.605-2.031-2.605S382.768,358.252,382.768,359.541z"/>
		<path d="M389.697,357.972c0-0.7-0.014-1.274-0.056-1.835h1.093l0.069,1.121h0.028c0.336-0.644,1.12-1.274,2.241-1.274
			c0.938,0,2.396,0.56,2.396,2.885v4.048h-1.233v-3.908c0-1.092-0.405-2.003-1.568-2.003c-0.812,0-1.442,0.574-1.653,1.261
			c-0.056,0.154-0.084,0.364-0.084,0.574v4.076h-1.232V357.972z"/>
		<path d="M397.467,357.972c0-0.7-0.014-1.274-0.056-1.835h1.093l0.069,1.121h0.028c0.336-0.644,1.12-1.274,2.241-1.274
			c0.938,0,2.396,0.56,2.396,2.885v4.048h-1.233v-3.908c0-1.092-0.405-2.003-1.568-2.003c-0.812,0-1.442,0.574-1.653,1.261
			c-0.056,0.154-0.084,0.364-0.084,0.574v4.076h-1.232V357.972z"/>
		<path d="M405.924,359.751c0.028,1.667,1.093,2.353,2.325,2.353c0.883,0,1.415-0.154,1.877-0.35l0.21,0.882
			c-0.434,0.196-1.177,0.42-2.255,0.42c-2.087,0-3.334-1.373-3.334-3.418s1.205-3.656,3.18-3.656c2.213,0,2.802,1.947,2.802,3.193
			c0,0.252-0.028,0.448-0.042,0.575H405.924z M409.538,358.868c0.014-0.784-0.322-2.003-1.709-2.003
			c-1.247,0-1.793,1.148-1.892,2.003H409.538z"/>
		<path d="M417.084,362.665c-0.322,0.168-1.037,0.392-1.947,0.392c-2.045,0-3.376-1.387-3.376-3.46c0-2.087,1.429-3.6,3.642-3.6
			c0.729,0,1.373,0.182,1.709,0.351l-0.279,0.952c-0.295-0.168-0.757-0.322-1.43-0.322c-1.555,0-2.395,1.148-2.395,2.563
			c0,1.569,1.008,2.536,2.353,2.536c0.701,0,1.163-0.182,1.514-0.336L417.084,362.665z"/>
		<path d="M420.189,354.19v1.947h1.765v0.938h-1.765v3.656c0,0.84,0.237,1.316,0.924,1.316c0.322,0,0.561-0.042,0.715-0.084
			l0.056,0.925c-0.238,0.098-0.616,0.168-1.093,0.168c-0.574,0-1.036-0.182-1.33-0.519c-0.351-0.364-0.477-0.966-0.477-1.765v-3.698
			h-1.051v-0.938h1.051v-1.625L420.189,354.19z"/>
		<path d="M429.391,359.471c0,2.507-1.737,3.6-3.376,3.6c-1.835,0-3.25-1.345-3.25-3.488c0-2.269,1.485-3.6,3.362-3.6
			C428.073,355.983,429.391,357.397,429.391,359.471z M424.012,359.541c0,1.485,0.854,2.605,2.059,2.605
			c1.177,0,2.06-1.106,2.06-2.633c0-1.148-0.574-2.605-2.031-2.605S424.012,358.252,424.012,359.541z"/>
		<path d="M430.94,358.252c0-0.798-0.014-1.485-0.056-2.115h1.078l0.042,1.331h0.057c0.308-0.911,1.05-1.485,1.877-1.485
			c0.14,0,0.237,0.014,0.35,0.042v1.163c-0.126-0.028-0.252-0.042-0.42-0.042c-0.868,0-1.485,0.658-1.653,1.583
			c-0.027,0.168-0.056,0.364-0.056,0.575v3.614h-1.219V358.252z"/>
	</g>
	<g>
		<g>
			
				<line fill="none" stroke="#000000" stroke-width="1.1529" stroke-miterlimit="10" x1="380.263" y1="246.333" x2="293.608" y2="246.333"/>
			<g>
				<polygon points="378.581,240.583 388.536,246.333 378.581,252.082 				"/>
			</g>
		</g>
	</g>
	
		<rect x="164.524" y="240.501" fill="#FFFFFF" stroke="#000000" stroke-width="0.5" stroke-miterlimit="10" width="126.384" height="30.461"/>
	<g>
		<path d="M203.291,250.56v3.95h4.566v-3.95h1.233V260h-1.233v-4.426h-4.566V260h-1.219v-9.441H203.291z"/>
		<path d="M212.993,251.596h-2.872v-1.037h6.99v1.037h-2.885V260h-1.233V251.596z"/>
		<path d="M220.483,251.596h-2.872v-1.037h6.99v1.037h-2.885V260h-1.233V251.596z"/>
		<path d="M225.648,250.671c0.588-0.098,1.359-0.182,2.339-0.182c1.205,0,2.087,0.28,2.647,0.785
			c0.518,0.448,0.827,1.134,0.827,1.975c0,0.854-0.252,1.527-0.729,2.017c-0.645,0.686-1.695,1.036-2.886,1.036
			c-0.364,0-0.7-0.014-0.98-0.084V260h-1.219V250.671z M226.867,255.224c0.266,0.07,0.603,0.098,1.009,0.098
			c1.471,0,2.367-0.714,2.367-2.017c0-1.247-0.883-1.849-2.228-1.849c-0.532,0-0.938,0.042-1.148,0.098V255.224z"/>
		<path d="M232.606,254.341c0-0.518,0.35-0.882,0.84-0.882s0.812,0.364,0.827,0.882c0,0.49-0.322,0.869-0.841,0.869
			C232.942,255.21,232.606,254.832,232.606,254.341z M232.606,259.286c0-0.518,0.35-0.882,0.84-0.882s0.812,0.364,0.827,0.882
			c0,0.49-0.322,0.869-0.841,0.869C232.942,260.155,232.606,259.776,232.606,259.286z"/>
		<path d="M241.639,253.221c-0.028,0.49-0.056,1.037-0.056,1.863v3.936c0,1.555-0.308,2.507-0.966,3.096
			c-0.659,0.616-1.611,0.812-2.465,0.812c-0.812,0-1.709-0.196-2.255-0.561l0.308-0.938c0.448,0.28,1.148,0.532,1.989,0.532
			c1.261,0,2.185-0.658,2.185-2.367v-0.756h-0.028c-0.378,0.63-1.107,1.135-2.157,1.135c-1.681,0-2.886-1.429-2.886-3.306
			c0-2.297,1.499-3.6,3.054-3.6c1.177,0,1.821,0.616,2.115,1.176h0.028l0.056-1.022H241.639z M240.364,255.896
			c0-0.21-0.014-0.393-0.07-0.561c-0.224-0.714-0.827-1.303-1.723-1.303c-1.176,0-2.017,0.995-2.017,2.563
			c0,1.331,0.672,2.438,2.003,2.438c0.756,0,1.442-0.477,1.709-1.261c0.07-0.21,0.098-0.448,0.098-0.659V255.896z"/>
		<path d="M244.31,256.835c0.028,1.667,1.092,2.353,2.325,2.353c0.882,0,1.415-0.154,1.877-0.35l0.21,0.882
			c-0.434,0.196-1.176,0.42-2.255,0.42c-2.087,0-3.334-1.373-3.334-3.418c0-2.045,1.205-3.656,3.18-3.656
			c2.213,0,2.802,1.947,2.802,3.193c0,0.252-0.028,0.448-0.042,0.575H244.31z M247.924,255.952c0.014-0.784-0.322-2.003-1.709-2.003
			c-1.247,0-1.793,1.148-1.891,2.003H247.924z"/>
		<path d="M252.123,251.274v1.947h1.765v0.938h-1.765v3.656c0,0.84,0.238,1.316,0.924,1.316c0.322,0,0.561-0.042,0.715-0.084
			l0.056,0.925c-0.237,0.098-0.616,0.168-1.092,0.168c-0.575,0-1.037-0.182-1.331-0.519c-0.351-0.364-0.477-0.966-0.477-1.765
			v-3.698h-1.051v-0.938h1.051v-1.625L252.123,251.274z"/>
	</g>
	<text transform="matrix(1 0 0 1 215.4912 210.6636)" font-family="'MyriadPro-Regular'" font-size="14">Start</text>
	<g>
		<g>
			
				<line fill="none" stroke="#000000" stroke-width="1.153" stroke-miterlimit="10" x1="300.374" y1="262.002" x2="302.874" y2="262.002"/>
			
				<line fill="none" stroke="#000000" stroke-width="1.153" stroke-miterlimit="10" stroke-dasharray="4.8031,4.8031" x1="307.677" y1="262.002" x2="382.126" y2="262.002"/>
			
				<line fill="none" stroke="#000000" stroke-width="1.153" stroke-miterlimit="10" x1="384.527" y1="262.002" x2="387.027" y2="262.002"/>
			<g>
				<polygon points="302.056,267.751 292.1,262.002 302.056,256.253 				"/>
			</g>
		</g>
	</g>
	
		<rect x="20.363" y="509.906" fill="none" stroke="#000000" stroke-width="0.477" stroke-miterlimit="10" width="459.971" height="389.462"/>
	
		<rect x="10.242" y="448.469" fill="#FFFFFF" stroke="#000000" stroke-width="0.536" stroke-miterlimit="10" width="482.053" height="20.988"/>
	<g>
		<path fill="#939598" d="M442.193,461.349l-0.016-2.915h0.721v3.65h-7.535v-7.536c0.627,0,1.879,0,3.754,0v0.721
			c-0.168,0-0.387,0-0.656,0s-0.68-0.002-1.229-0.007c-0.551-0.005-0.938-0.007-1.164-0.007l0.016,6.094H442.193z M441.752,455.858
			l-0.943-0.869l0.412-0.441l1.678,1.56l-1.428,1.575l-0.426-0.412l0.676-0.81c-1.854,0.187-3.174,0.893-3.959,2.12
			c-0.195,0.294-0.352,0.611-0.463,0.949c-0.113,0.338-0.174,0.601-0.184,0.788l-0.029,0.28h-0.59c0-0.059,0.006-0.14,0.016-0.243
			s0.051-0.307,0.125-0.611c0.072-0.304,0.174-0.596,0.301-0.875c0.127-0.28,0.324-0.594,0.59-0.942
			c0.264-0.348,0.574-0.657,0.926-0.927c0.354-0.27,0.818-0.513,1.393-0.729S441.055,455.917,441.752,455.858z"/>
	</g>
	<g>
		<g>
			<path fill="#939598" d="M456.191,461.349l-0.014-2.915l0.721-0.015v3.665h-7.537v-7.536c0.629,0,1.879,0,3.754,0v0.707
				c-0.166,0-0.385,0-0.654,0c-0.271,0-0.68,0-1.23,0c-0.549,0-0.936,0-1.162,0l0.016,6.094H456.191z M456.898,454.548v0.589
				c-0.078,0-0.182,0.007-0.309,0.022c-0.129,0.015-0.371,0.079-0.729,0.191c-0.359,0.113-0.689,0.268-0.994,0.463
				c-1.227,0.785-1.928,2.105-2.105,3.959l0.811-0.677l0.412,0.427l-1.59,1.428l-1.547-1.678l0.428-0.413l0.883,0.942
				c0.059-0.697,0.193-1.332,0.404-1.906s0.457-1.038,0.736-1.391c0.279-0.353,0.584-0.662,0.912-0.927
				c0.33-0.265,0.65-0.461,0.965-0.589c0.314-0.127,0.6-0.228,0.854-0.302c0.256-0.074,0.461-0.115,0.619-0.125L456.898,454.548z"/>
		</g>
	</g>
	<g>
		<g>
			<path fill="#939598" d="M465.58,454.548h2.855v0.913h1.869v0.971h-6.609v-0.971h1.885V454.548z M464.166,457.183h5.682v4.901
				h-5.682V457.183z M465.447,457.801v3.591h0.869v-3.591H465.447z M467.699,457.801v3.591h0.869v-3.591H467.699z"/>
		</g>
	</g>
	<g>
		<g>
			<path fill="#939598" d="M481.283,460.354l-3.754-3.65l0.561-0.574l3.193,3.106l3.238-3.062l0.545,0.604L481.283,460.354z"/>
		</g>
	</g>
	
		<line fill="#939598" stroke="#000000" stroke-width="0.25" stroke-miterlimit="10" x1="431.697" y1="454.38" x2="431.697" y2="462.546"/>
	
		<line fill="#939598" stroke="#000000" stroke-width="0.25" stroke-miterlimit="10" x1="446.029" y1="454.797" x2="446.029" y2="462.964"/>
	
		<line fill="#939598" stroke="#000000" stroke-width="0.25" stroke-miterlimit="10" x1="460.197" y1="454.38" x2="460.197" y2="462.546"/>
	
		<line fill="#939598" stroke="#000000" stroke-width="0.25" stroke-miterlimit="10" x1="473.863" y1="454.38" x2="473.863" y2="462.546"/>
	<rect x="10.201" y="448.469" width="18.083" height="20.899"/>
	<g>
		<path fill="#FFFFFF" d="M22.24,455.871l-0.113,0.407h-0.905l-0.679,2.716c-0.317,1.192-0.626,2.12-0.928,2.784
			c-0.438,0.92-0.905,1.554-1.403,1.9c-0.377,0.271-0.755,0.407-1.132,0.407c-0.257,0-0.468-0.075-0.634-0.226
			c-0.136-0.106-0.204-0.242-0.204-0.407c0-0.136,0.053-0.249,0.158-0.34s0.234-0.136,0.385-0.136c0.121,0,0.219,0.034,0.294,0.102
			c0.075,0.068,0.113,0.147,0.113,0.238c0,0.09-0.045,0.173-0.136,0.248c-0.061,0.061-0.091,0.105-0.091,0.137
			c0,0.029,0.015,0.06,0.045,0.09s0.083,0.046,0.158,0.046c0.181,0,0.37-0.057,0.566-0.17c0.196-0.113,0.37-0.279,0.521-0.498
			s0.294-0.539,0.43-0.962c0.06-0.181,0.219-0.754,0.475-1.72l1.086-4.21h-1.086l0.091-0.407c0.347,0,0.588-0.026,0.724-0.079
			s0.26-0.147,0.374-0.283s0.26-0.385,0.441-0.747c0.241-0.498,0.475-0.883,0.701-1.154c0.302-0.377,0.623-0.656,0.962-0.837
			c0.34-0.182,0.66-0.271,0.962-0.271c0.317,0,0.569,0.079,0.758,0.237c0.188,0.158,0.283,0.336,0.283,0.532
			c0,0.136-0.049,0.252-0.147,0.351c-0.098,0.098-0.215,0.146-0.351,0.146s-0.246-0.037-0.328-0.112
			c-0.083-0.076-0.125-0.159-0.125-0.249c0-0.076,0.03-0.162,0.09-0.261c0.06-0.098,0.091-0.162,0.091-0.192
			c0-0.06-0.023-0.105-0.068-0.136c-0.06-0.03-0.136-0.045-0.226-0.045c-0.271,0-0.506,0.083-0.702,0.249
			c-0.287,0.211-0.536,0.551-0.747,1.019c-0.121,0.241-0.333,0.853-0.634,1.833H22.24z"/>
	</g>
	<g>
		<path d="M35.703,488.89c1.037-1.037,2.287-1.555,3.752-1.555s2.716,0.518,3.753,1.555c1.037,1.037,1.555,2.288,1.555,3.752
			c0,1.465-0.519,2.716-1.555,3.753s-2.288,1.555-3.753,1.555s-2.716-0.519-3.752-1.555s-1.555-2.288-1.555-3.753
			C34.147,491.177,34.666,489.926,35.703,488.89z M37.734,494.674v-0.374h-0.145c-0.235,0-0.353-0.131-0.353-0.394
			c0-0.055,0.014-0.166,0.042-0.332c0.027-0.125,0.042-0.255,0.042-0.394c0-0.276-0.097-0.456-0.291-0.539
			c0.193-0.096,0.291-0.283,0.291-0.56c0-0.125-0.014-0.249-0.042-0.374c-0.028-0.124-0.042-0.242-0.042-0.352
			c0-0.249,0.117-0.374,0.353-0.374h0.145v-0.373h-0.166c-0.511,0-0.767,0.235-0.767,0.705c0,0.042,0.014,0.173,0.042,0.394v0.021
			c0.027,0.18,0.042,0.318,0.042,0.415c0,0.221-0.118,0.332-0.353,0.332H36.49v0.332h0.042c0.235,0,0.353,0.111,0.353,0.332
			c0,0.083-0.014,0.215-0.042,0.394c-0.028,0.249-0.042,0.387-0.042,0.415c0,0.484,0.256,0.726,0.767,0.726H37.734z M39.642,494.094
			l1.037-2.903h-0.477l-0.498,1.431c-0.125,0.359-0.214,0.657-0.27,0.892c-0.056-0.208-0.145-0.504-0.27-0.892l-0.456-1.431h-0.477
			l0.954,2.903H39.642z M42.42,492.808v-0.332h-0.041c-0.235,0-0.353-0.111-0.353-0.332c0-0.097,0.014-0.235,0.042-0.415v-0.021
			c0.027-0.221,0.042-0.352,0.042-0.394c0-0.47-0.263-0.705-0.788-0.705h-0.145v0.373h0.145c0.235,0,0.353,0.125,0.353,0.374
			c0,0.083-0.007,0.173-0.021,0.27l-0.021,0.083c-0.028,0.208-0.042,0.332-0.042,0.374c0,0.276,0.097,0.463,0.29,0.56
			c-0.193,0.083-0.29,0.263-0.29,0.539c0,0.083,0.014,0.214,0.042,0.394c0.014,0.042,0.021,0.069,0.021,0.083
			c0.014,0.083,0.021,0.166,0.021,0.249c0,0.263-0.118,0.394-0.353,0.394h-0.145v0.374h0.166c0.511,0,0.768-0.242,0.768-0.726
			c0-0.083-0.014-0.221-0.042-0.415c-0.028-0.179-0.042-0.311-0.042-0.394c0-0.221,0.117-0.332,0.353-0.332H42.42z"/>
	</g>
	<rect x="46.48" y="488.756" fill="#AEADAE" width="7.373" height="7.373"/>
	<g>
		<path fill="#FFFFFF" d="M52.451,492.162v0.495h-2.099v2.1h-0.495v-2.1h-2.099v-0.495h2.099v-2.1h0.495v2.1H52.451z"/>
	</g>
	<rect x="55.565" y="487.296" fill="#EFEFEF" width="10.667" height="10.667"/>
	<g>
		<path fill="#8D8D8D" d="M58.982,492.434l2.956-3.04l0.465,0.453l-2.527,2.587l2.492,2.623l-0.489,0.441L58.982,492.434z"/>
	</g>
	
		<rect x="10.255" y="469.473" fill="none" stroke="#000000" stroke-width="0.4949" stroke-miterlimit="10" width="482.028" height="440.9"/>
	
		<rect x="20.378" y="510.047" fill="#FFFFFF" stroke="#000000" stroke-width="0.5236" stroke-miterlimit="10" width="459.948" height="20.988"/>
	<g>
		<path fill="#939598" d="M430.32,522.926l-0.014-2.915h0.721v3.65h-7.537v-7.536c0.629,0,1.879,0,3.754,0v0.721
			c-0.166,0-0.385,0-0.654,0c-0.271,0-0.68-0.002-1.23-0.007c-0.549-0.005-0.936-0.007-1.162-0.007l0.016,6.094H430.32z
			 M429.879,517.436l-0.941-0.869l0.412-0.441l1.678,1.56l-1.428,1.575l-0.428-0.412l0.678-0.81
			c-1.855,0.187-3.174,0.893-3.959,2.12c-0.197,0.294-0.352,0.611-0.465,0.949s-0.174,0.601-0.184,0.788l-0.029,0.28h-0.588
			c0-0.059,0.004-0.14,0.014-0.243s0.051-0.307,0.125-0.611s0.174-0.596,0.303-0.875c0.127-0.28,0.322-0.594,0.588-0.942
			c0.266-0.348,0.574-0.657,0.928-0.927c0.354-0.27,0.816-0.513,1.391-0.729S429.182,517.495,429.879,517.436z"/>
	</g>
	<g>
		<g>
			<path fill="#939598" d="M444.32,522.926l-0.016-2.915l0.721-0.015v3.665h-7.535v-7.536c0.627,0,1.879,0,3.754,0v0.707
				c-0.168,0-0.387,0-0.656,0s-0.68,0-1.229,0c-0.551,0-0.938,0-1.164,0l0.016,6.094H444.32z M445.025,516.126v0.589
				c-0.078,0-0.182,0.007-0.309,0.022s-0.371,0.079-0.729,0.191s-0.689,0.268-0.994,0.463c-1.227,0.785-1.928,2.105-2.104,3.959
				l0.809-0.677l0.412,0.427l-1.59,1.428l-1.545-1.678l0.426-0.413l0.885,0.942c0.059-0.697,0.193-1.332,0.404-1.906
				s0.457-1.038,0.736-1.391c0.279-0.353,0.584-0.662,0.912-0.927s0.65-0.461,0.965-0.589c0.312-0.127,0.598-0.228,0.854-0.302
				c0.254-0.074,0.461-0.115,0.617-0.125L445.025,516.126z"/>
		</g>
	</g>
	<g>
		<g>
			<path fill="#939598" d="M453.707,516.126h2.855v0.913h1.871v0.971h-6.609v-0.971h1.883V516.126z M452.295,518.761h5.682v4.901
				h-5.682V518.761z M453.576,519.379v3.591h0.867v-3.591H453.576z M455.828,519.379v3.591h0.867v-3.591H455.828z"/>
		</g>
	</g>
	<g>
		<g>
			<path fill="#939598" d="M469.412,521.932l-3.754-3.65l0.559-0.574l3.195,3.106l3.238-3.062l0.543,0.604L469.412,521.932z"/>
		</g>
	</g>
	
		<line fill="#939598" stroke="#000000" stroke-width="0.25" stroke-miterlimit="10" x1="434.168" y1="515.834" x2="434.168" y2="524.001"/>
	
		<line fill="#939598" stroke="#000000" stroke-width="0.25" stroke-miterlimit="10" x1="448.334" y1="515.417" x2="448.334" y2="523.583"/>
	
		<line fill="#939598" stroke="#000000" stroke-width="0.25" stroke-miterlimit="10" x1="461.99" y1="515.958" x2="461.99" y2="524.124"/>
	<rect x="20.35" y="510.047" width="18.083" height="20.899"/>
	<g>
		<path fill="#FFFFFF" d="M32.389,517.448l-0.113,0.407h-0.905l-0.679,2.716c-0.317,1.192-0.626,2.12-0.928,2.784
			c-0.438,0.92-0.905,1.554-1.403,1.9c-0.377,0.271-0.755,0.407-1.132,0.407c-0.257,0-0.468-0.075-0.634-0.226
			c-0.136-0.106-0.204-0.242-0.204-0.407c0-0.136,0.053-0.249,0.158-0.34s0.234-0.136,0.385-0.136c0.121,0,0.219,0.034,0.294,0.102
			c0.075,0.068,0.113,0.147,0.113,0.238c0,0.09-0.045,0.173-0.136,0.248c-0.061,0.061-0.091,0.105-0.091,0.137
			c0,0.029,0.015,0.06,0.045,0.09s0.083,0.046,0.158,0.046c0.181,0,0.37-0.057,0.566-0.17c0.196-0.113,0.37-0.279,0.521-0.498
			s0.294-0.539,0.43-0.962c0.06-0.181,0.219-0.754,0.475-1.72l1.086-4.21h-1.086l0.091-0.407c0.347,0,0.588-0.026,0.724-0.079
			s0.26-0.147,0.374-0.283s0.26-0.385,0.441-0.747c0.241-0.498,0.475-0.883,0.701-1.154c0.302-0.377,0.623-0.656,0.962-0.837
			c0.34-0.182,0.66-0.271,0.962-0.271c0.317,0,0.569,0.079,0.758,0.237c0.188,0.158,0.283,0.336,0.283,0.532
			c0,0.136-0.049,0.252-0.147,0.351c-0.098,0.098-0.215,0.146-0.351,0.146s-0.246-0.037-0.328-0.112
			c-0.083-0.076-0.125-0.159-0.125-0.249c0-0.076,0.03-0.162,0.09-0.261c0.06-0.098,0.091-0.162,0.091-0.192
			c0-0.06-0.023-0.105-0.068-0.136c-0.06-0.03-0.136-0.045-0.226-0.045c-0.271,0-0.506,0.083-0.702,0.249
			c-0.287,0.211-0.536,0.551-0.747,1.019c-0.121,0.241-0.333,0.853-0.634,1.833H32.389z"/>
	</g>
	<g>
		<path d="M45.852,550.467c1.037-1.037,2.287-1.555,3.752-1.555s2.716,0.518,3.753,1.555c1.037,1.037,1.555,2.288,1.555,3.752
			c0,1.465-0.519,2.716-1.555,3.753s-2.288,1.555-3.753,1.555s-2.716-0.519-3.752-1.555s-1.555-2.288-1.555-3.753
			C44.297,552.755,44.815,551.504,45.852,550.467z M47.884,556.252v-0.374h-0.145c-0.235,0-0.353-0.131-0.353-0.394
			c0-0.055,0.014-0.166,0.042-0.332c0.027-0.125,0.042-0.255,0.042-0.394c0-0.276-0.097-0.456-0.291-0.539
			c0.193-0.096,0.291-0.283,0.291-0.56c0-0.125-0.014-0.249-0.042-0.374c-0.028-0.124-0.042-0.242-0.042-0.352
			c0-0.249,0.117-0.374,0.353-0.374h0.145v-0.373h-0.166c-0.511,0-0.767,0.235-0.767,0.705c0,0.042,0.014,0.173,0.042,0.394v0.021
			c0.027,0.18,0.042,0.318,0.042,0.415c0,0.221-0.118,0.332-0.353,0.332H46.64v0.332h0.042c0.235,0,0.353,0.111,0.353,0.332
			c0,0.083-0.014,0.215-0.042,0.394c-0.028,0.249-0.042,0.387-0.042,0.415c0,0.484,0.256,0.726,0.767,0.726H47.884z M49.791,555.671
			l1.037-2.903h-0.477l-0.498,1.431c-0.125,0.359-0.214,0.657-0.27,0.892c-0.056-0.208-0.145-0.504-0.27-0.892l-0.456-1.431h-0.477
			l0.954,2.903H49.791z M52.569,554.386v-0.332h-0.041c-0.235,0-0.353-0.111-0.353-0.332c0-0.097,0.014-0.235,0.042-0.415v-0.021
			c0.027-0.221,0.042-0.352,0.042-0.394c0-0.47-0.263-0.705-0.788-0.705h-0.145v0.373h0.145c0.235,0,0.353,0.125,0.353,0.374
			c0,0.083-0.007,0.173-0.021,0.27l-0.021,0.083c-0.028,0.208-0.042,0.332-0.042,0.374c0,0.276,0.097,0.463,0.29,0.56
			c-0.193,0.083-0.29,0.263-0.29,0.539c0,0.083,0.014,0.214,0.042,0.394c0.014,0.042,0.021,0.069,0.021,0.083
			c0.014,0.083,0.021,0.166,0.021,0.249c0,0.263-0.118,0.394-0.353,0.394h-0.145v0.374h0.166c0.511,0,0.768-0.242,0.768-0.726
			c0-0.083-0.014-0.221-0.042-0.415c-0.028-0.179-0.042-0.311-0.042-0.394c0-0.221,0.117-0.332,0.353-0.332H52.569z"/>
	</g>
	<rect x="56.63" y="550.334" fill="#AEADAE" width="7.373" height="7.373"/>
	<g>
		<path fill="#FFFFFF" d="M62.6,553.74v0.495h-2.099v2.1h-0.495v-2.1h-2.099v-0.495h2.099v-2.1h0.495v2.1H62.6z"/>
	</g>
	<rect x="65.714" y="548.874" fill="#EFEFEF" width="10.667" height="10.667"/>
	<g>
		<path fill="#8D8D8D" d="M69.131,554.012l2.956-3.04l0.465,0.453l-2.527,2.587l2.492,2.623l-0.489,0.441L69.131,554.012z"/>
	</g>
	
		<rect x="165.763" y="576.888" fill="#FFFFFF" stroke="#000000" stroke-width="0.7891" stroke-miterlimit="10" width="125.075" height="30.514"/>
	<g>
		<text transform="matrix(1 0 0 1 180.8828 594.8809)" font-family="'MyriadPro-Regular'" font-size="14.2044">ResourceWorker</text>
	</g>
	
		<rect x="165.765" y="629.455" fill="#FFFFFF" stroke="#000000" stroke-width="0.5" stroke-miterlimit="10" width="126.384" height="30.461"/>
	
		<line fill="none" stroke="#000000" stroke-width="0.5" stroke-miterlimit="10" x1="229.245" y1="607.402" x2="229.245" y2="629.459"/>
	
		<rect x="165.899" y="784.059" fill="#FFFFFF" stroke="#000000" stroke-width="0.5" stroke-miterlimit="10" width="126.382" height="30.461"/>
	<g>
		<path d="M214.872,793.746c0.625-0.128,1.521-0.199,2.373-0.199c1.322,0,2.174,0.242,2.771,0.781
			c0.482,0.426,0.753,1.08,0.753,1.819c0,1.265-0.796,2.103-1.805,2.444v0.042c0.739,0.256,1.18,0.938,1.407,1.933
			c0.312,1.335,0.54,2.259,0.738,2.628h-1.278c-0.157-0.27-0.369-1.094-0.64-2.288c-0.284-1.321-0.795-1.819-1.918-1.861h-1.165
			v4.149h-1.236V793.746z M216.108,798.108h1.265c1.322,0,2.16-0.725,2.16-1.819c0-1.236-0.896-1.776-2.203-1.79
			c-0.596,0-1.023,0.057-1.222,0.113V798.108z"/>
		<path d="M223.224,799.983c0.028,1.691,1.109,2.387,2.359,2.387c0.896,0,1.435-0.156,1.904-0.355l0.212,0.896
			c-0.44,0.199-1.193,0.426-2.287,0.426c-2.117,0-3.381-1.393-3.381-3.467c0-2.075,1.221-3.708,3.225-3.708
			c2.245,0,2.841,1.975,2.841,3.239c0,0.256-0.028,0.455-0.042,0.583H223.224z M226.89,799.088c0.015-0.795-0.327-2.032-1.733-2.032
			c-1.265,0-1.819,1.166-1.918,2.032H226.89z"/>
		<path d="M229.644,798.563c0-0.881-0.028-1.591-0.057-2.245h1.123l0.056,1.179h0.029c0.512-0.838,1.321-1.335,2.444-1.335
			c1.662,0,2.912,1.406,2.912,3.495c0,2.472-1.506,3.695-3.125,3.695c-0.91,0-1.705-0.398-2.117-1.08h-0.028v3.737h-1.236V798.563z
			 M230.88,800.396c0,0.185,0.028,0.355,0.057,0.511c0.227,0.867,0.98,1.463,1.875,1.463c1.321,0,2.088-1.08,2.088-2.657
			c0-1.378-0.724-2.558-2.046-2.558c-0.853,0-1.648,0.611-1.89,1.548c-0.043,0.157-0.085,0.341-0.085,0.512V800.396z"/>
		<path d="M237.727,793.107h1.25v10.088h-1.25V793.107z"/>
		<path d="M241.534,796.318l1.506,4.064c0.156,0.455,0.327,0.994,0.44,1.406h0.029c0.128-0.412,0.27-0.938,0.44-1.435l1.364-4.035
			h1.321l-1.875,4.902c-0.895,2.359-1.506,3.566-2.358,4.305c-0.611,0.54-1.222,0.753-1.535,0.81l-0.312-1.051
			c0.312-0.1,0.725-0.299,1.094-0.611c0.341-0.27,0.768-0.753,1.052-1.392c0.057-0.128,0.1-0.228,0.1-0.298
			s-0.029-0.171-0.086-0.327l-2.543-6.337H241.534z"/>
	</g>
	
		<rect x="165.763" y="838.117" fill="#FFFFFF" stroke="#000000" stroke-width="0.7891" stroke-miterlimit="10" width="125.075" height="30.514"/>
	<g>
		<text transform="matrix(1 0 0 1 180.8828 857.1011)" font-family="'MyriadPro-Regular'" font-size="14.2044">ResourceWorker</text>
	</g>
	<line fill="none" stroke="#000000" stroke-width="0.5" stroke-miterlimit="10" x1="229.09" y1="815.52" x2="229.09" y2="837.361"/>
	<g>
		<path d="M59.639,606.968c-0.455,0.227-1.364,0.455-2.529,0.455c-2.7,0-4.732-1.705-4.732-4.846c0-2.998,2.032-5.029,5.001-5.029
			c1.194,0,1.947,0.255,2.273,0.426l-0.298,1.009c-0.469-0.228-1.137-0.398-1.932-0.398c-2.245,0-3.737,1.435-3.737,3.95
			c0,2.344,1.35,3.85,3.68,3.85c0.753,0,1.52-0.156,2.017-0.398L59.639,606.968z"/>
		<path d="M61.143,597.192h1.25v10.088h-1.25V597.192z"/>
		<path d="M65.887,598.471c0.014,0.426-0.298,0.768-0.795,0.768c-0.441,0-0.753-0.341-0.753-0.768c0-0.44,0.327-0.782,0.781-0.782
			C65.588,597.689,65.887,598.031,65.887,598.471z M64.494,607.281v-6.877h1.25v6.877H64.494z"/>
		<path d="M68.514,604.069c0.029,1.691,1.108,2.387,2.359,2.387c0.895,0,1.435-0.156,1.904-0.355l0.213,0.896
			c-0.44,0.199-1.193,0.426-2.288,0.426c-2.117,0-3.381-1.393-3.381-3.467s1.222-3.708,3.226-3.708c2.245,0,2.841,1.975,2.841,3.239
			c0,0.256-0.028,0.455-0.042,0.583H68.514z M72.18,603.174c0.014-0.796-0.327-2.032-1.733-2.032c-1.265,0-1.819,1.165-1.918,2.032
			H72.18z"/>
		<path d="M74.935,602.265c0-0.71-0.014-1.293-0.057-1.861h1.108l0.071,1.137h0.028c0.341-0.654,1.137-1.293,2.273-1.293
			c0.952,0,2.429,0.568,2.429,2.927v4.106h-1.25v-3.964c0-1.108-0.412-2.032-1.591-2.032c-0.824,0-1.464,0.583-1.677,1.278
			c-0.057,0.157-0.085,0.37-0.085,0.583v4.135h-1.25V602.265z"/>
		<path d="M84.268,598.429v1.975h1.79v0.952h-1.79v3.708c0,0.853,0.241,1.336,0.938,1.336c0.327,0,0.568-0.043,0.725-0.085
			l0.057,0.938c-0.241,0.1-0.625,0.171-1.108,0.171c-0.583,0-1.051-0.185-1.35-0.526c-0.355-0.369-0.483-0.98-0.483-1.791v-3.751
			h-1.065v-0.952h1.065v-1.648L84.268,598.429z"/>
	</g>
	
		<rect x="45.086" y="579.162" transform="matrix(0.7071 -0.7071 0.7071 0.7071 -406.9925 227.2649)" fill="none" stroke="#000000" stroke-width="0.7891" stroke-miterlimit="10" width="51.497" height="51.497"/>
	<g>
		<path d="M59.499,852.186c-0.455,0.227-1.364,0.455-2.529,0.455c-2.7,0-4.731-1.705-4.731-4.846c0-2.998,2.032-5.029,5.001-5.029
			c1.193,0,1.946,0.255,2.273,0.426l-0.298,1.009c-0.469-0.228-1.137-0.398-1.933-0.398c-2.245,0-3.737,1.435-3.737,3.95
			c0,2.344,1.35,3.85,3.68,3.85c0.753,0,1.52-0.156,2.018-0.398L59.499,852.186z"/>
		<path d="M61.002,842.41h1.25v10.088h-1.25V842.41z"/>
		<path d="M65.747,843.689c0.014,0.426-0.299,0.768-0.796,0.768c-0.441,0-0.753-0.341-0.753-0.768c0-0.44,0.327-0.782,0.781-0.782
			C65.448,842.907,65.747,843.249,65.747,843.689z M64.354,852.499v-6.877h1.25v6.877H64.354z"/>
		<path d="M68.375,849.287c0.028,1.691,1.108,2.387,2.358,2.387c0.895,0,1.435-0.156,1.904-0.355l0.213,0.896
			c-0.44,0.199-1.193,0.426-2.288,0.426c-2.117,0-3.382-1.393-3.382-3.467s1.222-3.708,3.226-3.708c2.245,0,2.842,1.975,2.842,3.239
			c0,0.256-0.029,0.455-0.043,0.583H68.375z M72.041,848.392c0.014-0.796-0.327-2.032-1.734-2.032c-1.264,0-1.818,1.165-1.918,2.032
			H72.041z"/>
		<path d="M74.794,847.482c0-0.71-0.014-1.293-0.057-1.861h1.108l0.071,1.137h0.029c0.341-0.654,1.137-1.293,2.273-1.293
			c0.952,0,2.429,0.568,2.429,2.927v4.106h-1.25v-3.964c0-1.108-0.412-2.032-1.591-2.032c-0.824,0-1.463,0.583-1.676,1.278
			c-0.057,0.157-0.085,0.37-0.085,0.583v4.135h-1.25V847.482z"/>
		<path d="M84.127,843.646v1.975h1.79v0.952h-1.79v3.708c0,0.853,0.242,1.336,0.938,1.336c0.327,0,0.568-0.043,0.725-0.085
			l0.057,0.938c-0.241,0.1-0.625,0.171-1.108,0.171c-0.583,0-1.051-0.185-1.35-0.526c-0.355-0.369-0.483-0.98-0.483-1.791v-3.751
			H81.84v-0.952h1.065v-1.648L84.127,843.646z"/>
	</g>
	
		<rect x="44.946" y="824.38" transform="matrix(0.7071 -0.7071 0.7071 0.7071 -580.4298 298.9896)" fill="none" stroke="#000000" stroke-width="0.7891" stroke-miterlimit="10" width="51.497" height="51.497"/>
	
		<line fill="none" stroke="#000000" stroke-width="1.4822" stroke-miterlimit="10" x1="70.834" y1="641.325" x2="70.834" y2="813.715"/>
	<g>
		<g>
			
				<line fill="none" stroke="#000000" stroke-width="1.1529" stroke-miterlimit="10" x1="157.489" y1="646.687" x2="70.834" y2="646.687"/>
			<g>
				<polygon points="155.807,640.938 165.763,646.687 155.807,652.436 				"/>
			</g>
		</g>
	</g>
	<g>
		<g>
			
				<line fill="none" stroke="#000000" stroke-width="1.1529" stroke-miterlimit="10" x1="79.108" y1="804.294" x2="165.763" y2="804.294"/>
			<g>
				<polygon points="80.79,810.043 70.834,804.294 80.79,798.545 				"/>
			</g>
		</g>
	</g>
	
		<rect x="164.906" y="680.625" fill="#FFFFFF" stroke="#000000" stroke-width="0.5" stroke-miterlimit="10" width="126.383" height="30.461"/>
	<g>
		<path d="M202.412,695.559c0-0.869-0.028-1.569-0.056-2.213h1.107l0.056,1.163h0.028c0.504-0.826,1.303-1.316,2.409-1.316
			c1.639,0,2.872,1.387,2.872,3.446c0,2.437-1.485,3.642-3.082,3.642c-0.896,0-1.681-0.393-2.087-1.065h-0.028v3.684h-1.219V695.559
			z M203.631,697.366c0,0.182,0.028,0.35,0.056,0.504c0.224,0.854,0.966,1.443,1.849,1.443c1.302,0,2.059-1.064,2.059-2.619
			c0-1.359-0.714-2.521-2.017-2.521c-0.841,0-1.625,0.602-1.863,1.527c-0.042,0.154-0.084,0.336-0.084,0.504V697.366z"/>
		<path d="M214.132,700.125l-0.098-0.854h-0.042c-0.378,0.532-1.107,1.009-2.073,1.009c-1.373,0-2.073-0.967-2.073-1.947
			c0-1.639,1.457-2.535,4.076-2.521v-0.14c0-0.56-0.154-1.569-1.541-1.569c-0.63,0-1.289,0.196-1.765,0.504l-0.28-0.812
			c0.561-0.364,1.373-0.602,2.227-0.602c2.073,0,2.578,1.415,2.578,2.773v2.535c0,0.588,0.028,1.163,0.112,1.625H214.132z
			 M213.95,696.665c-1.345-0.028-2.872,0.21-2.872,1.527c0,0.798,0.532,1.177,1.163,1.177c0.882,0,1.442-0.561,1.639-1.135
			c0.042-0.126,0.07-0.266,0.07-0.392V696.665z"/>
		<path d="M217.462,693.345l1.485,4.006c0.154,0.448,0.322,0.98,0.434,1.387h0.028c0.126-0.406,0.266-0.924,0.434-1.415l1.345-3.978
			h1.303l-1.849,4.833c-0.882,2.326-1.485,3.516-2.325,4.245c-0.602,0.532-1.205,0.742-1.513,0.798l-0.308-1.037
			c0.308-0.098,0.714-0.294,1.079-0.602c0.336-0.267,0.756-0.743,1.037-1.373c0.056-0.126,0.098-0.224,0.098-0.294
			c0-0.07-0.028-0.168-0.084-0.322l-2.507-6.248H217.462z"/>
		<path d="M223.608,690.18h1.233v9.945h-1.233V690.18z"/>
		<path d="M233.047,696.679c0,2.507-1.737,3.6-3.375,3.6c-1.835,0-3.25-1.345-3.25-3.488c0-2.269,1.485-3.6,3.362-3.6
			C231.73,693.191,233.047,694.606,233.047,696.679z M227.668,696.749c0,1.485,0.854,2.605,2.059,2.605
			c1.177,0,2.059-1.106,2.059-2.633c0-1.148-0.574-2.605-2.031-2.605C228.298,694.116,227.668,695.46,227.668,696.749z"/>
		<path d="M238.352,700.125l-0.098-0.854h-0.042c-0.378,0.532-1.107,1.009-2.073,1.009c-1.373,0-2.073-0.967-2.073-1.947
			c0-1.639,1.457-2.535,4.076-2.521v-0.14c0-0.56-0.154-1.569-1.541-1.569c-0.63,0-1.289,0.196-1.765,0.504l-0.28-0.812
			c0.561-0.364,1.373-0.602,2.227-0.602c2.073,0,2.578,1.415,2.578,2.773v2.535c0,0.588,0.028,1.163,0.112,1.625H238.352z
			 M238.17,696.665c-1.345-0.028-2.872,0.21-2.872,1.527c0,0.798,0.532,1.177,1.163,1.177c0.882,0,1.442-0.561,1.639-1.135
			c0.042-0.126,0.07-0.266,0.07-0.392V696.665z"/>
		<path d="M247.201,690.18v8.194c0,0.603,0.014,1.289,0.056,1.751h-1.106l-0.056-1.177h-0.028c-0.378,0.756-1.205,1.331-2.312,1.331
			c-1.639,0-2.899-1.387-2.899-3.446c-0.014-2.255,1.387-3.642,3.04-3.642c1.037,0,1.737,0.49,2.045,1.037h0.028v-4.048H247.201z
			 M245.968,696.105c0-0.154-0.014-0.364-0.056-0.519c-0.182-0.784-0.854-1.429-1.779-1.429c-1.275,0-2.031,1.121-2.031,2.62
			c0,1.373,0.672,2.507,2.003,2.507c0.826,0,1.583-0.546,1.807-1.471c0.042-0.168,0.056-0.336,0.056-0.533V696.105z"/>
		<path d="M251.747,695.404v-0.84h7.229v0.84H251.747z M251.747,698.15v-0.84h7.229v0.84H251.747z"/>
		<path d="M264.166,690.418l1.219,2.003h-0.868l-1.709-2.003H264.166z"/>
		<path d="M267.427,699.396c0-0.518,0.35-0.882,0.84-0.882c0.491,0,0.827,0.364,0.827,0.882c0,0.504-0.322,0.883-0.841,0.883
			C267.763,700.279,267.427,699.901,267.427,699.396z"/>
		<path d="M270.325,699.396c0-0.518,0.35-0.882,0.84-0.882c0.491,0,0.827,0.364,0.827,0.882c0,0.504-0.322,0.883-0.841,0.883
			C270.661,700.279,270.325,699.901,270.325,699.396z"/>
		<path d="M273.223,699.396c0-0.518,0.35-0.882,0.841-0.882c0.49,0,0.826,0.364,0.826,0.882c0,0.504-0.322,0.883-0.841,0.883
			C273.559,700.279,273.223,699.901,273.223,699.396z"/>
	</g>
	<g>
		<path d="M216.769,648.303c0.546,0.336,1.345,0.616,2.185,0.616c1.247,0,1.975-0.658,1.975-1.611c0-0.882-0.504-1.387-1.779-1.877
			c-1.541-0.546-2.494-1.345-2.494-2.675c0-1.471,1.219-2.563,3.054-2.563c0.967,0,1.667,0.224,2.087,0.462l-0.336,0.995
			c-0.308-0.168-0.938-0.448-1.793-0.448c-1.289,0-1.779,0.77-1.779,1.415c0,0.882,0.574,1.317,1.877,1.821
			c1.597,0.617,2.409,1.387,2.409,2.774c0,1.457-1.079,2.717-3.306,2.717c-0.911,0-1.905-0.266-2.409-0.603L216.769,648.303z"/>
		<path d="M225.24,641.061v1.947h1.765v0.938h-1.765v3.656c0,0.84,0.238,1.316,0.924,1.316c0.322,0,0.561-0.042,0.714-0.084
			l0.056,0.925c-0.238,0.098-0.616,0.168-1.092,0.168c-0.575,0-1.037-0.182-1.331-0.519c-0.35-0.364-0.476-0.966-0.476-1.765v-3.698
			h-1.051v-0.938h1.051v-1.625L225.24,641.061z"/>
		<path d="M232.143,649.788l-0.098-0.854h-0.042c-0.378,0.532-1.107,1.009-2.073,1.009c-1.373,0-2.073-0.967-2.073-1.947
			c0-1.639,1.457-2.535,4.076-2.521v-0.14c0-0.56-0.154-1.569-1.541-1.569c-0.63,0-1.289,0.196-1.765,0.504l-0.28-0.812
			c0.561-0.364,1.373-0.602,2.227-0.602c2.073,0,2.578,1.415,2.578,2.773v2.535c0,0.588,0.028,1.163,0.112,1.625H232.143z
			 M231.961,646.328c-1.345-0.028-2.872,0.21-2.872,1.527c0,0.798,0.532,1.177,1.163,1.177c0.882,0,1.442-0.561,1.639-1.135
			c0.042-0.126,0.07-0.266,0.07-0.392V646.328z"/>
		<path d="M235.137,645.123c0-0.798-0.014-1.485-0.056-2.115h1.079l0.042,1.331h0.056c0.308-0.911,1.051-1.485,1.877-1.485
			c0.14,0,0.238,0.014,0.351,0.042v1.163c-0.126-0.028-0.252-0.042-0.42-0.042c-0.869,0-1.485,0.658-1.653,1.583
			c-0.028,0.168-0.056,0.364-0.056,0.575v3.614h-1.219V645.123z"/>
		<path d="M241.536,641.061v1.947h1.765v0.938h-1.765v3.656c0,0.84,0.238,1.316,0.924,1.316c0.322,0,0.561-0.042,0.714-0.084
			l0.056,0.925c-0.238,0.098-0.616,0.168-1.092,0.168c-0.575,0-1.037-0.182-1.331-0.519c-0.35-0.364-0.476-0.966-0.476-1.765v-3.698
			h-1.051v-0.938h1.051v-1.625L241.536,641.061z"/>
	</g>
	<g>
		<path d="M39.074,19.274c0-0.869-0.028-1.569-0.056-2.213h1.107l0.056,1.163h0.028c0.504-0.826,1.303-1.316,2.409-1.316
			c1.639,0,2.872,1.387,2.872,3.446c0,2.437-1.485,3.642-3.082,3.642c-0.896,0-1.681-0.393-2.087-1.065h-0.028v3.684h-1.219V19.274z
			 M40.293,21.081c0,0.182,0.028,0.35,0.056,0.504c0.224,0.854,0.966,1.443,1.849,1.443c1.302,0,2.059-1.064,2.059-2.619
			c0-1.359-0.714-2.521-2.017-2.521c-0.841,0-1.625,0.602-1.863,1.527c-0.042,0.154-0.084,0.336-0.084,0.504V21.081z"/>
		<path d="M50.794,23.84l-0.098-0.854h-0.042c-0.378,0.532-1.107,1.009-2.073,1.009c-1.373,0-2.073-0.967-2.073-1.947
			c0-1.639,1.457-2.535,4.076-2.521v-0.14c0-0.56-0.154-1.569-1.541-1.569c-0.63,0-1.289,0.196-1.765,0.504l-0.28-0.812
			c0.561-0.364,1.373-0.602,2.227-0.602c2.073,0,2.578,1.415,2.578,2.773v2.535c0,0.588,0.028,1.163,0.112,1.625H50.794z
			 M50.612,20.38c-1.345-0.028-2.872,0.21-2.872,1.527c0,0.798,0.532,1.177,1.163,1.177c0.882,0,1.442-0.561,1.639-1.135
			c0.042-0.126,0.07-0.266,0.07-0.392V20.38z"/>
		<path d="M53.62,22.58c0.364,0.238,1.008,0.49,1.625,0.49c0.896,0,1.316-0.448,1.316-1.008c0-0.588-0.35-0.911-1.261-1.247
			c-1.218-0.434-1.793-1.106-1.793-1.919c0-1.092,0.883-1.989,2.339-1.989c0.687,0,1.289,0.196,1.667,0.42l-0.308,0.896
			c-0.266-0.168-0.756-0.392-1.387-0.392c-0.729,0-1.135,0.42-1.135,0.924c0,0.561,0.406,0.812,1.289,1.149
			c1.177,0.448,1.779,1.037,1.779,2.045c0,1.191-0.925,2.031-2.536,2.031c-0.742,0-1.429-0.182-1.905-0.462L53.62,22.58z"/>
		<path d="M59.164,22.58c0.364,0.238,1.008,0.49,1.625,0.49c0.896,0,1.316-0.448,1.316-1.008c0-0.588-0.35-0.911-1.261-1.247
			c-1.218-0.434-1.793-1.106-1.793-1.919c0-1.092,0.883-1.989,2.339-1.989c0.687,0,1.289,0.196,1.667,0.42l-0.308,0.896
			c-0.266-0.168-0.756-0.392-1.387-0.392c-0.729,0-1.135,0.42-1.135,0.924c0,0.561,0.406,0.812,1.289,1.149
			c1.177,0.448,1.779,1.037,1.779,2.045c0,1.191-0.925,2.031-2.536,2.031c-0.742,0-1.429-0.182-1.905-0.462L59.164,22.58z"/>
		<path d="M66.361,15.114v1.947h1.765v0.938h-1.765v3.656c0,0.84,0.238,1.316,0.924,1.316c0.322,0,0.561-0.042,0.715-0.084
			l0.056,0.925c-0.238,0.098-0.616,0.168-1.092,0.168c-0.575,0-1.037-0.182-1.331-0.519c-0.35-0.364-0.476-0.966-0.476-1.765v-3.698
			h-1.051v-0.938h1.051v-1.625L66.361,15.114z"/>
		<path d="M69.51,13.895h1.233v4.23h0.028c0.196-0.35,0.504-0.658,0.882-0.868c0.364-0.21,0.799-0.35,1.261-0.35
			c0.911,0,2.367,0.56,2.367,2.899v4.034h-1.232v-3.894c0-1.093-0.406-2.017-1.569-2.017c-0.798,0-1.429,0.56-1.653,1.232
			c-0.07,0.168-0.084,0.351-0.084,0.588v4.09H69.51V13.895z"/>
		<path d="M77.28,19.176c0-0.798-0.014-1.485-0.056-2.115h1.079l0.042,1.331H78.4c0.308-0.911,1.051-1.485,1.877-1.485
			c0.14,0,0.238,0.014,0.351,0.042v1.163c-0.126-0.028-0.252-0.042-0.42-0.042c-0.869,0-1.485,0.658-1.653,1.583
			c-0.028,0.168-0.056,0.364-0.056,0.575v3.614H77.28V19.176z"/>
		<path d="M87.853,20.395c0,2.507-1.737,3.6-3.375,3.6c-1.835,0-3.25-1.345-3.25-3.488c0-2.269,1.485-3.6,3.362-3.6
			C86.537,16.907,87.853,18.321,87.853,20.395z M82.474,20.464c0,1.485,0.854,2.605,2.059,2.605c1.177,0,2.059-1.106,2.059-2.633
			c0-1.148-0.574-2.605-2.031-2.605C83.104,17.831,82.474,19.176,82.474,20.464z"/>
		<path d="M95.077,21.991c0,0.701,0.014,1.317,0.056,1.849h-1.092l-0.07-1.106h-0.028c-0.322,0.546-1.037,1.261-2.241,1.261
			c-1.064,0-2.339-0.588-2.339-2.97v-3.964h1.233v3.754c0,1.289,0.392,2.157,1.513,2.157c0.826,0,1.401-0.574,1.625-1.121
			c0.07-0.182,0.112-0.406,0.112-0.63v-4.16h1.233V21.991z"/>
		<path d="M102.959,17.061c-0.028,0.49-0.056,1.037-0.056,1.863v3.936c0,1.555-0.308,2.507-0.966,3.096
			c-0.659,0.616-1.611,0.812-2.465,0.812c-0.812,0-1.709-0.196-2.255-0.561l0.308-0.938c0.448,0.28,1.149,0.532,1.989,0.532
			c1.261,0,2.185-0.658,2.185-2.367v-0.756h-0.028c-0.378,0.63-1.107,1.135-2.157,1.135c-1.681,0-2.886-1.429-2.886-3.306
			c0-2.297,1.499-3.6,3.054-3.6c1.177,0,1.821,0.616,2.115,1.176h0.028l0.056-1.022H102.959z M101.684,19.736
			c0-0.21-0.014-0.393-0.07-0.561c-0.224-0.714-0.827-1.303-1.723-1.303c-1.176,0-2.017,0.995-2.017,2.563
			c0,1.331,0.672,2.438,2.003,2.438c0.756,0,1.442-0.477,1.708-1.261c0.07-0.21,0.098-0.448,0.098-0.659V19.736z"/>
		<path d="M104.943,13.895h1.233v4.23h0.028c0.196-0.35,0.504-0.658,0.882-0.868c0.364-0.21,0.799-0.35,1.261-0.35
			c0.911,0,2.367,0.56,2.367,2.899v4.034h-1.232v-3.894c0-1.093-0.406-2.017-1.569-2.017c-0.798,0-1.429,0.56-1.653,1.232
			c-0.07,0.168-0.084,0.351-0.084,0.588v4.09h-1.233V13.895z"/>
	</g>
	<g>
		<path d="M47.705,80.535c0-0.869-0.028-1.569-0.056-2.213h1.107l0.056,1.163h0.028c0.504-0.826,1.303-1.316,2.409-1.316
			c1.639,0,2.872,1.387,2.872,3.446c0,2.437-1.485,3.642-3.082,3.642c-0.896,0-1.681-0.393-2.087-1.065h-0.028v3.684h-1.219V80.535z
			 M48.924,82.342c0,0.182,0.028,0.35,0.056,0.504c0.224,0.854,0.966,1.443,1.849,1.443c1.303,0,2.06-1.064,2.06-2.619
			c0-1.359-0.715-2.521-2.017-2.521c-0.841,0-1.625,0.602-1.863,1.527c-0.042,0.154-0.084,0.336-0.084,0.504V82.342z"/>
		<path d="M59.425,85.102l-0.098-0.854h-0.042c-0.378,0.532-1.107,1.009-2.073,1.009c-1.373,0-2.073-0.967-2.073-1.947
			c0-1.639,1.457-2.535,4.076-2.521v-0.14c0-0.56-0.154-1.569-1.541-1.569c-0.63,0-1.289,0.196-1.765,0.504l-0.28-0.812
			c0.561-0.364,1.373-0.602,2.227-0.602c2.073,0,2.578,1.415,2.578,2.773v2.535c0,0.588,0.028,1.163,0.112,1.625H59.425z
			 M59.243,81.642c-1.345-0.028-2.871,0.21-2.871,1.527c0,0.798,0.532,1.177,1.163,1.177c0.882,0,1.442-0.561,1.639-1.135
			c0.042-0.126,0.07-0.266,0.07-0.392V81.642z"/>
		<path d="M62.251,83.841c0.364,0.238,1.008,0.49,1.625,0.49c0.896,0,1.316-0.448,1.316-1.008c0-0.588-0.35-0.911-1.261-1.247
			c-1.218-0.434-1.793-1.106-1.793-1.919c0-1.092,0.883-1.989,2.339-1.989c0.687,0,1.289,0.196,1.667,0.42l-0.308,0.896
			c-0.266-0.168-0.756-0.392-1.387-0.392c-0.729,0-1.135,0.42-1.135,0.924c0,0.561,0.406,0.812,1.289,1.149
			c1.177,0.448,1.779,1.037,1.779,2.045c0,1.191-0.925,2.031-2.536,2.031c-0.742,0-1.429-0.182-1.905-0.462L62.251,83.841z"/>
		<path d="M67.795,83.841c0.364,0.238,1.008,0.49,1.625,0.49c0.896,0,1.316-0.448,1.316-1.008c0-0.588-0.35-0.911-1.261-1.247
			c-1.218-0.434-1.793-1.106-1.793-1.919c0-1.092,0.883-1.989,2.339-1.989c0.687,0,1.289,0.196,1.667,0.42l-0.308,0.896
			c-0.266-0.168-0.756-0.392-1.387-0.392c-0.729,0-1.135,0.42-1.135,0.924c0,0.561,0.406,0.812,1.289,1.149
			c1.177,0.448,1.779,1.037,1.779,2.045c0,1.191-0.925,2.031-2.536,2.031c-0.742,0-1.429-0.182-1.905-0.462L67.795,83.841z"/>
		<path d="M74.992,76.375v1.947h1.765v0.938h-1.765v3.656c0,0.84,0.238,1.316,0.924,1.316c0.322,0,0.561-0.042,0.714-0.084
			l0.056,0.925c-0.238,0.098-0.616,0.168-1.092,0.168c-0.575,0-1.037-0.182-1.331-0.519c-0.35-0.364-0.476-0.966-0.476-1.765V79.26
			h-1.051v-0.938h1.051v-1.625L74.992,76.375z"/>
		<path d="M78.141,75.156h1.233v4.23h0.028c0.196-0.35,0.504-0.658,0.882-0.868c0.364-0.21,0.799-0.35,1.261-0.35
			c0.911,0,2.367,0.56,2.367,2.899v4.034h-1.232v-3.894c0-1.093-0.406-2.017-1.569-2.017c-0.798,0-1.429,0.56-1.653,1.232
			c-0.07,0.168-0.084,0.351-0.084,0.588v4.09h-1.233V75.156z"/>
		<path d="M85.911,80.437c0-0.798-0.014-1.485-0.056-2.115h1.079l0.042,1.331h0.056c0.308-0.911,1.051-1.485,1.877-1.485
			c0.14,0,0.238,0.014,0.35,0.042v1.163c-0.126-0.028-0.252-0.042-0.42-0.042c-0.869,0-1.485,0.658-1.653,1.583
			c-0.028,0.168-0.056,0.364-0.056,0.575v3.614h-1.219V80.437z"/>
		<path d="M96.484,81.656c0,2.507-1.737,3.6-3.375,3.6c-1.835,0-3.25-1.345-3.25-3.488c0-2.269,1.485-3.6,3.362-3.6
			C95.167,78.168,96.484,79.583,96.484,81.656z M91.105,81.726c0,1.485,0.854,2.605,2.059,2.605c1.177,0,2.059-1.106,2.059-2.633
			c0-1.148-0.574-2.605-2.031-2.605C91.735,79.092,91.105,80.437,91.105,81.726z"/>
		<path d="M103.708,83.252c0,0.701,0.014,1.317,0.056,1.849h-1.092l-0.07-1.106h-0.028c-0.322,0.546-1.037,1.261-2.241,1.261
			c-1.064,0-2.339-0.588-2.339-2.97v-3.964h1.233v3.754c0,1.289,0.392,2.157,1.513,2.157c0.826,0,1.401-0.574,1.625-1.121
			c0.07-0.182,0.112-0.406,0.112-0.63v-4.16h1.233V83.252z"/>
		<path d="M111.59,78.322c-0.028,0.49-0.056,1.037-0.056,1.863v3.936c0,1.555-0.308,2.507-0.966,3.096
			c-0.659,0.616-1.611,0.812-2.465,0.812c-0.812,0-1.709-0.196-2.255-0.561l0.308-0.938c0.448,0.28,1.148,0.532,1.989,0.532
			c1.261,0,2.185-0.658,2.185-2.367v-0.756h-0.028c-0.378,0.63-1.107,1.135-2.157,1.135c-1.681,0-2.886-1.429-2.886-3.306
			c0-2.297,1.499-3.6,3.054-3.6c1.177,0,1.821,0.616,2.115,1.176h0.028l0.056-1.022H111.59z M110.315,80.998
			c0-0.21-0.014-0.393-0.07-0.561c-0.224-0.714-0.827-1.303-1.723-1.303c-1.176,0-2.017,0.995-2.017,2.563
			c0,1.331,0.672,2.438,2.003,2.438c0.756,0,1.442-0.477,1.709-1.261c0.07-0.21,0.098-0.448,0.098-0.659V80.998z"/>
		<path d="M113.574,75.156h1.233v4.23h0.028c0.196-0.35,0.504-0.658,0.882-0.868c0.364-0.21,0.799-0.35,1.261-0.35
			c0.911,0,2.367,0.56,2.367,2.899v4.034h-1.232v-3.894c0-1.093-0.406-2.017-1.569-2.017c-0.798,0-1.429,0.56-1.653,1.232
			c-0.07,0.168-0.084,0.351-0.084,0.588v4.09h-1.233V75.156z"/>
	</g>
	<g>
		<path d="M39.684,457.727c0-0.7-0.014-1.274-0.056-1.835h1.093l0.07,1.121h0.028c0.336-0.644,1.121-1.274,2.241-1.274
			c0.938,0,2.395,0.56,2.395,2.885v4.048h-1.232v-3.908c0-1.092-0.406-2.003-1.569-2.003c-0.812,0-1.443,0.574-1.653,1.261
			c-0.056,0.154-0.084,0.364-0.084,0.574v4.076h-1.233V457.727z"/>
		<path d="M47.72,455.892l1.485,4.006c0.154,0.448,0.322,0.98,0.434,1.387h0.028c0.126-0.406,0.266-0.924,0.434-1.415l1.345-3.978
			h1.303l-1.849,4.833c-0.882,2.326-1.485,3.516-2.325,4.245c-0.602,0.532-1.205,0.742-1.513,0.798l-0.308-1.037
			c0.308-0.098,0.714-0.294,1.079-0.602c0.336-0.267,0.756-0.743,1.037-1.373c0.056-0.126,0.098-0.224,0.098-0.294
			c0-0.07-0.028-0.168-0.084-0.322l-2.507-6.248H47.72z"/>
		<path d="M53.614,461.411c0.364,0.238,1.008,0.49,1.625,0.49c0.896,0,1.316-0.448,1.316-1.008c0-0.588-0.35-0.911-1.261-1.247
			c-1.218-0.435-1.793-1.107-1.793-1.919c0-1.092,0.883-1.989,2.339-1.989c0.687,0,1.289,0.196,1.667,0.42l-0.308,0.896
			c-0.266-0.168-0.756-0.392-1.387-0.392c-0.729,0-1.135,0.42-1.135,0.924c0,0.561,0.406,0.812,1.289,1.149
			c1.177,0.448,1.779,1.037,1.779,2.045c0,1.191-0.925,2.031-2.536,2.031c-0.742,0-1.429-0.182-1.905-0.462L53.614,461.411z"/>
		<path d="M60.013,459.506c0.028,1.667,1.092,2.353,2.325,2.353c0.882,0,1.415-0.154,1.877-0.35l0.21,0.882
			c-0.434,0.196-1.176,0.42-2.255,0.42c-2.087,0-3.334-1.373-3.334-3.418c0-2.045,1.205-3.656,3.18-3.656
			c2.213,0,2.802,1.947,2.802,3.193c0,0.252-0.028,0.448-0.042,0.575H60.013z M63.626,458.623c0.014-0.784-0.322-2.003-1.709-2.003
			c-1.247,0-1.793,1.148-1.891,2.003H63.626z"/>
		<path d="M66.214,461.187c0.546,0.336,1.345,0.616,2.185,0.616c1.247,0,1.975-0.658,1.975-1.611c0-0.882-0.504-1.387-1.779-1.877
			c-1.541-0.546-2.493-1.345-2.493-2.675c0-1.471,1.218-2.563,3.053-2.563c0.967,0,1.667,0.224,2.087,0.462l-0.336,0.995
			c-0.308-0.168-0.938-0.448-1.793-0.448c-1.289,0-1.779,0.77-1.779,1.415c0,0.882,0.574,1.317,1.877,1.821
			c1.597,0.617,2.409,1.387,2.409,2.774c0,1.457-1.079,2.717-3.306,2.717c-0.911,0-1.905-0.266-2.409-0.603L66.214,461.187z"/>
		<path d="M74.685,453.945v1.947h1.765v0.938h-1.765v3.656c0,0.84,0.238,1.316,0.924,1.316c0.322,0,0.561-0.042,0.714-0.084
			l0.056,0.925c-0.238,0.098-0.616,0.168-1.092,0.168c-0.575,0-1.037-0.182-1.331-0.519c-0.35-0.364-0.476-0.966-0.476-1.765v-3.698
			H72.43v-0.938h1.051v-1.625L74.685,453.945z"/>
		<path d="M83.885,459.226c0,2.507-1.737,3.6-3.375,3.6c-1.835,0-3.25-1.345-3.25-3.488c0-2.269,1.485-3.6,3.362-3.6
			C82.569,455.738,83.885,457.152,83.885,459.226z M78.506,459.295c0,1.485,0.854,2.605,2.059,2.605
			c1.177,0,2.059-1.106,2.059-2.633c0-1.148-0.574-2.605-2.031-2.605C79.137,456.662,78.506,458.007,78.506,459.295z"/>
		<path d="M90.269,462.419c-0.322,0.168-1.037,0.392-1.947,0.392c-2.045,0-3.376-1.387-3.376-3.46c0-2.087,1.429-3.6,3.642-3.6
			c0.729,0,1.373,0.182,1.709,0.351l-0.28,0.952c-0.294-0.168-0.756-0.322-1.429-0.322c-1.555,0-2.396,1.149-2.396,2.563
			c0,1.569,1.009,2.536,2.354,2.536c0.7,0,1.163-0.182,1.513-0.336L90.269,462.419z"/>
		<path d="M92.927,459.001h0.028c0.168-0.238,0.406-0.532,0.603-0.771l1.989-2.339h1.484l-2.619,2.788l2.983,3.992h-1.499
			l-2.339-3.25l-0.63,0.701v2.549h-1.219v-9.945h1.219V459.001z"/>
		<path d="M106.104,464.058c-1.274-0.336-2.521-0.714-3.614-1.093c-0.196-0.07-0.392-0.14-0.574-0.14
			c-2.241-0.084-4.16-1.737-4.16-4.777c0-3.025,1.849-4.973,4.398-4.973c2.563,0,4.23,1.989,4.23,4.777
			c0,2.423-1.121,3.978-2.689,4.524v0.056c0.938,0.238,1.961,0.462,2.76,0.603L106.104,464.058z M105.096,457.909
			c0-1.891-0.98-3.838-2.983-3.838c-2.059,0-3.068,1.905-3.054,3.95c-0.014,2.003,1.092,3.81,2.998,3.81
			C104.003,461.831,105.096,460.066,105.096,457.909z"/>
		<path d="M113.635,460.822c0,0.701,0.014,1.317,0.056,1.849h-1.092l-0.07-1.106H112.5c-0.322,0.546-1.037,1.261-2.241,1.261
			c-1.064,0-2.339-0.588-2.339-2.97v-3.964h1.233v3.754c0,1.289,0.392,2.157,1.513,2.157c0.826,0,1.401-0.574,1.625-1.121
			c0.07-0.182,0.112-0.406,0.112-0.63v-4.16h1.233V460.822z"/>
		<path d="M121.811,459.226c0,2.507-1.737,3.6-3.375,3.6c-1.835,0-3.25-1.345-3.25-3.488c0-2.269,1.485-3.6,3.362-3.6
			C120.495,455.738,121.811,457.152,121.811,459.226z M116.432,459.295c0,1.485,0.854,2.605,2.059,2.605
			c1.177,0,2.059-1.106,2.059-2.633c0-1.148-0.574-2.605-2.031-2.605C117.062,456.662,116.432,458.007,116.432,459.295z"/>
		<path d="M124.846,453.945v1.947h1.765v0.938h-1.765v3.656c0,0.84,0.238,1.316,0.924,1.316c0.322,0,0.561-0.042,0.714-0.084
			l0.056,0.925c-0.238,0.098-0.616,0.168-1.092,0.168c-0.575,0-1.037-0.182-1.331-0.519c-0.35-0.364-0.476-0.966-0.476-1.765v-3.698
			h-1.051v-0.938h1.051v-1.625L124.846,453.945z"/>
		<path d="M128.598,459.506c0.028,1.667,1.093,2.353,2.325,2.353c0.882,0,1.415-0.154,1.877-0.35l0.21,0.882
			c-0.434,0.196-1.176,0.42-2.255,0.42c-2.087,0-3.334-1.373-3.334-3.418c0-2.045,1.205-3.656,3.18-3.656
			c2.213,0,2.802,1.947,2.802,3.193c0,0.252-0.028,0.448-0.042,0.575H128.598z M132.212,458.623
			c0.014-0.784-0.322-2.003-1.709-2.003c-1.247,0-1.793,1.148-1.891,2.003H132.212z"/>
	</g>
	<g>
		<path d="M50.501,524.179c0.546,0.336,1.345,0.616,2.185,0.616c1.247,0,1.975-0.658,1.975-1.611c0-0.882-0.504-1.387-1.779-1.877
			c-1.541-0.546-2.494-1.345-2.494-2.675c0-1.471,1.219-2.563,3.054-2.563c0.967,0,1.667,0.224,2.087,0.462l-0.336,0.995
			c-0.308-0.168-0.938-0.448-1.793-0.448c-1.289,0-1.779,0.77-1.779,1.415c0,0.882,0.574,1.317,1.877,1.821
			c1.597,0.617,2.409,1.387,2.409,2.774c0,1.457-1.079,2.717-3.306,2.717c-0.911,0-1.905-0.266-2.409-0.603L50.501,524.179z"/>
		<path d="M58.972,516.937v1.947h1.765v0.938h-1.765v3.656c0,0.84,0.238,1.316,0.924,1.316c0.322,0,0.561-0.042,0.714-0.084
			l0.056,0.925c-0.238,0.098-0.616,0.168-1.092,0.168c-0.575,0-1.037-0.182-1.331-0.519c-0.35-0.364-0.476-0.966-0.476-1.765v-3.698
			h-1.051v-0.938h1.051v-1.625L58.972,516.937z"/>
		<path d="M68.173,522.218c0,2.507-1.737,3.6-3.375,3.6c-1.835,0-3.25-1.345-3.25-3.488c0-2.269,1.485-3.6,3.362-3.6
			C66.856,518.73,68.173,520.145,68.173,522.218z M62.794,522.288c0,1.485,0.854,2.605,2.059,2.605c1.177,0,2.059-1.106,2.059-2.633
			c0-1.148-0.574-2.605-2.031-2.605C63.424,519.654,62.794,520.999,62.794,522.288z"/>
		<path d="M74.556,525.412c-0.322,0.168-1.036,0.392-1.947,0.392c-2.045,0-3.376-1.387-3.376-3.46c0-2.087,1.429-3.6,3.642-3.6
			c0.729,0,1.373,0.182,1.709,0.351l-0.28,0.952c-0.294-0.168-0.756-0.322-1.429-0.322c-1.555,0-2.396,1.149-2.396,2.563
			c0,1.569,1.009,2.536,2.354,2.536c0.7,0,1.163-0.182,1.513-0.336L74.556,525.412z"/>
		<path d="M77.214,521.994h0.028c0.168-0.238,0.406-0.532,0.603-0.771l1.989-2.339h1.484l-2.619,2.788l2.983,3.992h-1.499
			l-2.339-3.25l-0.63,0.701v2.549h-1.219v-9.945h1.219V521.994z"/>
		<path d="M82.394,524.403c0.364,0.238,1.008,0.49,1.625,0.49c0.896,0,1.316-0.448,1.316-1.008c0-0.588-0.35-0.911-1.261-1.247
			c-1.218-0.435-1.793-1.107-1.793-1.919c0-1.092,0.883-1.989,2.339-1.989c0.687,0,1.289,0.196,1.667,0.42l-0.308,0.896
			c-0.266-0.168-0.756-0.392-1.387-0.392c-0.729,0-1.135,0.42-1.135,0.924c0,0.561,0.406,0.812,1.289,1.149
			c1.177,0.448,1.779,1.037,1.779,2.045c0,1.191-0.925,2.031-2.536,2.031c-0.742,0-1.429-0.182-1.905-0.462L82.394,524.403z"/>
	</g>
	<text transform="matrix(1 0 0 1 -138.333 672.334)" font-family="'MyriadPro-Regular'" font-size="14">message:set..</text>
	
		<rect x="164.907" y="731.524" fill="#FFFFFF" stroke="#000000" stroke-width="0.5" stroke-miterlimit="10" width="126.383" height="30.461"/>
	<g>
		<path d="M191.404,746.078c0-0.7-0.014-1.274-0.056-1.835h1.079l0.056,1.093h0.042c0.378-0.645,1.009-1.247,2.129-1.247
			c0.924,0,1.625,0.56,1.919,1.358h0.028c0.21-0.378,0.477-0.672,0.756-0.882c0.406-0.308,0.854-0.476,1.499-0.476
			c0.896,0,2.227,0.588,2.227,2.941v3.992h-1.205v-3.838c0-1.303-0.476-2.087-1.471-2.087c-0.7,0-1.247,0.519-1.457,1.121
			c-0.056,0.168-0.098,0.392-0.098,0.616v4.188h-1.205v-4.062c0-1.079-0.476-1.863-1.415-1.863c-0.771,0-1.331,0.616-1.527,1.233
			c-0.07,0.182-0.098,0.392-0.098,0.602v4.09h-1.205V746.078z"/>
		<path d="M203.767,747.857c0.028,1.667,1.093,2.353,2.325,2.353c0.882,0,1.415-0.154,1.877-0.35l0.21,0.882
			c-0.434,0.196-1.176,0.42-2.255,0.42c-2.087,0-3.334-1.373-3.334-3.418c0-2.045,1.205-3.656,3.18-3.656
			c2.213,0,2.802,1.947,2.802,3.193c0,0.252-0.028,0.448-0.042,0.575H203.767z M207.38,746.975c0.014-0.784-0.322-2.003-1.709-2.003
			c-1.247,0-1.793,1.148-1.891,2.003H207.38z"/>
		<path d="M209.926,749.762c0.364,0.238,1.008,0.49,1.625,0.49c0.896,0,1.316-0.448,1.316-1.008c0-0.588-0.35-0.911-1.261-1.247
			c-1.218-0.435-1.793-1.107-1.793-1.919c0-1.092,0.883-1.989,2.339-1.989c0.687,0,1.289,0.196,1.667,0.42l-0.308,0.896
			c-0.266-0.168-0.756-0.392-1.387-0.392c-0.729,0-1.135,0.42-1.135,0.924c0,0.561,0.406,0.812,1.289,1.149
			c1.177,0.448,1.779,1.037,1.779,2.045c0,1.191-0.925,2.031-2.536,2.031c-0.742,0-1.429-0.182-1.905-0.462L209.926,749.762z"/>
		<path d="M215.47,749.762c0.364,0.238,1.008,0.49,1.625,0.49c0.896,0,1.316-0.448,1.316-1.008c0-0.588-0.35-0.911-1.261-1.247
			c-1.218-0.435-1.793-1.107-1.793-1.919c0-1.092,0.883-1.989,2.339-1.989c0.687,0,1.289,0.196,1.667,0.42l-0.308,0.896
			c-0.266-0.168-0.756-0.392-1.387-0.392c-0.729,0-1.135,0.42-1.135,0.924c0,0.561,0.406,0.812,1.289,1.149
			c1.177,0.448,1.779,1.037,1.779,2.045c0,1.191-0.925,2.031-2.536,2.031c-0.742,0-1.429-0.182-1.905-0.462L215.47,749.762z"/>
		<path d="M224.936,751.023l-0.098-0.854h-0.042c-0.378,0.532-1.107,1.009-2.073,1.009c-1.373,0-2.073-0.967-2.073-1.947
			c0-1.639,1.457-2.535,4.076-2.521v-0.14c0-0.56-0.154-1.569-1.541-1.569c-0.63,0-1.289,0.196-1.765,0.504l-0.28-0.812
			c0.561-0.364,1.373-0.602,2.227-0.602c2.073,0,2.578,1.415,2.578,2.773v2.535c0,0.588,0.028,1.163,0.112,1.625H224.936z
			 M224.754,747.563c-1.345-0.028-2.871,0.21-2.871,1.527c0,0.798,0.532,1.177,1.163,1.177c0.882,0,1.442-0.561,1.639-1.135
			c0.042-0.126,0.07-0.266,0.07-0.392V747.563z"/>
		<path d="M233.771,744.243c-0.028,0.49-0.056,1.037-0.056,1.863v3.936c0,1.555-0.308,2.507-0.966,3.096
			c-0.659,0.616-1.611,0.812-2.465,0.812c-0.812,0-1.709-0.196-2.255-0.561l0.308-0.938c0.448,0.28,1.149,0.532,1.989,0.532
			c1.261,0,2.185-0.658,2.185-2.367v-0.756h-0.028c-0.378,0.63-1.107,1.135-2.157,1.135c-1.681,0-2.886-1.429-2.886-3.306
			c0-2.297,1.499-3.6,3.054-3.6c1.177,0,1.821,0.616,2.115,1.176h0.028l0.056-1.022H233.771z M232.497,746.919
			c0-0.21-0.014-0.393-0.07-0.561c-0.224-0.714-0.827-1.303-1.723-1.303c-1.176,0-2.017,0.995-2.017,2.563
			c0,1.331,0.672,2.438,2.003,2.438c0.756,0,1.442-0.477,1.708-1.261c0.07-0.21,0.098-0.448,0.098-0.659V746.919z"/>
		<path d="M236.442,747.857c0.028,1.667,1.093,2.353,2.325,2.353c0.882,0,1.415-0.154,1.877-0.35l0.21,0.882
			c-0.434,0.196-1.176,0.42-2.255,0.42c-2.087,0-3.334-1.373-3.334-3.418c0-2.045,1.205-3.656,3.18-3.656
			c2.213,0,2.802,1.947,2.802,3.193c0,0.252-0.028,0.448-0.042,0.575H236.442z M240.056,746.975
			c0.014-0.784-0.322-2.003-1.709-2.003c-1.247,0-1.793,1.148-1.891,2.003H240.056z"/>
		<path d="M242.476,745.364c0-0.518,0.35-0.882,0.84-0.882s0.812,0.364,0.827,0.882c0,0.49-0.322,0.869-0.841,0.869
			C242.812,746.232,242.476,745.854,242.476,745.364z M242.476,750.309c0-0.518,0.35-0.882,0.84-0.882s0.812,0.364,0.827,0.882
			c0,0.49-0.322,0.869-0.841,0.869C242.812,751.177,242.476,750.799,242.476,750.309z"/>
		<path d="M245.5,749.762c0.364,0.238,1.008,0.49,1.625,0.49c0.896,0,1.316-0.448,1.316-1.008c0-0.588-0.35-0.911-1.261-1.247
			c-1.218-0.435-1.793-1.107-1.793-1.919c0-1.092,0.883-1.989,2.339-1.989c0.687,0,1.289,0.196,1.667,0.42l-0.308,0.896
			c-0.266-0.168-0.756-0.392-1.387-0.392c-0.729,0-1.135,0.42-1.135,0.924c0,0.561,0.406,0.812,1.289,1.149
			c1.177,0.448,1.779,1.037,1.779,2.045c0,1.191-0.925,2.031-2.536,2.031c-0.742,0-1.429-0.182-1.905-0.462L245.5,749.762z"/>
		<path d="M251.897,747.857c0.028,1.667,1.093,2.353,2.326,2.353c0.882,0,1.414-0.154,1.877-0.35l0.21,0.882
			c-0.435,0.196-1.177,0.42-2.256,0.42c-2.087,0-3.333-1.373-3.333-3.418c0-2.045,1.204-3.656,3.18-3.656
			c2.213,0,2.801,1.947,2.801,3.193c0,0.252-0.027,0.448-0.042,0.575H251.897z M255.512,746.975
			c0.014-0.784-0.322-2.003-1.709-2.003c-1.246,0-1.793,1.148-1.891,2.003H255.512z"/>
		<path d="M259.711,742.296v1.947h1.765v0.938h-1.765v3.656c0,0.84,0.237,1.316,0.924,1.316c0.322,0,0.561-0.042,0.715-0.084
			l0.056,0.925c-0.238,0.098-0.616,0.168-1.093,0.168c-0.574,0-1.036-0.182-1.33-0.519c-0.351-0.364-0.477-0.966-0.477-1.765v-3.698
			h-1.051v-0.938h1.051v-1.625L259.711,742.296z"/>
		<path d="M262.523,750.294c0-0.518,0.35-0.882,0.841-0.882c0.49,0,0.826,0.364,0.826,0.882c0,0.504-0.322,0.883-0.841,0.883
			C262.859,751.177,262.523,750.799,262.523,750.294z"/>
		<path d="M265.421,750.294c0-0.518,0.35-0.882,0.84-0.882c0.491,0,0.827,0.364,0.827,0.882c0,0.504-0.322,0.883-0.841,0.883
			C265.757,751.177,265.421,750.799,265.421,750.294z"/>
	</g>
	
		<line fill="none" stroke="#000000" stroke-width="0.5" stroke-miterlimit="10" x1="229.587" y1="761.52" x2="229.587" y2="783.361"/>
	
		<line fill="none" stroke="#000000" stroke-width="0.5" stroke-miterlimit="10" x1="228.957" y1="710.086" x2="228.957" y2="731.927"/>
	
		<line fill="none" stroke="#000000" stroke-width="0.5" stroke-miterlimit="10" x1="229.587" y1="659.916" x2="229.587" y2="681.757"/>
</g>
<g id="hello_1_" display="none">
	
		<rect x="138.565" y="-816.585" display="inline" fill="none" stroke="#000000" stroke-width="0.5" stroke-miterlimit="10" width="419.437" height="291.427"/>
	
		<rect x="138.569" y="-837.577" display="inline" fill="#FFFFFF" stroke="#000000" stroke-width="0.5" stroke-miterlimit="10" width="419.389" height="20.988"/>
	<g display="inline">
		<path fill="#939598" d="M508.497-824.697l-0.015-2.915h0.721v3.65h-7.536v-7.536c0.628,0,1.879,0,3.754,0v0.721
			c-0.167,0-0.386,0-0.655,0c-0.271,0-0.68-0.002-1.229-0.007s-0.937-0.007-1.163-0.007l0.016,6.094H508.497z M508.056-830.188
			l-0.942-0.869l0.412-0.441l1.678,1.56l-1.428,1.575l-0.427-0.412l0.677-0.81c-1.854,0.187-3.174,0.893-3.959,2.12
			c-0.196,0.294-0.352,0.611-0.464,0.949c-0.113,0.338-0.174,0.601-0.184,0.788l-0.029,0.28h-0.589c0-0.059,0.005-0.14,0.015-0.243
			s0.051-0.307,0.125-0.611c0.073-0.304,0.174-0.596,0.302-0.875c0.127-0.28,0.323-0.594,0.589-0.942
			c0.265-0.348,0.574-0.657,0.927-0.927c0.354-0.27,0.817-0.513,1.392-0.729S507.358-830.129,508.056-830.188z"/>
	</g>
	<g display="inline">
		<g>
			<path fill="#939598" d="M522.496-824.697l-0.015-2.915l0.721-0.015v3.665h-7.536v-7.536c0.628,0,1.879,0,3.754,0v0.707
				c-0.167,0-0.386,0-0.655,0c-0.271,0-0.68,0-1.229,0s-0.937,0-1.163,0l0.016,6.094H522.496z M523.202-831.498v0.589
				c-0.078,0-0.182,0.007-0.309,0.022c-0.128,0.015-0.371,0.079-0.729,0.191c-0.358,0.113-0.689,0.268-0.994,0.463
				c-1.227,0.785-1.928,2.105-2.104,3.959l0.81-0.677l0.412,0.427l-1.59,1.428l-1.546-1.678l0.427-0.413l0.884,0.942
				c0.059-0.697,0.193-1.332,0.404-1.906s0.457-1.038,0.736-1.391c0.279-0.353,0.584-0.662,0.912-0.927
				c0.329-0.265,0.65-0.461,0.965-0.589c0.313-0.127,0.599-0.228,0.854-0.302s0.461-0.115,0.618-0.125L523.202-831.498z"/>
		</g>
	</g>
	<g display="inline">
		<g>
			<path fill="#939598" d="M531.884-831.498h2.855v0.913h1.87v0.971H530v-0.971h1.884V-831.498z M530.471-828.863h5.682v4.901
				h-5.682V-828.863z M531.752-828.245v3.591h0.868v-3.591H531.752z M534.004-828.245v3.591h0.868v-3.591H534.004z"/>
		</g>
	</g>
	<g display="inline">
		<g>
			<path fill="#939598" d="M547.588-825.692l-3.754-3.65l0.56-0.574l3.194,3.106l3.238-3.062l0.544,0.604L547.588-825.692z"/>
		</g>
	</g>
	
		<line display="inline" fill="#939598" stroke="#000000" stroke-width="0.25" stroke-miterlimit="10" x1="498.001" y1="-831.666" x2="498.001" y2="-823.5"/>
	
		<line display="inline" fill="#939598" stroke="#000000" stroke-width="0.25" stroke-miterlimit="10" x1="512.334" y1="-831.249" x2="512.334" y2="-823.082"/>
	
		<line display="inline" fill="#939598" stroke="#000000" stroke-width="0.25" stroke-miterlimit="10" x1="526.501" y1="-831.666" x2="526.501" y2="-823.5"/>
	
		<line display="inline" fill="#939598" stroke="#000000" stroke-width="0.25" stroke-miterlimit="10" x1="540.167" y1="-831.666" x2="540.167" y2="-823.5"/>
	<rect x="138.565" y="-837.577" display="inline" width="18.083" height="20.899"/>
	<g display="inline">
		<path fill="#FFFFFF" d="M150.604-830.175l-0.113,0.407h-0.905l-0.679,2.716c-0.317,1.192-0.626,2.12-0.928,2.784
			c-0.438,0.92-0.905,1.554-1.403,1.9c-0.377,0.271-0.755,0.407-1.132,0.407c-0.257,0-0.468-0.075-0.634-0.226
			c-0.136-0.106-0.204-0.242-0.204-0.407c0-0.136,0.053-0.249,0.158-0.34s0.234-0.136,0.385-0.136c0.121,0,0.219,0.034,0.294,0.102
			c0.075,0.068,0.113,0.147,0.113,0.238c0,0.09-0.045,0.173-0.136,0.248c-0.061,0.061-0.091,0.105-0.091,0.137
			c0,0.029,0.015,0.06,0.045,0.09s0.083,0.046,0.158,0.046c0.181,0,0.37-0.057,0.566-0.17c0.196-0.113,0.37-0.279,0.521-0.498
			s0.294-0.539,0.43-0.962c0.06-0.181,0.219-0.754,0.475-1.72l1.086-4.21h-1.086l0.091-0.407c0.347,0,0.588-0.026,0.724-0.079
			s0.26-0.147,0.374-0.283s0.26-0.385,0.441-0.747c0.241-0.498,0.475-0.883,0.701-1.154c0.302-0.377,0.623-0.656,0.962-0.837
			c0.34-0.182,0.66-0.271,0.962-0.271c0.317,0,0.569,0.079,0.758,0.237c0.188,0.158,0.283,0.336,0.283,0.532
			c0,0.136-0.049,0.252-0.147,0.351c-0.098,0.098-0.215,0.146-0.351,0.146s-0.246-0.037-0.328-0.112
			c-0.083-0.076-0.125-0.159-0.125-0.249c0-0.076,0.03-0.162,0.09-0.261c0.06-0.098,0.091-0.162,0.091-0.192
			c0-0.06-0.023-0.105-0.068-0.136c-0.06-0.03-0.136-0.045-0.226-0.045c-0.271,0-0.506,0.083-0.702,0.249
			c-0.287,0.211-0.536,0.551-0.747,1.019c-0.121,0.241-0.333,0.853-0.634,1.833H150.604z"/>
	</g>
	<g display="inline">
		<path d="M164.067-797.156c1.037-1.037,2.287-1.555,3.752-1.555s2.716,0.518,3.753,1.555c1.037,1.037,1.555,2.288,1.555,3.752
			c0,1.465-0.519,2.716-1.555,3.753s-2.288,1.555-3.753,1.555s-2.716-0.519-3.752-1.555s-1.555-2.288-1.555-3.753
			C162.512-794.869,163.031-796.12,164.067-797.156z M166.099-791.372v-0.374h-0.145c-0.235,0-0.353-0.131-0.353-0.394
			c0-0.055,0.014-0.166,0.042-0.332c0.027-0.125,0.042-0.255,0.042-0.394c0-0.276-0.097-0.456-0.291-0.539
			c0.193-0.096,0.291-0.283,0.291-0.56c0-0.125-0.014-0.249-0.042-0.374c-0.028-0.124-0.042-0.242-0.042-0.352
			c0-0.249,0.117-0.374,0.353-0.374h0.145v-0.373h-0.166c-0.511,0-0.767,0.235-0.767,0.705c0,0.042,0.014,0.173,0.042,0.394v0.021
			c0.027,0.18,0.042,0.318,0.042,0.415c0,0.221-0.118,0.332-0.353,0.332h-0.042v0.332h0.042c0.235,0,0.353,0.111,0.353,0.332
			c0,0.083-0.014,0.215-0.042,0.394c-0.028,0.249-0.042,0.387-0.042,0.415c0,0.484,0.256,0.726,0.767,0.726H166.099z
			 M168.006-791.952l1.037-2.903h-0.477l-0.498,1.431c-0.125,0.359-0.214,0.657-0.27,0.892c-0.056-0.208-0.145-0.504-0.27-0.892
			l-0.456-1.431h-0.477l0.954,2.903H168.006z M170.785-793.238v-0.332h-0.041c-0.235,0-0.353-0.111-0.353-0.332
			c0-0.097,0.014-0.235,0.042-0.415v-0.021c0.027-0.221,0.042-0.352,0.042-0.394c0-0.47-0.263-0.705-0.788-0.705h-0.145v0.373h0.145
			c0.235,0,0.353,0.125,0.353,0.374c0,0.083-0.007,0.173-0.021,0.27l-0.021,0.083c-0.028,0.208-0.042,0.332-0.042,0.374
			c0,0.276,0.097,0.463,0.29,0.56c-0.193,0.083-0.29,0.263-0.29,0.539c0,0.083,0.014,0.214,0.042,0.394
			c0.014,0.042,0.021,0.069,0.021,0.083c0.014,0.083,0.021,0.166,0.021,0.249c0,0.263-0.118,0.394-0.353,0.394h-0.145v0.374h0.166
			c0.511,0,0.768-0.242,0.768-0.726c0-0.083-0.014-0.221-0.042-0.415c-0.028-0.179-0.042-0.311-0.042-0.394
			c0-0.221,0.117-0.332,0.353-0.332H170.785z"/>
	</g>
	<rect x="174.845" y="-797.29" display="inline" fill="#AEADAE" width="7.373" height="7.373"/>
	<g display="inline">
		<path fill="#FFFFFF" d="M180.815-793.884v0.495h-2.099v2.1h-0.495v-2.1h-2.099v-0.495h2.099v-2.1h0.495v2.1H180.815z"/>
	</g>
	<rect x="183.93" y="-798.75" display="inline" fill="#EFEFEF" width="10.667" height="10.667"/>
	<g display="inline">
		<path fill="#8D8D8D" d="M187.347-793.612l2.956-3.04l0.465,0.453l-2.527,2.587l2.492,2.623l-0.489,0.441L187.347-793.612z"/>
	</g>
</g>
<g id="hello" display="none">
	
		<rect x="-209.168" y="251.847" display="inline" fill="#FFFFFF" stroke="#000000" stroke-width="1.9558" stroke-miterlimit="10" width="159.455" height="37.884"/>
	<g display="inline">
		<path d="M-179.793,266.882h5.716v1.15h-4.346v3.527h4.015v1.134h-4.015v4.803h-1.37V266.882z"/>
		<path d="M-166.341,275.417c0,0.787,0.016,1.48,0.062,2.079h-1.228l-0.079-1.244h-0.032c-0.362,0.614-1.165,1.417-2.52,1.417
			c-1.197,0-2.629-0.662-2.629-3.338v-4.457h1.386v4.22c0,1.449,0.44,2.425,1.7,2.425c0.929,0,1.575-0.646,1.827-1.26
			c0.079-0.205,0.126-0.457,0.126-0.709v-4.677h1.386V275.417z"/>
		<path d="M-164.039,271.938c0-0.788-0.016-1.433-0.063-2.063h1.229l0.079,1.26h0.031c0.378-0.725,1.26-1.433,2.52-1.433
			c1.055,0,2.693,0.63,2.693,3.244v4.551h-1.386v-4.394c0-1.228-0.457-2.251-1.764-2.251c-0.913,0-1.622,0.646-1.858,1.417
			c-0.063,0.173-0.095,0.409-0.095,0.646v4.583h-1.386V271.938z"/>
		<path d="M-149.863,277.212c-0.362,0.189-1.165,0.441-2.188,0.441c-2.299,0-3.795-1.559-3.795-3.89
			c0-2.347,1.606-4.047,4.094-4.047c0.819,0,1.543,0.205,1.921,0.394l-0.315,1.071c-0.331-0.189-0.851-0.362-1.606-0.362
			c-1.748,0-2.692,1.292-2.692,2.882c0,1.764,1.134,2.85,2.646,2.85c0.787,0,1.307-0.205,1.701-0.378L-149.863,277.212z"/>
		<path d="M-146.363,267.686v2.189h1.984v1.055h-1.984v4.11c0,0.945,0.268,1.48,1.039,1.48c0.362,0,0.63-0.047,0.803-0.095
			l0.063,1.039c-0.268,0.11-0.693,0.189-1.228,0.189c-0.646,0-1.166-0.205-1.496-0.583c-0.394-0.409-0.536-1.086-0.536-1.984v-4.157
			h-1.181v-1.055h1.181v-1.827L-146.363,267.686z"/>
		<path d="M-141.275,267.733c0.016,0.473-0.331,0.851-0.882,0.851c-0.488,0-0.835-0.378-0.835-0.851
			c0-0.488,0.362-0.866,0.866-0.866C-141.606,266.867-141.275,267.245-141.275,267.733z M-142.818,277.496v-7.622h1.386v7.622
			H-142.818z"/>
		<path d="M-132.234,273.623c0,2.818-1.953,4.047-3.795,4.047c-2.062,0-3.653-1.512-3.653-3.921c0-2.551,1.669-4.047,3.779-4.047
			C-133.715,269.701-132.234,271.292-132.234,273.623z M-138.281,273.701c0,1.669,0.96,2.929,2.315,2.929
			c1.322,0,2.314-1.244,2.314-2.96c0-1.291-0.646-2.929-2.283-2.929S-138.281,272.252-138.281,273.701z"/>
		<path d="M-130.483,271.938c0-0.788-0.016-1.433-0.063-2.063h1.229l0.079,1.26h0.031c0.378-0.725,1.26-1.433,2.52-1.433
			c1.055,0,2.693,0.63,2.693,3.244v4.551h-1.386v-4.394c0-1.228-0.457-2.251-1.764-2.251c-0.913,0-1.622,0.646-1.858,1.417
			c-0.063,0.173-0.095,0.409-0.095,0.646v4.583h-1.386V271.938z"/>
		<path d="M-119.959,277.496l-2.693-10.614h1.449l1.26,5.37c0.315,1.323,0.598,2.646,0.787,3.669h0.032
			c0.173-1.055,0.504-2.315,0.866-3.685l1.417-5.354h1.433l1.291,5.386c0.299,1.26,0.583,2.52,0.74,3.638h0.031
			c0.221-1.166,0.52-2.347,0.851-3.669l1.401-5.354h1.401l-3.007,10.614h-1.433l-1.338-5.527c-0.331-1.354-0.551-2.394-0.693-3.464
			h-0.032c-0.189,1.055-0.425,2.095-0.819,3.464l-1.512,5.527H-119.959z"/>
		<path d="M-102.034,273.623c0,2.818-1.953,4.047-3.795,4.047c-2.063,0-3.653-1.512-3.653-3.921c0-2.551,1.669-4.047,3.779-4.047
			C-103.514,269.701-102.034,271.292-102.034,273.623z M-108.081,273.701c0,1.669,0.96,2.929,2.314,2.929
			c1.323,0,2.315-1.244,2.315-2.96c0-1.291-0.646-2.929-2.283-2.929S-108.081,272.252-108.081,273.701z"/>
		<path d="M-100.282,272.252c0-0.897-0.016-1.669-0.063-2.378h1.213l0.047,1.496h0.063c0.347-1.023,1.181-1.669,2.11-1.669
			c0.157,0,0.268,0.016,0.394,0.047v1.307c-0.142-0.032-0.284-0.047-0.472-0.047c-0.977,0-1.669,0.74-1.858,1.779
			c-0.031,0.189-0.063,0.41-0.063,0.646v4.063h-1.37V272.252z"/>
		<path d="M-93.698,273.371h0.031c0.189-0.268,0.457-0.599,0.677-0.866l2.236-2.63h1.669l-2.945,3.134l3.354,4.488h-1.685
			l-2.63-3.653l-0.708,0.788v2.866h-1.37v-11.18h1.37V273.371z"/>
		<path d="M-86.908,273.937c0.032,1.874,1.229,2.646,2.614,2.646c0.992,0,1.59-0.173,2.11-0.394l0.236,0.992
			c-0.488,0.221-1.323,0.473-2.535,0.473c-2.346,0-3.748-1.543-3.748-3.843c0-2.299,1.354-4.11,3.574-4.11
			c2.488,0,3.149,2.189,3.149,3.59c0,0.284-0.031,0.504-0.047,0.646H-86.908z M-82.845,272.945c0.016-0.882-0.362-2.252-1.921-2.252
			c-1.401,0-2.016,1.292-2.125,2.252H-82.845z"/>
		<path d="M-79.786,272.252c0-0.897-0.016-1.669-0.063-2.378h1.213l0.047,1.496h0.063c0.347-1.023,1.181-1.669,2.11-1.669
			c0.157,0,0.268,0.016,0.394,0.047v1.307c-0.142-0.032-0.284-0.047-0.472-0.047c-0.977,0-1.669,0.74-1.858,1.779
			c-0.031,0.189-0.063,0.41-0.063,0.646v4.063h-1.37V272.252z"/>
	</g>
	
		<rect x="-208.064" y="331.152" display="inline" fill="#FFFFFF" stroke="#000000" stroke-width="0.9923" stroke-miterlimit="10" width="158.336" height="39.876"/>
	<g display="inline">
		<path d="M-170.534,354.116c0.41,0.268,1.134,0.551,1.827,0.551c1.008,0,1.48-0.504,1.48-1.134c0-0.661-0.394-1.023-1.417-1.401
			c-1.37-0.488-2.016-1.244-2.016-2.157c0-1.229,0.992-2.236,2.63-2.236c0.771,0,1.449,0.221,1.874,0.473l-0.347,1.008
			c-0.299-0.189-0.85-0.441-1.559-0.441c-0.818,0-1.275,0.472-1.275,1.039c0,0.63,0.457,0.914,1.449,1.292
			c1.323,0.504,2,1.165,2,2.299c0,1.338-1.04,2.284-2.85,2.284c-0.835,0-1.606-0.205-2.142-0.52L-170.534,354.116z"/>
		<path d="M-163.602,347.912l1.669,4.504c0.173,0.504,0.362,1.102,0.488,1.559h0.031c0.142-0.457,0.299-1.039,0.488-1.59
			l1.512-4.472h1.464l-2.079,5.433c-0.992,2.614-1.669,3.953-2.614,4.771c-0.677,0.599-1.354,0.834-1.7,0.897l-0.347-1.165
			c0.347-0.11,0.803-0.331,1.212-0.677c0.378-0.299,0.851-0.834,1.166-1.543c0.063-0.142,0.11-0.252,0.11-0.331
			s-0.032-0.189-0.095-0.362l-2.819-7.023H-163.602z"/>
		<path d="M-156.969,354.116c0.41,0.268,1.134,0.551,1.827,0.551c1.008,0,1.48-0.504,1.48-1.134c0-0.661-0.394-1.023-1.417-1.401
			c-1.37-0.488-2.016-1.244-2.016-2.157c0-1.229,0.992-2.236,2.63-2.236c0.771,0,1.449,0.221,1.874,0.473l-0.347,1.008
			c-0.299-0.189-0.85-0.441-1.559-0.441c-0.818,0-1.275,0.472-1.275,1.039c0,0.63,0.457,0.914,1.449,1.292
			c1.323,0.504,2,1.165,2,2.299c0,1.338-1.04,2.284-2.85,2.284c-0.835,0-1.606-0.205-2.142-0.52L-156.969,354.116z"/>
		<path d="M-148.873,345.723v2.189h1.984v1.055h-1.984v4.11c0,0.945,0.268,1.48,1.039,1.48c0.362,0,0.63-0.047,0.803-0.095
			l0.063,1.039c-0.268,0.11-0.693,0.189-1.228,0.189c-0.646,0-1.166-0.205-1.496-0.583c-0.394-0.409-0.536-1.086-0.536-1.984v-4.157
			h-1.181v-1.055h1.181v-1.827L-148.873,345.723z"/>
		<path d="M-144.65,351.975c0.032,1.874,1.229,2.646,2.614,2.646c0.992,0,1.59-0.173,2.11-0.394l0.236,0.992
			c-0.488,0.221-1.323,0.473-2.535,0.473c-2.346,0-3.748-1.543-3.748-3.843c0-2.299,1.354-4.11,3.574-4.11
			c2.488,0,3.149,2.189,3.149,3.59c0,0.284-0.031,0.504-0.047,0.646H-144.65z M-140.587,350.983
			c0.016-0.882-0.362-2.252-1.921-2.252c-1.401,0-2.016,1.292-2.125,2.252H-140.587z"/>
		<path d="M-137.529,349.975c0-0.788-0.016-1.433-0.063-2.063h1.212l0.063,1.229h0.047c0.425-0.725,1.134-1.402,2.394-1.402
			c1.04,0,1.827,0.63,2.157,1.528h0.032c0.236-0.425,0.536-0.756,0.85-0.992c0.457-0.347,0.961-0.536,1.685-0.536
			c1.008,0,2.504,0.662,2.504,3.307v4.488h-1.354v-4.315c0-1.464-0.536-2.346-1.654-2.346c-0.787,0-1.401,0.583-1.638,1.26
			c-0.063,0.189-0.11,0.441-0.11,0.693v4.708h-1.354v-4.567c0-1.212-0.535-2.094-1.59-2.094c-0.866,0-1.496,0.693-1.716,1.386
			c-0.079,0.205-0.11,0.441-0.11,0.677v4.598h-1.354V349.975z"/>
		<path d="M-124.721,349.172c0-0.583,0.394-0.992,0.945-0.992s0.914,0.41,0.929,0.992c0,0.551-0.362,0.977-0.945,0.977
			C-124.343,350.148-124.721,349.723-124.721,349.172z M-124.721,354.73c0-0.583,0.394-0.992,0.945-0.992s0.914,0.41,0.929,0.992
			c0,0.551-0.362,0.977-0.945,0.977C-124.343,355.707-124.721,355.282-124.721,354.73z"/>
		<path d="M-121.129,350.4c0-0.977-0.031-1.764-0.063-2.488h1.244l0.063,1.307h0.032c0.566-0.929,1.464-1.48,2.708-1.48
			c1.843,0,3.229,1.559,3.229,3.874c0,2.74-1.669,4.094-3.464,4.094c-1.008,0-1.89-0.441-2.346-1.197h-0.032v4.141h-1.37V350.4z
			 M-119.759,352.432c0,0.205,0.032,0.394,0.063,0.567c0.252,0.96,1.086,1.622,2.079,1.622c1.464,0,2.315-1.196,2.315-2.944
			c0-1.527-0.803-2.834-2.268-2.834c-0.945,0-1.827,0.677-2.095,1.716c-0.047,0.173-0.094,0.378-0.094,0.567V352.432z"/>
		<path d="M-112.165,350.29c0-0.897-0.016-1.669-0.063-2.378h1.212l0.047,1.496h0.063c0.347-1.023,1.181-1.669,2.11-1.669
			c0.157,0,0.268,0.016,0.394,0.047v1.307c-0.142-0.032-0.283-0.047-0.473-0.047c-0.976,0-1.669,0.74-1.858,1.779
			c-0.032,0.189-0.063,0.41-0.063,0.646v4.063h-1.37V350.29z"/>
		<path d="M-105.407,345.771c0.016,0.473-0.331,0.851-0.882,0.851c-0.488,0-0.835-0.378-0.835-0.851
			c0-0.488,0.362-0.866,0.866-0.866C-105.738,344.904-105.407,345.282-105.407,345.771z M-106.951,355.534v-7.622h1.386v7.622
			H-106.951z"/>
		<path d="M-103.264,349.975c0-0.788-0.016-1.433-0.063-2.063h1.229l0.079,1.26h0.032c0.378-0.725,1.26-1.433,2.52-1.433
			c1.055,0,2.692,0.63,2.692,3.244v4.551h-1.386v-4.394c0-1.228-0.457-2.251-1.764-2.251c-0.913,0-1.622,0.646-1.858,1.417
			c-0.063,0.173-0.095,0.409-0.095,0.646v4.583h-1.386V349.975z"/>
		<path d="M-94.852,354.715c0-0.583,0.394-0.992,0.945-0.992s0.929,0.41,0.929,0.992c0,0.567-0.362,0.992-0.945,0.992
			C-94.474,355.707-94.852,355.282-94.852,354.715z"/>
		<path d="M-91.59,354.715c0-0.583,0.394-0.992,0.945-0.992s0.929,0.41,0.929,0.992c0,0.567-0.362,0.992-0.945,0.992
			C-91.212,355.707-91.59,355.282-91.59,354.715z"/>
		<path d="M-88.33,354.715c0-0.583,0.394-0.992,0.945-0.992s0.929,0.41,0.929,0.992c0,0.567-0.362,0.992-0.945,0.992
			C-87.952,355.707-88.33,355.282-88.33,354.715z"/>
	</g>
	
		<rect x="-207.899" y="430.981" display="inline" fill="#FFFFFF" stroke="#000000" stroke-width="0.9715" stroke-miterlimit="10" width="159.912" height="38.043"/>
	<g display="inline">
		<path d="M-179.921,445.848h5.716v1.15h-4.346v3.527h4.015v1.134h-4.015v4.803h-1.37V445.848z"/>
		<path d="M-166.469,454.383c0,0.787,0.016,1.48,0.062,2.079h-1.228l-0.079-1.244h-0.032c-0.362,0.614-1.165,1.417-2.52,1.417
			c-1.197,0-2.629-0.662-2.629-3.338v-4.457h1.386v4.22c0,1.449,0.44,2.425,1.7,2.425c0.929,0,1.575-0.646,1.827-1.26
			c0.079-0.205,0.126-0.457,0.126-0.709v-4.677h1.386V454.383z"/>
		<path d="M-164.167,450.903c0-0.788-0.016-1.433-0.063-2.063h1.229l0.079,1.26h0.031c0.378-0.725,1.26-1.433,2.52-1.433
			c1.055,0,2.693,0.63,2.693,3.244v4.551h-1.386v-4.394c0-1.228-0.457-2.251-1.764-2.251c-0.913,0-1.622,0.646-1.858,1.417
			c-0.063,0.173-0.095,0.409-0.095,0.646v4.583h-1.386V450.903z"/>
		<path d="M-149.991,456.178c-0.362,0.189-1.165,0.441-2.188,0.441c-2.299,0-3.795-1.559-3.795-3.89
			c0-2.347,1.606-4.047,4.094-4.047c0.819,0,1.543,0.205,1.921,0.394l-0.315,1.071c-0.331-0.189-0.851-0.362-1.606-0.362
			c-1.748,0-2.692,1.292-2.692,2.882c0,1.764,1.134,2.85,2.646,2.85c0.787,0,1.307-0.205,1.701-0.378L-149.991,456.178z"/>
		<path d="M-146.491,446.651v2.189h1.984v1.055h-1.984v4.11c0,0.945,0.268,1.48,1.039,1.48c0.362,0,0.63-0.047,0.803-0.095
			l0.063,1.039c-0.268,0.11-0.693,0.189-1.228,0.189c-0.646,0-1.166-0.205-1.496-0.583c-0.394-0.409-0.536-1.086-0.536-1.984v-4.157
			h-1.181v-1.055h1.181v-1.827L-146.491,446.651z"/>
		<path d="M-141.403,446.698c0.016,0.473-0.331,0.851-0.882,0.851c-0.488,0-0.835-0.378-0.835-0.851
			c0-0.488,0.362-0.866,0.866-0.866C-141.734,445.832-141.403,446.21-141.403,446.698z M-142.946,456.461v-7.622h1.386v7.622
			H-142.946z"/>
		<path d="M-132.362,452.588c0,2.818-1.953,4.047-3.795,4.047c-2.062,0-3.653-1.512-3.653-3.921c0-2.551,1.669-4.047,3.779-4.047
			C-133.843,448.667-132.362,450.257-132.362,452.588z M-138.409,452.667c0,1.669,0.96,2.929,2.315,2.929
			c1.322,0,2.314-1.244,2.314-2.96c0-1.291-0.646-2.929-2.283-2.929S-138.409,451.218-138.409,452.667z"/>
		<path d="M-130.611,450.903c0-0.788-0.016-1.433-0.063-2.063h1.229l0.079,1.26h0.031c0.378-0.725,1.26-1.433,2.52-1.433
			c1.055,0,2.693,0.63,2.693,3.244v4.551h-1.386v-4.394c0-1.228-0.457-2.251-1.764-2.251c-0.913,0-1.622,0.646-1.858,1.417
			c-0.063,0.173-0.095,0.409-0.095,0.646v4.583h-1.386V450.903z"/>
		<path d="M-120.087,456.461l-2.693-10.614h1.449l1.26,5.37c0.315,1.323,0.598,2.646,0.787,3.669h0.032
			c0.173-1.055,0.504-2.315,0.866-3.685l1.417-5.354h1.433l1.291,5.386c0.299,1.26,0.583,2.52,0.74,3.638h0.031
			c0.221-1.166,0.52-2.347,0.851-3.669l1.401-5.354h1.401l-3.007,10.614h-1.433l-1.338-5.527c-0.331-1.354-0.551-2.394-0.693-3.464
			h-0.032c-0.189,1.055-0.425,2.095-0.819,3.464l-1.512,5.527H-120.087z"/>
		<path d="M-102.162,452.588c0,2.818-1.953,4.047-3.795,4.047c-2.063,0-3.653-1.512-3.653-3.921c0-2.551,1.669-4.047,3.779-4.047
			C-103.642,448.667-102.162,450.257-102.162,452.588z M-108.208,452.667c0,1.669,0.96,2.929,2.314,2.929
			c1.323,0,2.315-1.244,2.315-2.96c0-1.291-0.646-2.929-2.283-2.929S-108.208,451.218-108.208,452.667z"/>
		<path d="M-100.41,451.218c0-0.897-0.016-1.669-0.063-2.378h1.213l0.047,1.496h0.063c0.347-1.023,1.181-1.669,2.11-1.669
			c0.157,0,0.268,0.016,0.394,0.047v1.307c-0.142-0.032-0.284-0.047-0.472-0.047c-0.977,0-1.669,0.74-1.858,1.779
			c-0.031,0.189-0.063,0.41-0.063,0.646v4.063h-1.37V451.218z"/>
		<path d="M-93.826,452.336h0.031c0.189-0.268,0.457-0.599,0.677-0.866l2.236-2.63h1.669l-2.945,3.134l3.354,4.488h-1.685
			l-2.63-3.653l-0.708,0.788v2.866h-1.37v-11.18h1.37V452.336z"/>
		<path d="M-87.036,452.902c0.032,1.874,1.229,2.646,2.614,2.646c0.992,0,1.59-0.173,2.11-0.394l0.236,0.992
			c-0.488,0.221-1.323,0.473-2.535,0.473c-2.346,0-3.748-1.543-3.748-3.843c0-2.299,1.354-4.11,3.574-4.11
			c2.488,0,3.149,2.189,3.149,3.59c0,0.284-0.031,0.504-0.047,0.646H-87.036z M-82.973,451.911c0.016-0.882-0.362-2.252-1.921-2.252
			c-1.401,0-2.016,1.292-2.125,2.252H-82.973z"/>
		<path d="M-79.914,451.218c0-0.897-0.016-1.669-0.063-2.378h1.213l0.047,1.496h0.063c0.347-1.023,1.181-1.669,2.11-1.669
			c0.157,0,0.268,0.016,0.394,0.047v1.307c-0.142-0.032-0.284-0.047-0.472-0.047c-0.977,0-1.669,0.74-1.858,1.779
			c-0.031,0.189-0.063,0.41-0.063,0.646v4.063h-1.37V451.218z"/>
	</g>
	
		<line display="inline" fill="none" stroke="#000000" stroke-width="2" stroke-miterlimit="10" x1="-129.445" y1="289.731" x2="-129.445" y2="331.152"/>
	
		<line display="inline" fill="none" stroke="#000000" stroke-width="2" stroke-miterlimit="10" x1="-128.837" y1="371.029" x2="-128.837" y2="430.981"/>
</g>
</svg>
