<svg xmlns="http://www.w3.org/2000/svg" width="500" height="4838.8">
  <path fill="none" stroke="#000" stroke-width=".4" stroke-miterlimit="10" d="M24 62h361.2v326h-361z"/>
  <path fill="#FFF" stroke="#000" stroke-width=".4" stroke-miterlimit="10" d="M16 13h468v16.7H16z"/>
  <path fill="#939598" d="M444 23.2V21h.6v2.8h-6v-6h3v.5H439v5h5zm-.4-4.4l-.7-.7.2-.2 1.4 1.2-1.2 1.3-.3-.4.6-.7c-1.5 0-2.5.7-3 1.7-.3.2-.4.5-.5.8v.8h-.6v-.2l.2-.5c0-.3 0-.6.2-.8 0-.2.3-.4.5-.7l.7-.8 1-.6c.6 0 1 0 1.6-.2zM455.2 23.2V21h.6v2.8h-6v-6h3v.5H450v5h5zm.6-5.4v.4h-.3l-.6.2c-.4 0-.6.2-1 .4-.8.6-1.4 1.7-1.5 3l.6-.4.4.3-1.2 1.2-1.3-1.5.3-.3.7.8c0-.6 0-1 .3-1.6l.6-1c0-.4.3-.6.6-.8l.8-.5h.7l.6-.2h.2zM462.7 17.8h2.3v.7h1.5v.8h-5.3v-.8h1.5v-.7zm-1 2h4.4v4h-4.4v-4zm1 .6v2.8h.6v-2.8h-.7zm1.7 0v2.8h.7v-2.8h-.6zM475.3 22.4l-3-3 .4-.4 2.6 2.5L478 19l.3.6-3 2.8z"/>
  <path fill="none" stroke="#000" stroke-width=".2" stroke-miterlimit="10" d="M435.6 17.6v6.6M447 18v6.5M458.4 17.6v6.6M469.3 17.6v6.6"/>
  <path d="M16 13h14.4v16.6H16zM36.3 45.2c1-.8 2-1.2 3-1.2 1.2 0 2.2.4 3 1.2 1 1 1.3 2 1.3 3 0 1.2-.4 2.2-1.3 3-.8 1-1.8 1.3-3 1.3-1 0-2-.4-3-1.3-.8-.8-1.2-1.8-1.2-3 0-1 .5-2 1.3-3zM38 50v-.4h-.2c-.2 0-.2 0-.2-.3V49v-.3c0-.2 0-.4-.2-.5l.2-.4v-.3-.3c0-.2 0-.3.2-.3v-.4c-.4 0-.6.2-.6.6v.6c0 .2 0 .3-.2.3v.4c.2 0 .3 0 .3.2v.7c0 .4 0 .6.5.6zm1.5-.6l.8-2.3H40l-.5 1.2c0 .3 0 .6-.2.7 0-.2 0-.5-.2-.8l-.3-1h-.4l.8 2.2h.5zm2.2-1V48c-.2 0-.3 0-.3-.2v-.3-.3c0-.4-.2-.6-.6-.6v.3c.2 0 .3 0 .3.2V47.8c0 .2 0 .4.3.4-.2 0-.3.3-.3.5v.6c0 .2 0 .3-.2.3v.3c.4 0 .7-.3.7-.7V49v-.4s0-.2.2-.2z"/>
  <path fill="#AEADAE" d="M45 45h5.8v6h-6z"/>
  <path fill="#FFF" d="M49.7 48v.3H48V50h-.4v-1.7H46V48h1.6V46h.4V48h1.7z"/>
  <path fill="none" stroke="#000" stroke-width=".4" stroke-miterlimit="10" d="M16 29.7h468v1877H16z"/>
  <g fill="#FFF">
    <path d="M27 23.4H27c0-.3 0-.4-.2-.5v-.2s.2 0 .3-.2c0-.2 0-.2-.2-.3h-.4c0-.2-.2-.3-.3-.4v-.2c.2 0 .2-.2.2-.3V21H26s-.2 0-.3.2c-.2 0-.3-.2-.4-.3v-.3c-.2 0-.3 0-.4-.2-.2 0-.3.2-.3.3H24c0-.2 0-.3-.2-.4h-.3s0 .2-.2.3H23c0 .2 0 .2 0 0h-.2-.3v.3l-.4.4s-.2 0-.3-.2l-.2.2v.4c0 .2 0 .3-.2.4H21c0 .2-.2.3-.2.3 0 .2.2.2.2.3v.5h-.3v.5h.2V24.5s0 .2-.2.3v.3h.5l.3.4c0 .2 0 .3-.2.4l.2.2h.9v.5s.2 0 .3.2l.2-.3h.5c0 .2 0 .3.2.4h.3v-.3H24.7s.2 0 .3.2h.2v-.2-.3c.2 0 .3-.2.4-.3h.4s.2 0 .2-.2v-.3c0-.2 0-.3.2-.5h.4v-.3s0-.2-.2-.3V24c.3 0 .4 0 .5-.2v-.3zm-3.2 1c-.4 0-.8-.3-.8-.8 0-.4.4-.8 1-.8.3 0 .7.4.7.8 0 .5-.4 1-1 1zM23.2 18.5H23c0-.2 0-.3-.2-.3 0-.2.2-.2.2-.3v-.3h-.3c-.2 0-.2 0-.3-.2V17c0-.2 0-.2 0 0H22l-.2-.2v-.3h-.3l-.2.2H21v-.4h-.2-.2v.3H20h-.2v.2s0 .2-.2.3h-.3v.6l-.2.2c-.2 0-.2 0-.2.2h.2v.5h-.2v.2h.2v.2l.2.2-.2.2v.2h.3l.3.3v.4h.5v.3h.5v-.2h.3v.3h.4v-.2h.8v-.3l.2-.2h.3V20v-.4h.4v-.2L23 19V19v-.2h.2v-.3zm-2 1c-.5 0-.8-.2-.8-.6 0-.4.2-.7.5-.7.2 0 .5.2.6.5 0 .3-.2.6-.5.7zM27.5 18.7h-.2v-.2-.2H27V18v-.2h-.2-.4v-.3h-.5-.4l-.2.2H25 25v.2h-.3v.5h-.2c-.2 0-.2 0-.2.2h.2v.3h-.2v.3h.2v.6h.2c0-.2 0 0 0 0h.2s0 .2-.2.2c.2.2.2.2.2 0h.2l.2.2v.2h.7v-.2H26.8v-.2-.2h.4v-.2-.2h.2v-.2-.2-.2-.2zm-1.5.7c-.3 0-.5 0-.5-.3 0-.2 0-.4.4-.4 0 0 .3 0 .3.4 0 .2 0 .4-.3.4z"/>
  </g>
  <path fill="#FFF" stroke="#000" stroke-width=".4" stroke-miterlimit="10" d="M24 62.2h361.2V79h-361z"/>
  <path fill="#939598" d="M345 72.5V70h.7v3h-6v-6h3v.6h-2.5v5h5zM345 68l-.8-.6.4-.4 1.3 1.3-1 1.2-.5-.3.6-.6c-1.5 0-2.6.7-3.2 1.7l-.4.7V72h-.6v-.3-.5l.3-.7.4-.8.7-.7 1.3-.6c.4-.2 1-.3 1.5-.3zM356.3 72.5V70h.6v3h-6v-6h3v.6h-2.6v5h5zm.6-5.5v.5h-.3l-.6.2-.7.3c-1 .7-1.6 1.7-1.7 3.2l.6-.5.4.3-1.3 1.2-1.2-1.4.4-.3.7.7.4-1.5.6-1c.2-.4.5-.6.8-.8.2-.4.5-.5.7-.6.3 0 .5-.2.7-.3h.7zM363.8 67h2.3v.8h1.6v.7h-5.3v-.7h1.5V67zm-1 2h4.5v4h-4.6v-4zm1 .6v3h.6v-3h-.7zm1.7 0v3h.7v-3h-.7zM376.4 71.7l-3-3 .5-.4 2.4 2.5 2.6-2.5.4.5-3 3z"/>
  <path fill="none" stroke="#000" stroke-width=".2" stroke-miterlimit="10" d="M348.2 66.8v6.5M359.5 66.5V73M370.5 67v6.4"/>
  <path d="M24 62.2h14.5V79H24z"/>
  <path fill="#FFF" d="M35.4 70.5H35v-.2s0-.3-.2-.4v-.2c.2 0 .3-.2.4-.3V69H35h-.4c-.2 0-.3-.3-.4-.4 0-.2 0-.4.2-.5 0 0-.2 0-.3-.2 0 0-.2 0-.3.2-.3 0-.4-.2-.6-.3V67H33c-.2 0-.3.2-.4.3h-.6c0-.3 0-.4-.2-.5h-.3c-.2 0-.2.2-.3.4h-.5c-.2 0-.3 0-.4-.2h-.3V67.7l-.5.4c-.2 0-.3 0-.4-.2l-.4.2c0 .3 0 .4.2.5l-.3.6h-.4c-.2 0-.2 0-.3.2v.2c0 .2 0 .3.2.4v.5h-.2c0 .2-.2.2-.3.2v.4h.3v.2c0 .2 0 .3.2.5l-.4.4c0 .2 0 .3.2.4h.4l.4.6c0 .2 0 .3-.2.4 0 .2.2.3.3.3H29.4c.2 0 .3 0 .5.2v.3l.4.2c.2 0 .3-.2.4-.3h.6v.2s0 .2.2.3h.3c.2 0 .2-.2.2-.3.3 0 .5 0 .6-.2.2 0 .3.2.4.4.2 0 .3 0 .4-.2V74l.6-.4c.2 0 .3 0 .4.2.2 0 .3-.2.4-.3 0-.2 0-.3-.2-.4 0-.2.2-.3.3-.5h.5l.2-.3c0-.2-.2-.3-.3-.4h-.2V71h.2s.3 0 .4-.2v-.4zm-4 1.3c-.6 0-1-.5-1-1 0-.6.4-1 1-1 .5 0 1 .4 1 1s-.4 1-1 1z"/>
  <path fill="#FFF" stroke="#000" stroke-width=".6" stroke-miterlimit="10" d="M140.4 115.6h100V140h-100z"/>
  <text transform="translate(152.12 131.636)" font-family="'MyriadPro-Regular'" font-size="11.4">
    ResourceWorker
  </text>
  <text transform="translate(35.3 25.123)" font-family="'MyriadPro-Regular'" font-size="11.4">
    Ecommerce
  </text>
  <text transform="translate(43.878 74.776)" font-family="'MyriadPro-Regular'" font-size="11.4">
    productsinfo
  </text>
  <path fill="none" stroke="#000" stroke-width=".4" stroke-miterlimit="10" d="M191.2 140v189.4"/>
  <path fill="#FFF" stroke="#000" stroke-width=".4" stroke-miterlimit="10" d="M140.5 285.4h101v24.4h-101zM140.4 157.7h101V182h-101z"/>
  <path fill="#FFF" stroke="#000" stroke-width=".6" stroke-miterlimit="10" d="M140.4 329.4h100v24.4h-100z"/>
  <text transform="translate(152.467 345.427)" font-family="'MyriadPro-Regular'" font-size="11.4">
    ResourceWorker
  </text>
  <path d="M55.5 141.3c-.4.2-1 .4-2 .4-2.2 0-3.8-1.4-3.8-4 0-2.3 1.6-4 4-4 1 0 1.5.3 1.8.4l-.3 1c-.3-.3-1-.4-1.5-.4-1.8 0-3 1-3 3.2 0 1.8 1 3 3 3 .6 0 1.2 0 1.6-.3l.2.8zM56.7 133.5h1v8h-1v-8zM60.5 134.5c0 .3-.3.6-.7.6-.3 0-.6 0-.6-.5 0-.3.3-.6.7-.6.2 0 .5.2.5.5zm-1 7v-5.4h1v5.6h-1zM62.6 139c0 1.3 1 2 2 2 .6 0 1-.2 1.4-.4l.2.7c-.4.2-1 .4-2 .4-1.6 0-2.6-1-2.6-2.8 0-1.8 1-3 2.6-3 1.8 0 2.3 1.5 2.3 2.5v.5h-4zm3-.7c0-.7-.4-1.7-1.5-1.7-1 0-1.3 1-1.4 1.7h3zM67.7 137.5V136h.8v1c.4-.6 1-1 2-1 .7 0 2 .4 2 2.3v3.3h-1v-3.2c0-1-.4-1.6-1.4-1.6-.5 0-1 .4-1.2 1v3.8h-1v-4zM75.2 134.5v1.6h1.4v.8h-1.4v3c0 .7.2 1 .7 1h.5v.7l-.8.2c-.5 0-1-.2-1-.4-.4-.3-.5-.8-.5-1.5v-3h-1v-.7h1v-1.3l1-.2z"/>
  <path fill="none" stroke="#000" stroke-width=".599994" stroke-miterlimit="10" d="M93.6 138l-29.2 29-29-29 29-29z" stroke-dasharray="1.6 1.6"/>
  <path d="M55.4 340c-.4 0-1 .3-2 .3-2.2 0-3.8-1.4-3.8-4 0-2.3 1.6-4 4-4 1 0 1.5.3 1.8.4l-.3.8c-.2-.2-.8-.3-1.4-.3-1.8 0-3 1-3 3s1 3.2 3 3.2c.5 0 1.2 0 1.6-.3l.2 1zM56.6 332h1v8h-1v-8zM60.4 333c0 .4-.3.7-.7.7-.3 0-.6-.3-.6-.6s.4-.5.7-.5c.4 0 .7.2.7.6zm-1.2 7v-5.4h1v5.5h-1zM62.5 337.6c0 1.3.8 2 1.8 2 .8 0 1.2-.2 1.6-.4v.7c-.3 0-1 .3-1.8.3-1.7 0-2.7-1.2-2.7-2.8 0-1.7 1-3 2.6-3 2 0 2.4 1.6 2.4 2.6v.6h-4zm3-.7c0-.8-.4-1.8-1.5-1.8-1 0-1.4 1-1.5 1.7h3zM67.6 336v-1.4h.8v1c.4-.6 1-1 2-1 .7 0 2 .4 2 2.3v3h-1v-3c0-1-.5-1.7-1.4-1.7-.7 0-1.2.5-1.3 1v3.8h-1v-4zM75 333v1.6h1.5v.8H75v3c0 .6.3 1 .8 1h.6v.7c-.2.2-.5.3-.8.3-.5 0-1-.2-1-.5-.4-.3-.5-.8-.5-1.4v-3h-.8v-.8h1v-1.3l1-.2z"/>
  <path fill="none" stroke="#000" stroke-width=".599994" stroke-miterlimit="10" d="M93.5 336.7l-29 29-29.3-29 29.2-29.2z" stroke-dasharray="1.6 1.6"/>
  <path fill="none" stroke="#000" stroke-miterlimit="10" d="M64.4 167.2v140.3"/>
  <path fill="none" stroke="#000" stroke-width=".9" stroke-miterlimit="10" d="M133.8 171.5H64.4"/>
  <path d="M132.4 167l8 4.5-8 4.6"/>
  <path fill="none" stroke="#000" stroke-width=".6" stroke-miterlimit="10" d="M71 297.6h69.4" stroke-dasharray="1.6 1.6"/>
  <path d="M72.4 302.2l-8-4.6 8-4.6"/>
  <path fill="none" stroke="#000" stroke-width=".6" stroke-miterlimit="10" d="M306.5 258h86" stroke-dasharray="1.6 1.6"/>
  <path d="M308 262.7l-8-4.6 8-4.5"/>
  <path fill="#FFF" stroke="#000" stroke-width=".6" stroke-miterlimit="10" d="M395.2 115.7h75.6V140h-75.6zM395.2 1868h75.6v24.4h-75.6z"/>
  <path fill="none" stroke="#000" stroke-width=".4" stroke-miterlimit="10" d="M434.2 140v1728"/>
  <path fill="none" stroke="#000" stroke-width=".9" stroke-miterlimit="10" d="M384.2 246.7H243"/>
  <path d="M384.5 242l8 4.7-8 4.6"/>
  <path fill="none" stroke="#000" stroke-width=".6" stroke-miterlimit="10" d="M306.5 845h34.8" stroke-dasharray="1.6 1.6"/>
  <path d="M308 849.6l-8-4.6 8-4.6"/>
  <path fill="none" stroke="#000" stroke-width=".9" stroke-miterlimit="10" d="M336.5 833.6H243"/>
  <path d="M334.3 829l8 4.6-8 4.6"/>
  <path fill="#FFF" stroke="#000" stroke-width=".6" stroke-miterlimit="10" d="M80.6 197.8H300v24.4H80.5z"/>
  <text transform="translate(180.15 174.76)" font-family="'MyriadPro-Light'" font-size="11.2">
    Start
  </text>
  <text transform="translate(89.05 214.76)" font-family="'MyriadPro-Light'" font-size="11.2">
    string reqPath = “/productsservice/” + prodId
  </text>
  <path fill="#FFF" stroke="#000" stroke-width=".6" stroke-miterlimit="10" d="M80.6 241H300v24.4H80.5z"/>
  <text transform="translate(89.05 257.942)" font-family="'MyriadPro-Light'" font-size="11.2">
    message resonse = http:ClientConnector.g...
  </text>
  <text transform="translate(157.733 302.01)" font-family="'MyriadPro-Light'" font-size="11.2">
    reply response
  </text>
  <path fill="none" stroke="#000" stroke-width=".4" stroke-miterlimit="10" d="M24 399h361.2v276h-361z"/>
  <path fill="#FFF" stroke="#000" stroke-width=".4" stroke-miterlimit="10" d="M24 399.2h361.2V416h-361z"/>
  <path fill="#939598" d="M345 409.5v-2.3h.7v3h-6v-6h3v.4h-2.5v5h5zm-.2-4.4l-.8-.6.4-.3 1.3 1.3-1 1.3-.5-.4.6-.6c-1.5 0-2.6.7-3.2 1.7l-.4.7V409h-.6v-.3-.5c.2-.2.2-.5.3-.7l.4-.7.7-.8 1.3-.6 1.5-.3zM356.3 409.5v-2.3h.6v3h-6v-6h3v.4h-2.6v5h5zm.6-5.4v.5h-.3l-.6.2-.7.4c-1 .7-1.6 1.8-1.7 3.2l.6-.5.4.3-1.3 1.2-1.2-1.4.4-.3.7.8.4-1.6.6-1c.2-.4.5-.6.8-.8l.7-.6.7-.2h.7zM363.8 404h2.3v.8h1.6v.8h-5.3v-.8h1.5v-.7zm-1 2.2h4.5v4h-4.6v-4zm1 .5v2.8h.6v-2.8h-.7zm1.7 0v2.8h.7v-2.8h-.7zM376.4 408.7l-3-3 .5-.4 2.4 2.5 2.6-2.4.4.4-3 3z"/>
  <path fill="none" stroke="#000" stroke-width=".2" stroke-miterlimit="10" d="M348.2 403.8v6.6M359.5 403.5v6.5M370.5 404v6.5"/>
  <path d="M24 399.2h14.5V416H24z"/>
  <path fill="#FFF" d="M35.4 407.6s-.3 0-.4-.2c0-.2 0-.4-.2-.5v-.2c.2 0 .3-.2.4-.3v-.4H35h-.4c-.2 0-.3-.2-.4-.4 0-.2 0-.3.2-.4 0-.2-.2-.3-.3-.4 0 0-.2 0-.3.2-.3 0-.4-.2-.6-.3v-.5c0-.2 0-.2-.2-.2s-.3.2-.4.3h-.6c0-.2 0-.4-.2-.5h-.3c-.2 0-.2.3-.3.4-.2 0-.4 0-.5.2l-.4-.4h-.3V404.7l-.5.4c-.2 0-.3 0-.4-.2-.2 0-.3.2-.4.3v.2s0 .2.2.3c0 .3-.2.4-.3.6h-.4c-.2 0-.2 0-.3.2v.3s0 .2.2.3v.6h-.2s-.2 0-.3.2v.4h.3v.3s0 .3.2.4l-.4.4c0 .3 0 .4.2.5h.4l.4.5c0 .2 0 .3-.2.4 0 .2.2.3.3.4.2 0 .3 0 .4-.2h.2c.2 0 .3.2.5.3v.4c.2 0 .3 0 .4.2.2 0 .3-.2.4-.3h.6c0 .2 0 .3.2.5h.3l.2-.4c.3 0 .5 0 .6-.2l.4.4h.4v-.2-.4l.6-.4c.2 0 .3 0 .4.2.2 0 .3-.2.4-.3 0-.2 0-.3-.2-.4 0-.2.2-.3.3-.5h.5l.2-.3c0-.2-.2-.3-.3-.4h-.2v-.5h.2c0-.2.3-.2.4-.3v-.4zm-4 1.2c-.6 0-1-.4-1-1s.4-1 1-1c.5 0 1 .4 1 1s-.4 1-1 1z"/>
  <path fill="#FFF" stroke="#000" stroke-width=".6" stroke-miterlimit="10" d="M140.4 452.7h100V477h-100z"/>
  <text transform="translate(152.12 468.66)" font-family="'MyriadPro-Regular'" font-size="11.4">
    ResourceWorker
  </text>
  <text transform="translate(43.878 411.8)" font-family="'MyriadPro-Regular'" font-size="11.4">
    productMgt
  </text>
  <path fill="none" stroke="#000" stroke-width=".4" stroke-miterlimit="10" d="M191.2 477v148"/>
  <path fill="#FFF" stroke="#000" stroke-width=".4" stroke-miterlimit="10" d="M140.5 581h101v24.3h-101zM140.4 494.7h101V519h-101z"/>
  <path fill="#FFF" stroke="#000" stroke-width=".6" stroke-miterlimit="10" d="M140.4 625h100v24.4h-100z"/>
  <text transform="translate(152.467 640.978)" font-family="'MyriadPro-Regular'" font-size="11.4">
    ResourceWorker
  </text>
  <path d="M55.5 478.3c-.4.2-1 .4-2 .4-2.2 0-3.8-1.4-3.8-4 0-2.3 1.6-4 4-4 1 0 1.5.3 1.8.4l-.3 1c-.3-.2-1-.4-1.5-.4-1.8 0-3 1.2-3 3.2s1 3 3 3c.6 0 1.2 0 1.6-.2l.2.7zM56.7 470.5h1v8h-1v-8zM60.5 471.5c0 .4-.3.6-.7.6-.3 0-.6 0-.6-.5 0-.3.3-.6.7-.6.2 0 .5.2.5.5zm-1 7v-5.4h1v5.6h-1zM62.6 476c0 1.4 1 2 2 2 .6 0 1-.2 1.4-.4l.2.8c-.4 0-1 .3-2 .3-1.6 0-2.6-1-2.6-2.8s1-3 2.6-3c1.8 0 2.3 1.5 2.3 2.5v.5h-4zm3-.7c0-.6-.4-1.6-1.5-1.6-1 0-1.3 1-1.4 1.6h3zM67.7 474.6V473h.8v1c.4-.5 1-1 2-1 .7 0 2 .4 2 2.3v3.3h-1v-3.2c0-1-.4-1.6-1.4-1.6-.5 0-1 .5-1.2 1v3.8h-1v-4zM75.2 471.5v1.6h1.4v.8h-1.4v3c0 .7.2 1 .7 1h.5v.8h-.8c-.5 0-1 0-1-.3-.4-.3-.5-.8-.5-1.5v-3h-1v-.7h1V472l1-.3z"/>
  <path fill="none" stroke="#000" stroke-width=".599994" stroke-miterlimit="10" d="M93.6 475l-29.2 29.2-29-29.2 29-29z" stroke-dasharray="1.6 1.6"/>
  <path d="M55.4 635.4c-.4.2-1 .4-2 .4-2.2 0-3.8-1.4-3.8-4 0-2.3 1.6-4 4-4 1 0 1.5.3 1.8.4l-.3 1c-.2-.3-.8-.5-1.4-.5-1.8 0-3 1.2-3 3.2 0 1.8 1 3 3 3 .5 0 1.2 0 1.6-.3l.2.7zM56.6 627.6h1v8h-1v-8zM60.4 628.6c0 .4-.3.7-.7.7-.3 0-.6-.3-.6-.7 0-.3.4-.6.7-.6.4 0 .7.3.7.6zm-1.2 7v-5.4h1v5.5h-1zM62.5 633c0 1.5.8 2 1.8 2 .8 0 1.2 0 1.6-.3v.8c-.3 0-1 .3-1.8.3-1.7 0-2.7-1-2.7-2.8 0-1.6 1-3 2.6-3 2 0 2.4 1.6 2.4 2.7v.4h-4zm3-.6c0-.6-.4-1.6-1.5-1.6-1 0-1.4 1-1.5 1.6h3zM67.6 631.7v-1.5h.8v1c.4-.6 1-1 2-1 .7 0 2 .3 2 2.2v3.3h-1v-3.2c0-1-.5-1.6-1.4-1.6-.7 0-1.2.4-1.3 1V635.6h-1v-4zM75 628.6v1.6h1.5v.7H75v3c0 .6.3 1 .8 1h.6v.7h-.8c-.5 0-1 0-1-.3-.4-.3-.5-.8-.5-1.5v-3h-.8v-.8h1V629l1-.4z"/>
  <path fill="none" stroke="#000" stroke-width=".599994" stroke-miterlimit="10" d="M93.5 632.2l-29.2 29-29-29 29-29.2z" stroke-dasharray="1.6 1.6"/>
  <path fill="none" stroke="#000" stroke-miterlimit="10" d="M64.4 504.2v99"/>
  <path fill="none" stroke="#000" stroke-width=".9" stroke-miterlimit="10" d="M133.8 508.5H64.4"/>
  <path d="M132.4 504l8 4.5-8 4.6"/>
  <path fill="none" stroke="#000" stroke-width=".6" stroke-miterlimit="10" d="M71 593h69.4" stroke-dasharray="1.6 1.6"/>
  <path d="M72.4 597.7l-8-4.6 8-4.5"/>
  <text transform="translate(180.15 511.786)" font-family="'MyriadPro-Light'" font-size="11.2">
    Start
  </text>
  <path fill="#FFF" stroke="#000" stroke-width=".6" stroke-miterlimit="10" d="M80.6 536.6H300V561H80.5z"/>
  <text transform="translate(89.05 553.492)" font-family="'MyriadPro-Light'" font-size="11.2">
    message resonse = http:ClientConnector.p...
  </text>
  <text transform="translate(157.733 597.56)" font-family="'MyriadPro-Light'" font-size="11.2">
    reply response
  </text>
  <path fill="none" stroke="#000" stroke-width=".4" stroke-miterlimit="10" d="M24 689.6h361.2v275.8h-361z"/>
  <path fill="#FFF" stroke="#000" stroke-width=".4" stroke-miterlimit="10" d="M24 689.7h361.2v16.8h-361z"/>
  <path fill="#939598" d="M345 700v-2.3h.7v3h-6v-6h3v.5h-2.5v4.8h5zm-.2-4.4l-.8-.7.4-.4 1.3 1.2-1 1.3-.5-.2.6-.7c-1.5.3-2.6.8-3.2 1.8l-.4.8v.8h-.6v-.2-.4l.3-.7.4-.7.7-.7c.4-.3.8-.5 1.3-.6l1.5-.4zM356.3 700v-2.3h.6v3h-6v-6h3v.5h-2.6v4.8h5zm.6-5.4v.5h-.3l-.6.2-.7.4c-1 .6-1.6 1.7-1.7 3.2l.6-.6.4.4-1.3 1-1.2-1.2.4-.4.7.8.4-1.5c.2-.5.4-1 .6-1l.8-1 .7-.4.7-.3h.7zM363.8 694.6h2.3v.7h1.6v.8h-5.3v-.7h1.5v-.7zm-1 2h4.5v4h-4.6v-4zm1 .6v3h.6v-3h-.7zm1.7 0v3h.7v-3h-.7zM376.4 699.2l-3-3 .5-.3 2.4 2.3 2.6-2.4.4.4-3 2.8z"/>
  <path fill="none" stroke="#000" stroke-width=".2" stroke-miterlimit="10" d="M348.2 694.4v6.5M359.5 694v6.6M370.5 694.5v6.5"/>
  <path d="M24 689.7h14.5v16.7H24z"/>
  <path fill="#FFF" d="M35.4 698H35c0-.3 0-.4-.2-.6l.4-.3v-.3H35h-.4l-.4-.6s0-.2.2-.3c0-.2-.2-.2-.3-.3h-.3c0 .2 0 .2 0 0-.3 0-.4 0-.6-.2v-.5s0-.2-.2-.2-.3.2-.4.4l-.6-.2c0-.2 0-.3-.2-.5h-.3l-.3.4-.5.2-.4-.4h-.3v.7c-.2 0-.3.2-.5.3h-.4c0-.2 0-.2 0 0h-.4v.2s0 .2.2.3c0 .3-.2.5-.3.6h-.7v.4c0 .2 0 .2.2.3v.6h-.2-.3v.5s.2 0 .3.2c0 .3 0 .4.2.6-.2 0-.3.2-.4.3 0 .2 0 .3.2.4h.4l.4.5c0 .2 0 .4-.2.5 0 .2.2.2.3.3.2 0 .3 0 .4-.2 0 0 .2 0 .2.2.2 0 .3.2.5.3v.4h.4c.2 0 .3 0 .4-.2h.6c0 .3 0 .4.2.5h.3c.2 0 .2-.2.2-.3l.6-.2c.2 0 .3.2.4.3 0 0 0 .2 0 0h.4v-.5c.3 0 .4-.2.6-.3h.8v-.2l-.2-.4c0-.2.2-.4.3-.5h.5l.2-.3c0-.2-.2-.3-.3-.3h-.2v-.6h.2l.4-.2v-.4zm-4 1.4c-.6 0-1-.5-1-1 0-.6.4-1 1-1 .5 0 1 .4 1 1 0 .5-.4 1-1 1z"/>
  <path fill="#FFF" stroke="#000" stroke-width=".6" stroke-miterlimit="10" d="M140.4 743.2h100v24.4h-100z"/>
  <text transform="translate(152.12 759.198)" font-family="'MyriadPro-Regular'" font-size="11.4">
    ResourceWorker
  </text>
  <text transform="translate(43.878 702.338)" font-family="'MyriadPro-Regular'" font-size="11.4">
    ordersInfo
  </text>
  <path fill="none" stroke="#000" stroke-width=".4" stroke-miterlimit="10" d="M191.2 767.6v148M340.8 767.6v148"/>
  <path fill="#FFF" stroke="#000" stroke-width=".4" stroke-miterlimit="10" d="M140.5 871.5h101V896h-101zM140.4 785.3h101v24.4h-101z"/>
  <path fill="#FFF" stroke="#000" stroke-width=".6" stroke-miterlimit="10" d="M140.4 915.5h100V940h-100z"/>
  <text transform="translate(152.467 931.515)" font-family="'MyriadPro-Regular'" font-size="11.4">
    ResourceWorker
  </text>
  <path fill="#FFF" stroke="#000" stroke-width=".6" stroke-miterlimit="10" d="M304.4 743.2h73v24.4h-73z"/>
  <text transform="translate(314.66 759.198)" font-family="'MyriadPro-Light'" font-size="11.2">
    productSer...
  </text>
  <path fill="#FFF" stroke="#000" stroke-width=".6" stroke-miterlimit="10" d="M304.4 915.5h73V940h-73z"/>
  <text transform="translate(314.66 931.515)" font-family="'MyriadPro-Light'" font-size="11.2">
    productSer...
  </text>
  <path d="M55.5 769l-2 .2c-2.2 0-3.8-1.3-3.8-3.8 0-2.4 1.6-4 4-4 1 0 1.5 0 1.8.3l-.3.8c-.3-.2-1-.3-1.5-.3-1.8 0-3 1-3 3s1 3.2 3 3.2c.6 0 1.2 0 1.6-.3l.2 1zM56.7 761h1v8h-1v-8zM60.5 762c0 .4-.3.7-.7.7-.3 0-.6-.3-.6-.6s.3-.6.7-.6c.2 0 .5.3.5.7zm-1 7v-5.4h1v5.5h-1zM62.6 766.5c0 1.4 1 2 2 2 .6 0 1-.2 1.4-.3l.2.7-2 .2c-1.6 0-2.6-1-2.6-2.7 0-1.7 1-3 2.6-3 1.8 0 2.3 1.6 2.3 2.6v.6h-4zm3-.7c0-.6-.4-1.6-1.5-1.6-1 0-1.3 1-1.4 1.6h3zM67.7 765v-1.4h.8v1c.4-.6 1-1 2-1 .7 0 2 .3 2 2.2v3.3h-1v-3c0-1-.4-1.7-1.4-1.7-.5 0-1 .5-1.2 1v3.8h-1v-4zM75.2 762v1.6h1.4v.8h-1.4v3c0 .6.2 1 .7 1h.5v.7c0 .2-.4.2-.8.2-.5 0-1 0-1-.4-.4-.3-.5-.8-.5-1.4v-3h-1v-.8h1v-1.3l1-.3z"/>
  <path fill="none" stroke="#000" stroke-width=".599994" stroke-miterlimit="10" d="M93.6 765.6l-29 29.2-29.3-29.2 29.2-29z" stroke-dasharray="1.6 1.6"/>
  <path d="M55.4 926c-.4.2-1 .3-2 .3-2.2 0-3.8-1.3-3.8-3.8 0-2.4 1.6-4 4-4 1 0 1.5 0 1.8.3l-.3.8c-.2-.2-.8-.3-1.4-.3-1.8 0-3 1-3 3s1 3.2 3 3.2c.5 0 1.2 0 1.6-.3l.2.8zM56.6 918.2h1v8h-1v-8zM60.4 919.2c0 .3-.3.6-.7.6-.3 0-.6-.3-.6-.6 0-.4.4-.6.7-.6.4 0 .7.2.7.6zm-1.2 7v-5.5h1v5.5h-1zM62.5 923.7c0 1.3.8 2 1.8 2 .8 0 1.2-.3 1.6-.4v.7c-.3.2-1 .3-1.8.3-1.7 0-2.7-1-2.7-2.7s1-3 2.6-3c2 0 2.4 1.6 2.4 2.6v.5h-4zm3-.8c0-.7-.4-1.7-1.5-1.7-1 0-1.4 1-1.5 1.6h3zM67.6 922.2v-1.5h.8v1c.4-.6 1-1 2-1 .7 0 2 .4 2 2.2v3.2h-1v-3c0-1-.5-1.8-1.4-1.8-.7 0-1.2.5-1.3 1v3.7h-1v-4zM75 919v1.7h1.5v.8H75v3c0 .6.3 1 .8 1h.6v.7h-.8c-.5 0-1 0-1-.3-.4-.4-.5-1-.5-1.5v-3h-.8v-.8h1v-1.3l1-.3z"/>
  <path fill="none" stroke="#000" stroke-width=".599994" stroke-miterlimit="10" d="M93.5 922.8l-29.2 29-29-29 29-29.2z" stroke-dasharray="1.6 1.6"/>
  <path fill="none" stroke="#000" stroke-miterlimit="10" d="M64.4 794.8v98.8"/>
  <path fill="none" stroke="#000" stroke-width=".9" stroke-miterlimit="10" d="M133.8 799H64.4"/>
  <path d="M132.4 794.4l8 4.6-8 4.6"/>
  <path fill="none" stroke="#000" stroke-width=".6" stroke-miterlimit="10" d="M71 883.7h69.4" stroke-dasharray="1.6 1.6"/>
  <path d="M72.4 888.3l-8-4.6 8-4.6"/>
  <text transform="translate(180.15 802.323)" font-family="'MyriadPro-Light'" font-size="11.2">
    Start
  </text>
  <path fill="#FFF" stroke="#000" stroke-width=".6" stroke-miterlimit="10" d="M80.6 827H300v24.5H80.5z"/>
  <text transform="translate(89.05 844.03)" font-family="'MyriadPro-Light'" font-size="11.2">
    message resonse = http:ClientConnector.g...
  </text>
  <text transform="translate(157.733 888.096)" font-family="'MyriadPro-Light'" font-size="11.2">
    reply response
  </text>
  <path fill="none" stroke="#000" stroke-width=".6" stroke-miterlimit="10" d="M306.5 1136h34.8" stroke-dasharray="1.6 1.6"/>
  <path d="M308 1140.6l-8-4.6 8-4.6"/>
  <path fill="none" stroke="#000" stroke-width=".9" stroke-miterlimit="10" d="M336.5 1124.6H243"/>
  <path d="M334.3 1120l8 4.6-8 4.6"/>
  <path fill="none" stroke="#000" stroke-width=".4" stroke-miterlimit="10" d="M24 980.6h361.2v275.8h-361z"/>
  <path fill="#FFF" stroke="#000" stroke-width=".4" stroke-miterlimit="10" d="M24 980.7h361.2v16.8h-361z"/>
  <path fill="#939598" d="M345 991v-2.3h.7v3h-6v-6h3v.5h-2.5v4.8h5zm-.2-4.4l-.8-.7.4-.4 1.3 1.2-1 1.3-.5-.2.6-.7c-1.5.3-2.6.8-3.2 1.8l-.4.8v.8h-.6v-.2-.4l.3-.7.4-.7.7-.7c.4-.3.8-.5 1.3-.6l1.5-.4zM356.3 991v-2.3h.6v3h-6v-6h3v.5h-2.6v4.8h5zm.6-5.4v.5h-.3l-.6.2-.7.4c-1 .6-1.6 1.7-1.7 3.2l.6-.6.4.4-1.3 1-1.2-1.2.4-.4.7.8.4-1.5c.2-.5.4-1 .6-1l.8-1 .7-.4.7-.3h.7zM363.8 985.6h2.3v.7h1.6v.8h-5.3v-.7h1.5v-.7zm-1 2h4.5v4h-4.6v-4zm1 .6v3h.6v-3h-.7zm1.7 0v3h.7v-3h-.7zM376.4 990.2l-3-3 .5-.3 2.4 2.3 2.6-2.4.4.4-3 2.8z"/>
  <path fill="none" stroke="#000" stroke-width=".2" stroke-miterlimit="10" d="M348.2 985.4v6.5M359.5 985v6.6M370.5 985.5v6.5"/>
  <path d="M24 980.7h14.5v16.7H24z"/>
  <path fill="#FFF" d="M35.4 989H35c0-.3 0-.4-.2-.6l.4-.3v-.3H35h-.4l-.4-.6s0-.2.2-.3c0-.2-.2-.2-.3-.3h-.3c0 .2 0 .2 0 0-.3 0-.4 0-.6-.2v-.5s0-.2-.2-.2-.3.2-.4.4l-.6-.2c0-.2 0-.3-.2-.5h-.3l-.3.4-.5.2-.4-.4h-.3v.7c-.2 0-.3.2-.5.3h-.4c0-.2 0-.2 0 0h-.4v.2s0 .2.2.3c0 .3-.2.5-.3.6h-.7v.4c0 .2 0 .2.2.3v.6h-.2-.3v.5s.2 0 .3.2c0 .3 0 .4.2.6-.2 0-.3.2-.4.3 0 .2 0 .3.2.4h.4l.4.5c0 .2 0 .4-.2.5 0 .2.2.2.3.3.2 0 .3 0 .4-.2 0 0 .2 0 .2.2.2 0 .3.2.5.3v.4h.4c.2 0 .3 0 .4-.2h.6c0 .3 0 .4.2.5h.3c.2 0 .2-.2.2-.3l.6-.2c.2 0 .3.2.4.3 0 0 0 .2 0 0h.4v-.5c.3 0 .4-.2.6-.3h.8v-.2l-.2-.4c0-.2.2-.4.3-.5h.5l.2-.3c0-.2-.2-.3-.3-.3h-.2v-.6h.2l.4-.2v-.4zm-4 1.4c-.6 0-1-.5-1-1 0-.6.4-1 1-1 .5 0 1 .4 1 1 0 .5-.4 1-1 1z"/>
  <path fill="#FFF" stroke="#000" stroke-width=".6" stroke-miterlimit="10" d="M140.4 1034.2h100v24.4h-100z"/>
  <text transform="translate(152.12 1050.198)" font-family="'MyriadPro-Regular'" font-size="11.4">
    ResourceWorker
  </text>
  <text transform="translate(43.878 993.338)" font-family="'MyriadPro-Regular'" font-size="11.4">
    ordersMgt
  </text>
  <path fill="none" stroke="#000" stroke-width=".4" stroke-miterlimit="10" d="M191.2 1058.6v148M340.8 1058.6v148"/>
  <path fill="#FFF" stroke="#000" stroke-width=".4" stroke-miterlimit="10" d="M140.5 1162.5h101v24.4h-101zM140.4 1076.3h101v24.4h-101z"/>
  <path fill="#FFF" stroke="#000" stroke-width=".6" stroke-miterlimit="10" d="M140.4 1206.5h100v24.4h-100z"/>
  <text transform="translate(152.467 1222.515)" font-family="'MyriadPro-Regular'" font-size="11.4">
    ResourceWorker
  </text>
  <path fill="#FFF" stroke="#000" stroke-width=".6" stroke-miterlimit="10" d="M304.4 1034.2h73v24.4h-73z"/>
  <text transform="translate(314.66 1050.198)" font-family="'MyriadPro-Light'" font-size="11.2">
    productSer...
  </text>
  <path fill="#FFF" stroke="#000" stroke-width=".6" stroke-miterlimit="10" d="M304.4 1206.5h73v24.4h-73z"/>
  <g>
    <text transform="translate(314.66 1222.515)" font-family="'MyriadPro-Light'" font-size="11.2">
      productSer...
    </text>
  </g>
  <g>
    <path d="M55.5 1060l-2 .2c-2.2 0-3.8-1.3-3.8-3.8 0-2.4 1.6-4 4-4 1 0 1.5 0 1.8.3l-.3.8c-.3-.2-1-.3-1.5-.3-1.8 0-3 1-3 3s1 3.2 3 3.2c.6 0 1.2 0 1.6-.3l.2 1zM56.7 1052h1v8h-1v-8zM60.5 1053c0 .4-.3.7-.7.7-.3 0-.6-.3-.6-.6s.3-.6.7-.6c.2 0 .5.3.5.7zm-1 7v-5.4h1v5.5h-1zM62.6 1057.5c0 1.4 1 2 2 2 .6 0 1-.2 1.4-.3l.2.7-2 .2c-1.6 0-2.6-1-2.6-2.7 0-1.7 1-3 2.6-3 1.8 0 2.3 1.6 2.3 2.6v.6h-4zm3-.7c0-.6-.4-1.6-1.5-1.6-1 0-1.3 1-1.4 1.6h3zM67.7 1056v-1.4h.8v1c.4-.6 1-1 2-1 .7 0 2 .3 2 2.2v3.3h-1v-3c0-1-.4-1.7-1.4-1.7-.5 0-1 .5-1.2 1v3.8h-1v-4zM75.2 1053v1.6h1.4v.8h-1.4v3c0 .6.2 1 .7 1h.5v.7c0 .2-.4.2-.8.2-.5 0-1 0-1-.4-.4-.3-.5-.8-.5-1.4v-3h-1v-.8h1v-1.3l1-.3z"/>
  </g>
  <path fill="none" stroke="#000" stroke-width=".599994" stroke-miterlimit="10" d="M93.6 1056.6l-29 29.2-29.3-29.2 29.2-29z" stroke-dasharray="1.6 1.6"/>
  <g>
    <path d="M55.4 1217c-.4.2-1 .3-2 .3-2.2 0-3.8-1.3-3.8-3.8 0-2.4 1.6-4 4-4 1 0 1.5 0 1.8.3l-.3.8c-.2-.2-.8-.3-1.4-.3-1.8 0-3 1-3 3s1 3.2 3 3.2c.5 0 1.2 0 1.6-.3l.2.8zM56.6 1209.2h1v8h-1v-8zM60.4 1210.2c0 .3-.3.6-.7.6-.3 0-.6-.3-.6-.6 0-.4.4-.6.7-.6.4 0 .7.2.7.6zm-1.2 7v-5.5h1v5.5h-1zM62.5 1214.7c0 1.3.8 2 1.8 2 .8 0 1.2-.3 1.6-.4v.7c-.3.2-1 .3-1.8.3-1.7 0-2.7-1-2.7-2.7s1-3 2.6-3c2 0 2.4 1.6 2.4 2.6v.5h-4zm3-.8c0-.7-.4-1.7-1.5-1.7-1 0-1.4 1-1.5 1.6h3zM67.6 1213.2v-1.5h.8v1c.4-.6 1-1 2-1 .7 0 2 .4 2 2.2v3.2h-1v-3c0-1-.5-1.8-1.4-1.8-.7 0-1.2.5-1.3 1v3.7h-1v-4zM75 1210v1.7h1.5v.8H75v3c0 .6.3 1 .8 1h.6v.7h-.8c-.5 0-1 0-1-.3-.4-.4-.5-1-.5-1.5v-3h-.8v-.8h1v-1.3l1-.3z"/>
  </g>
  <path fill="none" stroke="#000" stroke-width=".599994" stroke-miterlimit="10" d="M93.5 1213.8l-29.2 29-29-29 29-29.2z" stroke-dasharray="1.6 1.6"/>
  <path fill="none" stroke="#000" stroke-miterlimit="10" d="M64.4 1085.8v98.8"/>
  <g>
    <path fill="none" stroke="#000" stroke-width=".9" stroke-miterlimit="10" d="M133.8 1090H64.4"/>
    <path d="M132.4 1085.4l8 4.6-8 4.6"/>
  </g>
  <g>
    <path fill="none" stroke="#000" stroke-width=".6" stroke-miterlimit="10" d="M71 1174.7h69.4" stroke-dasharray="1.6 1.6"/>
    <path d="M72.4 1179.3l-8-4.6 8-4.6"/>
  </g>
  <text transform="translate(180.15 1093.323)" font-family="'MyriadPro-Light'" font-size="11.2">
    Start
  </text>
  <path fill="#FFF" stroke="#000" stroke-width=".6" stroke-miterlimit="10" d="M80.6 1118H300v24.5H80.5z"/>
  <text transform="translate(89.05 1135.03)" font-family="'MyriadPro-Light'" font-size="11.2">
    message resonse = http:ClientConnector.g...
  </text>
  <text transform="translate(157.733 1179.096)" font-family="'MyriadPro-Light'" font-size="11.2">
    reply response
  </text>
  <g>
    <path fill="none" stroke="#000" stroke-width=".6" stroke-miterlimit="10" d="M306.5 1427h34.8" stroke-dasharray="1.6 1.6"/>
    <path d="M308 1431.6l-8-4.6 8-4.6"/>
  </g>
  <g>
    <path fill="none" stroke="#000" stroke-width=".9" stroke-miterlimit="10" d="M336.5 1415.5H243"/>
    <path d="M334.3 1411l8 4.5-8 4.6"/>
  </g>
  <path fill="none" stroke="#000" stroke-width=".4" stroke-miterlimit="10" d="M24 1271.6h361.2v275.8h-361z"/>
  <g>
    <path fill="#FFF" stroke="#000" stroke-width=".4" stroke-miterlimit="10" d="M24 1271.7h361.2v16.8h-361z"/>
    <path fill="#939598" d="M345 1282v-2.3h.7v3h-6v-6h3v.4h-2.5v5h5zm-.2-4.4l-.8-.7.4-.4 1.3 1.2-1 1.3-.5-.3.6-.6c-1.5.2-2.6.8-3.2 1.8l-.4.7V1281.4h-.6v-.2-.5c.2-.2.2-.5.3-.7l.4-.7.7-.8 1.3-.6 1.5-.4zM356.3 1282v-2.3h.6v3h-6v-6h3v.4h-2.6v5h5zm.6-5.4v.4h-.3l-.6.2-.7.4c-1 .6-1.6 1.7-1.7 3l.6-.4.4.3-1.3 1.2-1.2-1.4.4-.3.7.8.4-1.6.6-1c.2-.4.5-.6.8-.8l.7-.5.7-.3h.7zM363.8 1276.6h2.3v.7h1.6v.8h-5.3v-.7h1.5v-.7zm-1 2h4.5v4h-4.6v-4zm1 .6v2.8h.6v-2.8h-.7zm1.7 0v2.8h.7v-2.8h-.7zM376.4 1281.2l-3-3 .5-.4 2.4 2.5 2.6-2.4.4.3-3 3z"/>
    <path fill="none" stroke="#000" stroke-width=".2" stroke-miterlimit="10" d="M348.2 1276.3v6.6M359.5 1276v6.5M370.5 1276.4v6.6"/>
    <path d="M24 1271.7h14.5v16.7H24z"/>
    <path fill="#FFF" d="M35.4 1280H35v-.2s0-.3-.2-.4l.4-.4v-.4H35h-.4l-.4-.5s0-.2.2-.3c0-.2-.2-.3-.3-.4 0 0-.2 0-.3.2-.3 0-.4-.2-.6-.3v-.5c0-.2 0-.2-.2-.2s-.3.2-.4.3h-.6c0-.2 0-.4-.2-.5h-.3c-.2 0-.2.3-.3.4-.2 0-.4 0-.5.2v-.2c-.2 0-.3-.2-.4-.3h-.3v.8c-.2 0-.3.2-.5.3-.2 0-.3 0-.4-.2-.2 0-.3.2-.4.3 0 .2 0 .3.2.4 0 .3-.2.4-.3.6h-.7v.4s0 .2.2.3v.6h-.2-.3v.5h.3v.3s0 .3.2.4l-.4.4c0 .2 0 .3.2.4h.4l.4.5c0 .2 0 .3-.2.4l.3.3c.2 0 .3 0 .4-.2h.2l.5.4v.5h.4c.2 0 .3 0 .4-.2h.6c0 .2 0 .3.2.5h.3l.2-.4v-.2h.6c.2 0 .3.2.4.3h.4v-.5l.6-.4.4.3c.2 0 .3-.2.4-.3 0-.2 0-.3-.2-.4 0-.2.2-.4.3-.5h.5l.2-.3c0-.2-.2-.3-.3-.4h-.2v-.5h.2c0-.2.3-.2.4-.3v-.3zm-4 1.3c-.6 0-1-.4-1-1s.4-1 1-1c.5 0 1 .4 1 1s-.4 1-1 1z"/>
  </g>
  <path fill="#FFF" stroke="#000" stroke-width=".6" stroke-miterlimit="10" d="M140.4 1325.2h100v24.4h-100z"/>
  <g>
    <text transform="translate(152.12 1341.164)" font-family="'MyriadPro-Regular'" font-size="11.4">
      ResourceWorker
    </text>
  </g>
  <g>
    <text transform="translate(43.878 1284.304)" font-family="'MyriadPro-Regular'" font-size="11.4">
      customersinfo
    </text>
  </g>
  <path fill="none" stroke="#000" stroke-width=".4" stroke-miterlimit="10" d="M191.2 1349.6v148M340.8 1349.6v148"/>
  <path fill="#FFF" stroke="#000" stroke-width=".4" stroke-miterlimit="10" d="M140.5 1453.4h101v24.4h-101zM140.4 1367.2h101v24.4h-101z"/>
  <path fill="#FFF" stroke="#000" stroke-width=".6" stroke-miterlimit="10" d="M140.4 1497.5h100v24.4h-100z"/>
  <g>
    <text transform="translate(152.467 1513.48)" font-family="'MyriadPro-Regular'" font-size="11.4">
      ResourceWorker
    </text>
  </g>
  <path fill="#FFF" stroke="#000" stroke-width=".6" stroke-miterlimit="10" d="M304.4 1325.2h73v24.4h-73z"/>
  <g>
    <text transform="translate(314.66 1341.164)" font-family="'MyriadPro-Light'" font-size="11.2">
      productSer...
    </text>
  </g>
  <path fill="#FFF" stroke="#000" stroke-width=".6" stroke-miterlimit="10" d="M304.4 1497.5h73v24.4h-73z"/>
  <g>
    <text transform="translate(314.66 1513.48)" font-family="'MyriadPro-Light'" font-size="11.2">
      productSer...
    </text>
  </g>
  <g>
    <path d="M55.5 1350.8c-.4.2-1 .4-2 .4-2.2 0-3.8-1.4-3.8-4 0-2.3 1.6-4 4-4 1 0 1.5.3 1.8.4l-.3.8-1.5-.3c-1.8 0-3 1.3-3 3.3 0 2 1 3 3 3 .6 0 1.2 0 1.6-.2l.2.8zM56.7 1343h1v8h-1v-8zM60.5 1344c0 .4-.3.7-.7.7-.3 0-.6-.3-.6-.7 0-.3.3-.6.7-.6.2 0 .5.3.5.6zm-1 7v-5.4h1v5.5h-1zM62.6 1348.5c0 1.4 1 2 2 2 .6 0 1-.2 1.4-.4l.2 1-2 .2c-1.6 0-2.6-1-2.6-2.8 0-1.6 1-3 2.6-3 1.8 0 2.3 1.6 2.3 2.7v.5h-4zm3-.7c0-.6-.4-1.6-1.5-1.6-1 0-1.3 1-1.4 1.6h3zM67.7 1347v-1.4h.8v1c.4-.6 1-1 2-1 .7 0 2 .3 2 2.2v3.3h-1v-3c0-1-.4-1.7-1.4-1.7-.5 0-1 .5-1.2 1v3.8h-1v-4zM75.2 1344v1.6h1.4v.7h-1.4v3c0 .7.2 1 .7 1h.5v.8l-.8.2c-.5 0-1 0-1-.4-.4-.3-.5-.8-.5-1.5v-3h-1v-.7h1v-1.3l1-.3z"/>
  </g>
  <path fill="none" stroke="#000" stroke-width=".599994" stroke-miterlimit="10" d="M93.6 1347.6l-29.2 29-29-29 29-29.2z" stroke-dasharray="1.6 1.6"/>
  <g>
    <path d="M55.4 1508c-.4 0-1 .3-2 .3-2.2 0-3.8-1.4-3.8-4 0-2.3 1.6-4 4-4 1 0 1.5.3 1.8.4l-.3 1c-.2-.3-.8-.5-1.4-.5-1.8 0-3 1.2-3 3.2s1 3 3 3c.5 0 1.2 0 1.6-.2l.2.7zM56.6 1500h1v8.2h-1v-8zM60.4 1501c0 .5-.3.8-.7.8-.3 0-.6-.3-.6-.7 0-.2.4-.5.7-.5.4 0 .7.3.7.6zm-1.2 7.2v-5.5h1v5.5h-1zM62.5 1505.6c0 1.4.8 2 1.8 2 .8 0 1.2-.2 1.6-.4v.8c-.3 0-1 .3-1.8.3-1.7 0-2.7-1-2.7-2.8s1-3 2.6-3c2 0 2.4 1.6 2.4 2.7v.4h-4zm3-.7c0-.7-.4-1.7-1.5-1.7-1 0-1.4 1-1.5 1.6h3zM67.6 1504.2v-1.5h.8v1c.4-.6 1-1 2-1 .7 0 2 .3 2 2.2v3.2h-1v-3.2c0-1-.5-1.6-1.4-1.6-.7 0-1.2.5-1.3 1v3.7h-1v-4zM75 1501v1.7h1.5v.7H75v3c0 .7.3 1 .8 1h.6v.8h-.8c-.5 0-1 0-1-.3-.4-.4-.5-1-.5-1.5v-3h-.8v-.8h1v-1.3l1-.3z"/>
  </g>
  <path fill="none" stroke="#000" stroke-width=".599994" stroke-miterlimit="10" d="M93.5 1504.7l-29.2 29-29-29 29-29z" stroke-dasharray="1.6 1.6"/>
  <path fill="none" stroke="#000" stroke-miterlimit="10" d="M64.4 1376.7v99"/>
  <g>
    <path fill="none" stroke="#000" stroke-width=".9" stroke-miterlimit="10" d="M133.8 1381H64.4"/>
    <path d="M132.4 1376.4l8 4.6-8 4.6"/>
  </g>
  <g>
    <path fill="none" stroke="#000" stroke-width=".6" stroke-miterlimit="10" d="M71 1465.6h69.4" stroke-dasharray="1.6 1.6"/>
    <path d="M72.4 1470.2l-8-4.6 8-4.6"/>
  </g>
  <text transform="translate(180.15 1384.29)" font-family="'MyriadPro-Light'" font-size="11.2">
    Start
  </text>
  <path fill="#FFF" stroke="#000" stroke-width=".6" stroke-miterlimit="10" d="M80.6 1409H300v24.5H80.5z"/>
  <text transform="translate(89.05 1425.995)" font-family="'MyriadPro-Light'" font-size="11.2">
    message resonse = http:ClientConnector.g...
  </text>
  <text transform="translate(157.733 1470.062)" font-family="'MyriadPro-Light'" font-size="11.2">
    reply response
  </text>
  <g>
    <path fill="none" stroke="#000" stroke-width=".6" stroke-miterlimit="10" d="M306.5 1721h34.8" stroke-dasharray="1.6 1.6"/>
    <path d="M308 1725.6l-8-4.6 8-4.6"/>
  </g>
  <g>
    <path fill="none" stroke="#000" stroke-width=".9" stroke-miterlimit="10" d="M336.5 1709.5H243"/>
    <path d="M334.3 1705l8 4.5-8 4.6"/>
  </g>
  <path fill="none" stroke="#000" stroke-width=".4" stroke-miterlimit="10" d="M24 1565.6h361.2v275.8h-361z"/>
  <g>
    <path fill="#FFF" stroke="#000" stroke-width=".4" stroke-miterlimit="10" d="M24 1565.7h361.2v16.8h-361z"/>
    <path fill="#939598" d="M345 1576v-2.3h.7v3h-6v-6h3v.4h-2.5v5h5zm-.2-4.4l-.8-.7.4-.4 1.3 1.2-1 1.3-.5-.3.6-.6c-1.5.2-2.6.8-3.2 1.8l-.4.7V1575.4h-.6v-.2-.5c.2-.2.2-.5.3-.7l.4-.7.7-.8 1.3-.6 1.5-.4zM356.3 1576v-2.3h.6v3h-6v-6h3v.4h-2.6v5h5zm.6-5.4v.4h-.3l-.6.2-.7.4c-1 .6-1.6 1.7-1.7 3l.6-.4.4.3-1.3 1.2-1.2-1.4.4-.3.7.8.4-1.6.6-1c.2-.4.5-.6.8-.8l.7-.5.7-.3h.7zM363.8 1570.6h2.3v.7h1.6v.8h-5.3v-.7h1.5v-.7zm-1 2h4.5v4h-4.6v-4zm1 .6v2.8h.6v-2.8h-.7zm1.7 0v2.8h.7v-2.8h-.7zM376.4 1575.2l-3-3 .5-.4 2.4 2.5 2.6-2.4.4.3-3 3z"/>
    <path fill="none" stroke="#000" stroke-width=".2" stroke-miterlimit="10" d="M348.2 1570.3v6.6M359.5 1570v6.5M370.5 1570.4v6.6"/>
    <path d="M24 1565.7h14.5v16.7H24z"/>
    <path fill="#FFF" d="M35.4 1574H35v-.2s0-.3-.2-.4l.4-.4v-.4H35h-.4l-.4-.5s0-.2.2-.3c0-.2-.2-.3-.3-.4 0 0-.2 0-.3.2-.3 0-.4-.2-.6-.3v-.5c0-.2 0-.2-.2-.2s-.3.2-.4.3h-.6c0-.2 0-.4-.2-.5h-.3c-.2 0-.2.3-.3.4-.2 0-.4 0-.5.2v-.2c-.2 0-.3-.2-.4-.3h-.3v.8c-.2 0-.3.2-.5.3-.2 0-.3 0-.4-.2-.2 0-.3.2-.4.3 0 .2 0 .3.2.4 0 .3-.2.4-.3.6h-.7v.4s0 .2.2.3v.6h-.2-.3v.5h.3v.3s0 .3.2.4l-.4.4c0 .2 0 .3.2.4h.4l.4.5c0 .2 0 .3-.2.4l.3.3c.2 0 .3 0 .4-.2h.2l.5.4v.5h.4c.2 0 .3 0 .4-.2h.6c0 .2 0 .3.2.5h.3l.2-.4v-.2h.6c.2 0 .3.2.4.3h.4v-.5l.6-.4.4.3c.2 0 .3-.2.4-.3 0-.2 0-.3-.2-.4 0-.2.2-.4.3-.5h.5l.2-.3c0-.2-.2-.3-.3-.4h-.2v-.5h.2c0-.2.3-.2.4-.3v-.3zm-4 1.3c-.6 0-1-.4-1-1s.4-1 1-1c.5 0 1 .4 1 1s-.4 1-1 1z"/>
  </g>
  <path fill="#FFF" stroke="#000" stroke-width=".6" stroke-miterlimit="10" d="M140.4 1619.2h100v24.4h-100z"/>
  <g>
    <text transform="translate(152.12 1635.164)" font-family="'MyriadPro-Regular'" font-size="11.4">
      ResourceWorker
    </text>
  </g>
  <g>
    <text transform="translate(43.878 1578.304)" font-family="'MyriadPro-Regular'" font-size="11.4">
      customerMgt
    </text>
  </g>
  <path fill="none" stroke="#000" stroke-width=".4" stroke-miterlimit="10" d="M191.2 1643.6v148M340.8 1643.6v148"/>
  <path fill="#FFF" stroke="#000" stroke-width=".4" stroke-miterlimit="10" d="M140.5 1747.4h101v24.4h-101zM140.4 1661.2h101v24.4h-101z"/>
  <path fill="#FFF" stroke="#000" stroke-width=".6" stroke-miterlimit="10" d="M140.4 1791.5h100v24.4h-100z"/>
  <g>
    <text transform="translate(152.467 1807.48)" font-family="'MyriadPro-Regular'" font-size="11.4">
      ResourceWorker
    </text>
  </g>
  <path fill="#FFF" stroke="#000" stroke-width=".6" stroke-miterlimit="10" d="M304.4 1619.2h73v24.4h-73z"/>
  <g>
    <text transform="translate(314.66 1635.164)" font-family="'MyriadPro-Light'" font-size="11.2">
      productSer...
    </text>
  </g>
  <path fill="#FFF" stroke="#000" stroke-width=".6" stroke-miterlimit="10" d="M304.4 1791.5h73v24.4h-73z"/>
  <g>
    <text transform="translate(314.66 1807.48)" font-family="'MyriadPro-Light'" font-size="11.2">
      productSer...
    </text>
  </g>
  <g>
    <path d="M55.5 1644.8c-.4.2-1 .4-2 .4-2.2 0-3.8-1.4-3.8-4 0-2.3 1.6-4 4-4 1 0 1.5.3 1.8.4l-.3.8-1.5-.3c-1.8 0-3 1.3-3 3.3 0 2 1 3 3 3 .6 0 1.2 0 1.6-.2l.2.8zM56.7 1637h1v8h-1v-8zM60.5 1638c0 .4-.3.7-.7.7-.3 0-.6-.3-.6-.7 0-.3.3-.6.7-.6.2 0 .5.3.5.6zm-1 7v-5.4h1v5.5h-1zM62.6 1642.5c0 1.4 1 2 2 2 .6 0 1-.2 1.4-.4l.2 1-2 .2c-1.6 0-2.6-1-2.6-2.8 0-1.6 1-3 2.6-3 1.8 0 2.3 1.6 2.3 2.7v.5h-4zm3-.7c0-.6-.4-1.6-1.5-1.6-1 0-1.3 1-1.4 1.6h3zM67.7 1641v-1.4h.8v1c.4-.6 1-1 2-1 .7 0 2 .3 2 2.2v3.3h-1v-3c0-1-.4-1.7-1.4-1.7-.5 0-1 .5-1.2 1v3.8h-1v-4zM75.2 1638v1.6h1.4v.7h-1.4v3c0 .7.2 1 .7 1h.5v.8l-.8.2c-.5 0-1 0-1-.4-.4-.3-.5-.8-.5-1.5v-3h-1v-.7h1v-1.3l1-.3z"/>
  </g>
  <path fill="none" stroke="#000" stroke-width=".599994" stroke-miterlimit="10" d="M93.6 1641.6l-29 29-29.3-29 29.2-29.2z" stroke-dasharray="1.6 1.6"/>
  <g>
    <path d="M55.4 1802c-.4 0-1 .3-2 .3-2.2 0-3.8-1.4-3.8-4 0-2.3 1.6-4 4-4 1 0 1.5.3 1.8.4l-.3 1c-.2-.3-.8-.5-1.4-.5-1.8 0-3 1.2-3 3.2s1 3 3 3c.5 0 1.2 0 1.6-.2l.2.7zM56.6 1794h1v8.2h-1v-8zM60.4 1795c0 .5-.3.8-.7.8-.3 0-.6-.3-.6-.7 0-.2.4-.5.7-.5.4 0 .7.3.7.6zm-1.2 7.2v-5.5h1v5.5h-1zM62.5 1799.6c0 1.4.8 2 1.8 2 .8 0 1.2-.2 1.6-.4v.8c-.3 0-1 .3-1.8.3-1.7 0-2.7-1-2.7-2.8s1-3 2.6-3c2 0 2.4 1.6 2.4 2.7v.4h-4zm3-.7c0-.7-.4-1.7-1.5-1.7-1 0-1.4 1-1.5 1.6h3zM67.6 1798.2v-1.5h.8v1c.4-.6 1-1 2-1 .7 0 2 .3 2 2.2v3.2h-1v-3.2c0-1-.5-1.6-1.4-1.6-.7 0-1.2.5-1.3 1v3.7h-1v-4zM75 1795v1.7h1.5v.7H75v3c0 .7.3 1 .8 1h.6v.8h-.8c-.5 0-1 0-1-.3-.4-.4-.5-1-.5-1.5v-3h-.8v-.8h1v-1.3l1-.3z"/>
  </g>
  <path fill="none" stroke="#000" stroke-width=".599994" stroke-miterlimit="10" d="M93.5 1798.7l-29.2 29-29-29 29-29z" stroke-dasharray="1.6 1.6"/>
  <path fill="none" stroke="#000" stroke-miterlimit="10" d="M64.4 1670.7v99"/>
  <g>
    <path fill="none" stroke="#000" stroke-width=".9" stroke-miterlimit="10" d="M133.8 1675H64.4"/>
    <path d="M132.4 1670.4l8 4.6-8 4.6"/>
  </g>
  <g>
    <path fill="none" stroke="#000" stroke-width=".6" stroke-miterlimit="10" d="M71 1759.6h69.4" stroke-dasharray="1.6 1.6"/>
    <path d="M72.4 1764.2l-8-4.6 8-4.6"/>
  </g>
  <text transform="translate(180.15 1678.29)" font-family="'MyriadPro-Light'" font-size="11.2">
    Start
  </text>
  <path fill="#FFF" stroke="#000" stroke-width=".6" stroke-miterlimit="10" d="M80.6 1703H300v24.5H80.5z"/>
  <text transform="translate(89.05 1719.995)" font-family="'MyriadPro-Light'" font-size="11.2">
    message resonse = http:ClientConnector.g...
  </text>
  <text transform="translate(157.733 1764.062)" font-family="'MyriadPro-Light'" font-size="11.2">
    reply response
  </text>
  <g>
    <text transform="translate(401.563 131.636)" font-family="'MyriadPro-Regular'" font-size="11.4">
      productsSer...
    </text>
  </g>
  <g>
    <path fill="#FFF" stroke="#000" stroke-width=".4" stroke-miterlimit="10" d="M16 1929.6h468v16.8H16z"/>
    <path fill="#939598" d="M444 1940v-2.5h.6v3h-6v-6h3v.5H439v5h5zm-.4-4.5l-.7-.7.2-.4 1.4 1.3-1.2 1.2-.3-.4.6-.6c-1.5 0-2.5.7-3 1.7-.3.2-.4.5-.5.7v1h-.6v-.2l.2-.4c0-.2 0-.5.2-.7 0-.3.3-.6.5-1 .2 0 .4-.4.7-.6l1-.6c.6-.2 1-.3 1.6-.3zM455.2 1940v-2.5h.6v3h-6v-6h3v.5H450v5h5zm.6-5.6v.5h-.3-.6l-1 .4c-.8.7-1.4 1.7-1.5 3.2l.6-.5.4.4-1.2 1.2-1.3-1.4.3-.3.7.6c0-.5 0-1 .3-1.5l.6-1c0-.3.3-.5.6-.7l.8-.5.7-.3h.8zM462.7 1934.4h2.3v.8h1.5v.7h-5.3v-.8h1.5v-.8zm-1 2h4.4v4h-4.4v-4zm1 .6v3h.6v-3h-.7zm1.7 0v3h.7v-3h-.6zM475.3 1939l-3-2.8.4-.5 2.6 2.5 2.6-2.5.3.5-3 3z"/>
    <path fill="none" stroke="#000" stroke-width=".2" stroke-miterlimit="10" d="M435.6 1934.3v6.5M447 1934.6v6.6M458.4 1934.3v6.5M469.3 1934.3v6.5"/>
    <path d="M16 1929.6h14.4v16.7H16zM36.3 1960c1-1 2-1.3 3-1.3 1.2 0 2.2.4 3 1.2 1 .7 1.3 1.7 1.3 3s-.4 2-1.3 3c-.8.7-1.8 1.2-3 1.2-1 0-2-.5-3-1.3-.8-1-1.2-2-1.2-3s.5-2.3 1.3-3zm1.6 4.5v-.3h-.2c-.2 0-.2 0-.2-.3v-.3-.4c0-.2 0-.3-.2-.4l.2-.5v-.3-.3c0-.3 0-.4.2-.4v-.3c-.4 0-.6.2-.6.5v.7c0 .2 0 .3-.2.3v.2c.2 0 .3 0 .3.3v.7c0 .3 0 .5.5.5zm1.5-.4l.8-2.3H40l-.5 1.2c0 .2 0 .4-.2.6 0-.2 0-.4-.2-.7l-.3-1.3h-.4l.8 2.4h.5zm2.2-1v-.2c-.2 0-.3 0-.3-.3v-.3-.4c0-.3-.2-.5-.6-.5v.3c.2 0 .3 0 .3.3v.5c0 .2 0 .3.3.4-.2 0-.3 0-.3.3V1964s0 .2-.2.2v.3c.4 0 .7-.2.7-.5v-.4-.3c0-.2 0-.3.2-.3z"/>
    <path fill="#AEADAE" d="M45 1959.8h5.8v6h-6z"/>
    <path fill="#FFF" d="M49.7 1962.5v.4H48v1.6h-.4v-1.7H46v-.5h1.6v-1.7h.4v1.7h1.7z"/>
    <path fill="none" stroke="#000" stroke-width=".4" stroke-miterlimit="10" d="M16 1946.4h468V2874H16z"/>
    <g fill="#FFF">
      <path d="M27 1940H27c0-.2 0-.3-.2-.4 0-.2.2-.3.3-.3 0-.2 0-.3-.2-.4h-.4c0-.2-.2-.4-.3-.5l.2-.3v-.3H26h-.3c-.2 0-.3 0-.4-.2v-.4l-.4-.2c-.2 0-.3.2-.3.3H24c0-.2 0-.3-.2-.4h-.3c0 .2 0 .3-.2.4H23l-.2-.2h-.3v.5l-.4.3h-.3-.2v.4c0 .2 0 .4-.2.5H21s-.2 0-.2.2l.2.3v.4h-.3v.4l.2.2v.4c0 .2 0 .3-.2.3v.3h.5c0 .2.2.3.3.5 0 .2 0 .3-.2.4 0 .2.2.2.2.3.2 0 .3 0 .4-.2.2 0 .3.2.5.3v.4h1s0 .2.2.3h.3v-.3H25v.2h.2v-.2-.3-.2l.4-.2H26.3v-.2-.3s0-.2.2-.3h.4v-.3s0-.2-.2-.3v-.3c.3 0 .4-.2.5-.2v-.3zm-3.2 1c-.4 0-.8-.3-.8-.7 0-.5.4-1 1-.8.3 0 .7.3.7.8s-.4.8-1 .8zM23.2 1935.2H23c0-.2 0-.3-.2-.4 0 0 .2 0 .2-.2v-.2h-.3c-.2 0-.2-.2-.3-.3v-.2H22h-.2v-.4h-.3-.2v.2H21v-.3h-.2-.2v.3H20h-.2v.3h-.2s0 .2 0 0h-.3v.8H19l-.2.3s0 .2.2.2v.3l-.2.2v.2h.2s0 .2.2.3c0 0-.2 0-.2.2v.2h.3l.3.2v.4h.3c0-.2 0-.2 0 0h.2v.2h.8v.2h.4v-.3h.8v-.3s0-.2.2-.2h.3v-.2-.2-.3h.4v-.2H23v-.2-.2l.2-.2v-.2zm-2 1c-.5 0-.8-.3-.8-.6s.2-.6.5-.6c.2 0 .5.2.6.5 0 .3-.2.6-.5.6zM27.5 1935.4h-.2v-.2-.2-.2H27v-.2-.2h-.2-.4v-.3H26v.2h-.3-.2s0-.2 0 0h-.2s-.2 0-.2.2l-.2-.2H25v.5h-.3v.2c0 .2-.2.2-.2.2h-.2v.2h.2v.3h-.2v.2h.2v.4h.2c0 .2 0 .3.2.3l-.2.2H25.5v.2h.7l.2-.2h.2v.2h.2v-.3-.3h.4v-.2-.3h.2v-.2-.3-.3zm-1.5.7c-.3 0-.5 0-.5-.3 0-.2 0-.4.4-.4 0 0 .3 0 .3.3s0 .5-.3.5z"/>
    </g>
  </g>
  <g>
    <text transform="translate(35.3 1941.79)" font-family="'MyriadPro-Regular'" font-size="11.4">
      productmgt
    </text>
  </g>
  <g>
    <text transform="translate(400.562 1885.137)" font-family="'MyriadPro-Regular'" font-size="11.4">
      productsSer...
    </text>
  </g>
  <path fill="none" stroke="#19B89C" stroke-miterlimit="10" d="M56.6 1958.7H294v17.5H56.5z"/>
  <path fill="#19B89C" d="M56.6 1958.7H84v17.5H56.5z"/>
  <g>
    <text fill="#FFF" transform="translate(59.12 1971.443)" font-family="'MyriadPro-Regular'" font-size="11.4">
      map
    </text>
  </g>
  <g>
    <text transform="translate(87.785 1971.443)">
      <tspan x="0" y="0" font-family="'MyriadPro-Light'" font-size="11.2">productsMap = populateSampleProducts() </tspan><tspan x="198.6" y="0" fill="#19B89C" font-family="'MyriadPro-Light'" font-size="11.2">x</tspan>
    </text>
  </g>
  <g>
    <path fill="#EFEFEF" d="M302 1958.7H321v17.5H302z"/>
    <text transform="translate(307.166 1971.443)" font-family="'MyriadPro-Light'" font-size="11.2">
      &lt;
    </text>
  </g>
  <g>
    <path fill="none" stroke="#000" stroke-width=".4" stroke-miterlimit="10" d="M24 1985.7h451.5v370H24z"/>
    <path fill="#FFF" stroke="#000" stroke-width=".4" stroke-miterlimit="10" d="M24 1985.8h451.5v16.8H24z"/>
    <path fill="#939598" d="M435.5 1996v-2.2h.5v3h-6v-6h3v.5h-2.5v4.8h5zm-.4-4.2l-.6-.7.3-.3 1.3 1.3-1 1.2-.4-.3.5-.8c-1.4.2-2.4.8-3 1.7-.2.2-.4.4-.4.7l-.2.6v.2h-.5v-.6c0-.4.2-.6.3-.8 0-.3.2-.5.4-.8l.8-.7 1-.6 1.6-.2zM446.7 1996v-2.2h.5v3h-6v-6h3v.5h-2.5v4.8h5zm.5-5.3v.5h-.2-.6l-.8.5c-1 .6-1.5 1.7-1.7 3.2l.6-.7.3.4-1.4 1-1.2-1.2.3-.3.7.7c0-.7.2-1.2.4-1.6 0-.5.3-.8.6-1l.7-1c.4 0 .6-.2 1-.3 0 0 .3 0 .5-.2h.7zM454.2 1990.7h2.3v.7h1.5v.8h-5.3v-.8h1.5v-.7zm-1 2h4.4v4H453v-4zm1 .6v3h.6v-3h-.7zm1.7 0v3h.6v-3h-.7zM466.7 1995.3l-3-3 .5-.3 2.5 2.5 2.6-2.5.5.5-3 2.8z"/>
    <path fill="none" stroke="#000" stroke-width=".2" stroke-miterlimit="10" d="M438.5 1990.5v6.5M450 1990v6.7M460.8 1990.6v6.5"/>
    <path d="M24 1985.8h14.5v16.7H24z"/>
    <path fill="#FFF" d="M35.4 1994.2H35v-.2c0-.2 0-.3-.2-.5.2 0 .3-.2.4-.3v-.4H35h-.4l-.4-.5c0-.3 0-.4.2-.5 0-.2-.2-.2-.3-.3h-.3c0 .2 0 .2 0 0-.3 0-.4 0-.6-.2v-.5s0-.2-.2-.2-.3.3-.4.4h-.6v-.2s0-.2-.2-.3h-.3c-.2 0-.2.2-.3.3l-.5.2c-.2 0-.3-.2-.4-.3h-.3v.5l-.5.4h-.4c0-.2 0 0 0 0h-.4v.2l.2.4c0 .2-.2.4-.3.5h-.7V1993.4s0 .2.2.2v.6h-.2l-.3.2v.4l.3.2c0 .3 0 .4.2.6l-.4.3c0 .2 0 .3.2.4v.2h.4c.2 0 .3.3.4.4 0 .3 0 .4-.2.5v.2s.2 0 .3.2h.4c0-.2.2-.2.2 0 .2 0 .3 0 .5.2v.4l.4.2c.2 0 .3-.2.4-.3h.6c0 .2 0 .3.2.4h.3c.2 0 .2-.2.2-.3h.6c.2 0 .3 0 .4.2h.4v-.5l.6-.4h.8v-.2l-.2-.3c0-.2.2-.4.3-.5h.5l.2-.4-.3-.3h-.2v-.6l.2-.2h.4v-.2-.3zm-4 1.3c-.6 0-1-.5-1-1 0-.6.4-1 1-1 .5 0 1 .4 1 1 0 .5-.4 1-1 1z"/>
    <path fill="#FFF" stroke="#000" stroke-width=".6" stroke-miterlimit="10" d="M140.4 2039.3h100v24.4h-100z"/>
    <text transform="translate(152.12 2055.31)" font-family="'MyriadPro-Regular'" font-size="11.4">
      ResourceWorker
    </text>
    <text transform="translate(43.878 1998.448)" font-family="'MyriadPro-Regular'" font-size="11.4">
      product
    </text>
    <path fill="none" stroke="#000" stroke-width=".4" stroke-miterlimit="10" d="M191.2 2063.7v233.5"/>
    <path fill="#FFF" stroke="#000" stroke-width=".4" stroke-miterlimit="10" d="M140.5 2253h101v24.5h-101zM140.4 2081.4h101v24.4h-101z"/>
    <path fill="#FFF" stroke="#000" stroke-width=".6" stroke-miterlimit="10" d="M140.4 2297.2h100v24.4h-100z"/>
    <text transform="translate(152.467 2313.147)" font-family="'MyriadPro-Regular'" font-size="11.4">
      ResourceWorker
    </text>
    <path d="M55.5 2065c-.4.2-1 .3-2 .3-2.2 0-3.8-1.3-3.8-3.8 0-2.4 1.6-4 4-4 1 0 1.5 0 1.8.3l-.3.8c-.3-.2-1-.3-1.5-.3-1.8 0-3 1-3 3s1 3.2 3 3.2c.6 0 1.2 0 1.6-.3l.2.8zM56.7 2057.2h1v8h-1v-8zM60.5 2058.2c0 .3-.3.6-.7.6-.3 0-.6-.3-.6-.6 0-.4.3-.6.7-.6.2 0 .5.2.5.6zm-1 7v-5.5h1v5.5h-1zM62.6 2062.7c0 1.3 1 2 2 2 .6 0 1-.3 1.4-.4l.2.7c-.4.2-1 .3-2 .3-1.6 0-2.6-1-2.6-2.7 0-1.7 1-3 2.6-3 1.8 0 2.3 1.6 2.3 2.6v.5h-4zm3-.8c0-.7-.4-1.7-1.5-1.7-1 0-1.3 1-1.4 1.6h3zM67.7 2061.2v-1.5h.8v1c.4-.6 1-1 2-1 .7 0 2 .4 2 2.2v3.2h-1v-3c0-1-.4-1.8-1.4-1.8-.5 0-1 .5-1.2 1v3.7h-1v-4zM75.2 2058v1.7h1.4v.8h-1.4v3c0 .6.2 1 .7 1h.5v.7h-.8c-.5 0-1 0-1-.3-.4-.4-.5-1-.5-1.5v-3h-1v-.8h1v-1.3l1-.3z"/>
    <path fill="none" stroke="#000" stroke-width=".599994" stroke-miterlimit="10" d="M93.6 2061.8l-29 29-29.3-29 29.2-29.2z" stroke-dasharray="1.6 1.6"/>
    <g>
      <path d="M55.4 2307.6c-.4.2-1 .4-2 .4-2.2 0-3.8-1.4-3.8-4 0-2.3 1.6-4 4-4 1 0 1.5.3 1.8.4l-.3.8c-.2-.2-.8-.3-1.4-.3-1.8 0-3 1-3 3s1 3 3 3c.5 0 1.2 0 1.6-.2l.2.8zM56.6 2299.8h1v8h-1v-8zM60.4 2300.8c0 .4-.3.6-.7.6-.3 0-.6-.2-.6-.6 0-.3.4-.6.7-.6.4 0 .7.3.7.6zm-1.2 7v-5.4h1v5.5h-1zM62.5 2305.3c0 1.3.8 2 1.8 2 .8 0 1.2-.2 1.6-.4v.6c-.3.2-1 .4-1.8.4-1.7 0-2.7-1-2.7-2.8s1-3 2.6-3c2 0 2.4 1.6 2.4 2.6v.5h-4zm3-.7c0-.7-.4-1.7-1.5-1.7-1 0-1.4 1-1.5 1.6h3zM67.6 2303.8v-1.4h.8v1c.4-.7 1-1.2 2-1.2.7 0 2 .5 2 2.4v3.3h-1v-3.3c0-1-.5-1.6-1.4-1.6-.7 0-1.2.5-1.3 1v3.9h-1v-4.2zM75 2300.8v1.6h1.5v.7H75v3c0 .8.3 1.2.8 1.2h.6v.6l-.8.2c-.5 0-1-.2-1-.4-.4-.3-.5-.8-.5-1.5v-3h-.8v-.6h1v-1.4l1-.2z"/>
    </g>
    <path fill="none" stroke="#000" stroke-width=".599994" stroke-miterlimit="10" d="M93.4 2304.4l-29 29-29.2-29 29-29.2z" stroke-dasharray="1.6 1.6"/>
    <path fill="none" stroke="#000" stroke-miterlimit="10" d="M64.4 2091V2275"/>
    <g>
      <path fill="none" stroke="#000" stroke-width=".9" stroke-miterlimit="10" d="M133.8 2095.2H64.4"/>
      <path d="M132.4 2090.6l8 4.6-8 4.6"/>
    </g>
    <g>
      <path fill="none" stroke="#000" stroke-width=".6" stroke-miterlimit="10" d="M71 2265.3h69.4" stroke-dasharray="1.6 1.6"/>
      <path d="M72.4 2270l-8-4.7 8-4.6"/>
    </g>
    <path fill="#FFF" stroke="#000" stroke-width=".4" stroke-miterlimit="10" d="M98 2121.5h184.5v24.4H98z"/>
    <text transform="translate(180.15 2098.434)" font-family="'MyriadPro-Light'" font-size="11.2">
      Start
    </text>
    <text transform="translate(109.05 2138.432)" font-family="'MyriadPro-Light'" font-size="11.2">
      json payload = productsMap[prodId]
    </text>
    <path fill="#FFF" stroke="#000" stroke-width=".4" stroke-miterlimit="10" d="M135.3 2164.7h110v24.4h-110z"/>
    <text transform="translate(145.05 2181.615)" font-family="'MyriadPro-Light'" font-size="11.2">
      message resonse = {}
    </text>
    <path fill="#FFF" stroke="#000" stroke-width=".4" stroke-miterlimit="10" d="M78 2207.7h224.5v24.4H78z"/>
    <text transform="translate(89.388 2224.615)" font-family="'MyriadPro-Light'" font-size="11.2">
      messages.setJsonPayload(response , payload)
    </text>
    <text transform="translate(157.733 2269.73)" font-family="'MyriadPro-Light'" font-size="11.2">
      reply response
    </text>
  </g>
  <g>
    <path fill="none" stroke="#000" stroke-width=".4" stroke-miterlimit="10" d="M24 2372h451.5v493.2H24z"/>
    <path fill="#FFF" stroke="#000" stroke-width=".4" stroke-miterlimit="10" d="M24 2372.2h451.5v16.8H24z"/>
    <path fill="#939598" d="M435.5 2382.5v-2.3h.5v3h-6v-6h3v.4h-2.5v5h5zm-.4-4.4l-.6-.6.3-.3 1.3 1.3-1 1.3-.4-.4.5-.6c-1.4 0-2.4.7-3 1.7-.2.2-.4.5-.4.8l-.2.7v.2h-.5v-.3-.5l.3-.7.4-.7.8-.8 1-.6c.6 0 1-.2 1.6-.3zM446.7 2382.5v-2.3h.5v3h-6v-6h3v.4h-2.5v5h5zm.5-5.4v.5h-.2l-.6.2c-.3 0-.5.2-.8.4-1 .7-1.5 1.8-1.7 3.2l.6-.5.3.3-1.4 1.2-1.2-1.4.3-.3.7.8c0-.6.2-1 .4-1.6 0-.4.3-.8.6-1 .2-.4.4-.6.7-.8.4-.3.6-.5 1-.6l.5-.2h.7zM454.2 2377h2.3v.8h1.5v.8h-5.3v-.8h1.5v-.7zm-1 2.2h4.4v4H453v-4zm1 .5v2.8h.6v-2.8h-.7zm1.7 0v2.8h.6v-2.8h-.7zM466.7 2381.7l-3-3 .5-.4 2.5 2.5 2.6-2.4.5.4-3 3z"/>
    <path fill="none" stroke="#000" stroke-width=".2" stroke-miterlimit="10" d="M438.5 2376.8v6.6M450 2376.5v6.5M460.8 2377v6.5"/>
    <path d="M24 2372.2h14.5v16.7H24z"/>
    <path fill="#FFF" d="M35.4 2380.6s-.3 0-.4-.2c0-.2 0-.3-.2-.5v-.2c.2 0 .3-.2.4-.3v-.4H35h-.4c-.2 0-.3-.2-.4-.4 0-.2 0-.3.2-.4 0-.2-.2-.3-.3-.4 0 0-.2 0-.3.2-.3 0-.4-.2-.6-.3v-.5s0-.2-.2-.2-.3.2-.4.3h-.6c0-.2 0-.4-.2-.5h-.3c-.2 0-.2.3-.3.4-.2 0-.4 0-.5.2l-.4-.4h-.3V2377.7l-.5.4c-.2 0-.3 0-.4-.2-.2 0-.3.2-.4.3v.2s0 .2.2.3c0 .3-.2.4-.3.6 0 0 0 .2 0 0h-.4c-.2 0-.2 0-.3.2v.3s0 .2.2.3v.6h-.2s-.2 0-.3.2v.4h.3v.3s0 .3.2.4l-.4.4c0 .3 0 .4.2.5h.4l.4.5c0 .2 0 .3-.2.5l.3.3c.2 0 .3 0 .4-.2h.2c.2 0 .3.2.5.3v.4c.2 0 .3 0 .4.2.2 0 .3-.2.4-.3h.6c0 .2 0 .3.2.5h.3l.2-.4h.6c0-.2 0 0 0 0 .2 0 .3 0 .4.2h.4v-.2-.4l.6-.4c.2 0 .3 0 .4.2.2 0 .3-.2.4-.3 0-.2 0-.3-.2-.4l.3-.4h.5l.2-.4c0-.2-.2-.3-.3-.4h-.2v-.5h.2c0-.2.3-.2.4-.2v-.3zm-4 1.3c-.6 0-1-.6-1-1.2s.4-1 1-1c.5 0 1 .4 1 1s-.4 1-1 1z"/>
    <path fill="#FFF" stroke="#000" stroke-width=".6" stroke-miterlimit="10" d="M140.4 2425.7h100v24.4h-100z"/>
    <text transform="translate(152.12 2441.67)" font-family="'MyriadPro-Regular'" font-size="11.4">
      ResourceWorker
    </text>
    <text transform="translate(43.878 2384.81)" font-family="'MyriadPro-Regular'" font-size="11.4">
      product
    </text>
    <path fill="none" stroke="#000" stroke-width=".4" stroke-miterlimit="10" d="M191.2 2450v356.7"/>
    <path fill="#FFF" stroke="#000" stroke-width=".4" stroke-miterlimit="10" d="M140.5 2762.6h101v24.4h-101zM140.4 2467.7h101v24.4h-101z"/>
    <path fill="#FFF" stroke="#000" stroke-width=".6" stroke-miterlimit="10" d="M140.4 2806.7h100v24.4h-100z"/>
    <text transform="translate(152.467 2822.674)" font-family="'MyriadPro-Regular'" font-size="11.4">
      ResourceWorker
    </text>
    <path d="M55.5 2451.3c-.4.2-1 .4-2 .4-2.2 0-3.8-1.4-3.8-4 0-2.3 1.6-4 4-4 1 0 1.5.3 1.8.4l-.3 1c-.3-.2-1-.4-1.5-.4-1.8 0-3 1.2-3 3.2s1 3 3 3c.6 0 1.2 0 1.6-.2l.2.7zM56.7 2443.5h1v8h-1v-8zM60.5 2444.5c0 .4-.3.7-.7.7-.3 0-.6-.3-.6-.7 0-.3.3-.6.7-.6.2 0 .5.2.5.5zm-1 7v-5.4h1v5.6h-1zM62.6 2449c0 1.4 1 2 2 2 .6 0 1-.2 1.4-.4l.2.8c-.4 0-1 .3-2 .3-1.6 0-2.6-1-2.6-2.8 0-1.7 1-3 2.6-3 1.8 0 2.3 1.5 2.3 2.6v.4h-4zm3-.7c0-.6-.4-1.6-1.5-1.6-1 0-1.3 1-1.4 1.6h3zM67.7 2447.6v-1.5h.8v1c.4-.5 1-1 2-1 .7 0 2 .4 2 2.3v3.3h-1v-3.2c0-1-.4-1.6-1.4-1.6-.5 0-1 .5-1.2 1v3.8h-1v-4zM75.2 2444.5v1.6h1.4v1h-1.4v2.8c0 .7.2 1 .7 1h.5v.8h-.8c-.5 0-1 0-1-.3-.4-.3-.5-.8-.5-1.4v-3h-1v-1h1v-1.2l1-.3z"/>
    <path fill="none" stroke="#000" stroke-width=".599994" stroke-miterlimit="10" d="M93.6 2448l-29.2 29.2-29-29 29-29.2z" stroke-dasharray="1.6 1.6"/>
    <path d="M55.4 2817c-.4.3-1 .5-2 .5-2.2 0-3.8-1.4-3.8-4 0-2.3 1.6-4 4-4 1 0 1.5.3 1.8.4l-.3.7c-.2 0-.8-.3-1.4-.3-1.8 0-3 1.2-3 3.2s1 3 3 3c.5 0 1.2 0 1.6-.2l.2.7zM56.6 2809.3h1v8h-1v-8zM60.4 2810.3c0 .4-.3.7-.7.7-.3 0-.6-.3-.6-.7 0-.3.4-.6.7-.6.4 0 .7.3.7.6zm-1.2 7v-5.4h1v5.4h-1zM62.5 2814.8c0 1.4.8 2 1.8 2 .8 0 1.2-.2 1.6-.4v.8c-.3 0-1 .3-1.8.3-1.7 0-2.7-1-2.7-2.8s1-3 2.6-3c2 0 2.4 1.6 2.4 2.7v.4h-4zm3-.7c0-.5-.4-1.5-1.5-1.5-1 0-1.4 1-1.5 1.6h3zM67.6 2813.4v-1.5h.8v.8c.4-.5 1-1 2-1 .7 0 2 .4 2 2.3v3.4h-1v-3.2c0-1-.5-1.6-1.4-1.6-.7 0-1.2.5-1.3 1v3.9h-1v-4zM75 2810.3v1.6h1.5v.6H75v3c0 .7.3 1 .8 1h.6v.8h-.8c-.5 0-1 0-1-.3-.4-.2-.5-.7-.5-1.4v-3h-.8v-.7h1v-1.4l1-.3z"/>
    <path fill="none" stroke="#000" stroke-width=".599994" stroke-miterlimit="10" d="M93.4 2814l-29 29-29.2-29 29-29.2z" stroke-dasharray="1.6 1.6"/>
    <path fill="none" stroke="#000" stroke-miterlimit="10" d="M64.4 2477.2v307.6"/>
    <g>
      <path fill="none" stroke="#000" stroke-width=".9" stroke-miterlimit="10" d="M133.8 2481.5H64.4"/>
      <path d="M132.4 2477l8 4.5-8 4.6"/>
    </g>
    <g>
      <path fill="none" stroke="#000" stroke-width=".6" stroke-miterlimit="10" d="M71 2774.8h69.4" stroke-dasharray="1.6 1.6"/>
      <path d="M72.4 2779.4l-8-4.6 8-4.6"/>
    </g>
    <path fill="#FFF" stroke="#000" stroke-width=".4" stroke-miterlimit="10" d="M84 2508h212.5v24.3H84z"/>
    <text transform="translate(180.15 2484.795)" font-family="'MyriadPro-Light'" font-size="11.2">
      Start
    </text>
    <text transform="translate(91.05 2524.793)" font-family="'MyriadPro-Light'" font-size="11.2">
      json jsonReq = messages:getJsonPayload(m)
    </text>
    <path fill="#FFF" stroke="#000" stroke-width=".4" stroke-miterlimit="10" d="M74 2551h232.5v24.4H74z"/>
    <text transform="translate(85.5 2567.977)" font-family="'MyriadPro-Light'" font-size="11.2">
      string productId = jsonutils:getString(jsonReq...)
    </text>
    <path fill="#FFF" stroke="#000" stroke-width=".4" stroke-miterlimit="10" d="M103.6 2594h175.2v24.4H103.6z"/>
    <text transform="translate(113.724 2610.977)" font-family="'MyriadPro-Light'" font-size="11.2">
      productsMap[productId] = jsonReq
    </text>
    <path fill="#FFF" stroke="#000" stroke-width=".4" stroke-miterlimit="10" d="M80.8 2635.5h221v24.4h-221z"/>
    <text transform="translate(89.047 2652.403)" font-family="'MyriadPro-Light'" font-size="11.2">
      json payload = {”Status” . “Product is successf...
    </text>
    <path fill="#FFF" stroke="#000" stroke-width=".4" stroke-miterlimit="10" d="M80.8 2719.7h221v24.4h-221z"/>
    <text transform="translate(92.05 2736.66)" font-family="'MyriadPro-Light'" font-size="11.2">
      messages.setjsonPayload(response , payload)
    </text>
    <path fill="#FFF" stroke="#000" stroke-width=".4" stroke-miterlimit="10" d="M133.4 2677.6H249v24.4H133.4z"/>
    <text transform="translate(141.902 2694.53)" font-family="'MyriadPro-Light'" font-size="11.2">
      message response = {}
    </text>
    <text transform="translate(157.733 2779.257)" font-family="'MyriadPro-Light'" font-size="11.2">
      reply response
    </text>
  </g>
  <g>
    <path fill="none" stroke="#000" stroke-width=".4" stroke-miterlimit="10" d="M15.7 2891H484v536.5H15.6z"/>
    <path fill="#FFF" stroke="#000" stroke-width=".4" stroke-miterlimit="10" d="M15.7 2891.2H484v16.8H15.6z"/>
    <path fill="#939598" d="M427 2901.5v-2.3h.7v3h-6v-6h3v.4h-2.5v5h5zm-.2-4.4l-.8-.6.4-.3 1.3 1.3-1 1.3-.5-.4.6-.6c-1.5 0-2.6.7-3.2 1.7l-.4.8V2901h-.6v-.3-.5c.2-.2.2-.5.3-.7l.4-.7.8-.8 1-.6 1.6-.3zM455 2901.5v-2.3h.7v3h-6v-6h3v.4h-.6-1.8v5h5zm.7-5.4v.5h-.3l-.6.2-.7.4c-1 .7-1.5 1.8-1.6 3.2l.6-.5.3.3-1.2 1.2-1.2-1.4.4-.3.7.8c0-.6 0-1 .2-1.6l.6-1c.2-.4.5-.6.7-.8.3-.3.5-.5.8-.6l.7-.2h.7zM462.6 2896h2.3v.8h1.4v.8H461v-.8h1.6v-.7zm-1 2.2h4.4v4h-4.5v-4zm1 .5v2.8h.6v-2.8h-.7zm1.7 0v2.8h.7v-2.8h-.7zM475.2 2900.7l-3-3 .4-.4 2.6 2.5 2.6-2.4.4.4-3 3z"/>
    <path fill="none" stroke="#000" stroke-width=".2" stroke-miterlimit="10" d="M447 2895.8v6.6M458.3 2895.5v6.5M469.2 2896v6.5"/>
    <path d="M15.7 2891.2h14.5v16.7H15.7z"/>
    <path fill="#FFF" d="M24.8 2898.3v.4h-1l-.7 2.7c-.2 1.2-.5 2-.8 2.8-.4 1-1 1.5-1.4 2l-1 .3c-.4 0-.6 0-.8-.2l-.2-.4c0-.3 0-.4.2-.5h.7v.7h.6l.5-.6.5-1 .5-1.7 1-4.3h-1v-.4h.8l.3-.4.4-.8.7-1.2 1-.8 1-.3c.3 0 .6 0 .8.2.2 0 .3.3.3.5v.3l-.4.2h-.4v-.4-.2-.2-.2H26c-.3 0-.5 0-.7.2-.3.2-.5.6-.8 1l-.6 2h.8z"/>
    <path fill="#FFF" stroke="#000" stroke-width=".6" stroke-miterlimit="10" d="M132 2944.7h100v24.4H132z"/>
    <text transform="translate(143.79 2960.666)" font-family="'MyriadPro-Regular'" font-size="11.4">
      ResourceWorker
    </text>
    <text transform="translate(35.547 2903.806)" font-family="'MyriadPro-Regular'" font-size="11.4">
      populateSampleProducts
    </text>
    <path fill="none" stroke="#000" stroke-width=".4" stroke-miterlimit="10" d="M182.8 2969v399.3"/>
    <path fill="#FFF" stroke="#000" stroke-width=".4" stroke-miterlimit="10" d="M74.4 3281.6H291v24.4H74.4zM132 2986.7h101v24.4H132z"/>
    <path fill="#FFF" stroke="#000" stroke-width=".6" stroke-miterlimit="10" d="M124.3 3325.7H240v24.4H124.2z"/>
    <text transform="translate(134.217 3341.67)" font-family="'MyriadPro-Regular'" font-size="11.4">
      return productsMap
    </text>
    <path fill="#FFF" stroke="#000" stroke-width=".6" stroke-miterlimit="10" d="M132 3368.3h100v24.4H132z"/>
    <text transform="translate(143.677 3384.3)" font-family="'MyriadPro-Regular'" font-size="11.4">
      FunctionWorker
    </text>
    <path fill="#FFF" stroke="#000" stroke-width=".4" stroke-miterlimit="10" d="M75.6 3027H288v24.3H75.7z"/>
    <text transform="translate(143.38 3003.79)" font-family="'MyriadPro-Light'" font-size="11.2">
      ProductsMap = {}
    </text>
    <text transform="translate(89.723 3043.79)" font-family="'MyriadPro-Light'" font-size="11.2">
      json prod_1 = {”Product” . {”ID”: “123000”, “...
    </text>
    <path fill="#FFF" stroke="#000" stroke-width=".4" stroke-miterlimit="10" d="M74.2 3070h215.4v24.4H74.2z"/>
    <text transform="translate(88.795 3086.972)" font-family="'MyriadPro-Light'" font-size="11.2">
      json prod_2 = {”Product” . {”ID”: “123001”, “...
    </text>
    <path fill="#FFF" stroke="#000" stroke-width=".4" stroke-miterlimit="10" d="M74 3113h218v24.4H74z"/>
    <text transform="translate(89.923 3129.972)" font-family="'MyriadPro-Light'" font-size="11.2">
      json prod_3 = {”Product” . {”ID”: “123002”, “...
    </text>
    <path fill="#FFF" stroke="#000" stroke-width=".3" stroke-miterlimit="10" d="M99 3154.5h168v24.4H99z"/>
    <text transform="translate(107.284 3171.4)" font-family="'MyriadPro-Light'" font-size="11.2">
      productsMap[”123000”] = prod_1
    </text>
    <path fill="#FFF" stroke="#000" stroke-width=".3" stroke-miterlimit="10" d="M99 3197h168v24.5H99z"/>
    <text transform="translate(107.284 3214.028)" font-family="'MyriadPro-Light'" font-size="11.2">
      productsMap[”123001”] = prod_2
    </text>
    <path fill="#FFF" stroke="#000" stroke-width=".3" stroke-miterlimit="10" d="M99 3239.7h168v24.4H99z"/>
    <text transform="translate(107.284 3256.657)" font-family="'MyriadPro-Light'" font-size="11.2">
      productsMap[”123002”] = prod_3
    </text>
    <g>
      <text transform="translate(82.906 3298.252)" font-family="'MyriadPro-Light'" font-size="11.2">
        system:println(”Sample products are added”)
      </text>
    </g>
  </g>
  <g>
    <path fill="none" stroke="#000" stroke-width=".4" stroke-miterlimit="10" d="M15.7 3456.3H484V4114H15.6z"/>
    <path fill="#FFF" stroke="#000" stroke-width=".4" stroke-miterlimit="10" d="M15.7 3456.4H484v16.8H15.6z"/>
    <path fill="#939598" d="M427 3466.7v-2.3h.7v3h-6v-6h3v.5h-.5c-.3 0-.6 0-1-.2h-1v5h5zm-.2-4.4l-.8-.7.4-.3 1.3 1.2-1 1.3-.5-.3.6-.7c-1.5.2-2.6.7-3.2 1.7l-.4.8v.6h-.6v-.6c.2-.2.2-.4.3-.7l.4-.7.8-.8 1-.5 1.6-.4zM455 3466.7v-2.3h.7v3h-6v-6h3v.4h-.6-1.8v5h5zm.7-5.4v.4h-.3l-.6.2c-.2 0-.5 0-.7.3-1 .6-1.5 1.7-1.6 3.2l.6-.6.3.3-1.2 1-1.2-1.2.4-.3.7.8c0-.6 0-1 .2-1.5l.6-1.2.7-.7c.3 0 .5-.3.8-.4l.7-.2h.7zM462.6 3461.3h2.3v.7h1.4v.8H461v-.8h1.6v-.7zm-1 2h4.4v4h-4.5v-4zm1 .6v2.8h.6v-3h-.7zm1.7 0v2.8h.7v-3h-.7zM475.2 3466l-3-3 .4-.5 2.6 2.5 2.6-2.4.4.5-3 3z"/>
    <path fill="none" stroke="#000" stroke-width=".2" stroke-miterlimit="10" d="M447 3461v6.6M458.3 3460.7v6.5M469.2 3461v6.7"/>
    <path d="M15.7 3456.4h14.5v16.7H15.7z"/>
    <g fill="#FFF">
      <path d="M27 3466h-.5v-.4c0-.2 0-.3.2-.3v-.4H26c0-.2-.2-.3-.3-.5v-.3c0-.2 0-.2-.2-.3h-.3c-.2 0-.3 0-.5-.2v-.4l-.3-.2-.3.3H24c0-.2 0-.3-.2-.4h-.3c0 .2 0 .3-.2.4H23h-.2-.2v-.2h-.3v.5l-.4.3h-.2-.3-.2v.5c0 .2 0 .3-.2.4h-.2c-.2 0-.2 0-.2.2s.2.2.2.3v.5h-.3v.4l.2.2c0 .2 0 .3.2.5h-.2c0 .2 0 .3-.2.3v.3h.4l.4.5c0 .2 0 .3-.2.4 0 .2.2.2.2.3h.4c0-.2 0-.2 0 0h.4v.4h1.1s0 .2.2.3h.3v-.3H24.8v.2h.3v-.2-.3-.2c.2 0 .3 0 .4-.2H26v-.2-.2-.5H26.7v-.3s0-.2-.2-.3v-.3l.5-.2v-.3zm-3.4 1c-.4 0-.8-.3-.8-.7 0-.5.4-1 .8-.8.5 0 1 .3 1 .8s-.5.8-1 .8zM23 3461.2h-.2c0-.2 0-.3-.2-.4 0 0 .2 0 .2-.2v-.2h-.3c-.2 0-.2-.2-.3-.2v-.3-.2h-.3-.2-.2v-.4h-.3l-.2.2H21v-.3h-.2-.2v.3H20h-.2-.2v.3h-.2v.2H19v.6h-.3v1.2h.2v.3l-.2.2v.2h.5s0 .2.2.3v.4h.3c0-.2 0-.2 0 0h.3v.2h.8v.2h.4v-.3h.8v-.3s0-.2.2-.2h.3v-.2-.2-.3h.4v-.2h-.2v-.2-.2s.2 0 .2-.2v-.2zm-2 1c-.5 0-.8-.3-.8-.6s.2-.6.5-.6.6.2.7.5c0 .3-.2.6-.5.6zM27.3 3461.4H27v-.2s0-.2.2-.2v-.2h-.6v-.2-.2h-.2-.2v-.2h-.8s-.2 0-.2.2c0 0-.2 0-.2-.2h-.2v.5h-.3v.4H24v.2h.3v.3H24v.3h.3V3462.7h.4v.4h.4v.2h.8s.2 0 .2-.2l.2.2h.2v-.3-.3h.4v-.2-.2h.2v-.2-.3-.3zm-1.6.7c-.2 0-.4 0-.4-.3 0-.2 0-.4.3-.4s.5 0 .5.3 0 .5-.3.5z"/>
    </g>
    <g>
      <text transform="translate(35.547 3469.02)" font-family="'MyriadPro-Regular'" font-size="11.4">
        OrderMgtService
      </text>
    </g>
  </g>
  <path fill="none" stroke="#000" stroke-width=".4" stroke-miterlimit="10" d="M24.3 3504h451.4v569.5H24.3z"/>
  <g>
    <path fill="#FFF" stroke="#000" stroke-width=".4" stroke-miterlimit="10" d="M24.3 3504.2h451.4v16.8H24.3z"/>
    <path fill="#939598" d="M435.7 3514.5v-2.3h.6v3h-6v-6h3v.4h-2.6v5h5zm-.3-4.4l-.8-.6.3-.3 1.3 1.3-1.2 1.3-.2-.4.5-.6c-1.5 0-2.5.7-3 1.7-.3.2-.4.5-.5.8 0 .3 0 .5-.2.7v.2h-.4v-.3-.5l.3-.7c0-.2.3-.5.5-.7l.7-.8 1-.6c.6 0 1-.2 1.7-.3zM447 3514.5v-2.3h.5v3h-6v-6h3v.4h-2.6v5h5zm.5-5.4v.5h-.3l-.6.2-.7.4c-1 .7-1.7 1.8-1.8 3.2l.6-.5.3.3-1 1.2-1.4-1.4.4-.3.7.8c0-.6 0-1 .3-1.6l.6-1c.2-.4.5-.6.7-.8.3-.3.5-.5.8-.6l.8-.2h.7zM454.4 3509h2.3v.8h1.5v.8H453v-.8h1.4v-.7zm-1 2.2h4.4v4h-4.5v-4zm1 .5v2.8h.6v-2.8h-.7zm1.7 0v2.8h.8v-2.8h-.7zM467 3513.7l-3-3 .4-.4 2.6 2.5 2.6-2.4.4.4-3 3z"/>
    <path fill="none" stroke="#000" stroke-width=".2" stroke-miterlimit="10" d="M438.8 3508.8v6.6M450 3508.5v6.5M461 3509v6.5"/>
    <path d="M24.3 3504.2h14.5v16.7H24.3z"/>
    <path fill="#FFF" d="M35.6 3512.6l-.4-.2v-.5-.2s0-.2.2-.3v-.4h-.8l-.3-.4.2-.4-.2-.4c-.2 0-.4 0-.5.2h-.2l-.4-.3v-.5l-.4-.2c-.2 0-.3.2-.4.3H32v-.5h-.2-.3l-.2.4c-.3 0-.4 0-.6.2l-.3-.4H30V3509.7l-.6.4c-.2 0-.3 0-.4-.2-.2 0-.3.2-.3.3v.5c.2 0 .2 0 0 0 0 .3 0 .4-.2.6 0 0 0 .2 0 0H28v.5c-.2 0-.2 0 0 0 0 0 0 .2.2.3v.6H28s-.2 0-.3.2v.4h.3v.3l.2.4c0 .2-.2.3-.3.4 0 0-.2 0 0 0v.5h.4l.4.5v.5c-.2 0-.2 0 0 0v.3h.2s.2 0 .3-.2h.2l.4.3v.4s.2 0 .3.2c.2 0 .2-.2.3-.3h.6l.2.5h.4c0-.2 0-.3.2-.4h.6c0-.2 0 0 0 0s.2 0 .3.2h.3v-.2-.4l.5-.4c.3 0 .4 0 .5.2l.3-.3c0-.2 0-.3-.2-.4l.3-.4h.6c0-.2 0-.3.2-.4l-.4-.4c0-.2 0-.4.2-.5l.4-.2v-.3zm-4 1.3c-.5 0-1-.6-1-1.2s.5-1 1-1c.6 0 1 .4 1 1s-.4 1-1 1z"/>
  </g>
  <g>
    <text transform="translate(44.114 3516.81)" font-family="'MyriadPro-Regular'" font-size="11.4">
      orders
    </text>
  </g>
  <g>
    <path d="M21 3479c.8-.7 1.8-1 3-1s2.2.3 3 1c.8 1 1.2 2 1.2 3s-.4 2.3-1.2 3c-.8 1-1.8 1.4-3 1.4s-2.2-.4-3-1.3c-.8-.7-1.2-1.7-1.2-3s.4-2 1.2-3zm1.6 4.8v-.3c-.3 0-.4 0-.4-.4v-.4-.5-.3-.3-.3s0-.2.3-.2v-.3c-.4 0-.6.2-.6.6v.7c0 .2-.2.3-.3.3v.3s.2 0 .2.2v.7c0 .4 0 .6.5.6zm1.5-.5l1-2.3h-.4l-.4 1-.2.8s0-.4-.2-.7l-.4-1H23l.8 2.3h.3zm2.4-1v-.3c-.3 0-.3 0-.3-.3v-.3-.3c0-.3 0-.5-.5-.5v.3c.2 0 .3 0 .3.3v2c0 .4 0 .5-.3.5v.3c.4 0 .6-.2.6-.6v-.3-.5s0-.2.3-.2z"/>
  </g>
  <path fill="#AEADAE" d="M29.6 3479h6v6h-6z"/>
  <g>
    <path fill="#FFF" d="M34.4 3481.8v.3h-1.7v1.8h-.4v-1.7h-1.7v-.2h1.7v-1.7h.4v1.8h1.7z"/>
  </g>
  <path fill="#FFF" stroke="#000" stroke-width=".6" stroke-miterlimit="10" d="M158.6 3560.4h100v24.4h-100z"/>
  <g>
    <text transform="translate(170.373 3576.35)" font-family="'MyriadPro-Regular'" font-size="11.4">
      ResourceWorker
    </text>
  </g>
  <path fill="none" stroke="#000" stroke-width=".4" stroke-miterlimit="10" d="M209.4 3584.8v423.8"/>
  <path fill="#FFF" stroke="#000" stroke-width=".4" stroke-miterlimit="10" d="M158.7 3964.5h101v24.4h-101zM158.6 3602.4h101v24.4h-101z"/>
  <path fill="#FFF" stroke="#000" stroke-width=".6" stroke-miterlimit="10" d="M158.6 4008.6h100v24.4h-100z"/>
  <g>
    <text transform="translate(170.72 4024.555)" font-family="'MyriadPro-Regular'" font-size="11.4">
      ResourceWorker
    </text>
  </g>
  <g>
    <path d="M73.7 3586c-.3.2-1 .4-2 .4-2.2 0-3.8-1.4-3.8-4 0-2.3 1.5-4 4-4 1 0 1.5.3 1.7.4l-.2.8-1.5-.3c-1.8 0-3 1.2-3 3.2s1 3 3 3c.5 0 1 0 1.5-.3l.2.8zM75 3578.2h1v8h-1v-8zM78.7 3579.2c0 .4-.2.6-.6.6-.3 0-.5-.2-.5-.6 0-.3.2-.6.6-.6.5 0 .7.3.7.6zm-1 7v-5.4h1v5.5h-1zM80.8 3583.7c0 1.4 1 2 2 2 .6 0 1-.2 1.4-.4l.2.7c-.3.2-1 .4-1.8.4-1.7 0-2.7-1-2.7-2.8 0-1.6.8-3 2.5-3s2.2 1.6 2.2 2.6v.5h-4zm3-.7c0-.7-.3-1.6-1.4-1.6-1 0-1.5 1-1.6 1.6h3zM86 3582.3v-1.5h.8v1c.4-.6 1-1.2 2-1.2.7 0 1.8.5 1.8 2.4v3.3h-1v-3.2c0-.8-.3-1.5-1.2-1.5-.7 0-1.2.4-1.4 1v3.8h-1v-4zM93.4 3579.2v1.6H95v.7h-1.6v3c0 .7.2 1 .8 1h.6v.8h-1c-.3 0-.7 0-1-.3-.2-.3-.3-.8-.3-1.5v-3h-1v-.7h1v-1.3l1-.3z"/>
  </g>
  <path fill="none" stroke="#000" stroke-width=".599994" stroke-miterlimit="10" d="M111.8 3582.8l-29 29-29.3-29 29.2-29z" stroke-dasharray="1.6 1.6"/>
  <g>
    <path d="M73.6 4019c-.3.2-1 .4-2 .4-2.2 0-3.8-1.4-3.8-4 0-2.3 1.6-4 4-4 1 0 1.6.3 1.8.4l-.2.8c-.4-.2-1-.3-1.6-.3-1.8 0-3 1.2-3 3.2 0 1.8 1 3 3 3 .6 0 1.2 0 1.6-.3l.2.8zM74.8 4011.2h1v8h-1v-8zM78.6 4012.2c0 .4-.2.6-.6.6-.4 0-.6-.2-.6-.6 0-.3.2-.6.6-.6.4 0 .6.3.6.6zm-1 7v-5.4h1v5.5h-1zM80.7 4016.7c0 1.4 1 2 2 2 .6 0 1-.2 1.4-.4l.3.7c-.4.2-1 .4-1.8.4-1.7 0-2.7-1-2.7-2.8s1-3 2.5-3c1.8 0 2.3 1.6 2.3 2.6v.5h-4zm3-.7c0-.7-.3-1.6-1.4-1.6-1 0-1.5 1-1.6 1.6h3zM85.8 4015.3v-1.5h1v1c.2-.6 1-1.2 1.8-1.2.7 0 2 .5 2 2.4v3.3h-1v-3.2c0-.8-.4-1.5-1.3-1.5-.7 0-1.2.4-1.4 1l-.2.5v3.3h-1v-4zM93.3 4012.2v1.6h1.4v.7h-1.4v3c0 .7.2 1 .8 1h.6v.7l-.8.2c-.5 0-.8-.2-1-.4-.4-.3-.5-.8-.5-1.5v-3h-.8v-.7h.8v-1.4l1-.2z"/>
  </g>
  <path fill="none" stroke="#000" stroke-width=".599994" stroke-miterlimit="10" d="M111.6 4016l-29 29-29.2-29 29-29.3z" stroke-dasharray="1.6 1.6"/>
  <path fill="none" stroke="#000" stroke-miterlimit="10" d="M82.7 3612v374.6"/>
  <g>
    <path fill="none" stroke="#000" stroke-width=".9" stroke-miterlimit="10" d="M152 3616.2H82.7"/>
    <path d="M150.7 3611.6l8 4.6-8 4.6"/>
  </g>
  <g>
    <path fill="none" stroke="#000" stroke-width=".6" stroke-miterlimit="10" d="M89.3 3976.7h69.3" stroke-dasharray="1.6 1.6"/>
    <path d="M90.6 3981.3l-8-4.6 8-4.6"/>
  </g>
  <path fill="#FFF" stroke="#000" stroke-width=".4" stroke-miterlimit="10" d="M161.7 3642.5h93.6v24.4h-93.6z"/>
  <text transform="translate(198.4 3619.475)" font-family="'MyriadPro-Light'" font-size="11.2">
    Start
  </text>
  <text transform="translate(170.72 3659.473)" font-family="'MyriadPro-Light'" font-size="11.2">
    json payload = {}
  </text>
  <path fill="#FFF" stroke="#000" stroke-width=".4" stroke-miterlimit="10" d="M107.3 3685.7h202.4v24.4H107.3z"/>
  <text transform="translate(118.652 3702.655)" font-family="'MyriadPro-Light'" font-size="11.2">
    string httpMethod = http:getMethod(m)
  </text>
  <path fill="#FFF" stroke="#000" stroke-width=".4" stroke-miterlimit="10" d="M96.2 3728.7h224.5v137H96.2z"/>
  <text transform="translate(107.64 3745.655)" font-family="'MyriadPro-Light'" font-size="11.2">
    If
  </text>
  <text transform="translate(175.986 3981.137)" font-family="'MyriadPro-Light'" font-size="11.2">
    reply response
  </text>
  <path fill="#FFF" stroke="#000" stroke-width=".4" stroke-miterlimit="10" d="M150.4 3882h117.8v24.4H150.4z"/>
  <text transform="translate(159.31 3898.6)" font-family="'MyriadPro-Light'" font-size="11.2">
    message response = {}
  </text>
  <path fill="#FFF" stroke="#000" stroke-width=".4" stroke-miterlimit="10" d="M97.8 3921.4h223v24.4h-223z"/>
  <text transform="translate(107.874 3938.035)" font-family="'MyriadPro-Light'" font-size="11.2">
    messages:setJsonPayload(response , payload)
  </text>
  <path fill="#FFF" stroke="#000" stroke-width=".4" stroke-miterlimit="10" d="M128.4 3728.7l-11 24.4M96.2 3753h224.6M107.3 3763h202.4v24.3H107.3z"/>
  <text transform="translate(115.65 3779.8)" font-family="'MyriadPro-Light'" font-size="11.2">
    payload = ‘{”Order”:{”ID” . “111999”, “Name”...
  </text>
  <text transform="translate(107.64 3814.498)" font-family="'MyriadPro-Light'" font-size="11.2">
    else
  </text>
  <path fill="#FFF" stroke="#000" stroke-width=".4" stroke-miterlimit="10" d="M141.2 3797.6l-11 24.3M96.2 3822h224.6M107.3 3831.8h202.4v24.4H107.3z"/>
  <text transform="translate(116.65 3848.758)" font-family="'MyriadPro-Light'" font-size="11.2">
    payload = ‘{”Status”. “Order is successfully...
  </text>
  <path fill="#FFF" stroke="#000" stroke-width=".4" stroke-miterlimit="10" d="M96.2 3797.6h224.6"/>
  <g>
    <path fill="none" stroke="#000" stroke-width=".4" stroke-miterlimit="10" d="M15.7 4140.8H484V4788H15.6z"/>
    <path fill="#FFF" stroke="#000" stroke-width=".4" stroke-miterlimit="10" d="M15.7 4141H484v16.7H15.6z"/>
    <path fill="#939598" d="M427 4151.2v-2.3h.7v2.8h-6v-6h3v.5h-2.5v5h5zm-.2-4.4l-.8-.7.4-.2 1.3 1.2-1 1.3-.5-.4.6-.7c-1.5 0-2.6.7-3.2 1.7l-.4.8v.8h-.6v-.2-.5l.3-.8.4-.7.8-.8 1-.6c.5 0 1 0 1.6-.2zM455 4151.2v-2.3h.7v2.8h-6v-6h3v.5h-.6-1.8v5h5zm.7-5.4v.4h-.3l-.6.2-.7.4c-1 .6-1.5 1.7-1.6 3l.6-.4.3.3-1.2 1.2-1.2-1.5.4-.3.7.8c0-.6 0-1 .2-1.6l.6-1c.2-.4.5-.6.7-.8l.8-.5h.7c.2-.2.3-.2.5-.2h.2zM462.6 4145.8h2.3v.7h1.4v.8H461v-.8h1.6v-.7zm-1 2h4.4v4h-4.5v-4zm1 .6v2.8h.6v-2.8h-.7zm1.7 0v2.8h.7v-2.8h-.7zM475.2 4150.4l-3-3 .4-.4 2.6 2.5 2.6-2.4.4.5-3 3z"/>
    <path fill="none" stroke="#000" stroke-width=".2" stroke-miterlimit="10" d="M447 4145.5v6.6M458.3 4145.2v6.5M469.2 4145.6v6.6"/>
    <path d="M15.7 4141h14.5v16.6H15.7z"/>
    <g fill="#FFF">
      <path d="M27 4150.6h-.5v-.2-.3s0-.2.2-.2v-.4H26l-.3-.4v-.4l-.2-.2H25v-.2-.3-.2h-.3s-.2 0-.3.2H24c0-.2 0-.3-.2-.4h-.3s0 .2-.2.3H23h-.2s0-.2-.2-.3h-.3v.4l-.4.3h-.2-.3-.2v.4s0 .3-.2.4h-.2l-.2.3.2.3v.4c-.2 0-.3.2-.3.2v.3h.2v.2s0 .2.2.3h-.2c0 .2 0 .2-.2.3v.5h.4c.2 0 .3.2.4.4 0 0 0 .2-.2.3 0 0 .2 0 .2.2.2 0 .3 0 .4-.2.2 0 .3.2.4.3v.4h1.1s0 .2.2.3h.3v-.3H24.8v.2c0-.2.2-.2.3-.3v-.3l.4-.3c.2 0 .3 0 .4.2 0 0 .2 0 .2-.2v-.4-.4H26.7v-.3-.2l-.2-.2v-.4l.5-.2v-.3zm-3.4 1c-.4 0-.8-.4-.8-.8 0-.5.4-1 .8-1 .5 0 1 .5 1 1s-.5.8-1 .8z"/>
      <path d="M23 4145.6h-.2s0-.2-.2-.3l.2-.2h-.3l-.3-.4v-.2-.2h-.3c0 .2-.2.2-.2 0h-.2v-.3c-.2 0-.2-.2-.3-.2 0 0 0 .2-.2.2H21v-.2h-.2-.2v.3l-.4.2-.2-.2h-.2v.4s0 .2-.2.2H19v.7h-.3V4146.5h.2v.4s-.2 0-.2.2v.2h.5s0 .2.2.2v.5l.3-.3s.2 0 .3.2v.2h.3v-.2h.5v.2h.4v-.2h.8v-.3s0-.2.2-.2h.3v-.2-.2-.2h.4v-.2l-.2-.2v-.3h.2v-.3zm-2 1c-.5 0-.8-.2-.8-.5 0-.2.2-.5.5-.5s.6.2.7.5c0 .3-.2.6-.5.6zM27.3 4146H27v-.2-.2h.2v-.3h-.6v-.2h-.2-.2v-.2-.2H26v.2h-.3v-.2h-.3v.2H25h-.4v.4h-.3v.4h-.2l-.2.2h.3v.4H24v.2h.3v.5h.2l.2.2v.2h.4v.4h.2v-.2h.3v.2h.3v-.2H26.6v-.2-.2h.4v-.2-.3h.2v-.2-.3-.3zm-1.6.6c-.2 0-.4 0-.4-.4 0-.2 0-.4.3-.4s.5 0 .5.3c0 .4 0 .6-.3.6z"/>
    </g>
    <g>
      <text transform="translate(35.547 4153.507)" font-family="'MyriadPro-Regular'" font-size="11.4">
        CustomerMgtService
      </text>
    </g>
  </g>
  <path fill="none" stroke="#000" stroke-width=".4" stroke-miterlimit="10" d="M24.3 4188.6h451.4v559H24.3z"/>
  <g>
    <path fill="#FFF" stroke="#000" stroke-width=".4" stroke-miterlimit="10" d="M24.3 4188.7h451.4v16.8H24.3z"/>
    <path fill="#939598" d="M435.7 4199v-2.3h.6v3h-6v-6h3v.4h-2.6v5h5zm-.3-4.4l-.8-.7.3-.4 1.3 1.2-1.2 1.3-.2-.3.5-.6c-1.5.2-2.5.8-3 1.8-.3.2-.4.5-.5.7 0 .3 0 .5-.2.7v.2h-.4v-.2-.5l.3-.7c0-.2.3-.5.5-.7l.7-.8 1-.6c.6-.2 1-.4 1.7-.4zM447 4199v-2.3h.5v3h-6v-6h3v.4h-2.6v5h5zm.5-5.4v.4h-.3l-.6.2-.7.4c-1 .6-1.7 1.7-1.8 3l.6-.4.3.3-1 1.2-1.4-1.4.4-.3.7.8c0-.6 0-1 .3-1.6l.6-1c.2-.4.5-.6.7-.8l.8-.5.8-.3h.7zM454.4 4193.6h2.3v.7h1.5v.8H453v-.7h1.4v-.7zm-1 2h4.4v4h-4.5v-4zm1 .6v2.8h.6v-2.8h-.7zm1.7 0v2.8h.8v-2.8h-.7zM467 4198.2l-3-3 .4-.4 2.6 2.5 2.6-2.4.4.3-3 3z"/>
    <path fill="none" stroke="#000" stroke-width=".2" stroke-miterlimit="10" d="M438.8 4193.3v6.6M450 4193v6.5M461 4193.4v6.6"/>
    <path d="M24.3 4188.7h14.5v16.7H24.3z"/>
    <path fill="#FFF" d="M35.6 4197h-.4v-.2-.4c0-.2 0-.3.2-.4v-.4h-.8c0-.2-.2-.3-.3-.5l.2-.3-.2-.4c-.2 0-.4 0-.5.2h-.2l-.4-.3v-.5l-.4-.2c-.2 0-.3.2-.4.3H32v-.5h-.2-.3l-.2.4c-.3 0-.4 0-.6.2v-.2c-.2 0-.3-.2-.3-.3H30v.8c-.3 0-.4.2-.6.3-.2 0-.3 0-.4-.2-.2 0-.3.2-.3.3v.4c.2 0 .2 0 0 0 0 .3 0 .4-.2.6H28v.4c-.2 0-.2 0 0 0 0 0 0 .2.2.3v.6H28h-.3v.5h.3v.3l.2.4c0 .2-.2.3-.3.4 0 0-.2 0 0 0v.4h.4l.4.5v.4c-.2 0-.2 0 0 0v.3h.2s.2 0 .3-.2h.2c0 .2.2.3.4.4v.5h.3c.2 0 .2 0 .3-.2h.6l.2.4h.4s0-.2.2-.3v-.2h.6l.3.3h.3v-.5l.5-.4.5.3.3-.3c0-.2 0-.3-.2-.4 0-.3.2-.4.3-.6h.6s0-.2.2-.3l-.4-.4c0-.2 0-.4.2-.6.2 0 .3 0 .4-.2v-.4zm-4 1.3c-.5 0-1-.4-1-1s.5-1 1-1c.6 0 1 .4 1 1s-.4 1-1 1z"/>
  </g>
  <g>
    <text transform="translate(44.114 4201.3)" font-family="'MyriadPro-Regular'" font-size="11.4">
      customers
    </text>
  </g>
  <g>
    <path d="M21 4163.6c.8-.8 1.8-1.2 3-1.2s2.2.4 3 1.2c.8 1 1.2 2 1.2 3s-.4 2.2-1.2 3c-.8 1-1.8 1.3-3 1.3s-2.2-.5-3-1.4c-.8-.8-1.2-1.8-1.2-3s.4-2 1.2-3zm1.6 4.6v-.2c-.3 0-.4-.2-.4-.4v-.2-.3-.4-.4-.3-.4c0-.2 0-.3.3-.3v-.3c-.4 0-.6.2-.6.6v.5c0 .2-.2.3-.3.3v.3s.2 0 .2.2v.7c0 .4 0 .5.5.5zm1.5-.4l1-2.3h-.4l-.4 1-.2.8s0-.4-.2-.7l-.4-1H23l.8 2.2h.3zm2.4-1v-.3c-.3 0-.3 0-.3-.3v-.3-.4c0-.4 0-.6-.5-.6v.3c.2 0 .3 0 .3.3v2.1c0 .2 0 .4-.3.4v.3c.4 0 .6-.2.6-.6v-.4-.3c0-.2 0-.2.3-.2z"/>
  </g>
  <path fill="#AEADAE" d="M29.6 4163.5h6v6h-6z"/>
  <g>
    <path fill="#FFF" d="M34.4 4166.2v.4h-1.7v1.7h-.4v-1.7h-1.7v-.4h1.7v-1.6h.4v1.6h1.7z"/>
  </g>
  <path fill="#FFF" stroke="#000" stroke-width=".6" stroke-miterlimit="10" d="M158.6 4244.8h100v24.4h-100z"/>
  <g>
    <text transform="translate(170.373 4260.838)" font-family="'MyriadPro-Regular'" font-size="11.4">
      ResourceWorker
    </text>
  </g>
  <path fill="none" stroke="#000" stroke-width=".4" stroke-miterlimit="10" d="M209.4 4269.3v420.3"/>
  <path fill="#FFF" stroke="#000" stroke-width=".4" stroke-miterlimit="10" d="M158.7 4645.6h101v24.4h-101zM158.6 4287h101v24.3h-101z"/>
  <path fill="#FFF" stroke="#000" stroke-width=".6" stroke-miterlimit="10" d="M158.6 4689.6h100v24.4h-100z"/>
  <g>
    <text transform="translate(170.72 4705.594)" font-family="'MyriadPro-Regular'" font-size="11.4">
      ResourceWorker
    </text>
  </g>
  <g>
    <path d="M73.7 4270.5c-.3.2-1 .4-2 .4-2.2 0-3.8-1.5-3.8-4 0-2.4 1.5-4 4-4 1 0 1.5.2 1.7.3l-.2.8-1.5-.2c-1.8 0-3 1.2-3 3.2 0 1.8 1 3 3 3 .5 0 1 0 1.5-.3l.2.8zM75 4262.7h1v8h-1v-8zM78.7 4263.7c0 .4-.2.6-.6.6-.3 0-.5-.2-.5-.6 0-.3.2-.6.6-.6.5 0 .7.4.7.7zm-1 7v-5.4h1v5.5h-1zM80.8 4268.2c0 1.3 1 2 2 2 .6 0 1-.2 1.4-.4l.2.7c-.3.2-1 .4-1.8.4-1.7 0-2.7-1.2-2.7-3 0-1.6.8-3 2.5-3s2.2 1.7 2.2 2.7v.5h-4zm3-.7c0-.7-.3-1.7-1.4-1.7-1 0-1.5 1-1.6 1.7h3zM86 4266.7v-1.4h.8v1c.4-.7 1-1.2 2-1.2.7 0 1.8.6 1.8 2.5v3.3h-1v-3.2c0-1-.3-1.6-1.2-1.6-.7 0-1.2.4-1.4 1v3.8h-1v-4zM93.4 4263.7v1.6H95v.7h-1.6v3c0 .7.2 1 .8 1h.6v.7l-1 .2c-.3 0-.7-.3-1-.5-.2-.3-.3-.8-.3-1.5v-3h-1v-.7h1v-1.4l1-.3z"/>
  </g>
  <path fill="none" stroke="#000" stroke-width=".599994" stroke-miterlimit="10" d="M111.8 4267.3l-29.2 29-29-29 29-29z" stroke-dasharray="1.6 1.6"/>
  <g>
    <path d="M73.6 4700c-.3.2-1 .4-2 .4-2.2 0-3.8-1.3-3.8-4 0-2.3 1.6-4 4-4 1 0 1.6.3 1.8.5l-.2.7c-.4-.2-1-.3-1.6-.3-1.8 0-3 1-3 3s1 3.2 3 3.2c.6 0 1.2 0 1.6-.3l.2.8zM74.8 4692.2h1v8h-1v-8zM78.6 4693.3c0 .3-.2.6-.6.6-.4 0-.6-.4-.6-.7 0-.4.2-.7.6-.7.4 0 .6.3.6.7zm-1 7v-5.5h1v5.5h-1zM80.7 4697.7c0 1.4 1 2 2 2 .6 0 1-.2 1.4-.3l.3.7c-.4.2-1 .4-1.8.4-1.7 0-2.7-1-2.7-2.8s1-3 2.5-3c1.8 0 2.3 1.7 2.3 2.7v.4h-4zm3-.7c0-.6-.3-1.6-1.4-1.6-1 0-1.5 1-1.6 1.6h3zM85.8 4696.3v-1.5h1v1c.2-.6 1-1 1.8-1 .7 0 2 .3 2 2.2v3.3h-1v-3.2c0-.8-.4-1.5-1.3-1.5-.7 0-1.2.5-1.4 1l-.2.5v3.3h-1v-4zM93.3 4693.2v1.6h1.4v.8h-1.4v3c0 .6.2 1 .8 1h.6v.7H94c-.5 0-.8 0-1-.3-.4-.3-.5-.8-.5-1.4v-3h-.8v-.8h.8v-1.3l1-.3z"/>
  </g>
  <path fill="none" stroke="#000" stroke-width=".599994" stroke-miterlimit="10" d="M111.7 4697l-29.2 29-29-29 29-29.2z" stroke-dasharray="1.6 1.6"/>
  <path fill="none" stroke="#000" stroke-miterlimit="10" d="M82.7 4296.4v371.3"/>
  <g>
    <path fill="none" stroke="#000" stroke-width=".9" stroke-miterlimit="10" d="M152 4300.7H82.7"/>
    <path d="M150.7 4296l8 4.7-8 4.6"/>
  </g>
  <g>
    <path fill="none" stroke="#000" stroke-width=".6" stroke-miterlimit="10" d="M89.3 4657.7h69.3" stroke-dasharray="1.6 1.6"/>
    <path d="M90.6 4662.3l-8-4.6 8-4.6"/>
  </g>
  <path fill="#FFF" stroke="#000" stroke-width=".4" stroke-miterlimit="10" d="M161.7 4327h93.6v24.4h-93.6z"/>
  <text transform="translate(198.4 4303.963)" font-family="'MyriadPro-Light'" font-size="11.2">
    Start
  </text>
  <text transform="translate(170.72 4343.96)" font-family="'MyriadPro-Light'" font-size="11.2">
    json payload = {}
  </text>
  <path fill="#FFF" stroke="#000" stroke-width=".4" stroke-miterlimit="10" d="M107.3 4370.2h202.4v24.4H107.3z"/>
  <text transform="translate(118.652 4387.143)" font-family="'MyriadPro-Light'" font-size="11.2">
    string httpMethod = http:getMethod(m)
  </text>
  <path fill="#FFF" stroke="#000" stroke-width=".4" stroke-miterlimit="10" d="M96.2 4413.2h224.5v137H96.2z"/>
  <text transform="translate(107.64 4430.143)" font-family="'MyriadPro-Light'" font-size="11.2">
    If
  </text>
  <text transform="translate(175.986 4662.177)" font-family="'MyriadPro-Light'" font-size="11.2">
    reply response
  </text>
  <path fill="#FFF" stroke="#000" stroke-width=".4" stroke-miterlimit="10" d="M150.4 4566.5h117.8v24.4H150.4z"/>
  <text transform="translate(159.31 4583.088)" font-family="'MyriadPro-Light'" font-size="11.2">
    message response = {}
  </text>
  <path fill="#FFF" stroke="#000" stroke-width=".4" stroke-miterlimit="10" d="M97.8 4606h223v24.3h-223z"/>
  <text transform="translate(107.874 4622.523)" font-family="'MyriadPro-Light'" font-size="11.2">
    messages:setJsonPayload(response , payload)
  </text>
  <path fill="#FFF" stroke="#000" stroke-width=".4" stroke-miterlimit="10" d="M128.4 4413.2l-11 24.4M96.2 4437.6h224.6M107.3 4447.4h202.4v24.4H107.3z"/>
  <text transform="translate(115.65 4464.287)" font-family="'MyriadPro-Light'" font-size="11.2">
    payload = ‘ {”Order”:{”ID” . “987654”, “N...
  </text>
  <text transform="translate(107.64 4498.986)" font-family="'MyriadPro-Light'" font-size="11.2">
    else
  </text>
  <path fill="#FFF" stroke="#000" stroke-width=".4" stroke-miterlimit="10" d="M141.2 4482l-11 24.4M96.2 4506.4h224.6M107.3 4516.3h202.4v24.4H107.3z"/>
  <text transform="translate(115.65 4533.246)" font-family="'MyriadPro-Light'" font-size="11.2">
    payload = ‘{”Status”. “Customer is successf...
  </text>
  <path fill="#FFF" stroke="#000" stroke-width=".4" stroke-miterlimit="10" d="M96.2 4482h224.6"/>
</svg>
