<svg xmlns="http://www.w3.org/2000/svg" width="500" height="631.21"><path fill="none" stroke="#000" stroke-width=".56" stroke-miterlimit="10" d="M19.98 70.87h459.97v538.17H19.98z"/><path fill="#FFF" stroke="#000" stroke-width=".54" stroke-miterlimit="10" d="M9.86 9.35H491.9v21H9.87z"/><path fill="#939598" d="M441.8 22.23V19.3h.72v3.66h-7.54v-7.54h3.76v.73h-1.9c-.54-.02-.92-.02-1.15-.02v6.1h6.1zm-.43-5.5l-.94-.86.4-.44 1.7 1.55-1.44 1.58-.5-.4.7-.82c-1.9.2-3.2.9-4 2.12-.2.3-.4.6-.5.95-.1.4-.2.6-.2.8v.3h-.6v-.2l.1-.6c0-.3.1-.6.3-.9.1-.3.3-.6.6-.9.2-.3.5-.6.9-.9s.8-.5 1.4-.7c.6-.2 1.2-.3 1.9-.4zm14.43 5.5V19.3h.72v3.66h-7.54v-7.54h3.76v.7h-3.05v6.1h6.1zm.72-6.8V16c-.08 0-.18.02-.3.04-.14 0-.38.07-.74.2-.36.1-.7.25-1 .45-1.22.7-1.92 2.1-2.1 3.9l.8-.7.42.4-1.6 1.4-1.53-1.7.42-.4.8.9c0-.7.2-1.4.4-1.9.2-.6.4-1.1.7-1.4s.6-.7.9-1c.3-.3.6-.5 1-.6.3-.2.6-.3.8-.3.2-.1.4-.2.6-.2h.2zm8.68 0h2.85v.9h1.87v.98h-6.6v-.9h1.88v-.9zm-1.4 2.63h5.67v4.9h-5.68v-4.9zm1.27.62v3.6h.86v-3.6h-.86zm2.25 0v3.6h.86v-3.6h-.86zm13.58 2.55l-3.75-3.65.56-.57 3.2 3.1 3.3-3 .6.6-3.8 3.6z"/><path fill="none" stroke="#000" stroke-width=".25" stroke-miterlimit="10" d="M431.3 15.26v8.16m14.35-7.75v8.17m14.15-8.58v8.16m13.68-8.16v8.16"/><path d="M9.82 9.35H27.9v20.9H9.82z"/><path fill="#FFF" d="M21.86 16.75l-.1.4h-.92l-.68 2.72c-.32 1.2-.62 2.12-.93 2.78-.43.92-.9 1.56-1.4 1.9-.38.27-.75.4-1.13.4-.26 0-.47-.06-.64-.22-.13-.1-.2-.24-.2-.4 0-.14.05-.25.16-.34.1-.1.23-.2.38-.2.12 0 .22 0 .3.1.07 0 .1.1.1.2s-.03.1-.13.2c-.06 0-.1.1-.1.1l.06.1h.16c.1 0 .3-.1.5-.2s.3-.3.5-.5c.1-.2.3-.5.4-1l.4-1.8 1.1-4.2h-1.1l.1-.4c.3 0 .5 0 .7-.1.1-.1.2-.1.3-.3.1-.1.3-.4.4-.8.2-.5.5-.9.7-1.2.3-.4.6-.7.9-.8.3-.2.6-.3 1-.3.3 0 .5.1.7.2.2.1.3.3.3.5s-.1.3-.2.4c-.1.1-.2.1-.4.1s-.3-.1-.4-.1c-.1-.1-.2-.2-.2-.3 0-.1 0-.2.1-.3l.1-.2c0-.1-.1-.1-.1-.18l-.2-.04c-.3 0-.5.1-.7.3-.3.2-.6.54-.8 1-.1.24-.3.86-.6 1.84h.9z"/><path d="M35.32 49.77c1.04-1.04 2.3-1.56 3.75-1.56 1.47 0 2.72.6 3.76 1.6 1.03 1.1 1.55 2.3 1.55 3.8s-.52 2.7-1.55 3.8c-1.03 1.1-2.3 1.6-3.76 1.6s-2.7-.5-3.75-1.5c-1.04-1-1.55-2.3-1.55-3.7 0-1.4.5-2.7 1.55-3.7zm2.03 5.78v-.37h-.14c-.2 0-.3-.13-.3-.4l.1-.33c.1-.12.1-.25.1-.4 0-.27-.1-.45-.3-.53.2-.1.3-.3.3-.56v-.73c0-.25.1-.37.4-.37h.2v-.38h-.1c-.5 0-.8.24-.8.7 0 .05 0 .18.1.4v.02c.1.18.1.32.1.42 0 .22-.1.33-.3.33v.33h.1c.3 0 .4.1.4.34v.8c0 .5.3.73.8.73h.1zm1.9-.58l1.05-2.9h-.48l-.5 1.43c-.12.36-.2.65-.27.9-.05-.22-.14-.5-.27-.9l-.45-1.43h-.48l.95 2.9h.46zm2.8-1.28v-.4H42c-.24 0-.35-.1-.35-.4 0-.1 0-.3.04-.4v-.4c0-.5-.3-.7-.8-.7h-.2v.3h.1c.2 0 .3.1.3.3 0 .1 0 .2-.1.3l-.1.1v.3c0 .3.1.4.3.5-.2.1-.3.3-.3.6v.7c0 .2-.1.4-.4.4h-.2v.3h.1c.5 0 .8-.3.8-.8V54l-.1-.4c0-.2.1-.3.3-.3v-.04z"/><path fill="#AEADAE" d="M46.1 49.63h7.37V57H46.1z"/><path fill="#FFF" d="M52.07 53.04v.5h-2.1v2.1h-.5v-2.1h-2.1v-.5h2.1v-2.1h.5v2.1h2.1z"/><path fill="#EFEFEF" d="M55.18 48.17h10.67v10.67H55.18z"/><path fill="#8D8D8D" d="M58.6 53.3l2.96-3.03.46.45-2.52 2.6 2.5 2.6-.5.46-2.9-3.07z"/><path fill="none" stroke="#000" stroke-width=".57" stroke-miterlimit="10" d="M9.87 30.43H491.9v589.3H9.87z"/><path fill="#FFF" stroke="#000" stroke-width=".52" stroke-miterlimit="10" d="M20 70.92h459.95v21H20z"/><path fill="#939598" d="M429.94 83.8l-.02-2.9h.72v3.64h-7.53V77h3.8v.72h-3v6.08h6.1zm-.44-5.5l-.94-.86.4-.44 1.7 1.56-1.44 1.58-.43-.42.6-.8c-1.9.18-3.2.9-4 2.1-.2.3-.4.63-.5.96-.1.34-.2.6-.2.8l-.1.27h-.6v-.24l.1-.6c.1-.3.2-.6.3-.8.1-.3.3-.6.6-.9.2-.3.5-.6.9-.9s.8-.5 1.4-.7c.5-.2 1.2-.3 1.9-.4zm14.44 5.5l-.02-2.9.72-.03v3.67h-7.53V77h3.8v.7h-3v6.1h6.1zm.7-6.8v.6h-.3l-.73.2c-.3.12-.6.27-1 .47-1.2.78-1.9 2.1-2.1 3.96l.9-.68.4.43-1.6 1.42-1.5-1.67.5-.42.9 1c.1-.7.2-1.3.4-1.9.2-.6.5-1 .8-1.4s.6-.6.9-.9l1-.6.9-.3.6-.1h.3zm8.7 0h2.84v.9h1.87v1h-6.6v-1h1.88V77zm-1.43 2.64h5.7v4.9h-5.7v-4.9zm1.3.6v3.6h.9v-3.6h-.8zm2.3.02v3.6h.9v-3.6h-.8zm13.6 2.54l-3.7-3.64.6-.58 3.2 3.1 3.3-3.05.6.6-3.7 3.58z"/><path fill="none" stroke="#000" stroke-width=".25" stroke-miterlimit="10" d="M433.8 76.7v8.18m14.15-8.58v8.16m13.65-7.63V85"/><path d="M19.97 70.92h18.08v20.9H19.97z"/><path fill="#FFF" d="M32 78.33l-.1.4H31l-.7 2.72c-.3 1.2-.62 2.12-.92 2.78-.43.92-.9 1.56-1.4 1.9-.38.27-.76.4-1.13.4-.26 0-.47-.07-.64-.22-.1-.1-.2-.2-.2-.4 0-.1.1-.2.2-.3.1-.1.3-.1.4-.1.1 0 .2.1.3.1.1.1.1.2.1.3 0 .1 0 .2-.1.3 0 .1-.1.1-.1.2l.1.1.2.1c.2 0 .4 0 .6-.1.2-.1.4-.3.6-.5.2-.2.3-.5.4-.9l.3-2 1.1-4.2H29l.1-.4h.7c.14 0 .27-.1.4-.3.1-.1.24-.3.42-.7.24-.5.47-.9.7-1.1.3-.3.6-.6.96-.8.34-.1.66-.2.97-.2.3 0 .56 0 .75.2.2.1.3.3.3.5 0 .1-.06.2-.16.3s-.22.1-.35.1c-.2 0-.3 0-.4-.1s-.1-.2-.1-.3c0-.1 0-.2.1-.3v-.2c0-.1-.1-.1-.1-.2L33 75c-.3 0-.5.1-.7.26-.3.2-.6.54-.8 1-.1.2-.3.84-.6 1.8h.9z"/><path d="M45.47 111.34c1.04-1.03 2.3-1.55 3.75-1.55 1.47 0 2.72.5 3.76 1.5 1.03 1 1.55 2.3 1.55 3.7s-.52 2.7-1.55 3.7c-1.04 1-2.3 1.5-3.76 1.5s-2.7-.6-3.75-1.6c-1.04-1.1-1.55-2.3-1.55-3.8s.5-2.8 1.55-3.8zm2.03 5.8v-.4h-.14c-.24 0-.36-.12-.36-.38l.05-.33c.02-.13.04-.26.04-.4 0-.27-.1-.45-.3-.53.2-.1.3-.3.3-.56 0-.13-.1-.25-.1-.38-.1-.12-.1-.24-.1-.35 0-.2.1-.3.3-.3h.1v-.4h-.2c-.5 0-.8.3-.8.7v.8c0 .3-.1.4-.4.4v.4h.1c.2 0 .3.1.3.4 0 .1 0 .2-.1.4v.4c0 .5.2.8.8.8h.1zm1.9-.6l1.05-2.9h-.48l-.5 1.44c-.12.35-.2.65-.27.9-.05-.22-.14-.52-.27-.9l-.45-1.44H48l.95 2.9h.46zm2.8-1.28v-.33h-.05c-.24 0-.36-.1-.36-.33v-.84c0-.46-.3-.7-.8-.7h-.2v.38h.2c.2 0 .3.12.3.37v.3l-.1.1-.1.4c0 .3.1.5.3.6-.2.1-.3.3-.3.6v.4l.1.1v.3c0 .3-.1.4-.4.4h-.2v.4h.1c.5 0 .8-.2.8-.7l-.1-.4-.1-.4c0-.2.1-.3.3-.3h.1z"/><path fill="#AEADAE" d="M56.25 111.2h7.37v7.38h-7.37z"/><path fill="#FFF" d="M62.22 114.62v.5h-2.1v2.1h-.5v-2.1h-2.1v-.5h2.1v-2.1h.5v2.1h2.1z"/><path fill="#EFEFEF" d="M65.33 109.75H76v10.67H65.33z"/><path fill="#8D8D8D" d="M68.75 114.9l2.96-3.05.5.45-2.5 2.6 2.5 2.6-.5.45-2.9-3.06z"/><path fill="#FFF" stroke="#000" stroke-width="2" stroke-miterlimit="10" d="M128.02 135.23h89.7v21.88H128z"/><path d="M137.84 142.24c.48-.1 1.17-.16 1.83-.16 1.03 0 1.7.2 2.15.6.37.34.58.84.58 1.42 0 .97-.6 1.62-1.4 1.9v.02c.58.2.92.73 1.1 1.5.24 1.03.4 1.75.57 2.03h-1c-.1-.2-.28-.84-.5-1.77-.2-1.02-.6-1.4-1.47-1.44h-.9v3.2h-.96v-7.3zm.95 3.37h.9c1 0 1.7-.5 1.7-1.4 0-.9-.7-1.3-1.7-1.3-.5 0-.8.1-1 .1v2.7zm5.5 1.5c0 1.3.8 1.9 1.8 1.9.7 0 1.1-.1 1.5-.2l.1.7c-.4.2-.9.3-1.8.3-1.7 0-2.6-1.1-2.6-2.7s.9-2.8 2.5-2.8c1.7 0 2.2 1.6 2.2 2.5 0 .2-.1.4-.1.5h-3.8zm2.8-.7c0-.6-.3-1.5-1.4-1.5-1 0-1.4.9-1.5 1.6h2.8zm2 2.2c.3.2.8.4 1.3.4.7 0 1-.4 1-.8 0-.5-.3-.7-1-1-1-.3-1.4-.8-1.4-1.5 0-.8.7-1.5 1.8-1.5.5 0 1 .2 1.3.4l-.3.7c-.2-.1-.6-.3-1.1-.3-.6 0-.9.3-.9.7 0 .5.3.7 1 .9.9.4 1.4.8 1.4 1.6 0 1-.8 1.6-2 1.6-.6 0-1.1-.1-1.5-.3l.2-.7zm9.3-1.7c0 2-1.4 2.8-2.7 2.8-1.5 0-2.6-1-2.6-2.7 0-1.8 1.1-2.8 2.6-2.8s2.5 1.2 2.5 2.8zm-4.2.1c0 1.2.6 2.1 1.6 2.1.9 0 1.6-.8 1.6-2 0-.9-.5-2-1.6-2-1.2 0-1.7 1.1-1.7 2.1zm9.9 1.2v1.5h-.9l-.1-.8c-.3.5-.8 1-1.8 1-.9 0-1.9-.4-1.9-2.3v-3.1h.9v3c0 1 .3 1.7 1.2 1.7.6 0 1.1-.5 1.2-.9 0-.1.1-.3.1-.5v-3.3h.9v3.9zm1.6-2.2c0-.6 0-1.1-.1-1.6h.8v1.1c.2-.7.8-1.1 1.5-1.1.1 0 .1.1.2.1v.9h-.3c-.7 0-1.2.5-1.3 1.2l-.1.5v2.8h-1V146zm7.2 3.5c-.3.2-.8.3-1.5.3-1.7 0-2.7-1.1-2.7-2.7s1.1-2.8 2.8-2.8c.5 0 1 .2 1.3.3l-.2.8c-.3-.1-.6-.2-1.1-.2-1.3 0-1.9.9-1.9 2 0 1.3.8 2 1.8 2 .5 0 .9-.1 1.2-.2l.1.8zm1.6-2.3c0 1.3.8 1.9 1.8 1.9.7 0 1.1-.1 1.4-.2l.1.7c-.4.2-1 .3-1.8.3-1.7 0-2.6-1.1-2.6-2.7s.9-2.8 2.5-2.8c1.7 0 2.2 1.5 2.2 2.5 0 .2-.1.4-.1.5h-3.8zm2.8-.7c0-.6-.3-1.5-1.4-1.5-1 0-1.4.9-1.5 1.6h2.8zm3.4 3.2l-1.9-7.4h1l.8 3.8c.2.9.4 1.9.5 2.6.1-.7.3-1.6.6-2.5l1-3.7h1l.9 3.8c.2.9.4 1.8.5 2.6.1-.8.3-1.6.6-2.6l.9-3.7h.9l-2.1 7.4h-1l-1-3.8c-.2-.9-.4-1.7-.5-2.4-.1.8-.3 1.5-.6 2.4l-1.1 3.9h-1zm12.5-2.7c0 2-1.4 2.8-2.7 2.8-1.5 0-2.6-1-2.6-2.7 0-1.8 1.2-2.8 2.6-2.8 1.5 0 2.5 1.2 2.5 2.8zm-4.2.1c0 1.2.6 2.1 1.6 2.1.9 0 1.6-.8 1.6-2 0-.9-.5-2-1.6-2-1.2 0-1.7 1.1-1.7 2.1zm5.4-1c0-.6 0-1.1-.1-1.6h.8v1.1c.2-.7.8-1.1 1.4-1.1.1 0 .2 0 .3.1v.9h-.3c-.7 0-1.2.5-1.3 1.3-.1.2-.1.3-.1.5v2.8h-1v-4zm4.6.8c.1-.2.3-.4.4-.6l1.6-1.8h1.1l-2.1 2.2 2.3 3.1h-1.2l-1.9-2.5-.5.6v2h-.9V142h1v4.93zm4.7.4c0 1.3.8 1.9 1.8 1.9.7 0 1.1-.1 1.4-.2l.2.7c-.4.2-1 .3-1.8.3-1.7 0-2.6-1.1-2.6-2.7s.9-2.8 2.5-2.8c1.7 0 2.2 1.6 2.2 2.5 0 .2-.1.4-.1.5h-3.8zm2.8-.7c0-.6-.3-1.5-1.4-1.5-1 0-1.4.9-1.5 1.6h2.8zm2.1-.4c0-.6 0-1.1-.1-1.6h.9v1.1c.3-.7.8-1.1 1.5-1.1.1 0 .2 0 .3.1v.9h-.3c-.7 0-1.2.5-1.3 1.3l-.1.4v2.8h-1v-4z"/><path fill="#FFF" stroke="#000" stroke-width=".5" stroke-miterlimit="10" d="M128.02 172.93h90.63v21.84h-90.63z"/><path fill="none" stroke="#000" stroke-miterlimit="10" d="M173.54 157.1v15.83"/><path fill="#FFF" stroke="#000" stroke-width=".5" stroke-miterlimit="10" d="M128.12 249.03h90.63v21.84h-90.63z"/><path d="M144.5 265.08c.45-.03.83-.15 1.06-.4.27-.3.37-.73.37-2v-4.46h.96v4.83c0 1.03-.2 1.7-.7 2.2-.5.42-1.2.6-1.7.6l-.1-.77zm2.5-8.36c.02.32-.22.6-.6.6-.36 0-.6-.28-.6-.6 0-.34.26-.6.62-.6.35 0 .6.26.6.6zm1.35 5.83c.28.2.8.4 1.27.4.7 0 1.04-.36 1.04-.8 0-.47-.28-.72-1-.98-.95-.34-1.4-.87-1.4-1.5 0-.87.7-1.57 1.84-1.57.53 0 1 .15 1.3.33l-.24.7c-.2-.13-.6-.3-1.1-.3-.56 0-.88.32-.88.72 0 .44.32.64 1 .9.94.35 1.4.82 1.4 1.6 0 .94-.72 1.6-1.98 1.6-.58 0-1.12-.14-1.5-.36l.25-.8zm9.3-1.7c0 1.96-1.36 2.8-2.65 2.8-1.44 0-2.55-1.04-2.55-2.73 0-1.78 1.17-2.82 2.64-2.82 1.5 0 2.5 1.1 2.5 2.74zm-4.22.04c0 1.1.67 2 1.62 2 .92 0 1.6-.9 1.6-2.1 0-.9-.44-2.1-1.58-2.1-1.15 0-1.64 1-1.64 2zm5.44-1.3c0-.6 0-1-.04-1.5h.86v.9c.2-.5.9-1 1.7-1 .7 0 1.9.4 1.9 2.2v3.2h-1v-3.1c0-.9-.4-1.6-1.3-1.6-.7 0-1.2.4-1.3 1-.1.1-.1.2-.1.4v3.2h-1v-3.9zm12.4.6c-.07-1.1-.13-2.3-.1-3.3h-.05c-.26.8-.56 1.8-.94 2.8l-1.3 3.6h-.73l-1.2-3.6c-.35-1.1-.65-2-.86-2.9h-.1c-.1.9-.1 2.2-.2 3.3l-.2 3.1h-.9l.5-7.4h1.2l1.3 3.5c.3.9.6 1.7.7 2.5.2-.8.4-1.6.8-2.5l1.3-3.6h1.2l.4 7.4h-1l-.2-3.2zm2.43 2.2c.28.2.78.4 1.27.4.7 0 1.03-.4 1.03-.8 0-.5-.28-.7-1-1-.95-.4-1.4-.9-1.4-1.5 0-.9.7-1.6 1.84-1.6.54 0 1 .1 1.3.3l-.23.7c-.2-.2-.6-.3-1-.3-.5 0-.9.3-.9.7 0 .4.4.6 1 .9.9.3 1.4.8 1.4 1.6 0 .9-.7 1.6-2 1.6-.6 0-1.1-.1-1.5-.4l.3-.8zm9.07-4.4c-.03.4-.05.8-.05 1.4v3.1c0 1.2-.24 1.9-.76 2.4-.5.5-1.26.6-1.93.6-.64 0-1.35-.2-1.78-.5l.25-.8c.35.2.9.4 1.56.4 1 0 1.7-.5 1.7-1.9v-.6c-.3.5-.88.9-1.7.9-1.32 0-2.27-1.1-2.27-2.6 0-1.8 1.1-2.8 2.4-2.8.9 0 1.4.4 1.6.9v-.8h.8zm-1 2.1c0-.2-.02-.3-.06-.5-.1-.6-.6-1-1.3-1-.9 0-1.6.8-1.6 2 0 1 .6 1.9 1.6 1.9.6 0 1.1-.4 1.4-1 .1-.2.1-.4.1-.5v-1zm2.2-.5v-.6h5.67v.6h-5.68zm0 2.1v-.7h5.67v.6h-5.68zm6.9-2.4c0-.6 0-1-.03-1.4h.85v.8c.3-.5.8-1 1.7-1 .7 0 1.2.4 1.5 1 .1-.3.4-.5.6-.7.3-.2.6-.4 1.1-.4.7 0 1.7.4 1.7 2.3v3.1h-1v-3c0-1.1-.4-1.7-1.2-1.7-.6 0-1 .4-1.1.9-.1.1-.1.3-.1.5v3.3h-.9v-3c0-.9-.4-1.5-1.1-1.5-.6 0-1.1.4-1.2.9-.1.1-.1.3-.1.5v3.2h-1v-3.9zm8.96 3.3c0-.4.27-.7.66-.7.3 0 .6.3.6.7 0 .4-.3.7-.7.7-.4 0-.7-.3-.7-.7zm2.27 0c0-.4.28-.7.66-.7.4 0 .65.3.65.7 0 .4-.2.7-.6.7-.4 0-.6-.3-.6-.7zm2.28 0c0-.4.28-.7.66-.7.4 0 .65.3.65.7 0 .4-.3.7-.7.7-.4 0-.7-.3-.7-.7z"/><path fill="#FFF" stroke="#000" stroke-width=".5" stroke-miterlimit="10" d="M129.1 484.07h89.7v21.88h-89.7z"/><path d="M51.92 156.8c-.32.17-.97.33-1.8.33-1.94 0-3.4-1.22-3.4-3.48 0-2.15 1.46-3.6 3.58-3.6.86 0 1.4.18 1.63.3l-.2.73c-.35-.17-.82-.3-1.4-.3-1.6 0-2.67 1.04-2.67 2.84 0 1.7.96 2.76 2.63 2.76.5 0 1-.1 1.4-.28l.2.7zm1.08-7h.9v7.23H53v-7.24zm3.4.9c.02.32-.2.56-.56.56-.32 0-.55-.24-.55-.55 0-.3.2-.5.5-.5s.5.3.5.6zm-1 6.33v-4.93h.9v4.93h-.9zm2.9-2.3c0 1.2.78 1.7 1.68 1.7.64 0 1.03-.1 1.37-.25l.15.64c-.32.15-.86.3-1.64.3-1.52 0-2.43-1-2.43-2.48s.88-2.66 2.32-2.66c1.6 0 2.03 1.42 2.03 2.33 0 .2-.02.4-.03.5H58.3zm2.62-.65c0-.57-.24-1.46-1.25-1.46-.9 0-1.3.84-1.37 1.46h2.62zm1.98-.65c0-.5-.02-.93-.05-1.33h.8l.05.8h.02c.24-.46.8-.92 1.63-.92.68 0 1.74.4 1.74 2.1v2.95h-.9v-2.85c0-.8-.3-1.45-1.2-1.45-.6 0-1.1.42-1.2.9-.1.13-.1.28-.1.43v2.97h-.9v-3.6zm6.68-2.75v1.42h1.3v.68h-1.3v2.66c0 .6.18.95.68.95.23 0 .4-.1.52-.1l.04.6c-.17 0-.45.1-.8.1-.4 0-.75-.2-.96-.4-.26-.3-.35-.7-.35-1.3v-2.7H68v-.6h.76v-1.2l.88-.3z"/><path fill="none" stroke="#000" stroke-width=".57" stroke-miterlimit="10" d="M86.06 155.33l-26.1 26.12-26.12-26.12 26.1-26.1z"/><path d="M51.82 564.14c-.32.17-.97.33-1.8.33-1.95 0-3.4-1.22-3.4-3.47 0-2.15 1.45-3.6 3.58-3.6.86 0 1.4.17 1.63.3l-.2.72c-.35-.16-.82-.3-1.4-.3-1.6 0-2.67 1.04-2.67 2.85 0 1.68.96 2.76 2.63 2.76.5 0 1-.1 1.4-.3l.2.7zm1.08-7h.9v7.23h-.9v-7.24zm3.4.9c.02.3-.2.56-.57.56-.3 0-.54-.24-.54-.55 0-.3.2-.56.5-.56s.5.2.5.5zm-1 6.33v-4.93h.9v4.93h-.9zm2.9-2.3c0 1.2.78 1.7 1.68 1.7.64 0 1.03-.1 1.36-.25l.16.65c-.32.14-.86.3-1.64.3-1.52 0-2.43-1-2.43-2.48 0-1.5.88-2.7 2.32-2.7 1.6 0 2.03 1.4 2.03 2.3 0 .2-.02.3-.03.4H58.2zm2.62-.65c0-.57-.24-1.45-1.25-1.45-.9 0-1.3.83-1.37 1.45h2.62zm1.98-.65c0-.5-.02-.93-.05-1.33h.8l.05.8h.02c.24-.46.8-.92 1.63-.92.68 0 1.74.4 1.74 2.1v2.95h-.9v-2.84c0-.8-.3-1.46-1.2-1.46-.6 0-1.1.4-1.2.9-.1.13-.1.28-.1.43v2.97h-.9v-3.6zm6.68-2.75v1.42h1.3v.68h-1.3v2.66c0 .6.18.96.68.96.23 0 .4-.03.52-.06l.04.67c-.17.07-.45.12-.8.12-.4 0-.75-.13-.96-.38-.26-.3-.35-.7-.35-1.3v-2.7h-.7v-.7h.8v-1.2l.9-.2z"/><path fill="none" stroke="#000" stroke-width=".57" stroke-miterlimit="10" d="M85.97 562.66l-26.12 26.1-26.1-26.1 26.1-26.1z"/><path fill="none" stroke="#000" stroke-miterlimit="10" d="M59.95 181.44v355.12"/><path fill="none" stroke="#000" stroke-width=".83" stroke-miterlimit="10" d="M122.1 185.28H59.94"/><path d="M120.88 181.16l7.14 4.12-7.14 4.13"/><path fill="#FFF" stroke="#000" stroke-width=".5" stroke-miterlimit="10" d="M245.04 135.3h89.7v21.88h-89.7zm-116.2 223.37h89.7v21.88h-89.7z"/><path fill="none" stroke="#000" stroke-width=".5" stroke-miterlimit="10" d="M290.14 157.1v365.1"/><path d="M258.23 142.3v2.84h3.27v-2.83h.88v6.8h-.88V146h-3.27v3.18h-.88v-6.76h.88zm6.95.75h-2.05v-.75h5v.75h-2.06v6.02h-.9v-6.02zm5.38 0h-2.06v-.75h5v.75h-2.06v6.02h-.9v-6.02zm3.7-.67c.42-.07.97-.13 1.68-.13.86 0 1.5.2 1.9.57.36.32.6.8.6 1.4 0 .63-.2 1.1-.54 1.46-.46.5-1.2.74-2.06.74-.27 0-.5 0-.7-.06v2.7h-.88v-6.68zm.87 3.27c.2.05.43.07.73.07 1.05 0 1.7-.5 1.7-1.45 0-.9-.64-1.32-1.6-1.32-.4 0-.68.03-.83.07v2.63zm9.2 3.2c-.32.17-.96.33-1.8.33-1.9 0-3.33-1.2-3.33-3.43 0-2.12 1.43-3.56 3.53-3.56.84 0 1.38.1 1.6.3l-.2.7c-.33-.2-.8-.3-1.37-.3-1.6 0-2.64 1-2.64 2.8 0 1.6.95 2.7 2.6 2.7.53 0 1.08-.1 1.43-.3l.18.7zm5.35-2.25c0 1.8-1.24 2.6-2.42 2.6-1.3 0-2.33-.98-2.33-2.52 0-1.62 1.06-2.58 2.4-2.58 1.4 0 2.35 1.02 2.35 2.5zm-3.86.05c0 1.07.62 1.87 1.48 1.87.84 0 1.48-.8 1.48-1.9 0-.8-.4-1.85-1.46-1.85s-1.5.96-1.5 1.88zm4.98-1.12c0-.5-.02-.92-.05-1.32h.8l.03.9h.03c.3-.4.8-.9 1.6-.9.7 0 1.8.4 1.8 2.1v2.9h-.9v-2.8c0-.7-.3-1.4-1.1-1.4-.6 0-1 .4-1.2.9v3.4h-.9v-3.5zm5.56 0c0-.5 0-.92-.04-1.32h.8l.04.9h.02c.24-.4.8-.9 1.6-.9.68 0 1.72.4 1.72 2.1v2.9h-.88v-2.8c0-.7-.3-1.4-1.13-1.4-.6 0-1.1.4-1.2.9-.1.1-.1.3-.1.4v3h-.9v-3.5zm6.07 1.27c.02 1.2.78 1.7 1.67 1.7.63 0 1-.12 1.34-.26l.15.63c-.4.15-.9.3-1.7.3-1.5 0-2.4-.98-2.4-2.44 0-1.47.9-2.63 2.3-2.63 1.6 0 2 1.4 2 2.3 0 .17 0 .3-.1.4h-3.4zm2.6-.63c0-.56-.24-1.43-1.24-1.43-.9 0-1.3.82-1.4 1.43h2.6zm5.4 2.73c-.23.1-.74.27-1.4.27-1.46 0-2.42-1-2.42-2.48 0-1.5 1.1-2.6 2.7-2.6.5 0 1 .1 1.3.2l-.2.7c-.2-.2-.5-.3-1-.3-1.1 0-1.7.8-1.7 1.8 0 1.1.7 1.8 1.7 1.8.5 0 .8-.2 1.1-.3l.2.6zm2.23-6.08v1.4h1.26v.66h-1.26v2.63c0 .6.17 1 .66 1h.5l.05.7c-.17.1-.44.1-.78.1-.5 0-.8-.1-1-.3-.3-.2-.4-.7-.4-1.2V145h-.7v-.7h.7v-1.16l.8-.22zm6.6 3.78c0 1.8-1.25 2.6-2.43 2.6-1.3 0-2.33-.98-2.33-2.52 0-1.62 1.07-2.58 2.4-2.58 1.4 0 2.36 1.02 2.36 2.5zm-3.86.05c0 1.07.6 1.87 1.47 1.87.85 0 1.48-.8 1.48-1.9 0-.8-.4-1.85-1.46-1.85s-1.5.96-1.5 1.88zm4.97-.92c0-.57 0-1.06-.05-1.52h.78l.03 1h.04c.22-.6.75-1 1.34-1 .2 0 .2 0 .3.1v.9h-.3c-.6 0-1 .5-1.2 1.2v3h-.9V146z"/><path fill="none" stroke="#000" stroke-width=".5" stroke-miterlimit="10" d="M401.97 364h-182.5"/><path d="M401.24 361.5l4.32 2.5-4.32 2.5"/><path fill="#FFF" stroke="#000" stroke-width=".5" stroke-miterlimit="10" d="M127.4 210.9h90.64v21.84H127.4z"/><path d="M164.6 186.44c.4.24.96.44 1.56.44.9 0 1.42-.47 1.42-1.15 0-.63-.36-1-1.27-1.35-1.1-.4-1.7-.96-1.7-1.9 0-1.07.9-1.85 2.2-1.85.7 0 1.2.16 1.5.33l-.2.7c-.2-.1-.6-.3-1.3-.3-.9 0-1.3.54-1.3 1 0 .64.4.95 1.4 1.3 1.2.45 1.8 1 1.8 2 0 1.04-.8 1.95-2.4 1.95-.6 0-1.3-.1-1.7-.4l.2-.7zm6.07-5.2v1.4h1.27v.68h-1.27v2.62c0 .6.17.95.67.95l.5-.1.05.6c-.2 0-.5.1-.8.1-.4 0-.8-.1-1-.4-.3-.3-.4-.7-.4-1.3v-2.7h-.7v-.7h.7v-1.2l.9-.3zm4.95 6.26l-.07-.6h-.03c-.27.38-.8.72-1.48.72-1 0-1.5-.7-1.5-1.4 0-1.17 1.05-1.8 2.93-1.8v-.1c0-.4-.1-1.13-1.1-1.13-.45 0-.93.1-1.27.3l-.2-.6c.4-.3 1-.5 1.6-.5 1.48 0 1.85 1 1.85 2v1.8c0 .4.02.8.08 1.2h-.8zm-.13-2.47c-1-.02-2.1.15-2.1 1.1 0 .56.4.83.8.83.6 0 1-.4 1.1-.8v-1.13zm2.2-.87c0-.57 0-1.06-.1-1.5h.7v.94c.2-.65.7-1.06 1.3-1.06.1 0 .1 0 .2.03v.83l-.3-.03c-.6 0-1.1.47-1.2 1.14l-.1.5v2.6h-.9v-3.3zm4.6-2.9v1.4h1.2v.66h-1.3v2.62c0 .6.1.95.6.95l.5-.1v.6c-.2 0-.5.1-.8.1-.5 0-.8-.1-1-.4-.3-.3-.4-.7-.4-1.3v-2.7h-.8v-.7h.7v-1.2l.8-.3z"/><path fill="none" stroke="#000" stroke-width=".5" stroke-miterlimit="10" d="M222.13 375.23h2.94"/><path fill="none" stroke="#000" stroke-width=".5" stroke-miterlimit="10" d="M231.1 375.23h165.28" stroke-dasharray="6.01 6.01"/><path fill="none" stroke="#000" stroke-width=".5" stroke-miterlimit="10" d="M399.4 375.23h2.93"/><path d="M222.86 377.73l-4.32-2.5 4.32-2.5M145.8 221.46c0-.55 0-1-.04-1.45h.86l.06.9h.02c.26-.5.88-1 1.76-1 .73 0 1.88.5 1.88 2.3v3.2h-.97v-3c0-.8-.32-1.5-1.23-1.5-.64 0-1.13.5-1.3 1-.04.1-.07.3-.07.5v3.2h-.96v-3.8zm6.32-1.46l1.17 3.16.3 1.1c.1-.33.2-.74.3-1.12L155 220h1.03l-1.45 3.8c-.7 1.86-1.18 2.8-1.84 3.37-.48.42-.95.58-1.2.63l-.24-.83c.24-.07.56-.23.85-.47.27-.2.6-.6.82-1.1.04-.1.07-.16.07-.22 0-.05-.02-.13-.07-.25l-1.96-4.9h1.1zm4.63 4.35c.3.2.8.38 1.28.38.7 0 1.03-.35 1.03-.8 0-.45-.28-.7-1-.97-.95-.34-1.4-.87-1.4-1.5 0-.86.7-1.57 1.84-1.57.54 0 1 .1 1.3.3l-.23.7c-.2-.1-.6-.3-1.1-.3-.56 0-.88.3-.88.7 0 .4.3.6 1 .9.9.3 1.4.8 1.4 1.6 0 .9-.8 1.6-2 1.6-.6 0-1.2-.2-1.5-.4l.2-.8zm5.03-1.5c.02 1.3.86 1.85 1.82 1.85.7 0 1.1-.12 1.48-.27l.16.7c-.34.14-.92.32-1.77.32-1.64 0-2.62-1.08-2.62-2.68s.95-2.88 2.5-2.88c1.74 0 2.2 1.5 2.2 2.5 0 .2-.02.3-.03.4h-3.74zm2.84-.7c0-.6-.26-1.56-1.35-1.56-.98 0-1.4.9-1.48 1.5h2.8zm2.03 2.02c.43.27 1.06.5 1.72.5.98 0 1.55-.53 1.55-1.28 0-.7-.4-1.1-1.4-1.5-1.2-.5-1.96-1.1-1.96-2.1 0-1.2.96-2 2.4-2 .76 0 1.3.1 1.64.3l-.26.8c-.25-.2-.74-.4-1.4-.4-1.02 0-1.4.6-1.4 1.1 0 .7.44 1 1.46 1.4 1.26.5 1.9 1.1 1.9 2.1 0 1.1-.85 2.1-2.6 2.1-.7 0-1.5-.2-1.9-.5l.25-.8zm6.65-5.67v1.5h1.4v.75h-1.4v2.87c0 .66.2 1.04.73 1.04.26 0 .44-.04.56-.07v.7c-.2 0-.5.1-.9.1-.5 0-.8-.2-1.1-.4-.3-.3-.4-.8-.4-1.4v-2.9h-.8v-.7h.8v-1.3l.9-.3zm2.48 3.18c0-.63 0-1.17-.04-1.67h.84l.04 1.1h.04c.24-.7.83-1.1 1.48-1.1.1 0 .18 0 .27.1v.9h-.3c-.7 0-1.1.6-1.3 1.3v3.3h-.9V222zm4.72-3.16c0 .33-.23.6-.62.6-.34 0-.58-.27-.58-.6 0-.34.25-.6.6-.6.37 0 .6.26.6.6zm-1.08 6.82V220h.97v5.34h-1zm2.58-3.88c0-.55 0-1-.05-1.45h.86l.1.9h.1c.3-.5.9-1 1.8-1 .8 0 1.9.5 1.9 2.3v3.2h-.9v-3c0-.8-.3-1.5-1.2-1.5-.6 0-1.1.5-1.3 1v3.7h-1v-3.8zm10.7-1.46c-.03.4-.06.83-.06 1.48v3.1c0 1.2-.24 1.96-.76 2.42-.5.48-1.26.64-1.93.64-.64 0-1.34-.16-1.77-.44l.24-.74c.35.22.9.42 1.56.42 1 0 1.72-.52 1.72-1.86v-.6h-.02c-.3.5-.87.9-1.7.9-1.32 0-2.27-1.13-2.27-2.6 0-1.8 1.2-2.83 2.4-2.83 1 0 1.5.4 1.7.9h.1l.1-.8h.9zm-1 2.12c0-.17-.02-.3-.07-.44-.17-.57-.65-1.03-1.35-1.03-.93 0-1.6.78-1.6 2.02 0 1.04.54 1.9 1.6 1.9.58 0 1.12-.36 1.33-.98.1-.2.1-.4.1-.6v-1zm2.15 2.65c0-.4.28-.7.66-.7.4 0 .7.3.7.7 0 .4-.2.7-.6.7-.3 0-.6-.3-.6-.7zm2.28 0c0-.4.28-.7.66-.7.3 0 .6.3.6.7 0 .4-.3.7-.7.7-.4 0-.7-.3-.7-.7zm2.27 0c0-.4.28-.7.67-.7.38 0 .65.3.65.7 0 .4-.26.7-.66.7s-.65-.3-.65-.7z"/><path fill="#FFF" stroke="#000" stroke-width=".5" stroke-miterlimit="10" d="M128.38 286.8H219v21.84h-90.6z"/><path d="M143.47 297.5c0-.55 0-1-.04-1.44h.85l.06.88h.02c.26-.5.88-1 1.76-1 .74 0 1.88.44 1.88 2.26v3.18h-.97v-3.07c0-.8-.32-1.5-1.23-1.5-.64 0-1.13.5-1.3 1-.04.1-.06.3-.06.5v3.2h-.97v-3.9zm9.05 3.88l-.07-.67h-.04c-.2.5-.8.8-1.6.8-1.1 0-1.6-.7-1.6-1.5 0-1.3 1.2-2 3.2-2v-.1c0-.4-.1-1.2-1.2-1.2-.5 0-1 .2-1.4.4l-.2-.6c.5-.2 1.1-.4 1.8-.4 1.7 0 2.1 1.1 2.1 2.2v2c0 .5 0 .9.1 1.3h-.8zm-.14-2.7c-1.06-.04-2.25.15-2.25 1.18 0 .63.4.93.9.93.7 0 1.14-.5 1.3-.9.03-.1.05-.2.05-.3v-1zm2.5-1.18c0-.55 0-1-.05-1.44h.85l.04.86h.04c.3-.5.8-.98 1.67-.98.72 0 1.27.44 1.5 1.06h.03c.16-.3.37-.52.6-.7.3-.23.66-.36 1.17-.36.7 0 1.75.46 1.75 2.3v3.14h-.95v-3c0-1.04-.37-1.65-1.15-1.65-.55 0-.98.4-1.15.88-.04.2-.07.4-.07.5v3.3h-.95v-3.2c0-.8-.3-1.4-1.1-1.4-.6 0-1 .5-1.2 1v3.7h-.9v-3.8zm9.72 1.4c0 1.3.85 1.84 1.82 1.84.7 0 1.1-.12 1.47-.27l.1.7c-.4.15-.9.32-1.8.32-1.7 0-2.6-1.1-2.6-2.7s.9-2.9 2.5-2.9c1.7 0 2.2 1.5 2.2 2.5 0 .2 0 .3-.1.4h-3.8zm2.83-.7c0-.6-.26-1.57-1.34-1.57-1 0-1.5.9-1.5 1.57h2.8zm2.03 2.02c.43.26 1.06.48 1.72.48.98 0 1.55-.52 1.55-1.26 0-.7-.4-1.1-1.4-1.48-1.2-.43-1.96-1.05-1.96-2.1 0-1.16.96-2 2.4-2 .76 0 1.3.16 1.64.35l-.2.8c-.2-.1-.7-.3-1.4-.3-1 0-1.4.6-1.4 1.1 0 .7.5 1.1 1.5 1.5 1.3.5 1.9 1.1 1.9 2.2 0 1.2-.8 2.2-2.6 2.2-.7 0-1.5-.2-1.9-.4l.3-.8zm6.66-5.7v1.54h1.38v.73h-1.38v2.8c0 .6.18 1 .72 1 .26 0 .44-.1.56-.1l.05.7c-.2 0-.48.1-.86.1-.5 0-.9-.2-1.1-.4-.3-.3-.4-.8-.4-1.4v-2.9h-.8v-.7h.8v-1.3l.9-.3zm2.48 3.2c0-.63-.02-1.17-.05-1.66h.84v1.04c.2-.7.8-1.16 1.5-1.16.1 0 .2 0 .2.03v.9l-.4-.02c-.7 0-1.2.52-1.3 1.24-.1.1-.1.2-.1.4v2.8h-1v-3.7zm4.7-3.16c.02.33-.22.6-.6.6-.34 0-.6-.27-.6-.6 0-.34.27-.6.62-.6.36 0 .6.26.6.6zm-1.07 6.82v-5.32h.97v5.32h-.97zm2.57-3.88c0-.55 0-1-.04-1.44h.86l.06.88h.02c.26-.5.88-1 1.76-1 .73 0 1.88.44 1.88 2.26v3.18h-.97v-3.07c0-.8-.32-1.5-1.23-1.5-.64 0-1.13.5-1.3 1-.04.1-.07.3-.07.5v3.2h-.96v-3.9zm10.7-1.44c-.02.38-.04.8-.04 1.46v3.1c0 1.2-.25 1.96-.76 2.42-.52.5-1.27.64-1.94.64-.64 0-1.34-.15-1.77-.44l.2-.74c.3.22.9.42 1.5.42 1 0 1.7-.52 1.7-1.86v-.6c-.3.5-.9.9-1.7.9-1.4 0-2.3-1.12-2.3-2.6 0-1.8 1.1-2.82 2.4-2.82.9 0 1.4.48 1.6.92v-.8h.8zm-1 2.1c0-.17 0-.3-.06-.44-.17-.56-.65-1.03-1.35-1.03-1 0-1.6.7-1.6 2 0 1 .5 1.9 1.5 1.9.6 0 1.1-.4 1.3-1 0-.2.1-.4.1-.5v-1zm2.16 2.64c0-.4.28-.68.66-.68.4 0 .65.28.65.7 0 .4-.25.68-.66.68-.3 0-.6-.3-.6-.7zm2.28 0c0-.4.28-.68.66-.68.4 0 .65.28.65.7 0 .4-.25.68-.66.68-.4 0-.7-.3-.7-.7zm2.28 0c0-.4.27-.68.66-.68.38 0 .65.28.65.7 0 .4-.26.68-.66.68s-.65-.3-.65-.7z"/><path fill="none" stroke="#000" stroke-width=".4" stroke-miterlimit="10" d="M113.78 325.05H233.6v71.5H113.8z"/><path fill="none" stroke="#000" stroke-width=".5" stroke-miterlimit="10" d="M113.78 324.9h119.84v18.07H113.78zm24.97 18.07l8.25-17.94"/><path d="M125.46 330.25v7.42h-.96v-7.42h.96zm1.84 7.42v-4.6h-.74v-.73h.75v-.25c0-.8.2-1.5.7-1.9.4-.4.9-.5 1.3-.5s.7.1.8.1l-.1.7c-.1-.1-.3-.1-.6-.1-.8 0-1 .7-1 1.5v.2h1.3v.7h-1.3v4.6h-.9z"/><path fill="none" stroke="#000" stroke-miterlimit="10" d="M173.04 194.77v15.82m.3 22.1v15.8m0 22.2v15.8m0 22.7V325"/><path d="M152.47 365.72v3.1h3.58v-3.1h.97v7.4h-.97v-3.46h-3.58v3.47h-.96v-7.4h1zm7.63.8h-2.27v-.8h5.5v.8h-2.27v6.6h-.97v-6.6zm5.87 0h-2.25v-.8h5.5v.8h-2.28v6.6h-.97v-6.6zm4.06-.72c.46-.07 1.07-.14 1.84-.14.95 0 1.64.22 2.08.62.4.35.65.9.65 1.55 0 .67-.2 1.2-.57 1.58-.5.6-1.34.9-2.27.9H171v3h-1V366zm.96 3.58c.2.06.4.08.7.08 1.1 0 1.8-.56 1.8-1.6 0-.96-.7-1.44-1.8-1.44-.5 0-.8.03-.9.08v2.88zm4.5-.68c0-.42.2-.7.6-.7.4 0 .6.28.6.7 0 .37-.3.67-.7.67-.4 0-.7-.3-.7-.68zm0 3.87c0-.4.2-.7.6-.7.4 0 .6.3.6.7 0 .4-.3.7-.7.7-.4-.02-.7-.3-.7-.7zm2.5-3.02c0-.68 0-1.23-.1-1.74h.8v1c.4-.6 1-1 1.9-1 1.2 0 2.2 1.1 2.2 2.7 0 1.9-1.2 2.9-2.4 2.9-.7 0-1.4-.3-1.7-.8h-.1v2.9h-.9v-5.7zm.9 1.4v.4c.2.68.7 1.14 1.4 1.14 1 0 1.6-.9 1.6-2.1 0-1.1-.6-2-1.6-2-.7 0-1.3.4-1.5 1.2-.1.1-.1.2-.1.4v.9zm10.1-.52c0 1.97-1.4 2.82-2.7 2.82-1.5 0-2.6-1.05-2.6-2.73 0-1.8 1.1-2.83 2.6-2.83s2.5 1.1 2.5 2.7zm-4.3.05c0 1.17.6 2.05 1.6 2.05.9 0 1.6-.87 1.6-2.07 0-.9-.5-2.04-1.6-2.04-1.2 0-1.7 1.05-1.7 2.06zm5.3 1.66c.3.2.8.4 1.3.4.7 0 1-.36 1-.8 0-.47-.3-.72-1-.98-1-.34-1.4-.87-1.4-1.5 0-.87.7-1.57 1.8-1.57.5 0 1 .1 1.3.3l-.3.7c-.2-.2-.6-.3-1.1-.3-.6 0-.9.3-.9.7 0 .4.3.6 1 .9.9.3 1.4.8 1.4 1.6 0 .9-.7 1.6-2 1.6-.6 0-1.1-.2-1.5-.4l.2-.8zm5.6-5.86v1.53h1.4v.8h-1.4v2.9c0 .7.2 1.1.7 1.1h.5v.7c-.2.1-.5.2-.9.2-.5 0-.8-.1-1.1-.4-.3-.3-.4-.7-.4-1.4v-2.9h-.8v-.8h.8v-1.2l.9-.2z"/><path fill="none" stroke="#000" stroke-miterlimit="10" d="M173.34 342.76v15.82m0 21.98v15.8"/><path fill="#FFF" stroke="#000" stroke-width=".5" stroke-miterlimit="10" d="M129.1 430.37h89.7v21.88h-89.7z"/><path fill="none" stroke="#000" stroke-width=".4" stroke-miterlimit="10" d="M114.04 396.75h119.83v71.5H114.04z"/><path fill="none" stroke="#000" stroke-width=".5" stroke-miterlimit="10" d="M114.04 396.58h119.84v18.08H114.04zm24.96 18.1l8.26-17.96"/><path d="M124.6 405.88h-2.88v2.68h3.2v.8h-4.16v-7.4h4v.8h-3.04v2.33h2.88v.7zm1.54-4.33h.97v7.8h-.9v-7.8zm2.46 6.82c.3.2.8.4 1.28.4.7 0 1.03-.37 1.03-.8 0-.47-.2-.7-.9-.98-.9-.4-1.4-.9-1.4-1.6 0-.9.7-1.6 1.9-1.6.6 0 1 .1 1.3.3l-.2.7c-.2-.2-.6-.3-1.1-.3-.5 0-.9.3-.9.7 0 .4.3.6 1 .9 1 .3 1.4.8 1.4 1.6 0 .9-.7 1.6-2 1.6-.6 0-1.1-.2-1.5-.4l.3-.8zm5.03-1.5c.02 1.3.86 1.85 1.82 1.85.7 0 1.1-.12 1.48-.27l.16.7c-.4.14-1 .32-1.8.32-1.7 0-2.6-1.08-2.6-2.68s.9-2.9 2.5-2.9c1.7 0 2.2 1.5 2.2 2.5 0 .2-.1.3-.1.4h-3.8zm2.84-.7c0-.6-.26-1.56-1.34-1.56-.98 0-1.4.9-1.5 1.6h2.84zm16.25 30.23v3.12h3.6v-3.1h.96v7.4h-.97v-3.47h-3.5v3.48h-.9v-7.42h1zm7.63.83h-2.26v-.82h5.4v.9h-2.3v6.6h-1v-6.6zm5.88 0h-2.25v-.82h5.5v.9h-2.28v6.6h-.97v-6.6zm4.07-.73c.45-.08 1.06-.14 1.83-.14.94 0 1.64.22 2.08.6.5.36.7.9.7 1.56 0 .68-.2 1.2-.6 1.6-.5.53-1.3.8-2.2.8-.3 0-.5 0-.7-.06v2.97h-.9v-7.33zm.95 3.57c.2.06.47.08.8.08 1.15 0 1.85-.56 1.85-1.58 0-.98-.7-1.45-1.75-1.45-.42 0-.74.03-.9.07v2.8zm4.5-.7c0-.4.28-.7.67-.7.38 0 .64.3.65.7 0 .4-.26.7-.66.7-.3 0-.6-.3-.6-.7zm0 3.9c0-.4.28-.7.67-.7.38 0 .64.3.65.7 0 .38-.26.68-.66.68-.3 0-.6-.3-.6-.68zm2.52-3.03c0-.68-.03-1.23-.05-1.74h.87v.9c.4-.63 1-1.02 1.9-1.02 1.3 0 2.2 1.1 2.2 2.7 0 1.92-1.2 2.87-2.5 2.87-.7 0-1.3-.3-1.7-.84v2.9h-1v-5.7zm.95 1.42c0 .14.03.27.05.4.17.67.76 1.13 1.45 1.13 1.02 0 1.62-.9 1.62-2.1 0-1.1-.56-2-1.6-2-.65 0-1.26.4-1.45 1.2-.1.1-.1.2-.1.4v.9zm10.12-.54c0 1.97-1.36 2.83-2.65 2.83-1.5 0-2.6-1.06-2.6-2.74 0-1.7 1.1-2.8 2.6-2.8s2.5 1.1 2.5 2.8zm-4.22.05c0 1.17.67 2.05 1.62 2.05.92 0 1.6-.87 1.6-2.07 0-.9-.44-2.04-1.58-2.04-1.15 0-1.64 1.1-1.64 2.1zm5.3 1.67c.3.18.8.38 1.3.38.7 0 1.03-.35 1.03-.8 0-.45-.27-.7-1-.97-.95-.34-1.4-.87-1.4-1.5 0-.87.7-1.57 1.84-1.57.5 0 1 .16 1.3.33l-.3.7c-.2-.1-.6-.3-1.1-.3-.6 0-.9.4-.9.8 0 .5.3.7 1 .9.9.4 1.4.8 1.4 1.6 0 1-.7 1.6-2 1.6-.6 0-1.2-.1-1.5-.3l.2-.7zm5.68-5.87v1.53h1.37v.74h-1.38v2.87c0 .7.1 1.1.7 1.1h.5v.8c-.2.1-.5.2-.9.2-.5 0-.8-.1-1.1-.4-.3-.3-.4-.7-.4-1.4v-2.9h-.9v-.7h.8v-1.3l.9-.2z"/><path fill="none" stroke="#000" stroke-miterlimit="10" d="M173.6 414.46v15.8m0 22v15.8m.1.2v15.8"/><path fill="#FFF" stroke="#000" stroke-width="2" stroke-miterlimit="10" d="M128.1 521.55h89.7v21.88h-89.7z"/><path d="M137.93 528.55c.48-.1 1.17-.15 1.83-.15 1.03 0 1.7.2 2.15.6.4.33.6.84.6 1.4 0 1-.6 1.64-1.4 1.9v.03c.6.2.9.73 1.1 1.5.3 1.04.4 1.75.6 2.04h-1c-.1-.2-.2-.85-.5-1.77-.2-1.03-.6-1.4-1.5-1.44h-.9v3.2h-.9v-7.3zm.95 3.38h.98c1.03 0 1.67-.56 1.67-1.4 0-.96-.7-1.38-1.7-1.4-.46 0-.8.05-.95.1v2.7zm5.52 1.45c.02 1.3.85 1.85 1.82 1.85.7 0 1.1-.12 1.47-.28l.1.7c-.4.15-1 .33-1.8.33-1.7 0-2.7-1.08-2.7-2.7 0-1.6.9-2.86 2.5-2.86 1.7 0 2.2 1.53 2.2 2.5 0 .2-.1.36-.1.46h-3.8zm2.83-.7c0-.6-.25-1.56-1.34-1.56-1 0-1.5.9-1.5 1.57h2.8zm2 2.2c.3.18.8.38 1.28.38.7 0 1.1-.35 1.1-.8 0-.45-.2-.7-1-.97-.9-.4-1.4-.9-1.4-1.6 0-.9.7-1.6 1.9-1.6.6 0 1 .1 1.3.3l-.2.7c-.2-.2-.6-.3-1.1-.3-.5 0-.9.3-.9.7 0 .4.3.6 1 .9 1 .3 1.4.8 1.4 1.6 0 .9-.7 1.6-2 1.6-.6 0-1.1-.2-1.5-.4l.3-.8zm9.3-1.72c0 1.97-1.35 2.83-2.64 2.83-1.5 0-2.6-1.1-2.6-2.8 0-1.8 1.1-2.9 2.6-2.9s2.5 1.1 2.5 2.7zm-4.2.06c0 1.16.66 2.04 1.6 2.04.93 0 1.62-.87 1.62-2.07 0-.9-.45-2.1-1.6-2.1-1.14 0-1.63 1-1.63 2zm9.9 1.18c0 .57 0 1.05.03 1.47h-.86l-.05-.87h-.02c-.26.43-.82 1-1.76 1-.84 0-1.84-.47-1.84-2.35v-3.1h.97v2.94c0 1 .3 1.6 1.18 1.6.65 0 1.1-.5 1.28-.9.06-.2.1-.4.1-.5v-3.3h.96v3.9zm1.6-2.2c0-.62 0-1.16-.05-1.66h.84l.04 1.05h.04c.24-.8.83-1.2 1.48-1.2h.27v.9l-.33-.1c-.68 0-1.17.5-1.3 1.2l-.04.4v2.8h-.96V532zm7.27 3.47c-.25.13-.8.3-1.52.3-1.6 0-2.66-1.08-2.66-2.7 0-1.65 1.13-2.84 2.86-2.84.58 0 1.08.15 1.35.28l-.22.8c-.2-.1-.6-.2-1.1-.2-1.2 0-1.9.9-1.9 2.1 0 1.3.8 2 1.9 2 .6 0 .9-.1 1.2-.3l.2.8zm1.6-2.3c.03 1.3.87 1.86 1.84 1.86.7 0 1.1-.12 1.47-.28l.2.7c-.3.15-.9.33-1.7.33-1.6 0-2.6-1.08-2.6-2.7 0-1.6 1-2.86 2.5-2.86 1.8 0 2.2 1.53 2.2 2.5v.46h-3.7zm2.85-.7c0-.6-.26-1.55-1.34-1.55-.9 0-1.4.9-1.4 1.57h2.9zm3.37 3.2l-1.88-7.42h1.02l.88 3.75c.22.93.4 1.85.55 2.57.1-.74.3-1.62.6-2.58l1-3.8h1l.9 3.7c.2.9.4 1.7.5 2.5.1-.8.3-1.7.6-2.6l1-3.8h1l-2.1 7.4h-1l-1-3.9c-.3-1-.4-1.7-.5-2.4-.2.7-.3 1.4-.6 2.4l-1.1 3.8h-1zm12.52-2.7c0 1.96-1.36 2.82-2.65 2.82-1.5 0-2.6-1.1-2.6-2.8 0-1.8 1.1-2.9 2.6-2.9s2.5 1.1 2.5 2.7zm-4.22.05c0 1.16.67 2.04 1.6 2.04.94 0 1.63-.87 1.63-2.07 0-.9-.45-2.1-1.6-2.1-1.14 0-1.63 1-1.63 2zm5.44-1.02c0-.62 0-1.16-.04-1.66h.85l.03 1.05h.04c.25-.8.83-1.2 1.48-1.2h.27v.9l-.4-.1c-.7 0-1.2.5-1.3 1.2 0 .1-.1.3-.1.4v2.8h-1V532zm4.6.8h.02c.13-.2.32-.43.48-.62l1.56-1.84h1.17l-2.1 2.2 2.3 3.13h-1.2l-1.9-2.56-.5.6v2h-1v-7.8h.9v4.9zm4.74.38c.02 1.3.86 1.85 1.83 1.85.7 0 1.1-.12 1.47-.28l.17.7c-.34.15-.93.33-1.77.33-1.64 0-2.62-1.08-2.62-2.7 0-1.6.94-2.86 2.5-2.86 1.73 0 2.2 1.53 2.2 2.5 0 .2-.03.36-.04.46H204zm2.84-.7c0-.6-.25-1.56-1.34-1.56-.98 0-1.4.9-1.5 1.57h2.84zm2.13-.48c0-.62 0-1.16-.04-1.66h.85l.03 1.05h.1c.3-.8.9-1.2 1.5-1.2h.3v.9l-.3-.1c-.6 0-1.1.5-1.3 1.2v3.3h-1V532z"/><path fill="none" stroke="#000" stroke-miterlimit="10" d="M173.34 505.95v15.82"/><path fill="#FFF" stroke="#000" stroke-width=".5" stroke-miterlimit="10" d="M245.5 521.2h89.68v21.88h-89.7z"/><path d="M258.68 528.2v2.84h3.27v-2.83h.88v6.8h-.88v-3.1h-3.27v3.1h-.88v-6.7h.88zm6.95.75h-2.06v-.74h5.02v.8h-2.1v6h-.9v-6zm5.37 0h-2.05v-.74h5v.8h-2.06v6h-.9v-6zm3.7-.65c.43-.08.98-.14 1.7-.14.85 0 1.48.2 1.88.56.37.32.6.8.6 1.42 0 .6-.2 1.1-.53 1.44-.46.5-1.2.75-2.06.75-.3 0-.6 0-.8-.07V535h-.9v-6.7zm.88 3.25c.2.05.43.07.72.07 1.06 0 1.7-.5 1.7-1.44 0-.9-.63-1.33-1.6-1.33-.38 0-.67.03-.82.07v2.63zm9.2 3.2c-.32.17-.97.33-1.8.33-1.9 0-3.34-1.2-3.34-3.43 0-2.1 1.44-3.55 3.54-3.55.84 0 1.38.18 1.6.3l-.2.7c-.33-.15-.8-.27-1.37-.27-1.5 0-2.6 1.02-2.6 2.8 0 1.65 1 2.7 2.6 2.7.6 0 1.1-.1 1.5-.26l.2.7zm5.35-2.25c0 1.8-1.25 2.6-2.42 2.6-1.3 0-2.3-.97-2.3-2.5 0-1.64 1.1-2.6 2.4-2.6 1.4 0 2.4 1.02 2.4 2.5zm-3.86.06c0 1.06.6 1.87 1.48 1.87.84 0 1.48-.8 1.48-1.9 0-.82-.4-1.86-1.46-1.86s-1.5.96-1.5 1.9zm4.97-1.13c0-.5 0-.9-.04-1.3h.78l.05.8h.03c.24-.47.8-.92 1.6-.92.68 0 1.72.4 1.72 2.1v2.9h-.88v-2.8c0-.8-.3-1.4-1.13-1.4-.58 0-1.03.4-1.18.9-.1.1-.1.3-.1.4v2.9h-.9v-3.5zm5.56 0c0-.5 0-.9-.03-1.3h.8l.04.8h.1c.3-.47.8-.92 1.6-.92.7 0 1.7.4 1.7 2.1v2.9h-.9v-2.8c0-.8-.3-1.4-1.1-1.4-.6 0-1 .4-1.2.9 0 .1-.1.3-.1.4v2.9h-.9v-3.5zm6.08 1.27c.02 1.2.78 1.7 1.66 1.7.64 0 1.02-.1 1.35-.25l.1.63c-.3.14-.9.3-1.6.3-1.5 0-2.4-.98-2.4-2.45s.9-2.62 2.3-2.62c1.6 0 2 1.4 2 2.3 0 .2 0 .4-.1.4h-3.4zm2.6-.62c0-.57-.24-1.44-1.24-1.44-.9 0-1.28.82-1.35 1.44h2.5zm5.4 2.72c-.23.12-.74.28-1.4.28-1.46 0-2.42-1-2.42-2.48 0-1.5 1.03-2.58 2.6-2.58.53 0 1 .13 1.24.25l-.2.68c-.2-.12-.54-.23-1.02-.23-1.12 0-1.72.82-1.72 1.84 0 1.12.72 1.82 1.7 1.82.5 0 .82-.14 1.07-.25l.15.67zm2.22-6.08v1.4h1.27v.67h-1.26v2.6c0 .6.2.9.7.9.3 0 .4-.1.5-.1l.1.6c-.1 0-.4.1-.8.1s-.7-.2-.9-.4c-.2-.3-.3-.7-.3-1.3v-2.7h-.7v-.7h.8v-1.2l.9-.2zm6.6 3.78c0 1.8-1.24 2.6-2.42 2.6-1.3 0-2.33-.97-2.33-2.5 0-1.64 1.07-2.6 2.4-2.6 1.4 0 2.35 1.02 2.35 2.5zm-3.85.06c0 1.06.6 1.87 1.47 1.87.85 0 1.48-.8 1.48-1.9 0-.82-.4-1.86-1.46-1.86s-1.5.96-1.5 1.9zm4.95-.93c0-.57 0-1.06-.03-1.5h.78l.03.94h.04c.22-.65.75-1.06 1.34-1.06.1 0 .17.1.25.1v.9h-.3c-.6 0-1 .5-1.1 1.2v3h-.9v-3.3z"/><path fill="#FFF" stroke="#000" stroke-width=".5" stroke-miterlimit="10" d="M360.46 135.3h89.7v21.88h-89.7z"/><path fill="none" stroke="#000" stroke-width=".5" stroke-miterlimit="10" d="M405.56 157.1v365.1"/><path d="M373.65 142.3v2.84h3.27v-2.83h.88v6.8h-.88V146h-3.27v3.18h-.88v-6.76h.88zm6.95.75h-2.06v-.75h5.02v.75h-2.07v6.02h-.9v-6.02zm5.38 0h-2.06v-.75h5v.75h-2.06v6.02h-.9v-6.02zm3.7-.67c.42-.07.97-.13 1.68-.13.86 0 1.5.2 1.9.57.36.32.6.8.6 1.4 0 .63-.2 1.1-.54 1.46-.46.5-1.2.74-2.06.74-.27 0-.5 0-.7-.06v2.7h-.88v-6.68zm.87 3.27c.2.05.43.07.73.07 1.05 0 1.7-.5 1.7-1.45 0-.9-.64-1.32-1.6-1.32-.4 0-.68.03-.83.07v2.63zm9.2 3.2c-.32.17-.96.33-1.8.33-1.9 0-3.33-1.2-3.33-3.43 0-2.12 1.43-3.56 3.53-3.56.85 0 1.38.1 1.6.3l-.2.7c-.33-.2-.8-.3-1.37-.3-1.6 0-2.64 1-2.64 2.8 0 1.6.95 2.7 2.6 2.7.53 0 1.08-.1 1.43-.3l.18.7zm5.35-2.25c0 1.8-1.24 2.6-2.42 2.6-1.3 0-2.33-.98-2.33-2.52 0-1.62 1.06-2.58 2.4-2.58 1.4 0 2.35 1.02 2.35 2.5zm-3.86.05c0 1.07.62 1.87 1.48 1.87.84 0 1.48-.8 1.48-1.9 0-.8-.4-1.85-1.46-1.85-1.05 0-1.5.96-1.5 1.88zm4.96-1.12c0-.5 0-.92-.03-1.32h.8l.03.9h.03c.23-.4.8-.9 1.6-.9.67 0 1.72.4 1.72 2.1v2.9h-.88v-2.8c0-.7-.3-1.4-1.13-1.4-.58 0-1.03.4-1.2.9-.03.1-.05.3-.05.4v3h-.9v-3.5zm5.58 0c0-.5 0-.92-.04-1.32h.8l.04.9h.02c.24-.4.8-.9 1.6-.9.68 0 1.72.4 1.72 2.1v2.9h-.88v-2.8c0-.7-.3-1.4-1.13-1.4-.5 0-1 .4-1.1.9v3.4h-.9v-3.5zm6.07 1.27c.02 1.2.78 1.7 1.66 1.7.7 0 1.1-.12 1.4-.26l.2.63c-.3.15-.8.3-1.6.3-1.5 0-2.4-.98-2.4-2.44 0-1.47.9-2.63 2.3-2.63 1.6 0 2 1.4 2 2.3v.4H418zm2.6-.63c0-.56-.24-1.43-1.24-1.43-.8 0-1.2.82-1.3 1.43h2.6zm5.4 2.73c-.23.1-.74.27-1.4.27-1.46 0-2.42-1-2.42-2.48 0-1.5 1.03-2.6 2.6-2.6.54 0 1 .1 1.24.2l-.2.7c-.2-.2-.54-.3-1.02-.3-1.12 0-1.72.8-1.72 1.8 0 1.1.72 1.8 1.7 1.8.5 0 .82-.2 1.07-.3l.15.6zm2.23-6.08v1.4h1.26v.66h-1.26v2.63c0 .6.17 1 .66 1h.5l.05.7c-.2.1-.5.1-.8.1-.4 0-.8-.1-1-.3-.3-.2-.4-.7-.4-1.2V145h-.8v-.7h.7v-1.16l.9-.22zm6.6 3.78c0 1.8-1.25 2.6-2.43 2.6-1.3 0-2.33-.98-2.33-2.52 0-1.62 1.07-2.58 2.4-2.58 1.4 0 2.36 1.02 2.36 2.5zm-3.86.05c0 1.07.6 1.87 1.47 1.87.8 0 1.4-.8 1.4-1.9 0-.8-.4-1.85-1.5-1.85s-1.5.96-1.5 1.88zm4.98-.92c0-.57-.02-1.06-.06-1.52h.78l.03 1h.04c.2-.6.7-1 1.3-1 .1 0 .2 0 .2.1v.9h-.3c-.6 0-1.1.5-1.2 1.2 0 .2-.1.3-.1.4v2.6h-.9V146z"/><path fill="#FFF" stroke="#000" stroke-width=".5" stroke-miterlimit="10" d="M360.72 520.6h89.7v21.9h-89.7z"/><path d="M373.9 527.6v2.85h3.28v-2.84h.88v6.8h-.88v-3.1h-3.28v3.2h-.87v-6.7h.87zm6.96.76h-2.06v-.75h5v.8h-2.06v6h-.88v-6zm5.37 0h-2.06v-.75h5v.8h-2.06v6h-.8v-6zm3.7-.66c.43-.08.98-.14 1.68-.14.9 0 1.5.2 1.9.57.4.32.6.8.6 1.4 0 .63-.1 1.1-.5 1.46-.4.4-1.2.7-2 .7-.2 0-.5 0-.7-.1v2.7h-.9v-6.7zm.88 3.26c.2.05.5.07.8.07 1.1 0 1.7-.5 1.7-1.45 0-.9-.6-1.32-1.6-1.32-.4 0-.6.03-.8.07v2.63zm9.2 3.2c-.3.17-.9.33-1.7.33-1.9 0-3.3-1.3-3.3-3.5 0-2.1 1.5-3.6 3.6-3.6.9 0 1.4.1 1.6.3l-.2.7c-.3-.2-.8-.3-1.3-.3-1.6 0-2.6 1-2.6 2.8 0 1.6 1 2.7 2.6 2.7.5 0 1.1-.1 1.4-.3l.2.7zm5.4-2.26c0 1.8-1.2 2.6-2.4 2.6-1.3 0-2.3-.97-2.3-2.5 0-1.63 1.1-2.6 2.4-2.6 1.4 0 2.4 1.03 2.4 2.5zm-3.8.06c0 1.07.6 1.87 1.5 1.87s1.5-.8 1.5-1.9c0-.8-.4-1.86-1.4-1.86s-1.5.97-1.5 1.9zm5-1.12v-1.32h.8l.1.8c.3-.45.8-.9 1.6-.9.7 0 1.8.4 1.8 2.06v2.9h-.9v-2.8c0-.78-.3-1.44-1.1-1.44-.6 0-1 .42-1.2.9v3.34h-.9v-3.54zm5.6 0v-1.32h.8l.1.8h.1c.3-.45.8-.9 1.6-.9.7 0 1.7.4 1.7 2.06v2.9h-.9v-2.8c0-.78-.3-1.44-1.1-1.44-.6 0-1 .42-1.2.9v3.34h-.8v-3.54zm6.1 1.26c.1 1.2.8 1.7 1.7 1.7.7 0 1.1-.1 1.4-.25l.2.64c-.3.1-.8.3-1.6.3-1.5 0-2.4-1-2.4-2.5s.9-2.7 2.3-2.7c1.6 0 2 1.4 2 2.3v.4h-3.4zm2.6-.62c0-.56-.2-1.44-1.2-1.44-.9 0-1.3.83-1.3 1.44h2.6zm5.4 2.72c-.2.12-.7.28-1.4.28-1.4 0-2.4-1-2.4-2.48 0-1.5 1-2.58 2.6-2.58.6 0 1 .13 1.3.25l-.2.7c-.2-.13-.5-.25-1-.25-1.1 0-1.7.83-1.7 1.84 0 1.13.8 1.82 1.7 1.82.5 0 .8-.13 1.1-.24l.2.66zm2.3-6.07v1.4h1.3v.66h-1.2v2.6c0 .6.2.9.7.9.2 0 .4-.1.5-.1l.1.6c-.2 0-.4.1-.8.1s-.7-.2-.9-.4c-.2-.3-.3-.7-.3-1.3V530h-.8v-.7h.8v-1.14l.9-.2zm6.6 3.77c0 1.8-1.2 2.6-2.4 2.6-1.3 0-2.3-.97-2.3-2.5 0-1.63 1.1-2.6 2.4-2.6 1.4 0 2.4 1.03 2.4 2.5zm-3.8.06c0 1.07.6 1.87 1.5 1.87s1.5-.8 1.5-1.9c0-.8-.4-1.86-1.4-1.86s-1.5.97-1.5 1.9zm5-.92v-1.52h.8v.95h.1c.3-.65.8-1.06 1.4-1.06.1 0 .2.1.2.1v.9h-.3c-.6 0-1 .5-1.2 1.2v3h-.8v-3.3z"/><path fill="none" stroke="#000" stroke-width=".5" stroke-miterlimit="10" d="M285.54 435.7h-66.2"/><path d="M284.8 433.2l4.33 2.5-4.32 2.48"/><path fill="none" stroke="#000" stroke-width=".5" stroke-miterlimit="10" d="M222.6 446.93h1.8"/><path fill="none" stroke="#000" stroke-width=".5" stroke-miterlimit="10" d="M228.02 446.93h56.28" stroke-dasharray="3.63 3.63"/><path fill="none" stroke="#000" stroke-width=".5" stroke-miterlimit="10" d="M286.1 446.93h1.82"/><path d="M223.32 449.42l-4.32-2.5 4.32-2.5"/><path fill="none" stroke="#000" stroke-width=".83" stroke-miterlimit="10" d="M65.9 497.97H128"/><path d="M67.1 502.1l-7.15-4.13 7.14-4.12m94-3.7c.5-.1 1.1-.16 1.8-.16 1.1 0 1.7.1 2.2.6.3.3.6.8.6 1.4 0 .9-.6 1.6-1.4 1.9.5.2.9.7 1.1 1.5.2 1 .4 1.7.5 2h-.9c-.2-.2-.3-.9-.5-1.8-.3-1-.6-1.4-1.5-1.5h-.9v3.2h-1V490zm.9 3.36h1c1.1 0 1.7-.5 1.7-1.4 0-.9-.7-1.3-1.7-1.3-.5 0-.8.1-1 .1v2.7zm5.5 1.5c0 1.3.8 1.9 1.8 1.9.7 0 1.1-.1 1.5-.2l.1.7c-.3.2-.9.3-1.7.3-1.7 0-2.7-1.1-2.7-2.7s.9-2.8 2.5-2.8c1.7 0 2.2 1.6 2.2 2.5 0 .2 0 .4-.1.5h-3.8zm2.8-.7c0-.6-.3-1.5-1.4-1.5-1 0-1.4.9-1.5 1.6h2.8zm2.1-.4c0-.7-.1-1.2-.1-1.7h.8v.9c.4-.6 1-1 1.9-1 1.3 0 2.2 1.1 2.2 2.8 0 1.9-1.2 2.9-2.4 2.9-.7 0-1.3-.3-1.6-.8h-.1v2.9h-1V494zm.9 1.4v.4c.2.7.8 1.2 1.5 1.2 1 0 1.6-.8 1.6-2 0-1-.6-2-1.6-2-.7 0-1.3.5-1.5 1.2-.1.2-.1.3-.1.4v.9zm5.3-5.6h.9v7.8h-1v-7.8zm2.9 2.5l1.2 3.2.3 1.1.3-1.1 1-3.1h1l-1.5 3.8c-.7 1.9-1.2 2.8-1.8 3.4-.5.4-.9.6-1.2.7l-.2-.8c.2-.1.6-.2.8-.5.3-.2.6-.6.8-1.1v-.2l-.1-.3-1.98-4.9h1.1z"/></svg>