<svg xmlns="http://www.w3.org/2000/svg" width="500" height="631.2">
  <path fill="none" stroke="#000" stroke-width=".6" stroke-miterlimit="10" d="M20 71h460v538H20z"/>
  <path fill="#FFF" stroke="#000" stroke-width=".5" stroke-miterlimit="10" d="M10 9.3h482v21H10z"/>
  <path fill="#939598" d="M441.8 22.2v-3h.7V23H435v-7.6h3.7v.7H435.8v6.2h6zm-.4-5.5l-1-.8.4-.6 1.7 1.6-1.4 1.6-.3-.5.6-.7c-1.8.2-3 1-4 2.2 0 .3-.3.6-.4 1-.2.2-.3.5-.3.7v.3h-.6v-.3l.3-.6c0-.3 0-.6.3-1l.5-.8 1-1 1.5-.7 2-.3zM455.8 22.2v-3h.7V23H449v-7.6h3.7v.7H449.8v6.2h6zm.7-6.8v.6h-.3s-.4 0-.7.2c-.4 0-.7.3-1 .5-1.2.8-2 2-2 4l.7-.7.4.4-1.6 1.4-1.5-1.7.4-.3.8 1c0-.7.2-1.4.4-2s.4-1 .7-1.3l.8-1 1-.5c.3-.3.6-.4.8-.4l.7-.2h.2zM465.2 15.4h3v1h1.7v1h-6.7v-1h2v-1zm-1.4 2.7h5.7v5h-5.7v-5zm1.3.7v3.6h1v-3.6h-1zm2.3 0v3.6h1v-3.6h-1zM481 21.2l-4-3.6.7-.6 3.2 3 3-3 .7.7-3.8 3.5z"/>
  <path fill="#939598" stroke="#000" stroke-width=".3" stroke-miterlimit="10" d="M431.3 15.3v8M445.6 15.7v8M459.8 15.3v8M473.5 15.3v8"/>
  <path d="M9.8 9.3h18v21H10z"/>
  <path fill="#FFF" d="M22 16.7l-.3.5h-1l-.5 2.7-1 2.7c-.4 1-1 1.5-1.4 2l-1 .3c-.4 0-.6 0-.7-.3v-.4-.3h.7V24.6h.7c0-.2.3-.3.5-.6l.3-1 .5-1.6 1-4.2h-1v-.5h.8l.4-.3.4-.8.7-1 1-1 1-.2c.4 0 .6 0 .8.2.2.2.3.3.3.5v.5h-.7s-.2 0-.2-.2l.2-.3v-.2s0-.2-.2-.2c-.3 0-.5 0-.7.3-.3 0-.5.4-.7 1-.2.2-.4.8-.7 1.7h1z"/>
  <path d="M35.3 49.8c1-1 2.3-1.6 3.8-1.6s2.8.5 3.8 1.6c1 1 1.6 2.3 1.6 3.7 0 1.5-.5 2.7-1.6 3.8s-2.3 1.5-3.7 1.5-2.6-.5-3.7-1.5-1.5-2.3-1.5-3.8c0-1.4.5-2.7 1.5-3.7zm2 5.8v-.4c-.3 0-.4-.2-.4-.4v-.3-.4c0-.2-.2-.4-.4-.5.2 0 .3-.3.3-.5v-.4-.4c0-.2 0-.3.2-.3h.2v-.5h-.2c-.5 0-.8.2-.8.7v.8c0 .2 0 .4-.2.4v.3c.2 0 .3 0 .3.3v.8c0 .5.2.8.7.8h.2zm2-.6l1-3h-.5l-.5 1.5-.2 1c0-.3 0-.6-.2-1l-.5-1.4h-.5l1 3h.5zm2.7-1.3v-.3c-.2 0-.4-.2-.4-.4v-.4-.4c0-.5 0-.7-.7-.7h-.2v.4c.4 0 .5 0 .5.2v.8c0 .2 0 .4.2.5-.2 0-.3.3-.3.6v.8c0 .2 0 .4-.3.4h-.2v.4h.2c.5 0 .7-.3.7-.8v-.4-.4c0-.2 0-.3.3-.3z"/>
  <path fill="#AEADAE" d="M46 49.6h7.5V57H46z"/>
  <path fill="#FFF" d="M52 53v.5h-2v2h-.5v-2h-2V53h2v-2h.5v2h2z"/>
  <path fill="#EFEFEF" d="M55.2 48.2H66V59H55z"/>
  <path fill="#8D8D8D" d="M58.6 53.3l3-3 .4.4-2.5 2.6L62 56l-.5.4-3-3z"/>
  <path fill="none" stroke="#000" stroke-width=".6" stroke-miterlimit="10" d="M10 30.4h482v589.3H10z"/>
  <g>
    <path fill="#FFF" stroke="#000" stroke-width=".5" stroke-miterlimit="10" d="M20 71h460v21H20z"/>
    <path fill="#939598" d="M430 83.8v-3h.6v3.7H423V77h4v.7h-3.2v6h6zm-.5-5.5l-1-1 .5-.3 1.6 1.6-1.4 1.5-.4-.3.7-.8c-2 0-3.2.8-4 2l-.5 1v.8l-.2.3h-.6V83l.2-.6.3-1c0-.2.3-.5.6-.8.2-.4.5-.7 1-1 .3-.2.7-.5 1.3-.7l2-.4zM444 83.8v-3h.6v3.7H437V77h4v.7h-3.2v6h6zm.6-6.8v.6h-.3l-.7.2c-.4 0-.7.3-1 .5-1.2.8-2 2-2 4l.7-.8.4.5-1.6 1.4-1.4-1.7.4-.4 1 1c0-.7 0-1.4.3-2l.7-1.3 1-1 1-.6.8-.3h.8zM453.3 77h3v1h1.8v1h-6.6v-1h2v-1zm-1.4 2.6h5.6v5H452v-5zm1.2.7v3.5h1v-3.5h-1zm2.2 0v3.5h1v-3.5h-1zM469 82.8l-3.7-3.6.5-.6 3.2 3 3.3-3 .5.6-3.8 3.6z"/>
    <path fill="#939598" stroke="#000" stroke-width=".3" stroke-miterlimit="10" d="M433.8 76.7V85M448 76.3v8.2M461.6 76.8V85"/>
    <path d="M20 71h18v20.8H20z"/>
    <path fill="#FFF" d="M32 78.3v.4h-1l-.7 2.7c-.3 1.2-.6 2.2-1 2.8-.4 1-.8 1.6-1.3 2l-1.2.3c-.2 0-.4 0-.6-.2L26 86c0-.2 0-.3.2-.4l.4-.2h.2l.2.4-.2.2v.2h.7l.5-.6.5-1L29 83l1-4.3h-1v-.4h.7l.4-.3.6-.8c.2-.5.4-1 .7-1 .3-.5.6-.8 1-1 .3-.2.6-.2 1-.2.2 0 .5 0 .6.2l.2.5v.4c-.2.2-.3.2-.5.2h-.3v-.3-.4-.2c0-.2 0-.2-.2-.2-.3 0-.5 0-.7.3-.3.2-.6.5-.8 1l-.6 1.8h1z"/>
    <path d="M45.5 111.3c1-1 2.3-1.5 3.7-1.5s2.7.5 3.8 1.5c1 1 1.5 2.3 1.5 3.8 0 1.6-.5 2.8-1.5 3.8s-2.3 1.6-3.8 1.6-2.7-.5-3.7-1.6-1.6-2.2-1.6-3.7c0-1.4.4-2.6 1.5-3.7zm2 5.8v-.2c-.4 0-.5-.2-.5-.4v-.4-.4c0-.2 0-.4-.2-.5.2 0 .3-.2.3-.5v-.3-.4c0-.2 0-.4.4-.4v-.3c-.6 0-.8.3-.8.8v.8c0 .2 0 .3-.3.3v.3c.2 0 .4 0 .4.3v.8c0 .5 0 .7.6.7h.2zm2-.5l1-3H50l-.5 1.6-.3 1c0-.2 0-.5-.3-1l-.5-1.4H48l1 3h.4zm2.7-1.2v-.4c-.3 0-.4-.2-.4-.4v-.4-.4c0-.5-.2-.7-.7-.7v.4c.3 0 .4.2.4.4v.8c0 .3 0 .5.2.6l-.2.6v.8c0 .2 0 .4-.3.4v.3c.6 0 1 0 1-.6l-.2-.4v-.4c0-.2 0-.3.3-.3h.2z"/>
    <path fill="#AEADAE" d="M56.2 111.2h7.4v7.4h-7.4z"/>
    <path fill="#FFF" d="M62.2 114.6v.5h-2v2.2h-.6v-2h-2v-.6h2v-2h.5v2h2.2z"/>
    <path fill="#EFEFEF" d="M65.3 109.8H76v10.7H65.3z"/>
    <path fill="#8D8D8D" d="M68.8 115l3-3.2.4.5-2.6 2.6 2.5 2.5-.4.5-2.8-3z"/>
  </g>
  <g>
    <path fill="#FFF" stroke="#000" stroke-width="2" stroke-miterlimit="10" d="M128 135.2h89.7v22H128z"/>
    <path d="M137.8 142.2h2c1 0 1.6 0 2 .5.4.3.6.8.6 1.4 0 1-.6 1.7-1.4 2 .6.2 1 .7 1 1.5.3 1 .5 1.8.7 2h-1l-.5-1.7c-.2-1-.6-1.4-1.5-1.5h-1v3.3h-1v-7.4zm1 3.4h1c1 0 1.6-.5 1.6-1.4 0-1-.6-1.4-1.7-1.4h-1v2.8zM144.3 147c0 1.4 1 2 1.8 2s1.2-.2 1.6-.4l.2.7c-.4.2-1 .4-1.8.4-1.6 0-2.6-1-2.6-2.7 0-1.6 1-3 2.5-3 1.6 0 2 1.6 2 2.6v.5h-3.7zm2.8-.6c.2-.6 0-1.6-1.2-1.6-1 0-1.4 1-1.5 1.6h2.8zM149 148.6l1.4.3c.7 0 1-.4 1-.8 0-.5-.2-.8-1-1-1-.4-1.3-1-1.3-1.5 0-1 .7-1.6 2-1.6.4 0 1 .3 1.2.4l-.2.7-1-.2c-.7 0-1 .4-1 .8s.3.6 1 1c1 .2 1.4.7 1.4 1.5 0 1-.7 1.7-2 1.7-.6 0-1-.2-1.5-.4v-.7zM158.5 146.8c0 2-1.4 3-2.7 3-1.4 0-2.6-1.2-2.6-3 0-1.6 1.2-2.7 2.7-2.7 1.4 0 2.5 1.2 2.5 2.8zm-4.3 0c0 1.3.7 2 1.6 2 1 0 1.7-.7 1.7-2 0-.8-.5-2-1.6-2-1.3 0-1.8 1-1.8 2zM164 148c0 .7 0 1 .2 1.6h-1v-1c-.2.5-.8 1-1.7 1-1 0-2-.4-2-2.3v-3h1v3c0 1 .4 1.6 1.3 1.6.6 0 1-.6 1.3-1l.2-.5v-3.3h1v4zM165.7 146V144h.8v1c.4-.6 1-1 1.6-1h.4v1c0-.2-.2-.2-.4-.2-.7 0-1 .5-1.3 1.3v3.4h-1v-3.8zM173 149.4c-.2 0-.8.3-1.5.3-1.6 0-2.7-1-2.7-2.8 0-1.7 1.2-3 3-3 .5 0 1 .3 1.2.4l-.2.7h-1c-1.3 0-2 .8-2 2 0 1 .8 2 2 2 .4 0 .8-.3 1-.4l.2.8zM174.6 147c0 1.4 1 2 1.8 2 .7 0 1.2-.2 1.5-.4v.7c-.3.2-.8.4-1.7.4-1.6 0-2.6-1-2.6-2.7 0-1.6 1-3 2.5-3 1.7 0 2.2 1.6 2.2 2.6v.5h-3.8zm3-.6c0-.6-.4-1.6-1.5-1.6-1 0-1.3 1-1.4 1.6h3zM180.8 149.6L179 142h1l.8 4c.3.8.5 1.7.6 2.5 0-.8.4-1.7.6-2.6l1-4h1l1 4c0 .8.3 1.7.4 2.4l.6-2.5 1-4h1l-2 7.6h-1l-1-4-.5-2.3-.6 2.4-1.2 4h-1zM193.4 146.8c0 2-1.4 3-2.7 3-1.4 0-2.5-1.2-2.5-3 0-1.6 1-2.7 2.6-2.7 1.5 0 2.6 1.2 2.6 2.8zm-4.3 0c0 1.3.8 2 1.7 2 1 0 1.7-.7 1.7-2 0-.8-.5-2-1.6-2-1.2 0-1.7 1-1.7 2zM194.6 146V144h.8v1c.3-.6 1-1 1.5-1h.2v1c0-.2-.2-.2-.3-.2-.8 0-1.3.5-1.4 1.3v3.4h-1v-3.8zM199.2 146.7c0-.2.3-.4.5-.6l1.5-1.8h1.2l-2 2.2 2.3 3.2h-1.2l-1.8-2.6-.5.6v2h-1v-8h1v5zM204 147c0 1.4.8 2 1.7 2 .7 0 1.2-.2 1.5-.4l.2.7c-.4.2-1 .4-1.8.4-1.6 0-2.6-1-2.6-2.7 0-1.6 1-3 2.5-3 1.7 0 2.2 1.6 2.2 2.6v.5H204zm2.8-.6c0-.6-.3-1.6-1.4-1.6-1 0-1.4 1-1.5 1.6h2.8zM209 146c0-.7 0-1.3-.2-1.8h1v1c.2-.6.8-1 1.4-1h.3v1c0-.2-.2-.2-.3-.2-.7 0-1.2.5-1.3 1.3l-.2.4v3h-1v-3.8z"/>
    <path fill="#FFF" stroke="#000" stroke-width=".5" stroke-miterlimit="10" d="M128 173h90.6v21.7H128z"/>
    <path fill="none" stroke="#000" stroke-miterlimit="10" d="M173.5 157v16"/>
    <path fill="#FFF" stroke="#000" stroke-width=".5" stroke-miterlimit="10" d="M128 249h90.7v21.8H128z"/>
    <path d="M144.5 265c.4 0 .8 0 1-.3.3-.3.4-.7.4-2v-4.5h1v4.8c0 1-.3 1.8-.7 2.2-.5.5-1.2.6-1.7.6v-.7zm2.5-8.3c0 .3-.2.6-.6.6-.4 0-.6-.3-.6-.6s.3-.6.6-.6c.4 0 .6.4.6.7zM148.3 262.6c.3 0 .8.3 1.3.3.7 0 1-.4 1-1 0-.3-.2-.6-1-.8-1-.4-1.3-1-1.3-1.5 0-1 .7-1.6 1.8-1.6.6 0 1 .3 1.4.4l-.2.7-1-.2c-.7 0-1 .4-1 .7 0 .5.3.7 1 1 1 .3 1.4.8 1.4 1.6 0 1-.7 1.7-2 1.7-.6 0-1-.2-1.5-.4l.3-.7zM157.7 260.8c0 2-1.4 3-2.7 3-1.4 0-2.6-1.2-2.6-3 0-1.7 1.2-2.7 2.7-2.7 1.6 0 2.7 1.2 2.7 2.8zm-4.3 0c0 1.3.7 2 1.6 2 1 0 1.7-.7 1.7-2 0-.8-.5-2-1.6-2-1 0-1.6 1-1.6 2zM159 259.7c0-.6 0-1-.2-1.5h1v1c.2-.6.8-1 1.7-1 .8 0 2 .3 2 2.2v3h-1v-3c0-.8-.4-1.5-1.3-1.5-.6 0-1 .4-1.3 1l-.2.3v3.2h-1v-3.8zM171.3 260.3l-.2-3.2c0 1-.4 2-.8 3l-1.3 3.5h-1l-1-3.5-1-3v3.4l-.3 3h-1l.6-7.3h1.3l1.2 3.7.8 2.5c.2-.7.4-1.6.8-2.5l1.3-3.6h1.2l.4 7.5h-1v-3.2zM173.7 262.6c.3 0 .8.3 1.3.3.7 0 1-.4 1-1 0-.3-.3-.6-1-.8-1-.4-1.4-1-1.4-1.5 0-1 .7-1.6 1.8-1.6.6 0 1 .3 1.3.4l-.2.7-1-.2c-.7 0-1 .4-1 .7 0 .5.3.7 1 1 1 .3 1.4.8 1.4 1.6 0 1-.8 1.7-2 1.7-.6 0-1.2-.2-1.6-.4l.3-.7zM182.8 258.2v4.5c0 1.3-.3 2-.8 2.5-.6.5-1.3.6-2 .6-.6 0-1.3 0-1.7-.4l.2-.7c.3.2 1 .4 1.6.4 1 0 1.8-.4 1.8-1.8v-.6c-.3.5-1 1-1.7 1-1.3 0-2.2-1.2-2.2-2.7 0-2 1.2-3 2.4-3 1 0 1.4.6 1.7 1v-.8h.8zm-1 2v-.3c-.3-.7-.7-1-1.4-1-1 0-1.6.6-1.6 2 0 1 .5 1.8 1.5 1.8.6 0 1.2-.4 1.4-1v-1.5zM184 259.8v-.6h5.6v.6H184zm0 2.2v-.7h5.6v.7H184zM191 259.7c0-.6 0-1-.2-1.5h1v1c.3-.6.8-1 1.6-1s1.3.3 1.5 1c0-.3.3-.6.6-.7.3-.3.6-.4 1-.4.8 0 2 .6 2 2.4v3h-1v-3c0-1-.4-1.5-1.2-1.5-.6 0-1 .3-1.2.8v3.7h-1v-3c0-1-.4-1.6-1-1.6-.7 0-1 .4-1.3 1l-.2.3v3.2h-1v-3.8zM199.8 263c0-.4.3-.7.7-.7.4 0 .6.3.6.7 0 .4 0 .7-.5.7-.4 0-.7-.3-.7-.7zM202 263c0-.4.4-.7.8-.7.3 0 .6.3.6.7 0 .4-.2.7-.6.7-.4 0-.7-.3-.7-.7zM204.4 263c0-.4.3-.7.6-.7.4 0 .7.3.7.7 0 .4-.3.7-.7.7-.4 0-.6-.3-.6-.7z"/>
    <path fill="#FFF" stroke="#000" stroke-width=".5" stroke-miterlimit="10" d="M129 484H219v22H129z"/>
    <path d="M52 156.8c-.4.2-1 .3-2 .3-1.8 0-3.3-1-3.3-3.3 0-2.2 1.5-3.7 3.6-3.7 1 0 1.4.2 1.6.4l-.3.7-1.4-.2c-1.6 0-2.6 1-2.6 2.8 0 1.7 1 2.8 2.6 2.8.5 0 1 0 1.4-.3l.2.8zM53 149.8h1v7.2h-1v-7.2zM56.4 150.7c0 .3-.2.6-.6.6-.3 0-.5-.3-.5-.6s.2-.6.6-.6c.2 0 .4.4.4.7zm-1 6.3v-5h1v5h-1zM58.3 154.7c0 1.2.8 1.7 1.7 1.7.6 0 1 0 1.3-.2l.2.6c-.3.2-1 .3-1.6.3-1.7 0-2.6-1-2.6-2.4s1-2.6 2.3-2.6c1.7 0 2 1.4 2 2.3v.4h-3.4zm2.6-.6c0-.5-.3-1.4-1.3-1.4s-1.3 1-1.4 1.5H61zM63 153.4V152h.6v1c.4-.6 1-1 1.7-1s1.8.4 1.8 2v3h-.8v-2.8c0-.8-.3-1.5-1-1.5s-1.2.4-1.3 1c-.2 0-.2.2-.2.4v3h-1v-3.6zM69.6 150.7v1.4H71v.8h-1.4v2.6c0 .6.2 1 .7 1h.5v.6H70c-.4 0-.7 0-1-.2-.2-.3-.3-.8-.3-1.3v-2.7H68v-.7h.7v-1l1-.3z"/>
    <path fill="none" stroke="#000" stroke-width=".599994" stroke-miterlimit="10" d="M34 155.3l26-26 26 26-26 26z"/>
    <path d="M51.8 564c-.3.3-1 .5-1.8.5-2 0-3.4-1.3-3.4-3.5s1.5-3.6 3.6-3.6c1 0 1.4.2 1.6.3l-.2.7c-.3 0-.8-.3-1.4-.3-1.6 0-2.6 1.2-2.6 3 0 1.6 1 2.7 2.6 2.7.5 0 1 0 1.4-.3l.2.7zM53 557h.8v7.4h-1V557zM56.3 558c0 .4-.2.6-.6.6-.3 0-.5-.2-.5-.5s.2-.5.6-.5c.3 0 .5.2.5.6zm-1 6.4v-5h1v5h-1zM58.2 562c0 1.3.8 1.8 1.7 1.8.5 0 1 0 1.2-.3l.2.7c-.3 0-1 .3-1.6.3-1.6 0-2.5-1-2.5-2.5s1-2.7 2.3-2.7c1.7 0 2 1.4 2 2.3v.5h-3.4zm2.6-.6c0-.5-.2-1.4-1.2-1.4s-1.3.8-1.4 1.4h2.6zM62.8 560.8v-1.4h.7v1c.4-.6 1-1 1.7-1s1.8.3 1.8 2v3h-1v-3c0-.7-.2-1.3-1-1.3-.6 0-1 .5-1.2 1v3.4h-1v-3.6zM69.5 558v1.4h1.3v.7h-1.3v2.8c0 .6.2 1 .7 1h.5v.5l-.8.2c-.5 0-.8-.2-1-.4-.3-.2-.4-.6-.4-1.2V560h-.8v-.6h.8v-1l1-.4z"/>
    <path fill="none" stroke="#000" stroke-width=".599994" stroke-miterlimit="10" d="M33.7 562.6l26-26 26.2 26-26.2 26z"/>
    <path fill="none" stroke="#000" stroke-miterlimit="10" d="M60 181.4v355.2"/>
    <path fill="none" stroke="#000" stroke-width=".8" stroke-miterlimit="10" d="M122 185.3H60"/>
    <path d="M121 181.2l7 4-7 4.2"/>
    <path fill="#FFF" stroke="#000" stroke-width=".5" stroke-miterlimit="10" d="M245 135.3h89.7v22H245zM129 358.7h89.6v22H129z"/>
    <path fill="none" stroke="#000" stroke-width=".5" stroke-miterlimit="10" d="M290 157v365.2"/>
    <path d="M258.2 142.3v2.8h3.3v-2.7h1v6.8h-1v-3h-3.3v3h-.8v-6.7h.8zM265.2 143h-2v-.7h5v.7h-2v6h-1v-6zM270.6 143h-2v-.7h5v.7h-2.2v6h-.8v-6zM274.3 142.4h1.6c.8 0 1.4 0 1.8.4.4.3.6.8.6 1.4 0 .6-.2 1-.5 1.5-.6.5-1.3.7-2.2.7h-.7v2.7h-.7v-6.6zm.8 3.3h1c1 0 1.6-.5 1.6-1.4 0-1-.7-1.4-1.6-1.4h-1v2.7zM284.3 149l-1.8.2c-2 0-3.3-1.2-3.3-3.4s1.4-3.6 3.5-3.6c1 0 1.4.2 1.6.3l-.2.7c-.2-.2-.7-.3-1.2-.3-1.6 0-2.7 1-2.7 2.7 0 1.7 1 2.7 2.7 2.7.6 0 1 0 1.4-.2l.3.7zM289.7 146.6c0 1.8-1.3 2.6-2.4 2.6-1.4 0-2.4-1-2.4-2.5 0-1.6 1-2.6 2.3-2.6 1.4 0 2.4 1 2.4 2.6zm-4 0c0 1 .7 2 1.6 2 .8 0 1.5-1 1.5-2 0-.8-.4-1.8-1.5-1.8-1 0-1.5 1-1.5 2zM290.8 145.5v-1.3h.7v.8c.3-.4 1-1 1.7-1s1.7.5 1.7 2.2v3h-1v-3c0-.7-.2-1.4-1-1.4-.7 0-1 .4-1.3 1v3.4h-1v-3.7zM296.4 145.5v-1.3h.7l.2.8c.2-.4.8-1 1.6-1 .7 0 1.7.5 1.7 2.2v3h-1v-3c0-.7-.2-1.4-1-1.4-.6 0-1 .4-1.2 1v3.4h-1v-3.7zM302.4 146.8c0 1.2.8 1.7 1.7 1.7.7 0 1 0 1.4-.3l.2.7-1.6.2c-1.5 0-2.4-1-2.4-2.5s.8-2.6 2.3-2.6c1.5 0 2 1.5 2 2.4 0 .2 0 .3-.2.4h-3.4zm2.6-.6c0-.6-.2-1.5-1.2-1.5s-1.3 1-1.4 1.5h2.6zM310.4 149l-1.4.2c-1.4 0-2.4-1-2.4-2.5s1-2.6 2.6-2.6c.5 0 1 .2 1.3.4l-.2.6-1-.2c-1.2 0-1.8.8-1.8 2 0 1 .7 1.7 1.7 1.7.5 0 .8-.2 1-.3l.2.7zM312.7 142.8v1.4h1.2v.7h-1.3v2.5c0 .6 0 1 .6 1h.5v.6l-.7.2c-.3 0-.7-.2-1-.4l-.2-1.3V145h-.8v-.8h.8V143l1-.2zM319.3 146.6c0 1.8-1.3 2.6-2.5 2.6-1.3 0-2.3-1-2.3-2.5 0-1.6 1-2.6 2.4-2.6 1.3 0 2.3 1 2.3 2.6zm-4 0c0 1 .7 2 1.6 2 .7 0 1.4-1 1.4-2 0-.8-.5-1.8-1.5-1.8s-1.6 1-1.6 2zM320.4 145.7v-1.5h.7v1h.2c.2-.7.7-1 1.3-1h.3v.8h-.3c-.7 0-1 .4-1.2 1v3.1h-1v-3.3z"/>
    <path fill="none" stroke="#000" stroke-width=".5" stroke-miterlimit="10" d="M402 364H219.5"/>
    <path d="M401.2 361.5l4.4 2.5-4.4 2.5"/>
    <path fill="#FFF" stroke="#000" stroke-width=".5" stroke-miterlimit="10" d="M127.4 211H218v21.7h-90.6z"/>
    <path d="M164.6 186.4c.4.3 1 .5 1.6.5 1 0 1.4-.6 1.4-1.3 0-.6-.4-1-1.3-1.3-1-.4-1.8-1-1.8-2s1-1.8 2.2-1.8c.7 0 1.2.2 1.5.4l-.2.7c-.3 0-.7-.3-1.3-.3-1 0-1.3.5-1.3 1 0 .6.4 1 1.3 1.3 1.2.4 1.8 1 1.8 2s-.8 2-2.4 2c-.5 0-1.3-.3-1.6-.5l.2-.8zM170.7 181.3v1.3h1.2v.7h-1.3v2.6c0 .5 0 1 .6 1 .3 0 .4 0 .5-.2v.7h-.7c-.3 0-.6 0-.8-.3-.3-.2-.4-.7-.4-1.2v-2.7h-.7v-.7h.8v-1l1-.3zM175.6 187.5v-.6c-.3.3-1 .6-1.6.6-1 0-1.4-.7-1.4-1.4 0-1.2 1-1.8 3-1.8 0-.5-.2-1.2-1.2-1.2-.5 0-1 0-1.3.4v-.6c.3-.3 1-.5 1.5-.5 1.5 0 1.8 1 1.8 2v3h-.7zm0-2.5c-1 0-2.2.2-2.2 1 0 .7.4 1 1 1 .5 0 1-.4 1-.8V185zM177.8 184.2v-1.6h.7v1c.3-.6.8-1 1.4-1h.2v.8h-.3c-.8 0-1.2.4-1.3 1v3h-1v-3.3zM182.4 181.3v1.3h1.2v.7h-1.2v2.6c0 .5 0 1 .6 1 .3 0 .4 0 .5-.2v.7h-.7c-.4 0-.8 0-1-.3-.2-.2-.3-.7-.3-1.2v-2.7h-.8v-.7h.8v-1l1-.3z"/>
    <path fill="none" stroke="#000" stroke-width=".5" stroke-miterlimit="10" d="M222 375.2h3"/>
    <path fill="none" stroke="#000" stroke-width=".5" stroke-miterlimit="10" d="M231 375.2h165.4" stroke-dasharray="6 6"/>
    <path fill="none" stroke="#000" stroke-width=".5" stroke-miterlimit="10" d="M399.4 375.2h3"/>
    <path d="M223 377.7l-4.5-2.5 4.4-2.5"/>
    <path fill="none" stroke="#000" stroke-width=".5" stroke-miterlimit="10" d="M547.4 572.6h460V962h-460z"/>
    <path fill="#FFF" stroke="#000" stroke-width=".5" stroke-miterlimit="10" d="M537.2 511.2h482v21h-482z"/>
    <path fill="#939598" d="M969.2 524v-3h.7v3.8h-7.6v-7.5h3.7v.7h-2.8v6h6zm-.5-5.4l-1-1 .5-.3 1.7 1.5-1.5 1.6-.5-.4.7-.8c-1.8.2-3.2 1-4 2 0 .4-.3.7-.4 1l-.2.8v.3h-.5v-.2-.5l.4-1 .5-1 1-.8c.3-.3.8-.5 1.3-.7l2-.4zM983.2 524v-3h.7v3.8h-7.6v-7.5h3.7v.7h-2.8v6h6zm.7-6.7v.5h-.4s-.4 0-.7.3l-1 .5c-1.4.8-2 2-2.2 4l.8-.7.4.4-1.6 1.5-1.6-1.7.5-.4.8 1c.2-.8.3-1.4.6-2l.7-1.4 1-1 1-.5.7-.3H984zM992.6 517.3h2.8v1h2v.8h-6.7v-.8h2v-1zm-1.4 2.6h5.6v4.8h-5.6v-5zm1.2.5v3.6h1v-3.5h-1zm2.3 0v3.6h1v-3.5h-1zM1008.3 523l-3.8-3.6.6-.6 3.3 3 3.2-3 .6.7-3.7 3.6z"/>
    <path fill="#939598" stroke="#000" stroke-width=".3" stroke-miterlimit="10" d="M958.7 517v8.3M973 517.5v8.2M987.2 517v8.3M1001 517v8.3"/>
    <path d="M537.2 511.2h18v21h-18z"/>
    <path fill="#FFF" d="M549.2 518.6v.4h-1l-.7 2.7c-.3 1.2-.6 2-1 2.8-.3 1-.8 1.5-1.3 2l-1 .3c-.4 0-.6 0-.8-.2l-.2-.4c0-.2 0-.3.2-.4h.7s.2 0 .2.2c0 0 0 .2-.2.3v.2h.7l.5-.6.5-1 .5-1.8 1-4.2h-1v-.4h.8c0-.2.2-.2.3-.4l.5-.7.7-1.2c.3-.4.6-.6 1-.8.3-.2.6-.3 1-.3.2 0 .5 0 .7.2.2.2.2.4.2.6v.3l-.5.2h-.4v-.4-.3-.2h-.2c-.3 0-.5 0-.7.2-.3.2-.6.6-.8 1l-.7 2h1z"/>
    <path d="M562.7 551.6c1-1 2.3-1.6 3.7-1.6 1.5 0 2.8.6 3.8 1.6s1.6 2.3 1.6 3.8c0 1.4-.6 2.7-1.6 3.7s-2.3 1.7-3.8 1.7c-1.4 0-2.7-.6-3.7-1.6s-1.6-2.2-1.6-3.6c0-1.5.7-2.8 1.7-3.8zm2 5.8v-.4c-.4 0-.5 0-.5-.4v-.3-.4c0-.4 0-.6-.2-.6.2 0 .3-.3.3-.6v-.4-.3c0-.2 0-.3.3-.3v-.4c-.6 0-.8.3-.8.7v.9s0 .2-.3.2v.3c.3 0 .4 0 .4.3 0 0 0 .3-.2.4v.5c0 .4.2.7.8.7zm2-.6l1-3h-.5l-.5 1.5c0 .4-.2.7-.3 1 0-.3 0-.6-.2-1l-.5-1.4h-.5l1 2.8h.4zm2.7-1.3v-.3c-.3 0-.4 0-.4-.3v-.6-.4c0-.4-.2-.7-.7-.7v.4c.2 0 .4 0 .4.4v.8c0 .3 0 .5.2.6-.3 0-.4.2-.4.5v.6c0 .3 0 .4-.3.4v.4c.5 0 .8-.3.8-.7v-.5-.3c0-.4 0-.5.4-.5z"/>
    <path fill="#AEADAE" d="M573.5 551.5h7.4v7.4h-7.5z"/>
    <path fill="#FFF" d="M579.4 555v.4h-2v2h-.6v-2h-2v-.5h2v-2.2h.5v2h2z"/>
    <path fill="#EFEFEF" d="M582.6 550h10.7v10.7h-10.7z"/>
    <path fill="#8D8D8D" d="M586 555l3-3 .4.6-2.5 2.5 2.4 2.8-.5.4-3-3z"/>
    <path fill="none" stroke="#000" stroke-width=".5" stroke-miterlimit="10" d="M537.2 532.2h482v441h-482z"/>
    <path fill="#FFF" stroke="#000" stroke-width=".5" stroke-miterlimit="10" d="M547.4 572.8h460v21h-460z"/>
    <path fill="#939598" d="M957.3 585.6v-3h.7v3.8h-7.5v-7.6h3.7v.8h-2.9v6h6zm-.4-5.5l-1-.7.3-.5 1.7 1.6-1.4 1.6-.4-.4.6-1c-1.8.3-3 1-4 2.3l-.4.8-.2.8v.3h-.6v-.4l.2-.6.3-.8.6-1 1-1 1.4-.6 2-.5zM971.3 585.6v-3h.7v3.8h-7.5v-7.6h3.7v.7h-2.9v6h6zm.7-6.8v.6h-.3l-.7.2-1 .5c-1.2 1-2 2.2-2 4l.7-.6.4.4-1.5 1.4-1.5-1.6.4-.5 1 1c0-.6 0-1.2.3-1.8l.7-1.4 1-1 1-.5c.2-.2.5-.3.7-.3.4 0 .6 0 .8-.2h.2zM980.7 578.8h3v1h1.7v1h-6.6v-1h2v-1zm-1.4 2.7h5.7v5h-5.7v-5zm1.3.6v3.7h.8V582h-.8zm2.2 0v3.7h1V582h-1zM996.4 584.6l-3.8-3.6.6-.6 3.2 3 3.2-3 .6.7-3.8 3.6z"/>
    <path fill="#939598" stroke="#000" stroke-width=".3" stroke-miterlimit="10" d="M961.2 578.5v8.2M975.3 578v8.3M989 578.7v8"/>
    <path d="M547.3 572.8h18v21h-18z"/>
    <path fill="#FFF" d="M559.4 580.2v.4h-1l-.7 2.7c-.3 1.2-.6 2-1 2.8-.4 1-1 1.6-1.4 2-.3.2-.7.4-1 .4-.3 0-.5 0-.7-.3-.2 0-.2 0-.2-.3v-.3h.7v.5h.7c0-.2.2-.3.4-.5s.3-.6.4-1l.5-1.7 1-4.2h-1v-.4h.8l.5-.4.4-.8.6-1c.3-.5.7-.8 1-1l1-.2c.3 0 .5 0 .7.2l.3.6s0 .2-.2.3h-.3-.2l-.2-.3v-.3c.2 0 .2 0 .2-.2h-1l-.7 1-.5 2h1z"/>
    <path d="M572.8 613.2c1-1 2.3-1.6 3.8-1.6s2.7.5 3.7 1.6c1 1 1.6 2.3 1.6 3.7 0 1.4-.6 2.6-1.7 3.7-1 1-2.2 1.5-3.7 1.5s-2.7-.5-3.8-1.5-1.5-2.3-1.5-3.8.5-2.8 1.5-3.8zm2 5.8v-.4c-.3 0-.4 0-.4-.4v-.3-.5c0-.3 0-.5-.2-.6l.3-.6v-.4-.4c0-.2 0-.3.2-.3h.2v-.4h-.3c-.5 0-.8 0-.8.6v.8c0 .3 0 .4-.3.4v.3c.2 0 .3.2.3.4v.8c0 .5.2.8.7.8h.2zm2-.6l1-3h-.5l-.5 1.5-.2.8-.3-1-.5-1.3h-.4l1 3h.4zm2.8-1.3v-.2c-.3 0-.4 0-.4-.4v-.4-.4c0-.5-.2-.7-.7-.7h-.2v.3h.2c.2 0 .3 0 .3.3v.7c0 .2 0 .4.2.5-.2 0-.3.2-.3.5V618c0 .3 0 .4-.2.4h-.2v.4h.2c.5 0 .7-.3.7-.8v-.4-.4c0-.2 0-.3.3-.3z"/>
    <path fill="#AEADAE" d="M583.6 613h7.4v7.4h-7.4z"/>
    <path fill="#FFF" d="M589.6 616.5v.4h-2v2h-.6v-2h-2v-.5h2v-2h.5v2h2z"/>
    <path fill="#EFEFEF" d="M592.7 611.6h10.7v10.7h-10.7z"/>
    <path fill="#8D8D8D" d="M596 616.7l3-3 .5.4-2.5 2.7 2.5 2.6-.5.5-3-3z"/>
    <path fill="#FFF" stroke="#000" stroke-width=".8" stroke-miterlimit="10" d="M692.8 639.6h125V670H693z"/>
    <text transform="translate(707.87 657.59)" font-family="'MyriadPro-Regular'" font-size="14.2">
      ResourceWorker
    </text>
    <path fill="#FFF" stroke="#000" stroke-width=".5" stroke-miterlimit="10" d="M692.8 692.2h126.4v30.5H692.8z"/>
    <path fill="none" stroke="#000" stroke-width=".5" stroke-miterlimit="10" d="M756.2 670v22.2"/>
    <path fill="#FFF" stroke="#000" stroke-width=".5" stroke-miterlimit="10" d="M693 846.8h126.3v30.5H693z"/>
    <g>
      <path d="M586.6 669.7c-.4.2-1.3.4-2.5.4-2.6 0-4.6-1.6-4.6-4.7 0-3 2-5 5-5 1.2 0 2 .2 2.2.4l-.3 1c-.4-.2-1-.4-2-.4-2 0-3.6 1.4-3.6 4 0 2.3 1.3 3.8 3.7 3.8.7 0 1.5 0 2-.3l.2 1zM588 660h1.4v10H588v-10zM593 661.2c0 .4-.4.7-1 .7-.4 0-.7-.4-.7-.8 0-.5.4-.8.8-.8.6 0 1 .3 1 .8zm-1.5 8.8v-7h1.2v7h-1.2zM595.5 666.8c0 1.7 1 2.4 2.4 2.4.8 0 1.3-.2 1.8-.4l.2 1c-.5 0-1.2.3-2.3.3-2 0-3.4-1.3-3.4-3.3s1.2-3.7 3.2-3.7c2.3 0 3 2 3 3.2l-.2.6h-4.8zm3.7-1c0-.7-.4-2-1.8-2-1.2 0-1.8 1.2-2 2h3.8zM602 665v-2h1v1.3c.4-.7 1.2-1.3 2.3-1.3 1 0 2.5.5 2.5 3v4h-1.3v-4c0-1-.4-2-1.6-2-1 0-1.5.6-1.7 1.3v4.6h-1.4v-5zM611.3 661v2h1.7v1h-1.7v3.8c0 .8.2 1.3 1 1.3h.6v1h-1c-.7 0-1.2 0-1.5-.4-.3-.4-.5-1-.5-1.8V664h-1v-1h1v-1.5l1.3-.4z"/>
    </g>
    <path fill="none" stroke="#000" stroke-width=".799992" stroke-miterlimit="10" d="M561.4 667.6l36.5-36.4 36.3 36.4L598 704z"/>
    <path fill="none" stroke="#000" stroke-width="1.5" stroke-miterlimit="10" d="M597.8 704v172.4"/>
    <g>
      <path fill="none" stroke="#000" stroke-width="1.2" stroke-miterlimit="10" d="M684.5 709.4h-86.7"/>
      <path d="M682.8 703.6l10 5.8-10 5.7"/>
    </g>
    <path fill="#FFF" stroke="#000" stroke-width=".5" stroke-miterlimit="10" d="M692 743.3h126.3v30.5H692z"/>
    <g>
      <path d="M729.4 758.3V756h1v1.2c.6-.8 1.4-1.3 2.5-1.3 1.6 0 2.8 1.3 2.8 3.3 0 2.5-1.5 3.7-3 3.7-1 0-1.7-.4-2.2-1v3.6h-1.2v-7.3zm1.2 1.8v.6c.3.8 1 1.4 2 1.4 1.2 0 2-1 2-2.6 0-1.4-.7-2.5-2-2.5-1 0-1.7.5-2 1.4v1.5zM741 762.8v-.8c-.4.5-1 1-2 1-1.5 0-2.2-1-2.2-2 0-1.6 1.5-2.5 4-2.5 0-.7 0-1.7-1.4-1.7-.7 0-1.3.2-1.8.5l-.3-.8c.6-.4 1.4-.6 2.3-.6 2 0 2.5 1.3 2.5 2.7v2.5l.2 1.6h-1zm0-3.4c-1.4 0-3 .2-3 1.5 0 .7.6 1 1.2 1 1 0 1.5-.5 1.7-1v-1.6zM744.5 756l1.4 4c0 .5.3 1 .4 1.4 0-.4.3-1 .4-1.4l1.4-4h1.3l-2 5c-.8 2.2-1.4 3.4-2.2 4-.6.7-1.2 1-1.5 1l-.3-1 1-.7c.4-.3.8-.7 1-1.4l.2-.4v-.3L743 756h1.5zM750.6 753h1.2v9.8h-1.2v-10zM760 759.4c0 2.5-1.7 3.6-3.3 3.6-2 0-3.3-1.4-3.3-3.5 0-2.3 1.5-3.6 3.4-3.6 2 0 3.2 1.3 3.2 3.4zm-5.3 0c0 1.5.8 2.7 2 2.7s2-1 2-2.6c0-1-.5-2.6-2-2.6-1.4 0-2 1.4-2 2.7zM765.3 762.8v-.8c-.5.5-1.2 1-2.2 1-1.2 0-2-1-2-2 0-1.6 1.5-2.5 4-2.5 0-.7 0-1.7-1.4-1.7-.6 0-1.3.2-1.8.5l-.3-.8c.6-.4 1.4-.6 2.3-.6 2 0 2.5 1.3 2.5 2.7v2.5c0 .6 0 1.2.2 1.6h-1.2zm0-3.4c-1.5 0-3 .2-3 1.5 0 .7.5 1 1.2 1 .8 0 1.4-.5 1.6-1l.2-.4v-1.2zM774.2 753v9.8h-1v-1c-.5.6-1.3 1.2-2.5 1.2-1.6 0-3-1.4-3-3.5 0-2.2 1.5-3.6 3.2-3.6 1 0 1.6.4 2 1v-4h1.2zm-1.2 5.8v-.5c-.3-.8-1-1.4-2-1.4-1.2 0-2 1-2 2.5 0 1.4.8 2.5 2 2.5 1 0 1.7-.6 2-1.5v-1.7zM778.7 758v-.7h7.3v.8h-7.3zm0 3v-1h7.3v1h-7.3zM791.2 753l1.2 2h-1l-1.6-2h1.4zM794.4 762c0-.4.4-.8 1-.8.3 0 .7.4.7 1 0 .4-.2.8-.8.8-.4 0-.8-.4-.8-1zM797.3 762c0-.4.4-.8 1-.8.3 0 .7.4.7 1 0 .4-.3.8-1 .8-.4 0-.7-.4-.7-1zM800.2 762c0-.4.4-.8 1-.8s.7.4.7 1c0 .4-.4.8-1 .8-.5 0-.8-.4-.8-1z"/>
    </g>
    <g>
      <path d="M743.8 711c.5.3 1.3.6 2 .6 1.4 0 2-.6 2-1.6s-.4-1.4-1.7-2c-1.4-.4-2.4-1.2-2.4-2.5 0-1.5 1.3-2.6 3-2.6 1 0 1.8 0 2.2.4l-.3 1c-.4-.2-1-.5-1.8-.5-1.3 0-1.8.7-1.8 1.3 0 1 .5 1.3 1.8 1.8 1.6.8 2.4 1.5 2.4 3 0 1.4-1 2.6-3.3 2.6-1 0-2-.2-2.5-.6l.3-1zM752.2 703.8v2h1.8v1h-1.8v3.5c0 1 .3 1.3 1 1.3h.7v1h-1.2c-.5 0-1 0-1.3-.5-.3-.2-.5-.8-.5-1.6v-3.7h-1v-1h1V704l1.2-.2zM759 712.5v-1c-.4.7-1 1.2-2 1.2-1.5 0-2.2-1-2.2-2 0-1.6 1.5-2.5 4-2.5v-.2c0-.5 0-1.5-1.4-1.5-.6 0-1.3.2-1.8.5l-.3-.8c.6-.4 1.4-.6 2.3-.6 2 0 2.5 1.4 2.5 2.7v2.6l.3 1.5H759zm0-3.5c-1.4 0-3 .2-3 1.6 0 .8.6 1 1.2 1 1 0 1.5-.4 1.7-1V709zM762 707.8v-2h1l.2 1.2c.4-1 1-1.4 2-1.4h.3v1.2h-.4c-.8 0-1.4.6-1.6 1.5v4.1H762v-4.7zM768.5 703.8v2h1.8v1h-1.8v3.5c0 1 .3 1.3 1 1.3h.7v1h-1c-.6 0-1 0-1.4-.5-.4-.2-.5-.8-.5-1.6v-3.7h-1v-1h1V704l1.2-.2z"/>
    </g>
    <g>
      <path d="M566.7 520.4v-1.8h1v1c.4-.5 1.2-1.2 2.3-1.2 1 0 2.4.6 2.4 3v4h-1.2v-4c0-1-.4-2-1.6-2-.8 0-1.4.6-1.6 1.3v4.6h-1.3v-5zM574.7 518.6l1.5 4c0 .5.3 1 .4 1.4l.5-1.4 1.4-4h1.3l-1.8 4.8c-1 2.4-1.6 3.6-2.4 4.3-.6.5-1.2.7-1.5.8l-.3-1c.4-.2.8-.4 1-.7.5-.2 1-.7 1.2-1.3v-.3-.4l-2.6-6.2h1.3zM580.6 524c.4.4 1 .6 1.6.6 1 0 1.3-.4 1.3-1s-.3-1-1.2-1.2c-1.2-.5-1.8-1.2-1.8-2 0-1 1-2 2.3-2 .7 0 1.3.2 1.7.5l-.3.8c-.3-.2-.8-.4-1.4-.4-.7 0-1 .4-1 1 0 .5.3.7 1.2 1 1 .5 1.7 1 1.7 2 0 1.3-1 2-2.5 2-.7 0-1.4 0-2-.3l.4-1zM587 522.2c0 1.7 1 2.4 2.3 2.4 1 0 1.4-.2 2-.4v1c-.3 0-1 .3-2 .3-2.2 0-3.5-1.4-3.5-3.4s1.2-3.6 3.2-3.6c2.2 0 2.8 2 2.8 3.2v.6H587zm3.6-1c0-.7-.3-2-1.7-2-1.3 0-2 1.3-2 2h3.6zM593.2 524c.5.2 1.3.5 2.2.5 1.2 0 2-.6 2-1.6s-.5-1.5-1.8-2c-1.6-.5-2.5-1.3-2.5-2.6 0-1.5 1.3-2.6 3-2.6 1 0 1.8.2 2.2.4l-.3 1c-.4 0-1-.4-2-.4-1.2 0-1.7.8-1.7 1.4 0 1 .6 1.3 2 1.8 1.5.6 2.3 1.4 2.3 2.8 0 1.5-1 2.7-3.3 2.7-1 0-2-.2-2.4-.6l.2-1zM601.7 516.7v2h1.7v.8h-1.7v3.7c0 .8.2 1.3 1 1.3h.6v1h-1c-.6 0-1-.2-1.4-.5-.4-.4-.5-1-.5-1.8v-3.7h-1v-1h1V517l1.2-.3zM611 522c0 2.4-2 3.5-3.5 3.5-1.8 0-3.3-1.3-3.3-3.5s1.5-3.6 3.4-3.6c2 0 3.3 1.5 3.3 3.5zm-5.5 0c0 1.5.8 2.6 2 2.6s2-1 2-2.6c0-1.2-.5-2.6-2-2.6-1.4 0-2 1.3-2 2.6zM617.3 525c-.4.3-1 .5-2 .5-2 0-3.4-1.4-3.4-3.4s1.4-3.5 3.6-3.5c.7 0 1.3 0 1.7.3l-.3 1c-.3-.2-.8-.4-1.4-.4-1.6 0-2.4 1.2-2.4 2.6 0 1.6 1 2.5 2.3 2.5.7 0 1.2 0 1.6-.3l.3 1zM620 521.7c0-.2.3-.5.5-.8l2-2.4h1.5l-2.6 2.8 3 4H623l-2.5-3.3-.6.8v2.6h-1.3v-10h1.2v6.3zM633 526.8l-3.5-1-.6-.3c-2.3 0-4.3-1.7-4.3-4.7s2-5 4.4-5c2.7 0 4.4 2 4.4 4.8 0 2.4-1 4-2.7 4.5 1 .4 2 .6 2.7.7l-.3 1zm-1-6.2c0-2-1-3.8-3-3.8s-3 2-3 4 1 3.7 3 3.7 3-1.7 3-4zM640.6 523.5v2h-1v-1.2c-.4.5-1 1.2-2.4 1.2-1 0-2.3-.6-2.3-3v-4h1v4c0 1 .5 2 1.7 2 .8 0 1.4-.6 1.6-1v-4.9h1.3v5zM648.8 522c0 2.4-1.7 3.5-3.4 3.5-1.8 0-3.2-1.3-3.2-3.5s1.5-3.6 3.3-3.6c2 0 3.3 1.5 3.3 3.5zm-5.4 0c0 1.5 1 2.6 2 2.6 1.3 0 2-1 2-2.6 0-1.2-.4-2.6-2-2.6-1.3 0-2 1.3-2 2.6zM651.8 516.7v2h1.8v.8h-1.8v3.7c0 .8.3 1.3 1 1.3h.7v1h-1c-.6 0-1-.2-1.4-.5-.2-.4-.4-1-.4-1.8v-3.7h-1v-1h1V517l1.2-.3zM655.6 522.2c0 1.7 1 2.4 2.3 2.4.8 0 1.3-.2 1.8-.4l.2 1c-.4 0-1.2.3-2.3.3-2 0-3.3-1.4-3.3-3.4s1.2-3.6 3.2-3.6c2.2 0 2.8 2 2.8 3.2v.6h-4.8zm3.6-1c0-.7-.3-2-1.7-2-1.3 0-1.8 1.3-2 2h3.7z"/>
    </g>
    <g>
      <path d="M577.5 587c.5.2 1.3.5 2.2.5 1.2 0 2-.7 2-1.6 0-1-.6-1.5-1.8-2-1.7-.5-2.6-1.3-2.6-2.7 0-1.4 1.2-2.5 3-2.5 1 0 1.7.2 2 .4l-.2 1c-.3 0-1-.4-1.8-.4-1.3 0-1.8.8-1.8 1.4 0 1 .6 1.3 2 1.8 1.5.6 2.3 1.4 2.3 2.8 0 1.5-1.2 2.7-3.4 2.7-1 0-2-.3-2.4-.6l.3-1zM586 579.6v2h1.7v1H586v3.6c0 .8.2 1.3 1 1.3h.6v.8l-1 .2c-.6 0-1-.2-1.4-.5-.3-.4-.4-1-.4-1.8v-3.7h-1v-1h1V580l1.2-.4zM595.2 585c0 2.4-1.8 3.5-3.4 3.5-1.8 0-3.3-1.3-3.3-3.5s1.5-3.6 3.4-3.6c1.8 0 3.2 1.5 3.2 3.5zm-5.4 0c0 1.5.8 2.6 2 2.6s2-1 2-2.6c0-1.2-.5-2.6-2-2.6s-2 1.3-2 2.6zM601.5 588c-.3.3-1 .5-2 .5-2 0-3.3-1.4-3.3-3.4s1.5-3.5 3.7-3.5c.6 0 1.2 0 1.6.3l-.3 1c-.3-.2-.8-.4-1.4-.4-1.7 0-2.5 1.2-2.5 2.6 0 1.6 1 2.5 2.3 2.5.7 0 1.2 0 1.5-.3l.2 1zM604.2 584.7l.6-.8 2-2.4h1.5l-2.6 2.8 3 4h-1.5l-2.4-3.3-.6.8v2.6H603v-10h1.2v6.3zM609.4 587c.3.4 1 .6 1.6.6 1 0 1.3-.4 1.3-1s-.3-1-1.2-1.3c-1.2-.4-1.7-1-1.7-2s1-2 2.3-2c.7 0 1.3.3 1.7.6l-.3.8c-.3-.2-.8-.4-1.4-.4-.7 0-1.2.4-1.2 1 0 .4.5.7 1.3 1 1.2.5 1.8 1 1.8 2 0 1.3-1 2-2.5 2-.8 0-1.5 0-2-.3l.4-1z"/>
    </g>
    <text transform="translate(-138.333 672.334)" font-family="'MyriadPro-Regular'" font-size="14">
      message:set..
    </text>
    <path fill="#FFF" stroke="#000" stroke-width=".5" stroke-miterlimit="10" d="M692 794.2h126.3v30.5H692z"/>
    <g>
      <path d="M718.4 808.8V807h1v1c.5-.6 1-1.2 2.2-1.2 1 0 1.7.6 2 1.4l.7-1c.5-.2 1-.4 1.5-.4 1 0 2.3.6 2.3 3v4h-1v-4c0-1.2-.6-2-1.6-2-.7 0-1.2.5-1.5 1l-.2.7v4.2h-1.2v-4c0-1-.4-2-1.4-2-.7 0-1.3.7-1.5 1.3v4.6h-1.3V809zM730.8 810.6c0 1.6 1 2.3 2.3 2.3 1 0 1.5-.2 2-.4l.2 1c-.5 0-1.2.3-2.3.3-2.2 0-3.4-1.5-3.4-3.5s1.2-3.7 3.2-3.7c2.2 0 2.8 2 2.8 3.2v.6h-4.8zm3.6-1c0-.7-.4-2-1.7-2-1.3 0-1.8 1.2-2 2h3.7zM737 812.5c.3.2 1 .5 1.5.5 1 0 1.4-.5 1.4-1 0-.6-.5-1-1.4-1.3-1.2-.4-1.8-1-1.8-2s1-2 2.3-2c.8 0 1.4.3 1.8.5l-.3 1c-.3-.3-.8-.5-1.4-.5-.6 0-1 .4-1 1 0 .5.4.8 1.3 1 1 .5 1.7 1 1.7 2 0 1.3-1 2.2-2.5 2.2-.7 0-1.4-.3-2-.6l.4-1zM742.5 812.5c.3.2 1 .5 1.6.5 1 0 1.4-.5 1.4-1 0-.6-.4-1-1.3-1.3-1-.4-1.7-1-1.7-2s1-2 2.4-2c.7 0 1.3.3 1.7.5l-.4 1c-.2-.3-.7-.5-1.3-.5-.8 0-1.2.4-1.2 1 0 .5.4.8 1.3 1 1.2.5 1.8 1 1.8 2 0 1.3-1 2.2-2.5 2.2-.7 0-1.4-.3-1.8-.6l.3-1zM752 813.7l-.2-.8c-.4.4-1 1-2 1-1.5 0-2.2-1-2.2-2 0-1.7 1.5-2.6 4-2.6 0-.7 0-1.7-1.4-1.7-.7 0-1.3.2-1.8.5l-.3-.8c.7-.4 1.5-.6 2.4-.6 2 0 2.5 1.4 2.5 2.8v4.2h-1zm-.3-3.4c-1.3 0-2.8.2-2.8 1.5 0 .8.4 1.2 1 1.2 1 0 1.5-.6 1.7-1.2v-1.5zM760.8 807v5.8c0 1.5-.4 2.5-1 3-.7.7-1.7 1-2.5 1s-1.7-.3-2.3-.7l.3-.8c.5.2 1.2.5 2 .5 1.3 0 2.2-.7 2.2-2.4v-.7c-.4.6-1 1-2.2 1-1.7 0-3-1.3-3-3.2 0-2.3 1.6-3.6 3.2-3.6 1.2 0 1.8.6 2 1.2l.2-1h1zm-1.3 2.6v-.5c-.3-.6-1-1.2-1.8-1.2-1.2 0-2 1-2 2.5 0 1.4.6 2.5 2 2.5.7 0 1.4-.5 1.7-1.3v-1.9zM763.4 810.6c0 1.6 1 2.3 2.4 2.3.8 0 1.4-.2 1.8-.4l.2 1c-.4 0-1 .3-2.2.3-2 0-3.3-1.5-3.3-3.5s1.2-3.7 3-3.7c2.3 0 3 2 3 3.2v.6h-5zm3.6-1c0-.7-.3-2-1.7-2-1.2 0-1.8 1.2-2 2h3.7zM769.5 808c0-.4.3-.8.8-.8s.8.4.8 1c0 .4-.2.7-.7.7-.5 0-.8-.4-.8-1zm0 5c0-.5.3-1 .8-1s.8.5.8 1-.2 1-.7 1c-.5 0-.8-.5-.8-1zM772.5 812.5c.4.2 1 .5 1.6.5 1 0 1.4-.5 1.4-1 0-.6-.3-1-1.2-1.3-1.3-.4-1.8-1-1.8-2s1-2 2.3-2c.7 0 1.3.3 1.7.5l-.3 1c-.2-.3-.7-.5-1.3-.5-.7 0-1 .4-1 1 0 .5.3.8 1 1 1.3.5 2 1 2 2 0 1.3-1 2.2-2.6 2.2-.7 0-1.3-.3-1.8-.6l.3-1zM779 810.6c0 1.6 1 2.3 2.2 2.3 1 0 1.4-.2 2-.4v1c-.3 0-1 .3-2.2.3-2 0-3.3-1.5-3.3-3.5s1.2-3.7 3.2-3.7 2.7 2 2.7 3.2v.6H779zm3.5-1c0-.7-.3-2-1.7-2-1.3 0-1.8 1.2-2 2h3.7zM786.7 805v2h1.8v1h-1.8v3.5c0 1 .2 1.4 1 1.4l.6-.2v1h-1c-.6 0-1 0-1.3-.4-.4-.4-.5-1-.5-1.8V808h-1v-1h1v-1.7l1.2-.3zM789.5 813c0-.5.4-1 1-1s.7.5.7 1-.3 1-1 1c-.4 0-.7-.5-.7-1zM792.4 813c0-.5.4-1 .8-1 .5 0 1 .5 1 1s-.4 1-1 1c-.5 0-.8-.5-.8-1z"/>
    </g>
    <path fill="none" stroke="#000" stroke-width=".5" stroke-miterlimit="10" d="M756.6 824.2v22M756 772.8v21.8M756.6 722.6v22"/>
    <g>
      <path d="M145.8 221.5V220h.8v1c.4-.6 1-1 2-1 .6 0 1.7.3 1.7 2.2v3h-1v-3c0-.8-.2-1.5-1.2-1.5-.5 0-1 .4-1.2 1V225.4h-1v-3.8zM152 220l1.3 3.2.3 1c0-.3.3-.7.4-1l1-3.2h1l-1.4 3.8c-.7 1.8-1 2.8-1.8 3.3-.5.6-1 .7-1.2.8l-.2-.8c.2 0 .5-.3.8-.5.3-.2.6-.6.8-1v-.3-.3l-2-5h1zM156.8 224.3c.2.2.7.4 1.2.4.7 0 1-.3 1-.8s-.2-.8-1-1c-1-.4-1.3-1-1.3-1.5 0-1 .7-1.6 1.8-1.6.5 0 1 0 1.3.2l-.2.7c-.2-.2-.6-.4-1-.4-.7 0-1 .3-1 .7 0 .5.3.7 1 1 1 .3 1.4.8 1.4 1.6s-.7 1.4-2 1.4c-.6 0-1 0-1.5-.3l.3-.7zM161.8 223c0 1.2.8 1.7 1.8 1.7.7 0 1 0 1.5-.3l.2.7c-.3.3-1 .4-1.7.4-1.7 0-2.6-1-2.6-2.6s.8-3 2.4-3c1.7 0 2.2 1.6 2.2 2.6v.5h-3.8zm2.8-.8c0-.7-.2-1.6-1.3-1.6-1 0-1.4 1-1.5 1.6h2.8zM166.7 224.2c.4.2 1 .5 1.7.5 1 0 1.5-.6 1.5-1.3 0-.7-.5-1-1.5-1.5-1.2-.5-2-1-2-2.2 0-1 1-2 2.5-2 .7 0 1.3.2 1.6.4l-.3.7c-.2-.2-.7-.4-1.4-.4-1 0-1.5.6-1.5 1 0 .8.5 1 1.5 1.5 1.3.6 2 1.2 2 2.3 0 1.2-1 2-2.7 2-.7 0-1.5 0-2-.3l.3-.8zM173.3 218.5v1.5h1.4v.8h-1.4v2.8c0 .7.2 1 .7 1h.6v.7h-.8c-.5 0-.8 0-1-.3-.3-.2-.4-.7-.4-1.3v-3h-1v-.7h1v-1.3l1-.2zM175.8 221.7V220h.8v1c.3-.7 1-1 1.5-1h.4v.8h-.3c-.6 0-1 .5-1.2 1.2v3.3h-1v-3.6zM180.5 218.5c0 .3-.2.6-.6.6-.5 0-.7-.2-.7-.5s.3-.6.6-.6.5.2.5.5zm-1 6.8V220h1v5.3h-1zM182 221.5V220h.8v1c.4-.6 1-1 1.8-1s2 .3 2 2.2v3h-1v-3c0-.8-.4-1.5-1.3-1.5-.6 0-1 .4-1.3 1V225.4h-1v-3.8zM192.7 220v4.5c0 1.3-.3 2-.8 2.5-.6.5-1.4.6-2 .6-.7 0-1.4 0-1.8-.4l.2-.7c.4.2 1 .4 1.6.4 1 0 1.7-.6 1.7-2v-.6c-.3.5-1 1-1.7 1-1.3 0-2.3-1.2-2.3-2.7 0-1.8 1.2-2.8 2.4-2.8 1 0 1.5.4 1.8.8v-.8h1zm-1 2v-.3c-.2-.6-.7-1-1.4-1-1 0-1.6.7-1.6 2 0 1 .5 2 1.6 2 .6 0 1-.5 1.3-1V222zM194 224.8c0-.4 0-.7.5-.7.4 0 .7.4.7.8s-.3.7-.7.7c-.4 0-.6-.3-.6-.7zM196 224.8c0-.4.4-.7.8-.7s.6.4.6.8-.2.7-.6.7c-.4 0-.7-.3-.7-.7zM198.4 224.8c0-.4.3-.7.7-.7.5 0 .7.4.7.8s-.2.7-.6.7c-.3 0-.6-.3-.6-.7z"/>
    </g>
    <path fill="#FFF" stroke="#000" stroke-width=".5" stroke-miterlimit="10" d="M128.4 286.8H219v21.8h-90.6z"/>
    <g>
      <path d="M143.5 297.5V296h.8v1c.3-.6 1-1 1.8-1 1 0 2 .4 2 2.2v3.2h-1v-3c0-1-.3-1.7-1.2-1.7-.6 0-1 .5-1.3 1v3.7h-1v-4zM152.5 301.4v-.7c-.4.4-1 .8-1.7.8-1 0-1.6-.8-1.6-1.5 0-1.3 1-2 3.2-2 0-.6-.2-1.3-1.3-1.3-.3 0-1 0-1.2.3l-.3-.6c.5-.3 1-.5 1.8-.5 1.6 0 2 1 2 2v3.4h-.8zm0-2.7c-1.2 0-2.4 0-2.4 1.2 0 .5.5.8 1 .8.7 0 1.2-.5 1.3-1v-1.2zM155 297.5c0-.6 0-1-.2-1.4h1v1c.3-.6.7-1 1.6-1 .8 0 1.3.4 1.5 1 0-.3.3-.5.6-.7.3-.2.6-.4 1-.4.8 0 2 .4 2 2.2v3.2h-1v-3c0-1-.4-1.7-1.2-1.7-.6 0-1 .4-1.2 1v3.8h-1v-3.2c0-1-.4-1.5-1-1.5-.7 0-1 .5-1.3 1-.2 0-.2.3-.2.5v3.2h-1v-4zM164.6 299c0 1.2.8 1.7 1.8 1.7.7 0 1 0 1.5-.2v.7c-.3 0-1 .3-1.7.3-1.7 0-2.6-1-2.6-2.7 0-1.6 1-3 2.5-3 1.7 0 2.2 1.7 2.2 2.6v.5h-3.8zm2.8-.8c0-.6-.2-1.6-1.3-1.6-1 0-1.3 1-1.4 1.6h2.8zM169.5 300.2c.4.3 1 .5 1.7.5 1 0 1.5-.5 1.5-1.3 0-.7-.4-1-1.4-1.4-1.2-.5-2-1-2-2 0-1.3 1-2.2 2.5-2.2.7 0 1.3.2 1.6.4l-.3.8s-.6-.4-1.3-.4c-1 0-1.4.6-1.4 1 0 .8.5 1.2 1.5 1.6 1.3.5 2 1 2 2.2 0 1-1 2-2.7 2-.6 0-1.4 0-1.8-.4l.3-.8zM176 294.5v1.6h1.5v.8H176v3c0 .5.3 1 .8 1 .3 0 .5 0 .6-.2v.8h-.8c-.5 0-.8 0-1-.3-.3-.2-.4-.7-.4-1.3v-3h-1v-.6h1V295l1-.3zM178.6 297.7V296h.8v1c.3-.6 1-1 1.5-1h.2v1l-.3-.2c-.8 0-1.3.6-1.4 1.3v3.5h-1v-3.8zM183.3 294.6c0 .3-.2.6-.6.6-.3 0-.6-.3-.6-.6 0-.4.4-.6.7-.6.4 0 .6.2.6.6zm-1 6.8V296h1v5.4h-1zM184.8 297.5V296h.8v1c.4-.6 1-1 2-1 .6 0 1.7.4 1.7 2.2v3.2h-1v-3c0-1-.2-1.7-1.2-1.7-.5 0-1 .5-1.2 1v3.7h-1v-4zM195.5 296v4.5c0 1.3-.3 2-.8 2.5s-1.3.7-2 .7c-.6 0-1.3-.2-1.7-.5l.2-.7c.4.2 1 .4 1.6.4 1 0 1.7-.6 1.7-2v-.5c-.3.5-1 1-1.7 1-1.3 0-2.3-1.3-2.3-2.7 0-1.8 1.2-3 2.4-3 .8 0 1.4.6 1.6 1v-.7h1zm-1 2.2v-.5c-.2-.5-.7-1-1.4-1-.8 0-1.5.8-1.5 2 0 1 .5 2 1.6 2 .7 0 1.2-.5 1.4-1v-1.4zM196.7 300.8c0-.4.2-.7.6-.7.4 0 .7.4.7.8s-.3.7-.7.7c-.4 0-.6-.3-.6-.7zM199 300.8c0-.4.2-.7.6-.7.4 0 .7.4.7.8s-.3.7-.7.7c-.4 0-.7-.3-.7-.7zM201.2 300.8c0-.4.3-.7.7-.7.3 0 .5.4.5.8s-.2.7-.6.7c-.5 0-.8-.3-.8-.7z"/>
    </g>
    <path fill="none" stroke="#000" stroke-width=".4" stroke-miterlimit="10" d="M113.8 325h119.8v71.6H113.8z"/>
    <path fill="none" stroke="#000" stroke-width=".5" stroke-miterlimit="10" d="M113.8 325h119.8v18H113.8zM138.7 343l8.3-18"/>
    <g>
      <path d="M125.5 330.3v7.4h-1v-7.4h1zM127.3 337.7V333h-.7v-.7h.7v-.2c0-.7.2-1.3.6-1.8.3-.3.8-.5 1.2-.5.4 0 .7 0 .8.2v.6h-.7c-.8 0-1 .6-1 1.5v.3h1.3v.8h-1.3v4.7h-1z"/>
    </g>
    <path fill="none" stroke="#000" stroke-miterlimit="10" d="M173 194.8v15.8M173.3 232.7v16M173.3 270.7v16M173.3 309.3V325"/>
    <g>
      <path d="M152.5 365.7v3h3.6v-3h1v7.4h-1v-3.3h-3.5v3.4h-1v-7.3h1zM160 366.5H158v-.8h5.5v.8H161v6.6h-1v-6.5zM166 366.5h-2.3v-.8h5.5v.8H167v6.6h-1v-6.5zM170 365.8h2c.8 0 1.5 0 2 .5.4.3.6 1 .6 1.5 0 .7-.2 1.2-.6 1.6-.5.6-1.3.8-2.2.8h-.8v3h-1v-7.4zm1 3.6h.8c1 0 1.8-.5 1.8-1.5s-.7-1.6-1.7-1.6h-1v3zM175.5 368.7c0-.4.3-.7.7-.7.3 0 .6.3.6.7 0 .4-.2.7-.7.7-.2 0-.5-.3-.5-.7zm0 4c0-.5.3-.8.7-.8.3 0 .6.2.6.6 0 .4-.2.7-.7.7-.2 0-.5-.3-.5-.7zM178 369.5v-1.7h.8v1c.5-.7 1-1 2-1 1.3 0 2.2 1 2.2 2.6 0 2-1 3-2.4 3-.7 0-1.3-.5-1.6-1v3h-1v-6zm1 1.5v.4c.2.6.8 1 1.5 1 1 0 1.6-.7 1.6-2 0-1-.5-2-1.5-2-.7 0-1.3.5-1.5 1.3v1.4zM189 370.4c0 2-1.3 3-2.6 3-1.4 0-2.5-1.2-2.5-3 0-1.7 1-2.7 2.5-2.7 1.6 0 2.6 1 2.6 2.7zm-4 0c0 1.2.5 2 1.5 2s1.6-.7 1.6-2c0-.8-.4-2-1.5-2-1 0-1.6 1-1.6 2zM190.2 372c.3.3.8.5 1.2.5.8 0 1-.3 1-.8 0-.4-.2-.7-1-1-1-.3-1.3-.8-1.3-1.4 0-1 .8-1.6 2-1.6.5 0 1 0 1.2.3l-.2.7c-.2 0-.6-.3-1-.3-.7 0-1 .3-1 .7 0 .6.3.8 1 1 1 .4 1.4 1 1.4 1.6 0 1-.7 1.6-2 1.6-.6 0-1 0-1.5-.3l.2-1zM195.8 366.3v1.5h1.4v.7h-1.4v3c0 .6.2 1 .8 1h.5l.2.6c-.2.2-.5.2-1 .2-.3 0-.7 0-1-.4-.2-.2-.3-.7-.3-1.3v-3h-1v-.7h1v-1.3l.8-.2z"/>
    </g>
    <path fill="none" stroke="#000" stroke-miterlimit="10" d="M173.3 342.8v15.8M173.3 380.6v15.8"/>
    <path fill="none" stroke="#000" stroke-width=".6" stroke-miterlimit="10" d="M533.7 66.2h482v589.3h-482z"/>
    <path fill="#FFF" stroke="#000" stroke-width=".5" stroke-miterlimit="10" d="M129 430.4H219v22H129z"/>
    <path fill="none" stroke="#000" stroke-width=".4" stroke-miterlimit="10" d="M114 396.7h119.8v71.5H114z"/>
    <path fill="none" stroke="#000" stroke-width=".5" stroke-miterlimit="10" d="M114 396.6h119.8v18H114zM139 414.7l8.3-18"/>
    <g>
      <path d="M124.6 406h-3v2.6h3.3v.8h-4.2V402h4v.7h-3v2.4h2.8v1zM126 401.5h1v8h-1v-8zM128.6 408.4c.3.2.8.4 1.3.4.6 0 1-.4 1-.8 0-.5-.4-.8-1-1-1-.4-1.5-1-1.5-1.5 0-1 .7-1.6 2-1.6.4 0 1 0 1.2.2l-.3.7c-.2-.2-.6-.4-1-.4-.6 0-1 .4-1 .8s.4.6 1 1c1 .2 1.4.7 1.4 1.5s-.7 1.5-2 1.5c-.5 0-1-.2-1.4-.4l.2-.6zM133.6 407c0 1.2 1 1.7 2 1.7.5 0 1 0 1.3-.3v.7c-.2.3-.8.5-1.7.5-1.6 0-2.6-1-2.6-2.7 0-1.6 1-3 2.5-3 1.7 0 2.2 1.6 2.2 2.6v.5h-3.8zm3-.8c0-.6-.4-1.6-1.5-1.6-1 0-1.3 1-1.4 1.6h3z"/>
    </g>
    <g>
      <path d="M152.7 436.4v3h3.6v-3h1v7.4h-1v-3.5h-3.6v3.5h-1v-7.4h1zM160.3 437.2H158v-.8h5.6v.8h-2.3v6.6h-1v-6.6zM166.2 437.2H164v-.8h5.5v.8h-2.3v6.6h-1v-6.6zM170.3 436.5h1.8c1 0 1.8 0 2.2.5.4.3.7 1 .7 1.5 0 .7-.3 1.2-.7 1.6-.5.6-1.3 1-2.3 1h-.8v2.8h-1v-7.3zm1 3.6l.7.2c1.2 0 2-.6 2-1.6s-.8-1.5-1.8-1.5c-.5 0-.8 0-1 .2v3zM175.8 439.4c0-.4.2-.7.6-.7.4 0 .7.3.7.7 0 .4-.2.7-.6.7-.4 0-.6-.2-.6-.6zm0 4c0-.5.2-.8.6-.8.4 0 .7.3.7.7 0 .4-.2.6-.6.6-.4 0-.6-.3-.6-.7zM178.3 440.2v-1.7h.8v1h.2c.4-.7 1-1 1.8-1 1.3 0 2.3 1 2.3 2.6 0 2-1.2 3-2.4 3-.8 0-1.4-.4-1.8-1v3h-1v-5.8zm1 1.5v.4c0 .7.7 1.2 1.4 1.2 1 0 1.6-.8 1.6-2 0-1-.5-2-1.5-2-.7 0-1.3.4-1.5 1v1.5zM189.3 441c0 2-1.3 3-2.6 3-1.4 0-2.6-1-2.6-2.8 0-1.8 1.3-2.8 2.8-2.8 1.5 0 2.5 1 2.5 2.7zm-4.2.2c0 1 .8 2 1.7 2 1 0 1.7-.8 1.7-2 0-1-.5-2-1.6-2-1.2 0-1.7 1-1.7 2zM190.4 442.8c.3.2.8.4 1.3.4.7 0 1-.3 1-.8 0-.4-.2-.7-1-1-1-.3-1.4-.8-1.4-1.5 0-1 .7-1.6 2-1.6.4 0 1 0 1.2.3l-.3.7c-.2 0-.5-.3-1-.3-.6 0-1 .4-1 .8 0 .5.4.7 1 1 1 .3 1.5.7 1.5 1.5 0 1-.7 1.6-2 1.6-.6 0-1-.2-1.5-.4l.2-.8zM196 437v1.5h1.5v.7H196v3c0 .6.3 1 .8 1h.6v.6h-.8c-.5 0-1 0-1-.3-.4-.3-.5-.7-.5-1.4v-2.8h-.7v-.7h.8v-1.3l1-.2z"/>
    </g>
    <path fill="none" stroke="#000" stroke-miterlimit="10" d="M173.6 414.5v15.8M173.6 452.3V468M173.7 468.3V484"/>
    <path fill="#FFF" stroke="#000" stroke-width="2" stroke-miterlimit="10" d="M128 521.5H218v22H128z"/>
    <g>
      <path d="M138 528.6l1.8-.2c1 0 1.6.2 2 .6.5.3.7.8.7 1.4 0 1-.6 1.6-1.4 2 .7 0 1 .7 1.2 1.4.2 1 .4 1.8.6 2h-1c-.2 0-.3-.8-.5-1.7-.3-1-.6-1.3-1.5-1.3h-1v3.2h-1v-7.4zm1 3.3h1c1 0 1.5-.6 1.5-1.5 0-1-.7-1.4-1.7-1.4l-1 .2v2.7zM144.4 533.4c0 1.3 1 1.8 1.8 1.8.7 0 1 0 1.5-.2l.2.6c-.5.2-1 .4-2 .4-1.6 0-2.5-1-2.5-2.7 0-1.6 1-3 2.5-3 1.7 0 2.2 1.7 2.2 2.6v.4h-3.8zm2.8-.7c0-.6-.2-1.6-1.3-1.6-1 0-1.5 1-1.6 1.7h2.8zM149.2 535c.3 0 .8.3 1.3.3.7 0 1-.4 1-.8 0-.5-.2-.7-1-1-1-.4-1.4-1-1.4-1.5 0-1 .8-1.6 2-1.6.5 0 1 .2 1.3.4l-.3.7c-.2-.2-.5-.4-1-.4-.6 0-1 .5-1 1 0 .3.4.5 1 .8 1 .3 1.5.8 1.5 1.6 0 1-.7 1.6-2 1.6-.6 0-1-.2-1.5-.4l.2-.7zM158.5 533.2c0 2-1.3 2.8-2.6 2.8-1.6 0-2.7-1-2.7-2.8 0-1.7 1.2-2.8 2.7-2.8 1.5 0 2.5 1 2.5 2.8zm-4.2 0c0 1.2.7 2 1.6 2 1 0 1.5-.8 1.5-2 0-1-.4-2-1.5-2-1.2 0-1.7 1-1.7 2zM164.2 534.4v1.5h-.8v-1c-.3.4-1 1-1.8 1-1 0-2-.5-2-2.3v-3.2h1v3c0 1 .4 1.7 1.3 1.7.5 0 1-.5 1.2-1V530.6h1v4zM165.8 532.2v-1.7h.8v1c.3-.6 1-1 1.6-1h.2v1c0-.2 0-.2-.3-.2-.6 0-1 .6-1.2 1.3v3.4h-1V532zM173 535.7s-.7.3-1.4.3c-1.6 0-2.7-1-2.7-2.7 0-1.7 1-3 2.8-3 .6 0 1 .3 1.3.4v.8c-.3-.2-.7-.3-1.2-.3-1.2 0-2 1-2 2 0 1.2 1 2 2 2 .5 0 1 0 1-.3l.3.7zM174.7 533.4c0 1.3 1 1.8 1.8 1.8.7 0 1 0 1.5-.2l.2.6c-.4.2-1 .4-1.8.4-1.6 0-2.6-1-2.6-2.7 0-1.6 1-3 2.5-3 1.7 0 2.2 1.7 2.2 2.6v.4h-3.8zm2.8-.7c0-.6-.2-1.6-1.3-1.6-1 0-1.4 1-1.5 1.7h2.8zM181 536l-2-7.5h1l1 3.7.5 2.6c0-.8.4-1.7.6-2.6l1-3.7h1l1 3.7.5 2.6.6-2.6 1-3.7h1l-2 7.4h-1l-1-4-.4-2.4-.6 2.4-1 4h-1zM193.4 533.2c0 2-1.3 2.8-2.6 2.8-1.4 0-2.6-1-2.6-2.8 0-1.7 1.2-2.8 2.7-2.8 1.4 0 2.4 1 2.4 2.8zm-4.2 0c0 1.2.7 2 1.6 2 1 0 1.7-.8 1.7-2 0-1-.5-2-1.6-2-1.3 0-1.8 1-1.8 2zM194.7 532.2v-1.7h.8v1c.3-.6 1-1 1.5-1h.3v1c0-.2-.2-.2-.3-.2-.7 0-1.2.6-1.3 1.3v3.4h-1V532zM199.3 533c0-.2.3-.4.5-.6l1.5-2h1.2l-2 2.3 2.3 3.2h-1.2l-1.8-2.7-.5.6v2h-1v-8h1v5zM204 533.4c0 1.3 1 1.8 1.8 1.8.7 0 1 0 1.5-.2l.2.6c-.4.2-1 .4-1.8.4-1.6 0-2.6-1-2.6-2.7 0-1.6 1-3 2.6-3 1.7 0 2.2 1.7 2.2 2.6v.4H204zm2.8-.7c0-.6-.2-1.6-1.3-1.6-1 0-1.4 1-1.5 1.7h2.8zM209 532.2v-1.7h.8v1c.3-.6 1-1 1.5-1h.3v1c0-.2-.2-.2-.3-.2-.7 0-1.2.6-1.3 1.3v3.4h-1V532z"/>
    </g>
    <path fill="none" stroke="#000" stroke-miterlimit="10" d="M173.3 506v15.8"/>
    <path fill="#FFF" stroke="#000" stroke-width=".5" stroke-miterlimit="10" d="M245.5 521.2h89.7v22h-89.7z"/>
    <g>
      <path d="M258.7 528.2v2.8h3.2v-2.8h.8v6.8h-1v-3.2h-3v3.2h-1v-6.8h1zM265.6 529h-2v-.8h5v.8h-2v6h-1v-6zM271 529h-2v-.8h5v.8h-2v6h-1v-6zM274.7 528.3h1.7c.8 0 1.5 0 2 .4.3.3.5.8.5 1.4 0 .8-.3 1.2-.6 1.6-.5.5-1.3.7-2 .7h-.8v2.7h-1v-6.7zm1 3.3h.6c1 0 1.7-.5 1.7-1.4 0-1-.6-1.3-1.6-1.3h-.8v2.6zM284.8 534.8c-.3 0-1 .3-1.8.3-2 0-3.4-1-3.4-3.3 0-2.2 1.5-3.6 3.6-3.6.8 0 1.4.3 1.6.4l-.2.7-1.4-.2c-1.6 0-2.6 1-2.6 2.8 0 1.7 1 2.7 2.6 2.7.5 0 1 0 1.4-.2l.2.8zM290 532.5c0 1.8-1 2.6-2.3 2.6-1.3 0-2.3-1-2.3-2.4 0-1.6 1-2.6 2.4-2.6s2.3 1 2.3 2.5zm-3.7 0c0 1 .6 2 1.4 2 1 0 1.5-1 1.5-2 0-.8-.4-1.8-1.4-1.8-1 0-1.5 1-1.5 2zM291.2 531.4V530h.8v1c.3-.5 1-1 1.7-1 .6 0 1.7.4 1.7 2v3h-1v-2.8c0-.8-.2-1.5-1-1.5-.6 0-1 .5-1.2 1v3.4h-1v-3.6zM296.8 531.4V530h.8v1c.3-.5.8-1 1.6-1 .7 0 1.8.4 1.8 2v3h-1v-2.8c0-.8-.2-1.5-1-1.5-.6 0-1 .5-1.2 1v3.4h-1v-3.6zM303 532.7c0 1.2.7 1.7 1.5 1.7.7 0 1 0 1.4-.3v.8c-.3 0-.8.3-1.6.3-1.5 0-2.4-1-2.4-2.4s1-2.6 2.3-2.6c1.6 0 2 1.4 2 2.3v.4H303zm2.5-.6c0-.5-.3-1.4-1.3-1.4s-1.2 1-1.3 1.5h2.5zM311 534.8l-1.5.3c-1.5 0-2.4-1-2.4-2.4 0-1.5 1-2.6 2.7-2.6.5 0 1 0 1.2.3l-.3.6c-.2-.2-.5-.3-1-.3-1 0-1.7.8-1.7 2 0 1 .7 1.7 1.6 1.7.5 0 1-.2 1-.3l.3.8zM313 528.7v1.4h1.4v.8H313v2.6c0 .6.3 1 .8 1h.5v.6h-.8c-.4 0-.7 0-1-.3-.2-.3-.3-.7-.3-1.3v-2.6h-.7v-.7h.7v-1l1-.3zM319.7 532.5c0 1.8-1.2 2.6-2.4 2.6-1.3 0-2.3-1-2.3-2.4 0-1.6 1-2.6 2.4-2.6s2.3 1 2.3 2.5zm-4 0c0 1 .8 2 1.6 2 1 0 1.5-1 1.5-2 0-.8-.4-1.8-1.5-1.8-1 0-1.5 1-1.5 2zM320.8 531.6V530h.7v1c.3-.6 1-1 1.5-1h.2v1c0-.2-.2-.2-.3-.2-.7 0-1.2.5-1.3 1.2v3h-1v-3.4z"/>
    </g>
    <path fill="#FFF" stroke="#000" stroke-width=".5" stroke-miterlimit="10" d="M360.5 135.3h89.7v22h-89.7z"/>
    <path fill="none" stroke="#000" stroke-width=".5" stroke-miterlimit="10" d="M405.6 157v365.2"/>
    <g>
      <path d="M373.6 142.3v2.8h3.3v-2.7h.8v6.8h-1v-3h-3.2v3h-.8v-6.7h.8zM380.6 143h-2v-.7h5v.7h-2v6h-1v-6zM386 143h-2v-.7h5v.7h-2v6h-1v-6zM389.7 142.4h1.7c.8 0 1.5 0 2 .4.2.3.4.8.4 1.4 0 .6 0 1-.5 1.5-.4.5-1.2.7-2 .7h-.7v2.7h-1v-6.6zm1 3.3h.6c1 0 1.7-.5 1.7-1.4 0-1-.7-1.4-1.6-1.4h-.8v2.7zM399.8 149l-1.8.2c-2 0-3.4-1.2-3.4-3.4s1.5-3.6 3.6-3.6c.8 0 1.3.2 1.6.3l-.3.7c-.3-.2-.8-.3-1.3-.3-1.6 0-2.7 1-2.7 2.7 0 1.7 1 2.7 2.6 2.7.7 0 1.2 0 1.6-.2v.7zM405 146.6c0 1.8-1 2.6-2.3 2.6-1.3 0-2.4-1-2.4-2.5 0-1.6 1-2.6 2.5-2.6 1.4 0 2.3 1 2.3 2.6zm-3.8 0c0 1 .7 2 1.5 2 1 0 1.5-1 1.5-2 0-.8-.4-1.8-1.5-1.8-1 0-1.5 1-1.5 2zM406.2 145.5v-1.3h.8v.8c.3-.4.8-1 1.6-1 .7 0 1.8.5 1.8 2.2v3h-1v-3c0-.7-.2-1.4-1-1.4-.6 0-1 .4-1.2 1v3.4h-1v-3.7zM411.8 145.5v-1.3h.7v.8c.3-.4 1-1 1.7-1s1.7.5 1.7 2.2v3h-1v-3c0-.7-.3-1.4-1-1.4s-1 .4-1.3 1v3.4h-1v-3.7zM417.8 146.8c0 1.2.8 1.7 1.7 1.7.6 0 1 0 1.4-.3v.7l-1.6.2c-1.5 0-2.4-1-2.4-2.5s1-2.6 2.3-2.6c1.6 0 2 1.5 2 2.4v.4h-3.5zm2.6-.6c0-.6-.2-1.5-1.2-1.5s-1.3 1-1.3 1.5h2.4zM426 149l-1.5.2c-1.5 0-2.5-1-2.5-2.5s1-2.6 2.6-2.6c.6 0 1 .2 1.3.4l-.3.6-1-.2c-1.2 0-1.8.8-1.8 2 0 1 .7 1.7 1.6 1.7.5 0 .8-.2 1-.3l.3.7zM428 142.8v1.4h1.3v.7H428v2.5c0 .6.2 1 .7 1h.6v.6l-.8.2c-.4 0-.7-.2-1-.4-.2-.3-.3-.7-.3-1.3V145h-.7v-.8h.7V143l1-.2zM434.7 146.6c0 1.8-1.3 2.6-2.4 2.6-1.4 0-2.4-1-2.4-2.5 0-1.6 1-2.6 2.3-2.6 1.4 0 2.4 1 2.4 2.6zm-4 0c0 1 .7 2 1.6 2 .8 0 1.5-1 1.5-2 0-.8-.4-1.8-1.5-1.8-1 0-1.5 1-1.5 2zM435.8 145.7v-1.5h.7v1c.3-.7.8-1 1.4-1h.2v.8h-.3c-.7 0-1.2.4-1.3 1v3.1h-1v-3.3z"/>
    </g>
    <path fill="#FFF" stroke="#000" stroke-width=".5" stroke-miterlimit="10" d="M360.7 520.6h89.7v22h-89.7z"/>
    <g>
      <path d="M374 527.6v2.8h3.2v-2.8h1v6.8h-1v-3.2H374v3.2h-1v-6.8h1zM381 528.4h-2.2v-.8h5v.8h-2v6h-1v-6zM386.2 528.4h-2v-.8h5v.8h-2v6h-1v-6zM390 527.7h1.6c1 0 1.5 0 2 .4.3.4.5 1 .5 1.5 0 .7 0 1-.4 1.5-.5.5-1.2.7-2 .7h-.8v2.7h-1v-6.7zm.8 3.3h.7c1 0 1.7-.5 1.7-1.4 0-1-.6-1.3-1.6-1.3h-.8v2.7zM400 534.2c-.3 0-1 .3-1.8.3-2 0-3.3-1.2-3.3-3.4 0-2 1.3-3.5 3.4-3.5 1 0 1.4.2 1.6.3l-.2.7c-.3 0-.8-.3-1.4-.3-1.5 0-2.6 1-2.6 2.8 0 1.7 1 2.8 2.6 2.8.5 0 1-.2 1.4-.3l.2.7zM405.4 532c0 1.7-1.3 2.5-2.5 2.5-1.4 0-2.4-1-2.4-2.5 0-1.6 1-2.6 2.4-2.6s2.4 1 2.4 2.5zm-4 0c0 1 .7 1.8 1.6 1.8.8 0 1.5-.8 1.5-2 0-.7-.5-1.7-1.5-1.7s-1.5 1-1.5 2zM406.5 530.8v-1.3h.7v.8c.3-.4 1-1 1.7-1 .6 0 1.6.5 1.6 2.2v3h-1v-3c0-.7-.2-1.4-1-1.4-.6 0-1 .6-1.2 1v3.5h-1v-3.7zM412 530.8v-1.3h.8v.8c.3-.4 1-1 1.7-1 .6 0 1.7.5 1.7 2.2v3h-1v-3c0-.7-.2-1.4-1-1.4-.6 0-1 .6-1.2 1v3.5h-1v-3.7zM418 532c0 1.3 1 1.8 1.8 1.8.6 0 1 0 1.3-.2l.3.6c-.3 0-1 .3-1.6.3-1.5 0-2.4-1-2.4-2.5s.8-2.6 2.2-2.6c1.6 0 2 1.4 2 2.3v.4H418zm2.7-.5c0-.6-.2-1.5-1.2-1.5s-1.3 1-1.4 1.5h2.7zM426 534.2s-.6.3-1.3.3c-1.5 0-2.4-1-2.4-2.5s1-2.6 2.6-2.6c.4 0 1 .2 1 .3v.7c-.3-.2-.6-.3-1-.3-1.2 0-1.8 1-1.8 2s.7 1.8 1.7 1.8c.4 0 .7-.2 1-.3v.7zM428.3 528v1.5h1.3v.7h-1.3v2.6c0 .6.2 1 .7 1h.5v.6h-.7c-.4 0-.8 0-1-.3-.2 0-.3-.6-.3-1.2v-2.6h-.8v-.7h.8v-1l.8-.4zM435 532c0 1.7-1.3 2.5-2.5 2.5-1.3 0-2.3-1-2.3-2.5 0-1.6 1-2.6 2.4-2.6s2.3 1 2.3 2.5zm-4 0c0 1 .7 1.8 1.6 1.8.8 0 1.4-.8 1.4-2 0-.7-.4-1.7-1.4-1.7-1 0-1.5 1-1.5 2zM436 531v-1.5h.8v1c.3-.7.8-1 1.4-1h.2v.8h-.3c-.5 0-1 .4-1 1v3.1h-1V531z"/>
    </g>
    <g>
      <path fill="none" stroke="#000" stroke-width=".5" stroke-miterlimit="10" d="M285.5 435.7h-66.2"/>
      <path d="M284.8 433.2l4.3 2.5-4.2 2.5"/>
    </g>
    <g>
      <path fill="none" stroke="#000" stroke-width=".5" stroke-miterlimit="10" d="M222.6 447h1.8"/>
      <path fill="none" stroke="#000" stroke-width=".5" stroke-miterlimit="10" d="M228 447h56.3" stroke-dasharray="3.6 3.6"/>
      <path fill="none" stroke="#000" stroke-width=".5" stroke-miterlimit="10" d="M286 447h2"/>
      <path d="M223.3 449.4L219 447l4.3-2.6"/>
    </g>
    <g>
      <path fill="none" stroke="#000" stroke-width=".8" stroke-miterlimit="10" d="M66 498h62"/>
      <path d="M67 502l-7-4 7-4"/>
    </g>
    <g>
      <path d="M161.2 490h1.8c1 0 1.7.2 2.2.6.3.3.5.8.5 1.4 0 1-.6 1.6-1.4 2 .6 0 1 .6 1 1.4l.7 2h-1l-.5-1.7c-.2-1-.6-1.4-1.5-1.5h-1v3.3h-.8V490zm1 3.5h1c1 0 1.6-.5 1.6-1.4 0-1-.7-1.3-1.7-1.3h-1v2.8zM167.6 495c0 1.3 1 1.8 2 1.8.6 0 1 0 1.3-.3v.7c-.2.2-.8.4-1.7.4-1.6 0-2.6-1-2.6-2.7 0-1.7 1-3 2.5-3 1.8 0 2.2 1.5 2.2 2.5v.5h-3.8zm3-.7c0-.6-.4-1.6-1.5-1.6-.8 0-1.3 1-1.3 1.6h2.8zM172.6 494v-2h.8v1c.5-.6 1-1 2-1 1.3 0 2.3 1 2.3 2.7 0 2-1.2 3-2.5 3-.7 0-1.3-.4-1.6-1v3h-1v-5.8zm1 1.3v.4c.2.7.8 1 1.5 1 1 0 1.7-.7 1.7-2 0-1-.6-2-1.6-2-.6 0-1.2.6-1.4 1.3v1.4zM179 489.6h.8v8h-1v-8zM181.8 492l1.2 3.3.3 1 .4-1 1-3.2h1l-1.4 4c-.7 1.7-1 2.7-1.8 3.3-.5.4-1 .5-1.2.6l-.2-1c.3 0 .6-.2 1-.4l.7-1v-.3-.3l-2-5h1z"/>
    </g>
  </g>
</svg>
