<svg xmlns="http://www.w3.org/2000/svg" width="500" height="2460.7"><path fill="none" stroke="#000" stroke-width=".4" stroke-miterlimit="10" d="M24 62h451.5v860.7H24z"/><path fill="#FFF" stroke="#000" stroke-width=".4" stroke-miterlimit="10" d="M16 13h468v16.7H16z"/><path fill="#939598" d="M444 23.2V21h.6v2.8h-6v-6h3v.5H439v5h5zm-.4-4.4l-.7-.7.2-.2 1.4 1.2-1.2 1.3-.3-.4.6-.7c-1.5 0-2.5.7-3 1.7-.3.2-.4.5-.5.8v.8h-.6v-.2l.2-.5c0-.3 0-.5.2-.8 0-.2.3-.4.5-.7l.7-.8 1-.5 1.6-.4zm11.6 4.4V21h.6v2.8h-6v-6h3v.5H450v5h5zm.6-5.4v.4h-.3l-.6.2c-.4 0-.6.2-1 .4-.8.6-1.4 1.7-1.5 3l.6-.4.4.3-1.2 1.2-1.3-1.5.3-.3.7.8c0-.6 0-1 .3-1.6l.6-1 .6-.8.8-.5h.7l.6-.2h.2zm6.9 0h2.3v.7h1.5v.8h-5.3v-.8h1.5v-.7zm-1 2h4.4v4h-4.4v-4zm1 .6v2.8h.6v-2.8h-.7zm1.7 0v2.8h.7v-2.8h-.6zm10.9 2l-3-3 .4-.4 2.6 2.5L478 19l.3.6-3 2.8z"/><path fill="none" stroke="#000" stroke-width=".2" stroke-miterlimit="10" d="M435.6 17.6v6.6M447 18v6.5m11.4-6.9v6.6m10.9-6.6v6.6"/><path d="M16 13h14.4v16.6H16zm20.3 32.2c1-.8 2-1.2 3-1.2 1.2 0 2.2.4 3 1.2 1 1 1.3 2 1.3 3 0 1.2-.4 2.2-1.3 3-.8 1-1.8 1.3-3 1.3-1 0-2-.4-3-1.3s-1.2-1.8-1.2-3c0-1 .5-2 1.3-3zM38 50v-.4h-.2c-.2 0-.2 0-.2-.3v-.6c0-.2 0-.4-.2-.5l.2-.4v-.6c0-.2 0-.3.2-.3v-.4c-.4 0-.6.2-.6.6v.6c0 .2 0 .3-.2.3v.4c.2 0 .3 0 .3.2v.7c0 .4 0 .6.5.6zm1.5-.6l.8-2.3H40l-.5 1.2c0 .3 0 .6-.2.7 0-.2 0-.5-.2-.8l-.3-1h-.4l.8 2.2h.5zm2.2-1V48c-.2 0-.3 0-.3-.2v-.6c0-.4-.2-.6-.6-.6v.3c.2 0 .3 0 .3.2v.7c0 .2 0 .4.3.4-.2 0-.3.3-.3.5v.6c0 .2 0 .3-.2.3v.3c.4 0 .7-.3.7-.7v-.6s0-.2.2-.2z"/><path fill="#AEADAE" d="M45 45h5.8v6h-6z"/><path fill="#FFF" d="M49.7 48v.3H48V50h-.4v-1.7H46V48h1.6v-2h.4v2h1.7z"/><path fill="none" stroke="#000" stroke-width=".4" stroke-miterlimit="10" d="M16 29.7h468v901H16z"/><path fill="#FFF" d="M27 23.4c0-.3 0-.4-.2-.5v-.2s.2 0 .3-.2c0 0 0-.2-.2-.3h-.4c0-.2-.2-.3-.3-.4v-.2c.2 0 .2-.2.2-.3 0 0 0-.2-.2-.3 0 0-.2 0-.3.2-.2 0-.3-.2-.4-.3v-.3c-.2 0-.3 0-.3-.2-.2 0-.3.2-.3.3H24c0-.2 0-.3-.2-.4h-.3s0 .2-.2.3H23c0 .2 0 .2 0 0h-.5v.3l-.4.4s-.2 0-.3-.2l-.2.2v.4c0 .2 0 .3-.2.4H21c0 .2-.2.3-.2.3 0 .2.2.2.2.3v.5h-.3v.4s0 .2.2.2v.4s0 .2-.2.3v.3h.5l.3.4c0 .2 0 .3-.2.3 0 .2.2.2.2.3h.8v.5c.2 0 .3 0 .4.2l.2-.3h.5c0 .2 0 .3.2.4h.3v-.3h.8s.2 0 .3.2h.2V26c.2 0 .3-.2.4-.3h.4s.2 0 .2-.2v-.8h.8v-.3s0-.2-.2-.3V24c.3 0 .4 0 .5-.2v-.3zm-3.2 1c-.4 0-.8-.3-.8-.8 0-.4.4-.8 1-.8.3 0 .7.4.7.8 0 .5-.4 1-1 1zm-.6-5.9H23c0-.2 0-.3-.2-.3 0-.2.2-.2.2-.3v-.3h-.3c-.2 0-.2 0-.3-.2V17c0-.2 0-.2 0 0H22l-.2-.2v-.3h-.3l-.2.2H21v-.4h-.4v.3H20s0-.2 0 0h-.2v.2s0 .2-.2.3h-.3v.3s0 .2-.2.3v.2c-.2 0-.2 0-.2.2h.2v.5h-.2v.2h.2v.4c.2 0 .2 0 0 0v.4h.3l.3.3v.4h.5v.3h.5v-.2h.3v.3h.4v-.2h.8v-.3l.2-.2h.3v-.4h.4v-.2L23 19v-.2h.2v-.3zm-2 1c-.5 0-.7-.2-.8-.6 0-.4.2-.7.5-.7.2 0 .5.2.6.5 0 .3-.2.6-.5.7zm6.3-.8h-.2v-.4H27v-.5h-.6v-.3h-.9c0 .2-.2.2-.2.2H25v.2h-.3v.5h-.2c-.2 0-.2 0-.2.2h.2v.3h-.2v.3h.2v.6h.2c0-.2 0 0 0 0h.2s0 .2-.2.2h.2c0 .2 0 .2 0 0h.2l.2.2v.2h.2v-.2h.3v.2h.2v-.2h.8v-.4h.4v-.4h.2v-.8zm-1.5.7c-.3 0-.5 0-.5-.3 0-.2 0-.4.4-.4 0 0 .3 0 .3.4 0 .2 0 .4-.3.4z"/><path fill="#FFF" stroke="#000" stroke-width=".4" stroke-miterlimit="10" d="M24 62.2h451.5V79H24z"/><path fill="#939598" d="M435.5 72.5V70h.5v3h-6v-6h3v.6h-2.5v5h5zM435 68l-.6-.6.3-.4 1.3 1.3-1 1.2-.4-.3.5-.6c-1.4 0-2.4.7-3 1.7-.2.2-.4.4-.4.7l-.2.6v.3h-.5v-.8c0-.3.2-.5.3-.7l.4-.8.8-.7 1-.6c.6-.2 1-.3 1.6-.3zm11.7 4.5V70h.5v3h-6v-6h3v.6h-2.5v5h5zm.5-5.5v.5h-.2l-.6.2c-.3 0-.5.2-.8.3-1 .7-1.5 1.7-1.7 3.2l.6-.5.3.3-1.4 1.2-1.2-1.4.3-.3.7.7c0-.5.2-1 .4-1.5 0-.4.3-.8.6-1 .2-.4.4-.6.7-.8.4-.4.6-.5 1-.6l.5-.3h.7zm7 0h2.3v.8h1.5v.7h-5.3v-.7h1.5V67zm-1 2h4.4v4H453v-4zm1 .6v3h.6v-3h-.7zm1.7 0v3h.6v-3h-.7zm10.8 2.1l-3-3 .5-.4 2.5 2.5 2.6-2.5.5.5-3 3z"/><path fill="none" stroke="#000" stroke-width=".2" stroke-miterlimit="10" d="M438.5 66.8v6.5m11.5-6.8V73m10.8-6v6.4"/><path d="M24 62.2h14.5V79H24z"/><path fill="#FFF" d="M35.4 70.5H35v-.2s0-.3-.2-.4v-.2c.2 0 .3-.2.4-.3V69h-.6c-.2 0-.3-.3-.4-.4 0-.2 0-.4.2-.5 0 0-.2 0-.3-.2 0 0-.2 0-.3.2-.3 0-.4-.2-.6-.3V67H33c-.2 0-.3.2-.4.3H32c0-.3 0-.4-.2-.5h-.3c-.2 0-.2.2-.3.4h-.5c-.2 0-.3 0-.4-.2H30v.7l-.5.4c-.2 0-.3 0-.4-.2l-.4.2c0 .3 0 .4.2.5l-.3.6h-.4c-.2 0-.2 0-.3.2v.2c0 .2 0 .3.2.4v.5h-.2c0 .2-.2.2-.3.2v.4h.3v.2c0 .2 0 .4.2.5l-.4.4c0 .2 0 .3.2.5h.4l.4.5c0 .2 0 .3-.2.4 0 .2.2.3.3.3h.6c.2 0 .3 0 .5.2v.3l.4.2h.2s0-.2.2-.2h.6c0 .2 0 .3.2.4h.4v-.3h.2c.2 0 .4 0 .5-.2l.4.4h.4v-.6l.6-.4c.2 0 .3 0 .5.2.2 0 .3-.2.4-.3 0-.2 0-.3-.2-.4 0-.2.2-.3.3-.5h.5l.2-.3c0-.2-.2-.3-.3-.4h-.2v-1h.2s.3 0 .4-.2v-.4zm-4 1.3c-.6 0-1-.5-1-1 0-.6.4-1 1-1 .5 0 1 .4 1 1s-.4 1-1 1z"/><path fill="#FFF" stroke="#000" stroke-width=".6" stroke-miterlimit="10" d="M140.4 115.6h100V140h-100z"/><text transform="translate(152.12 131.637)" font-family="'MyriadPro-Regular'" font-size="11.4">ResourceWorker</text><text transform="translate(35.3 25.124)" font-family="'MyriadPro-Regular'" font-size="11.4">ATMLocator</text><text transform="translate(43.878 74.776)" font-family="'MyriadPro-Regular'" font-size="11.4">locator</text><path fill="none" stroke="#000" stroke-width=".4" stroke-miterlimit="10" d="M191.2 140v713.6"/><path fill="#FFF" stroke="#000" stroke-width=".4" stroke-miterlimit="10" d="M140.5 809.6h101V834h-101zm-.1-651.9h101V182h-101z"/><path fill="#FFF" stroke="#000" stroke-width=".6" stroke-miterlimit="10" d="M140.4 853.6h100V878h-100z"/><text transform="translate(152.467 869.63)" font-family="'MyriadPro-Regular'" font-size="11.4">ResourceWorker</text><path d="M55.5 141.3c-.4.2-1 .4-2 .4-2.2 0-3.8-1.4-3.8-4 0-2.3 1.6-4 4-4 1 0 1.5.3 1.8.4l-.3 1c-.3-.3-1-.4-1.5-.4-1.8 0-3 1-3 3.2 0 1.8 1 3 3 3 .6 0 1.2 0 1.6-.3l.2.8zm1.2-7.8h1v8h-1v-8zm3.8 1c0 .4-.3.6-.7.6-.3 0-.6 0-.6-.5 0-.3.3-.6.7-.6.2 0 .5.2.5.5zm-1 7v-5.4h1v5.6h-1zm3.1-2.5c0 1.3 1 2 2 2 .6 0 1-.2 1.4-.4l.2.7c-.4.2-1 .4-2 .4-1.6 0-2.6-1-2.6-2.8s1-3 2.6-3c1.8 0 2.3 1.5 2.3 2.5v.5h-4zm3-.7c0-.7-.4-1.7-1.5-1.7-1 0-1.3 1-1.4 1.7h3zm2.1-.8V136h.8v1c.4-.6 1-1 2-1 .7 0 2 .4 2 2.3v3.3h-1v-3.2c0-1-.4-1.6-1.4-1.6-.5 0-1 .4-1.2 1v3.8h-1v-4zm7.5-3v1.6h1.4v.8h-1.4v3c0 .7.2 1 .7 1h.5v.7l-.8.2c-.5 0-1-.2-1-.4-.4-.3-.5-.8-.5-1.5v-3h-1v-.7h1v-1.3l1-.2z"/><path fill="none" stroke="#000" stroke-width=".6" stroke-miterlimit="10" d="M35.3 138l29-29 29.3 29-29.2 29.2z" stroke-dasharray="1.6 1.6"/><path d="M55.4 864c-.4.3-1 .5-2 .5-2.2 0-3.8-1.4-3.8-4 0-2.3 1.6-4 4-4 1 0 1.5.3 1.8.4l-.3.7c-.2-.2-.8-.3-1.4-.3-1.8 0-3 1-3 3s1 3.2 3 3.2c.5 0 1.2 0 1.6-.3l.2.8zm1.2-7.7h1v8h-1v-8zm3.8 1c0 .3-.3.6-.7.6-.3 0-.6-.4-.6-.7 0-.4.4-.6.7-.6.4 0 .7.2.7.6zm-1.2 7v-5.5h1v5.5h-1zm3.3-2.5c0 1.3.8 2 1.8 2 .8 0 1.2-.2 1.6-.4v.7c-.3.3-1 .5-1.8.5-1.7 0-2.7-1.2-2.7-2.8 0-1.7 1-3 2.6-3 2 0 2.4 1.6 2.4 2.6v.5h-4zm3-.7c0-.6-.4-1.6-1.5-1.6-1 0-1.4 1-1.5 1.7h3zm2.1-.8v-1.5h.8v1c.4-.6 1-1 2-1 .7 0 2 .4 2 2.3v3.3h-1v-3c0-1-.5-1.8-1.4-1.8-.7 0-1.2.5-1.3 1v3.8h-1v-4zm7.4-3v1.5h1.5v.8H75v3c0 .7.3 1 .8 1h.6v.7l-.8.2c-.5 0-1-.2-1-.5-.4-.3-.5-.7-.5-1.4v-3h-.8v-.8h1v-1.3l1-.2z"/><path fill="none" stroke="#000" stroke-width=".6" stroke-miterlimit="10" d="M35 860.8l29.3-29 29 29-29 29.2z" stroke-dasharray="1.6 1.6"/><path fill="none" stroke="#000" stroke-miterlimit="10" d="M64.4 167.2v664.5"/><path fill="none" stroke="#000" stroke-width=".9" stroke-miterlimit="10" d="M133.8 171.5H64.4"/><path d="M132.4 167l8 4.5-8 4.6"/><path fill="none" stroke="#000" stroke-width=".6" stroke-miterlimit="10" d="M71 821.8h69.4" stroke-dasharray="1.6 1.6"/><path d="M72.4 826.4l-8-4.6 8-4.6"/><path fill="none" stroke="#000" stroke-width=".6" stroke-miterlimit="10" d="M306.5 494H434" stroke-dasharray="1.6 1.6"/><path d="M308 498.7l-8-4.6 8-4.5"/><path fill="#FFF" stroke="#000" stroke-width=".6" stroke-miterlimit="10" d="M395.2 115.7h75.6V140h-75.6zm0 774.3h75.6v24.4h-75.6z"/><path fill="none" stroke="#000" stroke-width=".4" stroke-miterlimit="10" d="M434.2 140v750"/><path fill="none" stroke="#000" stroke-width=".9" stroke-miterlimit="10" d="M426 482.7H243"/><path d="M426.2 478l8 4.7-8 4.6"/><path fill="none" stroke="#000" stroke-width=".6" stroke-miterlimit="10" d="M306.5 767h43.2" stroke-dasharray="1.6 1.6"/><path d="M308 771.5l-8-4.6 8-4.7"/><path fill="none" stroke="#000" stroke-width=".9" stroke-miterlimit="10" d="M341.5 755.4H243"/><path d="M341.7 750.8l8 4.6-8 4.6"/><path fill="#FFF" stroke="#000" stroke-width=".4" stroke-miterlimit="10" d="M108 197.8h164.5v24.4H108z"/><text transform="translate(180.15 174.762)" font-family="'MyriadPro-Light'" font-size="11.2">Start</text><text transform="translate(116.65 214.76)" font-family="'MyriadPro-Light'" font-size="11.2">message backendServiceReq = {}</text><path fill="#FFF" stroke="#000" stroke-width=".6" stroke-miterlimit="10" d="M80.6 238H300v24.4H80.5z"/><text transform="translate(89.05 254.94)" font-family="'MyriadPro-Light'" font-size="11.2">json jsonLocatorRwq = messaged:getJsonP...</text><path fill="#FFF" stroke="#000" stroke-width=".6" stroke-miterlimit="10" d="M80.6 277.8H300v24.4H80.5z"/><text transform="translate(89.05 294.766)" font-family="'MyriadPro-Light'" font-size="11.2">string zipCode = jsonutils:getString(jsonLoca...</text><path fill="#FFF" stroke="#000" stroke-width=".6" stroke-miterlimit="10" d="M101.3 317.7h178V342h-178z"/><text transform="translate(110.05 334.592)" font-family="'MyriadPro-Light'" font-size="11.2">system:printIn(”Zip Code” + zipCode)</text><path fill="#FFF" stroke="#000" stroke-width=".6" stroke-miterlimit="10" d="M80.6 357.5H300V382H80.5z"/><text transform="translate(89.05 374.42)" font-family="'MyriadPro-Light'" font-size="11.2">json branchLocatorReq = “{”branchLocator”:...</text><path fill="#FFF" stroke="#000" stroke-width=".6" stroke-miterlimit="10" d="M80.6 397.3H300v24.4H80.5z"/><text transform="translate(93.053 414.245)" font-family="'MyriadPro-Light'" font-size="11.2">jsonutiIs:set(branchLocatorReq , “S.BranchL...</text><path fill="#FFF" stroke="#000" stroke-width=".6" stroke-miterlimit="10" d="M80.6 437H300v24.5H80.5z"/><text transform="translate(94.053 454.07)" font-family="'MyriadPro-Light'" font-size="11.2">messages:setJsonPayload(backendService...</text><path fill="#FFF" stroke="#000" stroke-width=".6" stroke-miterlimit="10" d="M80.6 477H300v24.4H80.5z"/><text transform="translate(89.05 493.897)" font-family="'MyriadPro-Light'" font-size="11.2">message response = http:ClientConnector.p...</text><path fill="#FFF" stroke="#000" stroke-width=".6" stroke-miterlimit="10" d="M80.6 517H300v24.4H80.5z"/><text transform="translate(93.194 533.897)" font-family="'MyriadPro-Light'" font-size="11.2">json branchLocatorRes = messages:getJson...</text><path fill="#FFF" stroke="#000" stroke-width=".6" stroke-miterlimit="10" d="M80.6 557H300v24.4H80.5z"/><text transform="translate(95.035 573.897)" font-family="'MyriadPro-Light'" font-size="11.2">string branchCode = jsonutis:getString(bra...</text><path fill="#FFF" stroke="#000" stroke-width=".6" stroke-miterlimit="10" d="M80.6 597H300v24.4H80.5z"/><text transform="translate(97.315 613.897)" font-family="'MyriadPro-Light'" font-size="11.2">system:print(”Branch Code” + branchCode)</text><path fill="#FFF" stroke="#000" stroke-width=".6" stroke-miterlimit="10" d="M80.6 637H300v24.4H80.5z"/><text transform="translate(94.235 653.897)" font-family="'MyriadPro-Light'" font-size="11.2">json bankInfoReq = “{”Branchinfo”: {”Branch...</text><path fill="#FFF" stroke="#000" stroke-width=".6" stroke-miterlimit="10" d="M80.6 677H300v24.4H80.5z"/><text transform="translate(100.41 693.897)" font-family="'MyriadPro-Light'" font-size="11.2">jsonutiIs:set(bankInfoReq, “S.BranchInfo.Br</text><path fill="#FFF" stroke="#000" stroke-width=".6" stroke-miterlimit="10" d="M80.6 713H300v24.4H80.5z"/><text transform="translate(96.542 729.897)" font-family="'MyriadPro-Light'" font-size="11.2">messages:setJsonPayload(backendService...</text><path fill="#FFF" stroke="#000" stroke-width=".6" stroke-miterlimit="10" d="M80.6 749H300v24.4H80.5z"/><text transform="translate(91.01 765.897)" font-family="'MyriadPro-Light'" font-size="11.2">response = http:ClientConnector.post(blankI...</text><text transform="translate(157.733 826.212)" font-family="'MyriadPro-Light'" font-size="11.2">reply response</text><text transform="translate(399.56 131.637)" font-family="'MyriadPro-Regular'" font-size="11.4">branchLocat...</text><text transform="translate(400.562 907.092)" font-family="'MyriadPro-Regular'" font-size="11.4">branchLocat...</text><path fill="#FFF" stroke="#000" stroke-width=".6" stroke-miterlimit="10" d="M309.7 115.7h75.6V140h-75.6zm0 774.3h75.6v24.4h-75.6z"/><path fill="none" stroke="#000" stroke-width=".4" stroke-miterlimit="10" d="M348.7 140v750"/><text transform="translate(314.09 131.637)" font-family="'MyriadPro-Regular'" font-size="11.4">bankInforSer...</text><text transform="translate(315.09 907.092)" font-family="'MyriadPro-Regular'" font-size="11.4">bankInforSer...</text><path fill="none" stroke="#000" stroke-width=".4" stroke-miterlimit="10" d="M24 999.4h451.5V1670H24z"/><path fill="#FFF" stroke="#000" stroke-width=".4" stroke-miterlimit="10" d="M16 950.3h468V967H16z"/><path fill="#939598" d="M444 960.6v-2.3h.6v3h-6v-6h3v.5H439v4.8h5zm-.4-4.4l-.7-.7.2-.3 1.4 1.2-1.2 1.3-.3-.3.6-.7c-1.5.2-2.5.7-3 1.7-.3.2-.4.5-.5.8v.8h-.6v-.2l.2-.5c0-.2 0-.4.2-.7 0-.2.3-.4.5-.7.2-.4.4-.6.7-.8.3-.3.7-.5 1-.6l1.6-.4zm11.6 4.4v-2.3h.6v3h-6v-6h3v.4H450v5h5zm.6-5.4v.5h-.9l-1 .5c-.8.6-1.4 1.7-1.5 3.2l.6-.6.4.4-1.2 1-1.3-1.2.3-.4.7.8c0-.6 0-1 .3-1.5l.6-1.3.6-.7.8-.5c.2 0 .5 0 .7-.2h.8zm6.9 0h2.3v.7h1.5v.7h-5.3v-.8h1.5v-.8zm-1 2h4.4v4h-4.4v-4zm1 .6v3h.6v-3h-.7zm1.7 0v3h.7v-3h-.6zm10.9 2l-3-3 .4-.3 2.6 2.4 2.6-2.5.3.5-3 2.8z"/><path fill="none" stroke="#000" stroke-width=".2" stroke-miterlimit="10" d="M435.6 955v6.6m11.4-6.2v6.5m11.4-6.9v6.6m10.9-6.6v6.6"/><path d="M16 950.3h14.4V967H16zm20.3 32.4c1-1 2-1.3 3-1.3 1.2 0 2.2.4 3 1.3 1 .8 1.3 1.8 1.3 3 0 1-.4 2-1.3 3-.8.8-1.8 1.2-3 1.2-1 0-2-.5-3-1.3s-1.2-2-1.2-3c0-1.2.5-2.2 1.3-3zm1.6 4.6v-.3h-.2c-.2 0-.2 0-.2-.3v-.6s0-.3-.2-.3l.2-.5v-.7c0-.2 0-.3.2-.3v-.3c-.4 0-.6.2-.6.6v.6s0 .2-.2.2v.3c.2 0 .3 0 .3.3v.7c0 .4 0 .6.5.6zm1.5-.5l.8-2.3H40l-.5 1c0 .4 0 .7-.2 1l-.2-1-.3-1h-.4l.8 2.3h.5zm2.2-1v-.3c-.2 0-.3 0-.3-.2v-.8c0-.4-.2-.6-.6-.6v.3c.2 0 .3 0 .3.3v.7c0 .2 0 .4.3.5-.2 0-.3.2-.3.4v.7c0 .2 0 .3-.2.3v.3c.4 0 .7-.2.7-.6v-.6s0-.2.2-.2z"/><path fill="#AEADAE" d="M45 982.6h5.8v6h-6z"/><path fill="#FFF" d="M49.7 985.3v.4H48v1.7h-.4v-1.7H46v-.4h1.6v-1.7h.4v1.7h1.7z"/><path fill="none" stroke="#000" stroke-width=".4" stroke-miterlimit="10" d="M16 967h468v711H16z"/><g fill="#FFF"><path d="M27 960.8c0-.2 0-.4-.2-.5l.3-.3s0-.2-.2-.3h-.4c0-.2-.2-.3-.3-.4l.2-.4v-.2l-.2-.2s-.2 0-.3.2c-.2 0-.3-.2-.4-.3v-.4H25c-.2 0-.3 0-.3.2H24c0-.2 0-.3-.2-.4h-.3s0 .2-.2.3v.2H23l-.2-.2h-.3v.4l-.4.4s-.2 0-.3-.2l-.2.2v.4c0 .2 0 .3-.2.5H21l-.2.3.2.2v.5h-.3v.4h.2v.8s0 .2-.2.3v.4h.5c0 .2.2.3.3.4 0 .2 0 .3-.2.4l.2.2h.8v.5h.4s.2 0 .2-.2h.5c0 .2 0 .3.2.4h.3v-.2h.2l.4-.2.3.3h.2v-.4c.2 0 .3-.2.4-.3h.4c0 .2 0 .2 0 0h.2v-.9h1v-.3c0-.2 0-.3-.2-.3v-.6c.3 0 .4 0 .5-.2v-.5zm-3.2 1c-.4 0-.8-.3-.8-.8 0-.4.4-.8 1-.8.3 0 .7.4.7.8 0 .5-.4 1-1 1zm-.6-5.8H23v-.2l-.2-.2.2-.3v-.2c-.2 0-.3 0-.3.2l-.3-.3v-.4h-.6v-.4H21l-.2-.2h-.2v.3h-.3c0 .2 0 .2 0 0h-.5v.3s0 .2-.2.3l-.3-.2v.4c0 .2 0 .3-.2.3l-.2.3.2.2v.3h-.2v.4h.2v.3c.2 0 .2 0 0 0v.5h.3s.2 0 .3.2v.3h.5v.4h1.2v-.2h.8v-.2c0-.2 0-.2.2-.3h.3v-.6h.4v-.2l-.2-.2v-.3h.2v-.2zm-2 1c-.5 0-.7-.3-.8-.6 0-.3.2-.7.5-.7.2 0 .5.2.6.5 0 .4-.2.6-.5.7z"/><path d="M27.5 956.2h-.2v-.6H27v-.5h-.6v-.5H26v.2h-.3s-.2 0-.2-.2h-.2v.2h-.6v.4h-.3v.5H24s0 .2.2.2v.2H24v.2h.2v1h.2s0 .2.2.3h-.2v.2h1.1v.3h.7v-.2h.6v-.2h.2c.2 0 .2-.2.2-.2v-.4h.2v-.7zm-1.5.7c-.3 0-.5-.3-.5-.5s0-.5.4-.5c0 0 .3.2.3.4s0 .4-.3.5z"/></g><path fill="#FFF" stroke="#000" stroke-width=".4" stroke-miterlimit="10" d="M24 999.6h451.5v16.8H24z"/><path fill="#939598" d="M435.5 1010v-2.4h.5v3h-6v-6.2h3v.6h-2.5v5h5zm-.4-4.5l-.6-.7.3-.4 1.3 1.3-1 1.3-.4-.4.5-.6c-1.4 0-2.4.7-3 1.7l-.4.7-.2.7v.3h-.5v-.6l.3-.7c0-.3.2-.6.4-.8l.8-.8 1-.6c.6 0 1-.3 1.6-.3zm11.6 4.5v-2.4h.5v3h-6v-6.2h3v.6h-2.5v5h5zm.5-5.6v.5h-.8l-.8.5c-1 .6-1.5 1.6-1.7 3l.6-.4.3.4-1.4 1.2-1.2-1.4.3-.3.7.6c0-.5.2-1 .4-1.5 0-.3.3-.7.6-1l.7-.7 1-.5.5-.2h.5l.2-.2zm7 0h2.3v.8h1.5v.8h-5.3v-.8h1.5v-.8zm-1 2.2h4.4v4H453v-4zm1 .5v3h.6v-3h-.7zm1.7 0v3h.6v-3h-.7zm10.8 1.9l-3-2.8.5-.5 2.5 2.5 2.6-2.5.5.5-3 3z"/><path fill="none" stroke="#000" stroke-width=".2" stroke-miterlimit="10" d="M438.5 1004.2v6.5m11.5-6.7v6.4m10.8-6.1v6.5"/><path d="M24 999.6h14.5v16.7H24z"/><path fill="#FFF" d="M35.4 1008s-.3 0-.4-.2c0-.2 0-.4-.2-.5l.4-.4v-.5h-.6l-.4-.5c0-.2 0-.3.2-.5l-.3-.3s-.2 0-.3.2c-.3 0-.4-.2-.6-.3v-.4c0-.2 0-.2-.2-.3l-.4.4H32c0-.2 0-.4-.2-.5h-.3c-.2 0-.2.2-.3.4h-.5c0 .2 0 .2 0 0-.2 0-.3 0-.4-.2H30v.6l-.5.4c-.2 0-.3 0-.4-.2l-.4.2v.2s0 .2.2.3c0 .2-.2.3-.3.5h-.7v.4l.2.2v.6h-.2s-.2 0-.3.2v.4h.3v.3s0 .3.2.4v.2c-.2 0-.3.2-.4.3 0 0 0 .3.2.4h.4c.2 0 .3.2.4.4 0 .2 0 .3-.2.4 0 .2.2.3.3.4.2 0 .3 0 .4-.2h.2c.2 0 .3.2.5.3v.5c.2 0 .3 0 .4.2h.2c0-.2 0-.2.2-.3h.6c0 .2 0 .3.2.4v.2h.4v-.4h.2c.2 0 .4 0 .5-.2l.4.4h.4v-.6l.6-.4c.2 0 .3 0 .5.2.2 0 .3-.2.4-.3v-.2s0-.2-.2-.3c0-.3.2-.4.3-.6h.5l.2-.4c0-.2-.2-.3-.3-.4h-.2v-.6h.2s.3 0 .4-.2v-.4zm-4 1.2c-.6 0-1-.4-1-1s.4-1 1-1c.5 0 1 .4 1 1s-.4 1-1 1z"/><path fill="#FFF" stroke="#000" stroke-width=".6" stroke-miterlimit="10" d="M140.4 1053h100v24.5h-100z"/><text transform="translate(152.12 1069.053)" font-family="'MyriadPro-Regular'" font-size="11.4">ResourceWorker</text><text transform="translate(35.3 962.54)" font-family="'MyriadPro-Regular'" font-size="11.4">BankLocator</text><text transform="translate(43.878 1012.192)" font-family="'MyriadPro-Regular'" font-size="11.4">product</text><path fill="none" stroke="#000" stroke-width=".4" stroke-miterlimit="10" d="M191.2 1077.5V1601"/><path fill="#FFF" stroke="#000" stroke-width=".4" stroke-miterlimit="10" d="M140.5 1556.8h101v24.4h-101zm-.1-461.8h101v24.5h-101z"/><path fill="#FFF" stroke="#000" stroke-width=".6" stroke-miterlimit="10" d="M140.4 1601h100v24.3h-100z"/><text transform="translate(152.467 1616.85)" font-family="'MyriadPro-Regular'" font-size="11.4">ResourceWorker</text><path d="M55.5 1078.7c-.4.2-1 .4-2 .4-2.2 0-3.8-1.3-3.8-3.8 0-2.4 1.6-4 4-4 1 0 1.5.2 1.8.3l-.3.8-1.5-.3c-1.8 0-3 1.2-3 3.2s1 3 3 3c.6 0 1.2 0 1.6-.3l.2.7zm1.2-7.7h1v8h-1v-8zm3.8 1c0 .3-.3.5-.7.5-.3 0-.6-.2-.6-.6 0-.4.3-.7.7-.7.2 0 .5.3.5.6zm-1 7v-5.5h1v5.5h-1zm3.1-2.6c0 1.4 1 2 2 2 .6 0 1-.2 1.4-.4l.2.7c-.4.2-1 .4-2 .4-1.6 0-2.6-1-2.6-2.7s1-3 2.6-3c1.8 0 2.3 1.6 2.3 2.6v.4h-4zm3-.7c0-.7-.4-1.6-1.5-1.6-1 0-1.3 1-1.4 1.7h3zm2.1-.7v-1.5h.8v1c.4-.6 1-1.2 2-1.2.7 0 2 .5 2 2.4v3.3h-1v-3.2c0-1-.4-1.6-1.4-1.6-.5 0-1 .4-1.2 1v3.8h-1v-4zm7.5-3v1.5h1.4v.7h-1.4v3c0 .7.2 1 .7 1h.5v.8h-.8c-.5 0-1 0-1-.3-.4-.3-.5-.8-.5-1.5v-3h-1v-.7h1v-1.3l1-.3z"/><path fill="none" stroke="#000" stroke-width=".6" stroke-miterlimit="10" d="M35.3 1075.5l29-29 29.3 29-29.2 29z" stroke-dasharray="1.6 1.6"/><path d="M55.4 1611.3c-.4.2-1 .4-2 .4-2.2 0-3.8-1.4-3.8-4 0-2.3 1.6-4 4-4 1 0 1.5.3 1.8.4l-.3 1c-.2-.3-.8-.4-1.4-.4-1.8 0-3 1.2-3 3.2 0 1.8 1 3 3 3 .5 0 1.2 0 1.6-.3l.2.8zm1.2-7.8h1v8h-1v-8zm3.8 1c0 .4-.3.6-.7.6-.3 0-.6 0-.6-.5 0-.3.4-.6.7-.6.4 0 .7.2.7.5zm-1.2 7v-5.4h1v5.6h-1zm3.3-2.5c0 1.3.8 2 1.8 2 .8 0 1.2-.2 1.6-.4v.7c-.3.2-1 .4-1.8.4-1.7 0-2.7-1-2.7-2.8 0-1.8 1-3 2.6-3 2 0 2.4 1.5 2.4 2.5v.5h-4zm3-.7c0-.7-.4-1.6-1.5-1.6-1 0-1.4 1-1.5 1.6h3zm2.1-.8v-1.4h.8v1c.4-.6 1-1 2-1 .7 0 2 .4 2 2.3v3.3h-1v-3.2c0-1-.5-1.6-1.4-1.6-.7 0-1.2.4-1.3 1v3.8h-1v-4zm7.4-3v1.6h1.5v.8H75v3c0 .7.3 1 .8 1h.6v.7l-.8.2c-.5 0-1-.2-1-.4-.4-.3-.5-.8-.5-1.5v-3h-.8v-.7h1v-1.3l1-.2z"/><path fill="none" stroke="#000" stroke-width=".6" stroke-miterlimit="10" d="M35.2 1608l29-29 29.3 29-29.2 29.2z" stroke-dasharray="1.6 1.6"/><path fill="none" stroke="#000" stroke-miterlimit="10" d="M64.4 1104.6V1579"/><path fill="none" stroke="#000" stroke-width=".9" stroke-miterlimit="10" d="M133.8 1109H64.4"/><path d="M132.4 1104.3l8 4.6-8 4.5"/><path fill="none" stroke="#000" stroke-width=".6" stroke-miterlimit="10" d="M71 1569h69.4" stroke-dasharray="1.6 1.6"/><path d="M72.4 1573.6l-8-4.6 8-4.6"/><path fill="#FFF" stroke="#000" stroke-width=".4" stroke-miterlimit="10" d="M108 1135.2h164.5v24.4H108z"/><text transform="translate(180.15 1112.178)" font-family="'MyriadPro-Light'" font-size="11.2">Start</text><text transform="translate(141.914 1152.176)" font-family="'MyriadPro-Light'" font-size="11.2">message response= {}</text><path fill="#FFF" stroke="#000" stroke-width=".6" stroke-miterlimit="10" d="M80.6 1175.4H300v24.4H80.5z"/><text transform="translate(92.176 1192.356)" font-family="'MyriadPro-Light'" font-size="11.2">json jsonRequest = messages:getJsonPaylo...</text><path fill="#FFF" stroke="#000" stroke-width=".6" stroke-miterlimit="10" d="M80.6 1215.3H300v24.4H80.5z"/><text transform="translate(90.294 1232.182)" font-family="'MyriadPro-Light'" font-size="11.2">string zipCode = jsonutils:getString(jsonReq...</text><path fill="#FFF" stroke="#000" stroke-width=".6" stroke-miterlimit="10" d="M146.3 1255h88v24.5h-88z"/><text transform="translate(156.138 1272.008)" font-family="'MyriadPro-Light'" font-size="11.2">jsonpayload ={}</text><path fill="#FFF" stroke="#000" stroke-width=".6" stroke-miterlimit="10" d="M80.6 1295H300v178.3H80.5z"/><text transform="translate(83.898 1311.835)" font-family="'MyriadPro-Light'" font-size="11.2">If</text><path fill="#FFF" stroke="#000" stroke-width=".6" stroke-miterlimit="10" d="M86.6 1328h207.2v24.4H86.6z"/><text transform="translate(93.26 1344.947)" font-family="'MyriadPro-Light'" font-size="11.2">pyload = “{”ABCBank”:{”BranchCode”:”123”}}”</text><path fill="#FFF" stroke="#000" stroke-width=".6" stroke-miterlimit="10" d="M86.6 1403.3h207.2v24.4H86.6z"/><text transform="translate(99.142 1420.214)" font-family="'MyriadPro-Light'" font-size="11.2">pyload = “{”ABCBank”: {”BranchCode”:”1}}”</text><path fill="#FFF" stroke="#000" stroke-width=".6" stroke-miterlimit="10" d="M80.6 1494.4H300v24.4H80.5z"/><text transform="translate(90.513 1511.313)" font-family="'MyriadPro-Light'" font-size="11.2">messages:setJsonPayload(response . payload)</text><text transform="translate(157.733 1573.43)" font-family="'MyriadPro-Light'" font-size="11.2">reply response</text><path fill="#FFF" stroke="#000" stroke-width=".6" stroke-miterlimit="10" d="M80.6 1319.6H300"/><path fill="none" stroke="#000" stroke-width=".6" stroke-miterlimit="10" d="M90.8 1319.6l12-24.7"/><text transform="translate(84.844 1385.256)" font-family="'MyriadPro-Light'" font-size="11.2">Else</text><path fill="#FFF" stroke="#000" stroke-width=".6" stroke-miterlimit="10" d="M80.6 1393H300m-219.4-24.7H300"/><path fill="none" stroke="#000" stroke-width=".6" stroke-miterlimit="10" d="M104.4 1393l12-24.7"/><path fill="none" stroke="#000" stroke-width=".4" stroke-miterlimit="10" d="M24 1759.5h451.5V2430H24z"/><path fill="#FFF" stroke="#000" stroke-width=".4" stroke-miterlimit="10" d="M16 1710.3h468v16.8H16z"/><path fill="#939598" d="M444 1720.6v-2.3h.6v3h-6v-6h3v.5H439v4.8h5zm-.4-4.4l-.7-.6.2-.4 1.4 1.2-1.2 1.3-.3-.3.6-.7c-1.5.2-2.5.7-3 1.7l-.5.8v.8h-.6v-.2l.2-.4c0-.3 0-.5.2-.7 0-.3.3-.5.5-.8.2-.4.4-.6.7-.8.3-.3.7-.4 1-.6l1.6-.4zm11.6 4.4v-2.3h.6v3h-6v-6h3v.5H450v4.8h5zm.6-5.4v.5h-.9l-1 .5c-.8.6-1.4 1.7-1.5 3.2l.6-.6.4.4-1.2 1-1.3-1.2.3-.4.7.8c0-.6 0-1 .3-1.5l.6-1.2.6-.8.8-.4c.2-.2.5-.2.7-.3h.8zm6.9 0h2.3v.7h1.5v.7h-5.3v-.8h1.5v-.8zm-1 2h4.4v4h-4.4v-4zm1 .6v3h.6v-3h-.7zm1.7 0v3h.7v-3h-.6zm10.9 2l-3-3 .4-.3 2.6 2.4 2.6-2.5.3.5-3 2.8z"/><path fill="none" stroke="#000" stroke-width=".2" stroke-miterlimit="10" d="M435.6 1715v6.6m11.4-6.2v6.5m11.4-6.9v6.6m10.9-6.6v6.6"/><path d="M16 1710.3h14.4v16.7H16zm20.3 32.4c1-1 2-1.3 3-1.3 1.2 0 2.2.4 3 1.3 1 .8 1.3 1.8 1.3 3 0 1-.4 2-1.3 3-.8.8-1.8 1.2-3 1.2-1 0-2-.5-3-1.3s-1.2-2-1.2-3c0-1.2.5-2.2 1.3-3zm1.6 4.6v-.3h-.2c-.2 0-.2 0-.2-.3v-.6s0-.3-.2-.3l.2-.5v-.7c0-.2 0-.3.2-.3v-.3c-.4 0-.6.2-.6.6v.6c0 .2 0 .2-.2.2v.3c.2 0 .3 0 .3.3v.7c0 .4 0 .6.5.6zm1.5-.5l.8-2.3H40l-.5 1.2c0 .2 0 .5-.2.7 0-.2 0-.4-.2-.7l-.3-1.2h-.4l.8 2.3h.5zm2.2-1v-.3c-.2 0-.3 0-.3-.2v-.8c0-.4-.2-.6-.6-.6v.3c.2 0 .3 0 .3.3v.5c0 .2 0 .4.3.5-.2 0-.3.2-.3.4v.7c0 .2 0 .3-.2.3v.3c.4 0 .7-.2.7-.6v-.6s0-.2.2-.2z"/><path fill="#AEADAE" d="M45 1742.6h5.8v6h-6z"/><path fill="#FFF" d="M49.7 1745.3v.4H48v1.7h-.4v-1.7H46v-.4h1.6v-1.7h.4v1.7h1.7z"/><path fill="none" stroke="#000" stroke-width=".4" stroke-miterlimit="10" d="M16 1727h468v711H16z"/><path fill="#FFF" d="M27 1721c0-.2 0-.2-.2-.2 0-.2 0-.4-.2-.5l.3-.3s0-.2-.2-.3h-.4c0-.2-.2-.3-.3-.4l.2-.4v-.2H26c0-.2 0-.2 0 0h-.3c-.2 0-.3-.2-.4-.3v-.4H25c-.2 0-.3.2-.3.2H24c0-.2 0-.3-.2-.4h-.3s0 .2-.2.3v.2H23l-.2-.2h-.3v.5c-.2 0-.3.2-.4.3h-.3c0-.2 0-.2 0 0h-.2v.4c0 .2 0 .3-.2.5H21l-.2.3.2.2v.5c-.2 0-.2 0-.3.2v.2h.2v.8s0 .2-.2.3v.4h.5c0 .2.2.3.3.4 0 .2 0 .3-.2.4l.2.2h.4c.2 0 .3 0 .4.2v.3h.7v-.2h.5v.2l.2.2h.3v-.2h.2s.3 0 .4-.2l.3.3h.2v-.4c.2 0 .3-.2.4-.3.2 0 .3 0 .4.2l.2-.2v-.9h.9v-.3c0-.2 0-.2-.2-.3v-.6h.5v-.5zm-3.2 1c-.4 0-.8-.5-.8-1 0-.4.4-.8 1-.8.3 0 .7.4.7 1 0 .3-.4.7-1 .7zm-.6-6H23v-.2l-.2-.2.2-.2v-.3c-.2 0-.3 0-.3.2-.2 0-.2-.2-.3-.3v-.4h-.6v-.4H21l-.2-.2h-.2v.3c-.2 0-.3 0-.3.2-.2 0-.2-.2-.3-.2h-.2v.3c0 .2 0 .2-.2.3 0 0-.2 0-.3-.2v.4c0 .2 0 .3-.2.4-.2 0-.2.2-.2.2l.2.2v.3h-.2v.4h.2v.4c.2 0 .2 0 0 0v.5h.3s.2 0 .3.2v.3h.5v.4h1.2v-.2h.8v-.2s0-.2.2-.3h.3v-.6h.4v-.2l-.2-.2v-.3h.2v-.2zm-2 1c-.5 0-.7-.3-.8-.6 0-.3.2-.6.5-.7.2 0 .5.2.6.5 0 .4-.2.6-.5.7zm6.3-.8h-.2v-.7H27v-.4h-.6v-.5H26v.2h-.3s-.2 0-.2-.2h-.2v.2h-.6v.4h-.3v.5H24c0 .2 0 .2.2.2v.3H24v.2h.2v.5h.2c0 .2 0 .2.2.3l-.2.2h1.1v.3h.7c0-.2.2-.2.2-.2h.4v-.2h.2c.2 0 .2-.2.2-.2v-.4h.2v-.7zm-1.5.7c-.3 0-.5-.3-.5-.5s0-.4.4-.5c0 0 .3.2.3.4s0 .4-.3.5z"/><path fill="#FFF" stroke="#000" stroke-width=".4" stroke-miterlimit="10" d="M24 1759.6h451.5v16.8H24z"/><path fill="#939598" d="M435.5 1770v-2.4h.5v3h-6v-6h3v.4h-2.5v5h5zm-.4-4.5l-.6-.7.3-.3 1.3 1.2-1 1.3-.4-.4.5-.6c-1.4 0-2.4.7-3 1.7l-.4.7-.2.7v.3h-.5v-.6l.3-.7c0-.3.2-.6.4-.8l.8-.8 1-.6c.6 0 1-.2 1.6-.3zm11.6 4.5v-2.4h.5v3h-6v-6h3v.4h-2.5v5h5zm.5-5.5v.4h-.8l-.8.5c-1 .6-1.5 1.7-1.7 3l.6-.4.3.4-1.4 1.2-1.2-1.4.3-.3.7.7c0-.6.2-1 .4-1.6 0-.3.3-.7.6-1l.7-.7 1-.5.5-.2h.7zm7 0h2.3v.7h1.5v.8h-5.3v-.8h1.5v-.7zm-1 2h4.4v4H453v-4zm1 .6v3h.6v-3h-.7zm1.7 0v3h.6v-3h-.7zm10.8 1.9l-3-2.8.5-.5 2.5 2.5 2.6-2.4.5.4-3 3z"/><path fill="none" stroke="#000" stroke-width=".2" stroke-miterlimit="10" d="M438.5 1764.2v6.6m11.5-6.8v6.4m10.8-6.1v6.6"/><path d="M24 1759.6h14.5v16.7H24z"/><path fill="#FFF" d="M35.4 1768s-.3 0-.4-.2c0-.2 0-.3-.2-.5l.4-.4v-.5h-.6l-.4-.5c0-.2 0-.3.2-.4 0-.2-.2-.3-.3-.4 0 0-.2 0-.3.2-.3 0-.4-.2-.6-.3v-.4c0-.2 0-.2-.2-.2s-.3.2-.4.3H32c0-.2 0-.4-.2-.5h-.3c-.2 0-.2.3-.3.4-.2 0-.4 0-.5.2l-.4-.4H30v.6l-.5.4c-.2 0-.3 0-.4-.2-.2 0-.3.2-.4.3 0 .2 0 .3.2.4 0 .2-.2.3-.3.5h-.7v.4l.2.2v.6h-.2s-.2 0-.3.2v.4h.3v.3s0 .3.2.4v.2c-.2 0-.3.2-.4.3 0 .2 0 .3.2.4h.4c.2 0 .3.3.4.4 0 .2 0 .3-.2.4v.2s.2 0 .3.2c.2 0 .3 0 .4-.2h.2c.2 0 .3.2.5.3v.5c.2 0 .3 0 .4.2h.2s0-.2.2-.3h.6c0 .2 0 .3.2.5h.4v-.4h.7c0-.2 0-.2 0 0 .2 0 .3 0 .4.2h.4v-.6l.6-.4c.2 0 .3 0 .5.2.2 0 .3-.2.4-.3 0-.3 0-.4-.2-.5 0-.2.2-.4.3-.5h.5l.2-.4c0-.2-.2-.3-.3-.4h-.2v-.5h.2c0-.2.3-.2.4-.2v-.4zm-4 1.2c-.6 0-1-.4-1-1s.4-1 1-1c.5 0 1 .4 1 1s-.4 1-1 1z"/><path fill="#FFF" stroke="#000" stroke-width=".6" stroke-miterlimit="10" d="M140.4 1813h100v24.5h-100z"/><text transform="translate(152.12 1829.066)" font-family="'MyriadPro-Regular'" font-size="11.4">ResourceWorker</text><text transform="translate(35.3 1722.553)" font-family="'MyriadPro-Regular'" font-size="11.4">BankInfo</text><text transform="translate(43.878 1772.206)" font-family="'MyriadPro-Regular'" font-size="11.4">product</text><path fill="none" stroke="#000" stroke-width=".4" stroke-miterlimit="10" d="M191.2 1837.5V2361"/><path fill="#FFF" stroke="#000" stroke-width=".4" stroke-miterlimit="10" d="M140.5 2316.8h101v24.4h-101zm-.1-461.8h101v24.5h-101z"/><path fill="#FFF" stroke="#000" stroke-width=".6" stroke-miterlimit="10" d="M140.4 2361h100v24.3h-100z"/><text transform="translate(152.467 2376.863)" font-family="'MyriadPro-Regular'" font-size="11.4">ResourceWorker</text><path d="M55.5 1838.7c-.4.2-1 .4-2 .4-2.2 0-3.8-1.3-3.8-3.8 0-2.4 1.6-4 4-4 1 0 1.5.2 1.8.3l-.3.8-1.5-.3c-1.8 0-3 1.2-3 3.2s1 3 3 3c.6 0 1.2 0 1.6-.2l.2.7zm1.2-7.7h1v8h-1v-8zm3.8 1c0 .3-.3.6-.7.6-.3 0-.6-.3-.6-.7 0-.4.3-.7.7-.7.2 0 .5.3.5.6zm-1 7v-5.5h1v5.5h-1zm3.1-2.6c0 1.4 1 2 2 2 .6 0 1-.2 1.4-.4l.2.8c-.4 0-1 .3-2 .3-1.6 0-2.6-1-2.6-2.7s1-3 2.6-3c1.8 0 2.3 1.6 2.3 2.7v.4h-4zm3-.7c0-.6-.4-1.6-1.5-1.6-1 0-1.3 1-1.4 1.7h3zm2.1-.7v-1.5h.8v1c.4-.6 1-1 2-1 .7 0 2 .3 2 2.2v3.3h-1v-3.2c0-1-.4-1.6-1.4-1.6-.5 0-1 .5-1.2 1v3.8h-1v-4zm7.5-3v1.5h1.4v.7h-1.4v3c0 .7.2 1 .7 1h.5v.8h-.8c-.5 0-1 0-1-.3-.4-.3-.5-.8-.5-1.5v-3h-1v-.7h1v-1.3l1-.3z"/><path fill="none" stroke="#000" stroke-width=".6" stroke-miterlimit="10" d="M35.3 1835.5l29-29 29.2 29-29 29z" stroke-dasharray="1.6 1.6"/><path d="M55.4 2371.3c-.4.2-1 .4-2 .4-2.2 0-3.8-1.4-3.8-4 0-2.3 1.6-4 4-4 1 0 1.5.3 1.8.4l-.3 1c-.2-.2-.8-.4-1.4-.4-1.8 0-3 1.2-3 3.2s1 3 3 3c.5 0 1.2 0 1.6-.3l.2.8zm1.2-7.8h1v8h-1v-8zm3.8 1c0 .4-.3.6-.7.6-.3 0-.6 0-.6-.5 0-.3.4-.6.7-.6.4 0 .7.2.7.5zm-1.2 7v-5.4h1v5.6h-1zm3.3-2.5c0 1.4.8 2 1.8 2 .8 0 1.2-.2 1.6-.4v.7c-.3.2-1 .4-1.8.4-1.7 0-2.7-1-2.7-2.8 0-1.7 1-3 2.6-3 2 0 2.4 1.5 2.4 2.5v.5h-4zm3-.7c0-.6-.4-1.6-1.5-1.6-1 0-1.4 1-1.5 1.6h3zm2.1-.7v-1.5h.8v1c.4-.5 1-1 2-1 .7 0 2 .4 2 2.3v3.3h-1v-3.2c0-1-.5-1.6-1.4-1.6-.7 0-1.2.4-1.3 1v3.8h-1v-4zm7.4-3.1v1.6h1.5v.8H75v3c0 .7.3 1 .8 1h.6v.7l-.8.2c-.5 0-1-.2-1-.4-.4-.3-.5-.8-.5-1.5v-3h-.8v-.7h1v-1.2l1-.3z"/><path fill="none" stroke="#000" stroke-width=".6" stroke-miterlimit="10" d="M35.2 2368l29-29 29.2 29-29 29.2z" stroke-dasharray="1.6 1.6"/><path fill="none" stroke="#000" stroke-miterlimit="10" d="M64.4 1864.6V2339"/><path fill="none" stroke="#000" stroke-width=".9" stroke-miterlimit="10" d="M133.8 1869H64.4"/><path d="M132.4 1864.3l8 4.6-8 4.5"/><path fill="none" stroke="#000" stroke-width=".6" stroke-miterlimit="10" d="M71 2329h69.4" stroke-dasharray="1.6 1.6"/><path d="M72.4 2333.6l-8-4.6 8-4.6"/><path fill="#FFF" stroke="#000" stroke-width=".4" stroke-miterlimit="10" d="M108 1895.3h164.5v24.4H108z"/><text transform="translate(180.15 1872.19)" font-family="'MyriadPro-Light'" font-size="11.2">Start</text><text transform="translate(141.914 1912.19)" font-family="'MyriadPro-Light'" font-size="11.2">message response= {}</text><path fill="#FFF" stroke="#000" stroke-width=".6" stroke-miterlimit="10" d="M80.6 1935.4H300v24.4H80.5z"/><text transform="translate(92.176 1952.37)" font-family="'MyriadPro-Light'" font-size="11.2">json jsonRequest = messages:getJsonPaylo...</text><path fill="#FFF" stroke="#000" stroke-width=".6" stroke-miterlimit="10" d="M80.6 1975.3H300v24.4H80.5z"/><text transform="translate(92.607 1992.196)" font-family="'MyriadPro-Light'" font-size="11.2">string branchCode = jsonutils:getString(jso...</text><path fill="#FFF" stroke="#000" stroke-width=".6" stroke-miterlimit="10" d="M146.3 2015h88v24.5h-88z"/><text transform="translate(156.138 2032.022)" font-family="'MyriadPro-Light'" font-size="11.2">jsonpayload ={}</text><path fill="#FFF" stroke="#000" stroke-width=".6" stroke-miterlimit="10" d="M80.6 2055H300v178.3H80.5z"/><text transform="translate(83.898 2071.848)" font-family="'MyriadPro-Light'" font-size="11.2">If</text><path fill="#FFF" stroke="#000" stroke-width=".6" stroke-miterlimit="10" d="M86.6 2088h207.2v24.4H86.6z"/><text transform="translate(102.132 2104.96)" font-family="'MyriadPro-Light'" font-size="11.2">pyload = “{”ABCBank”:{”Address”:”111Ri...</text><path fill="#FFF" stroke="#000" stroke-width=".6" stroke-miterlimit="10" d="M86.6 2163.3h207.2v24.4H86.6z"/><text transform="translate(99.802 2180.227)" font-family="'MyriadPro-Light'" font-size="11.2">pyload = “{”ABCBank”: {”error”:”No brach...</text><path fill="#FFF" stroke="#000" stroke-width=".6" stroke-miterlimit="10" d="M80.6 2254.4H300v24.4H80.5z"/><text transform="translate(90.513 2271.327)" font-family="'MyriadPro-Light'" font-size="11.2">messages:setJsonPayload(response . payload)</text><text transform="translate(157.733 2333.445)" font-family="'MyriadPro-Light'" font-size="11.2">reply response</text><path fill="#FFF" stroke="#000" stroke-width=".6" stroke-miterlimit="10" d="M80.6 2079.6H300"/><path fill="none" stroke="#000" stroke-width=".6" stroke-miterlimit="10" d="M90.8 2079.6l12-24.7"/><text transform="translate(84.844 2145.27)" font-family="'MyriadPro-Light'" font-size="11.2">Else</text><path fill="#FFF" stroke="#000" stroke-width=".6" stroke-miterlimit="10" d="M80.6 2153H300m-219.4-24.7H300"/><path fill="none" stroke="#000" stroke-width=".6" stroke-miterlimit="10" d="M104.4 2153l12-24.7"/></svg>