<?xml version="1.0" encoding="utf-8"?>
<!-- Generator: Adobe Illustrator 16.0.0, SVG Export Plug-In . SVG Version: 6.00 Build 0)  -->
<!DOCTYPE svg PUBLIC "-//W3C//DTD SVG 1.1//EN" "http://www.w3.org/Graphics/SVG/1.1/DTD/svg11.dtd">
<svg version="1.1" id="Layer_1" xmlns="http://www.w3.org/2000/svg" xmlns:xlink="http://www.w3.org/1999/xlink" x="0px" y="0px"
	 width="30px" height="30px" viewBox="0 0 30 30" enable-background="new 0 0 30 30" xml:space="preserve">
<g>
	<path fill="#808080" d="M-27.333,0v30c-2.5,0-7.481,0-14.941,0v-2.812c6.094,0,10.137,0,12.129,0L-30.205,2.93h-24.316
		l0.059,11.661h-2.871V0H-27.333z M-57.333,17.989h12.012V30h-12.012V17.989z M-55.166,27.833h7.734v-7.734h-7.734V27.833z
		 M-35.068,14.942V9.375l-7.793,7.559l-1.758-1.875l7.734-7.5L-42.568,7.5l0.059-2.578l10.02,0.176V15L-35.068,14.942z"/>
</g>
<g>
	<path fill="#303030" d="M30,0v30c-2.5,0-7.481,0-14.941,0v-2.812c6.094,0,10.137,0,12.129,0L27.129,2.93H2.812L2.871,14.59H0V0H30z
		 M0,17.989h12.012V30H0V17.989z M2.168,27.833h7.734v-7.734H2.168V27.833z M15.293,6.914v5.567l7.793-7.559l1.758,1.875l-7.734,7.5
		l5.684,0.059l-0.059,2.578l-10.02-0.176V6.855L15.293,6.914z"/>
</g>
</svg>
