<?xml version="1.0" encoding="utf-8"?>
<!-- Generator: Adobe Illustrator 16.0.0, SVG Export Plug-In . SVG Version: 6.00 Build 0)  -->
<!DOCTYPE svg PUBLIC "-//W3C//DTD SVG 1.1//EN" "http://www.w3.org/Graphics/SVG/1.1/DTD/svg11.dtd">
<svg version="1.1" id="Layer_1" xmlns="http://www.w3.org/2000/svg" xmlns:xlink="http://www.w3.org/1999/xlink" x="0px" y="0px"
	 width="500px" height="1840.668px" viewBox="0 0 500 1840.668" enable-background="new 0 0 500 1840.668" xml:space="preserve">
<g id="Layer_4">
</g>
<g id="hello_1_" display="none">
	
		<rect x="138.565" y="-816.585" display="inline" fill="none" stroke="#000000" stroke-width="0.5" stroke-miterlimit="10" width="419.438" height="291.429"/>
	
		<rect x="138.569" y="-837.577" display="inline" fill="#FFFFFF" stroke="#000000" stroke-width="0.5" stroke-miterlimit="10" width="419.389" height="20.988"/>
	<g display="inline">
		<path fill="#939598" d="M508.495-824.697l-0.015-2.915h0.721v3.648h-7.535v-7.536c0.629,0,1.88,0,3.755,0v0.723
			c-0.167,0-0.388,0-0.655,0c-0.271,0-0.68-0.002-1.229-0.008c-0.549-0.006-0.937-0.008-1.163-0.008l0.018,6.096H508.495z
			 M508.056-830.188l-0.942-0.869l0.412-0.441l1.678,1.562l-1.428,1.575l-0.427-0.412l0.677-0.812
			c-1.854,0.188-3.174,0.895-3.959,2.12c-0.196,0.294-0.352,0.611-0.464,0.949c-0.113,0.338-0.174,0.601-0.184,0.788l-0.029,0.28
			h-0.589c0-0.061,0.005-0.142,0.015-0.243c0.01-0.104,0.051-0.309,0.125-0.611c0.073-0.304,0.174-0.596,0.302-0.875
			c0.127-0.28,0.323-0.594,0.59-0.94c0.266-0.35,0.573-0.657,0.928-0.929c0.354-0.27,0.815-0.513,1.392-0.729
			S507.358-830.129,508.056-830.188z"/>
	</g>
	<g display="inline">
		<g>
			<path fill="#939598" d="M522.494-824.697l-0.015-2.915l0.721-0.017v3.665h-7.536v-7.536c0.629,0,1.881,0,3.756,0v0.707
				c-0.167,0-0.388,0-0.655,0c-0.271,0-0.682,0-1.229,0s-0.937,0-1.163,0l0.018,6.096H522.494z M523.2-831.498v0.591
				c-0.078,0-0.182,0.007-0.309,0.021c-0.128,0.015-0.371,0.079-0.729,0.191c-0.356,0.111-0.688,0.268-0.992,0.463
				c-1.229,0.785-1.93,2.104-2.104,3.959l0.81-0.678l0.412,0.428l-1.59,1.428l-1.546-1.678l0.427-0.413l0.886,0.94
				c0.059-0.695,0.191-1.332,0.402-1.904c0.211-0.574,0.457-1.038,0.736-1.393c0.279-0.353,0.584-0.662,0.912-0.927
				c0.329-0.265,0.648-0.461,0.965-0.589c0.312-0.127,0.599-0.229,0.854-0.302c0.256-0.074,0.462-0.115,0.617-0.125L523.2-831.498z"
				/>
		</g>
	</g>
	<g display="inline">
		<g>
			<path fill="#939598" d="M531.884-831.498h2.854v0.913h1.87v0.973H530v-0.973h1.884V-831.498z M530.471-828.863h5.682v4.899
				h-5.682V-828.863z M531.752-828.245v3.593h0.866v-3.593H531.752z M534.004-828.245v3.593h0.866v-3.593H534.004z"/>
		</g>
	</g>
	<g display="inline">
		<g>
			<path fill="#939598" d="M547.588-825.692l-3.754-3.65l0.56-0.574l3.194,3.106l3.236-3.062l0.544,0.604L547.588-825.692z"/>
		</g>
	</g>
	
		<line display="inline" fill="none" stroke="#000000" stroke-width="0.25" stroke-miterlimit="10" x1="498" y1="-831.666" x2="498" y2="-823.5"/>
	
		<line display="inline" fill="none" stroke="#000000" stroke-width="0.25" stroke-miterlimit="10" x1="512.334" y1="-831.249" x2="512.334" y2="-823.082"/>
	
		<line display="inline" fill="none" stroke="#000000" stroke-width="0.25" stroke-miterlimit="10" x1="526.5" y1="-831.666" x2="526.5" y2="-823.5"/>
	
		<line display="inline" fill="none" stroke="#000000" stroke-width="0.25" stroke-miterlimit="10" x1="540.166" y1="-831.666" x2="540.166" y2="-823.5"/>
	<rect x="138.565" y="-837.577" display="inline" width="18.083" height="20.899"/>
	<g display="inline">
		<path fill="#FFFFFF" d="M150.604-830.175l-0.111,0.407h-0.905l-0.679,2.716c-0.317,1.192-0.628,2.12-0.93,2.784
			c-0.438,0.92-0.903,1.554-1.401,1.9c-0.377,0.271-0.757,0.405-1.134,0.405c-0.257,0-0.468-0.075-0.634-0.226
			c-0.136-0.106-0.204-0.242-0.204-0.407c0-0.136,0.055-0.249,0.158-0.34c0.105-0.091,0.234-0.136,0.385-0.136
			c0.121,0,0.221,0.032,0.294,0.102c0.075,0.068,0.113,0.147,0.113,0.238c0,0.09-0.045,0.173-0.136,0.248
			c-0.062,0.061-0.091,0.104-0.091,0.137c0,0.029,0.015,0.06,0.045,0.09c0.028,0.03,0.083,0.046,0.158,0.046
			c0.181,0,0.368-0.057,0.564-0.17c0.196-0.111,0.37-0.277,0.521-0.498c0.149-0.219,0.294-0.539,0.43-0.962
			c0.06-0.181,0.219-0.754,0.475-1.72l1.086-4.21h-1.086l0.093-0.407c0.347,0,0.588-0.024,0.724-0.079
			c0.136-0.053,0.26-0.146,0.374-0.281c0.114-0.138,0.26-0.387,0.439-0.747c0.241-0.498,0.477-0.885,0.701-1.154
			c0.304-0.377,0.623-0.656,0.962-0.837c0.342-0.183,0.66-0.271,0.962-0.271c0.317,0,0.569,0.079,0.76,0.237
			c0.188,0.158,0.281,0.336,0.281,0.532c0,0.136-0.049,0.252-0.146,0.351c-0.097,0.1-0.215,0.146-0.353,0.146
			c-0.136,0-0.244-0.037-0.326-0.112c-0.083-0.076-0.125-0.159-0.125-0.249c0-0.076,0.028-0.162,0.09-0.261
			c0.06-0.1,0.091-0.162,0.091-0.192c0-0.06-0.023-0.104-0.068-0.136c-0.06-0.03-0.136-0.045-0.226-0.045
			c-0.271,0-0.506,0.083-0.702,0.249c-0.287,0.211-0.536,0.551-0.747,1.019c-0.121,0.241-0.333,0.854-0.634,1.833H150.604
			L150.604-830.175z"/>
	</g>
	<g display="inline">
		<path d="M164.067-797.156c1.037-1.037,2.287-1.557,3.752-1.557c1.467,0,2.718,0.52,3.753,1.557
			c1.037,1.035,1.557,2.288,1.557,3.752c0,1.465-0.521,2.716-1.557,3.753c-1.034,1.037-2.286,1.555-3.753,1.555
			c-1.465,0-2.716-0.519-3.752-1.555s-1.555-2.288-1.555-3.753C162.512-794.869,163.031-796.12,164.067-797.156z M166.099-791.372
			v-0.374h-0.145c-0.235,0-0.354-0.131-0.354-0.394c0-0.055,0.015-0.166,0.042-0.332c0.027-0.125,0.042-0.255,0.042-0.394
			c0-0.276-0.097-0.456-0.291-0.539c0.193-0.098,0.291-0.283,0.291-0.562c0-0.125-0.014-0.249-0.042-0.374
			c-0.026-0.124-0.042-0.242-0.042-0.352c0-0.249,0.117-0.374,0.354-0.374h0.145v-0.373h-0.166c-0.511,0-0.767,0.233-0.767,0.705
			c0,0.042,0.014,0.173,0.042,0.394v0.021c0.025,0.18,0.042,0.316,0.042,0.415c0,0.221-0.118,0.332-0.354,0.332h-0.042v0.332h0.042
			c0.235,0,0.354,0.109,0.354,0.33c0,0.083-0.016,0.217-0.042,0.396c-0.028,0.249-0.042,0.387-0.042,0.415
			c0,0.482,0.256,0.726,0.767,0.726L166.099-791.372L166.099-791.372z M168.006-791.952l1.037-2.901h-0.479l-0.498,1.431
			c-0.125,0.359-0.214,0.657-0.27,0.894c-0.056-0.208-0.146-0.505-0.271-0.894l-0.456-1.431h-0.477l0.954,2.901H168.006z
			 M170.785-793.238v-0.332h-0.041c-0.235,0-0.354-0.111-0.354-0.332c0-0.099,0.014-0.235,0.042-0.415v-0.021
			c0.027-0.221,0.042-0.352,0.042-0.394c0-0.47-0.263-0.705-0.788-0.705h-0.145v0.373h0.145c0.235,0,0.354,0.125,0.354,0.374
			c0,0.083-0.007,0.173-0.021,0.27l-0.021,0.083c-0.028,0.208-0.042,0.332-0.042,0.374c0,0.276,0.097,0.465,0.29,0.562
			c-0.193,0.083-0.29,0.263-0.29,0.539c0,0.083,0.014,0.214,0.042,0.394c0.014,0.042,0.021,0.069,0.021,0.083
			c0.016,0.083,0.021,0.166,0.021,0.249c0,0.265-0.118,0.396-0.354,0.396h-0.145v0.374h0.166c0.511,0,0.768-0.242,0.768-0.728
			c0-0.083-0.014-0.221-0.042-0.415c-0.026-0.179-0.042-0.311-0.042-0.394c0-0.221,0.117-0.332,0.354-0.332L170.785-793.238
			L170.785-793.238z"/>
	</g>
	<rect x="174.845" y="-797.29" display="inline" fill="#AEADAE" width="7.373" height="7.373"/>
	<g display="inline">
		<path fill="#FFFFFF" d="M180.815-793.884v0.495h-2.099v2.1h-0.495v-2.1h-2.099v-0.495h2.099v-2.1h0.495v2.1H180.815z"/>
	</g>
	<rect x="183.93" y="-798.75" display="inline" fill="#EFEFEF" width="10.667" height="10.667"/>
	<g display="inline">
		<path fill="#8D8D8D" d="M187.347-793.612l2.956-3.04l0.465,0.453l-2.525,2.587l2.49,2.623l-0.487,0.439L187.347-793.612z"/>
	</g>
</g>
<g id="hello" display="none">
	
		<rect x="-209.168" y="251.847" display="inline" fill="#FFFFFF" stroke="#000000" stroke-width="1.9558" stroke-miterlimit="10" width="159.455" height="37.884"/>
	<g display="inline">
		<path d="M-179.793,266.882h5.716v1.15h-4.346v3.527h4.015v1.134h-4.015v4.803h-1.37V266.882L-179.793,266.882z"/>
		<path d="M-166.341,275.417c0,0.787,0.016,1.48,0.062,2.079h-1.228l-0.079-1.244h-0.032c-0.362,0.614-1.165,1.417-2.521,1.417
			c-1.195,0-2.629-0.662-2.629-3.338v-4.457h1.388v4.222c0,1.447,0.438,2.425,1.698,2.425c0.931,0,1.575-0.646,1.827-1.262
			c0.079-0.203,0.126-0.456,0.126-0.709v-4.677h1.388L-166.341,275.417L-166.341,275.417z"/>
		<path d="M-164.039,271.938c0-0.788-0.018-1.435-0.063-2.063h1.229l0.079,1.262h0.029c0.379-0.727,1.262-1.435,2.521-1.435
			c1.055,0,2.693,0.63,2.693,3.244v4.551h-1.388v-4.394c0-1.229-0.457-2.251-1.764-2.251c-0.913,0-1.622,0.646-1.858,1.417
			c-0.062,0.173-0.095,0.407-0.095,0.646v4.583h-1.386L-164.039,271.938L-164.039,271.938z"/>
		<path d="M-149.863,277.212c-0.362,0.189-1.165,0.441-2.188,0.441c-2.301,0-3.797-1.559-3.797-3.89
			c0-2.349,1.606-4.049,4.096-4.049c0.817,0,1.543,0.205,1.921,0.396l-0.315,1.071c-0.331-0.189-0.851-0.362-1.604-0.362
			c-1.748,0-2.692,1.292-2.692,2.882c0,1.764,1.134,2.852,2.646,2.852c0.785,0,1.307-0.205,1.699-0.38L-149.863,277.212z"/>
		<path d="M-146.363,267.686v2.188h1.984v1.057h-1.984v4.108c0,0.945,0.268,1.48,1.039,1.48c0.362,0,0.63-0.047,0.803-0.097
			l0.063,1.039c-0.27,0.11-0.693,0.189-1.229,0.189c-0.646,0-1.166-0.205-1.496-0.583c-0.394-0.409-0.535-1.086-0.535-1.984v-4.155
			h-1.182v-1.057h1.182v-1.827L-146.363,267.686z"/>
		<path d="M-141.275,267.733c0.018,0.473-0.331,0.851-0.882,0.851c-0.488,0-0.835-0.378-0.835-0.851
			c0-0.488,0.362-0.866,0.866-0.866C-141.606,266.867-141.275,267.245-141.275,267.733z M-142.818,277.496v-7.622h1.386v7.622
			H-142.818z"/>
		<path d="M-132.234,273.623c0,2.818-1.953,4.047-3.795,4.047c-2.062,0-3.653-1.512-3.653-3.921c0-2.551,1.669-4.047,3.779-4.047
			C-133.715,269.701-132.234,271.292-132.234,273.623z M-138.281,273.701c0,1.669,0.96,2.929,2.315,2.929
			c1.32,0,2.312-1.242,2.312-2.96c0-1.291-0.646-2.929-2.283-2.929C-137.572,270.741-138.281,272.252-138.281,273.701z"/>
		<path d="M-130.483,271.938c0-0.788-0.016-1.435-0.062-2.063h1.229l0.079,1.262h0.031c0.378-0.727,1.26-1.435,2.52-1.435
			c1.057,0,2.693,0.63,2.693,3.244v4.551h-1.386v-4.394c0-1.229-0.457-2.251-1.766-2.251c-0.913,0-1.622,0.646-1.856,1.417
			c-0.063,0.173-0.097,0.407-0.097,0.646v4.583h-1.386V271.938L-130.483,271.938z"/>
		<path d="M-119.959,277.496l-2.693-10.614h1.449l1.26,5.37c0.315,1.323,0.598,2.646,0.787,3.669h0.032
			c0.173-1.055,0.504-2.313,0.866-3.685l1.417-5.354h1.433l1.291,5.388c0.299,1.26,0.583,2.52,0.74,3.638h0.029
			c0.223-1.166,0.521-2.347,0.853-3.669l1.399-5.354h1.401l-3.007,10.614h-1.433l-1.34-5.525c-0.331-1.354-0.551-2.396-0.691-3.466
			h-0.032c-0.189,1.057-0.425,2.097-0.819,3.466l-1.512,5.525L-119.959,277.496L-119.959,277.496z"/>
		<path d="M-102.034,273.623c0,2.818-1.953,4.047-3.795,4.047c-2.063,0-3.653-1.512-3.653-3.921c0-2.551,1.669-4.047,3.779-4.047
			C-103.514,269.701-102.034,271.292-102.034,273.623z M-108.081,273.701c0,1.669,0.96,2.929,2.312,2.929
			c1.323,0,2.315-1.242,2.315-2.96c0-1.291-0.646-2.929-2.283-2.929S-108.081,272.252-108.081,273.701z"/>
		<path d="M-100.282,272.252c0-0.896-0.016-1.669-0.063-2.378h1.215l0.047,1.496h0.062c0.349-1.021,1.183-1.669,2.11-1.669
			c0.157,0,0.268,0.016,0.394,0.047v1.309c-0.142-0.032-0.284-0.049-0.472-0.049c-0.977,0-1.669,0.74-1.858,1.779
			c-0.029,0.189-0.062,0.41-0.062,0.646v4.062h-1.37L-100.282,272.252L-100.282,272.252z"/>
		<path d="M-93.698,273.371h0.031c0.188-0.268,0.457-0.599,0.677-0.866l2.236-2.63h1.669l-2.945,3.134l3.354,4.488h-1.687
			l-2.63-3.651l-0.708,0.786v2.866h-1.37v-11.18h1.37L-93.698,273.371L-93.698,273.371z"/>
		<path d="M-86.908,273.937c0.032,1.874,1.229,2.646,2.614,2.646c0.99,0,1.59-0.173,2.108-0.394l0.236,0.992
			c-0.488,0.221-1.323,0.473-2.535,0.473c-2.346,0-3.748-1.543-3.748-3.843c0-2.299,1.354-4.11,3.574-4.11
			c2.488,0,3.149,2.189,3.149,3.59c0,0.284-0.031,0.504-0.049,0.646H-86.908z M-82.845,272.945c0.018-0.882-0.36-2.252-1.921-2.252
			c-1.399,0-2.016,1.292-2.125,2.252H-82.845z"/>
		<path d="M-79.786,272.252c0-0.896-0.018-1.669-0.063-2.378h1.213l0.049,1.496h0.062c0.347-1.021,1.181-1.669,2.11-1.669
			c0.157,0,0.268,0.016,0.394,0.047v1.309c-0.142-0.032-0.284-0.049-0.472-0.049c-0.979,0-1.669,0.74-1.858,1.779
			c-0.029,0.189-0.062,0.41-0.062,0.646v4.062h-1.37L-79.786,272.252L-79.786,272.252z"/>
	</g>
	
		<rect x="-208.064" y="331.152" display="inline" fill="#FFFFFF" stroke="#000000" stroke-width="0.9923" stroke-miterlimit="10" width="158.336" height="39.876"/>
	<g display="inline">
		<path d="M-170.534,354.116c0.41,0.27,1.134,0.553,1.827,0.553c1.008,0,1.479-0.506,1.479-1.136c0-0.661-0.394-1.021-1.417-1.399
			c-1.37-0.488-2.016-1.244-2.016-2.157c0-1.229,0.992-2.236,2.63-2.236c0.771,0,1.449,0.223,1.874,0.475l-0.347,1.008
			c-0.301-0.189-0.852-0.441-1.561-0.441c-0.816,0-1.273,0.473-1.273,1.039c0,0.63,0.457,0.914,1.447,1.292
			c1.323,0.504,2,1.165,2,2.299c0,1.338-1.04,2.284-2.85,2.284c-0.835,0-1.606-0.205-2.142-0.52L-170.534,354.116z"/>
		<path d="M-163.602,347.912l1.669,4.504c0.175,0.506,0.362,1.104,0.488,1.561h0.031c0.142-0.457,0.299-1.039,0.488-1.59
			l1.512-4.474h1.464l-2.079,5.435c-0.992,2.614-1.669,3.953-2.614,4.771c-0.677,0.601-1.354,0.834-1.698,0.897l-0.349-1.165
			c0.349-0.11,0.803-0.331,1.212-0.677c0.378-0.301,0.853-0.834,1.166-1.543c0.063-0.144,0.11-0.253,0.11-0.331
			c0-0.079-0.032-0.189-0.095-0.362l-2.819-7.023L-163.602,347.912L-163.602,347.912z"/>
		<path d="M-156.969,354.116c0.41,0.27,1.136,0.553,1.827,0.553c1.01,0,1.48-0.506,1.48-1.136c0-0.661-0.396-1.021-1.417-1.399
			c-1.37-0.488-2.018-1.244-2.018-2.157c0-1.229,0.992-2.236,2.632-2.236c0.771,0,1.447,0.223,1.874,0.475l-0.349,1.008
			c-0.299-0.189-0.85-0.441-1.559-0.441c-0.818,0-1.275,0.473-1.275,1.039c0,0.63,0.457,0.914,1.449,1.292
			c1.323,0.504,2,1.165,2,2.299c0,1.338-1.04,2.284-2.85,2.284c-0.836,0-1.606-0.205-2.144-0.52L-156.969,354.116z"/>
		<path d="M-148.873,345.723v2.188h1.982v1.057h-1.982v4.108c0,0.945,0.268,1.48,1.039,1.48c0.36,0,0.63-0.047,0.803-0.095
			l0.063,1.038c-0.27,0.109-0.693,0.188-1.229,0.188c-0.646,0-1.166-0.205-1.496-0.583c-0.394-0.409-0.536-1.086-0.536-1.984v-4.155
			h-1.181v-1.057h1.181v-1.827L-148.873,345.723z"/>
		<path d="M-144.65,351.975c0.032,1.874,1.229,2.646,2.614,2.646c0.992,0,1.59-0.173,2.11-0.394l0.234,0.992
			c-0.488,0.221-1.323,0.473-2.535,0.473c-2.346,0-3.748-1.543-3.748-3.843c0-2.299,1.354-4.11,3.574-4.11
			c2.488,0,3.149,2.189,3.149,3.59c0,0.284-0.031,0.506-0.047,0.646H-144.65z M-140.587,350.983
			c0.016-0.882-0.362-2.252-1.921-2.252c-1.401,0-2.018,1.292-2.125,2.252H-140.587z"/>
		<path d="M-137.529,349.975c0-0.788-0.016-1.433-0.062-2.063h1.212l0.062,1.229h0.047c0.425-0.727,1.134-1.402,2.396-1.402
			c1.04,0,1.827,0.63,2.155,1.528h0.032c0.236-0.425,0.536-0.756,0.852-0.992c0.457-0.347,0.961-0.536,1.685-0.536
			c1.008,0,2.504,0.662,2.504,3.309v4.486h-1.354v-4.313c0-1.464-0.536-2.348-1.654-2.348c-0.787,0-1.401,0.584-1.638,1.262
			c-0.063,0.188-0.11,0.439-0.11,0.691v4.708h-1.354v-4.565c0-1.212-0.535-2.096-1.592-2.096c-0.864,0-1.496,0.693-1.716,1.388
			c-0.079,0.205-0.108,0.439-0.108,0.677v4.598h-1.354L-137.529,349.975L-137.529,349.975z"/>
		<path d="M-124.721,349.174c0-0.583,0.396-0.992,0.945-0.992s0.914,0.41,0.929,0.992c0,0.551-0.36,0.977-0.943,0.977
			C-124.343,350.148-124.721,349.723-124.721,349.174z M-124.721,354.73c0-0.583,0.396-0.992,0.945-0.992s0.914,0.41,0.929,0.992
			c0,0.551-0.36,0.977-0.943,0.977C-124.343,355.707-124.721,355.282-124.721,354.73z"/>
		<path d="M-121.129,350.4c0-0.977-0.031-1.764-0.063-2.488h1.244l0.063,1.309h0.03c0.566-0.931,1.464-1.48,2.708-1.48
			c1.845,0,3.229,1.561,3.229,3.874c0,2.74-1.669,4.094-3.464,4.094c-1.01,0-1.892-0.439-2.348-1.195h-0.03v4.141h-1.37V350.4
			L-121.129,350.4z M-119.759,352.432c0,0.205,0.03,0.394,0.062,0.565c0.252,0.961,1.086,1.622,2.079,1.622
			c1.464,0,2.314-1.194,2.314-2.942c0-1.527-0.804-2.834-2.269-2.834c-0.945,0-1.827,0.677-2.095,1.716
			c-0.047,0.173-0.095,0.378-0.095,0.567v1.306H-119.759z"/>
		<path d="M-112.165,350.29c0-0.896-0.018-1.669-0.063-2.378h1.212l0.047,1.496h0.063c0.347-1.021,1.181-1.669,2.11-1.669
			c0.155,0,0.268,0.018,0.394,0.047v1.309c-0.142-0.032-0.283-0.047-0.473-0.047c-0.978,0-1.669,0.738-1.858,1.777
			c-0.032,0.189-0.062,0.41-0.062,0.646v4.062h-1.37V350.29L-112.165,350.29z"/>
		<path d="M-105.407,345.771c0.016,0.473-0.331,0.851-0.882,0.851c-0.488,0-0.835-0.378-0.835-0.851c0-0.488,0.36-0.866,0.866-0.866
			C-105.738,344.904-105.407,345.282-105.407,345.771z M-106.951,355.534v-7.622h1.386v7.622H-106.951z"/>
		<path d="M-103.264,349.975c0-0.788-0.016-1.433-0.062-2.063h1.229l0.079,1.262h0.032c0.378-0.727,1.26-1.435,2.521-1.435
			c1.055,0,2.69,0.63,2.69,3.244v4.551h-1.386v-4.394c0-1.229-0.457-2.251-1.764-2.251c-0.913,0-1.622,0.646-1.858,1.417
			c-0.063,0.173-0.095,0.409-0.095,0.646v4.583h-1.388V349.975L-103.264,349.975z"/>
		<path d="M-94.852,354.717c0-0.583,0.396-0.992,0.945-0.992s0.929,0.41,0.929,0.992c0,0.565-0.36,0.99-0.943,0.99
			C-94.474,355.707-94.852,355.282-94.852,354.717z"/>
		<path d="M-91.59,354.717c0-0.583,0.394-0.992,0.943-0.992s0.931,0.41,0.931,0.992c0,0.565-0.362,0.99-0.945,0.99
			C-91.212,355.707-91.59,355.282-91.59,354.717z"/>
		<path d="M-88.33,354.717c0-0.583,0.394-0.992,0.945-0.992c0.551,0,0.929,0.41,0.929,0.992c0,0.565-0.362,0.99-0.945,0.99
			C-87.952,355.707-88.33,355.282-88.33,354.717z"/>
	</g>
	
		<rect x="-207.899" y="430.981" display="inline" fill="#FFFFFF" stroke="#000000" stroke-width="0.9715" stroke-miterlimit="10" width="159.912" height="38.043"/>
	<g display="inline">
		<path d="M-179.921,445.848h5.716v1.148h-4.346v3.527h4.015v1.134h-4.015v4.805h-1.37V445.848L-179.921,445.848z"/>
		<path d="M-166.469,454.385c0,0.787,0.018,1.479,0.062,2.079h-1.228l-0.079-1.244h-0.032c-0.362,0.612-1.165,1.417-2.521,1.417
			c-1.195,0-2.629-0.662-2.629-3.338v-4.457h1.388v4.22c0,1.449,0.438,2.425,1.698,2.425c0.931,0,1.575-0.646,1.827-1.26
			c0.079-0.205,0.126-0.457,0.126-0.709v-4.677h1.386L-166.469,454.385L-166.469,454.385z"/>
		<path d="M-164.167,450.903c0-0.788-0.018-1.433-0.063-2.062h1.229l0.079,1.26h0.029c0.378-0.725,1.262-1.433,2.521-1.433
			c1.055,0,2.691,0.63,2.691,3.242v4.553h-1.386v-4.396c0-1.228-0.457-2.251-1.764-2.251c-0.913,0-1.622,0.646-1.858,1.417
			c-0.062,0.173-0.095,0.409-0.095,0.646v4.583h-1.386L-164.167,450.903L-164.167,450.903z"/>
		<path d="M-149.991,456.178c-0.362,0.188-1.165,0.439-2.188,0.439c-2.299,0-3.795-1.559-3.795-3.89
			c0-2.347,1.606-4.047,4.096-4.047c0.817,0,1.543,0.205,1.921,0.394l-0.315,1.071c-0.331-0.188-0.851-0.362-1.604-0.362
			c-1.748,0-2.692,1.292-2.692,2.884c0,1.764,1.134,2.85,2.646,2.85c0.785,0,1.307-0.205,1.699-0.378L-149.991,456.178z"/>
		<path d="M-146.491,446.651v2.189h1.984v1.055h-1.984v4.11c0,0.943,0.268,1.479,1.039,1.479c0.362,0,0.63-0.047,0.803-0.095
			l0.063,1.039c-0.27,0.108-0.693,0.188-1.229,0.188c-0.646,0-1.166-0.205-1.496-0.583c-0.394-0.408-0.536-1.086-0.536-1.982v-4.157
			h-1.181v-1.055h1.181v-1.827L-146.491,446.651z"/>
		<path d="M-141.403,446.698c0.016,0.475-0.331,0.853-0.882,0.853c-0.488,0-0.835-0.378-0.835-0.853
			c0-0.486,0.362-0.866,0.866-0.866C-141.734,445.832-141.403,446.212-141.403,446.698z M-142.946,456.463v-7.622h1.386v7.622
			H-142.946z"/>
		<path d="M-132.362,452.59c0,2.816-1.953,4.047-3.795,4.047c-2.062,0-3.653-1.514-3.653-3.921c0-2.553,1.669-4.047,3.779-4.047
			C-133.843,448.669-132.362,450.259-132.362,452.59z M-138.409,452.669c0,1.669,0.96,2.929,2.313,2.929
			c1.322,0,2.314-1.244,2.314-2.96c0-1.291-0.646-2.931-2.283-2.931C-137.7,449.707-138.409,451.219-138.409,452.669z"/>
		<path d="M-130.611,450.903c0-0.788-0.016-1.433-0.062-2.062h1.229l0.079,1.26h0.031c0.378-0.725,1.26-1.433,2.52-1.433
			c1.057,0,2.693,0.63,2.693,3.242v4.553h-1.386v-4.396c0-1.228-0.457-2.251-1.766-2.251c-0.913,0-1.622,0.646-1.856,1.417
			c-0.063,0.173-0.097,0.409-0.097,0.646v4.583h-1.386V450.903L-130.611,450.903z"/>
		<path d="M-120.087,456.463l-2.693-10.614h1.449l1.26,5.37c0.315,1.321,0.598,2.646,0.787,3.669h0.032
			c0.173-1.057,0.504-2.315,0.864-3.687l1.417-5.354h1.435l1.291,5.386c0.299,1.26,0.583,2.521,0.74,3.638h0.029
			c0.223-1.166,0.521-2.347,0.853-3.669l1.399-5.354h1.401l-3.007,10.614h-1.435l-1.338-5.527c-0.331-1.354-0.551-2.396-0.691-3.464
			h-0.032c-0.189,1.055-0.425,2.095-0.819,3.464l-1.512,5.527H-120.087L-120.087,456.463z"/>
		<path d="M-102.162,452.59c0,2.816-1.953,4.047-3.795,4.047c-2.063,0-3.653-1.514-3.653-3.921c0-2.553,1.669-4.047,3.779-4.047
			C-103.642,448.669-102.162,450.259-102.162,452.59z M-108.208,452.669c0,1.669,0.96,2.929,2.312,2.929
			c1.323,0,2.315-1.244,2.315-2.96c0-1.291-0.646-2.931-2.283-2.931S-108.208,451.219-108.208,452.669z"/>
		<path d="M-100.41,451.219c0-0.897-0.016-1.669-0.063-2.378h1.213l0.049,1.496h0.062c0.347-1.023,1.181-1.669,2.11-1.669
			c0.157,0,0.268,0.016,0.394,0.047v1.307c-0.142-0.032-0.284-0.047-0.472-0.047c-0.979,0-1.669,0.74-1.858,1.779
			c-0.029,0.188-0.062,0.408-0.062,0.646v4.063h-1.37L-100.41,451.219L-100.41,451.219z"/>
		<path d="M-93.826,452.338h0.031c0.188-0.27,0.457-0.601,0.677-0.866l2.236-2.63h1.669l-2.945,3.134l3.354,4.488h-1.685
			l-2.63-3.653l-0.708,0.788v2.866h-1.37v-11.182h1.37L-93.826,452.338L-93.826,452.338z"/>
		<path d="M-87.036,452.902c0.032,1.874,1.229,2.646,2.614,2.646c0.99,0,1.59-0.175,2.108-0.396l0.236,0.992
			c-0.488,0.221-1.323,0.473-2.535,0.473c-2.346,0-3.748-1.543-3.748-3.843c0-2.299,1.354-4.109,3.574-4.109
			c2.488,0,3.147,2.188,3.147,3.591c0,0.282-0.029,0.504-0.047,0.646H-87.036L-87.036,452.902z M-82.973,451.911
			c0.018-0.882-0.36-2.252-1.921-2.252c-1.399,0-2.016,1.292-2.125,2.252H-82.973z"/>
		<path d="M-79.914,451.219c0-0.897-0.018-1.669-0.063-2.378h1.213l0.049,1.496h0.062c0.347-1.023,1.181-1.669,2.11-1.669
			c0.155,0,0.268,0.016,0.394,0.047v1.307c-0.142-0.032-0.284-0.047-0.472-0.047c-0.979,0-1.669,0.74-1.858,1.779
			c-0.031,0.188-0.062,0.408-0.062,0.646v4.063h-1.37L-79.914,451.219L-79.914,451.219z"/>
	</g>
	
		<line display="inline" fill="none" stroke="#000000" stroke-width="2" stroke-miterlimit="10" x1="-129.445" y1="289.731" x2="-129.445" y2="331.152"/>
	
		<line display="inline" fill="none" stroke="#000000" stroke-width="2" stroke-miterlimit="10" x1="-128.837" y1="371.029" x2="-128.837" y2="430.981"/>
</g>
<g>
	<g id="Layer_1_4_">
		
			<rect x="19.981" y="778.846" fill="none" stroke="#000000" stroke-width="0.4524" stroke-miterlimit="10" width="321.529" height="501.867"/>
		
			<rect x="9.86" y="690.415" fill="#FFFFFF" stroke="#000000" stroke-width="0.536" stroke-miterlimit="10" width="482.054" height="20.987"/>
		<g>
			<path fill="#939598" d="M441.812,703.295l-0.015-2.915h0.721v3.648h-7.536v-7.536c0.628,0,1.879,0,3.754,0v0.723
				c-0.167,0-0.386,0-0.655,0c-0.271,0-0.68-0.002-1.229-0.008s-0.938-0.008-1.163-0.008l0.016,6.096H441.812L441.812,703.295z
				 M441.368,697.803l-0.94-0.869l0.412-0.441l1.678,1.562l-1.428,1.575l-0.429-0.412l0.679-0.812
				c-1.854,0.188-3.176,0.895-3.959,2.12c-0.196,0.294-0.354,0.611-0.466,0.949c-0.111,0.338-0.174,0.601-0.184,0.788l-0.029,0.28
				h-0.589c0-0.061,0.005-0.142,0.017-0.243c0.01-0.104,0.051-0.309,0.125-0.611c0.071-0.304,0.174-0.596,0.302-0.875
				c0.127-0.28,0.323-0.594,0.589-0.941c0.265-0.349,0.574-0.656,0.927-0.928c0.354-0.27,0.817-0.513,1.394-0.729
				C440.038,698.002,440.673,697.861,441.368,697.803z"/>
		</g>
		<g>
			<g>
				<path fill="#939598" d="M455.811,703.295l-0.015-2.915l0.721-0.017v3.665h-7.536v-7.536c0.628,0,1.879,0,3.754,0v0.707
					c-0.167,0-0.386,0-0.655,0c-0.271,0-0.68,0-1.229,0s-0.938,0-1.163,0l0.016,6.096H455.811L455.811,703.295z M456.517,696.493
					v0.591c-0.078,0-0.182,0.007-0.311,0.021c-0.128,0.016-0.369,0.079-0.729,0.191c-0.359,0.111-0.689,0.268-0.994,0.463
					c-1.227,0.784-1.928,2.104-2.104,3.959l0.81-0.678l0.412,0.428l-1.59,1.428l-1.546-1.678l0.427-0.413l0.884,0.941
					c0.061-0.696,0.193-1.332,0.404-1.905c0.211-0.574,0.457-1.038,0.735-1.393c0.278-0.353,0.585-0.661,0.911-0.927
					c0.329-0.265,0.65-0.461,0.967-0.589c0.312-0.127,0.599-0.229,0.854-0.302c0.255-0.074,0.461-0.115,0.618-0.125L456.517,696.493
					z"/>
			</g>
		</g>
		<g>
			<g>
				<path fill="#939598" d="M465.198,696.493h2.855v0.913h1.87v0.973h-6.609v-0.973h1.884V696.493z M463.783,699.13h5.684v4.899
					h-5.684V699.13z M465.066,699.747v3.592h0.868v-3.592H465.066z M467.318,699.747v3.592h0.868v-3.592H467.318z"/>
			</g>
		</g>
		<g>
			<g>
				<path fill="#939598" d="M480.902,702.3l-3.754-3.65l0.56-0.574l3.194,3.106l3.238-3.062l0.544,0.604L480.902,702.3z"/>
			</g>
		</g>
		
			<line fill="none" stroke="#000000" stroke-width="0.25" stroke-miterlimit="10" x1="431.315" y1="696.324" x2="431.315" y2="704.491"/>
		
			<line fill="none" stroke="#000000" stroke-width="0.25" stroke-miterlimit="10" x1="445.648" y1="696.742" x2="445.648" y2="704.908"/>
		
			<line fill="none" stroke="#000000" stroke-width="0.25" stroke-miterlimit="10" x1="459.815" y1="696.324" x2="459.815" y2="704.491"/>
		
			<line fill="none" stroke="#000000" stroke-width="0.25" stroke-miterlimit="10" x1="473.481" y1="696.324" x2="473.481" y2="704.491"/>
		<rect x="9.819" y="690.415" width="18.083" height="20.898"/>
		<g>
			<path d="M35.321,730.836c1.037-1.037,2.287-1.557,3.752-1.557c1.467,0,2.718,0.52,3.755,1.557
				c1.035,1.036,1.555,2.287,1.555,3.752s-0.521,2.716-1.555,3.753c-1.036,1.037-2.288,1.555-3.755,1.555
				c-1.465,0-2.716-0.519-3.752-1.555c-1.034-1.036-1.555-2.288-1.555-3.753S34.285,731.872,35.321,730.836z M37.353,736.62v-0.374
				h-0.145c-0.235,0-0.354-0.132-0.354-0.395c0-0.055,0.016-0.166,0.042-0.332c0.027-0.125,0.042-0.255,0.042-0.395
				c0-0.275-0.097-0.455-0.291-0.538c0.193-0.098,0.291-0.283,0.291-0.562c0-0.125-0.014-0.249-0.042-0.374
				c-0.026-0.124-0.042-0.242-0.042-0.352c0-0.249,0.117-0.374,0.354-0.374h0.145v-0.373h-0.166c-0.511,0-0.767,0.234-0.767,0.705
				c0,0.042,0.014,0.173,0.042,0.394v0.021c0.025,0.18,0.042,0.316,0.042,0.415c0,0.221-0.118,0.332-0.354,0.332h-0.042v0.331h0.042
				c0.235,0,0.354,0.11,0.354,0.332c0,0.083-0.014,0.216-0.042,0.395c-0.028,0.249-0.042,0.387-0.042,0.415
				c0,0.483,0.256,0.727,0.767,0.727L37.353,736.62L37.353,736.62z M39.26,736.039l1.037-2.902H39.82l-0.498,1.431
				c-0.125,0.359-0.214,0.657-0.27,0.894c-0.056-0.208-0.145-0.505-0.27-0.894l-0.456-1.431h-0.479l0.954,2.902H39.26z
				 M42.039,734.755v-0.332h-0.041c-0.235,0-0.354-0.111-0.354-0.332c0-0.099,0.016-0.235,0.042-0.415v-0.021
				c0.027-0.221,0.042-0.352,0.042-0.394c0-0.47-0.263-0.705-0.788-0.705h-0.145v0.373h0.145c0.235,0,0.354,0.125,0.354,0.374
				c0,0.083-0.007,0.173-0.021,0.27l-0.021,0.083c-0.028,0.208-0.042,0.332-0.042,0.374c0,0.276,0.097,0.463,0.29,0.562
				c-0.193,0.083-0.29,0.263-0.29,0.539c0,0.083,0.014,0.214,0.042,0.394c0.014,0.042,0.021,0.069,0.021,0.083
				c0.016,0.083,0.021,0.166,0.021,0.249c0,0.264-0.118,0.396-0.354,0.396h-0.145v0.374h0.166c0.511,0,0.768-0.242,0.768-0.728
				c0-0.083-0.014-0.221-0.042-0.415c-0.026-0.179-0.042-0.311-0.042-0.394c0-0.222,0.117-0.332,0.354-0.332L42.039,734.755
				L42.039,734.755z"/>
		</g>
		<rect x="46.099" y="730.701" fill="#AEADAE" width="7.373" height="7.373"/>
		<g>
			<path fill="#FFFFFF" d="M52.069,734.107v0.495H49.97v2.1h-0.495v-2.1h-2.099v-0.495h2.099v-2.1h0.495v2.1H52.069z"/>
		</g>
		
			<rect x="9.874" y="711.39" fill="none" stroke="#000000" stroke-width="0.473" stroke-miterlimit="10" width="482.026" height="628.323"/>
		<g>
			<path fill="#FFFFFF" d="M11.819,702.221h2.866c0.493,2.043,2.333,3.567,4.529,3.567h1.091v-1.695h3.104v-2.188h-3.104v-1.562
				h3.104v-2.188h-3.104v-1.695h-1.091c-2.196,0-4.036,1.524-4.529,3.57h-2.866"/>
		</g>
	</g>
	<g id="Layer_5_3_">
		
			<rect x="19.997" y="779.017" fill="#FFFFFF" stroke="#000000" stroke-width="0.5236" stroke-miterlimit="10" width="321.505" height="20.988"/>
		<g>
			<path fill="#939598" d="M291.496,791.898l-0.016-2.915h0.722v3.649h-7.536v-7.536c0.628,0,1.879,0,3.754,0v0.722
				c-0.167,0-0.386,0-0.655,0c-0.271,0-0.68-0.002-1.229-0.008c-0.55-0.005-0.938-0.007-1.163-0.007l0.016,6.095H291.496
				L291.496,791.898z M291.055,786.407l-0.941-0.869l0.412-0.44l1.679,1.561l-1.429,1.575l-0.428-0.412l0.678-0.811
				c-1.854,0.188-3.174,0.894-3.959,2.12c-0.195,0.294-0.353,0.61-0.464,0.948c-0.113,0.339-0.175,0.602-0.185,0.788l-0.029,0.28
				H285.8c0-0.06,0.005-0.141,0.016-0.243c0.011-0.104,0.052-0.308,0.125-0.61c0.072-0.305,0.174-0.597,0.303-0.875
				c0.127-0.28,0.322-0.595,0.589-0.942c0.265-0.348,0.573-0.656,0.927-0.927s0.817-0.514,1.393-0.729
				C289.726,786.603,290.359,786.467,291.055,786.407z"/>
		</g>
		<g>
			<g>
				<path fill="#939598" d="M305.495,791.898l-0.016-2.915l0.722-0.016v3.665h-7.536v-7.536c0.628,0,1.879,0,3.754,0v0.707
					c-0.167,0-0.386,0-0.655,0c-0.271,0-0.68,0-1.229,0c-0.55,0-0.938,0-1.163,0l0.016,6.095H305.495L305.495,791.898z
					 M306.202,785.096v0.589c-0.078,0-0.183,0.008-0.31,0.021c-0.129,0.016-0.371,0.079-0.729,0.191
					c-0.358,0.112-0.688,0.268-0.994,0.463c-1.228,0.785-1.928,2.104-2.104,3.959l0.811-0.678l0.412,0.428l-1.591,1.428
					l-1.546-1.678l0.428-0.413l0.884,0.941c0.06-0.696,0.192-1.332,0.404-1.905c0.211-0.574,0.457-1.038,0.735-1.392
					s0.584-0.662,0.911-0.928c0.329-0.265,0.65-0.461,0.966-0.589c0.312-0.127,0.6-0.229,0.854-0.302
					c0.255-0.074,0.461-0.115,0.618-0.125L306.202,785.096z"/>
			</g>
		</g>
		<g>
			<g>
				<path fill="#939598" d="M314.883,785.096h2.854v0.913h1.87v0.972h-6.608v-0.972h1.884V785.096z M313.47,787.732h5.683v4.9
					h-5.683V787.732z M314.751,788.349v3.592h0.868v-3.592H314.751z M317.003,788.349v3.592h0.868v-3.592H317.003z"/>
			</g>
		</g>
		<g>
			<g>
				<path fill="#939598" d="M330.587,790.903l-3.754-3.649l0.561-0.574l3.193,3.105l3.238-3.062l0.544,0.604L330.587,790.903z"/>
			</g>
		</g>
		
			<line fill="none" stroke="#000000" stroke-width="0.25" stroke-miterlimit="10" x1="295.343" y1="784.805" x2="295.343" y2="792.971"/>
		
			<line fill="none" stroke="#000000" stroke-width="0.25" stroke-miterlimit="10" x1="309.51" y1="784.387" x2="309.51" y2="792.554"/>
		
			<line fill="none" stroke="#000000" stroke-width="0.25" stroke-miterlimit="10" x1="323.166" y1="784.928" x2="323.166" y2="793.094"/>
		<rect x="19.969" y="779.017" width="18.083" height="20.898"/>
		<circle fill="none" stroke="#FFFFFF" stroke-width="0.75" stroke-miterlimit="10" cx="28.587" cy="790.274" r="5.178"/>
		<circle fill="none" stroke="#FFFFFF" stroke-width="0.75" stroke-miterlimit="10" cx="28.587" cy="790.274" r="2.019"/>
	</g>
	<g id="Layer_6_3_">
		
			<rect x="78.767" y="845.859" fill="#FFFFFF" stroke="#000000" stroke-width="0.7891" stroke-miterlimit="10" width="125.075" height="30.514"/>
		<g>
			<text transform="matrix(1 0 0 1 100.9871 865.8494)" font-family="'MyriadPro-Regular'" font-size="14.2044">ActionWorker</text>
		</g>
		
			<rect x="352.073" y="732.009" fill="#FFFFFF" stroke="#000000" stroke-width="0.7891" stroke-miterlimit="10" width="125.074" height="30.514"/>
		<g>
			<text transform="matrix(1 0 0 1 384.4124 752.9978)" font-family="'MyriadPro-Regular'" font-size="14.2044">tweeterEP</text>
		</g>
		
			<rect x="352.073" y="1289.116" fill="#FFFFFF" stroke="#000000" stroke-width="0.7891" stroke-miterlimit="10" width="125.074" height="30.515"/>
		<g>
			<text transform="matrix(1 0 0 1 384.4124 1310.1062)" font-family="'MyriadPro-Regular'" font-size="14.2044">tweeterEP</text>
		</g>
		
			<line fill="none" stroke="#000000" stroke-width="0.5302" stroke-miterlimit="10" x1="142.75" y1="876.373" x2="142.75" y2="1208.945"/>
		
			<line fill="none" stroke="#000000" stroke-width="0.5302" stroke-miterlimit="10" x1="414.611" y1="762.521" x2="414.611" y2="1289.116"/>
		
			<rect x="78.769" y="898.427" fill="#FFFFFF" stroke="#000000" stroke-width="0.5" stroke-miterlimit="10" width="126.383" height="30.461"/>
		
			<rect x="9.874" y="1050.957" fill="#FFFFFF" stroke="#000000" stroke-width="0.5" stroke-miterlimit="10" width="264.441" height="30.462"/>
		
			<rect x="79.208" y="1208.945" fill="#FFFFFF" stroke="#000000" stroke-width="0.7891" stroke-miterlimit="10" width="124.635" height="30.516"/>
		<g>
			<text transform="matrix(1 0 0 1 102.5862 1228.9343)" font-family="'MyriadPro-Regular'" font-size="14.2044">ActionWorker</text>
		</g>
		<g>
			<g>
				
					<line fill="none" stroke="#000000" stroke-width="1.1529" stroke-miterlimit="10" x1="406.336" y1="1110.338" x2="276.219" y2="1110.338"/>
				<g>
					<polygon points="404.655,1104.588 414.61,1110.338 404.655,1116.086 					"/>
				</g>
			</g>
		</g>
		
			<rect x="79.208" y="948.595" fill="#FFFFFF" stroke="#000000" stroke-width="0.5" stroke-miterlimit="10" width="125.087" height="30.461"/>
		<text transform="matrix(1 0 0 1 108.1091 968.4607)" font-family="'MyriadPro-Light'" font-size="14">string oaut...</text>
		
			<rect x="79.208" y="999.319" fill="#FFFFFF" stroke="#000000" stroke-width="0.5" stroke-miterlimit="10" width="125.087" height="30.461"/>
		<text transform="matrix(1 0 0 1 106.885 1019.1843)" font-family="'MyriadPro-Light'" font-size="14">string twee...</text>
		<text transform="matrix(1 0 0 1 102.7693 918.7546)" font-family="'MyriadPro-Light'" font-size="14">message req...</text>
		
			<rect x="79.208" y="1156.082" fill="#FFFFFF" stroke="#000000" stroke-width="0.5" stroke-miterlimit="10" width="125.087" height="30.461"/>
		<text transform="matrix(1 0 0 1 97.8337 1175.9451)" font-family="'MyriadPro-Light'" font-size="14">return response</text>
		<text transform="matrix(1 0 0 1 13.3801 1071.7439)" font-family="'MyriadPro-Light'" font-size="14">messages:setHeader(request, “Authorization”...</text>
		
			<rect x="9.874" y="1102.939" fill="#FFFFFF" stroke="#000000" stroke-width="0.5" stroke-miterlimit="10" width="264.441" height="30.462"/>
		<text transform="matrix(1 0 0 1 13.3801 1123.7273)" font-family="'MyriadPro-Light'" font-size="14">message response = http:ClientConnector.p...</text>
		<g>
			<g>
				
					<line fill="none" stroke="#000000" stroke-width="1.153" stroke-miterlimit="10" stroke-dasharray="4.8031,4.8031" x1="290.287" y1="1126.006" x2="408.198" y2="1126.006"/>
				
					<line fill="none" stroke="#000000" stroke-width="1.153" stroke-miterlimit="10" x1="410.6" y1="1126.006" x2="413.1" y2="1126.006"/>
				<g>
					<polygon points="284.666,1131.756 274.711,1126.006 284.666,1120.258 					"/>
				</g>
			</g>
		</g>
		
			<rect x="10.242" y="1370.668" fill="#FFFFFF" stroke="#000000" stroke-width="0.536" stroke-miterlimit="10" width="482.053" height="20.986"/>
		<g>
			<path fill="#939598" d="M442.193,1383.548l-0.016-2.915h0.721v3.648h-7.535v-7.535c0.627,0,1.879,0,3.754,0v0.722
				c-0.168,0-0.387,0-0.654,0c-0.271,0-0.682-0.002-1.229-0.007c-0.551-0.006-0.938-0.008-1.164-0.008l0.018,6.095H442.193z
				 M441.752,1378.055l-0.943-0.869l0.412-0.44l1.678,1.561l-1.428,1.575l-0.426-0.412l0.676-0.811
				c-1.854,0.188-3.174,0.894-3.959,2.119c-0.195,0.295-0.354,0.611-0.463,0.949c-0.113,0.338-0.176,0.603-0.186,0.788l-0.027,0.28
				h-0.592c0-0.061,0.008-0.141,0.018-0.243c0.01-0.104,0.051-0.308,0.125-0.611c0.071-0.304,0.174-0.596,0.301-0.875
				s0.324-0.594,0.59-0.941c0.264-0.349,0.574-0.656,0.926-0.927c0.354-0.271,0.818-0.514,1.395-0.729
				S441.055,1378.115,441.752,1378.055z"/>
		</g>
		<g>
			<g>
				<path fill="#939598" d="M456.191,1383.548l-0.014-2.915l0.721-0.016v3.664h-7.537v-7.535c0.629,0,1.879,0,3.754,0v0.707
					c-0.166,0-0.385,0-0.652,0c-0.271,0-0.682,0-1.23,0s-0.936,0-1.162,0l0.018,6.094L456.191,1383.548L456.191,1383.548z
					 M456.898,1376.746v0.59c-0.078,0-0.182,0.007-0.309,0.021c-0.129,0.016-0.371,0.079-0.729,0.191
					c-0.357,0.112-0.688,0.268-0.994,0.463c-1.227,0.785-1.928,2.104-2.104,3.959l0.811-0.677l0.412,0.427l-1.59,1.428l-1.547-1.678
					l0.428-0.413l0.883,0.941c0.061-0.696,0.193-1.332,0.404-1.905c0.211-0.574,0.457-1.038,0.736-1.392
					c0.277-0.354,0.584-0.662,0.912-0.928c0.328-0.265,0.648-0.461,0.965-0.589c0.312-0.127,0.6-0.228,0.854-0.302
					c0.256-0.074,0.461-0.115,0.619-0.125L456.898,1376.746z"/>
			</g>
		</g>
		<g>
			<g>
				<path fill="#939598" d="M465.578,1376.746h2.855v0.913h1.869v0.972h-6.609v-0.972h1.885V1376.746z M464.164,1379.382h5.684v4.9
					h-5.684V1379.382z M465.447,1380v3.591h0.869V1380H465.447z M467.698,1380v3.591h0.869V1380H467.698z"/>
			</g>
		</g>
		<g>
			<g>
				<path fill="#939598" d="M481.281,1382.552l-3.754-3.65l0.562-0.573l3.191,3.105l3.238-3.062l0.545,0.604L481.281,1382.552z"/>
			</g>
		</g>
		
			<line fill="none" stroke="#000000" stroke-width="0.25" stroke-miterlimit="10" x1="431.697" y1="1376.578" x2="431.697" y2="1384.744"/>
		
			<line fill="none" stroke="#000000" stroke-width="0.25" stroke-miterlimit="10" x1="446.029" y1="1376.995" x2="446.029" y2="1385.162"/>
		
			<line fill="none" stroke="#000000" stroke-width="0.25" stroke-miterlimit="10" x1="460.197" y1="1376.578" x2="460.197" y2="1384.744"/>
		
			<line fill="none" stroke="#000000" stroke-width="0.25" stroke-miterlimit="10" x1="473.863" y1="1376.578" x2="473.863" y2="1384.744"/>
		<rect x="10.201" y="1370.668" width="18.083" height="20.897"/>
		<g>
			<path fill="#FFFFFF" d="M22.24,1378.068l-0.113,0.407h-0.905l-0.679,2.716c-0.317,1.192-0.626,2.12-0.928,2.784
				c-0.438,0.92-0.905,1.554-1.403,1.899c-0.377,0.271-0.755,0.407-1.132,0.407c-0.259,0-0.47-0.075-0.636-0.227
				c-0.136-0.105-0.202-0.242-0.202-0.407c0-0.136,0.053-0.249,0.156-0.34c0.105-0.091,0.234-0.136,0.387-0.136
				c0.119,0,0.219,0.034,0.294,0.102c0.073,0.068,0.111,0.147,0.111,0.238c0,0.09-0.045,0.173-0.136,0.248
				c-0.061,0.061-0.091,0.104-0.091,0.137c0,0.029,0.015,0.062,0.045,0.09c0.03,0.03,0.083,0.047,0.158,0.047
				c0.181,0,0.37-0.058,0.564-0.171c0.196-0.111,0.37-0.277,0.521-0.497c0.149-0.22,0.294-0.538,0.43-0.963
				c0.062-0.181,0.219-0.754,0.477-1.72l1.086-4.21H19.16l0.091-0.407c0.347,0,0.588-0.024,0.724-0.079
				c0.136-0.053,0.26-0.146,0.374-0.281c0.114-0.138,0.26-0.387,0.441-0.747c0.239-0.498,0.475-0.883,0.701-1.154
				c0.302-0.377,0.621-0.656,0.962-0.837c0.34-0.183,0.658-0.271,0.962-0.271c0.315,0,0.567,0.079,0.758,0.237
				c0.188,0.158,0.283,0.336,0.283,0.532c0,0.136-0.049,0.252-0.147,0.351c-0.098,0.1-0.215,0.146-0.351,0.146
				c-0.138,0-0.246-0.037-0.328-0.112c-0.083-0.076-0.125-0.159-0.125-0.249c0-0.076,0.03-0.162,0.09-0.261s0.091-0.162,0.091-0.192
				c0-0.06-0.021-0.104-0.066-0.136c-0.062-0.03-0.138-0.045-0.228-0.045c-0.271,0-0.506,0.083-0.702,0.249
				c-0.287,0.211-0.536,0.551-0.747,1.019c-0.121,0.241-0.333,0.854-0.634,1.833H22.24L22.24,1378.068z"/>
		</g>
		<text transform="matrix(1 0 0 1 34.6042 1386.283)" font-family="'MyriadPro-Regular'" font-size="14">main</text>
		
			<rect x="10.255" y="1391.672" fill="none" stroke="#000000" stroke-width="0.4949" stroke-miterlimit="10" width="482.026" height="440.898"/>
		
			<rect x="165.763" y="1499.087" fill="#FFFFFF" stroke="#000000" stroke-width="0.7891" stroke-miterlimit="10" width="125.075" height="30.514"/>
		<g>
			<text transform="matrix(1 0 0 1 180.8826 1519.0808)" font-family="'MyriadPro-Regular'" font-size="14.2044">FunctionWorker</text>
		</g>
		
			<rect x="91.098" y="1551.652" fill="#FFFFFF" stroke="#000000" stroke-width="0.5" stroke-miterlimit="10" width="275.718" height="30.461"/>
		
			<line fill="none" stroke="#000000" stroke-width="0.5" stroke-miterlimit="10" x1="229.245" y1="1529.599" x2="229.245" y2="1551.656"/>
		
			<rect x="165.763" y="1705.558" fill="#FFFFFF" stroke="#000000" stroke-width="0.7891" stroke-miterlimit="10" width="125.075" height="30.515"/>
		<g>
			<text transform="matrix(1 0 0 1 180.8826 1725.5437)" font-family="'MyriadPro-Regular'" font-size="14.2044">FunctionWorker</text>
		</g>
		
			<rect x="164.906" y="1602.822" fill="#FFFFFF" stroke="#000000" stroke-width="0.5" stroke-miterlimit="10" width="126.385" height="30.462"/>
		<text transform="matrix(1 0 0 1 33.8948 706.0652)" font-family="'MyriadPro-Regular'" font-size="14">Twitter</text>
		<text transform="matrix(1 0 0 1 41.8425 794.6296)" font-family="'MyriadPro-Regular'" font-size="14">tweet</text>
		<g id="Layer_1_1_">
			
				<rect x="19.981" y="97.778" fill="none" stroke="#000000" stroke-width="0.4524" stroke-miterlimit="10" width="321.529" height="501.867"/>
			
				<rect x="9.86" y="9.346" fill="#FFFFFF" stroke="#000000" stroke-width="0.536" stroke-miterlimit="10" width="482.054" height="20.986"/>
			<g>
				<path fill="#939598" d="M441.812,22.225l-0.015-2.915h0.721v3.648h-7.536v-7.536c0.628,0,1.879,0,3.754,0v0.723
					c-0.167,0-0.386,0-0.655,0c-0.271,0-0.68-0.002-1.229-0.007c-0.549-0.007-0.938-0.009-1.163-0.009l0.016,6.096H441.812z
					 M441.368,16.735l-0.94-0.869l0.412-0.441l1.678,1.562l-1.428,1.575l-0.429-0.412l0.679-0.812
					c-1.854,0.188-3.176,0.895-3.959,2.12c-0.196,0.294-0.354,0.611-0.466,0.949c-0.111,0.338-0.174,0.601-0.184,0.788l-0.029,0.28
					h-0.589c0-0.061,0.005-0.142,0.017-0.243c0.01-0.104,0.051-0.309,0.125-0.611c0.071-0.304,0.174-0.596,0.302-0.875
					c0.127-0.28,0.323-0.594,0.589-0.94c0.265-0.35,0.574-0.657,0.927-0.929c0.354-0.27,0.817-0.513,1.394-0.729
					C440.038,16.932,440.673,16.793,441.368,16.735z"/>
			</g>
			<g>
				<g>
					<path fill="#939598" d="M455.811,22.225l-0.015-2.915l0.721-0.017v3.665h-7.536v-7.536c0.628,0,1.879,0,3.754,0v0.707
						c-0.167,0-0.386,0-0.655,0c-0.271,0-0.68,0-1.229,0s-0.938,0-1.163,0l0.016,6.096H455.811z M456.517,15.425v0.591
						c-0.078,0-0.182,0.007-0.311,0.021c-0.128,0.017-0.369,0.079-0.729,0.191c-0.359,0.111-0.689,0.268-0.994,0.463
						c-1.227,0.785-1.928,2.104-2.104,3.959l0.81-0.677l0.412,0.427l-1.59,1.428l-1.546-1.678l0.427-0.413l0.884,0.942
						c0.061-0.697,0.193-1.332,0.404-1.906s0.457-1.038,0.735-1.393c0.278-0.353,0.585-0.66,0.911-0.927
						c0.329-0.265,0.65-0.461,0.967-0.589c0.312-0.127,0.599-0.228,0.854-0.302s0.461-0.115,0.618-0.125L456.517,15.425z"/>
				</g>
			</g>
			<g>
				<g>
					<path fill="#939598" d="M465.198,15.425h2.855v0.913h1.87v0.973h-6.609v-0.973h1.884V15.425z M463.783,18.06h5.684v4.899
						h-5.684V18.06z M465.066,18.678v3.591h0.868v-3.591H465.066z M467.318,18.678v3.591h0.868v-3.591H467.318z"/>
				</g>
			</g>
			<g>
				<g>
					<path fill="#939598" d="M480.902,21.23l-3.754-3.65l0.56-0.574l3.194,3.106l3.238-3.062l0.544,0.604L480.902,21.23z"/>
				</g>
			</g>
			
				<line fill="none" stroke="#000000" stroke-width="0.25" stroke-miterlimit="10" x1="431.315" y1="15.256" x2="431.315" y2="23.423"/>
			
				<line fill="none" stroke="#000000" stroke-width="0.25" stroke-miterlimit="10" x1="445.648" y1="15.674" x2="445.648" y2="23.84"/>
			
				<line fill="none" stroke="#000000" stroke-width="0.25" stroke-miterlimit="10" x1="459.815" y1="15.256" x2="459.815" y2="23.423"/>
			
				<line fill="none" stroke="#000000" stroke-width="0.25" stroke-miterlimit="10" x1="473.481" y1="15.256" x2="473.481" y2="23.423"/>
			<rect x="9.819" y="9.346" width="18.083" height="20.897"/>
			<g>
				<path d="M35.321,49.766c1.037-1.037,2.287-1.557,3.752-1.557c1.467,0,2.718,0.52,3.755,1.557
					c1.035,1.037,1.555,2.288,1.555,3.752c0,1.465-0.521,2.716-1.555,3.753c-1.036,1.037-2.288,1.555-3.755,1.555
					c-1.465,0-2.716-0.519-3.752-1.555c-1.034-1.036-1.555-2.288-1.555-3.753C33.766,52.054,34.285,50.803,35.321,49.766z
					 M37.353,55.552v-0.374h-0.145c-0.235,0-0.354-0.133-0.354-0.396c0-0.055,0.016-0.166,0.042-0.332
					c0.027-0.125,0.042-0.255,0.042-0.394c0-0.276-0.097-0.456-0.291-0.539c0.193-0.098,0.291-0.283,0.291-0.562
					c0-0.125-0.014-0.249-0.042-0.374c-0.026-0.124-0.042-0.242-0.042-0.352c0-0.249,0.117-0.374,0.354-0.374h0.145v-0.373h-0.166
					c-0.511,0-0.767,0.235-0.767,0.705c0,0.042,0.014,0.173,0.042,0.394v0.021c0.025,0.18,0.042,0.316,0.042,0.415
					c0,0.221-0.118,0.332-0.354,0.332h-0.042v0.332h0.042c0.235,0,0.354,0.109,0.354,0.332c0,0.083-0.014,0.215-0.042,0.394
					c-0.028,0.249-0.042,0.387-0.042,0.415c0,0.484,0.256,0.728,0.767,0.728L37.353,55.552L37.353,55.552z M39.26,54.97l1.037-2.903
					H39.82l-0.498,1.431c-0.125,0.359-0.214,0.657-0.27,0.894c-0.056-0.208-0.145-0.504-0.27-0.894l-0.456-1.431h-0.479l0.954,2.903
					H39.26z M42.039,53.685v-0.332h-0.041c-0.235,0-0.354-0.111-0.354-0.332c0-0.099,0.016-0.235,0.042-0.415v-0.021
					c0.027-0.221,0.042-0.352,0.042-0.394c0-0.47-0.263-0.705-0.788-0.705h-0.145v0.373h0.145c0.235,0,0.354,0.125,0.354,0.374
					c0,0.083-0.007,0.173-0.021,0.27l-0.021,0.083c-0.028,0.208-0.042,0.332-0.042,0.374c0,0.276,0.097,0.463,0.29,0.562
					c-0.193,0.083-0.29,0.263-0.29,0.539c0,0.083,0.014,0.214,0.042,0.394c0.014,0.042,0.021,0.069,0.021,0.083
					c0.016,0.083,0.021,0.166,0.021,0.249c0,0.263-0.118,0.396-0.354,0.396h-0.145v0.374h0.166c0.511,0,0.768-0.242,0.768-0.728
					c0-0.083-0.014-0.221-0.042-0.415c-0.026-0.179-0.042-0.311-0.042-0.394c0-0.223,0.117-0.332,0.354-0.332L42.039,53.685
					L42.039,53.685z"/>
			</g>
			<rect x="46.099" y="49.633" fill="#AEADAE" width="7.373" height="7.373"/>
			<g>
				<path fill="#FFFFFF" d="M52.069,53.039v0.495H49.97v2.1h-0.495v-2.1h-2.099v-0.495h2.099v-2.1h0.495v2.1H52.069z"/>
			</g>
			<rect x="55.184" y="48.172" fill="#EFEFEF" width="10.667" height="10.667"/>
			<g>
				<path fill="#8D8D8D" d="M58.601,53.311l2.956-3.04l0.465,0.453l-2.525,2.587l2.49,2.623l-0.487,0.439L58.601,53.311z"/>
			</g>
			
				<rect x="9.874" y="30.322" fill="none" stroke="#000000" stroke-width="0.473" stroke-miterlimit="10" width="482.026" height="628.323"/>
			<g>
				<path fill="#FFFFFF" d="M11.819,21.153h2.866c0.493,2.043,2.333,3.568,4.529,3.568h1.091v-1.696h3.104v-2.188h-3.104v-1.562
					h3.104v-2.188h-3.104v-1.695h-1.091c-2.196,0-4.036,1.524-4.529,3.57h-2.866"/>
			</g>
		</g>
		<g id="Layer_5_4_">
			
				<rect x="19.997" y="97.949" fill="#FFFFFF" stroke="#000000" stroke-width="0.5236" stroke-miterlimit="10" width="321.505" height="20.988"/>
			<g>
				<path fill="#939598" d="M291.496,110.83l-0.016-2.915h0.722v3.649h-7.536v-7.536c0.628,0,1.879,0,3.754,0v0.722
					c-0.167,0-0.386,0-0.655,0c-0.271,0-0.68-0.002-1.229-0.008c-0.55-0.005-0.938-0.007-1.163-0.007l0.016,6.095H291.496
					L291.496,110.83z M291.055,105.339l-0.941-0.868l0.412-0.441l1.679,1.561l-1.429,1.575l-0.428-0.412l0.678-0.811
					c-1.854,0.188-3.174,0.894-3.959,2.12c-0.195,0.294-0.353,0.61-0.464,0.949c-0.113,0.338-0.175,0.601-0.185,0.787l-0.029,0.28
					H285.8c0-0.06,0.005-0.141,0.016-0.243c0.011-0.104,0.052-0.308,0.125-0.61c0.072-0.305,0.174-0.597,0.303-0.875
					c0.127-0.28,0.322-0.595,0.589-0.942c0.265-0.348,0.573-0.656,0.927-0.927s0.817-0.514,1.393-0.729
					C289.726,105.535,290.359,105.397,291.055,105.339z"/>
			</g>
			<g>
				<g>
					<path fill="#939598" d="M305.495,110.83l-0.016-2.915l0.722-0.016v3.665h-7.536v-7.536c0.628,0,1.879,0,3.754,0v0.707
						c-0.167,0-0.386,0-0.655,0c-0.271,0-0.68,0-1.229,0c-0.55,0-0.938,0-1.163,0l0.016,6.095H305.495z M306.202,104.028v0.589
						c-0.078,0-0.183,0.008-0.31,0.022c-0.129,0.015-0.371,0.079-0.729,0.19c-0.358,0.112-0.688,0.269-0.994,0.463
						c-1.228,0.785-1.928,2.104-2.104,3.959l0.811-0.678l0.412,0.428l-1.591,1.429l-1.546-1.679l0.428-0.413l0.884,0.941
						c0.06-0.696,0.192-1.332,0.404-1.905c0.211-0.574,0.457-1.038,0.735-1.392s0.584-0.662,0.911-0.927
						c0.329-0.266,0.65-0.461,0.966-0.59c0.312-0.127,0.6-0.229,0.854-0.302c0.255-0.074,0.461-0.115,0.618-0.125L306.202,104.028z"
						/>
				</g>
			</g>
			<g>
				<g>
					<path fill="#939598" d="M314.883,104.028h2.854v0.913h1.87v0.972h-6.608v-0.972h1.884V104.028z M313.47,106.664h5.683v4.9
						h-5.683V106.664z M314.751,107.281v3.592h0.868v-3.592H314.751z M317.003,107.281v3.592h0.868v-3.592H317.003z"/>
				</g>
			</g>
			<g>
				<g>
					<path fill="#939598" d="M330.587,109.835l-3.754-3.649l0.561-0.574l3.193,3.105l3.238-3.062l0.544,0.604L330.587,109.835z"/>
				</g>
			</g>
			
				<line fill="none" stroke="#000000" stroke-width="0.25" stroke-miterlimit="10" x1="295.343" y1="103.737" x2="295.343" y2="111.903"/>
			
				<line fill="none" stroke="#000000" stroke-width="0.25" stroke-miterlimit="10" x1="309.51" y1="103.319" x2="309.51" y2="111.486"/>
			
				<line fill="none" stroke="#000000" stroke-width="0.25" stroke-miterlimit="10" x1="323.166" y1="103.86" x2="323.166" y2="112.026"/>
			<rect x="19.969" y="97.949" width="18.083" height="20.899"/>
			<circle fill="none" stroke="#FFFFFF" stroke-width="0.75" stroke-miterlimit="10" cx="28.587" cy="109.206" r="5.178"/>
			<circle fill="none" stroke="#FFFFFF" stroke-width="0.75" stroke-miterlimit="10" cx="28.587" cy="109.206" r="2.019"/>
		</g>
		
			<rect x="78.767" y="164.791" fill="#FFFFFF" stroke="#000000" stroke-width="0.7891" stroke-miterlimit="10" width="125.075" height="30.515"/>
		<g>
			<text transform="matrix(1 0 0 1 100.9871 184.78)" font-family="'MyriadPro-Regular'" font-size="14.2044">ActionWorker</text>
		</g>
		
			<rect x="352.073" y="50.939" fill="#FFFFFF" stroke="#000000" stroke-width="0.7891" stroke-miterlimit="10" width="125.074" height="30.514"/>
		<g>
			<text transform="matrix(1 0 0 1 384.4124 71.9294)" font-family="'MyriadPro-Regular'" font-size="14.2044">tweeterEP</text>
		</g>
		
			<rect x="352.073" y="608.049" fill="#FFFFFF" stroke="#000000" stroke-width="0.7891" stroke-miterlimit="10" width="125.074" height="30.514"/>
		<g>
			<text transform="matrix(1 0 0 1 384.4124 629.0369)" font-family="'MyriadPro-Regular'" font-size="14.2044">tweeterEP</text>
		</g>
		
			<line fill="none" stroke="#000000" stroke-width="0.5302" stroke-miterlimit="10" x1="142.75" y1="195.304" x2="142.75" y2="527.878"/>
		
			<line fill="none" stroke="#000000" stroke-width="0.5302" stroke-miterlimit="10" x1="414.611" y1="81.453" x2="414.611" y2="608.049"/>
		
			<rect x="78.769" y="217.357" fill="#FFFFFF" stroke="#000000" stroke-width="0.5" stroke-miterlimit="10" width="126.383" height="30.461"/>
		
			<rect x="9.874" y="369.887" fill="#FFFFFF" stroke="#000000" stroke-width="0.5" stroke-miterlimit="10" width="264.441" height="30.462"/>
		
			<rect x="79.208" y="527.878" fill="#FFFFFF" stroke="#000000" stroke-width="0.7891" stroke-miterlimit="10" width="124.635" height="30.515"/>
		<g>
			<text transform="matrix(1 0 0 1 102.5862 547.865)" font-family="'MyriadPro-Regular'" font-size="14.2044">ActionWorker</text>
		</g>
		<g>
			<g>
				
					<line fill="none" stroke="#000000" stroke-width="1.1529" stroke-miterlimit="10" x1="406.336" y1="429.268" x2="276.219" y2="429.268"/>
				<g>
					<polygon points="404.655,423.518 414.61,429.268 404.655,435.016 					"/>
				</g>
			</g>
		</g>
		
			<rect x="79.208" y="267.527" fill="#FFFFFF" stroke="#000000" stroke-width="0.5" stroke-miterlimit="10" width="125.087" height="30.461"/>
		<text transform="matrix(1 0 0 1 108.1091 287.3914)" font-family="'MyriadPro-Light'" font-size="14">string oaut...</text>
		
			<rect x="79.208" y="318.252" fill="#FFFFFF" stroke="#000000" stroke-width="0.5" stroke-miterlimit="10" width="125.087" height="30.461"/>
		<text transform="matrix(1 0 0 1 106.885 338.115)" font-family="'MyriadPro-Light'" font-size="14">string twee...</text>
		<text transform="matrix(1 0 0 1 102.7693 237.6853)" font-family="'MyriadPro-Light'" font-size="14">message req...</text>
		
			<rect x="79.208" y="475.012" fill="#FFFFFF" stroke="#000000" stroke-width="0.5" stroke-miterlimit="10" width="125.087" height="30.461"/>
		<text transform="matrix(1 0 0 1 97.8337 494.8757)" font-family="'MyriadPro-Light'" font-size="14">return response</text>
		<text transform="matrix(1 0 0 1 13.3801 390.6746)" font-family="'MyriadPro-Light'" font-size="14">messages:setHeader(request, “Authorization”...</text>
		
			<rect x="9.874" y="421.871" fill="#FFFFFF" stroke="#000000" stroke-width="0.5" stroke-miterlimit="10" width="264.441" height="30.463"/>
		<text transform="matrix(1 0 0 1 14.3811 442.658)" font-family="'MyriadPro-Light'" font-size="14">message response = http:ClientConnector.p...</text>
		<g>
			<g>
				
					<line fill="none" stroke="#000000" stroke-width="1.153" stroke-miterlimit="10" stroke-dasharray="4.8031,4.8031" x1="290.287" y1="444.936" x2="408.198" y2="444.936"/>
				
					<line fill="none" stroke="#000000" stroke-width="1.153" stroke-miterlimit="10" x1="410.6" y1="444.936" x2="413.1" y2="444.936"/>
				<g>
					<polygon points="284.666,450.686 274.711,444.936 284.666,439.188 					"/>
				</g>
			</g>
		</g>
		<text transform="matrix(1 0 0 1 33.8948 24.9958)" font-family="'MyriadPro-Regular'" font-size="14">Twitter</text>
		<text transform="matrix(1 0 0 1 41.8425 113.5603)" font-family="'MyriadPro-Regular'" font-size="14">tweet</text>
		
			<rect x="89.382" y="1653.721" fill="#FFFFFF" stroke="#000000" stroke-width="0.7408" stroke-miterlimit="10" width="277.434" height="30.461"/>
		
			<line fill="none" stroke="#000000" stroke-width="0.5" stroke-miterlimit="10" x1="229.587" y1="1684.719" x2="229.587" y2="1705.558"/>
		
			<line fill="none" stroke="#000000" stroke-width="0.5" stroke-miterlimit="10" x1="228.957" y1="1633.285" x2="228.957" y2="1654.125"/>
		
			<line fill="none" stroke="#000000" stroke-width="0.5" stroke-miterlimit="10" x1="229.587" y1="1582.113" x2="229.587" y2="1603.955"/>
	</g>
</g>
<text transform="matrix(1 0 0 1 96.1985 1571.1687)" font-family="'MyriadPro-Light'" font-size="14">message tweetResponse = Twitter.tweet(twi...</text>
<text transform="matrix(1 0 0 1 106.6487 1674.5017)" font-family="'MyriadPro-Light'" font-size="14">system.printin(jsonutils:toString(tweetJSO...</text>
<text transform="matrix(1 0 0 1 191.1443 1622.5027)" font-family="'MyriadPro-Light'" font-size="14">json tweetJ...</text>
<rect x="348.788" y="1412.017" fill="#FFFFFF" stroke="#000000" stroke-width="0.7891" stroke-miterlimit="10" width="125.073" height="30.514"/>
<g>
	<text transform="matrix(1 0 0 1 381.1272 1433.0066)" font-family="'MyriadPro-Regular'" font-size="14.2044">tweeterEP</text>
</g>
<rect x="348.788" y="1762.653" fill="#FFFFFF" stroke="#000000" stroke-width="0.7891" stroke-miterlimit="10" width="125.073" height="30.515"/>
<g>
	<text transform="matrix(1 0 0 1 381.1272 1783.6423)" font-family="'MyriadPro-Regular'" font-size="14.2044">tweeterEP</text>
</g>
<line fill="none" stroke="#000000" stroke-width="0.5302" stroke-miterlimit="10" x1="411.324" y1="1442.531" x2="411.324" y2="1762.653"/>
<g>
	<g>
		
			<line fill="none" stroke="#000000" stroke-width="1.1529" stroke-miterlimit="10" x1="404.02" y1="1559.05" x2="369.456" y2="1559.05"/>
		<g>
			<polygon points="402.338,1553.3 412.293,1559.05 402.338,1564.798 			"/>
		</g>
	</g>
</g>
<line fill="none" stroke="#000000" stroke-width="1.153" stroke-miterlimit="10" stroke-dasharray="4.8031,4.8031" x1="379.521" y1="1574.718" x2="409.887" y2="1574.718"/>
<g>
	<polygon points="377.904,1580.468 367.948,1574.718 377.904,1568.969 	"/>
</g>
</svg>
