<svg xmlns="http://www.w3.org/2000/svg" width="500" height="1840.7">
  <path fill="none" stroke="#000" stroke-width=".5" stroke-miterlimit="10" d="M20 778.8h321.5v502H20z"/>
  <path fill="#FFF" stroke="#000" stroke-width=".5" stroke-miterlimit="10" d="M10 690.4h482v21H10z"/>
  <path fill="#939598" d="M441.8 703.3v-3h.7v3.7H435v-7.5h3.7v.7H435.8v6h6zm-.4-5.5l-1-1 .4-.3 1.7 1.6-1.4 1.6-.3-.4.6-.8c-1.8.2-3 1-4 2 0 .4-.3.7-.4 1l-.3 1h-.6l.3-.7c0-.3 0-.6.3-1 0-.2.3-.5.5-.8l1-1 1.5-.8 2-.4zM455.8 703.3v-3h.7v3.7H449v-7.5h3.7v.7H449.8v6h6zm.7-6.8v.6h-.3l-.7.3c-.4 0-.7.3-1 .5-1.2.7-2 2-2 4l.7-.8.4.5-1.6 1.4-1.5-1.8.4-.4.8 1c0-.7.2-1.4.4-2l.7-1.4.8-1c.4 0 .7-.3 1-.5l.8-.4H456.5zM465.2 696.5h3v1h1.7v1h-6.7v-1h2v-1zm-1.4 2.6h5.7v5h-5.7v-5zm1.3.7v3.6h1v-3.6h-1zm2.3 0v3.6h1v-3.6h-1zM481 702.3l-4-3.6.7-.6 3.2 3.2 3-3 .7.5-3.8 3.6z"/>
  <path fill="none" stroke="#000" stroke-width=".3" stroke-miterlimit="10" d="M431.3 696.3v8.2M445.6 696.7v8.2M459.8 696.3v8.2M473.5 696.3v8.2"/>
  <path d="M9.8 690.4h18v21H10zM35.3 730.8c1-1 2.3-1.5 3.8-1.5s2.8.5 3.8 1.5 1.6 2.3 1.6 3.8-.5 2.7-1.6 3.7c-1 1-2.3 1.6-3.7 1.6-1.4 0-2.6-.6-3.7-1.7-1-1-1.5-2.2-1.5-3.7s.5-2.7 1.5-3.8zm2 5.8v-.4c-.3 0-.4 0-.4-.3v-.5-.4c0-.2-.2-.3-.4-.4.2 0 .3-.3.3-.6v-.3-.4c0-.3 0-.4.2-.4h.2v-.4h-.2c-.5 0-.8.2-.8.7v.8c0 .3 0 .4-.2.4v.3c.2 0 .3.2.3.4v.9c0 .4.2.6.7.6h.2zm2-.6l1-3h-.5l-.5 1.6-.2 1c0-.3 0-.6-.2-1l-.5-1.5h-.5l1 3h.5zm2.7-1.2v-.4c-.2 0-.4 0-.4-.3v-.3-.4c0-.5 0-.7-.7-.7h-.2v.3c.4 0 .5 0 .5.3v.7c0 .3 0 .5.2.6-.2 0-.3.3-.3.5v.9s0 .3-.3.3h-.2v.3h.2c.5 0 .7-.2.7-.7v-.5-.4s0-.2.3-.2z"/>
  <path fill="#AEADAE" d="M46 730.7h7.5v7.4H46z"/>
  <path fill="#FFF" d="M52 734v.6h-2v2h-.5v-2h-2v-.5h2v-2h.5v2h2z"/>
  <path fill="none" stroke="#000" stroke-width=".5" stroke-miterlimit="10" d="M10 711.4h482v628.3H10z"/>
  <path fill="#FFF" d="M11.8 702.2h3c.4 2 2.2 3.6 4.4 3.6h1V704h3.2v-2h-3v-1.7h3v-2h-3v-1.8H19c-2.2 0-4 1.5-4.5 3.5h-3"/>
  <g>
    <path fill="#FFF" stroke="#000" stroke-width=".5" stroke-miterlimit="10" d="M20 779h321.5v21H20z"/>
    <path fill="#939598" d="M291.5 792v-3h.7v3.6h-7.5V785h3.7v.8h-2.9v6h6zm-.4-5.6l-1-1 .5-.3 1.7 1.7-1.4 1.5-.5-.4.7-.8c-1.8.2-3 1-4 2 0 .4-.3.7-.4 1l-.2 1h-.6v-.7l.4-1 .6-.8 1-1 1.4-.7 2-.4zM305.5 792v-3h.7v3.6h-7.5V785h3.7v.8h-2.9v6h6zm.7-7v.7h-.3c-.2 0-.5 0-.8.2-.4 0-.7.2-1 .4-1.3.7-2 2-2 4l.7-.8.3.5-1.6 1.5-1.5-1.7.4-.4 1 1c0-.7 0-1.4.3-2 0-.5.3-1 .6-1.3l1-1 1-.5.7-.3H306.2zM315 785h2.7v1h2v1H313v-1h2v-1zm-1.5 2.7h5.7v5h-5.7v-5zm1.3.6v3.6h.8v-3.7h-.8zm2.2 0v3.6h1v-3.7h-1zM330.6 791l-3.8-3.7.6-.6 3.2 3 3.2-3 .6.6-3.8 3.6z"/>
    <path fill="none" stroke="#000" stroke-width=".3" stroke-miterlimit="10" d="M295.3 784.8v8.2M309.5 784.4v8.2M323.2 785v8"/>
    <path d="M20 779h18v21H20z"/>
    <circle cx="28.6" cy="790.3" r="5.2" fill="none" stroke="#FFF" stroke-width=".8" stroke-miterlimit="10"/>
    <circle cx="28.6" cy="790.3" r="2" fill="none" stroke="#FFF" stroke-width=".8" stroke-miterlimit="10"/>
  </g>
  <g>
    <path fill="#FFF" stroke="#000" stroke-width=".8" stroke-miterlimit="10" d="M78.8 846h125v30.4H79z"/>
    <text transform="translate(100.987 865.85)" font-family="'MyriadPro-Regular'" font-size="14.2">
      ActionWorker
    </text>
    <path fill="#FFF" stroke="#000" stroke-width=".8" stroke-miterlimit="10" d="M352 732h125.2v30.5h-125z"/>
    <text transform="translate(384.412 752.998)" font-family="'MyriadPro-Regular'" font-size="14.2">
      tweeterEP
    </text>
    <path fill="#FFF" stroke="#000" stroke-width=".8" stroke-miterlimit="10" d="M352 1289h125.2v30.6h-125z"/>
    <text transform="translate(384.412 1310.106)" font-family="'MyriadPro-Regular'" font-size="14.2">
      tweeterEP
    </text>
    <path fill="none" stroke="#000" stroke-width=".5" stroke-miterlimit="10" d="M142.8 876.4V1209M414.6 762.5V1289"/>
    <path fill="#FFF" stroke="#000" stroke-width=".5" stroke-miterlimit="10" d="M78.8 898.4h126.4V929H78.8zM10 1051h264.3v30.5H10z"/>
    <path fill="#FFF" stroke="#000" stroke-width=".8" stroke-miterlimit="10" d="M79.2 1209h124.6v30.4H79.2z"/>
    <text transform="translate(102.586 1228.934)" font-family="'MyriadPro-Regular'" font-size="14.2">
      ActionWorker
    </text>
    <path fill="none" stroke="#000" stroke-width="1.2" stroke-miterlimit="10" d="M406.3 1110.3h-130"/>
    <path d="M404.7 1104.6l10 5.7-10 5.8"/>
    <path fill="#FFF" stroke="#000" stroke-width=".5" stroke-miterlimit="10" d="M79.2 948.6h125V979h-125z"/>
    <text transform="translate(108.11 968.46)" font-family="'MyriadPro-Light'" font-size="14">
      string oaut...
    </text>
    <path fill="#FFF" stroke="#000" stroke-width=".5" stroke-miterlimit="10" d="M79.2 999.3h125v30.5h-125z"/>
    <text transform="translate(106.885 1019.184)" font-family="'MyriadPro-Light'" font-size="14">
      string twee...
    </text>
    <text transform="translate(102.77 918.755)" font-family="'MyriadPro-Light'" font-size="14">
      message req...
    </text>
    <path fill="#FFF" stroke="#000" stroke-width=".5" stroke-miterlimit="10" d="M79.2 1156h125v30.6h-125z"/>
    <text transform="translate(97.834 1175.945)" font-family="'MyriadPro-Light'" font-size="14">
      return response
    </text>
    <text transform="translate(13.38 1071.744)" font-family="'MyriadPro-Light'" font-size="14">
      messages:setHeader(request, “Authorization”...
    </text>
    <path fill="#FFF" stroke="#000" stroke-width=".5" stroke-miterlimit="10" d="M10 1103h264.3v30.4H10z"/>
    <text transform="translate(13.38 1123.727)" font-family="'MyriadPro-Light'" font-size="14">
      message response = http:ClientConnector.p...
    </text>
    <path fill="none" stroke="#000" stroke-width="1.2" stroke-miterlimit="10" d="M290.3 1126h118" stroke-dasharray="4.8 4.8"/>
    <path fill="none" stroke="#000" stroke-width="1.2" stroke-miterlimit="10" d="M410.6 1126h2.5"/>
    <path d="M284.7 1131.8l-10-5.8 10-5.7"/>
    <path fill="#FFF" stroke="#000" stroke-width=".5" stroke-miterlimit="10" d="M10.2 1370.7h482v21h-482z"/>
    <path fill="#939598" d="M442.2 1383.5v-3h.7v3.8h-7.6v-7.6h3.7v.8h-2.8v6h6zm-.4-5.4l-1-.8.4-.5 1.7 1.6-1.5 1.6-.5-.5.7-.8c-1.8 0-3.2 1-4 2 0 .4-.3.7-.4 1l-.2.8v.3h-.5v-.2-.7l.4-1 .5-1 1-.8c.3-.3.8-.5 1.3-.7l2-.4zM456.2 1383.5v-3h.7v3.8h-7.6v-7.6h3.7v.8h-2.8v6h6zm.7-6.8v.6h-.4s-.4 0-.7.2l-1 .5c-1.4.8-2 2-2.2 4l.8-.7.4.4-1.6 1.4-1.6-1.5.5-.4 1 1c0-.7 0-1.3.3-2 .2-.5.4-1 .7-1.3l1-1 1-.5.7-.3.6-.2h.3zM465.6 1376.7h2.8v1h2v1h-6.7v-1h2v-1zm-1.4 2.7h5.6v5h-5.6v-5zm1.2.6v3.6h1v-3.6h-1zm2.3 0v3.6h1v-3.6h-1zM481.3 1382.6l-3.8-3.7.6-.7 3.3 3 3.2-3 .6.7-3.7 3.6z"/>
    <path fill="none" stroke="#000" stroke-width=".3" stroke-miterlimit="10" d="M431.7 1376.6v8M446 1377v8.2M460.2 1376.6v8M474 1376.6v8"/>
    <path d="M10.2 1370.7h18v21h-18z"/>
    <path fill="#FFF" d="M22.2 1378v.5h-1l-.7 2.7c-.3 1.2-.6 2-1 2.8-.3 1-.8 1.5-1.3 2-.4 0-.7.3-1 .3-.4 0-.6 0-.8-.2l-.2-.4s0-.2.2-.3h.7c.2 0 .2 0 .2.2v.3H17v.2h.7l.6-.6c0-.3.2-.6.4-1l.5-1.7 1-4.2h-1v-.4h.8l.3-.3c.2 0 .3-.4.5-.7l.7-1.2c.3-.4.6-.7 1-.8.3-.2.6-.3 1-.3.2 0 .5 0 .7.2.2 0 .3.3.3.5 0 0 0 .2-.2.3l-.3.2c-.2 0-.3 0-.4-.2v-.2-.3-.2h-.2c-.3 0-.5 0-.7.2-.3.2-.5.6-.8 1l-.7 2h1z"/>
    <text transform="translate(34.604 1386.283)" font-family="'MyriadPro-Regular'" font-size="14">
      main
    </text>
    <path fill="none" stroke="#000" stroke-width=".5" stroke-miterlimit="10" d="M10.3 1391.7h482v441h-482z"/>
    <path fill="#FFF" stroke="#000" stroke-width=".8" stroke-miterlimit="10" d="M165.8 1499h125v30.6H166z"/>
    <text transform="translate(180.883 1519.08)" font-family="'MyriadPro-Regular'" font-size="14.2">
      FunctionWorker
    </text>
    <path fill="#FFF" stroke="#000" stroke-width=".5" stroke-miterlimit="10" d="M91 1551.7H367v30.5H91z"/>
    <path fill="none" stroke="#000" stroke-width=".5" stroke-miterlimit="10" d="M229.2 1529.6v22"/>
    <path fill="#FFF" stroke="#000" stroke-width=".8" stroke-miterlimit="10" d="M165.8 1705.6h125v30.5H166z"/>
    <text transform="translate(180.883 1725.544)" font-family="'MyriadPro-Regular'" font-size="14.2">
      FunctionWorker
    </text>
    <path fill="#FFF" stroke="#000" stroke-width=".5" stroke-miterlimit="10" d="M165 1602.8h126.3v30.5H165z"/>
    <text transform="translate(33.895 706.065)" font-family="'MyriadPro-Regular'" font-size="14">
      Twitter
    </text>
    <text transform="translate(41.843 794.63)" font-family="'MyriadPro-Regular'" font-size="14">
      tweet
    </text>
    <path fill="none" stroke="#000" stroke-width=".5" stroke-miterlimit="10" d="M20 97.8h321.5v502H20z"/>
    <path fill="#FFF" stroke="#000" stroke-width=".5" stroke-miterlimit="10" d="M10 9.3h482v21H10z"/>
    <path fill="#939598" d="M441.8 22.2v-3h.7V23H435v-7.6h3.7v.7H435.8v6.2h6zm-.4-5.5l-1-.8.4-.6 1.7 1.6-1.4 1.6-.3-.5.6-.7c-1.8.2-3 1-4 2.2 0 .3-.3.6-.4 1-.2.2-.3.5-.3.7v.3h-.6v-.3l.3-.6c0-.3 0-.6.3-1l.5-.8 1-1 1.5-.7 2-.3zM455.8 22.2v-3h.7V23H449v-7.6h3.7v.7H449.8v6.2h6zm.7-6.8v.6h-.3s-.4 0-.7.2c-.4 0-.7.3-1 .5-1.2.8-2 2-2 4l.7-.7.4.4-1.6 1.4-1.5-1.6.4-.5.8 1c0-.7.2-1.4.4-2s.4-1 .7-1.3l.8-1 1-.5c.3-.3.6-.4.8-.4l.7-.2h.2zM465.2 15.4h3v1h1.7v1h-6.7v-1h2v-1zm-1.4 2.7h5.7v5h-5.7v-5zm1.3.7v3.6h1v-3.6h-1zm2.3 0v3.6h1v-3.6h-1zM481 21.2l-4-3.6.7-.6 3.2 3 3-3 .7.7-3.8 3.5z"/>
    <path fill="none" stroke="#000" stroke-width=".3" stroke-miterlimit="10" d="M431.3 15.3v8M445.6 15.7v8M459.8 15.3v8M473.5 15.3v8"/>
    <path d="M9.8 9.3h18v21H10zM35.3 49.8c1-1 2.3-1.6 3.8-1.6s2.8.5 3.8 1.6c1 1 1.6 2.3 1.6 3.7 0 1.5-.5 2.7-1.6 3.8-1 1-2.3 1.5-3.7 1.5-1.4 0-2.6-.5-3.7-1.5-1-1-1.5-2.3-1.5-3.8 0-1.4.5-2.7 1.5-3.7zm2 5.8v-.4c-.3 0-.4-.2-.4-.4v-.4-.3c0-.2-.2-.4-.4-.5.2 0 .3-.3.3-.5v-.4-.4c0-.2 0-.3.2-.3h.2v-.5h-.2c-.5 0-.8.2-.8.7v.8c0 .2 0 .3-.2.3v.4c.2 0 .3 0 .3.3v.8c0 .5.2.7.7.7h.2zm2-.6l1-3h-.5l-.5 1.5-.2 1c0-.3 0-.6-.2-1l-.5-1.4h-.5l1 3h.5zm2.7-1.3v-.3c-.2 0-.4-.2-.4-.4v-.4-.4c0-.5 0-.7-.7-.7h-.2v.4c.4 0 .5 0 .5.2v.8c0 .2 0 .4.2.5-.2 0-.3.3-.3.6v.8c0 .3 0 .4-.3.4h-.2v.4h.2c.5 0 .7-.3.7-.8v-.4-.4c0-.2 0-.3.3-.3z"/>
    <path fill="#AEADAE" d="M46 49.6h7.5V57H46z"/>
    <path fill="#FFF" d="M52 53v.5h-2v2h-.5v-2h-2V53h2v-2h.5v2h2z"/>
    <path fill="#EFEFEF" d="M55.2 48.2H66V59H55z"/>
    <path fill="#8D8D8D" d="M58.6 53.3l3-3 .4.4-2.5 2.6L62 56l-.5.4-3-3z"/>
    <path fill="none" stroke="#000" stroke-width=".5" stroke-miterlimit="10" d="M10 30.3h482v628.3H10z"/>
    <path fill="#FFF" d="M11.8 21.2h3c.4 2 2.2 3.5 4.4 3.5h1V23h3.2v-2.2h-3v-1.5h3V17h-3v-1.6H19c-2.2 0-4 1.5-4.5 3.6h-3"/>
    <path fill="#FFF" stroke="#000" stroke-width=".5" stroke-miterlimit="10" d="M20 98h321.5v21H20z"/>
    <path fill="#939598" d="M291.5 110.8v-3h.7v3.8h-7.5V104h3.7v.7h-2.9v6h6zm-.4-5.5l-1-.8.5-.5 1.7 1.6-1.4 1.6-.5-.4.7-1c-1.8.3-3 1-4 2.3 0 .4-.3.7-.4 1l-.2.8v.3h-.6v-.2-.6l.4-.8.6-1 1-1 1.4-.6c.5-.3 1.2-.4 2-.5zM305.5 110.8v-3h.7v3.8h-7.5V104h3.7v.7h-2.9v6h6zm.7-6.8v.6h-.3c-.2 0-.5 0-.8.2-.4 0-.7.3-1 .5-1.3.8-2 2-2 4l.7-.7.3.4-1.6 1.4-1.5-1.6.4-.5 1 1c0-.7 0-1.4.3-2 0-.5.3-1 .6-1.3l1-1 1-.5c.2-.2.5-.3.7-.3l.7-.2h.2zM315 104h2.7v1h2v1H313v-1h2v-1zm-1.5 2.7h5.7v5h-5.7v-5zm1.3.6v3.6h.8v-3.7h-.8zm2.2 0v3.6h1v-3.7h-1zM330.6 109.8l-3.8-3.6.6-.6 3.2 3 3.2-3 .6.7-3.8 3.5z"/>
    <path fill="none" stroke="#000" stroke-width=".3" stroke-miterlimit="10" d="M295.3 103.7v8.2M309.5 103.3v8.2M323.2 104v8"/>
    <path d="M20 98h18v20.8H20z"/>
    <circle cx="28.6" cy="109.2" r="5.2" fill="none" stroke="#FFF" stroke-width=".8" stroke-miterlimit="10"/>
    <circle cx="28.6" cy="109.2" r="2" fill="none" stroke="#FFF" stroke-width=".8" stroke-miterlimit="10"/>
    <path fill="#FFF" stroke="#000" stroke-width=".8" stroke-miterlimit="10" d="M78.8 164.8h125v30.5H79z"/>
    <g>
      <text transform="translate(100.987 184.78)" font-family="'MyriadPro-Regular'" font-size="14.2">
        ActionWorker
      </text>
    </g>
    <path fill="#FFF" stroke="#000" stroke-width=".8" stroke-miterlimit="10" d="M352 51h125.2v30.4h-125z"/>
    <g>
      <text transform="translate(384.412 71.93)" font-family="'MyriadPro-Regular'" font-size="14.2">
        tweeterEP
      </text>
    </g>
    <path fill="#FFF" stroke="#000" stroke-width=".8" stroke-miterlimit="10" d="M352 608h125.2v30.5h-125z"/>
    <g>
      <text transform="translate(384.412 629.037)" font-family="'MyriadPro-Regular'" font-size="14.2">
        tweeterEP
      </text>
    </g>
    <path fill="none" stroke="#000" stroke-width=".5" stroke-miterlimit="10" d="M142.8 195.3V528M414.6 81.5V608"/>
    <path fill="#FFF" stroke="#000" stroke-width=".5" stroke-miterlimit="10" d="M78.8 217.4h126.4V248H78.8zM10 370h264.3v30.4H10z"/>
    <path fill="#FFF" stroke="#000" stroke-width=".8" stroke-miterlimit="10" d="M79.2 528h124.6v30.4H79.2z"/>
    <g>
      <text transform="translate(102.586 547.865)" font-family="'MyriadPro-Regular'" font-size="14.2">
        ActionWorker
      </text>
    </g>
    <g>
      <path fill="none" stroke="#000" stroke-width="1.2" stroke-miterlimit="10" d="M406.3 429.3h-130"/>
      <path d="M404.7 423.5l10 5.8-10 5.7"/>
    </g>
    <path fill="#FFF" stroke="#000" stroke-width=".5" stroke-miterlimit="10" d="M79.2 267.5h125V298h-125z"/>
    <text transform="translate(108.11 287.39)" font-family="'MyriadPro-Light'" font-size="14">
      string oaut...
    </text>
    <path fill="#FFF" stroke="#000" stroke-width=".5" stroke-miterlimit="10" d="M79.2 318.3h125v30.5h-125z"/>
    <text transform="translate(106.885 338.115)" font-family="'MyriadPro-Light'" font-size="14">
      string twee...
    </text>
    <text transform="translate(102.77 237.685)" font-family="'MyriadPro-Light'" font-size="14">
      message req...
    </text>
    <path fill="#FFF" stroke="#000" stroke-width=".5" stroke-miterlimit="10" d="M79.2 475h125v30.5h-125z"/>
    <text transform="translate(97.834 494.876)" font-family="'MyriadPro-Light'" font-size="14">
      return response
    </text>
    <text transform="translate(13.38 390.675)" font-family="'MyriadPro-Light'" font-size="14">
      messages:setHeader(request, “Authorization”...
    </text>
    <path fill="#FFF" stroke="#000" stroke-width=".5" stroke-miterlimit="10" d="M10 422h264.3v30.4H10z"/>
    <text transform="translate(14.38 442.658)" font-family="'MyriadPro-Light'" font-size="14">
      message response = http:ClientConnector.p...
    </text>
    <g>
      <path fill="none" stroke="#000" stroke-width="1.2" stroke-miterlimit="10" d="M290.3 445h118" stroke-dasharray="4.8 4.8"/>
      <path fill="none" stroke="#000" stroke-width="1.2" stroke-miterlimit="10" d="M410.6 445h2.5"/>
      <path d="M284.7 450.7l-10-5.8 10-5.8"/>
    </g>
    <text transform="translate(33.895 24.996)" font-family="'MyriadPro-Regular'" font-size="14">
      Twitter
    </text>
    <text transform="translate(41.843 113.56)" font-family="'MyriadPro-Regular'" font-size="14">
      tweet
    </text>
    <path fill="#FFF" stroke="#000" stroke-width=".7" stroke-miterlimit="10" d="M89.4 1653.7h277.4v30.5H89.4z"/>
    <path fill="none" stroke="#000" stroke-width=".5" stroke-miterlimit="10" d="M229.6 1684.7v21M229 1633.3v20.8M229.6 1582v22"/>
  </g>
  <text transform="translate(96.198 1571.17)" font-family="'MyriadPro-Light'" font-size="14">
    message tweetResponse = Twitter.tweet(twi...
  </text>
  <text transform="translate(106.65 1674.502)" font-family="'MyriadPro-Light'" font-size="14">
    system.printin(jsonutils:toString(tweetJSO...
  </text>
  <text transform="translate(191.144 1622.503)" font-family="'MyriadPro-Light'" font-size="14">
    json tweetJ...
  </text>
  <path fill="#FFF" stroke="#000" stroke-width=".8" stroke-miterlimit="10" d="M348.8 1412h125v30.5H349z"/>
  <g>
    <text transform="translate(381.127 1433.007)" font-family="'MyriadPro-Regular'" font-size="14.2">
      tweeterEP
    </text>
  </g>
  <path fill="#FFF" stroke="#000" stroke-width=".8" stroke-miterlimit="10" d="M348.8 1762.7h125v30.5H349z"/>
  <g>
    <text transform="translate(381.127 1783.642)" font-family="'MyriadPro-Regular'" font-size="14.2">
      tweeterEP
    </text>
  </g>
  <path fill="none" stroke="#000" stroke-width=".5" stroke-miterlimit="10" d="M411.3 1442.5v320.2"/>
  <g>
    <path fill="none" stroke="#000" stroke-width="1.2" stroke-miterlimit="10" d="M404 1559h-34.5"/>
    <path d="M402.3 1553.3l10 5.7-10 5.8"/>
  </g>
  <path fill="none" stroke="#000" stroke-width="1.2" stroke-miterlimit="10" d="M379.5 1574.7H410" stroke-dasharray="4.8 4.8"/>
  <g>
    <path d="M378 1580.5l-10-5.8 10-5.7"/>
  </g>
</svg>
