<svg xmlns="http://www.w3.org/2000/svg" width="118.7" height="45.5">
  <path fill="#F05323" d="M24.6 0l10.2 25.2L45 0h4.2L34.8 35.6 24.6 10.3 14.4 35.6 0 0h4l10.4 25.2M65.8 19c-1.7-1.4-3.5-2.5-5.4-3.4l-1-.5-1-.3-4.2-2.5c-1.2-.8-1.7-2-1.7-3.5S53 6 54.2 5c1-1 2.5-1.4 4.2-1.4 1 0 2 .2 2.7.6 1 .5 1.6 1 2.3 2l.4.6.4.5 3-2c-1-1.7-2-3-3.6-4C62 .6 60.4 0 58.6 0c-3 0-5.4.8-7.2 2.5-2 1.6-2.8 3.8-2.8 6.3s.8 4.4 2.5 5.7c1.8 1.3 3.6 2.4 5.5 3.3l.7.3.6.3 4.7 2.8c1.3 1 2 2.3 2 4 0 2-.7 3.7-2 5-1.3 1.4-3 2-5 2-1.8 0-3.3-.5-4.5-1.6-1-1-2-2.7-2.4-4.8l-3.8 1.2c.4 1.4.8 2.6 1.4 3.7.7 1 1.4 2 2.4 2.8 1.8 1.5 4 2.3 7 2.3s5.5-1 7.6-3c2-2 3.2-4.6 3.2-7.6 0-2.7-1-4.7-2.6-6"/>
  <path fill="#F05323" fill-rule="evenodd" d="M87.4 34.4c9 0 16.3-7.3 16.3-16.3S96.4 2 87.4 2 71 9 71 18s7.4 16.4 16.4 16.4" clip-rule="evenodd"/>
  <path fill="none" stroke="#FFF" stroke-width="1.4" d="M72.4 19.6h10l4.8-11 6.2 15 3.2-5.8h5.4"/>
  <path fill="#010101" d="M106.4 16.6c1-.3 1.8-.4 2.8-.4 2.6 0 4.8 1 6.4 2.6 1.6 1.7 2.4 3.6 2.4 6 0 1.6-.4 3-1 4.5-1 1.4-2.4 3.3-4.7 5.7l-7 7.7h13v2.8H99l11-11.8c2-2.4 3.6-4 4.3-5.3.6-1 1-2.3 1-3.6 0-1.6-.6-3-1.8-4-1.2-1.3-2.7-2-4.4-2-1 0-1.8.3-2.6.7v-2-1"/>
  <path fill="#010101" d="M87.3 0c-9.8 0-17.8 8-17.8 17.8s8 17.8 17.8 17.8 17.8-8 17.8-17.8S97 0 87.4 0m0 32C79.5 32 73 26 73 18c0-1 .2-1.6.3-2.4 1-6.8 7-12 14-12s13 5.2 14 12l.2 2.3c0 7.8-6.4 14-14.2 14"/>
</svg>
