<?xml version="1.0" encoding="utf-8"?>
<!-- Generator: Adobe Illustrator 16.0.0, SVG Export Plug-In . SVG Version: 6.00 Build 0)  -->
<!DOCTYPE svg PUBLIC "-//W3C//DTD SVG 1.1//EN" "http://www.w3.org/Graphics/SVG/1.1/DTD/svg11.dtd">
<svg version="1.1" xmlns="http://www.w3.org/2000/svg" xmlns:xlink="http://www.w3.org/1999/xlink" x="0px" y="0px"
	 width="118.714px" height="45.465px" viewBox="0 0 118.714 45.465" enable-background="new 0 0 118.714 45.465"
	 xml:space="preserve">
<g id="Layer_1" display="none">
	
		<rect x="-12.468" y="-18.218" display="inline" fill="#010101" stroke="#FFFFFF" stroke-width="0.2248" width="144.913" height="83.599"/>
</g>
<g id="Layer_2">
	<polygon fill="#F05323" points="24.573,0 34.794,25.208 45.014,0 49.198,0 34.794,35.581 24.573,10.279 14.354,35.581 0,0 4.132,0 
		14.354,25.208 	"/>
	<path fill="#F05323" d="M65.833,18.957c-1.688-1.379-3.492-2.497-5.423-3.36l-0.982-0.465l-0.924-0.411
		c-1.758-0.898-3.204-1.738-4.34-2.531c-1.133-0.792-1.704-1.947-1.704-3.462c0-1.516,0.579-2.746,1.731-3.692
		c1.153-0.949,2.555-1.422,4.207-1.422c1.067,0,1.979,0.207,2.735,0.622c0.759,0.414,1.481,1.086,2.17,2.015l0.363,0.568
		c0.102,0.07,0.242,0.242,0.412,0.515l3.049-1.96c-1-1.759-2.247-3.091-3.748-4.005C61.882,0.456,60.273,0,58.555,0
		c-2.927,0-5.324,0.824-7.182,2.477c-1.857,1.653-2.786,3.773-2.786,6.357c0,2.442,0.841,4.329,2.527,5.653
		c1.689,1.325,3.498,2.42,5.424,3.282l0.621,0.311l0.621,0.258c1.857,0.929,3.439,1.844,4.748,2.738
		c1.308,0.894,1.961,2.22,1.961,3.976c0,1.996-0.661,3.655-1.988,4.979c-1.325,1.328-3.004,1.99-5.032,1.99
		c-1.791,0-3.27-0.551-4.439-1.654c-1.172-1.101-2.001-2.68-2.48-4.747l-3.721,1.138c0.323,1.395,0.797,2.639,1.409,3.718
		c0.63,1.104,1.409,2.042,2.338,2.812c1.84,1.534,4.172,2.298,6.997,2.298c2.993,0,5.539-1.025,7.643-3.073
		c2.098-2.046,3.148-4.552,3.148-7.513C68.364,22.347,67.52,20.332,65.833,18.957"/>
	<path fill-rule="evenodd" clip-rule="evenodd" fill="#F05323" d="M87.405,34.417c8.967,0,16.279-7.309,16.279-16.275
		S96.372,1.867,87.405,1.867c-8.966,0-16.274,7.309-16.274,16.275S78.439,34.417,87.405,34.417"/>
	<polyline fill="none" stroke="#FFFFFF" stroke-width="1.375" points="72.402,19.605 82.279,19.628 87.21,8.65 93.371,23.67 
		96.613,17.836 102.045,17.824 	"/>
	<path fill="#010101" d="M106.443,16.589c0.869-0.246,1.792-0.372,2.775-0.372c2.622,0,4.747,0.848,6.372,2.544
		c1.619,1.691,2.436,3.688,2.436,5.987c0,1.619-0.391,3.135-1.168,4.548c-0.774,1.416-2.282,3.337-4.522,5.751l-7.099,7.663h13.172
		v2.754H99.032l10.902-11.772c2.21-2.372,3.649-4.124,4.318-5.269c0.666-1.143,1-2.349,1-3.61c0-1.606-0.6-2.989-1.799-4.146
		c-1.196-1.152-2.662-1.735-4.393-1.735c-0.994,0-1.893,0.179-2.706,0.539c0.07-0.692,0.107-1.394,0.107-2.106
		C106.462,17.108,106.452,16.847,106.443,16.589"/>
	<path fill="#010101" d="M87.301,0c-9.826,0-17.793,7.965-17.793,17.791c0,9.826,7.967,17.79,17.793,17.79
		c9.823,0,17.791-7.964,17.791-17.79C105.092,7.965,97.125,0,87.301,0 M87.301,32.12c-7.844,0-14.202-6.358-14.202-14.203
		c0-0.774,0.064-1.532,0.182-2.272C74.317,8.832,80.198,3.61,87.301,3.61c7.101,0,12.981,5.222,14.019,12.034
		c0.119,0.74,0.182,1.499,0.182,2.272C101.501,25.761,95.144,32.12,87.301,32.12"/>
</g>
</svg>
